<svg xmlns="http://www.w3.org/2000/svg" width="200" height="200" viewBox="0 0 200 200"><defs></defs><rect width="200" height="200" fill="#ffffff"/><g class="pattern"><path d="M100,100 L170,100 A70,70 0 0,1 163.06782075316934,130.37186173822906 Z" fill="#1e3c72" fill-opacity="0.8" stroke="#001e54" stroke-width="2"/><path d="M100,100 L163.06782075316934,130.37186173822906 A70,70 0 0,1 143.64428613011137,154.72820377276207 Z" fill="#1e3c72" fill-opacity="0.8" stroke="#001e54" stroke-width="2"/><path d="M100,100 L143.64428613011137,154.72820377276207 A70,70 0 0,1 115.57646537694201,168.24495385272763 Z" fill="#1e3c72" fill-opacity="0.8" stroke="#001e54" stroke-width="2"/><path d="M100,100 L115.57646537694201,168.24495385272763 A70,70 0 0,1 84.423534623058,168.24495385272763 Z" fill="#1e3c72" fill-opacity="0.8" stroke="#001e54" stroke-width="2"/><path d="M100,100 L84.423534623058,168.24495385272763 A70,70 0 0,1 56.35571386988865,154.7282037727621 Z" fill="#1e3c72" fill-opacity="0.8" stroke="#001e54" stroke-width="2"/><path d="M100,100 L56.35571386988865,154.7282037727621 A70,70 0 0,1 36.93217924683067,130.3718617382291 Z" fill="#1e3c72" fill-opacity="0.8" stroke="#001e54" stroke-width="2"/><path d="M100,100 L36.93217924683067,130.3718617382291 A70,70 0 0,1 30,100.00000000000001 Z" fill="#1e3c72" fill-opacity="0.8" stroke="#001e54" stroke-width="2"/><path d="M100,100 L30,100.00000000000001 A70,70 0 0,1 36.93217924683066,69.62813826177094 Z" fill="#1e3c72" fill-opacity="0.8" stroke="#001e54" stroke-width="2"/><path d="M100,100 L36.93217924683066,69.62813826177094 A70,70 0 0,1 56.35571386988864,45.27179622723792 Z" fill="#1e3c72" fill-opacity="0.8" stroke="#001e54" stroke-width="2"/><path d="M100,100 L56.35571386988864,45.27179622723792 A70,70 0 0,1 84.42353462305798,31.755046147272353 Z" fill="#1e3c72" fill-opacity="0.8" stroke="#001e54" stroke-width="2"/><path d="M100,100 L84.42353462305798,31.755046147272353 A70,70 0 0,1 115.576465376942,31.755046147272353 Z" fill="#1e3c72" fill-opacity="0.8" stroke="#001e54" stroke-width="2"/><path d="M100,100 L115.576465376942,31.755046147272353 A70,70 0 0,1 143.64428613011134,45.27179622723791 Z" fill="#1e3c72" fill-opacity="0.8" stroke="#001e54" stroke-width="2"/><path d="M100,100 L143.64428613011134,45.27179622723791 A70,70 0 0,1 163.06782075316931,69.62813826177091 Z" fill="#1e3c72" fill-opacity="0.8" stroke="#001e54" stroke-width="2"/><path d="M100,100 L163.06782075316931,69.62813826177091 A70,70 0 0,1 170,99.99999999999999 Z" fill="#1e3c72" fill-opacity="0.8" stroke="#001e54" stroke-width="2"/><path d="M100,100 L156,100 A56,56 0 0,1 148.49742261192858,128 Z" fill="#d4af37" fill-opacity="0.8" stroke="#b69119" stroke-width="2"/><path d="M100,100 L148.49742261192858,128 A56,56 0 0,1 128,148.49742261192856 Z" fill="#d4af37" fill-opacity="0.8" stroke="#b69119" stroke-width="2"/><path d="M100,100 L128,148.49742261192856 A56,56 0 0,1 100,156 Z" fill="#d4af37" fill-opacity="0.8" stroke="#b69119" stroke-width="2"/><path d="M100,100 L100,156 A56,56 0 0,1 72.00000000000001,148.49742261192858 Z" fill="#d4af37" fill-opacity="0.8" stroke="#b69119" stroke-width="2"/><path d="M100,100 L72.00000000000001,148.49742261192858 A56,56 0 0,1 51.50257738807143,128 Z" fill="#d4af37" fill-opacity="0.8" stroke="#b69119" stroke-width="2"/><path d="M100,100 L51.50257738807143,128 A56,56 0 0,1 44,100 Z" fill="#d4af37" fill-opacity="0.8" stroke="#b69119" stroke-width="2"/><path d="M100,100 L44,100 A56,56 0 0,1 51.50257738807144,72 Z" fill="#d4af37" fill-opacity="0.8" stroke="#b69119" stroke-width="2"/><path d="M100,100 L51.50257738807144,72 A56,56 0 0,1 71.99999999999997,51.50257738807145 Z" fill="#d4af37" fill-opacity="0.8" stroke="#b69119" stroke-width="2"/><path d="M100,100 L71.99999999999997,51.50257738807145 A56,56 0 0,1 99.99999999999999,44 Z" fill="#d4af37" fill-opacity="0.8" stroke="#b69119" stroke-width="2"/><path d="M100,100 L99.99999999999999,44 A56,56 0 0,1 128,51.50257738807144 Z" fill="#d4af37" fill-opacity="0.8" stroke="#b69119" stroke-width="2"/><path d="M100,100 L128,51.50257738807144 A56,56 0 0,1 148.49742261192856,71.99999999999997 Z" fill="#d4af37" fill-opacity="0.8" stroke="#b69119" stroke-width="2"/><path d="M100,100 L148.49742261192856,71.99999999999997 A56,56 0 0,1 156,99.99999999999999 Z" fill="#d4af37" fill-opacity="0.8" stroke="#b69119" stroke-width="2"/><path d="M100,100 L142,100 A42,42 0 0,1 133.9787137637478,124.68698059628387 Z" fill="#ffd700" fill-opacity="0.8" stroke="#e1b900" stroke-width="2"/><path d="M100,100 L133.9787137637478,124.68698059628387 A42,42 0 0,1 112.97871376374779,139.94437368439645 Z" fill="#ffd700" fill-opacity="0.8" stroke="#e1b900" stroke-width="2"/><path d="M100,100 L112.97871376374779,139.94437368439645 A42,42 0 0,1 87.02128623625221,139.94437368439645 Z" fill="#ffd700" fill-opacity="0.8" stroke="#e1b900" stroke-width="2"/><path d="M100,100 L87.02128623625221,139.94437368439645 A42,42 0 0,1 66.02128623625221,124.68698059628387 Z" fill="#ffd700" fill-opacity="0.8" stroke="#e1b900" stroke-width="2"/><path d="M100,100 L66.02128623625221,124.68698059628387 A42,42 0 0,1 58,100 Z" fill="#ffd700" fill-opacity="0.8" stroke="#e1b900" stroke-width="2"/><path d="M100,100 L58,100 A42,42 0 0,1 66.0212862362522,75.31301940371614 Z" fill="#ffd700" fill-opacity="0.8" stroke="#e1b900" stroke-width="2"/><path d="M100,100 L66.0212862362522,75.31301940371614 A42,42 0 0,1 87.0212862362522,60.055626315603554 Z" fill="#ffd700" fill-opacity="0.8" stroke="#e1b900" stroke-width="2"/><path d="M100,100 L87.0212862362522,60.055626315603554 A42,42 0 0,1 112.97871376374778,60.05562631560355 Z" fill="#ffd700" fill-opacity="0.8" stroke="#e1b900" stroke-width="2"/><path d="M100,100 L112.97871376374778,60.05562631560355 A42,42 0 0,1 133.9787137637478,75.31301940371611 Z" fill="#ffd700" fill-opacity="0.8" stroke="#e1b900" stroke-width="2"/><path d="M100,100 L133.9787137637478,75.31301940371611 A42,42 0 0,1 142,99.99999999999999 Z" fill="#ffd700" fill-opacity="0.8" stroke="#e1b900" stroke-width="2"/><path d="M100,100 L128,100 A28,28 0 0,1 119.79898987322333,119.79898987322332 Z" fill="#b8860b" fill-opacity="0.8" stroke="#9a6800" stroke-width="2"/><path d="M100,100 L119.79898987322333,119.79898987322332 A28,28 0 0,1 100,128 Z" fill="#b8860b" fill-opacity="0.8" stroke="#9a6800" stroke-width="2"/><path d="M100,100 L100,128 A28,28 0 0,1 80.20101012677668,119.79898987322333 Z" fill="#b8860b" fill-opacity="0.8" stroke="#9a6800" stroke-width="2"/><path d="M100,100 L80.20101012677668,119.79898987322333 A28,28 0 0,1 72,100 Z" fill="#b8860b" fill-opacity="0.8" stroke="#9a6800" stroke-width="2"/><path d="M100,100 L72,100 A28,28 0 0,1 80.20101012677667,80.20101012677668 Z" fill="#b8860b" fill-opacity="0.8" stroke="#9a6800" stroke-width="2"/><path d="M100,100 L80.20101012677667,80.20101012677668 A28,28 0 0,1 100,72 Z" fill="#b8860b" fill-opacity="0.8" stroke="#9a6800" stroke-width="2"/><path d="M100,100 L100,72 A28,28 0 0,1 119.79898987322332,80.20101012677667 Z" fill="#b8860b" fill-opacity="0.8" stroke="#9a6800" stroke-width="2"/><path d="M100,100 L119.79898987322332,80.20101012677667 A28,28 0 0,1 128,100 Z" fill="#b8860b" fill-opacity="0.8" stroke="#9a6800" stroke-width="2"/><path d="M100,100 L114,100 A14,14 0 0,1 107,112.12435565298215 Z" fill="#fff8dc" fill-opacity="0.8" stroke="#e1dabe" stroke-width="2"/><path d="M100,100 L107,112.12435565298215 A14,14 0 0,1 93,112.12435565298215 Z" fill="#fff8dc" fill-opacity="0.8" stroke="#e1dabe" stroke-width="2"/><path d="M100,100 L93,112.12435565298215 A14,14 0 0,1 86,100 Z" fill="#fff8dc" fill-opacity="0.8" stroke="#e1dabe" stroke-width="2"/><path d="M100,100 L86,100 A14,14 0 0,1 93,87.87564434701787 Z" fill="#fff8dc" fill-opacity="0.8" stroke="#e1dabe" stroke-width="2"/><path d="M100,100 L93,87.87564434701787 A14,14 0 0,1 107,87.87564434701785 Z" fill="#fff8dc" fill-opacity="0.8" stroke="#e1dabe" stroke-width="2"/><path d="M100,100 L107,87.87564434701785 A14,14 0 0,1 114,100 Z" fill="#fff8dc" fill-opacity="0.8" stroke="#e1dabe" stroke-width="2"/><circle cx="100" cy="100" r="8" fill="#1e3c72" stroke="#00144a" stroke-width="2"/></g><circle cx="15" cy="15" r="8" fill="none" stroke="#1e3c72" stroke-width="2"/><circle cx="185" cy="15" r="8" fill="none" stroke="#1e3c72" stroke-width="2"/><circle cx="185" cy="185" r="8" fill="none" stroke="#1e3c72" stroke-width="2"/><circle cx="15" cy="185" r="8" fill="none" stroke="#1e3c72" stroke-width="2"/><rect x="5" y="5" width="190" height="190" fill="none" stroke="#1e3c72" stroke-width="8"/></svg>