<svg xmlns="http://www.w3.org/2000/svg" width="200" height="200" viewBox="0 0 200 200"><defs></defs><rect width="200" height="200" fill="#ffffff"/><g class="pattern"><g class="symmetry-radial"><rect x="15.5" y="15.5" width="27.333333333333332" height="27.333333333333332" fill="#dc143c" fill-opacity="0.8" stroke="#be001e" stroke-width="6"/><rect x="43.83333333333333" y="15.5" width="27.333333333333332" height="27.333333333333332" fill="#ffd700" fill-opacity="0.8" stroke="#e1b900" stroke-width="6"/><rect x="72.16666666666666" y="15.5" width="27.333333333333332" height="27.333333333333332" fill="#dc143c" fill-opacity="0.8" stroke="#be001e" stroke-width="6"/><rect x="100.5" y="15.5" width="27.333333333333332" height="27.333333333333332" fill="#ffd700" fill-opacity="0.8" stroke="#e1b900" stroke-width="6"/><rect x="128.83333333333331" y="15.5" width="27.333333333333332" height="27.333333333333332" fill="#dc143c" fill-opacity="0.8" stroke="#be001e" stroke-width="6"/><rect x="157.16666666666666" y="15.5" width="27.333333333333332" height="27.333333333333332" fill="#ffd700" fill-opacity="0.8" stroke="#e1b900" stroke-width="6"/><rect x="15.5" y="43.83333333333333" width="27.333333333333332" height="27.333333333333332" fill="#ffd700" fill-opacity="0.8" stroke="#e1b900" stroke-width="6"/><rect x="43.83333333333333" y="43.83333333333333" width="27.333333333333332" height="27.333333333333332" fill="#dc143c" fill-opacity="0.8" stroke="#be001e" stroke-width="6"/><rect x="72.16666666666666" y="43.83333333333333" width="27.333333333333332" height="27.333333333333332" fill="#ffd700" fill-opacity="0.8" stroke="#e1b900" stroke-width="6"/><rect x="100.5" y="43.83333333333333" width="27.333333333333332" height="27.333333333333332" fill="#dc143c" fill-opacity="0.8" stroke="#be001e" stroke-width="6"/><rect x="128.83333333333331" y="43.83333333333333" width="27.333333333333332" height="27.333333333333332" fill="#ffd700" fill-opacity="0.8" stroke="#e1b900" stroke-width="6"/><rect x="157.16666666666666" y="43.83333333333333" width="27.333333333333332" height="27.333333333333332" fill="#dc143c" fill-opacity="0.8" stroke="#be001e" stroke-width="6"/><rect x="15.5" y="72.16666666666666" width="27.333333333333332" height="27.333333333333332" fill="#dc143c" fill-opacity="0.8" stroke="#be001e" stroke-width="6"/><rect x="43.83333333333333" y="72.16666666666666" width="27.333333333333332" height="27.333333333333332" fill="#ffd700" fill-opacity="0.8" stroke="#e1b900" stroke-width="6"/><rect x="72.16666666666666" y="72.16666666666666" width="27.333333333333332" height="27.333333333333332" fill="#dc143c" fill-opacity="0.8" stroke="#be001e" stroke-width="6"/><rect x="100.5" y="72.16666666666666" width="27.333333333333332" height="27.333333333333332" fill="#ffd700" fill-opacity="0.8" stroke="#e1b900" stroke-width="6"/><rect x="128.83333333333331" y="72.16666666666666" width="27.333333333333332" height="27.333333333333332" fill="#dc143c" fill-opacity="0.8" stroke="#be001e" stroke-width="6"/><rect x="157.16666666666666" y="72.16666666666666" width="27.333333333333332" height="27.333333333333332" fill="#ffd700" fill-opacity="0.8" stroke="#e1b900" stroke-width="6"/><rect x="15.5" y="100.5" width="27.333333333333332" height="27.333333333333332" fill="#ffd700" fill-opacity="0.8" stroke="#e1b900" stroke-width="6"/><rect x="43.83333333333333" y="100.5" width="27.333333333333332" height="27.333333333333332" fill="#dc143c" fill-opacity="0.8" stroke="#be001e" stroke-width="6"/><rect x="72.16666666666666" y="100.5" width="27.333333333333332" height="27.333333333333332" fill="#ffd700" fill-opacity="0.8" stroke="#e1b900" stroke-width="6"/><rect x="100.5" y="100.5" width="27.333333333333332" height="27.333333333333332" fill="#dc143c" fill-opacity="0.8" stroke="#be001e" stroke-width="6"/><rect x="128.83333333333331" y="100.5" width="27.333333333333332" height="27.333333333333332" fill="#ffd700" fill-opacity="0.8" stroke="#e1b900" stroke-width="6"/><rect x="157.16666666666666" y="100.5" width="27.333333333333332" height="27.333333333333332" fill="#dc143c" fill-opacity="0.8" stroke="#be001e" stroke-width="6"/><rect x="15.5" y="128.83333333333331" width="27.333333333333332" height="27.333333333333332" fill="#dc143c" fill-opacity="0.8" stroke="#be001e" stroke-width="6"/><rect x="43.83333333333333" y="128.83333333333331" width="27.333333333333332" height="27.333333333333332" fill="#ffd700" fill-opacity="0.8" stroke="#e1b900" stroke-width="6"/><rect x="72.16666666666666" y="128.83333333333331" width="27.333333333333332" height="27.333333333333332" fill="#dc143c" fill-opacity="0.8" stroke="#be001e" stroke-width="6"/><rect x="100.5" y="128.83333333333331" width="27.333333333333332" height="27.333333333333332" fill="#ffd700" fill-opacity="0.8" stroke="#e1b900" stroke-width="6"/><rect x="128.83333333333331" y="128.83333333333331" width="27.333333333333332" height="27.333333333333332" fill="#dc143c" fill-opacity="0.8" stroke="#be001e" stroke-width="6"/><rect x="157.16666666666666" y="128.83333333333331" width="27.333333333333332" height="27.333333333333332" fill="#ffd700" fill-opacity="0.8" stroke="#e1b900" stroke-width="6"/><rect x="15.5" y="157.16666666666666" width="27.333333333333332" height="27.333333333333332" fill="#ffd700" fill-opacity="0.8" stroke="#e1b900" stroke-width="6"/><rect x="43.83333333333333" y="157.16666666666666" width="27.333333333333332" height="27.333333333333332" fill="#dc143c" fill-opacity="0.8" stroke="#be001e" stroke-width="6"/><rect x="72.16666666666666" y="157.16666666666666" width="27.333333333333332" height="27.333333333333332" fill="#ffd700" fill-opacity="0.8" stroke="#e1b900" stroke-width="6"/><rect x="100.5" y="157.16666666666666" width="27.333333333333332" height="27.333333333333332" fill="#dc143c" fill-opacity="0.8" stroke="#be001e" stroke-width="6"/><rect x="128.83333333333331" y="157.16666666666666" width="27.333333333333332" height="27.333333333333332" fill="#ffd700" fill-opacity="0.8" stroke="#e1b900" stroke-width="6"/><rect x="157.16666666666666" y="157.16666666666666" width="27.333333333333332" height="27.333333333333332" fill="#dc143c" fill-opacity="0.8" stroke="#be001e" stroke-width="6"/><g transform="rotate(45, 100, 100)"><rect x="15.5" y="15.5" width="27.333333333333332" height="27.333333333333332" fill="#dc143c" fill-opacity="0.8" stroke="#be001e" stroke-width="6"/><rect x="43.83333333333333" y="15.5" width="27.333333333333332" height="27.333333333333332" fill="#ffd700" fill-opacity="0.8" stroke="#e1b900" stroke-width="6"/><rect x="72.16666666666666" y="15.5" width="27.333333333333332" height="27.333333333333332" fill="#dc143c" fill-opacity="0.8" stroke="#be001e" stroke-width="6"/><rect x="100.5" y="15.5" width="27.333333333333332" height="27.333333333333332" fill="#ffd700" fill-opacity="0.8" stroke="#e1b900" stroke-width="6"/><rect x="128.83333333333331" y="15.5" width="27.333333333333332" height="27.333333333333332" fill="#dc143c" fill-opacity="0.8" stroke="#be001e" stroke-width="6"/><rect x="157.16666666666666" y="15.5" width="27.333333333333332" height="27.333333333333332" fill="#ffd700" fill-opacity="0.8" stroke="#e1b900" stroke-width="6"/><rect x="15.5" y="43.83333333333333" width="27.333333333333332" height="27.333333333333332" fill="#ffd700" fill-opacity="0.8" stroke="#e1b900" stroke-width="6"/><rect x="43.83333333333333" y="43.83333333333333" width="27.333333333333332" height="27.333333333333332" fill="#dc143c" fill-opacity="0.8" stroke="#be001e" stroke-width="6"/><rect x="72.16666666666666" y="43.83333333333333" width="27.333333333333332" height="27.333333333333332" fill="#ffd700" fill-opacity="0.8" stroke="#e1b900" stroke-width="6"/><rect x="100.5" y="43.83333333333333" width="27.333333333333332" height="27.333333333333332" fill="#dc143c" fill-opacity="0.8" stroke="#be001e" stroke-width="6"/><rect x="128.83333333333331" y="43.83333333333333" width="27.333333333333332" height="27.333333333333332" fill="#ffd700" fill-opacity="0.8" stroke="#e1b900" stroke-width="6"/><rect x="157.16666666666666" y="43.83333333333333" width="27.333333333333332" height="27.333333333333332" fill="#dc143c" fill-opacity="0.8" stroke="#be001e" stroke-width="6"/><rect x="15.5" y="72.16666666666666" width="27.333333333333332" height="27.333333333333332" fill="#dc143c" fill-opacity="0.8" stroke="#be001e" stroke-width="6"/><rect x="43.83333333333333" y="72.16666666666666" width="27.333333333333332" height="27.333333333333332" fill="#ffd700" fill-opacity="0.8" stroke="#e1b900" stroke-width="6"/><rect x="72.16666666666666" y="72.16666666666666" width="27.333333333333332" height="27.333333333333332" fill="#dc143c" fill-opacity="0.8" stroke="#be001e" stroke-width="6"/><rect x="100.5" y="72.16666666666666" width="27.333333333333332" height="27.333333333333332" fill="#ffd700" fill-opacity="0.8" stroke="#e1b900" stroke-width="6"/><rect x="128.83333333333331" y="72.16666666666666" width="27.333333333333332" height="27.333333333333332" fill="#dc143c" fill-opacity="0.8" stroke="#be001e" stroke-width="6"/><rect x="157.16666666666666" y="72.16666666666666" width="27.333333333333332" height="27.333333333333332" fill="#ffd700" fill-opacity="0.8" stroke="#e1b900" stroke-width="6"/><rect x="15.5" y="100.5" width="27.333333333333332" height="27.333333333333332" fill="#ffd700" fill-opacity="0.8" stroke="#e1b900" stroke-width="6"/><rect x="43.83333333333333" y="100.5" width="27.333333333333332" height="27.333333333333332" fill="#dc143c" fill-opacity="0.8" stroke="#be001e" stroke-width="6"/><rect x="72.16666666666666" y="100.5" width="27.333333333333332" height="27.333333333333332" fill="#ffd700" fill-opacity="0.8" stroke="#e1b900" stroke-width="6"/><rect x="100.5" y="100.5" width="27.333333333333332" height="27.333333333333332" fill="#dc143c" fill-opacity="0.8" stroke="#be001e" stroke-width="6"/><rect x="128.83333333333331" y="100.5" width="27.333333333333332" height="27.333333333333332" fill="#ffd700" fill-opacity="0.8" stroke="#e1b900" stroke-width="6"/><rect x="157.16666666666666" y="100.5" width="27.333333333333332" height="27.333333333333332" fill="#dc143c" fill-opacity="0.8" stroke="#be001e" stroke-width="6"/><rect x="15.5" y="128.83333333333331" width="27.333333333333332" height="27.333333333333332" fill="#dc143c" fill-opacity="0.8" stroke="#be001e" stroke-width="6"/><rect x="43.83333333333333" y="128.83333333333331" width="27.333333333333332" height="27.333333333333332" fill="#ffd700" fill-opacity="0.8" stroke="#e1b900" stroke-width="6"/><rect x="72.16666666666666" y="128.83333333333331" width="27.333333333333332" height="27.333333333333332" fill="#dc143c" fill-opacity="0.8" stroke="#be001e" stroke-width="6"/><rect x="100.5" y="128.83333333333331" width="27.333333333333332" height="27.333333333333332" fill="#ffd700" fill-opacity="0.8" stroke="#e1b900" stroke-width="6"/><rect x="128.83333333333331" y="128.83333333333331" width="27.333333333333332" height="27.333333333333332" fill="#dc143c" fill-opacity="0.8" stroke="#be001e" stroke-width="6"/><rect x="157.16666666666666" y="128.83333333333331" width="27.333333333333332" height="27.333333333333332" fill="#ffd700" fill-opacity="0.8" stroke="#e1b900" stroke-width="6"/><rect x="15.5" y="157.16666666666666" width="27.333333333333332" height="27.333333333333332" fill="#ffd700" fill-opacity="0.8" stroke="#e1b900" stroke-width="6"/><rect x="43.83333333333333" y="157.16666666666666" width="27.333333333333332" height="27.333333333333332" fill="#dc143c" fill-opacity="0.8" stroke="#be001e" stroke-width="6"/><rect x="72.16666666666666" y="157.16666666666666" width="27.333333333333332" height="27.333333333333332" fill="#ffd700" fill-opacity="0.8" stroke="#e1b900" stroke-width="6"/><rect x="100.5" y="157.16666666666666" width="27.333333333333332" height="27.333333333333332" fill="#dc143c" fill-opacity="0.8" stroke="#be001e" stroke-width="6"/><rect x="128.83333333333331" y="157.16666666666666" width="27.333333333333332" height="27.333333333333332" fill="#ffd700" fill-opacity="0.8" stroke="#e1b900" stroke-width="6"/><rect x="157.16666666666666" y="157.16666666666666" width="27.333333333333332" height="27.333333333333332" fill="#dc143c" fill-opacity="0.8" stroke="#be001e" stroke-width="6"/></g><g transform="rotate(90, 100, 100)"><rect x="15.5" y="15.5" width="27.333333333333332" height="27.333333333333332" fill="#dc143c" fill-opacity="0.8" stroke="#be001e" stroke-width="6"/><rect x="43.83333333333333" y="15.5" width="27.333333333333332" height="27.333333333333332" fill="#ffd700" fill-opacity="0.8" stroke="#e1b900" stroke-width="6"/><rect x="72.16666666666666" y="15.5" width="27.333333333333332" height="27.333333333333332" fill="#dc143c" fill-opacity="0.8" stroke="#be001e" stroke-width="6"/><rect x="100.5" y="15.5" width="27.333333333333332" height="27.333333333333332" fill="#ffd700" fill-opacity="0.8" stroke="#e1b900" stroke-width="6"/><rect x="128.83333333333331" y="15.5" width="27.333333333333332" height="27.333333333333332" fill="#dc143c" fill-opacity="0.8" stroke="#be001e" stroke-width="6"/><rect x="157.16666666666666" y="15.5" width="27.333333333333332" height="27.333333333333332" fill="#ffd700" fill-opacity="0.8" stroke="#e1b900" stroke-width="6"/><rect x="15.5" y="43.83333333333333" width="27.333333333333332" height="27.333333333333332" fill="#ffd700" fill-opacity="0.8" stroke="#e1b900" stroke-width="6"/><rect x="43.83333333333333" y="43.83333333333333" width="27.333333333333332" height="27.333333333333332" fill="#dc143c" fill-opacity="0.8" stroke="#be001e" stroke-width="6"/><rect x="72.16666666666666" y="43.83333333333333" width="27.333333333333332" height="27.333333333333332" fill="#ffd700" fill-opacity="0.8" stroke="#e1b900" stroke-width="6"/><rect x="100.5" y="43.83333333333333" width="27.333333333333332" height="27.333333333333332" fill="#dc143c" fill-opacity="0.8" stroke="#be001e" stroke-width="6"/><rect x="128.83333333333331" y="43.83333333333333" width="27.333333333333332" height="27.333333333333332" fill="#ffd700" fill-opacity="0.8" stroke="#e1b900" stroke-width="6"/><rect x="157.16666666666666" y="43.83333333333333" width="27.333333333333332" height="27.333333333333332" fill="#dc143c" fill-opacity="0.8" stroke="#be001e" stroke-width="6"/><rect x="15.5" y="72.16666666666666" width="27.333333333333332" height="27.333333333333332" fill="#dc143c" fill-opacity="0.8" stroke="#be001e" stroke-width="6"/><rect x="43.83333333333333" y="72.16666666666666" width="27.333333333333332" height="27.333333333333332" fill="#ffd700" fill-opacity="0.8" stroke="#e1b900" stroke-width="6"/><rect x="72.16666666666666" y="72.16666666666666" width="27.333333333333332" height="27.333333333333332" fill="#dc143c" fill-opacity="0.8" stroke="#be001e" stroke-width="6"/><rect x="100.5" y="72.16666666666666" width="27.333333333333332" height="27.333333333333332" fill="#ffd700" fill-opacity="0.8" stroke="#e1b900" stroke-width="6"/><rect x="128.83333333333331" y="72.16666666666666" width="27.333333333333332" height="27.333333333333332" fill="#dc143c" fill-opacity="0.8" stroke="#be001e" stroke-width="6"/><rect x="157.16666666666666" y="72.16666666666666" width="27.333333333333332" height="27.333333333333332" fill="#ffd700" fill-opacity="0.8" stroke="#e1b900" stroke-width="6"/><rect x="15.5" y="100.5" width="27.333333333333332" height="27.333333333333332" fill="#ffd700" fill-opacity="0.8" stroke="#e1b900" stroke-width="6"/><rect x="43.83333333333333" y="100.5" width="27.333333333333332" height="27.333333333333332" fill="#dc143c" fill-opacity="0.8" stroke="#be001e" stroke-width="6"/><rect x="72.16666666666666" y="100.5" width="27.333333333333332" height="27.333333333333332" fill="#ffd700" fill-opacity="0.8" stroke="#e1b900" stroke-width="6"/><rect x="100.5" y="100.5" width="27.333333333333332" height="27.333333333333332" fill="#dc143c" fill-opacity="0.8" stroke="#be001e" stroke-width="6"/><rect x="128.83333333333331" y="100.5" width="27.333333333333332" height="27.333333333333332" fill="#ffd700" fill-opacity="0.8" stroke="#e1b900" stroke-width="6"/><rect x="157.16666666666666" y="100.5" width="27.333333333333332" height="27.333333333333332" fill="#dc143c" fill-opacity="0.8" stroke="#be001e" stroke-width="6"/><rect x="15.5" y="128.83333333333331" width="27.333333333333332" height="27.333333333333332" fill="#dc143c" fill-opacity="0.8" stroke="#be001e" stroke-width="6"/><rect x="43.83333333333333" y="128.83333333333331" width="27.333333333333332" height="27.333333333333332" fill="#ffd700" fill-opacity="0.8" stroke="#e1b900" stroke-width="6"/><rect x="72.16666666666666" y="128.83333333333331" width="27.333333333333332" height="27.333333333333332" fill="#dc143c" fill-opacity="0.8" stroke="#be001e" stroke-width="6"/><rect x="100.5" y="128.83333333333331" width="27.333333333333332" height="27.333333333333332" fill="#ffd700" fill-opacity="0.8" stroke="#e1b900" stroke-width="6"/><rect x="128.83333333333331" y="128.83333333333331" width="27.333333333333332" height="27.333333333333332" fill="#dc143c" fill-opacity="0.8" stroke="#be001e" stroke-width="6"/><rect x="157.16666666666666" y="128.83333333333331" width="27.333333333333332" height="27.333333333333332" fill="#ffd700" fill-opacity="0.8" stroke="#e1b900" stroke-width="6"/><rect x="15.5" y="157.16666666666666" width="27.333333333333332" height="27.333333333333332" fill="#ffd700" fill-opacity="0.8" stroke="#e1b900" stroke-width="6"/><rect x="43.83333333333333" y="157.16666666666666" width="27.333333333333332" height="27.333333333333332" fill="#dc143c" fill-opacity="0.8" stroke="#be001e" stroke-width="6"/><rect x="72.16666666666666" y="157.16666666666666" width="27.333333333333332" height="27.333333333333332" fill="#ffd700" fill-opacity="0.8" stroke="#e1b900" stroke-width="6"/><rect x="100.5" y="157.16666666666666" width="27.333333333333332" height="27.333333333333332" fill="#dc143c" fill-opacity="0.8" stroke="#be001e" stroke-width="6"/><rect x="128.83333333333331" y="157.16666666666666" width="27.333333333333332" height="27.333333333333332" fill="#ffd700" fill-opacity="0.8" stroke="#e1b900" stroke-width="6"/><rect x="157.16666666666666" y="157.16666666666666" width="27.333333333333332" height="27.333333333333332" fill="#dc143c" fill-opacity="0.8" stroke="#be001e" stroke-width="6"/></g><g transform="rotate(135, 100, 100)"><rect x="15.5" y="15.5" width="27.333333333333332" height="27.333333333333332" fill="#dc143c" fill-opacity="0.8" stroke="#be001e" stroke-width="6"/><rect x="43.83333333333333" y="15.5" width="27.333333333333332" height="27.333333333333332" fill="#ffd700" fill-opacity="0.8" stroke="#e1b900" stroke-width="6"/><rect x="72.16666666666666" y="15.5" width="27.333333333333332" height="27.333333333333332" fill="#dc143c" fill-opacity="0.8" stroke="#be001e" stroke-width="6"/><rect x="100.5" y="15.5" width="27.333333333333332" height="27.333333333333332" fill="#ffd700" fill-opacity="0.8" stroke="#e1b900" stroke-width="6"/><rect x="128.83333333333331" y="15.5" width="27.333333333333332" height="27.333333333333332" fill="#dc143c" fill-opacity="0.8" stroke="#be001e" stroke-width="6"/><rect x="157.16666666666666" y="15.5" width="27.333333333333332" height="27.333333333333332" fill="#ffd700" fill-opacity="0.8" stroke="#e1b900" stroke-width="6"/><rect x="15.5" y="43.83333333333333" width="27.333333333333332" height="27.333333333333332" fill="#ffd700" fill-opacity="0.8" stroke="#e1b900" stroke-width="6"/><rect x="43.83333333333333" y="43.83333333333333" width="27.333333333333332" height="27.333333333333332" fill="#dc143c" fill-opacity="0.8" stroke="#be001e" stroke-width="6"/><rect x="72.16666666666666" y="43.83333333333333" width="27.333333333333332" height="27.333333333333332" fill="#ffd700" fill-opacity="0.8" stroke="#e1b900" stroke-width="6"/><rect x="100.5" y="43.83333333333333" width="27.333333333333332" height="27.333333333333332" fill="#dc143c" fill-opacity="0.8" stroke="#be001e" stroke-width="6"/><rect x="128.83333333333331" y="43.83333333333333" width="27.333333333333332" height="27.333333333333332" fill="#ffd700" fill-opacity="0.8" stroke="#e1b900" stroke-width="6"/><rect x="157.16666666666666" y="43.83333333333333" width="27.333333333333332" height="27.333333333333332" fill="#dc143c" fill-opacity="0.8" stroke="#be001e" stroke-width="6"/><rect x="15.5" y="72.16666666666666" width="27.333333333333332" height="27.333333333333332" fill="#dc143c" fill-opacity="0.8" stroke="#be001e" stroke-width="6"/><rect x="43.83333333333333" y="72.16666666666666" width="27.333333333333332" height="27.333333333333332" fill="#ffd700" fill-opacity="0.8" stroke="#e1b900" stroke-width="6"/><rect x="72.16666666666666" y="72.16666666666666" width="27.333333333333332" height="27.333333333333332" fill="#dc143c" fill-opacity="0.8" stroke="#be001e" stroke-width="6"/><rect x="100.5" y="72.16666666666666" width="27.333333333333332" height="27.333333333333332" fill="#ffd700" fill-opacity="0.8" stroke="#e1b900" stroke-width="6"/><rect x="128.83333333333331" y="72.16666666666666" width="27.333333333333332" height="27.333333333333332" fill="#dc143c" fill-opacity="0.8" stroke="#be001e" stroke-width="6"/><rect x="157.16666666666666" y="72.16666666666666" width="27.333333333333332" height="27.333333333333332" fill="#ffd700" fill-opacity="0.8" stroke="#e1b900" stroke-width="6"/><rect x="15.5" y="100.5" width="27.333333333333332" height="27.333333333333332" fill="#ffd700" fill-opacity="0.8" stroke="#e1b900" stroke-width="6"/><rect x="43.83333333333333" y="100.5" width="27.333333333333332" height="27.333333333333332" fill="#dc143c" fill-opacity="0.8" stroke="#be001e" stroke-width="6"/><rect x="72.16666666666666" y="100.5" width="27.333333333333332" height="27.333333333333332" fill="#ffd700" fill-opacity="0.8" stroke="#e1b900" stroke-width="6"/><rect x="100.5" y="100.5" width="27.333333333333332" height="27.333333333333332" fill="#dc143c" fill-opacity="0.8" stroke="#be001e" stroke-width="6"/><rect x="128.83333333333331" y="100.5" width="27.333333333333332" height="27.333333333333332" fill="#ffd700" fill-opacity="0.8" stroke="#e1b900" stroke-width="6"/><rect x="157.16666666666666" y="100.5" width="27.333333333333332" height="27.333333333333332" fill="#dc143c" fill-opacity="0.8" stroke="#be001e" stroke-width="6"/><rect x="15.5" y="128.83333333333331" width="27.333333333333332" height="27.333333333333332" fill="#dc143c" fill-opacity="0.8" stroke="#be001e" stroke-width="6"/><rect x="43.83333333333333" y="128.83333333333331" width="27.333333333333332" height="27.333333333333332" fill="#ffd700" fill-opacity="0.8" stroke="#e1b900" stroke-width="6"/><rect x="72.16666666666666" y="128.83333333333331" width="27.333333333333332" height="27.333333333333332" fill="#dc143c" fill-opacity="0.8" stroke="#be001e" stroke-width="6"/><rect x="100.5" y="128.83333333333331" width="27.333333333333332" height="27.333333333333332" fill="#ffd700" fill-opacity="0.8" stroke="#e1b900" stroke-width="6"/><rect x="128.83333333333331" y="128.83333333333331" width="27.333333333333332" height="27.333333333333332" fill="#dc143c" fill-opacity="0.8" stroke="#be001e" stroke-width="6"/><rect x="157.16666666666666" y="128.83333333333331" width="27.333333333333332" height="27.333333333333332" fill="#ffd700" fill-opacity="0.8" stroke="#e1b900" stroke-width="6"/><rect x="15.5" y="157.16666666666666" width="27.333333333333332" height="27.333333333333332" fill="#ffd700" fill-opacity="0.8" stroke="#e1b900" stroke-width="6"/><rect x="43.83333333333333" y="157.16666666666666" width="27.333333333333332" height="27.333333333333332" fill="#dc143c" fill-opacity="0.8" stroke="#be001e" stroke-width="6"/><rect x="72.16666666666666" y="157.16666666666666" width="27.333333333333332" height="27.333333333333332" fill="#ffd700" fill-opacity="0.8" stroke="#e1b900" stroke-width="6"/><rect x="100.5" y="157.16666666666666" width="27.333333333333332" height="27.333333333333332" fill="#dc143c" fill-opacity="0.8" stroke="#be001e" stroke-width="6"/><rect x="128.83333333333331" y="157.16666666666666" width="27.333333333333332" height="27.333333333333332" fill="#ffd700" fill-opacity="0.8" stroke="#e1b900" stroke-width="6"/><rect x="157.16666666666666" y="157.16666666666666" width="27.333333333333332" height="27.333333333333332" fill="#dc143c" fill-opacity="0.8" stroke="#be001e" stroke-width="6"/></g><g transform="rotate(180, 100, 100)"><rect x="15.5" y="15.5" width="27.333333333333332" height="27.333333333333332" fill="#dc143c" fill-opacity="0.8" stroke="#be001e" stroke-width="6"/><rect x="43.83333333333333" y="15.5" width="27.333333333333332" height="27.333333333333332" fill="#ffd700" fill-opacity="0.8" stroke="#e1b900" stroke-width="6"/><rect x="72.16666666666666" y="15.5" width="27.333333333333332" height="27.333333333333332" fill="#dc143c" fill-opacity="0.8" stroke="#be001e" stroke-width="6"/><rect x="100.5" y="15.5" width="27.333333333333332" height="27.333333333333332" fill="#ffd700" fill-opacity="0.8" stroke="#e1b900" stroke-width="6"/><rect x="128.83333333333331" y="15.5" width="27.333333333333332" height="27.333333333333332" fill="#dc143c" fill-opacity="0.8" stroke="#be001e" stroke-width="6"/><rect x="157.16666666666666" y="15.5" width="27.333333333333332" height="27.333333333333332" fill="#ffd700" fill-opacity="0.8" stroke="#e1b900" stroke-width="6"/><rect x="15.5" y="43.83333333333333" width="27.333333333333332" height="27.333333333333332" fill="#ffd700" fill-opacity="0.8" stroke="#e1b900" stroke-width="6"/><rect x="43.83333333333333" y="43.83333333333333" width="27.333333333333332" height="27.333333333333332" fill="#dc143c" fill-opacity="0.8" stroke="#be001e" stroke-width="6"/><rect x="72.16666666666666" y="43.83333333333333" width="27.333333333333332" height="27.333333333333332" fill="#ffd700" fill-opacity="0.8" stroke="#e1b900" stroke-width="6"/><rect x="100.5" y="43.83333333333333" width="27.333333333333332" height="27.333333333333332" fill="#dc143c" fill-opacity="0.8" stroke="#be001e" stroke-width="6"/><rect x="128.83333333333331" y="43.83333333333333" width="27.333333333333332" height="27.333333333333332" fill="#ffd700" fill-opacity="0.8" stroke="#e1b900" stroke-width="6"/><rect x="157.16666666666666" y="43.83333333333333" width="27.333333333333332" height="27.333333333333332" fill="#dc143c" fill-opacity="0.8" stroke="#be001e" stroke-width="6"/><rect x="15.5" y="72.16666666666666" width="27.333333333333332" height="27.333333333333332" fill="#dc143c" fill-opacity="0.8" stroke="#be001e" stroke-width="6"/><rect x="43.83333333333333" y="72.16666666666666" width="27.333333333333332" height="27.333333333333332" fill="#ffd700" fill-opacity="0.8" stroke="#e1b900" stroke-width="6"/><rect x="72.16666666666666" y="72.16666666666666" width="27.333333333333332" height="27.333333333333332" fill="#dc143c" fill-opacity="0.8" stroke="#be001e" stroke-width="6"/><rect x="100.5" y="72.16666666666666" width="27.333333333333332" height="27.333333333333332" fill="#ffd700" fill-opacity="0.8" stroke="#e1b900" stroke-width="6"/><rect x="128.83333333333331" y="72.16666666666666" width="27.333333333333332" height="27.333333333333332" fill="#dc143c" fill-opacity="0.8" stroke="#be001e" stroke-width="6"/><rect x="157.16666666666666" y="72.16666666666666" width="27.333333333333332" height="27.333333333333332" fill="#ffd700" fill-opacity="0.8" stroke="#e1b900" stroke-width="6"/><rect x="15.5" y="100.5" width="27.333333333333332" height="27.333333333333332" fill="#ffd700" fill-opacity="0.8" stroke="#e1b900" stroke-width="6"/><rect x="43.83333333333333" y="100.5" width="27.333333333333332" height="27.333333333333332" fill="#dc143c" fill-opacity="0.8" stroke="#be001e" stroke-width="6"/><rect x="72.16666666666666" y="100.5" width="27.333333333333332" height="27.333333333333332" fill="#ffd700" fill-opacity="0.8" stroke="#e1b900" stroke-width="6"/><rect x="100.5" y="100.5" width="27.333333333333332" height="27.333333333333332" fill="#dc143c" fill-opacity="0.8" stroke="#be001e" stroke-width="6"/><rect x="128.83333333333331" y="100.5" width="27.333333333333332" height="27.333333333333332" fill="#ffd700" fill-opacity="0.8" stroke="#e1b900" stroke-width="6"/><rect x="157.16666666666666" y="100.5" width="27.333333333333332" height="27.333333333333332" fill="#dc143c" fill-opacity="0.8" stroke="#be001e" stroke-width="6"/><rect x="15.5" y="128.83333333333331" width="27.333333333333332" height="27.333333333333332" fill="#dc143c" fill-opacity="0.8" stroke="#be001e" stroke-width="6"/><rect x="43.83333333333333" y="128.83333333333331" width="27.333333333333332" height="27.333333333333332" fill="#ffd700" fill-opacity="0.8" stroke="#e1b900" stroke-width="6"/><rect x="72.16666666666666" y="128.83333333333331" width="27.333333333333332" height="27.333333333333332" fill="#dc143c" fill-opacity="0.8" stroke="#be001e" stroke-width="6"/><rect x="100.5" y="128.83333333333331" width="27.333333333333332" height="27.333333333333332" fill="#ffd700" fill-opacity="0.8" stroke="#e1b900" stroke-width="6"/><rect x="128.83333333333331" y="128.83333333333331" width="27.333333333333332" height="27.333333333333332" fill="#dc143c" fill-opacity="0.8" stroke="#be001e" stroke-width="6"/><rect x="157.16666666666666" y="128.83333333333331" width="27.333333333333332" height="27.333333333333332" fill="#ffd700" fill-opacity="0.8" stroke="#e1b900" stroke-width="6"/><rect x="15.5" y="157.16666666666666" width="27.333333333333332" height="27.333333333333332" fill="#ffd700" fill-opacity="0.8" stroke="#e1b900" stroke-width="6"/><rect x="43.83333333333333" y="157.16666666666666" width="27.333333333333332" height="27.333333333333332" fill="#dc143c" fill-opacity="0.8" stroke="#be001e" stroke-width="6"/><rect x="72.16666666666666" y="157.16666666666666" width="27.333333333333332" height="27.333333333333332" fill="#ffd700" fill-opacity="0.8" stroke="#e1b900" stroke-width="6"/><rect x="100.5" y="157.16666666666666" width="27.333333333333332" height="27.333333333333332" fill="#dc143c" fill-opacity="0.8" stroke="#be001e" stroke-width="6"/><rect x="128.83333333333331" y="157.16666666666666" width="27.333333333333332" height="27.333333333333332" fill="#ffd700" fill-opacity="0.8" stroke="#e1b900" stroke-width="6"/><rect x="157.16666666666666" y="157.16666666666666" width="27.333333333333332" height="27.333333333333332" fill="#dc143c" fill-opacity="0.8" stroke="#be001e" stroke-width="6"/></g><g transform="rotate(225, 100, 100)"><rect x="15.5" y="15.5" width="27.333333333333332" height="27.333333333333332" fill="#dc143c" fill-opacity="0.8" stroke="#be001e" stroke-width="6"/><rect x="43.83333333333333" y="15.5" width="27.333333333333332" height="27.333333333333332" fill="#ffd700" fill-opacity="0.8" stroke="#e1b900" stroke-width="6"/><rect x="72.16666666666666" y="15.5" width="27.333333333333332" height="27.333333333333332" fill="#dc143c" fill-opacity="0.8" stroke="#be001e" stroke-width="6"/><rect x="100.5" y="15.5" width="27.333333333333332" height="27.333333333333332" fill="#ffd700" fill-opacity="0.8" stroke="#e1b900" stroke-width="6"/><rect x="128.83333333333331" y="15.5" width="27.333333333333332" height="27.333333333333332" fill="#dc143c" fill-opacity="0.8" stroke="#be001e" stroke-width="6"/><rect x="157.16666666666666" y="15.5" width="27.333333333333332" height="27.333333333333332" fill="#ffd700" fill-opacity="0.8" stroke="#e1b900" stroke-width="6"/><rect x="15.5" y="43.83333333333333" width="27.333333333333332" height="27.333333333333332" fill="#ffd700" fill-opacity="0.8" stroke="#e1b900" stroke-width="6"/><rect x="43.83333333333333" y="43.83333333333333" width="27.333333333333332" height="27.333333333333332" fill="#dc143c" fill-opacity="0.8" stroke="#be001e" stroke-width="6"/><rect x="72.16666666666666" y="43.83333333333333" width="27.333333333333332" height="27.333333333333332" fill="#ffd700" fill-opacity="0.8" stroke="#e1b900" stroke-width="6"/><rect x="100.5" y="43.83333333333333" width="27.333333333333332" height="27.333333333333332" fill="#dc143c" fill-opacity="0.8" stroke="#be001e" stroke-width="6"/><rect x="128.83333333333331" y="43.83333333333333" width="27.333333333333332" height="27.333333333333332" fill="#ffd700" fill-opacity="0.8" stroke="#e1b900" stroke-width="6"/><rect x="157.16666666666666" y="43.83333333333333" width="27.333333333333332" height="27.333333333333332" fill="#dc143c" fill-opacity="0.8" stroke="#be001e" stroke-width="6"/><rect x="15.5" y="72.16666666666666" width="27.333333333333332" height="27.333333333333332" fill="#dc143c" fill-opacity="0.8" stroke="#be001e" stroke-width="6"/><rect x="43.83333333333333" y="72.16666666666666" width="27.333333333333332" height="27.333333333333332" fill="#ffd700" fill-opacity="0.8" stroke="#e1b900" stroke-width="6"/><rect x="72.16666666666666" y="72.16666666666666" width="27.333333333333332" height="27.333333333333332" fill="#dc143c" fill-opacity="0.8" stroke="#be001e" stroke-width="6"/><rect x="100.5" y="72.16666666666666" width="27.333333333333332" height="27.333333333333332" fill="#ffd700" fill-opacity="0.8" stroke="#e1b900" stroke-width="6"/><rect x="128.83333333333331" y="72.16666666666666" width="27.333333333333332" height="27.333333333333332" fill="#dc143c" fill-opacity="0.8" stroke="#be001e" stroke-width="6"/><rect x="157.16666666666666" y="72.16666666666666" width="27.333333333333332" height="27.333333333333332" fill="#ffd700" fill-opacity="0.8" stroke="#e1b900" stroke-width="6"/><rect x="15.5" y="100.5" width="27.333333333333332" height="27.333333333333332" fill="#ffd700" fill-opacity="0.8" stroke="#e1b900" stroke-width="6"/><rect x="43.83333333333333" y="100.5" width="27.333333333333332" height="27.333333333333332" fill="#dc143c" fill-opacity="0.8" stroke="#be001e" stroke-width="6"/><rect x="72.16666666666666" y="100.5" width="27.333333333333332" height="27.333333333333332" fill="#ffd700" fill-opacity="0.8" stroke="#e1b900" stroke-width="6"/><rect x="100.5" y="100.5" width="27.333333333333332" height="27.333333333333332" fill="#dc143c" fill-opacity="0.8" stroke="#be001e" stroke-width="6"/><rect x="128.83333333333331" y="100.5" width="27.333333333333332" height="27.333333333333332" fill="#ffd700" fill-opacity="0.8" stroke="#e1b900" stroke-width="6"/><rect x="157.16666666666666" y="100.5" width="27.333333333333332" height="27.333333333333332" fill="#dc143c" fill-opacity="0.8" stroke="#be001e" stroke-width="6"/><rect x="15.5" y="128.83333333333331" width="27.333333333333332" height="27.333333333333332" fill="#dc143c" fill-opacity="0.8" stroke="#be001e" stroke-width="6"/><rect x="43.83333333333333" y="128.83333333333331" width="27.333333333333332" height="27.333333333333332" fill="#ffd700" fill-opacity="0.8" stroke="#e1b900" stroke-width="6"/><rect x="72.16666666666666" y="128.83333333333331" width="27.333333333333332" height="27.333333333333332" fill="#dc143c" fill-opacity="0.8" stroke="#be001e" stroke-width="6"/><rect x="100.5" y="128.83333333333331" width="27.333333333333332" height="27.333333333333332" fill="#ffd700" fill-opacity="0.8" stroke="#e1b900" stroke-width="6"/><rect x="128.83333333333331" y="128.83333333333331" width="27.333333333333332" height="27.333333333333332" fill="#dc143c" fill-opacity="0.8" stroke="#be001e" stroke-width="6"/><rect x="157.16666666666666" y="128.83333333333331" width="27.333333333333332" height="27.333333333333332" fill="#ffd700" fill-opacity="0.8" stroke="#e1b900" stroke-width="6"/><rect x="15.5" y="157.16666666666666" width="27.333333333333332" height="27.333333333333332" fill="#ffd700" fill-opacity="0.8" stroke="#e1b900" stroke-width="6"/><rect x="43.83333333333333" y="157.16666666666666" width="27.333333333333332" height="27.333333333333332" fill="#dc143c" fill-opacity="0.8" stroke="#be001e" stroke-width="6"/><rect x="72.16666666666666" y="157.16666666666666" width="27.333333333333332" height="27.333333333333332" fill="#ffd700" fill-opacity="0.8" stroke="#e1b900" stroke-width="6"/><rect x="100.5" y="157.16666666666666" width="27.333333333333332" height="27.333333333333332" fill="#dc143c" fill-opacity="0.8" stroke="#be001e" stroke-width="6"/><rect x="128.83333333333331" y="157.16666666666666" width="27.333333333333332" height="27.333333333333332" fill="#ffd700" fill-opacity="0.8" stroke="#e1b900" stroke-width="6"/><rect x="157.16666666666666" y="157.16666666666666" width="27.333333333333332" height="27.333333333333332" fill="#dc143c" fill-opacity="0.8" stroke="#be001e" stroke-width="6"/></g><g transform="rotate(270, 100, 100)"><rect x="15.5" y="15.5" width="27.333333333333332" height="27.333333333333332" fill="#dc143c" fill-opacity="0.8" stroke="#be001e" stroke-width="6"/><rect x="43.83333333333333" y="15.5" width="27.333333333333332" height="27.333333333333332" fill="#ffd700" fill-opacity="0.8" stroke="#e1b900" stroke-width="6"/><rect x="72.16666666666666" y="15.5" width="27.333333333333332" height="27.333333333333332" fill="#dc143c" fill-opacity="0.8" stroke="#be001e" stroke-width="6"/><rect x="100.5" y="15.5" width="27.333333333333332" height="27.333333333333332" fill="#ffd700" fill-opacity="0.8" stroke="#e1b900" stroke-width="6"/><rect x="128.83333333333331" y="15.5" width="27.333333333333332" height="27.333333333333332" fill="#dc143c" fill-opacity="0.8" stroke="#be001e" stroke-width="6"/><rect x="157.16666666666666" y="15.5" width="27.333333333333332" height="27.333333333333332" fill="#ffd700" fill-opacity="0.8" stroke="#e1b900" stroke-width="6"/><rect x="15.5" y="43.83333333333333" width="27.333333333333332" height="27.333333333333332" fill="#ffd700" fill-opacity="0.8" stroke="#e1b900" stroke-width="6"/><rect x="43.83333333333333" y="43.83333333333333" width="27.333333333333332" height="27.333333333333332" fill="#dc143c" fill-opacity="0.8" stroke="#be001e" stroke-width="6"/><rect x="72.16666666666666" y="43.83333333333333" width="27.333333333333332" height="27.333333333333332" fill="#ffd700" fill-opacity="0.8" stroke="#e1b900" stroke-width="6"/><rect x="100.5" y="43.83333333333333" width="27.333333333333332" height="27.333333333333332" fill="#dc143c" fill-opacity="0.8" stroke="#be001e" stroke-width="6"/><rect x="128.83333333333331" y="43.83333333333333" width="27.333333333333332" height="27.333333333333332" fill="#ffd700" fill-opacity="0.8" stroke="#e1b900" stroke-width="6"/><rect x="157.16666666666666" y="43.83333333333333" width="27.333333333333332" height="27.333333333333332" fill="#dc143c" fill-opacity="0.8" stroke="#be001e" stroke-width="6"/><rect x="15.5" y="72.16666666666666" width="27.333333333333332" height="27.333333333333332" fill="#dc143c" fill-opacity="0.8" stroke="#be001e" stroke-width="6"/><rect x="43.83333333333333" y="72.16666666666666" width="27.333333333333332" height="27.333333333333332" fill="#ffd700" fill-opacity="0.8" stroke="#e1b900" stroke-width="6"/><rect x="72.16666666666666" y="72.16666666666666" width="27.333333333333332" height="27.333333333333332" fill="#dc143c" fill-opacity="0.8" stroke="#be001e" stroke-width="6"/><rect x="100.5" y="72.16666666666666" width="27.333333333333332" height="27.333333333333332" fill="#ffd700" fill-opacity="0.8" stroke="#e1b900" stroke-width="6"/><rect x="128.83333333333331" y="72.16666666666666" width="27.333333333333332" height="27.333333333333332" fill="#dc143c" fill-opacity="0.8" stroke="#be001e" stroke-width="6"/><rect x="157.16666666666666" y="72.16666666666666" width="27.333333333333332" height="27.333333333333332" fill="#ffd700" fill-opacity="0.8" stroke="#e1b900" stroke-width="6"/><rect x="15.5" y="100.5" width="27.333333333333332" height="27.333333333333332" fill="#ffd700" fill-opacity="0.8" stroke="#e1b900" stroke-width="6"/><rect x="43.83333333333333" y="100.5" width="27.333333333333332" height="27.333333333333332" fill="#dc143c" fill-opacity="0.8" stroke="#be001e" stroke-width="6"/><rect x="72.16666666666666" y="100.5" width="27.333333333333332" height="27.333333333333332" fill="#ffd700" fill-opacity="0.8" stroke="#e1b900" stroke-width="6"/><rect x="100.5" y="100.5" width="27.333333333333332" height="27.333333333333332" fill="#dc143c" fill-opacity="0.8" stroke="#be001e" stroke-width="6"/><rect x="128.83333333333331" y="100.5" width="27.333333333333332" height="27.333333333333332" fill="#ffd700" fill-opacity="0.8" stroke="#e1b900" stroke-width="6"/><rect x="157.16666666666666" y="100.5" width="27.333333333333332" height="27.333333333333332" fill="#dc143c" fill-opacity="0.8" stroke="#be001e" stroke-width="6"/><rect x="15.5" y="128.83333333333331" width="27.333333333333332" height="27.333333333333332" fill="#dc143c" fill-opacity="0.8" stroke="#be001e" stroke-width="6"/><rect x="43.83333333333333" y="128.83333333333331" width="27.333333333333332" height="27.333333333333332" fill="#ffd700" fill-opacity="0.8" stroke="#e1b900" stroke-width="6"/><rect x="72.16666666666666" y="128.83333333333331" width="27.333333333333332" height="27.333333333333332" fill="#dc143c" fill-opacity="0.8" stroke="#be001e" stroke-width="6"/><rect x="100.5" y="128.83333333333331" width="27.333333333333332" height="27.333333333333332" fill="#ffd700" fill-opacity="0.8" stroke="#e1b900" stroke-width="6"/><rect x="128.83333333333331" y="128.83333333333331" width="27.333333333333332" height="27.333333333333332" fill="#dc143c" fill-opacity="0.8" stroke="#be001e" stroke-width="6"/><rect x="157.16666666666666" y="128.83333333333331" width="27.333333333333332" height="27.333333333333332" fill="#ffd700" fill-opacity="0.8" stroke="#e1b900" stroke-width="6"/><rect x="15.5" y="157.16666666666666" width="27.333333333333332" height="27.333333333333332" fill="#ffd700" fill-opacity="0.8" stroke="#e1b900" stroke-width="6"/><rect x="43.83333333333333" y="157.16666666666666" width="27.333333333333332" height="27.333333333333332" fill="#dc143c" fill-opacity="0.8" stroke="#be001e" stroke-width="6"/><rect x="72.16666666666666" y="157.16666666666666" width="27.333333333333332" height="27.333333333333332" fill="#ffd700" fill-opacity="0.8" stroke="#e1b900" stroke-width="6"/><rect x="100.5" y="157.16666666666666" width="27.333333333333332" height="27.333333333333332" fill="#dc143c" fill-opacity="0.8" stroke="#be001e" stroke-width="6"/><rect x="128.83333333333331" y="157.16666666666666" width="27.333333333333332" height="27.333333333333332" fill="#ffd700" fill-opacity="0.8" stroke="#e1b900" stroke-width="6"/><rect x="157.16666666666666" y="157.16666666666666" width="27.333333333333332" height="27.333333333333332" fill="#dc143c" fill-opacity="0.8" stroke="#be001e" stroke-width="6"/></g><g transform="rotate(315, 100, 100)"><rect x="15.5" y="15.5" width="27.333333333333332" height="27.333333333333332" fill="#dc143c" fill-opacity="0.8" stroke="#be001e" stroke-width="6"/><rect x="43.83333333333333" y="15.5" width="27.333333333333332" height="27.333333333333332" fill="#ffd700" fill-opacity="0.8" stroke="#e1b900" stroke-width="6"/><rect x="72.16666666666666" y="15.5" width="27.333333333333332" height="27.333333333333332" fill="#dc143c" fill-opacity="0.8" stroke="#be001e" stroke-width="6"/><rect x="100.5" y="15.5" width="27.333333333333332" height="27.333333333333332" fill="#ffd700" fill-opacity="0.8" stroke="#e1b900" stroke-width="6"/><rect x="128.83333333333331" y="15.5" width="27.333333333333332" height="27.333333333333332" fill="#dc143c" fill-opacity="0.8" stroke="#be001e" stroke-width="6"/><rect x="157.16666666666666" y="15.5" width="27.333333333333332" height="27.333333333333332" fill="#ffd700" fill-opacity="0.8" stroke="#e1b900" stroke-width="6"/><rect x="15.5" y="43.83333333333333" width="27.333333333333332" height="27.333333333333332" fill="#ffd700" fill-opacity="0.8" stroke="#e1b900" stroke-width="6"/><rect x="43.83333333333333" y="43.83333333333333" width="27.333333333333332" height="27.333333333333332" fill="#dc143c" fill-opacity="0.8" stroke="#be001e" stroke-width="6"/><rect x="72.16666666666666" y="43.83333333333333" width="27.333333333333332" height="27.333333333333332" fill="#ffd700" fill-opacity="0.8" stroke="#e1b900" stroke-width="6"/><rect x="100.5" y="43.83333333333333" width="27.333333333333332" height="27.333333333333332" fill="#dc143c" fill-opacity="0.8" stroke="#be001e" stroke-width="6"/><rect x="128.83333333333331" y="43.83333333333333" width="27.333333333333332" height="27.333333333333332" fill="#ffd700" fill-opacity="0.8" stroke="#e1b900" stroke-width="6"/><rect x="157.16666666666666" y="43.83333333333333" width="27.333333333333332" height="27.333333333333332" fill="#dc143c" fill-opacity="0.8" stroke="#be001e" stroke-width="6"/><rect x="15.5" y="72.16666666666666" width="27.333333333333332" height="27.333333333333332" fill="#dc143c" fill-opacity="0.8" stroke="#be001e" stroke-width="6"/><rect x="43.83333333333333" y="72.16666666666666" width="27.333333333333332" height="27.333333333333332" fill="#ffd700" fill-opacity="0.8" stroke="#e1b900" stroke-width="6"/><rect x="72.16666666666666" y="72.16666666666666" width="27.333333333333332" height="27.333333333333332" fill="#dc143c" fill-opacity="0.8" stroke="#be001e" stroke-width="6"/><rect x="100.5" y="72.16666666666666" width="27.333333333333332" height="27.333333333333332" fill="#ffd700" fill-opacity="0.8" stroke="#e1b900" stroke-width="6"/><rect x="128.83333333333331" y="72.16666666666666" width="27.333333333333332" height="27.333333333333332" fill="#dc143c" fill-opacity="0.8" stroke="#be001e" stroke-width="6"/><rect x="157.16666666666666" y="72.16666666666666" width="27.333333333333332" height="27.333333333333332" fill="#ffd700" fill-opacity="0.8" stroke="#e1b900" stroke-width="6"/><rect x="15.5" y="100.5" width="27.333333333333332" height="27.333333333333332" fill="#ffd700" fill-opacity="0.8" stroke="#e1b900" stroke-width="6"/><rect x="43.83333333333333" y="100.5" width="27.333333333333332" height="27.333333333333332" fill="#dc143c" fill-opacity="0.8" stroke="#be001e" stroke-width="6"/><rect x="72.16666666666666" y="100.5" width="27.333333333333332" height="27.333333333333332" fill="#ffd700" fill-opacity="0.8" stroke="#e1b900" stroke-width="6"/><rect x="100.5" y="100.5" width="27.333333333333332" height="27.333333333333332" fill="#dc143c" fill-opacity="0.8" stroke="#be001e" stroke-width="6"/><rect x="128.83333333333331" y="100.5" width="27.333333333333332" height="27.333333333333332" fill="#ffd700" fill-opacity="0.8" stroke="#e1b900" stroke-width="6"/><rect x="157.16666666666666" y="100.5" width="27.333333333333332" height="27.333333333333332" fill="#dc143c" fill-opacity="0.8" stroke="#be001e" stroke-width="6"/><rect x="15.5" y="128.83333333333331" width="27.333333333333332" height="27.333333333333332" fill="#dc143c" fill-opacity="0.8" stroke="#be001e" stroke-width="6"/><rect x="43.83333333333333" y="128.83333333333331" width="27.333333333333332" height="27.333333333333332" fill="#ffd700" fill-opacity="0.8" stroke="#e1b900" stroke-width="6"/><rect x="72.16666666666666" y="128.83333333333331" width="27.333333333333332" height="27.333333333333332" fill="#dc143c" fill-opacity="0.8" stroke="#be001e" stroke-width="6"/><rect x="100.5" y="128.83333333333331" width="27.333333333333332" height="27.333333333333332" fill="#ffd700" fill-opacity="0.8" stroke="#e1b900" stroke-width="6"/><rect x="128.83333333333331" y="128.83333333333331" width="27.333333333333332" height="27.333333333333332" fill="#dc143c" fill-opacity="0.8" stroke="#be001e" stroke-width="6"/><rect x="157.16666666666666" y="128.83333333333331" width="27.333333333333332" height="27.333333333333332" fill="#ffd700" fill-opacity="0.8" stroke="#e1b900" stroke-width="6"/><rect x="15.5" y="157.16666666666666" width="27.333333333333332" height="27.333333333333332" fill="#ffd700" fill-opacity="0.8" stroke="#e1b900" stroke-width="6"/><rect x="43.83333333333333" y="157.16666666666666" width="27.333333333333332" height="27.333333333333332" fill="#dc143c" fill-opacity="0.8" stroke="#be001e" stroke-width="6"/><rect x="72.16666666666666" y="157.16666666666666" width="27.333333333333332" height="27.333333333333332" fill="#ffd700" fill-opacity="0.8" stroke="#e1b900" stroke-width="6"/><rect x="100.5" y="157.16666666666666" width="27.333333333333332" height="27.333333333333332" fill="#dc143c" fill-opacity="0.8" stroke="#be001e" stroke-width="6"/><rect x="128.83333333333331" y="157.16666666666666" width="27.333333333333332" height="27.333333333333332" fill="#ffd700" fill-opacity="0.8" stroke="#e1b900" stroke-width="6"/><rect x="157.16666666666666" y="157.16666666666666" width="27.333333333333332" height="27.333333333333332" fill="#dc143c" fill-opacity="0.8" stroke="#be001e" stroke-width="6"/></g></g></g><path d="M100,100 L103,100 L104.746101174093,100.71730303587327 L106.305220828229,101.95043336396483 L107.56375565976249,103.65371048653434 L108.41842327207871,105.75935322862937 L108.78026642648585,108.17966512028 L108.57821756213517,110.80991135285927 L107.76210834711094,113.53180231926666 L106.30502492789412,116.21748009582973 L104.2049283921864,118.73388847027185 L101.48548123502177,120.94739471868515 L98.19604373520647,122.72852264874935 L94.41082847055006,123.9566517196036 L90.22722605232603,124.52453647610216 L85.76333985028401,124.34250413949823 L81.15479131831782,123.34219590663764 L76.55087984578839,121.4797291415266 L72.11020121609654,118.73817290435161 L67.99584617259603,115.1292477602776 L64.37031476302504,110.69418205914265 L61.39029263258263,105.50368031433482 L59.20144193436924,99.65698430742033 L57.933361801882356,93.28003342949762 L57.69487127201287,86.52275683574575 L58.569761165362394,79.55555551977784 L60.613150847701085,72.5650567003675 L63.84857125083301,65.7492452726381 L68.26587737128035,59.31209687160833 L73.82007214040665,53.45785375311439 L80.43109960934311,48.38509771877361 L87.98463943244556,44.28078329308947 L96.33390734110884,41.31439900097789 L105.30243839643045,39.63242470454805 L114.68780204035775,39.35324846932638 L124.26617108217333,40.56269739455957 L133.79764149796148,43.31032343384493 L143.03217698891058,47.60656774370403 L151.71603229126214,53.42090593357216 L159.598492837516,60.68105225852867 L166.43875603000384,69.27327389412227 L172.01277149877745,79.04383763508056 " fill="none" stroke="#dc143c" stroke-width="6" stroke-linecap="round" stroke-opacity="1"/><path d="M100,100 L98.5,102.59807621135332 L97.00574676167554,103.75159266775906 L95.15826474430321,104.48526473173466 L93.05391607070642,104.72354930610548 L90.8030421585997,104.4108917991156 L88.52606899814509,103.51410121719236 L86.34923337469849,102.02399865156924 L84.40006125897041,99.95628185589199 L82.80273778769589,97.35157171113559 L81.67351247698699,94.27463057359195 L81.1162834130078,90.81276712703136 L81.21850012808984,87.07346672299803 L82.04751678593209,83.18130960958584 L83.64751536949441,79.27426125782054 L86.03710309832465,75.49943857555127 L89.20766970557973,72.00847258872537 L93.12256897413485,68.95260167929578 L97.71716563627801,66.47763929452745 L102.89976401315276,64.71896587870441 L108.55340928257417,63.79669642636498 L114.53852671718639,63.811172429965936 L120.69633933648606,64.83892012367909 L126.85298086169608,66.92920595387247 L132.8241993172179,70.10130539331941 L138.42052770345174,74.3425829244583 L143.45278242501686,79.60745970889978 L147.73773806726885,85.81732168379924 L151.10381905026733,92.86139520091402 L153.3966449262502,100.598590527791 L154.48426678472188,108.86028627817707 L154.26193743093205,117.45400086632327 L152.65626763095617,126.16787112428368 L149.62863457251603,134.77583400103677 L145.17772646238726,143.04338545804353 L139.34112844764778,150.7337719124616 L132.19587928963298,157.6144544083113 L123.85795483095605,163.4636745806927 L114.48066260116045,168.0769447803833 L104.25196117542893,171.27328269528945 L93.39074736781474,172.90101357075875 L82.14218322446294,172.84297069732497 " fill="none" stroke="#ffd700" stroke-width="6" stroke-linecap="round" stroke-opacity="1"/><path d="M100,100 L98.5,97.40192378864668 L98.24815206423146,95.53110429636767 L98.5365144274678,93.5643019043005 L99.38232826953109,91.6227402073602 L100.77853456932158,89.82975497225503 L102.69366457536906,88.30623366252763 L105.07254906316633,87.16608999557148 L107.83783039391864,86.51191582484135 L110.89223728440999,86.43094819303467 L114.12155913082661,86.99148095613619 L117.39823535197043,88.23983815428349 L120.58545613670367,90.19801062825259 L123.54165474351784,92.86203867081056 L126.12525857817954,96.20120226607732 L128.1995570513913,100.15805728495049 L129.6375389761024,104.64933150463698 L130.32655118007676,109.5676691791776 L130.17263314762548,114.78418780112092 L129.1043898142512,120.15178636101801 L127.0762759544008,125.50912151449236 L124.07118065023099,130.68514725569923 L120.10221872914471,135.50409556890057 L115.21365733642159,139.7907606166299 L109.48092941076922,143.37593777093483 L103.00971113118588,146.10186155576383 L95.93406672728206,147.8274835907327 L88.41369068189817,148.43343304356267 L80.63030357845233,147.82650792747768 L72.7832829333432,145.9435557190946 L65.084633605935,142.75461600304928 L57.75342313662244,138.26521584058727 L51.009825027935015,132.51772987473845 L45.06892703105351,125.59174129441521 L40.13447149725499,117.60336607263011 L36.392700470178916,108.70353069297876 L34.00647921240558,99.07522215784383 L33.10986818013336,88.9297576756033 L33.8033051075774,78.5021492860446 L36.149545987055035,68.04566504618191 L40.17049660218149,57.82571253511895 L45.845045276759585,48.113191667594535 " fill="none" stroke="#228b22" stroke-width="6" stroke-linecap="round" stroke-opacity="1"/><circle cx="100" cy="100" r="6" fill="#dc143c" fill-opacity="1" stroke="#b40014" stroke-width="4"/><polygon points="15,3 27,15 15,27 3,15" fill="#dc143c" fill-opacity="0.4" stroke="#dc143c" stroke-width="6.5"/><polygon points="185,173 197,185 185,197 173,185" fill="#dc143c" fill-opacity="0.4" stroke="#dc143c" stroke-width="6.5"/><polygon points="185,5 195,15 185,25 175,15" fill="#ffd700" fill-opacity="0.3" stroke="#ffd700" stroke-width="5.2"/><polygon points="15,175 25,185 15,195 5,185" fill="#ffd700" fill-opacity="0.3" stroke="#ffd700" stroke-width="5.2"/><rect x="5" y="5" width="190" height="190" fill="none" stroke="#6d4918" stroke-width="5" stroke-opacity="0.53"/><circle cx="5" cy="5" r="4" fill="none" stroke="#6d4918" stroke-width="2.5" stroke-opacity="0.53"/><circle cx="195" cy="5" r="4" fill="none" stroke="#6d4918" stroke-width="2.5" stroke-opacity="0.53"/><circle cx="195" cy="195" r="4" fill="none" stroke="#6d4918" stroke-width="2.5" stroke-opacity="0.53"/><circle cx="5" cy="195" r="4" fill="none" stroke="#6d4918" stroke-width="2.5" stroke-opacity="0.53"/></svg>