<svg xmlns="http://www.w3.org/2000/svg" width="200" height="200" viewBox="0 0 200 200"><defs></defs><rect width="200" height="200" fill="#ffffff"/><g class="pattern"><g class="symmetry-radial"><path d="M150,100 L133.3179258465337,124.20689007243575 L119.85923911094092,161.1204532725698 L88.95753967344618,133.98519835694557 L52.41622640903898,134.57163515681157 L50.000000000000014,100 L66.68207415346626,75.79310992756423 L80.14076088905907,38.87954672743022 L111.04246032655381,66.01480164305443 L147.58377359096102,65.42836484318843 L149.99999999999997,99.99999999999999 L133.31792584653365,124.20689007243574 L119.85923911094093,161.12045327256976 L88.95753967344619,133.98519835694557 L52.41622640903896,134.57163515681157 L50.000000000000036,100.00000000000001 L66.68207415346625,75.79310992756423 L80.14076088905907,38.87954672743027 L111.04246032655381,66.01480164305443 L147.58377359096096,65.42836484318846 L149.99999999999994,99.99999999999997 " fill="none" stroke="#1e3c72" stroke-width="12" stroke-linecap="round"/><path d="M125,143.30127018922192 L95.69518117392016,140.95761522072223 L56.997754330605325,147.75883220618923 L65.04672470695506,107.42954801539538 L46.26819890835345,76.07706084070647 L74.99999999999999,56.69872981077809 L104.30481882607982,59.042384779277754 L143.00224566939468,52.24116779381076 L134.95327529304492,92.57045198460462 L153.73180109164656,123.92293915929353 L125.00000000000001,143.3012701892219 L95.69518117392015,140.95761522072223 L56.99775433060526,147.75883220618923 L65.04672470695506,107.42954801539535 L46.26819890835353,76.07706084070647 L75.00000000000003,56.6987298107781 L104.30481882607984,59.042384779277825 L143.0022456693947,52.241167793810796 L134.95327529304495,92.57045198460463 L153.73180109164656,123.92293915929358 L125.00000000000003,143.30127018922198 " fill="none" stroke="#d4af37" stroke-width="12" stroke-linecap="round"/><path d="M75.00000000000001,143.30127018922192 L62.377255327386436,116.75072514828648 L37.13851521966438,86.63837893361945 L76.08918503350887,73.4443496584498 L93.85197249931444,41.50542568389484 L124.99999999999993,56.69872981077811 L137.62274467261355,83.2492748517135 L162.8614847803356,113.36162106638051 L123.91081496649113,126.55565034155018 L106.14802750068557,158.4945743161052 L75.00000000000006,143.30127018922192 L62.37725532738648,116.75072514828642 L37.13851521966438,86.63837893361949 L76.08918503350888,73.44434965844985 L93.85197249931443,41.50542568389488 L124.99999999999989,56.69872981077817 L137.62274467261358,83.24927485171348 L162.86148478033562,113.3616210663805 L123.91081496649113,126.55565034155016 L106.14802750068559,158.49457431610523 L75.00000000000007,143.30127018922192 " fill="none" stroke="#ffd700" stroke-width="12" stroke-linecap="round"/><path d="M50.000000000000014,100 L66.68207415346626,75.79310992756423 L80.14076088905907,38.87954672743022 L111.04246032655381,66.01480164305443 L147.58377359096102,65.42836484318843 L149.99999999999997,99.99999999999999 L133.31792584653374,124.20689007243577 L119.85923911094093,161.12045327256976 L88.95753967344619,133.98519835694557 L52.41622640903896,134.57163515681157 L50.000000000000036,100.00000000000001 L66.68207415346625,75.79310992756423 L80.14076088905907,38.87954672743027 L111.04246032655381,66.01480164305443 L147.58377359096096,65.42836484318846 L149.99999999999994,99.99999999999997 L133.31792584653383,124.20689007243581 L119.85923911094095,161.12045327256976 L88.95753967344619,133.9851983569456 L52.41622640903896,134.5716351568116 L50.00000000000016,100.00000000000003 " fill="none" stroke="#b8860b" stroke-width="12" stroke-linecap="round"/><path d="M74.99999999999999,56.69872981077809 L104.30481882607982,59.042384779277754 L143.00224566939468,52.24116779381076 L134.95327529304492,92.57045198460462 L153.73180109164656,123.92293915929353 L125.00000000000001,143.3012701892219 L95.69518117392018,140.95761522072226 L56.997754330605396,147.75883220618925 L65.0467247069551,107.42954801539541 L46.26819890835333,76.07706084070648 L75,56.69872981077823 L104.30481882607984,59.042384779277825 L143.00224566939463,52.24116779381072 L134.9532752930449,92.57045198460459 L153.73180109164676,123.92293915929355 L125,143.30127018922175 L95.69518117392023,140.9576152207223 L56.99775433060542,147.75883220618925 L65.04672470695516,107.42954801539541 L46.26819890835331,76.0770608407065 L74.99999999999994,56.69872981077816 " fill="none" stroke="#fff8dc" stroke-width="12" stroke-linecap="round"/><path d="M125,56.69872981077809 L137.62274467261358,83.24927485171352 L162.86148478033562,113.36162106638056 L123.91081496649112,126.5556503415502 L106.14802750068552,158.49457431610512 L74.99999999999991,143.30127018922198 L62.37725532738648,116.75072514828642 L37.13851521966436,86.63837893361938 L76.08918503350888,73.44434965844977 L93.85197249931454,41.50542568389486 L125.00000000000006,56.69872981077803 L137.62274467261344,83.24927485171362 L162.86148478033562,113.36162106638061 L123.91081496649109,126.5556503415502 L106.14802750068546,158.49457431610506 L74.99999999999989,143.30127018922207 L62.37725532738647,116.75072514828642 L37.1385152196644,86.6383789336194 L76.08918503350888,73.44434965844977 L93.85197249931454,41.50542568389501 L125.00000000000004,56.69872981077805 " fill="none" stroke="#1e3c72" stroke-width="12" stroke-linecap="round"/><g transform="rotate(45, 100, 100)"><path d="M150,100 L133.3179258465337,124.20689007243575 L119.85923911094092,161.1204532725698 L88.95753967344618,133.98519835694557 L52.41622640903898,134.57163515681157 L50.000000000000014,100 L66.68207415346626,75.79310992756423 L80.14076088905907,38.87954672743022 L111.04246032655381,66.01480164305443 L147.58377359096102,65.42836484318843 L149.99999999999997,99.99999999999999 L133.31792584653365,124.20689007243574 L119.85923911094093,161.12045327256976 L88.95753967344619,133.98519835694557 L52.41622640903896,134.57163515681157 L50.000000000000036,100.00000000000001 L66.68207415346625,75.79310992756423 L80.14076088905907,38.87954672743027 L111.04246032655381,66.01480164305443 L147.58377359096096,65.42836484318846 L149.99999999999994,99.99999999999997 " fill="none" stroke="#1e3c72" stroke-width="12" stroke-linecap="round"/><path d="M125,143.30127018922192 L95.69518117392016,140.95761522072223 L56.997754330605325,147.75883220618923 L65.04672470695506,107.42954801539538 L46.26819890835345,76.07706084070647 L74.99999999999999,56.69872981077809 L104.30481882607982,59.042384779277754 L143.00224566939468,52.24116779381076 L134.95327529304492,92.57045198460462 L153.73180109164656,123.92293915929353 L125.00000000000001,143.3012701892219 L95.69518117392015,140.95761522072223 L56.99775433060526,147.75883220618923 L65.04672470695506,107.42954801539535 L46.26819890835353,76.07706084070647 L75.00000000000003,56.6987298107781 L104.30481882607984,59.042384779277825 L143.0022456693947,52.241167793810796 L134.95327529304495,92.57045198460463 L153.73180109164656,123.92293915929358 L125.00000000000003,143.30127018922198 " fill="none" stroke="#d4af37" stroke-width="12" stroke-linecap="round"/><path d="M75.00000000000001,143.30127018922192 L62.377255327386436,116.75072514828648 L37.13851521966438,86.63837893361945 L76.08918503350887,73.4443496584498 L93.85197249931444,41.50542568389484 L124.99999999999993,56.69872981077811 L137.62274467261355,83.2492748517135 L162.8614847803356,113.36162106638051 L123.91081496649113,126.55565034155018 L106.14802750068557,158.4945743161052 L75.00000000000006,143.30127018922192 L62.37725532738648,116.75072514828642 L37.13851521966438,86.63837893361949 L76.08918503350888,73.44434965844985 L93.85197249931443,41.50542568389488 L124.99999999999989,56.69872981077817 L137.62274467261358,83.24927485171348 L162.86148478033562,113.3616210663805 L123.91081496649113,126.55565034155016 L106.14802750068559,158.49457431610523 L75.00000000000007,143.30127018922192 " fill="none" stroke="#ffd700" stroke-width="12" stroke-linecap="round"/><path d="M50.000000000000014,100 L66.68207415346626,75.79310992756423 L80.14076088905907,38.87954672743022 L111.04246032655381,66.01480164305443 L147.58377359096102,65.42836484318843 L149.99999999999997,99.99999999999999 L133.31792584653374,124.20689007243577 L119.85923911094093,161.12045327256976 L88.95753967344619,133.98519835694557 L52.41622640903896,134.57163515681157 L50.000000000000036,100.00000000000001 L66.68207415346625,75.79310992756423 L80.14076088905907,38.87954672743027 L111.04246032655381,66.01480164305443 L147.58377359096096,65.42836484318846 L149.99999999999994,99.99999999999997 L133.31792584653383,124.20689007243581 L119.85923911094095,161.12045327256976 L88.95753967344619,133.9851983569456 L52.41622640903896,134.5716351568116 L50.00000000000016,100.00000000000003 " fill="none" stroke="#b8860b" stroke-width="12" stroke-linecap="round"/><path d="M74.99999999999999,56.69872981077809 L104.30481882607982,59.042384779277754 L143.00224566939468,52.24116779381076 L134.95327529304492,92.57045198460462 L153.73180109164656,123.92293915929353 L125.00000000000001,143.3012701892219 L95.69518117392018,140.95761522072226 L56.997754330605396,147.75883220618925 L65.0467247069551,107.42954801539541 L46.26819890835333,76.07706084070648 L75,56.69872981077823 L104.30481882607984,59.042384779277825 L143.00224566939463,52.24116779381072 L134.9532752930449,92.57045198460459 L153.73180109164676,123.92293915929355 L125,143.30127018922175 L95.69518117392023,140.9576152207223 L56.99775433060542,147.75883220618925 L65.04672470695516,107.42954801539541 L46.26819890835331,76.0770608407065 L74.99999999999994,56.69872981077816 " fill="none" stroke="#fff8dc" stroke-width="12" stroke-linecap="round"/><path d="M125,56.69872981077809 L137.62274467261358,83.24927485171352 L162.86148478033562,113.36162106638056 L123.91081496649112,126.5556503415502 L106.14802750068552,158.49457431610512 L74.99999999999991,143.30127018922198 L62.37725532738648,116.75072514828642 L37.13851521966436,86.63837893361938 L76.08918503350888,73.44434965844977 L93.85197249931454,41.50542568389486 L125.00000000000006,56.69872981077803 L137.62274467261344,83.24927485171362 L162.86148478033562,113.36162106638061 L123.91081496649109,126.5556503415502 L106.14802750068546,158.49457431610506 L74.99999999999989,143.30127018922207 L62.37725532738647,116.75072514828642 L37.1385152196644,86.6383789336194 L76.08918503350888,73.44434965844977 L93.85197249931454,41.50542568389501 L125.00000000000004,56.69872981077805 " fill="none" stroke="#1e3c72" stroke-width="12" stroke-linecap="round"/></g><g transform="rotate(90, 100, 100)"><path d="M150,100 L133.3179258465337,124.20689007243575 L119.85923911094092,161.1204532725698 L88.95753967344618,133.98519835694557 L52.41622640903898,134.57163515681157 L50.000000000000014,100 L66.68207415346626,75.79310992756423 L80.14076088905907,38.87954672743022 L111.04246032655381,66.01480164305443 L147.58377359096102,65.42836484318843 L149.99999999999997,99.99999999999999 L133.31792584653365,124.20689007243574 L119.85923911094093,161.12045327256976 L88.95753967344619,133.98519835694557 L52.41622640903896,134.57163515681157 L50.000000000000036,100.00000000000001 L66.68207415346625,75.79310992756423 L80.14076088905907,38.87954672743027 L111.04246032655381,66.01480164305443 L147.58377359096096,65.42836484318846 L149.99999999999994,99.99999999999997 " fill="none" stroke="#1e3c72" stroke-width="12" stroke-linecap="round"/><path d="M125,143.30127018922192 L95.69518117392016,140.95761522072223 L56.997754330605325,147.75883220618923 L65.04672470695506,107.42954801539538 L46.26819890835345,76.07706084070647 L74.99999999999999,56.69872981077809 L104.30481882607982,59.042384779277754 L143.00224566939468,52.24116779381076 L134.95327529304492,92.57045198460462 L153.73180109164656,123.92293915929353 L125.00000000000001,143.3012701892219 L95.69518117392015,140.95761522072223 L56.99775433060526,147.75883220618923 L65.04672470695506,107.42954801539535 L46.26819890835353,76.07706084070647 L75.00000000000003,56.6987298107781 L104.30481882607984,59.042384779277825 L143.0022456693947,52.241167793810796 L134.95327529304495,92.57045198460463 L153.73180109164656,123.92293915929358 L125.00000000000003,143.30127018922198 " fill="none" stroke="#d4af37" stroke-width="12" stroke-linecap="round"/><path d="M75.00000000000001,143.30127018922192 L62.377255327386436,116.75072514828648 L37.13851521966438,86.63837893361945 L76.08918503350887,73.4443496584498 L93.85197249931444,41.50542568389484 L124.99999999999993,56.69872981077811 L137.62274467261355,83.2492748517135 L162.8614847803356,113.36162106638051 L123.91081496649113,126.55565034155018 L106.14802750068557,158.4945743161052 L75.00000000000006,143.30127018922192 L62.37725532738648,116.75072514828642 L37.13851521966438,86.63837893361949 L76.08918503350888,73.44434965844985 L93.85197249931443,41.50542568389488 L124.99999999999989,56.69872981077817 L137.62274467261358,83.24927485171348 L162.86148478033562,113.3616210663805 L123.91081496649113,126.55565034155016 L106.14802750068559,158.49457431610523 L75.00000000000007,143.30127018922192 " fill="none" stroke="#ffd700" stroke-width="12" stroke-linecap="round"/><path d="M50.000000000000014,100 L66.68207415346626,75.79310992756423 L80.14076088905907,38.87954672743022 L111.04246032655381,66.01480164305443 L147.58377359096102,65.42836484318843 L149.99999999999997,99.99999999999999 L133.31792584653374,124.20689007243577 L119.85923911094093,161.12045327256976 L88.95753967344619,133.98519835694557 L52.41622640903896,134.57163515681157 L50.000000000000036,100.00000000000001 L66.68207415346625,75.79310992756423 L80.14076088905907,38.87954672743027 L111.04246032655381,66.01480164305443 L147.58377359096096,65.42836484318846 L149.99999999999994,99.99999999999997 L133.31792584653383,124.20689007243581 L119.85923911094095,161.12045327256976 L88.95753967344619,133.9851983569456 L52.41622640903896,134.5716351568116 L50.00000000000016,100.00000000000003 " fill="none" stroke="#b8860b" stroke-width="12" stroke-linecap="round"/><path d="M74.99999999999999,56.69872981077809 L104.30481882607982,59.042384779277754 L143.00224566939468,52.24116779381076 L134.95327529304492,92.57045198460462 L153.73180109164656,123.92293915929353 L125.00000000000001,143.3012701892219 L95.69518117392018,140.95761522072226 L56.997754330605396,147.75883220618925 L65.0467247069551,107.42954801539541 L46.26819890835333,76.07706084070648 L75,56.69872981077823 L104.30481882607984,59.042384779277825 L143.00224566939463,52.24116779381072 L134.9532752930449,92.57045198460459 L153.73180109164676,123.92293915929355 L125,143.30127018922175 L95.69518117392023,140.9576152207223 L56.99775433060542,147.75883220618925 L65.04672470695516,107.42954801539541 L46.26819890835331,76.0770608407065 L74.99999999999994,56.69872981077816 " fill="none" stroke="#fff8dc" stroke-width="12" stroke-linecap="round"/><path d="M125,56.69872981077809 L137.62274467261358,83.24927485171352 L162.86148478033562,113.36162106638056 L123.91081496649112,126.5556503415502 L106.14802750068552,158.49457431610512 L74.99999999999991,143.30127018922198 L62.37725532738648,116.75072514828642 L37.13851521966436,86.63837893361938 L76.08918503350888,73.44434965844977 L93.85197249931454,41.50542568389486 L125.00000000000006,56.69872981077803 L137.62274467261344,83.24927485171362 L162.86148478033562,113.36162106638061 L123.91081496649109,126.5556503415502 L106.14802750068546,158.49457431610506 L74.99999999999989,143.30127018922207 L62.37725532738647,116.75072514828642 L37.1385152196644,86.6383789336194 L76.08918503350888,73.44434965844977 L93.85197249931454,41.50542568389501 L125.00000000000004,56.69872981077805 " fill="none" stroke="#1e3c72" stroke-width="12" stroke-linecap="round"/></g><g transform="rotate(135, 100, 100)"><path d="M150,100 L133.3179258465337,124.20689007243575 L119.85923911094092,161.1204532725698 L88.95753967344618,133.98519835694557 L52.41622640903898,134.57163515681157 L50.000000000000014,100 L66.68207415346626,75.79310992756423 L80.14076088905907,38.87954672743022 L111.04246032655381,66.01480164305443 L147.58377359096102,65.42836484318843 L149.99999999999997,99.99999999999999 L133.31792584653365,124.20689007243574 L119.85923911094093,161.12045327256976 L88.95753967344619,133.98519835694557 L52.41622640903896,134.57163515681157 L50.000000000000036,100.00000000000001 L66.68207415346625,75.79310992756423 L80.14076088905907,38.87954672743027 L111.04246032655381,66.01480164305443 L147.58377359096096,65.42836484318846 L149.99999999999994,99.99999999999997 " fill="none" stroke="#1e3c72" stroke-width="12" stroke-linecap="round"/><path d="M125,143.30127018922192 L95.69518117392016,140.95761522072223 L56.997754330605325,147.75883220618923 L65.04672470695506,107.42954801539538 L46.26819890835345,76.07706084070647 L74.99999999999999,56.69872981077809 L104.30481882607982,59.042384779277754 L143.00224566939468,52.24116779381076 L134.95327529304492,92.57045198460462 L153.73180109164656,123.92293915929353 L125.00000000000001,143.3012701892219 L95.69518117392015,140.95761522072223 L56.99775433060526,147.75883220618923 L65.04672470695506,107.42954801539535 L46.26819890835353,76.07706084070647 L75.00000000000003,56.6987298107781 L104.30481882607984,59.042384779277825 L143.0022456693947,52.241167793810796 L134.95327529304495,92.57045198460463 L153.73180109164656,123.92293915929358 L125.00000000000003,143.30127018922198 " fill="none" stroke="#d4af37" stroke-width="12" stroke-linecap="round"/><path d="M75.00000000000001,143.30127018922192 L62.377255327386436,116.75072514828648 L37.13851521966438,86.63837893361945 L76.08918503350887,73.4443496584498 L93.85197249931444,41.50542568389484 L124.99999999999993,56.69872981077811 L137.62274467261355,83.2492748517135 L162.8614847803356,113.36162106638051 L123.91081496649113,126.55565034155018 L106.14802750068557,158.4945743161052 L75.00000000000006,143.30127018922192 L62.37725532738648,116.75072514828642 L37.13851521966438,86.63837893361949 L76.08918503350888,73.44434965844985 L93.85197249931443,41.50542568389488 L124.99999999999989,56.69872981077817 L137.62274467261358,83.24927485171348 L162.86148478033562,113.3616210663805 L123.91081496649113,126.55565034155016 L106.14802750068559,158.49457431610523 L75.00000000000007,143.30127018922192 " fill="none" stroke="#ffd700" stroke-width="12" stroke-linecap="round"/><path d="M50.000000000000014,100 L66.68207415346626,75.79310992756423 L80.14076088905907,38.87954672743022 L111.04246032655381,66.01480164305443 L147.58377359096102,65.42836484318843 L149.99999999999997,99.99999999999999 L133.31792584653374,124.20689007243577 L119.85923911094093,161.12045327256976 L88.95753967344619,133.98519835694557 L52.41622640903896,134.57163515681157 L50.000000000000036,100.00000000000001 L66.68207415346625,75.79310992756423 L80.14076088905907,38.87954672743027 L111.04246032655381,66.01480164305443 L147.58377359096096,65.42836484318846 L149.99999999999994,99.99999999999997 L133.31792584653383,124.20689007243581 L119.85923911094095,161.12045327256976 L88.95753967344619,133.9851983569456 L52.41622640903896,134.5716351568116 L50.00000000000016,100.00000000000003 " fill="none" stroke="#b8860b" stroke-width="12" stroke-linecap="round"/><path d="M74.99999999999999,56.69872981077809 L104.30481882607982,59.042384779277754 L143.00224566939468,52.24116779381076 L134.95327529304492,92.57045198460462 L153.73180109164656,123.92293915929353 L125.00000000000001,143.3012701892219 L95.69518117392018,140.95761522072226 L56.997754330605396,147.75883220618925 L65.0467247069551,107.42954801539541 L46.26819890835333,76.07706084070648 L75,56.69872981077823 L104.30481882607984,59.042384779277825 L143.00224566939463,52.24116779381072 L134.9532752930449,92.57045198460459 L153.73180109164676,123.92293915929355 L125,143.30127018922175 L95.69518117392023,140.9576152207223 L56.99775433060542,147.75883220618925 L65.04672470695516,107.42954801539541 L46.26819890835331,76.0770608407065 L74.99999999999994,56.69872981077816 " fill="none" stroke="#fff8dc" stroke-width="12" stroke-linecap="round"/><path d="M125,56.69872981077809 L137.62274467261358,83.24927485171352 L162.86148478033562,113.36162106638056 L123.91081496649112,126.5556503415502 L106.14802750068552,158.49457431610512 L74.99999999999991,143.30127018922198 L62.37725532738648,116.75072514828642 L37.13851521966436,86.63837893361938 L76.08918503350888,73.44434965844977 L93.85197249931454,41.50542568389486 L125.00000000000006,56.69872981077803 L137.62274467261344,83.24927485171362 L162.86148478033562,113.36162106638061 L123.91081496649109,126.5556503415502 L106.14802750068546,158.49457431610506 L74.99999999999989,143.30127018922207 L62.37725532738647,116.75072514828642 L37.1385152196644,86.6383789336194 L76.08918503350888,73.44434965844977 L93.85197249931454,41.50542568389501 L125.00000000000004,56.69872981077805 " fill="none" stroke="#1e3c72" stroke-width="12" stroke-linecap="round"/></g><g transform="rotate(180, 100, 100)"><path d="M150,100 L133.3179258465337,124.20689007243575 L119.85923911094092,161.1204532725698 L88.95753967344618,133.98519835694557 L52.41622640903898,134.57163515681157 L50.000000000000014,100 L66.68207415346626,75.79310992756423 L80.14076088905907,38.87954672743022 L111.04246032655381,66.01480164305443 L147.58377359096102,65.42836484318843 L149.99999999999997,99.99999999999999 L133.31792584653365,124.20689007243574 L119.85923911094093,161.12045327256976 L88.95753967344619,133.98519835694557 L52.41622640903896,134.57163515681157 L50.000000000000036,100.00000000000001 L66.68207415346625,75.79310992756423 L80.14076088905907,38.87954672743027 L111.04246032655381,66.01480164305443 L147.58377359096096,65.42836484318846 L149.99999999999994,99.99999999999997 " fill="none" stroke="#1e3c72" stroke-width="12" stroke-linecap="round"/><path d="M125,143.30127018922192 L95.69518117392016,140.95761522072223 L56.997754330605325,147.75883220618923 L65.04672470695506,107.42954801539538 L46.26819890835345,76.07706084070647 L74.99999999999999,56.69872981077809 L104.30481882607982,59.042384779277754 L143.00224566939468,52.24116779381076 L134.95327529304492,92.57045198460462 L153.73180109164656,123.92293915929353 L125.00000000000001,143.3012701892219 L95.69518117392015,140.95761522072223 L56.99775433060526,147.75883220618923 L65.04672470695506,107.42954801539535 L46.26819890835353,76.07706084070647 L75.00000000000003,56.6987298107781 L104.30481882607984,59.042384779277825 L143.0022456693947,52.241167793810796 L134.95327529304495,92.57045198460463 L153.73180109164656,123.92293915929358 L125.00000000000003,143.30127018922198 " fill="none" stroke="#d4af37" stroke-width="12" stroke-linecap="round"/><path d="M75.00000000000001,143.30127018922192 L62.377255327386436,116.75072514828648 L37.13851521966438,86.63837893361945 L76.08918503350887,73.4443496584498 L93.85197249931444,41.50542568389484 L124.99999999999993,56.69872981077811 L137.62274467261355,83.2492748517135 L162.8614847803356,113.36162106638051 L123.91081496649113,126.55565034155018 L106.14802750068557,158.4945743161052 L75.00000000000006,143.30127018922192 L62.37725532738648,116.75072514828642 L37.13851521966438,86.63837893361949 L76.08918503350888,73.44434965844985 L93.85197249931443,41.50542568389488 L124.99999999999989,56.69872981077817 L137.62274467261358,83.24927485171348 L162.86148478033562,113.3616210663805 L123.91081496649113,126.55565034155016 L106.14802750068559,158.49457431610523 L75.00000000000007,143.30127018922192 " fill="none" stroke="#ffd700" stroke-width="12" stroke-linecap="round"/><path d="M50.000000000000014,100 L66.68207415346626,75.79310992756423 L80.14076088905907,38.87954672743022 L111.04246032655381,66.01480164305443 L147.58377359096102,65.42836484318843 L149.99999999999997,99.99999999999999 L133.31792584653374,124.20689007243577 L119.85923911094093,161.12045327256976 L88.95753967344619,133.98519835694557 L52.41622640903896,134.57163515681157 L50.000000000000036,100.00000000000001 L66.68207415346625,75.79310992756423 L80.14076088905907,38.87954672743027 L111.04246032655381,66.01480164305443 L147.58377359096096,65.42836484318846 L149.99999999999994,99.99999999999997 L133.31792584653383,124.20689007243581 L119.85923911094095,161.12045327256976 L88.95753967344619,133.9851983569456 L52.41622640903896,134.5716351568116 L50.00000000000016,100.00000000000003 " fill="none" stroke="#b8860b" stroke-width="12" stroke-linecap="round"/><path d="M74.99999999999999,56.69872981077809 L104.30481882607982,59.042384779277754 L143.00224566939468,52.24116779381076 L134.95327529304492,92.57045198460462 L153.73180109164656,123.92293915929353 L125.00000000000001,143.3012701892219 L95.69518117392018,140.95761522072226 L56.997754330605396,147.75883220618925 L65.0467247069551,107.42954801539541 L46.26819890835333,76.07706084070648 L75,56.69872981077823 L104.30481882607984,59.042384779277825 L143.00224566939463,52.24116779381072 L134.9532752930449,92.57045198460459 L153.73180109164676,123.92293915929355 L125,143.30127018922175 L95.69518117392023,140.9576152207223 L56.99775433060542,147.75883220618925 L65.04672470695516,107.42954801539541 L46.26819890835331,76.0770608407065 L74.99999999999994,56.69872981077816 " fill="none" stroke="#fff8dc" stroke-width="12" stroke-linecap="round"/><path d="M125,56.69872981077809 L137.62274467261358,83.24927485171352 L162.86148478033562,113.36162106638056 L123.91081496649112,126.5556503415502 L106.14802750068552,158.49457431610512 L74.99999999999991,143.30127018922198 L62.37725532738648,116.75072514828642 L37.13851521966436,86.63837893361938 L76.08918503350888,73.44434965844977 L93.85197249931454,41.50542568389486 L125.00000000000006,56.69872981077803 L137.62274467261344,83.24927485171362 L162.86148478033562,113.36162106638061 L123.91081496649109,126.5556503415502 L106.14802750068546,158.49457431610506 L74.99999999999989,143.30127018922207 L62.37725532738647,116.75072514828642 L37.1385152196644,86.6383789336194 L76.08918503350888,73.44434965844977 L93.85197249931454,41.50542568389501 L125.00000000000004,56.69872981077805 " fill="none" stroke="#1e3c72" stroke-width="12" stroke-linecap="round"/></g><g transform="rotate(225, 100, 100)"><path d="M150,100 L133.3179258465337,124.20689007243575 L119.85923911094092,161.1204532725698 L88.95753967344618,133.98519835694557 L52.41622640903898,134.57163515681157 L50.000000000000014,100 L66.68207415346626,75.79310992756423 L80.14076088905907,38.87954672743022 L111.04246032655381,66.01480164305443 L147.58377359096102,65.42836484318843 L149.99999999999997,99.99999999999999 L133.31792584653365,124.20689007243574 L119.85923911094093,161.12045327256976 L88.95753967344619,133.98519835694557 L52.41622640903896,134.57163515681157 L50.000000000000036,100.00000000000001 L66.68207415346625,75.79310992756423 L80.14076088905907,38.87954672743027 L111.04246032655381,66.01480164305443 L147.58377359096096,65.42836484318846 L149.99999999999994,99.99999999999997 " fill="none" stroke="#1e3c72" stroke-width="12" stroke-linecap="round"/><path d="M125,143.30127018922192 L95.69518117392016,140.95761522072223 L56.997754330605325,147.75883220618923 L65.04672470695506,107.42954801539538 L46.26819890835345,76.07706084070647 L74.99999999999999,56.69872981077809 L104.30481882607982,59.042384779277754 L143.00224566939468,52.24116779381076 L134.95327529304492,92.57045198460462 L153.73180109164656,123.92293915929353 L125.00000000000001,143.3012701892219 L95.69518117392015,140.95761522072223 L56.99775433060526,147.75883220618923 L65.04672470695506,107.42954801539535 L46.26819890835353,76.07706084070647 L75.00000000000003,56.6987298107781 L104.30481882607984,59.042384779277825 L143.0022456693947,52.241167793810796 L134.95327529304495,92.57045198460463 L153.73180109164656,123.92293915929358 L125.00000000000003,143.30127018922198 " fill="none" stroke="#d4af37" stroke-width="12" stroke-linecap="round"/><path d="M75.00000000000001,143.30127018922192 L62.377255327386436,116.75072514828648 L37.13851521966438,86.63837893361945 L76.08918503350887,73.4443496584498 L93.85197249931444,41.50542568389484 L124.99999999999993,56.69872981077811 L137.62274467261355,83.2492748517135 L162.8614847803356,113.36162106638051 L123.91081496649113,126.55565034155018 L106.14802750068557,158.4945743161052 L75.00000000000006,143.30127018922192 L62.37725532738648,116.75072514828642 L37.13851521966438,86.63837893361949 L76.08918503350888,73.44434965844985 L93.85197249931443,41.50542568389488 L124.99999999999989,56.69872981077817 L137.62274467261358,83.24927485171348 L162.86148478033562,113.3616210663805 L123.91081496649113,126.55565034155016 L106.14802750068559,158.49457431610523 L75.00000000000007,143.30127018922192 " fill="none" stroke="#ffd700" stroke-width="12" stroke-linecap="round"/><path d="M50.000000000000014,100 L66.68207415346626,75.79310992756423 L80.14076088905907,38.87954672743022 L111.04246032655381,66.01480164305443 L147.58377359096102,65.42836484318843 L149.99999999999997,99.99999999999999 L133.31792584653374,124.20689007243577 L119.85923911094093,161.12045327256976 L88.95753967344619,133.98519835694557 L52.41622640903896,134.57163515681157 L50.000000000000036,100.00000000000001 L66.68207415346625,75.79310992756423 L80.14076088905907,38.87954672743027 L111.04246032655381,66.01480164305443 L147.58377359096096,65.42836484318846 L149.99999999999994,99.99999999999997 L133.31792584653383,124.20689007243581 L119.85923911094095,161.12045327256976 L88.95753967344619,133.9851983569456 L52.41622640903896,134.5716351568116 L50.00000000000016,100.00000000000003 " fill="none" stroke="#b8860b" stroke-width="12" stroke-linecap="round"/><path d="M74.99999999999999,56.69872981077809 L104.30481882607982,59.042384779277754 L143.00224566939468,52.24116779381076 L134.95327529304492,92.57045198460462 L153.73180109164656,123.92293915929353 L125.00000000000001,143.3012701892219 L95.69518117392018,140.95761522072226 L56.997754330605396,147.75883220618925 L65.0467247069551,107.42954801539541 L46.26819890835333,76.07706084070648 L75,56.69872981077823 L104.30481882607984,59.042384779277825 L143.00224566939463,52.24116779381072 L134.9532752930449,92.57045198460459 L153.73180109164676,123.92293915929355 L125,143.30127018922175 L95.69518117392023,140.9576152207223 L56.99775433060542,147.75883220618925 L65.04672470695516,107.42954801539541 L46.26819890835331,76.0770608407065 L74.99999999999994,56.69872981077816 " fill="none" stroke="#fff8dc" stroke-width="12" stroke-linecap="round"/><path d="M125,56.69872981077809 L137.62274467261358,83.24927485171352 L162.86148478033562,113.36162106638056 L123.91081496649112,126.5556503415502 L106.14802750068552,158.49457431610512 L74.99999999999991,143.30127018922198 L62.37725532738648,116.75072514828642 L37.13851521966436,86.63837893361938 L76.08918503350888,73.44434965844977 L93.85197249931454,41.50542568389486 L125.00000000000006,56.69872981077803 L137.62274467261344,83.24927485171362 L162.86148478033562,113.36162106638061 L123.91081496649109,126.5556503415502 L106.14802750068546,158.49457431610506 L74.99999999999989,143.30127018922207 L62.37725532738647,116.75072514828642 L37.1385152196644,86.6383789336194 L76.08918503350888,73.44434965844977 L93.85197249931454,41.50542568389501 L125.00000000000004,56.69872981077805 " fill="none" stroke="#1e3c72" stroke-width="12" stroke-linecap="round"/></g><g transform="rotate(270, 100, 100)"><path d="M150,100 L133.3179258465337,124.20689007243575 L119.85923911094092,161.1204532725698 L88.95753967344618,133.98519835694557 L52.41622640903898,134.57163515681157 L50.000000000000014,100 L66.68207415346626,75.79310992756423 L80.14076088905907,38.87954672743022 L111.04246032655381,66.01480164305443 L147.58377359096102,65.42836484318843 L149.99999999999997,99.99999999999999 L133.31792584653365,124.20689007243574 L119.85923911094093,161.12045327256976 L88.95753967344619,133.98519835694557 L52.41622640903896,134.57163515681157 L50.000000000000036,100.00000000000001 L66.68207415346625,75.79310992756423 L80.14076088905907,38.87954672743027 L111.04246032655381,66.01480164305443 L147.58377359096096,65.42836484318846 L149.99999999999994,99.99999999999997 " fill="none" stroke="#1e3c72" stroke-width="12" stroke-linecap="round"/><path d="M125,143.30127018922192 L95.69518117392016,140.95761522072223 L56.997754330605325,147.75883220618923 L65.04672470695506,107.42954801539538 L46.26819890835345,76.07706084070647 L74.99999999999999,56.69872981077809 L104.30481882607982,59.042384779277754 L143.00224566939468,52.24116779381076 L134.95327529304492,92.57045198460462 L153.73180109164656,123.92293915929353 L125.00000000000001,143.3012701892219 L95.69518117392015,140.95761522072223 L56.99775433060526,147.75883220618923 L65.04672470695506,107.42954801539535 L46.26819890835353,76.07706084070647 L75.00000000000003,56.6987298107781 L104.30481882607984,59.042384779277825 L143.0022456693947,52.241167793810796 L134.95327529304495,92.57045198460463 L153.73180109164656,123.92293915929358 L125.00000000000003,143.30127018922198 " fill="none" stroke="#d4af37" stroke-width="12" stroke-linecap="round"/><path d="M75.00000000000001,143.30127018922192 L62.377255327386436,116.75072514828648 L37.13851521966438,86.63837893361945 L76.08918503350887,73.4443496584498 L93.85197249931444,41.50542568389484 L124.99999999999993,56.69872981077811 L137.62274467261355,83.2492748517135 L162.8614847803356,113.36162106638051 L123.91081496649113,126.55565034155018 L106.14802750068557,158.4945743161052 L75.00000000000006,143.30127018922192 L62.37725532738648,116.75072514828642 L37.13851521966438,86.63837893361949 L76.08918503350888,73.44434965844985 L93.85197249931443,41.50542568389488 L124.99999999999989,56.69872981077817 L137.62274467261358,83.24927485171348 L162.86148478033562,113.3616210663805 L123.91081496649113,126.55565034155016 L106.14802750068559,158.49457431610523 L75.00000000000007,143.30127018922192 " fill="none" stroke="#ffd700" stroke-width="12" stroke-linecap="round"/><path d="M50.000000000000014,100 L66.68207415346626,75.79310992756423 L80.14076088905907,38.87954672743022 L111.04246032655381,66.01480164305443 L147.58377359096102,65.42836484318843 L149.99999999999997,99.99999999999999 L133.31792584653374,124.20689007243577 L119.85923911094093,161.12045327256976 L88.95753967344619,133.98519835694557 L52.41622640903896,134.57163515681157 L50.000000000000036,100.00000000000001 L66.68207415346625,75.79310992756423 L80.14076088905907,38.87954672743027 L111.04246032655381,66.01480164305443 L147.58377359096096,65.42836484318846 L149.99999999999994,99.99999999999997 L133.31792584653383,124.20689007243581 L119.85923911094095,161.12045327256976 L88.95753967344619,133.9851983569456 L52.41622640903896,134.5716351568116 L50.00000000000016,100.00000000000003 " fill="none" stroke="#b8860b" stroke-width="12" stroke-linecap="round"/><path d="M74.99999999999999,56.69872981077809 L104.30481882607982,59.042384779277754 L143.00224566939468,52.24116779381076 L134.95327529304492,92.57045198460462 L153.73180109164656,123.92293915929353 L125.00000000000001,143.3012701892219 L95.69518117392018,140.95761522072226 L56.997754330605396,147.75883220618925 L65.0467247069551,107.42954801539541 L46.26819890835333,76.07706084070648 L75,56.69872981077823 L104.30481882607984,59.042384779277825 L143.00224566939463,52.24116779381072 L134.9532752930449,92.57045198460459 L153.73180109164676,123.92293915929355 L125,143.30127018922175 L95.69518117392023,140.9576152207223 L56.99775433060542,147.75883220618925 L65.04672470695516,107.42954801539541 L46.26819890835331,76.0770608407065 L74.99999999999994,56.69872981077816 " fill="none" stroke="#fff8dc" stroke-width="12" stroke-linecap="round"/><path d="M125,56.69872981077809 L137.62274467261358,83.24927485171352 L162.86148478033562,113.36162106638056 L123.91081496649112,126.5556503415502 L106.14802750068552,158.49457431610512 L74.99999999999991,143.30127018922198 L62.37725532738648,116.75072514828642 L37.13851521966436,86.63837893361938 L76.08918503350888,73.44434965844977 L93.85197249931454,41.50542568389486 L125.00000000000006,56.69872981077803 L137.62274467261344,83.24927485171362 L162.86148478033562,113.36162106638061 L123.91081496649109,126.5556503415502 L106.14802750068546,158.49457431610506 L74.99999999999989,143.30127018922207 L62.37725532738647,116.75072514828642 L37.1385152196644,86.6383789336194 L76.08918503350888,73.44434965844977 L93.85197249931454,41.50542568389501 L125.00000000000004,56.69872981077805 " fill="none" stroke="#1e3c72" stroke-width="12" stroke-linecap="round"/></g><g transform="rotate(315, 100, 100)"><path d="M150,100 L133.3179258465337,124.20689007243575 L119.85923911094092,161.1204532725698 L88.95753967344618,133.98519835694557 L52.41622640903898,134.57163515681157 L50.000000000000014,100 L66.68207415346626,75.79310992756423 L80.14076088905907,38.87954672743022 L111.04246032655381,66.01480164305443 L147.58377359096102,65.42836484318843 L149.99999999999997,99.99999999999999 L133.31792584653365,124.20689007243574 L119.85923911094093,161.12045327256976 L88.95753967344619,133.98519835694557 L52.41622640903896,134.57163515681157 L50.000000000000036,100.00000000000001 L66.68207415346625,75.79310992756423 L80.14076088905907,38.87954672743027 L111.04246032655381,66.01480164305443 L147.58377359096096,65.42836484318846 L149.99999999999994,99.99999999999997 " fill="none" stroke="#1e3c72" stroke-width="12" stroke-linecap="round"/><path d="M125,143.30127018922192 L95.69518117392016,140.95761522072223 L56.997754330605325,147.75883220618923 L65.04672470695506,107.42954801539538 L46.26819890835345,76.07706084070647 L74.99999999999999,56.69872981077809 L104.30481882607982,59.042384779277754 L143.00224566939468,52.24116779381076 L134.95327529304492,92.57045198460462 L153.73180109164656,123.92293915929353 L125.00000000000001,143.3012701892219 L95.69518117392015,140.95761522072223 L56.99775433060526,147.75883220618923 L65.04672470695506,107.42954801539535 L46.26819890835353,76.07706084070647 L75.00000000000003,56.6987298107781 L104.30481882607984,59.042384779277825 L143.0022456693947,52.241167793810796 L134.95327529304495,92.57045198460463 L153.73180109164656,123.92293915929358 L125.00000000000003,143.30127018922198 " fill="none" stroke="#d4af37" stroke-width="12" stroke-linecap="round"/><path d="M75.00000000000001,143.30127018922192 L62.377255327386436,116.75072514828648 L37.13851521966438,86.63837893361945 L76.08918503350887,73.4443496584498 L93.85197249931444,41.50542568389484 L124.99999999999993,56.69872981077811 L137.62274467261355,83.2492748517135 L162.8614847803356,113.36162106638051 L123.91081496649113,126.55565034155018 L106.14802750068557,158.4945743161052 L75.00000000000006,143.30127018922192 L62.37725532738648,116.75072514828642 L37.13851521966438,86.63837893361949 L76.08918503350888,73.44434965844985 L93.85197249931443,41.50542568389488 L124.99999999999989,56.69872981077817 L137.62274467261358,83.24927485171348 L162.86148478033562,113.3616210663805 L123.91081496649113,126.55565034155016 L106.14802750068559,158.49457431610523 L75.00000000000007,143.30127018922192 " fill="none" stroke="#ffd700" stroke-width="12" stroke-linecap="round"/><path d="M50.000000000000014,100 L66.68207415346626,75.79310992756423 L80.14076088905907,38.87954672743022 L111.04246032655381,66.01480164305443 L147.58377359096102,65.42836484318843 L149.99999999999997,99.99999999999999 L133.31792584653374,124.20689007243577 L119.85923911094093,161.12045327256976 L88.95753967344619,133.98519835694557 L52.41622640903896,134.57163515681157 L50.000000000000036,100.00000000000001 L66.68207415346625,75.79310992756423 L80.14076088905907,38.87954672743027 L111.04246032655381,66.01480164305443 L147.58377359096096,65.42836484318846 L149.99999999999994,99.99999999999997 L133.31792584653383,124.20689007243581 L119.85923911094095,161.12045327256976 L88.95753967344619,133.9851983569456 L52.41622640903896,134.5716351568116 L50.00000000000016,100.00000000000003 " fill="none" stroke="#b8860b" stroke-width="12" stroke-linecap="round"/><path d="M74.99999999999999,56.69872981077809 L104.30481882607982,59.042384779277754 L143.00224566939468,52.24116779381076 L134.95327529304492,92.57045198460462 L153.73180109164656,123.92293915929353 L125.00000000000001,143.3012701892219 L95.69518117392018,140.95761522072226 L56.997754330605396,147.75883220618925 L65.0467247069551,107.42954801539541 L46.26819890835333,76.07706084070648 L75,56.69872981077823 L104.30481882607984,59.042384779277825 L143.00224566939463,52.24116779381072 L134.9532752930449,92.57045198460459 L153.73180109164676,123.92293915929355 L125,143.30127018922175 L95.69518117392023,140.9576152207223 L56.99775433060542,147.75883220618925 L65.04672470695516,107.42954801539541 L46.26819890835331,76.0770608407065 L74.99999999999994,56.69872981077816 " fill="none" stroke="#fff8dc" stroke-width="12" stroke-linecap="round"/><path d="M125,56.69872981077809 L137.62274467261358,83.24927485171352 L162.86148478033562,113.36162106638056 L123.91081496649112,126.5556503415502 L106.14802750068552,158.49457431610512 L74.99999999999991,143.30127018922198 L62.37725532738648,116.75072514828642 L37.13851521966436,86.63837893361938 L76.08918503350888,73.44434965844977 L93.85197249931454,41.50542568389486 L125.00000000000006,56.69872981077803 L137.62274467261344,83.24927485171362 L162.86148478033562,113.36162106638061 L123.91081496649109,126.5556503415502 L106.14802750068546,158.49457431610506 L74.99999999999989,143.30127018922207 L62.37725532738647,116.75072514828642 L37.1385152196644,86.6383789336194 L76.08918503350888,73.44434965844977 L93.85197249931454,41.50542568389501 L125.00000000000004,56.69872981077805 " fill="none" stroke="#1e3c72" stroke-width="12" stroke-linecap="round"/></g></g></g><polygon points="100,72 124.24871130596428,86 124.24871130596429,114 100,128 75.75128869403572,114.00000000000001 75.75128869403572,86 " fill="#1e3c72" fill-opacity="0.8" stroke="#001e54" stroke-width="8"/><polygon points="100,83.2 114.54922678357858,91.6 114.54922678357858,108.39999999999999 100,116.8 85.45077321642144,108.4 85.45077321642142,91.6 " fill="#d4af37" fill-opacity="0.8" stroke="#b69119" stroke-width="4"/><circle cx="100" cy="100" r="5" fill="#ffd700" stroke="#d7af00" stroke-width="4"/><path d="M15,35 Q20,25 30,25 Q35,25 35,15" fill="none" stroke="#1e3c72" stroke-width="7.8" stroke-linecap="round" stroke-opacity="1"/><path d="M185,165 Q180,175 170,175 Q165,175 165,185" fill="none" stroke="#1e3c72" stroke-width="7.8" stroke-linecap="round" stroke-opacity="1"/><path d="M165,15 Q170,25 180,25 Q185,25 185,35" fill="none" stroke="#d4af37" stroke-width="7.8" stroke-linecap="round" stroke-opacity="1"/><path d="M35,185 Q30,175 20,175 Q15,175 15,165" fill="none" stroke="#d4af37" stroke-width="7.8" stroke-linecap="round" stroke-opacity="1"/><rect x="5" y="5" width="190" height="190" fill="none" stroke="#6d4918" stroke-width="5" stroke-opacity="0.53"/><rect x="13" y="13" width="174" height="174" fill="none" stroke="#6d4918" stroke-width="3" stroke-opacity="0.53"/></svg>