<svg xmlns="http://www.w3.org/2000/svg" width="200" height="200" viewBox="0 0 200 200"><defs></defs><rect width="200" height="200" fill="#ffffff"/><g class="pattern"><g class="symmetry-rotational"><polygon points="15,15 26.142857142857142,26.142857142857142 3.8571428571428577,26.142857142857142" fill="#1e3c72" fill-opacity="0.8" stroke="#001e54" stroke-width="2"/><polygon points="27.142857142857142,26.142857142857142 38.285714285714285,15 16,15" fill="#2a5298" fill-opacity="0.8" stroke="#0c347a" stroke-width="2"/><polygon points="39.285714285714285,15 50.42857142857143,26.142857142857142 28.142857142857142,26.142857142857142" fill="#d4af37" fill-opacity="0.8" stroke="#b69119" stroke-width="2"/><polygon points="51.42857142857143,26.142857142857142 62.57142857142857,15 40.28571428571429,15" fill="#1e3c72" fill-opacity="0.8" stroke="#001e54" stroke-width="2"/><polygon points="63.57142857142857,15 74.71428571428571,26.142857142857142 52.42857142857143,26.142857142857142" fill="#2a5298" fill-opacity="0.8" stroke="#0c347a" stroke-width="2"/><polygon points="75.71428571428571,26.142857142857142 86.85714285714285,15 64.57142857142857,15" fill="#d4af37" fill-opacity="0.8" stroke="#b69119" stroke-width="2"/><polygon points="87.85714285714286,15 99,26.142857142857142 76.71428571428572,26.142857142857142" fill="#1e3c72" fill-opacity="0.8" stroke="#001e54" stroke-width="2"/><polygon points="100,26.142857142857142 111.14285714285714,15 88.85714285714286,15" fill="#2a5298" fill-opacity="0.8" stroke="#0c347a" stroke-width="2"/><polygon points="15,50.42857142857143 26.142857142857142,39.285714285714285 3.8571428571428577,39.285714285714285" fill="#2a5298" fill-opacity="0.8" stroke="#0c347a" stroke-width="2"/><polygon points="27.142857142857142,39.285714285714285 38.285714285714285,50.42857142857143 16,50.42857142857143" fill="#d4af37" fill-opacity="0.8" stroke="#b69119" stroke-width="2"/><polygon points="39.285714285714285,50.42857142857143 50.42857142857143,39.285714285714285 28.142857142857142,39.285714285714285" fill="#1e3c72" fill-opacity="0.8" stroke="#001e54" stroke-width="2"/><polygon points="51.42857142857143,39.285714285714285 62.57142857142857,50.42857142857143 40.28571428571429,50.42857142857143" fill="#2a5298" fill-opacity="0.8" stroke="#0c347a" stroke-width="2"/><polygon points="63.57142857142857,50.42857142857143 74.71428571428571,39.285714285714285 52.42857142857143,39.285714285714285" fill="#d4af37" fill-opacity="0.8" stroke="#b69119" stroke-width="2"/><polygon points="75.71428571428571,39.285714285714285 86.85714285714285,50.42857142857143 64.57142857142857,50.42857142857143" fill="#1e3c72" fill-opacity="0.8" stroke="#001e54" stroke-width="2"/><polygon points="87.85714285714286,50.42857142857143 99,39.285714285714285 76.71428571428572,39.285714285714285" fill="#2a5298" fill-opacity="0.8" stroke="#0c347a" stroke-width="2"/><polygon points="100,39.285714285714285 111.14285714285714,50.42857142857143 88.85714285714286,50.42857142857143" fill="#d4af37" fill-opacity="0.8" stroke="#b69119" stroke-width="2"/><polygon points="15,63.57142857142857 26.142857142857142,74.71428571428571 3.8571428571428577,74.71428571428571" fill="#d4af37" fill-opacity="0.8" stroke="#b69119" stroke-width="2"/><polygon points="27.142857142857142,74.71428571428571 38.285714285714285,63.57142857142857 16,63.57142857142857" fill="#1e3c72" fill-opacity="0.8" stroke="#001e54" stroke-width="2"/><polygon points="39.285714285714285,63.57142857142857 50.42857142857143,74.71428571428571 28.142857142857142,74.71428571428571" fill="#2a5298" fill-opacity="0.8" stroke="#0c347a" stroke-width="2"/><polygon points="51.42857142857143,74.71428571428571 62.57142857142857,63.57142857142857 40.28571428571429,63.57142857142857" fill="#d4af37" fill-opacity="0.8" stroke="#b69119" stroke-width="2"/><polygon points="63.57142857142857,63.57142857142857 74.71428571428571,74.71428571428571 52.42857142857143,74.71428571428571" fill="#1e3c72" fill-opacity="0.8" stroke="#001e54" stroke-width="2"/><polygon points="75.71428571428571,74.71428571428571 86.85714285714285,63.57142857142857 64.57142857142857,63.57142857142857" fill="#2a5298" fill-opacity="0.8" stroke="#0c347a" stroke-width="2"/><polygon points="87.85714285714286,63.57142857142857 99,74.71428571428571 76.71428571428572,74.71428571428571" fill="#d4af37" fill-opacity="0.8" stroke="#b69119" stroke-width="2"/><polygon points="100,74.71428571428571 111.14285714285714,63.57142857142857 88.85714285714286,63.57142857142857" fill="#1e3c72" fill-opacity="0.8" stroke="#001e54" stroke-width="2"/><polygon points="15,99 26.142857142857142,87.85714285714286 3.8571428571428577,87.85714285714286" fill="#1e3c72" fill-opacity="0.8" stroke="#001e54" stroke-width="2"/><polygon points="27.142857142857142,87.85714285714286 38.285714285714285,99 16,99" fill="#2a5298" fill-opacity="0.8" stroke="#0c347a" stroke-width="2"/><polygon points="39.285714285714285,99 50.42857142857143,87.85714285714286 28.142857142857142,87.85714285714286" fill="#d4af37" fill-opacity="0.8" stroke="#b69119" stroke-width="2"/><polygon points="51.42857142857143,87.85714285714286 62.57142857142857,99 40.28571428571429,99" fill="#1e3c72" fill-opacity="0.8" stroke="#001e54" stroke-width="2"/><polygon points="63.57142857142857,99 74.71428571428571,87.85714285714286 52.42857142857143,87.85714285714286" fill="#2a5298" fill-opacity="0.8" stroke="#0c347a" stroke-width="2"/><polygon points="75.71428571428571,87.85714285714286 86.85714285714285,99 64.57142857142857,99" fill="#d4af37" fill-opacity="0.8" stroke="#b69119" stroke-width="2"/><polygon points="87.85714285714286,99 99,87.85714285714286 76.71428571428572,87.85714285714286" fill="#1e3c72" fill-opacity="0.8" stroke="#001e54" stroke-width="2"/><polygon points="100,87.85714285714286 111.14285714285714,99 88.85714285714286,99" fill="#2a5298" fill-opacity="0.8" stroke="#0c347a" stroke-width="2"/><g transform="rotate(90, 100, 100)"><polygon points="15,15 26.142857142857142,26.142857142857142 3.8571428571428577,26.142857142857142" fill="#1e3c72" fill-opacity="0.8" stroke="#001e54" stroke-width="2"/><polygon points="27.142857142857142,26.142857142857142 38.285714285714285,15 16,15" fill="#2a5298" fill-opacity="0.8" stroke="#0c347a" stroke-width="2"/><polygon points="39.285714285714285,15 50.42857142857143,26.142857142857142 28.142857142857142,26.142857142857142" fill="#d4af37" fill-opacity="0.8" stroke="#b69119" stroke-width="2"/><polygon points="51.42857142857143,26.142857142857142 62.57142857142857,15 40.28571428571429,15" fill="#1e3c72" fill-opacity="0.8" stroke="#001e54" stroke-width="2"/><polygon points="63.57142857142857,15 74.71428571428571,26.142857142857142 52.42857142857143,26.142857142857142" fill="#2a5298" fill-opacity="0.8" stroke="#0c347a" stroke-width="2"/><polygon points="75.71428571428571,26.142857142857142 86.85714285714285,15 64.57142857142857,15" fill="#d4af37" fill-opacity="0.8" stroke="#b69119" stroke-width="2"/><polygon points="87.85714285714286,15 99,26.142857142857142 76.71428571428572,26.142857142857142" fill="#1e3c72" fill-opacity="0.8" stroke="#001e54" stroke-width="2"/><polygon points="100,26.142857142857142 111.14285714285714,15 88.85714285714286,15" fill="#2a5298" fill-opacity="0.8" stroke="#0c347a" stroke-width="2"/><polygon points="15,50.42857142857143 26.142857142857142,39.285714285714285 3.8571428571428577,39.285714285714285" fill="#2a5298" fill-opacity="0.8" stroke="#0c347a" stroke-width="2"/><polygon points="27.142857142857142,39.285714285714285 38.285714285714285,50.42857142857143 16,50.42857142857143" fill="#d4af37" fill-opacity="0.8" stroke="#b69119" stroke-width="2"/><polygon points="39.285714285714285,50.42857142857143 50.42857142857143,39.285714285714285 28.142857142857142,39.285714285714285" fill="#1e3c72" fill-opacity="0.8" stroke="#001e54" stroke-width="2"/><polygon points="51.42857142857143,39.285714285714285 62.57142857142857,50.42857142857143 40.28571428571429,50.42857142857143" fill="#2a5298" fill-opacity="0.8" stroke="#0c347a" stroke-width="2"/><polygon points="63.57142857142857,50.42857142857143 74.71428571428571,39.285714285714285 52.42857142857143,39.285714285714285" fill="#d4af37" fill-opacity="0.8" stroke="#b69119" stroke-width="2"/><polygon points="75.71428571428571,39.285714285714285 86.85714285714285,50.42857142857143 64.57142857142857,50.42857142857143" fill="#1e3c72" fill-opacity="0.8" stroke="#001e54" stroke-width="2"/><polygon points="87.85714285714286,50.42857142857143 99,39.285714285714285 76.71428571428572,39.285714285714285" fill="#2a5298" fill-opacity="0.8" stroke="#0c347a" stroke-width="2"/><polygon points="100,39.285714285714285 111.14285714285714,50.42857142857143 88.85714285714286,50.42857142857143" fill="#d4af37" fill-opacity="0.8" stroke="#b69119" stroke-width="2"/><polygon points="15,63.57142857142857 26.142857142857142,74.71428571428571 3.8571428571428577,74.71428571428571" fill="#d4af37" fill-opacity="0.8" stroke="#b69119" stroke-width="2"/><polygon points="27.142857142857142,74.71428571428571 38.285714285714285,63.57142857142857 16,63.57142857142857" fill="#1e3c72" fill-opacity="0.8" stroke="#001e54" stroke-width="2"/><polygon points="39.285714285714285,63.57142857142857 50.42857142857143,74.71428571428571 28.142857142857142,74.71428571428571" fill="#2a5298" fill-opacity="0.8" stroke="#0c347a" stroke-width="2"/><polygon points="51.42857142857143,74.71428571428571 62.57142857142857,63.57142857142857 40.28571428571429,63.57142857142857" fill="#d4af37" fill-opacity="0.8" stroke="#b69119" stroke-width="2"/><polygon points="63.57142857142857,63.57142857142857 74.71428571428571,74.71428571428571 52.42857142857143,74.71428571428571" fill="#1e3c72" fill-opacity="0.8" stroke="#001e54" stroke-width="2"/><polygon points="75.71428571428571,74.71428571428571 86.85714285714285,63.57142857142857 64.57142857142857,63.57142857142857" fill="#2a5298" fill-opacity="0.8" stroke="#0c347a" stroke-width="2"/><polygon points="87.85714285714286,63.57142857142857 99,74.71428571428571 76.71428571428572,74.71428571428571" fill="#d4af37" fill-opacity="0.8" stroke="#b69119" stroke-width="2"/><polygon points="100,74.71428571428571 111.14285714285714,63.57142857142857 88.85714285714286,63.57142857142857" fill="#1e3c72" fill-opacity="0.8" stroke="#001e54" stroke-width="2"/><polygon points="15,99 26.142857142857142,87.85714285714286 3.8571428571428577,87.85714285714286" fill="#1e3c72" fill-opacity="0.8" stroke="#001e54" stroke-width="2"/><polygon points="27.142857142857142,87.85714285714286 38.285714285714285,99 16,99" fill="#2a5298" fill-opacity="0.8" stroke="#0c347a" stroke-width="2"/><polygon points="39.285714285714285,99 50.42857142857143,87.85714285714286 28.142857142857142,87.85714285714286" fill="#d4af37" fill-opacity="0.8" stroke="#b69119" stroke-width="2"/><polygon points="51.42857142857143,87.85714285714286 62.57142857142857,99 40.28571428571429,99" fill="#1e3c72" fill-opacity="0.8" stroke="#001e54" stroke-width="2"/><polygon points="63.57142857142857,99 74.71428571428571,87.85714285714286 52.42857142857143,87.85714285714286" fill="#2a5298" fill-opacity="0.8" stroke="#0c347a" stroke-width="2"/><polygon points="75.71428571428571,87.85714285714286 86.85714285714285,99 64.57142857142857,99" fill="#d4af37" fill-opacity="0.8" stroke="#b69119" stroke-width="2"/><polygon points="87.85714285714286,99 99,87.85714285714286 76.71428571428572,87.85714285714286" fill="#1e3c72" fill-opacity="0.8" stroke="#001e54" stroke-width="2"/><polygon points="100,87.85714285714286 111.14285714285714,99 88.85714285714286,99" fill="#2a5298" fill-opacity="0.8" stroke="#0c347a" stroke-width="2"/></g><g transform="rotate(180, 100, 100)"><polygon points="15,15 26.142857142857142,26.142857142857142 3.8571428571428577,26.142857142857142" fill="#1e3c72" fill-opacity="0.8" stroke="#001e54" stroke-width="2"/><polygon points="27.142857142857142,26.142857142857142 38.285714285714285,15 16,15" fill="#2a5298" fill-opacity="0.8" stroke="#0c347a" stroke-width="2"/><polygon points="39.285714285714285,15 50.42857142857143,26.142857142857142 28.142857142857142,26.142857142857142" fill="#d4af37" fill-opacity="0.8" stroke="#b69119" stroke-width="2"/><polygon points="51.42857142857143,26.142857142857142 62.57142857142857,15 40.28571428571429,15" fill="#1e3c72" fill-opacity="0.8" stroke="#001e54" stroke-width="2"/><polygon points="63.57142857142857,15 74.71428571428571,26.142857142857142 52.42857142857143,26.142857142857142" fill="#2a5298" fill-opacity="0.8" stroke="#0c347a" stroke-width="2"/><polygon points="75.71428571428571,26.142857142857142 86.85714285714285,15 64.57142857142857,15" fill="#d4af37" fill-opacity="0.8" stroke="#b69119" stroke-width="2"/><polygon points="87.85714285714286,15 99,26.142857142857142 76.71428571428572,26.142857142857142" fill="#1e3c72" fill-opacity="0.8" stroke="#001e54" stroke-width="2"/><polygon points="100,26.142857142857142 111.14285714285714,15 88.85714285714286,15" fill="#2a5298" fill-opacity="0.8" stroke="#0c347a" stroke-width="2"/><polygon points="15,50.42857142857143 26.142857142857142,39.285714285714285 3.8571428571428577,39.285714285714285" fill="#2a5298" fill-opacity="0.8" stroke="#0c347a" stroke-width="2"/><polygon points="27.142857142857142,39.285714285714285 38.285714285714285,50.42857142857143 16,50.42857142857143" fill="#d4af37" fill-opacity="0.8" stroke="#b69119" stroke-width="2"/><polygon points="39.285714285714285,50.42857142857143 50.42857142857143,39.285714285714285 28.142857142857142,39.285714285714285" fill="#1e3c72" fill-opacity="0.8" stroke="#001e54" stroke-width="2"/><polygon points="51.42857142857143,39.285714285714285 62.57142857142857,50.42857142857143 40.28571428571429,50.42857142857143" fill="#2a5298" fill-opacity="0.8" stroke="#0c347a" stroke-width="2"/><polygon points="63.57142857142857,50.42857142857143 74.71428571428571,39.285714285714285 52.42857142857143,39.285714285714285" fill="#d4af37" fill-opacity="0.8" stroke="#b69119" stroke-width="2"/><polygon points="75.71428571428571,39.285714285714285 86.85714285714285,50.42857142857143 64.57142857142857,50.42857142857143" fill="#1e3c72" fill-opacity="0.8" stroke="#001e54" stroke-width="2"/><polygon points="87.85714285714286,50.42857142857143 99,39.285714285714285 76.71428571428572,39.285714285714285" fill="#2a5298" fill-opacity="0.8" stroke="#0c347a" stroke-width="2"/><polygon points="100,39.285714285714285 111.14285714285714,50.42857142857143 88.85714285714286,50.42857142857143" fill="#d4af37" fill-opacity="0.8" stroke="#b69119" stroke-width="2"/><polygon points="15,63.57142857142857 26.142857142857142,74.71428571428571 3.8571428571428577,74.71428571428571" fill="#d4af37" fill-opacity="0.8" stroke="#b69119" stroke-width="2"/><polygon points="27.142857142857142,74.71428571428571 38.285714285714285,63.57142857142857 16,63.57142857142857" fill="#1e3c72" fill-opacity="0.8" stroke="#001e54" stroke-width="2"/><polygon points="39.285714285714285,63.57142857142857 50.42857142857143,74.71428571428571 28.142857142857142,74.71428571428571" fill="#2a5298" fill-opacity="0.8" stroke="#0c347a" stroke-width="2"/><polygon points="51.42857142857143,74.71428571428571 62.57142857142857,63.57142857142857 40.28571428571429,63.57142857142857" fill="#d4af37" fill-opacity="0.8" stroke="#b69119" stroke-width="2"/><polygon points="63.57142857142857,63.57142857142857 74.71428571428571,74.71428571428571 52.42857142857143,74.71428571428571" fill="#1e3c72" fill-opacity="0.8" stroke="#001e54" stroke-width="2"/><polygon points="75.71428571428571,74.71428571428571 86.85714285714285,63.57142857142857 64.57142857142857,63.57142857142857" fill="#2a5298" fill-opacity="0.8" stroke="#0c347a" stroke-width="2"/><polygon points="87.85714285714286,63.57142857142857 99,74.71428571428571 76.71428571428572,74.71428571428571" fill="#d4af37" fill-opacity="0.8" stroke="#b69119" stroke-width="2"/><polygon points="100,74.71428571428571 111.14285714285714,63.57142857142857 88.85714285714286,63.57142857142857" fill="#1e3c72" fill-opacity="0.8" stroke="#001e54" stroke-width="2"/><polygon points="15,99 26.142857142857142,87.85714285714286 3.8571428571428577,87.85714285714286" fill="#1e3c72" fill-opacity="0.8" stroke="#001e54" stroke-width="2"/><polygon points="27.142857142857142,87.85714285714286 38.285714285714285,99 16,99" fill="#2a5298" fill-opacity="0.8" stroke="#0c347a" stroke-width="2"/><polygon points="39.285714285714285,99 50.42857142857143,87.85714285714286 28.142857142857142,87.85714285714286" fill="#d4af37" fill-opacity="0.8" stroke="#b69119" stroke-width="2"/><polygon points="51.42857142857143,87.85714285714286 62.57142857142857,99 40.28571428571429,99" fill="#1e3c72" fill-opacity="0.8" stroke="#001e54" stroke-width="2"/><polygon points="63.57142857142857,99 74.71428571428571,87.85714285714286 52.42857142857143,87.85714285714286" fill="#2a5298" fill-opacity="0.8" stroke="#0c347a" stroke-width="2"/><polygon points="75.71428571428571,87.85714285714286 86.85714285714285,99 64.57142857142857,99" fill="#d4af37" fill-opacity="0.8" stroke="#b69119" stroke-width="2"/><polygon points="87.85714285714286,99 99,87.85714285714286 76.71428571428572,87.85714285714286" fill="#1e3c72" fill-opacity="0.8" stroke="#001e54" stroke-width="2"/><polygon points="100,87.85714285714286 111.14285714285714,99 88.85714285714286,99" fill="#2a5298" fill-opacity="0.8" stroke="#0c347a" stroke-width="2"/></g><g transform="rotate(270, 100, 100)"><polygon points="15,15 26.142857142857142,26.142857142857142 3.8571428571428577,26.142857142857142" fill="#1e3c72" fill-opacity="0.8" stroke="#001e54" stroke-width="2"/><polygon points="27.142857142857142,26.142857142857142 38.285714285714285,15 16,15" fill="#2a5298" fill-opacity="0.8" stroke="#0c347a" stroke-width="2"/><polygon points="39.285714285714285,15 50.42857142857143,26.142857142857142 28.142857142857142,26.142857142857142" fill="#d4af37" fill-opacity="0.8" stroke="#b69119" stroke-width="2"/><polygon points="51.42857142857143,26.142857142857142 62.57142857142857,15 40.28571428571429,15" fill="#1e3c72" fill-opacity="0.8" stroke="#001e54" stroke-width="2"/><polygon points="63.57142857142857,15 74.71428571428571,26.142857142857142 52.42857142857143,26.142857142857142" fill="#2a5298" fill-opacity="0.8" stroke="#0c347a" stroke-width="2"/><polygon points="75.71428571428571,26.142857142857142 86.85714285714285,15 64.57142857142857,15" fill="#d4af37" fill-opacity="0.8" stroke="#b69119" stroke-width="2"/><polygon points="87.85714285714286,15 99,26.142857142857142 76.71428571428572,26.142857142857142" fill="#1e3c72" fill-opacity="0.8" stroke="#001e54" stroke-width="2"/><polygon points="100,26.142857142857142 111.14285714285714,15 88.85714285714286,15" fill="#2a5298" fill-opacity="0.8" stroke="#0c347a" stroke-width="2"/><polygon points="15,50.42857142857143 26.142857142857142,39.285714285714285 3.8571428571428577,39.285714285714285" fill="#2a5298" fill-opacity="0.8" stroke="#0c347a" stroke-width="2"/><polygon points="27.142857142857142,39.285714285714285 38.285714285714285,50.42857142857143 16,50.42857142857143" fill="#d4af37" fill-opacity="0.8" stroke="#b69119" stroke-width="2"/><polygon points="39.285714285714285,50.42857142857143 50.42857142857143,39.285714285714285 28.142857142857142,39.285714285714285" fill="#1e3c72" fill-opacity="0.8" stroke="#001e54" stroke-width="2"/><polygon points="51.42857142857143,39.285714285714285 62.57142857142857,50.42857142857143 40.28571428571429,50.42857142857143" fill="#2a5298" fill-opacity="0.8" stroke="#0c347a" stroke-width="2"/><polygon points="63.57142857142857,50.42857142857143 74.71428571428571,39.285714285714285 52.42857142857143,39.285714285714285" fill="#d4af37" fill-opacity="0.8" stroke="#b69119" stroke-width="2"/><polygon points="75.71428571428571,39.285714285714285 86.85714285714285,50.42857142857143 64.57142857142857,50.42857142857143" fill="#1e3c72" fill-opacity="0.8" stroke="#001e54" stroke-width="2"/><polygon points="87.85714285714286,50.42857142857143 99,39.285714285714285 76.71428571428572,39.285714285714285" fill="#2a5298" fill-opacity="0.8" stroke="#0c347a" stroke-width="2"/><polygon points="100,39.285714285714285 111.14285714285714,50.42857142857143 88.85714285714286,50.42857142857143" fill="#d4af37" fill-opacity="0.8" stroke="#b69119" stroke-width="2"/><polygon points="15,63.57142857142857 26.142857142857142,74.71428571428571 3.8571428571428577,74.71428571428571" fill="#d4af37" fill-opacity="0.8" stroke="#b69119" stroke-width="2"/><polygon points="27.142857142857142,74.71428571428571 38.285714285714285,63.57142857142857 16,63.57142857142857" fill="#1e3c72" fill-opacity="0.8" stroke="#001e54" stroke-width="2"/><polygon points="39.285714285714285,63.57142857142857 50.42857142857143,74.71428571428571 28.142857142857142,74.71428571428571" fill="#2a5298" fill-opacity="0.8" stroke="#0c347a" stroke-width="2"/><polygon points="51.42857142857143,74.71428571428571 62.57142857142857,63.57142857142857 40.28571428571429,63.57142857142857" fill="#d4af37" fill-opacity="0.8" stroke="#b69119" stroke-width="2"/><polygon points="63.57142857142857,63.57142857142857 74.71428571428571,74.71428571428571 52.42857142857143,74.71428571428571" fill="#1e3c72" fill-opacity="0.8" stroke="#001e54" stroke-width="2"/><polygon points="75.71428571428571,74.71428571428571 86.85714285714285,63.57142857142857 64.57142857142857,63.57142857142857" fill="#2a5298" fill-opacity="0.8" stroke="#0c347a" stroke-width="2"/><polygon points="87.85714285714286,63.57142857142857 99,74.71428571428571 76.71428571428572,74.71428571428571" fill="#d4af37" fill-opacity="0.8" stroke="#b69119" stroke-width="2"/><polygon points="100,74.71428571428571 111.14285714285714,63.57142857142857 88.85714285714286,63.57142857142857" fill="#1e3c72" fill-opacity="0.8" stroke="#001e54" stroke-width="2"/><polygon points="15,99 26.142857142857142,87.85714285714286 3.8571428571428577,87.85714285714286" fill="#1e3c72" fill-opacity="0.8" stroke="#001e54" stroke-width="2"/><polygon points="27.142857142857142,87.85714285714286 38.285714285714285,99 16,99" fill="#2a5298" fill-opacity="0.8" stroke="#0c347a" stroke-width="2"/><polygon points="39.285714285714285,99 50.42857142857143,87.85714285714286 28.142857142857142,87.85714285714286" fill="#d4af37" fill-opacity="0.8" stroke="#b69119" stroke-width="2"/><polygon points="51.42857142857143,87.85714285714286 62.57142857142857,99 40.28571428571429,99" fill="#1e3c72" fill-opacity="0.8" stroke="#001e54" stroke-width="2"/><polygon points="63.57142857142857,99 74.71428571428571,87.85714285714286 52.42857142857143,87.85714285714286" fill="#2a5298" fill-opacity="0.8" stroke="#0c347a" stroke-width="2"/><polygon points="75.71428571428571,87.85714285714286 86.85714285714285,99 64.57142857142857,99" fill="#d4af37" fill-opacity="0.8" stroke="#b69119" stroke-width="2"/><polygon points="87.85714285714286,99 99,87.85714285714286 76.71428571428572,87.85714285714286" fill="#1e3c72" fill-opacity="0.8" stroke="#001e54" stroke-width="2"/><polygon points="100,87.85714285714286 111.14285714285714,99 88.85714285714286,99" fill="#2a5298" fill-opacity="0.8" stroke="#0c347a" stroke-width="2"/></g></g></g><polygon points="100,70 130,100 100,130 70,100" fill="#1e3c72" fill-opacity="0.8" stroke="#00144a" stroke-width="4"/><polygon points="100,80 120,100 100,120 80,100" fill="#2a5298" fill-opacity="0.8" stroke="#022a70" stroke-width="2"/><path d="M15,5 L17.82842712474619,12.17157287525381 L25,15 L17.82842712474619,17.82842712474619 L15,25 L12.17157287525381,17.82842712474619 L5,15.000000000000002 L12.171572875253808,12.17157287525381 Z" fill="#1e3c72" fill-opacity="0.6" stroke="#1e3c72" stroke-width="6.5" stroke-opacity="1"/><path d="M185,175 L187.82842712474618,182.17157287525382 L195,185 L187.82842712474618,187.82842712474618 L185,195 L182.17157287525382,187.82842712474618 L175,185 L182.17157287525382,182.17157287525382 Z" fill="#1e3c72" fill-opacity="0.6" stroke="#1e3c72" stroke-width="6.5" stroke-opacity="1"/><path d="M185,7 L187.26274169979695,12.737258300203049 L193,15 L187.26274169979695,17.26274169979695 L185,23 L182.73725830020305,17.26274169979695 L177,15.000000000000002 L182.73725830020305,12.737258300203049 Z" fill="#2a5298" fill-opacity="0.6" stroke="#2a5298" stroke-width="5.2" stroke-opacity="1"/><path d="M15,177 L17.26274169979695,182.73725830020305 L23,185 L17.26274169979695,187.26274169979695 L15,193 L12.737258300203049,187.26274169979695 L7,185 L12.737258300203047,182.73725830020305 Z" fill="#2a5298" fill-opacity="0.6" stroke="#2a5298" stroke-width="5.2" stroke-opacity="1"/><rect x="5" y="5" width="190" height="190" fill="none" stroke="#1e3c72" stroke-width="8" stroke-opacity="1"/></svg>