<svg xmlns="http://www.w3.org/2000/svg" width="200" height="200" viewBox="0 0 200 200"><defs></defs><rect width="200" height="200" fill="#ffffff"/><g class="pattern"><g class="symmetry-vertical"><path d="M40,185 L40,100 A60,60 0 0,1 160,100 L160,185" fill="none" stroke="#dc143c" stroke-width="12"/><rect x="30" y="80" width="20" height="105" fill="#ffd700" fill-opacity="0.8" stroke="#d7af00" stroke-width="4"/><rect x="150" y="80" width="20" height="105" fill="#ffd700" fill-opacity="0.8" stroke="#d7af00" stroke-width="4"/><rect x="25" y="70" width="150" height="15" fill="#228b22" fill-opacity="0.8" stroke="#006300" stroke-width="4"/><path d="M60,185 L60,110 A40,40 0 0,1 140,110 L140,185" fill="none" stroke="#228b22" stroke-width="8"/><g transform="translate(0, 200) scale(1, -1)"><path d="M40,185 L40,100 A60,60 0 0,1 160,100 L160,185" fill="none" stroke="#dc143c" stroke-width="12"/><rect x="30" y="80" width="20" height="105" fill="#ffd700" fill-opacity="0.8" stroke="#d7af00" stroke-width="4"/><rect x="150" y="80" width="20" height="105" fill="#ffd700" fill-opacity="0.8" stroke="#d7af00" stroke-width="4"/><rect x="25" y="70" width="150" height="15" fill="#228b22" fill-opacity="0.8" stroke="#006300" stroke-width="4"/><path d="M60,185 L60,110 A40,40 0 0,1 140,110 L140,185" fill="none" stroke="#228b22" stroke-width="8"/></g></g></g><polygon points="15,3 27,15 15,27 3,15" fill="#dc143c" fill-opacity="0.4" stroke="#dc143c" stroke-width="2"/><polygon points="185,173 197,185 185,197 173,185" fill="#dc143c" fill-opacity="0.4" stroke="#dc143c" stroke-width="2"/><polygon points="185,5 195,15 185,25 175,15" fill="#ffd700" fill-opacity="0.3" stroke="#ffd700" stroke-width="1.6"/><polygon points="15,175 25,185 15,195 5,185" fill="#ffd700" fill-opacity="0.3" stroke="#ffd700" stroke-width="1.6"/><rect x="5" y="5" width="190" height="190" fill="none" stroke="#713b1e" stroke-width="8" stroke-opacity="1"/></svg>