<svg xmlns="http://www.w3.org/2000/svg" width="200" height="200" viewBox="0 0 200 200"><defs></defs><rect width="200" height="200" fill="#ffffff"/><g class="pattern"><g class="symmetry-radial"><polygon points="100,89.85714285714286 110.14285714285714,100 100,110.14285714285714 89.85714285714286,100" fill="#2a5298" fill-opacity="0.8" stroke="#0c347a" stroke-width="2"/><polygon points="124.28571428571428,89.85714285714286 134.42857142857142,100 124.28571428571428,110.14285714285714 114.14285714285714,100" fill="#3b82f6" fill-opacity="0.8" stroke="#1d64d8" stroke-width="2"/><polygon points="148.57142857142856,89.85714285714286 158.7142857142857,100 148.57142857142856,110.14285714285714 138.42857142857142,100" fill="#60a5fa" fill-opacity="0.8" stroke="#4287dc" stroke-width="2"/><polygon points="172.85714285714286,89.85714285714286 183,100 172.85714285714286,110.14285714285714 162.71428571428572,100" fill="#93c5fd" fill-opacity="0.8" stroke="#75a7df" stroke-width="2"/><polygon points="124.28571428571428,114.14285714285714 134.42857142857142,124.28571428571428 124.28571428571428,134.42857142857142 114.14285714285714,124.28571428571428" fill="#60a5fa" fill-opacity="0.8" stroke="#4287dc" stroke-width="2"/><polygon points="148.57142857142856,114.14285714285714 158.7142857142857,124.28571428571428 148.57142857142856,134.42857142857142 138.42857142857142,124.28571428571428" fill="#93c5fd" fill-opacity="0.8" stroke="#75a7df" stroke-width="2"/><polygon points="172.85714285714286,114.14285714285714 183,124.28571428571428 172.85714285714286,134.42857142857142 162.71428571428572,124.28571428571428" fill="#1e3c72" fill-opacity="0.8" stroke="#001e54" stroke-width="2"/><polygon points="148.57142857142856,138.42857142857142 158.7142857142857,148.57142857142856 148.57142857142856,158.7142857142857 138.42857142857142,148.57142857142856" fill="#1e3c72" fill-opacity="0.8" stroke="#001e54" stroke-width="2"/><polygon points="172.85714285714286,138.42857142857142 183,148.57142857142856 172.85714285714286,158.7142857142857 162.71428571428572,148.57142857142856" fill="#2a5298" fill-opacity="0.8" stroke="#0c347a" stroke-width="2"/><polygon points="172.85714285714286,162.71428571428572 183,172.85714285714286 172.85714285714286,183 162.71428571428572,172.85714285714286" fill="#3b82f6" fill-opacity="0.8" stroke="#1d64d8" stroke-width="2"/><g transform="rotate(45, 100, 100)"><polygon points="100,89.85714285714286 110.14285714285714,100 100,110.14285714285714 89.85714285714286,100" fill="#2a5298" fill-opacity="0.8" stroke="#0c347a" stroke-width="2"/><polygon points="124.28571428571428,89.85714285714286 134.42857142857142,100 124.28571428571428,110.14285714285714 114.14285714285714,100" fill="#3b82f6" fill-opacity="0.8" stroke="#1d64d8" stroke-width="2"/><polygon points="148.57142857142856,89.85714285714286 158.7142857142857,100 148.57142857142856,110.14285714285714 138.42857142857142,100" fill="#60a5fa" fill-opacity="0.8" stroke="#4287dc" stroke-width="2"/><polygon points="172.85714285714286,89.85714285714286 183,100 172.85714285714286,110.14285714285714 162.71428571428572,100" fill="#93c5fd" fill-opacity="0.8" stroke="#75a7df" stroke-width="2"/><polygon points="124.28571428571428,114.14285714285714 134.42857142857142,124.28571428571428 124.28571428571428,134.42857142857142 114.14285714285714,124.28571428571428" fill="#60a5fa" fill-opacity="0.8" stroke="#4287dc" stroke-width="2"/><polygon points="148.57142857142856,114.14285714285714 158.7142857142857,124.28571428571428 148.57142857142856,134.42857142857142 138.42857142857142,124.28571428571428" fill="#93c5fd" fill-opacity="0.8" stroke="#75a7df" stroke-width="2"/><polygon points="172.85714285714286,114.14285714285714 183,124.28571428571428 172.85714285714286,134.42857142857142 162.71428571428572,124.28571428571428" fill="#1e3c72" fill-opacity="0.8" stroke="#001e54" stroke-width="2"/><polygon points="148.57142857142856,138.42857142857142 158.7142857142857,148.57142857142856 148.57142857142856,158.7142857142857 138.42857142857142,148.57142857142856" fill="#1e3c72" fill-opacity="0.8" stroke="#001e54" stroke-width="2"/><polygon points="172.85714285714286,138.42857142857142 183,148.57142857142856 172.85714285714286,158.7142857142857 162.71428571428572,148.57142857142856" fill="#2a5298" fill-opacity="0.8" stroke="#0c347a" stroke-width="2"/><polygon points="172.85714285714286,162.71428571428572 183,172.85714285714286 172.85714285714286,183 162.71428571428572,172.85714285714286" fill="#3b82f6" fill-opacity="0.8" stroke="#1d64d8" stroke-width="2"/></g><g transform="rotate(90, 100, 100)"><polygon points="100,89.85714285714286 110.14285714285714,100 100,110.14285714285714 89.85714285714286,100" fill="#2a5298" fill-opacity="0.8" stroke="#0c347a" stroke-width="2"/><polygon points="124.28571428571428,89.85714285714286 134.42857142857142,100 124.28571428571428,110.14285714285714 114.14285714285714,100" fill="#3b82f6" fill-opacity="0.8" stroke="#1d64d8" stroke-width="2"/><polygon points="148.57142857142856,89.85714285714286 158.7142857142857,100 148.57142857142856,110.14285714285714 138.42857142857142,100" fill="#60a5fa" fill-opacity="0.8" stroke="#4287dc" stroke-width="2"/><polygon points="172.85714285714286,89.85714285714286 183,100 172.85714285714286,110.14285714285714 162.71428571428572,100" fill="#93c5fd" fill-opacity="0.8" stroke="#75a7df" stroke-width="2"/><polygon points="124.28571428571428,114.14285714285714 134.42857142857142,124.28571428571428 124.28571428571428,134.42857142857142 114.14285714285714,124.28571428571428" fill="#60a5fa" fill-opacity="0.8" stroke="#4287dc" stroke-width="2"/><polygon points="148.57142857142856,114.14285714285714 158.7142857142857,124.28571428571428 148.57142857142856,134.42857142857142 138.42857142857142,124.28571428571428" fill="#93c5fd" fill-opacity="0.8" stroke="#75a7df" stroke-width="2"/><polygon points="172.85714285714286,114.14285714285714 183,124.28571428571428 172.85714285714286,134.42857142857142 162.71428571428572,124.28571428571428" fill="#1e3c72" fill-opacity="0.8" stroke="#001e54" stroke-width="2"/><polygon points="148.57142857142856,138.42857142857142 158.7142857142857,148.57142857142856 148.57142857142856,158.7142857142857 138.42857142857142,148.57142857142856" fill="#1e3c72" fill-opacity="0.8" stroke="#001e54" stroke-width="2"/><polygon points="172.85714285714286,138.42857142857142 183,148.57142857142856 172.85714285714286,158.7142857142857 162.71428571428572,148.57142857142856" fill="#2a5298" fill-opacity="0.8" stroke="#0c347a" stroke-width="2"/><polygon points="172.85714285714286,162.71428571428572 183,172.85714285714286 172.85714285714286,183 162.71428571428572,172.85714285714286" fill="#3b82f6" fill-opacity="0.8" stroke="#1d64d8" stroke-width="2"/></g><g transform="rotate(135, 100, 100)"><polygon points="100,89.85714285714286 110.14285714285714,100 100,110.14285714285714 89.85714285714286,100" fill="#2a5298" fill-opacity="0.8" stroke="#0c347a" stroke-width="2"/><polygon points="124.28571428571428,89.85714285714286 134.42857142857142,100 124.28571428571428,110.14285714285714 114.14285714285714,100" fill="#3b82f6" fill-opacity="0.8" stroke="#1d64d8" stroke-width="2"/><polygon points="148.57142857142856,89.85714285714286 158.7142857142857,100 148.57142857142856,110.14285714285714 138.42857142857142,100" fill="#60a5fa" fill-opacity="0.8" stroke="#4287dc" stroke-width="2"/><polygon points="172.85714285714286,89.85714285714286 183,100 172.85714285714286,110.14285714285714 162.71428571428572,100" fill="#93c5fd" fill-opacity="0.8" stroke="#75a7df" stroke-width="2"/><polygon points="124.28571428571428,114.14285714285714 134.42857142857142,124.28571428571428 124.28571428571428,134.42857142857142 114.14285714285714,124.28571428571428" fill="#60a5fa" fill-opacity="0.8" stroke="#4287dc" stroke-width="2"/><polygon points="148.57142857142856,114.14285714285714 158.7142857142857,124.28571428571428 148.57142857142856,134.42857142857142 138.42857142857142,124.28571428571428" fill="#93c5fd" fill-opacity="0.8" stroke="#75a7df" stroke-width="2"/><polygon points="172.85714285714286,114.14285714285714 183,124.28571428571428 172.85714285714286,134.42857142857142 162.71428571428572,124.28571428571428" fill="#1e3c72" fill-opacity="0.8" stroke="#001e54" stroke-width="2"/><polygon points="148.57142857142856,138.42857142857142 158.7142857142857,148.57142857142856 148.57142857142856,158.7142857142857 138.42857142857142,148.57142857142856" fill="#1e3c72" fill-opacity="0.8" stroke="#001e54" stroke-width="2"/><polygon points="172.85714285714286,138.42857142857142 183,148.57142857142856 172.85714285714286,158.7142857142857 162.71428571428572,148.57142857142856" fill="#2a5298" fill-opacity="0.8" stroke="#0c347a" stroke-width="2"/><polygon points="172.85714285714286,162.71428571428572 183,172.85714285714286 172.85714285714286,183 162.71428571428572,172.85714285714286" fill="#3b82f6" fill-opacity="0.8" stroke="#1d64d8" stroke-width="2"/></g><g transform="rotate(180, 100, 100)"><polygon points="100,89.85714285714286 110.14285714285714,100 100,110.14285714285714 89.85714285714286,100" fill="#2a5298" fill-opacity="0.8" stroke="#0c347a" stroke-width="2"/><polygon points="124.28571428571428,89.85714285714286 134.42857142857142,100 124.28571428571428,110.14285714285714 114.14285714285714,100" fill="#3b82f6" fill-opacity="0.8" stroke="#1d64d8" stroke-width="2"/><polygon points="148.57142857142856,89.85714285714286 158.7142857142857,100 148.57142857142856,110.14285714285714 138.42857142857142,100" fill="#60a5fa" fill-opacity="0.8" stroke="#4287dc" stroke-width="2"/><polygon points="172.85714285714286,89.85714285714286 183,100 172.85714285714286,110.14285714285714 162.71428571428572,100" fill="#93c5fd" fill-opacity="0.8" stroke="#75a7df" stroke-width="2"/><polygon points="124.28571428571428,114.14285714285714 134.42857142857142,124.28571428571428 124.28571428571428,134.42857142857142 114.14285714285714,124.28571428571428" fill="#60a5fa" fill-opacity="0.8" stroke="#4287dc" stroke-width="2"/><polygon points="148.57142857142856,114.14285714285714 158.7142857142857,124.28571428571428 148.57142857142856,134.42857142857142 138.42857142857142,124.28571428571428" fill="#93c5fd" fill-opacity="0.8" stroke="#75a7df" stroke-width="2"/><polygon points="172.85714285714286,114.14285714285714 183,124.28571428571428 172.85714285714286,134.42857142857142 162.71428571428572,124.28571428571428" fill="#1e3c72" fill-opacity="0.8" stroke="#001e54" stroke-width="2"/><polygon points="148.57142857142856,138.42857142857142 158.7142857142857,148.57142857142856 148.57142857142856,158.7142857142857 138.42857142857142,148.57142857142856" fill="#1e3c72" fill-opacity="0.8" stroke="#001e54" stroke-width="2"/><polygon points="172.85714285714286,138.42857142857142 183,148.57142857142856 172.85714285714286,158.7142857142857 162.71428571428572,148.57142857142856" fill="#2a5298" fill-opacity="0.8" stroke="#0c347a" stroke-width="2"/><polygon points="172.85714285714286,162.71428571428572 183,172.85714285714286 172.85714285714286,183 162.71428571428572,172.85714285714286" fill="#3b82f6" fill-opacity="0.8" stroke="#1d64d8" stroke-width="2"/></g><g transform="rotate(225, 100, 100)"><polygon points="100,89.85714285714286 110.14285714285714,100 100,110.14285714285714 89.85714285714286,100" fill="#2a5298" fill-opacity="0.8" stroke="#0c347a" stroke-width="2"/><polygon points="124.28571428571428,89.85714285714286 134.42857142857142,100 124.28571428571428,110.14285714285714 114.14285714285714,100" fill="#3b82f6" fill-opacity="0.8" stroke="#1d64d8" stroke-width="2"/><polygon points="148.57142857142856,89.85714285714286 158.7142857142857,100 148.57142857142856,110.14285714285714 138.42857142857142,100" fill="#60a5fa" fill-opacity="0.8" stroke="#4287dc" stroke-width="2"/><polygon points="172.85714285714286,89.85714285714286 183,100 172.85714285714286,110.14285714285714 162.71428571428572,100" fill="#93c5fd" fill-opacity="0.8" stroke="#75a7df" stroke-width="2"/><polygon points="124.28571428571428,114.14285714285714 134.42857142857142,124.28571428571428 124.28571428571428,134.42857142857142 114.14285714285714,124.28571428571428" fill="#60a5fa" fill-opacity="0.8" stroke="#4287dc" stroke-width="2"/><polygon points="148.57142857142856,114.14285714285714 158.7142857142857,124.28571428571428 148.57142857142856,134.42857142857142 138.42857142857142,124.28571428571428" fill="#93c5fd" fill-opacity="0.8" stroke="#75a7df" stroke-width="2"/><polygon points="172.85714285714286,114.14285714285714 183,124.28571428571428 172.85714285714286,134.42857142857142 162.71428571428572,124.28571428571428" fill="#1e3c72" fill-opacity="0.8" stroke="#001e54" stroke-width="2"/><polygon points="148.57142857142856,138.42857142857142 158.7142857142857,148.57142857142856 148.57142857142856,158.7142857142857 138.42857142857142,148.57142857142856" fill="#1e3c72" fill-opacity="0.8" stroke="#001e54" stroke-width="2"/><polygon points="172.85714285714286,138.42857142857142 183,148.57142857142856 172.85714285714286,158.7142857142857 162.71428571428572,148.57142857142856" fill="#2a5298" fill-opacity="0.8" stroke="#0c347a" stroke-width="2"/><polygon points="172.85714285714286,162.71428571428572 183,172.85714285714286 172.85714285714286,183 162.71428571428572,172.85714285714286" fill="#3b82f6" fill-opacity="0.8" stroke="#1d64d8" stroke-width="2"/></g><g transform="rotate(270, 100, 100)"><polygon points="100,89.85714285714286 110.14285714285714,100 100,110.14285714285714 89.85714285714286,100" fill="#2a5298" fill-opacity="0.8" stroke="#0c347a" stroke-width="2"/><polygon points="124.28571428571428,89.85714285714286 134.42857142857142,100 124.28571428571428,110.14285714285714 114.14285714285714,100" fill="#3b82f6" fill-opacity="0.8" stroke="#1d64d8" stroke-width="2"/><polygon points="148.57142857142856,89.85714285714286 158.7142857142857,100 148.57142857142856,110.14285714285714 138.42857142857142,100" fill="#60a5fa" fill-opacity="0.8" stroke="#4287dc" stroke-width="2"/><polygon points="172.85714285714286,89.85714285714286 183,100 172.85714285714286,110.14285714285714 162.71428571428572,100" fill="#93c5fd" fill-opacity="0.8" stroke="#75a7df" stroke-width="2"/><polygon points="124.28571428571428,114.14285714285714 134.42857142857142,124.28571428571428 124.28571428571428,134.42857142857142 114.14285714285714,124.28571428571428" fill="#60a5fa" fill-opacity="0.8" stroke="#4287dc" stroke-width="2"/><polygon points="148.57142857142856,114.14285714285714 158.7142857142857,124.28571428571428 148.57142857142856,134.42857142857142 138.42857142857142,124.28571428571428" fill="#93c5fd" fill-opacity="0.8" stroke="#75a7df" stroke-width="2"/><polygon points="172.85714285714286,114.14285714285714 183,124.28571428571428 172.85714285714286,134.42857142857142 162.71428571428572,124.28571428571428" fill="#1e3c72" fill-opacity="0.8" stroke="#001e54" stroke-width="2"/><polygon points="148.57142857142856,138.42857142857142 158.7142857142857,148.57142857142856 148.57142857142856,158.7142857142857 138.42857142857142,148.57142857142856" fill="#1e3c72" fill-opacity="0.8" stroke="#001e54" stroke-width="2"/><polygon points="172.85714285714286,138.42857142857142 183,148.57142857142856 172.85714285714286,158.7142857142857 162.71428571428572,148.57142857142856" fill="#2a5298" fill-opacity="0.8" stroke="#0c347a" stroke-width="2"/><polygon points="172.85714285714286,162.71428571428572 183,172.85714285714286 172.85714285714286,183 162.71428571428572,172.85714285714286" fill="#3b82f6" fill-opacity="0.8" stroke="#1d64d8" stroke-width="2"/></g><g transform="rotate(315, 100, 100)"><polygon points="100,89.85714285714286 110.14285714285714,100 100,110.14285714285714 89.85714285714286,100" fill="#2a5298" fill-opacity="0.8" stroke="#0c347a" stroke-width="2"/><polygon points="124.28571428571428,89.85714285714286 134.42857142857142,100 124.28571428571428,110.14285714285714 114.14285714285714,100" fill="#3b82f6" fill-opacity="0.8" stroke="#1d64d8" stroke-width="2"/><polygon points="148.57142857142856,89.85714285714286 158.7142857142857,100 148.57142857142856,110.14285714285714 138.42857142857142,100" fill="#60a5fa" fill-opacity="0.8" stroke="#4287dc" stroke-width="2"/><polygon points="172.85714285714286,89.85714285714286 183,100 172.85714285714286,110.14285714285714 162.71428571428572,100" fill="#93c5fd" fill-opacity="0.8" stroke="#75a7df" stroke-width="2"/><polygon points="124.28571428571428,114.14285714285714 134.42857142857142,124.28571428571428 124.28571428571428,134.42857142857142 114.14285714285714,124.28571428571428" fill="#60a5fa" fill-opacity="0.8" stroke="#4287dc" stroke-width="2"/><polygon points="148.57142857142856,114.14285714285714 158.7142857142857,124.28571428571428 148.57142857142856,134.42857142857142 138.42857142857142,124.28571428571428" fill="#93c5fd" fill-opacity="0.8" stroke="#75a7df" stroke-width="2"/><polygon points="172.85714285714286,114.14285714285714 183,124.28571428571428 172.85714285714286,134.42857142857142 162.71428571428572,124.28571428571428" fill="#1e3c72" fill-opacity="0.8" stroke="#001e54" stroke-width="2"/><polygon points="148.57142857142856,138.42857142857142 158.7142857142857,148.57142857142856 148.57142857142856,158.7142857142857 138.42857142857142,148.57142857142856" fill="#1e3c72" fill-opacity="0.8" stroke="#001e54" stroke-width="2"/><polygon points="172.85714285714286,138.42857142857142 183,148.57142857142856 172.85714285714286,158.7142857142857 162.71428571428572,148.57142857142856" fill="#2a5298" fill-opacity="0.8" stroke="#0c347a" stroke-width="2"/><polygon points="172.85714285714286,162.71428571428572 183,172.85714285714286 172.85714285714286,183 162.71428571428572,172.85714285714286" fill="#3b82f6" fill-opacity="0.8" stroke="#1d64d8" stroke-width="2"/></g></g></g><polygon points="15,3 27,15 15,27 3,15" fill="#1e3c72" fill-opacity="0.4" stroke="#1e3c72" stroke-width="2"/><polygon points="185,173 197,185 185,197 173,185" fill="#1e3c72" fill-opacity="0.4" stroke="#1e3c72" stroke-width="2"/><polygon points="185,5 195,15 185,25 175,15" fill="#2a5298" fill-opacity="0.3" stroke="#2a5298" stroke-width="1.6"/><polygon points="15,175 25,185 15,195 5,185" fill="#2a5298" fill-opacity="0.3" stroke="#2a5298" stroke-width="1.6"/><rect x="5" y="5" width="190" height="190" fill="none" stroke="#1e3c72" stroke-width="8" stroke-opacity="1"/></svg>