<svg xmlns="http://www.w3.org/2000/svg" width="200" height="200" viewBox="0 0 200 200"><defs></defs><rect width="200" height="200" fill="#ffffff"/><g class="pattern"><g class="symmetry-radial"><rect x="113.14285714285714" y="88.85714285714286" width="22.285714285714285" height="22.285714285714285" fill="#ffd700" fill-opacity="0.8" stroke="#e1b900" stroke-width="2"/><rect x="137.42857142857142" y="88.85714285714286" width="22.285714285714285" height="22.285714285714285" fill="#b8860b" fill-opacity="0.8" stroke="#9a6800" stroke-width="2"/><rect x="161.71428571428572" y="88.85714285714286" width="22.285714285714285" height="22.285714285714285" fill="#fff8dc" fill-opacity="0.8" stroke="#e1dabe" stroke-width="2"/><rect x="113.14285714285714" y="113.14285714285714" width="22.285714285714285" height="22.285714285714285" fill="#b8860b" fill-opacity="0.8" stroke="#9a6800" stroke-width="2"/><rect x="137.42857142857142" y="113.14285714285714" width="22.285714285714285" height="22.285714285714285" fill="#fff8dc" fill-opacity="0.8" stroke="#e1dabe" stroke-width="2"/><rect x="161.71428571428572" y="113.14285714285714" width="22.285714285714285" height="22.285714285714285" fill="#1e3c72" fill-opacity="0.8" stroke="#001e54" stroke-width="2"/><rect x="137.42857142857142" y="137.42857142857142" width="22.285714285714285" height="22.285714285714285" fill="#1e3c72" fill-opacity="0.8" stroke="#001e54" stroke-width="2"/><rect x="161.71428571428572" y="161.71428571428572" width="22.285714285714285" height="22.285714285714285" fill="#ffd700" fill-opacity="0.8" stroke="#e1b900" stroke-width="2"/><g transform="rotate(45, 100, 100)"><rect x="113.14285714285714" y="88.85714285714286" width="22.285714285714285" height="22.285714285714285" fill="#ffd700" fill-opacity="0.8" stroke="#e1b900" stroke-width="2"/><rect x="137.42857142857142" y="88.85714285714286" width="22.285714285714285" height="22.285714285714285" fill="#b8860b" fill-opacity="0.8" stroke="#9a6800" stroke-width="2"/><rect x="161.71428571428572" y="88.85714285714286" width="22.285714285714285" height="22.285714285714285" fill="#fff8dc" fill-opacity="0.8" stroke="#e1dabe" stroke-width="2"/><rect x="113.14285714285714" y="113.14285714285714" width="22.285714285714285" height="22.285714285714285" fill="#b8860b" fill-opacity="0.8" stroke="#9a6800" stroke-width="2"/><rect x="137.42857142857142" y="113.14285714285714" width="22.285714285714285" height="22.285714285714285" fill="#fff8dc" fill-opacity="0.8" stroke="#e1dabe" stroke-width="2"/><rect x="161.71428571428572" y="113.14285714285714" width="22.285714285714285" height="22.285714285714285" fill="#1e3c72" fill-opacity="0.8" stroke="#001e54" stroke-width="2"/><rect x="137.42857142857142" y="137.42857142857142" width="22.285714285714285" height="22.285714285714285" fill="#1e3c72" fill-opacity="0.8" stroke="#001e54" stroke-width="2"/><rect x="161.71428571428572" y="161.71428571428572" width="22.285714285714285" height="22.285714285714285" fill="#ffd700" fill-opacity="0.8" stroke="#e1b900" stroke-width="2"/></g><g transform="rotate(90, 100, 100)"><rect x="113.14285714285714" y="88.85714285714286" width="22.285714285714285" height="22.285714285714285" fill="#ffd700" fill-opacity="0.8" stroke="#e1b900" stroke-width="2"/><rect x="137.42857142857142" y="88.85714285714286" width="22.285714285714285" height="22.285714285714285" fill="#b8860b" fill-opacity="0.8" stroke="#9a6800" stroke-width="2"/><rect x="161.71428571428572" y="88.85714285714286" width="22.285714285714285" height="22.285714285714285" fill="#fff8dc" fill-opacity="0.8" stroke="#e1dabe" stroke-width="2"/><rect x="113.14285714285714" y="113.14285714285714" width="22.285714285714285" height="22.285714285714285" fill="#b8860b" fill-opacity="0.8" stroke="#9a6800" stroke-width="2"/><rect x="137.42857142857142" y="113.14285714285714" width="22.285714285714285" height="22.285714285714285" fill="#fff8dc" fill-opacity="0.8" stroke="#e1dabe" stroke-width="2"/><rect x="161.71428571428572" y="113.14285714285714" width="22.285714285714285" height="22.285714285714285" fill="#1e3c72" fill-opacity="0.8" stroke="#001e54" stroke-width="2"/><rect x="137.42857142857142" y="137.42857142857142" width="22.285714285714285" height="22.285714285714285" fill="#1e3c72" fill-opacity="0.8" stroke="#001e54" stroke-width="2"/><rect x="161.71428571428572" y="161.71428571428572" width="22.285714285714285" height="22.285714285714285" fill="#ffd700" fill-opacity="0.8" stroke="#e1b900" stroke-width="2"/></g><g transform="rotate(135, 100, 100)"><rect x="113.14285714285714" y="88.85714285714286" width="22.285714285714285" height="22.285714285714285" fill="#ffd700" fill-opacity="0.8" stroke="#e1b900" stroke-width="2"/><rect x="137.42857142857142" y="88.85714285714286" width="22.285714285714285" height="22.285714285714285" fill="#b8860b" fill-opacity="0.8" stroke="#9a6800" stroke-width="2"/><rect x="161.71428571428572" y="88.85714285714286" width="22.285714285714285" height="22.285714285714285" fill="#fff8dc" fill-opacity="0.8" stroke="#e1dabe" stroke-width="2"/><rect x="113.14285714285714" y="113.14285714285714" width="22.285714285714285" height="22.285714285714285" fill="#b8860b" fill-opacity="0.8" stroke="#9a6800" stroke-width="2"/><rect x="137.42857142857142" y="113.14285714285714" width="22.285714285714285" height="22.285714285714285" fill="#fff8dc" fill-opacity="0.8" stroke="#e1dabe" stroke-width="2"/><rect x="161.71428571428572" y="113.14285714285714" width="22.285714285714285" height="22.285714285714285" fill="#1e3c72" fill-opacity="0.8" stroke="#001e54" stroke-width="2"/><rect x="137.42857142857142" y="137.42857142857142" width="22.285714285714285" height="22.285714285714285" fill="#1e3c72" fill-opacity="0.8" stroke="#001e54" stroke-width="2"/><rect x="161.71428571428572" y="161.71428571428572" width="22.285714285714285" height="22.285714285714285" fill="#ffd700" fill-opacity="0.8" stroke="#e1b900" stroke-width="2"/></g><g transform="rotate(180, 100, 100)"><rect x="113.14285714285714" y="88.85714285714286" width="22.285714285714285" height="22.285714285714285" fill="#ffd700" fill-opacity="0.8" stroke="#e1b900" stroke-width="2"/><rect x="137.42857142857142" y="88.85714285714286" width="22.285714285714285" height="22.285714285714285" fill="#b8860b" fill-opacity="0.8" stroke="#9a6800" stroke-width="2"/><rect x="161.71428571428572" y="88.85714285714286" width="22.285714285714285" height="22.285714285714285" fill="#fff8dc" fill-opacity="0.8" stroke="#e1dabe" stroke-width="2"/><rect x="113.14285714285714" y="113.14285714285714" width="22.285714285714285" height="22.285714285714285" fill="#b8860b" fill-opacity="0.8" stroke="#9a6800" stroke-width="2"/><rect x="137.42857142857142" y="113.14285714285714" width="22.285714285714285" height="22.285714285714285" fill="#fff8dc" fill-opacity="0.8" stroke="#e1dabe" stroke-width="2"/><rect x="161.71428571428572" y="113.14285714285714" width="22.285714285714285" height="22.285714285714285" fill="#1e3c72" fill-opacity="0.8" stroke="#001e54" stroke-width="2"/><rect x="137.42857142857142" y="137.42857142857142" width="22.285714285714285" height="22.285714285714285" fill="#1e3c72" fill-opacity="0.8" stroke="#001e54" stroke-width="2"/><rect x="161.71428571428572" y="161.71428571428572" width="22.285714285714285" height="22.285714285714285" fill="#ffd700" fill-opacity="0.8" stroke="#e1b900" stroke-width="2"/></g><g transform="rotate(225, 100, 100)"><rect x="113.14285714285714" y="88.85714285714286" width="22.285714285714285" height="22.285714285714285" fill="#ffd700" fill-opacity="0.8" stroke="#e1b900" stroke-width="2"/><rect x="137.42857142857142" y="88.85714285714286" width="22.285714285714285" height="22.285714285714285" fill="#b8860b" fill-opacity="0.8" stroke="#9a6800" stroke-width="2"/><rect x="161.71428571428572" y="88.85714285714286" width="22.285714285714285" height="22.285714285714285" fill="#fff8dc" fill-opacity="0.8" stroke="#e1dabe" stroke-width="2"/><rect x="113.14285714285714" y="113.14285714285714" width="22.285714285714285" height="22.285714285714285" fill="#b8860b" fill-opacity="0.8" stroke="#9a6800" stroke-width="2"/><rect x="137.42857142857142" y="113.14285714285714" width="22.285714285714285" height="22.285714285714285" fill="#fff8dc" fill-opacity="0.8" stroke="#e1dabe" stroke-width="2"/><rect x="161.71428571428572" y="113.14285714285714" width="22.285714285714285" height="22.285714285714285" fill="#1e3c72" fill-opacity="0.8" stroke="#001e54" stroke-width="2"/><rect x="137.42857142857142" y="137.42857142857142" width="22.285714285714285" height="22.285714285714285" fill="#1e3c72" fill-opacity="0.8" stroke="#001e54" stroke-width="2"/><rect x="161.71428571428572" y="161.71428571428572" width="22.285714285714285" height="22.285714285714285" fill="#ffd700" fill-opacity="0.8" stroke="#e1b900" stroke-width="2"/></g><g transform="rotate(270, 100, 100)"><rect x="113.14285714285714" y="88.85714285714286" width="22.285714285714285" height="22.285714285714285" fill="#ffd700" fill-opacity="0.8" stroke="#e1b900" stroke-width="2"/><rect x="137.42857142857142" y="88.85714285714286" width="22.285714285714285" height="22.285714285714285" fill="#b8860b" fill-opacity="0.8" stroke="#9a6800" stroke-width="2"/><rect x="161.71428571428572" y="88.85714285714286" width="22.285714285714285" height="22.285714285714285" fill="#fff8dc" fill-opacity="0.8" stroke="#e1dabe" stroke-width="2"/><rect x="113.14285714285714" y="113.14285714285714" width="22.285714285714285" height="22.285714285714285" fill="#b8860b" fill-opacity="0.8" stroke="#9a6800" stroke-width="2"/><rect x="137.42857142857142" y="113.14285714285714" width="22.285714285714285" height="22.285714285714285" fill="#fff8dc" fill-opacity="0.8" stroke="#e1dabe" stroke-width="2"/><rect x="161.71428571428572" y="113.14285714285714" width="22.285714285714285" height="22.285714285714285" fill="#1e3c72" fill-opacity="0.8" stroke="#001e54" stroke-width="2"/><rect x="137.42857142857142" y="137.42857142857142" width="22.285714285714285" height="22.285714285714285" fill="#1e3c72" fill-opacity="0.8" stroke="#001e54" stroke-width="2"/><rect x="161.71428571428572" y="161.71428571428572" width="22.285714285714285" height="22.285714285714285" fill="#ffd700" fill-opacity="0.8" stroke="#e1b900" stroke-width="2"/></g><g transform="rotate(315, 100, 100)"><rect x="113.14285714285714" y="88.85714285714286" width="22.285714285714285" height="22.285714285714285" fill="#ffd700" fill-opacity="0.8" stroke="#e1b900" stroke-width="2"/><rect x="137.42857142857142" y="88.85714285714286" width="22.285714285714285" height="22.285714285714285" fill="#b8860b" fill-opacity="0.8" stroke="#9a6800" stroke-width="2"/><rect x="161.71428571428572" y="88.85714285714286" width="22.285714285714285" height="22.285714285714285" fill="#fff8dc" fill-opacity="0.8" stroke="#e1dabe" stroke-width="2"/><rect x="113.14285714285714" y="113.14285714285714" width="22.285714285714285" height="22.285714285714285" fill="#b8860b" fill-opacity="0.8" stroke="#9a6800" stroke-width="2"/><rect x="137.42857142857142" y="113.14285714285714" width="22.285714285714285" height="22.285714285714285" fill="#fff8dc" fill-opacity="0.8" stroke="#e1dabe" stroke-width="2"/><rect x="161.71428571428572" y="113.14285714285714" width="22.285714285714285" height="22.285714285714285" fill="#1e3c72" fill-opacity="0.8" stroke="#001e54" stroke-width="2"/><rect x="137.42857142857142" y="137.42857142857142" width="22.285714285714285" height="22.285714285714285" fill="#1e3c72" fill-opacity="0.8" stroke="#001e54" stroke-width="2"/><rect x="161.71428571428572" y="161.71428571428572" width="22.285714285714285" height="22.285714285714285" fill="#ffd700" fill-opacity="0.8" stroke="#e1b900" stroke-width="2"/></g></g></g><path d="M100,100 L132,100 A32,32 0 0,1 129.56414504036118,112.24586983568287 Z" fill="#fff8dc" fill-opacity="0.8" stroke="#e1dabe" stroke-width="2"/><path d="M100,100 L129.56414504036118,112.24586983568287 A32,32 0 0,1 122.62741699796952,122.62741699796952 Z" fill="#fff8dc" fill-opacity="0.8" stroke="#e1dabe" stroke-width="2"/><path d="M100,100 L122.62741699796952,122.62741699796952 A32,32 0 0,1 112.24586983568287,129.56414504036118 Z" fill="#fff8dc" fill-opacity="0.8" stroke="#e1dabe" stroke-width="2"/><path d="M100,100 L112.24586983568287,129.56414504036118 A32,32 0 0,1 100,132 Z" fill="#fff8dc" fill-opacity="0.8" stroke="#e1dabe" stroke-width="2"/><path d="M100,100 L100,132 A32,32 0 0,1 87.75413016431713,129.56414504036118 Z" fill="#fff8dc" fill-opacity="0.8" stroke="#e1dabe" stroke-width="2"/><path d="M100,100 L87.75413016431713,129.56414504036118 A32,32 0 0,1 77.37258300203048,122.62741699796952 Z" fill="#fff8dc" fill-opacity="0.8" stroke="#e1dabe" stroke-width="2"/><path d="M100,100 L77.37258300203048,122.62741699796952 A32,32 0 0,1 70.43585495963882,112.24586983568288 Z" fill="#fff8dc" fill-opacity="0.8" stroke="#e1dabe" stroke-width="2"/><path d="M100,100 L70.43585495963882,112.24586983568288 A32,32 0 0,1 68,100 Z" fill="#fff8dc" fill-opacity="0.8" stroke="#e1dabe" stroke-width="2"/><path d="M100,100 L68,100 A32,32 0 0,1 70.43585495963882,87.75413016431713 Z" fill="#fff8dc" fill-opacity="0.8" stroke="#e1dabe" stroke-width="2"/><path d="M100,100 L70.43585495963882,87.75413016431713 A32,32 0 0,1 77.37258300203047,77.37258300203048 Z" fill="#fff8dc" fill-opacity="0.8" stroke="#e1dabe" stroke-width="2"/><path d="M100,100 L77.37258300203047,77.37258300203048 A32,32 0 0,1 87.7541301643171,70.43585495963883 Z" fill="#fff8dc" fill-opacity="0.8" stroke="#e1dabe" stroke-width="2"/><path d="M100,100 L87.7541301643171,70.43585495963883 A32,32 0 0,1 100,68 Z" fill="#fff8dc" fill-opacity="0.8" stroke="#e1dabe" stroke-width="2"/><path d="M100,100 L100,68 A32,32 0 0,1 112.24586983568288,70.43585495963883 Z" fill="#fff8dc" fill-opacity="0.8" stroke="#e1dabe" stroke-width="2"/><path d="M100,100 L112.24586983568288,70.43585495963883 A32,32 0 0,1 122.62741699796952,77.37258300203047 Z" fill="#fff8dc" fill-opacity="0.8" stroke="#e1dabe" stroke-width="2"/><path d="M100,100 L122.62741699796952,77.37258300203047 A32,32 0 0,1 129.56414504036115,87.7541301643171 Z" fill="#fff8dc" fill-opacity="0.8" stroke="#e1dabe" stroke-width="2"/><path d="M100,100 L129.56414504036115,87.7541301643171 A32,32 0 0,1 132,99.99999999999999 Z" fill="#fff8dc" fill-opacity="0.8" stroke="#e1dabe" stroke-width="2"/><path d="M100,100 L124,100 A24,24 0 0,1 121.62325282965806,110.4132097388214 Z" fill="#b8860b" fill-opacity="0.8" stroke="#9a6800" stroke-width="2"/><path d="M100,100 L121.62325282965806,110.4132097388214 A24,24 0 0,1 114.9637552446096,118.76395557923271 Z" fill="#b8860b" fill-opacity="0.8" stroke="#9a6800" stroke-width="2"/><path d="M100,100 L114.9637552446096,118.76395557923271 A24,24 0 0,1 105.34050241495154,123.39826989236377 Z" fill="#b8860b" fill-opacity="0.8" stroke="#9a6800" stroke-width="2"/><path d="M100,100 L105.34050241495154,123.39826989236377 A24,24 0 0,1 94.65949758504846,123.39826989236377 Z" fill="#b8860b" fill-opacity="0.8" stroke="#9a6800" stroke-width="2"/><path d="M100,100 L94.65949758504846,123.39826989236377 A24,24 0 0,1 85.0362447553904,118.76395557923271 Z" fill="#b8860b" fill-opacity="0.8" stroke="#9a6800" stroke-width="2"/><path d="M100,100 L85.0362447553904,118.76395557923271 A24,24 0 0,1 78.37674717034194,110.4132097388214 Z" fill="#b8860b" fill-opacity="0.8" stroke="#9a6800" stroke-width="2"/><path d="M100,100 L78.37674717034194,110.4132097388214 A24,24 0 0,1 76,100 Z" fill="#b8860b" fill-opacity="0.8" stroke="#9a6800" stroke-width="2"/><path d="M100,100 L76,100 A24,24 0 0,1 78.37674717034194,89.5867902611786 Z" fill="#b8860b" fill-opacity="0.8" stroke="#9a6800" stroke-width="2"/><path d="M100,100 L78.37674717034194,89.5867902611786 A24,24 0 0,1 85.03624475539038,81.23604442076729 Z" fill="#b8860b" fill-opacity="0.8" stroke="#9a6800" stroke-width="2"/><path d="M100,100 L85.03624475539038,81.23604442076729 A24,24 0 0,1 94.65949758504846,76.60173010763623 Z" fill="#b8860b" fill-opacity="0.8" stroke="#9a6800" stroke-width="2"/><path d="M100,100 L94.65949758504846,76.60173010763623 A24,24 0 0,1 105.34050241495154,76.60173010763623 Z" fill="#b8860b" fill-opacity="0.8" stroke="#9a6800" stroke-width="2"/><path d="M100,100 L105.34050241495154,76.60173010763623 A24,24 0 0,1 114.9637552446096,81.23604442076729 Z" fill="#b8860b" fill-opacity="0.8" stroke="#9a6800" stroke-width="2"/><path d="M100,100 L114.9637552446096,81.23604442076729 A24,24 0 0,1 121.62325282965806,89.5867902611786 Z" fill="#b8860b" fill-opacity="0.8" stroke="#9a6800" stroke-width="2"/><path d="M100,100 L121.62325282965806,89.5867902611786 A24,24 0 0,1 124,100 Z" fill="#b8860b" fill-opacity="0.8" stroke="#9a6800" stroke-width="2"/><path d="M100,100 L116,100 A16,16 0 0,1 113.85640646055101,108 Z" fill="#ffd700" fill-opacity="0.8" stroke="#e1b900" stroke-width="2"/><path d="M100,100 L113.85640646055101,108 A16,16 0 0,1 108,113.85640646055101 Z" fill="#ffd700" fill-opacity="0.8" stroke="#e1b900" stroke-width="2"/><path d="M100,100 L108,113.85640646055101 A16,16 0 0,1 100,116 Z" fill="#ffd700" fill-opacity="0.8" stroke="#e1b900" stroke-width="2"/><path d="M100,100 L100,116 A16,16 0 0,1 92,113.85640646055101 Z" fill="#ffd700" fill-opacity="0.8" stroke="#e1b900" stroke-width="2"/><path d="M100,100 L92,113.85640646055101 A16,16 0 0,1 86.14359353944899,108 Z" fill="#ffd700" fill-opacity="0.8" stroke="#e1b900" stroke-width="2"/><path d="M100,100 L86.14359353944899,108 A16,16 0 0,1 84,100 Z" fill="#ffd700" fill-opacity="0.8" stroke="#e1b900" stroke-width="2"/><path d="M100,100 L84,100 A16,16 0 0,1 86.14359353944899,92 Z" fill="#ffd700" fill-opacity="0.8" stroke="#e1b900" stroke-width="2"/><path d="M100,100 L86.14359353944899,92 A16,16 0 0,1 92,86.14359353944899 Z" fill="#ffd700" fill-opacity="0.8" stroke="#e1b900" stroke-width="2"/><path d="M100,100 L92,86.14359353944899 A16,16 0 0,1 100,84 Z" fill="#ffd700" fill-opacity="0.8" stroke="#e1b900" stroke-width="2"/><path d="M100,100 L100,84 A16,16 0 0,1 108,86.14359353944899 Z" fill="#ffd700" fill-opacity="0.8" stroke="#e1b900" stroke-width="2"/><path d="M100,100 L108,86.14359353944899 A16,16 0 0,1 113.85640646055101,92 Z" fill="#ffd700" fill-opacity="0.8" stroke="#e1b900" stroke-width="2"/><path d="M100,100 L113.85640646055101,92 A16,16 0 0,1 116,100 Z" fill="#ffd700" fill-opacity="0.8" stroke="#e1b900" stroke-width="2"/><path d="M100,100 L108,100 A8,8 0 0,1 106.47213595499957,104.70228201833979 Z" fill="#d4af37" fill-opacity="0.8" stroke="#b69119" stroke-width="2"/><path d="M100,100 L106.47213595499957,104.70228201833979 A8,8 0 0,1 102.47213595499957,107.60845213036123 Z" fill="#d4af37" fill-opacity="0.8" stroke="#b69119" stroke-width="2"/><path d="M100,100 L102.47213595499957,107.60845213036123 A8,8 0 0,1 97.52786404500043,107.60845213036123 Z" fill="#d4af37" fill-opacity="0.8" stroke="#b69119" stroke-width="2"/><path d="M100,100 L97.52786404500043,107.60845213036123 A8,8 0 0,1 93.52786404500043,104.70228201833979 Z" fill="#d4af37" fill-opacity="0.8" stroke="#b69119" stroke-width="2"/><path d="M100,100 L93.52786404500043,104.70228201833979 A8,8 0 0,1 92,100 Z" fill="#d4af37" fill-opacity="0.8" stroke="#b69119" stroke-width="2"/><path d="M100,100 L92,100 A8,8 0 0,1 93.52786404500041,95.29771798166021 Z" fill="#d4af37" fill-opacity="0.8" stroke="#b69119" stroke-width="2"/><path d="M100,100 L93.52786404500041,95.29771798166021 A8,8 0 0,1 97.52786404500041,92.39154786963877 Z" fill="#d4af37" fill-opacity="0.8" stroke="#b69119" stroke-width="2"/><path d="M100,100 L97.52786404500041,92.39154786963877 A8,8 0 0,1 102.47213595499957,92.39154786963877 Z" fill="#d4af37" fill-opacity="0.8" stroke="#b69119" stroke-width="2"/><path d="M100,100 L102.47213595499957,92.39154786963877 A8,8 0 0,1 106.47213595499957,95.29771798166021 Z" fill="#d4af37" fill-opacity="0.8" stroke="#b69119" stroke-width="2"/><path d="M100,100 L106.47213595499957,95.29771798166021 A8,8 0 0,1 108,100 Z" fill="#d4af37" fill-opacity="0.8" stroke="#b69119" stroke-width="2"/><circle cx="100" cy="100" r="5" fill="#1e3c72" stroke="#00144a" stroke-width="2"/><path d="M20,30 Q30,30 30,20" fill="none" stroke="#1e3c72" stroke-width="2.4" stroke-linecap="round" stroke-opacity="1"/><ellipse cx="25" cy="25" rx="5" ry="3" transform="rotate(45, 25, 25)" fill="#1e3c72" fill-opacity="0.5"/><path d="M180,170 Q170,170 170,180" fill="none" stroke="#1e3c72" stroke-width="2.4" stroke-linecap="round" stroke-opacity="1"/><ellipse cx="175" cy="175" rx="5" ry="3" transform="rotate(45, 175, 175)" fill="#1e3c72" fill-opacity="0.5"/><path d="M170,20 Q170,30 180,30" fill="none" stroke="#d4af37" stroke-width="2.4" stroke-linecap="round" stroke-opacity="1"/><ellipse cx="175" cy="25" rx="5" ry="3" transform="rotate(-45, 175, 25)" fill="#d4af37" fill-opacity="0.5"/><path d="M30,180 Q30,170 20,170" fill="none" stroke="#d4af37" stroke-width="2.4" stroke-linecap="round" stroke-opacity="1"/><ellipse cx="25" cy="175" rx="5" ry="3" transform="rotate(-45, 25, 175)" fill="#d4af37" fill-opacity="0.5"/><rect x="5" y="5" width="190" height="190" fill="none" stroke="#1e3c72" stroke-width="8" stroke-opacity="1"/></svg>