<svg xmlns="http://www.w3.org/2000/svg" width="200" height="200" viewBox="0 0 200 200"><defs></defs><rect width="200" height="200" fill="#ffffff"/><g class="pattern"><path d="M100,80 Q81.54211676373819,46.21307136722065 100,25 Q118.45788323626182,46.21307136722066 100,80" fill="#228b22" fill-opacity="0.8" stroke="#046d04" stroke-width="2"/><path d="M112.85575219373078,84.67911113762044 Q120.43401240336742,46.932323563112355 148.20907072649044,42.54666676607665 Q148.713130173122,70.6613208537323 112.85575219373078,84.67911113762044" fill="#2e8b57" fill-opacity="0.8" stroke="#106d39" stroke-width="2"/><path d="M119.69615506024417,96.5270364466614 Q149.7646065407096,72.48253134535193 173.8605814759156,86.97638667498023 Q156.17496211584128,108.83746437588134 119.69615506024417,96.5270364466614" fill="#9acd32" fill-opacity="0.8" stroke="#7caf14" stroke-width="2"/><path d="M117.32050807568878,110 Q155.80978820565844,110.9084685337 164.9519052838329,137.5 Q137.35190496939663,142.87846009907935 117.32050807568878,110" fill="#ffd700" fill-opacity="0.8" stroke="#e1b900" stroke-width="2"/><path d="M106.84040286651337,118.79385241571816 Q135.74094971247385,144.2302120610063 125.65151074942516,170.47694655894313 Q101.05147636758755,156.85614780091578 106.84040286651337,118.79385241571816" fill="#f0e68c" fill-opacity="0.8" stroke="#d2c86e" stroke-width="2"/><path d="M93.15959713348663,118.79385241571816 Q98.94852363241245,156.85614780091575 74.34848925057484,170.47694655894313 Q64.25905028752615,144.2302120610063 93.15959713348663,118.79385241571816" fill="#228b22" fill-opacity="0.8" stroke="#046d04" stroke-width="2"/><path d="M82.67949192431124,110 Q62.64809503060341,142.87846009907935 35.04809471616712,137.50000000000003 Q44.19021179434158,110.90846853370003 82.67949192431124,110" fill="#2e8b57" fill-opacity="0.8" stroke="#106d39" stroke-width="2"/><path d="M80.30384493975583,96.5270364466614 Q43.825037884158725,108.83746437588135 26.139418524084384,86.97638667498025 Q50.23539345929041,72.48253134535194 80.30384493975583,96.5270364466614" fill="#9acd32" fill-opacity="0.8" stroke="#7caf14" stroke-width="2"/><path d="M87.1442478062692,84.67911113762044 Q51.28686982687797,70.66132085373232 51.79092927350953,42.546666766076655 Q79.56598759663257,46.932323563112355 87.1442478062692,84.67911113762044" fill="#ffd700" fill-opacity="0.8" stroke="#e1b900" stroke-width="2"/><circle cx="100" cy="100" r="15" fill="#228b22" stroke="#046d04" stroke-width="2"/></g><path d="M100,100 Q92.9904698384443,83.42090210794807 100,72 Q107.00953016155572,83.42090210794807 100,100" fill="#228b22" fill-opacity="0.8" stroke="#046d04" stroke-width="2"/><path d="M100,100 Q106.76670623525784,83.3203211444068 119.79898987322333,80.20101012677668 Q116.6796788555932,93.23329376474216 100,100" fill="#2e8b57" fill-opacity="0.8" stroke="#106d39" stroke-width="2"/><path d="M100,100 Q116.57909789205193,92.99046983844428 128,100 Q116.57909789205193,107.00953016155572 100,100" fill="#9acd32" fill-opacity="0.8" stroke="#7caf14" stroke-width="2"/><path d="M100,100 Q116.6796788555932,106.76670623525784 119.79898987322333,119.79898987322332 Q106.76670623525784,116.6796788555932 100,100" fill="#ffd700" fill-opacity="0.8" stroke="#e1b900" stroke-width="2"/><path d="M100,100 Q107.00953016155572,116.57909789205193 100,128 Q92.9904698384443,116.57909789205193 100,100" fill="#f0e68c" fill-opacity="0.8" stroke="#d2c86e" stroke-width="2"/><path d="M100,100 Q93.23329376474216,116.6796788555932 80.20101012677668,119.79898987322333 Q83.3203211444068,106.76670623525784 100,100" fill="#228b22" fill-opacity="0.8" stroke="#046d04" stroke-width="2"/><path d="M100,100 Q83.42090210794807,107.00953016155572 72,100 Q83.42090210794807,92.9904698384443 100,100" fill="#2e8b57" fill-opacity="0.8" stroke="#106d39" stroke-width="2"/><path d="M100,100 Q83.3203211444068,93.23329376474216 80.20101012677667,80.20101012677668 Q93.23329376474217,83.3203211444068 100,100" fill="#9acd32" fill-opacity="0.8" stroke="#7caf14" stroke-width="2"/><circle cx="100" cy="100" r="10" fill="#228b22" stroke="#006300" stroke-width="4"/><path d="M15,29 Q22,19.2 29,15" fill="none" stroke="#228b22" stroke-width="2.6" stroke-linecap="round" stroke-opacity="1"/><path d="M185,171 Q178,180.8 171,185" fill="none" stroke="#228b22" stroke-width="2.6" stroke-linecap="round" stroke-opacity="1"/><path d="M171,15 Q180.8,22 185,29" fill="none" stroke="#2e8b57" stroke-width="2.6" stroke-linecap="round" stroke-opacity="1"/><path d="M29,185 Q19.2,178 15,171" fill="none" stroke="#2e8b57" stroke-width="2.6" stroke-linecap="round" stroke-opacity="1"/><rect x="5" y="5" width="190" height="190" fill="none" stroke="#2c5e03" stroke-width="8" stroke-opacity="1"/><circle cx="5" cy="5" r="6.4" fill="none" stroke="#2c5e03" stroke-width="4" stroke-opacity="1"/><circle cx="195" cy="5" r="6.4" fill="none" stroke="#2c5e03" stroke-width="4" stroke-opacity="1"/><circle cx="195" cy="195" r="6.4" fill="none" stroke="#2c5e03" stroke-width="4" stroke-opacity="1"/><circle cx="5" cy="195" r="6.4" fill="none" stroke="#2c5e03" stroke-width="4" stroke-opacity="1"/></svg>