<svg xmlns="http://www.w3.org/2000/svg" width="200" height="200" viewBox="0 0 200 200"><defs></defs><rect width="200" height="200" fill="#ffffff"/><g class="pattern"><g class="symmetry-diagonal-both"><path d="M160,100 L163.43576801231183,104.99250321629947 L165.65375365720791,110.39853302820185 L166.02538268883825,115.85129194372607 L164.299458955209,120.89216067166674 L160.6590238101827,125.12579034249018 L155.66308071588733,128.36175622200716 L150.09135139738515,130.6960196153119 L144.73679359731622,132.50318311504816 L140.20414452495078,134.33758331434225 L136.76955262170048,136.76955262170048 L134.33758331434225,140.2041445249508 L132.50318311504816,144.73679359731622 L130.6960196153119,150.09135139738515 L128.36175622200716,155.66308071588733 L125.12579034249018,160.6590238101827 L120.89216067166674,164.299458955209 L115.85129194372607,166.02538268883825 L110.39853302820185,165.65375365720791 L104.99250321629948,163.43576801231183 L100,160 L95.57741172895808,156.19431203566353 L91.62639722337414,152.86884721420859 L87.83784828101743,150.65900775888295 L83.81012134667304,149.82732300020942 L79.20377845867941,150.20652009117168 L73.88289625326156,151.2577021867168 L67.99619184939804,152.2254683251059 L61.968952839951406,152.34524572767748 L56.403817514720224,151.0445713470529 L51.91673887931477,148.08326112068522 L48.95542865294708,143.5961824852798 L47.65475427232254,138.03104716004862 L47.774531674894085,132.00380815060197 L48.74229781328318,126.11710374673847 L49.7934799088283,120.7962215413206 L50.172676999790575,116.18987865332696 L49.34099224111707,112.16215171898259 L47.13115278579139,108.37360277662586 L43.80568796433648,104.42258827104193 L40.00000000000001,100.00000000000001 L36.564231987688196,95.00749678370056 L34.346246342792085,89.60146697179816 L33.97461731116174,84.14870805627395 L35.700541044790995,79.10783932833324 L39.340976189817276,74.87420965750982 L44.336919284112625,71.63824377799286 L49.90864860261484,69.3039803846881 L55.26320640268376,67.49681688495183 L59.79585547504922,65.66241668565775 L63.23044737829952,63.23044737829953 L65.66241668565773,59.79585547504924 L67.49681688495181,55.26320640268378 L69.30398038468807,49.908648602614875 L71.63824377799281,44.33691928411266 L74.8742096575098,39.340976189817326 L79.10783932833326,35.700541044790995 L84.14870805627396,33.97461731116174 L89.60146697179813,34.34624634279207 L95.00749678370055,36.56423198768817 L99.99999999999999,39.99999999999999 L104.42258827104189,43.80568796433646 L108.37360277662584,47.13115278579139 L112.16215171898256,49.34099224111705 L116.18987865332694,50.172676999790575 L120.79622154132062,49.793479908828296 L126.11710374673842,48.74229781328321 L132.00380815060197,47.77453167489411 L138.03104716004856,47.654754272322556 L143.59618248527983,48.95542865294707 L148.08326112068522,51.91673887931476 L151.0445713470529,56.40381751472016 L152.34524572767745,61.968952839951385 L152.2254683251059,67.99619184939799 L151.2577021867168,73.88289625326153 L150.20652009117174,79.20377845867935 L149.82732300020942,83.81012134667304 L150.65900775888292,87.83784828101743 L152.86884721420859,91.62639722337414 L156.19431203566353,95.5774117289581 L160,99.99999999999999 Z" fill="none" stroke="#ff0000" stroke-width="2" stroke-linecap="round"/><path d="M185,100 L191.1836797390696,107.17631123001416 L194.286330706896,114.93348771926586 L192.82400947328222,122.28507300718653 L186.98899082321248,128.26443647388527 L178.52976026345937,132.52809175103263 L169.97462911525398,135.65385435315574 L163.5544151420946,138.946195688848 L160.30281479463858,143.8125595067358 L159.71799754031855,151.0039882737409 L160.10407640085654,160.10407640085654 L159.40217994239032,169.5510166116867 L156.11093338298463,177.23007424910247 L149.8785603128633,181.3944127981011 L141.5245306025672,181.49647999676856 L132.52809175103263,178.52976026345937 L124.2684525698558,174.69061694696364 L117.40063884831739,172.47887699432277 L111.6603713375734,173.62068719427742 L106.16173504371949,178.29226699556216 L100,185 L92.82368876998585,191.1836797390696 L85.06651228073412,194.28633070689597 L77.7149269928135,192.82400947328222 L71.73556352611473,186.98899082321248 L67.47190824896737,178.52976026345937 L64.34614564684428,169.97462911525398 L61.053804311152,163.55441514209463 L56.18744049326421,160.30281479463858 L48.99601172625912,159.71799754031855 L39.89592359914347,160.10407640085654 L30.448983388313295,159.40217994239035 L22.769925750897528,156.11093338298465 L18.605587201898928,149.8785603128633 L18.50352000323143,141.52453060256724 L21.47023973654062,132.52809175103266 L25.30938305303637,124.2684525698558 L27.52112300567721,117.4006388483174 L26.379312805722577,111.6603713375734 L21.70773300443787,106.16173504371949 L15.000000000000014,100.00000000000001 L8.816320260930425,92.82368876998589 L5.7136692931040045,85.06651228073414 L7.175990526717769,77.71492699281347 L13.011009176787553,71.7355635261147 L21.470239736540606,67.47190824896737 L30.025370884745968,64.34614564684429 L36.44558485790539,61.05380431115201 L39.69718520536141,56.18744049326421 L40.28200245968145,48.996011726259084 L39.89592359914346,39.89592359914347 L40.59782005760965,30.448983388313366 L43.88906661701535,22.769925750897528 L50.12143968713664,18.605587201898942 L58.475469397432754,18.50352000323143 L67.47190824896731,21.47023973654059 L75.73154743014419,25.309383053036356 L82.59936115168263,27.521123005677197 L88.3396286624266,26.379312805722577 L93.83826495628054,21.70773300443784 L99.99999999999999,15.000000000000014 L107.1763112300141,8.816320260930425 L114.93348771926584,5.7136692931040045 L122.28507300718647,7.17599052671774 L128.26443647388527,13.01100917678751 L132.52809175103263,21.470239736540663 L135.65385435315574,30.02537088474601 L138.946195688848,36.4455848579054 L143.8125595067358,39.69718520536141 L151.0039882737409,40.28200245968144 L160.1040764008565,39.89592359914346 L169.55101661168663,40.597820057609646 L177.23007424910247,43.88906661701534 L181.39441279810103,50.12143968713663 L181.49647999676858,58.47546939743275 L178.52976026345942,67.4719082489673 L174.69061694696364,75.73154743014419 L172.4788769943228,82.59936115168263 L173.62068719427742,88.33962866242659 L178.29226699556216,93.83826495628053 L184.99999999999997,99.99999999999999 Z" fill="none" stroke="#ff7f00" stroke-width="2" stroke-linecap="round"/><path d="M210,100 L219.52988480815557,109.40720595095188 L222.47335423379707,119.39787366498862 L216.58666234723472,127.9899812216166 L204.6162167924669,133.99186938124421 L192.4808078221069,138.3068048591365 L185.53662632208332,143.5830879749965 L185.34971108917506,152.30237022296197 L188.99186938124421,164.65637775217203 L191.17229122223023,177.86849298235717 L187.68124086713192,187.6812408671319 L177.86849298235717,191.17229122223023 L164.65637775217203,188.99186938124421 L152.30237022296197,185.34971108917506 L143.5830879749965,185.5366263220833 L138.3068048591365,192.4808078221069 L133.99186938124421,204.6162167924669 L127.9899812216166,216.58666234723472 L119.39787366498864,222.47335423379707 L109.40720595095188,219.5298848081556 L100,210 L92.146204890826,199.7919286131326 L84.98229135613782,194.8180806971332 L76.63200117331745,197.33472014025412 L66.0081306187558,204.6162167924669 L54.116449738816755,210.77268933037618 L43.70517803229621,210.48480899935763 L37.35268598545322,202.23112506872525 L35.34362224782795,188.99186938124421 L34.98992234971679,176.11702120977662 L32.117749006091444,167.88225099390857 L23.88297879022342,165.01007765028322 L11.0081306187558,164.65637775217203 L-2.2311250687252056,162.6473140145468 L-10.484808999357611,156.2948219677038 L-10.772689330376195,145.88355026118327 L-4.616216792466901,133.99186938124421 L2.6652798597458656,123.36799882668261 L5.181919302866788,115.01770864386218 L0.20807138686744509,107.85379510917403 L-9.999999999999986,100.00000000000001 L-19.529884808155558,90.5927940490482 L-22.47335423379708,80.60212633501139 L-16.58666234723475,72.01001877838341 L-4.616216792466858,66.00813061875576 L7.519192177893075,61.69319514086351 L14.463373677916664,56.41691202500356 L14.650288910824912,47.69762977703804 L11.008130618755786,35.34362224782798 L8.8277087777698,22.131507017642775 L12.318759132868081,12.31875913286811 L22.131507017642704,8.827708777769757 L35.343622247827966,11.008130618755814 L47.69762977703793,14.650288910824898 L56.4169120250035,14.463373677916692 L61.69319514086347,7.519192177893174 L66.00813061875579,-4.616216792466858 L72.01001877838343,-16.58666234723475 L80.60212633501135,-22.473354233797068 L90.59279404904817,-19.52988480815553 L99.99999999999999,-10.000000000000071 L107.85379510917396,0.2080713868673456 L115.01770864386215,5.181919302866774 L123.36799882668251,2.665279859745908 L133.9918693812442,-4.616216792466872 L145.8835502611833,-10.772689330376181 L156.2948219677038,-10.484808999357625 L162.64731401454677,-2.231125068725177 L164.656377752172,11.008130618755786 L165.01007765028325,23.88297879022342 L167.88225099390854,32.11774900609143 L176.1170212097765,34.989922349716764 L188.9918693812442,35.34362224782795 L202.23112506872513,37.35268598545318 L210.4848089993576,43.705178032296175 L210.77268933037618,54.116449738816655 L204.61621679246696,66.00813061875573 L197.3347201402541,76.63200117331743 L194.8180806971332,84.98229135613781 L199.7919286131326,92.146204890826 L209.99999999999997,99.99999999999997 Z" fill="none" stroke="#ffff00" stroke-width="2" stroke-linecap="round"/><path d="M235,100 L248.29473215858232,111.67104853398007 L249.3068323310034,123.64787907537536 L236.37807936745858,132.74148006026903 L218.88934079547164,138.62948849659512 L209.01778483633183,145.1566450190806 L211.38263235698656,156.75228581756627 L219.58558730262752,173.2821421492268 L222.29744927361273,188.85429796385796 L213.11288828551096,196.60753316164173 L195.45941546018392,195.4594154601839 L178.74343988750786,192.1967224264974 L169.84772015510976,196.13713920762308 L167.79247032407943,210.6272570729774 L165.82514911211132,229.18912917387274 L158.16788171949366,240.4296889417156 L144.8050999846407,237.89591860421982 L130.28876818082546,226.16179913991414 L118.589426485487,217.3690196296838 L109.51290731253808,220.87294794936224 L100.00000000000001,235 L88.32895146601994,248.2947321585823 L76.35212092462463,249.30683233100336 L67.258519939731,236.37807936745864 L61.37051150340489,218.88934079547164 L54.843354980919415,209.01778483633183 L43.247714182433725,211.38263235698656 L26.717857850773214,219.58558730262754 L11.14570203614204,222.29744927361273 L3.392466838358274,213.112888285511 L4.5405845398160665,195.45941546018395 L7.803277573502612,178.74343988750786 L3.862860792376935,169.84772015510978 L-10.62725707297733,167.79247032407937 L-29.189129173872686,165.82514911211132 L-40.4296889417156,158.16788171949366 L-37.895918604219844,144.80509998464072 L-26.16179913991415,130.28876818082546 L-17.369019629683777,118.589426485487 L-20.872947949362228,109.51290731253809 L-34.99999999999997,100.00000000000001 L-48.29473215858226,88.32895146602003 L-49.30683233100342,76.35212092462467 L-36.37807936745858,67.25851993973099 L-18.88934079547154,61.37051150340487 L-9.017784836331842,54.84335498091942 L-11.382632356986534,43.24771418243381 L-19.585587302627516,26.717857850773242 L-22.297449273612756,11.14570203614204 L-13.112888285510905,3.39246683835826 L4.540584539815995,4.540584539816038 L21.25656011249204,7.803277573502598 L30.15227984489023,3.8628607923769493 L32.207529675920554,-10.6272570729773 L34.17485088788864,-29.18912917387277 L41.83211828050627,-40.42968894171554 L55.19490001535929,-37.895918604219844 L69.71123181917463,-26.161799139914052 L81.41057351451299,-17.36901962968382 L90.48709268746197,-20.872947949362214 L99.99999999999997,-34.99999999999997 L111.67104853397997,-48.29473215858229 L123.64787907537533,-49.30683233100339 L132.74148006026897,-36.378079367458724 L138.62948849659512,-18.889340795471668 L145.15664501908063,-9.017784836331828 L156.75228581756625,-11.382632356986505 L173.2821421492268,-19.585587302627488 L188.8542979638579,-22.2974492736127 L196.6075331616417,-13.112888285510877 L195.4594154601839,4.540584539816081 L192.1967224264974,21.256560112492025 L196.13713920762305,30.152279844890217 L210.62725707297716,32.20752967592061 L229.18912917387266,34.17485088788868 L240.42968894171554,41.83211828050626 L237.89591860421976,55.194900015359295 L226.16179913991417,69.71123181917459 L217.3690196296838,81.41057351451299 L220.8729479493623,90.48709268746195 L234.99999999999994,99.99999999999997 Z" fill="none" stroke="#00ff00" stroke-width="2" stroke-linecap="round"/><g transform="matrix(0, 1, 1, 0, 0, 0)"><path d="M160,100 L163.43576801231183,104.99250321629947 L165.65375365720791,110.39853302820185 L166.02538268883825,115.85129194372607 L164.299458955209,120.89216067166674 L160.6590238101827,125.12579034249018 L155.66308071588733,128.36175622200716 L150.09135139738515,130.6960196153119 L144.73679359731622,132.50318311504816 L140.20414452495078,134.33758331434225 L136.76955262170048,136.76955262170048 L134.33758331434225,140.2041445249508 L132.50318311504816,144.73679359731622 L130.6960196153119,150.09135139738515 L128.36175622200716,155.66308071588733 L125.12579034249018,160.6590238101827 L120.89216067166674,164.299458955209 L115.85129194372607,166.02538268883825 L110.39853302820185,165.65375365720791 L104.99250321629948,163.43576801231183 L100,160 L95.57741172895808,156.19431203566353 L91.62639722337414,152.86884721420859 L87.83784828101743,150.65900775888295 L83.81012134667304,149.82732300020942 L79.20377845867941,150.20652009117168 L73.88289625326156,151.2577021867168 L67.99619184939804,152.2254683251059 L61.968952839951406,152.34524572767748 L56.403817514720224,151.0445713470529 L51.91673887931477,148.08326112068522 L48.95542865294708,143.5961824852798 L47.65475427232254,138.03104716004862 L47.774531674894085,132.00380815060197 L48.74229781328318,126.11710374673847 L49.7934799088283,120.7962215413206 L50.172676999790575,116.18987865332696 L49.34099224111707,112.16215171898259 L47.13115278579139,108.37360277662586 L43.80568796433648,104.42258827104193 L40.00000000000001,100.00000000000001 L36.564231987688196,95.00749678370056 L34.346246342792085,89.60146697179816 L33.97461731116174,84.14870805627395 L35.700541044790995,79.10783932833324 L39.340976189817276,74.87420965750982 L44.336919284112625,71.63824377799286 L49.90864860261484,69.3039803846881 L55.26320640268376,67.49681688495183 L59.79585547504922,65.66241668565775 L63.23044737829952,63.23044737829953 L65.66241668565773,59.79585547504924 L67.49681688495181,55.26320640268378 L69.30398038468807,49.908648602614875 L71.63824377799281,44.33691928411266 L74.8742096575098,39.340976189817326 L79.10783932833326,35.700541044790995 L84.14870805627396,33.97461731116174 L89.60146697179813,34.34624634279207 L95.00749678370055,36.56423198768817 L99.99999999999999,39.99999999999999 L104.42258827104189,43.80568796433646 L108.37360277662584,47.13115278579139 L112.16215171898256,49.34099224111705 L116.18987865332694,50.172676999790575 L120.79622154132062,49.793479908828296 L126.11710374673842,48.74229781328321 L132.00380815060197,47.77453167489411 L138.03104716004856,47.654754272322556 L143.59618248527983,48.95542865294707 L148.08326112068522,51.91673887931476 L151.0445713470529,56.40381751472016 L152.34524572767745,61.968952839951385 L152.2254683251059,67.99619184939799 L151.2577021867168,73.88289625326153 L150.20652009117174,79.20377845867935 L149.82732300020942,83.81012134667304 L150.65900775888292,87.83784828101743 L152.86884721420859,91.62639722337414 L156.19431203566353,95.5774117289581 L160,99.99999999999999 Z" fill="none" stroke="#ff0000" stroke-width="2" stroke-linecap="round"/><path d="M185,100 L191.1836797390696,107.17631123001416 L194.286330706896,114.93348771926586 L192.82400947328222,122.28507300718653 L186.98899082321248,128.26443647388527 L178.52976026345937,132.52809175103263 L169.97462911525398,135.65385435315574 L163.5544151420946,138.946195688848 L160.30281479463858,143.8125595067358 L159.71799754031855,151.0039882737409 L160.10407640085654,160.10407640085654 L159.40217994239032,169.5510166116867 L156.11093338298463,177.23007424910247 L149.8785603128633,181.3944127981011 L141.5245306025672,181.49647999676856 L132.52809175103263,178.52976026345937 L124.2684525698558,174.69061694696364 L117.40063884831739,172.47887699432277 L111.6603713375734,173.62068719427742 L106.16173504371949,178.29226699556216 L100,185 L92.82368876998585,191.1836797390696 L85.06651228073412,194.28633070689597 L77.7149269928135,192.82400947328222 L71.73556352611473,186.98899082321248 L67.47190824896737,178.52976026345937 L64.34614564684428,169.97462911525398 L61.053804311152,163.55441514209463 L56.18744049326421,160.30281479463858 L48.99601172625912,159.71799754031855 L39.89592359914347,160.10407640085654 L30.448983388313295,159.40217994239035 L22.769925750897528,156.11093338298465 L18.605587201898928,149.8785603128633 L18.50352000323143,141.52453060256724 L21.47023973654062,132.52809175103266 L25.30938305303637,124.2684525698558 L27.52112300567721,117.4006388483174 L26.379312805722577,111.6603713375734 L21.70773300443787,106.16173504371949 L15.000000000000014,100.00000000000001 L8.816320260930425,92.82368876998589 L5.7136692931040045,85.06651228073414 L7.175990526717769,77.71492699281347 L13.011009176787553,71.7355635261147 L21.470239736540606,67.47190824896737 L30.025370884745968,64.34614564684429 L36.44558485790539,61.05380431115201 L39.69718520536141,56.18744049326421 L40.28200245968145,48.996011726259084 L39.89592359914346,39.89592359914347 L40.59782005760965,30.448983388313366 L43.88906661701535,22.769925750897528 L50.12143968713664,18.605587201898942 L58.475469397432754,18.50352000323143 L67.47190824896731,21.47023973654059 L75.73154743014419,25.309383053036356 L82.59936115168263,27.521123005677197 L88.3396286624266,26.379312805722577 L93.83826495628054,21.70773300443784 L99.99999999999999,15.000000000000014 L107.1763112300141,8.816320260930425 L114.93348771926584,5.7136692931040045 L122.28507300718647,7.17599052671774 L128.26443647388527,13.01100917678751 L132.52809175103263,21.470239736540663 L135.65385435315574,30.02537088474601 L138.946195688848,36.4455848579054 L143.8125595067358,39.69718520536141 L151.0039882737409,40.28200245968144 L160.1040764008565,39.89592359914346 L169.55101661168663,40.597820057609646 L177.23007424910247,43.88906661701534 L181.39441279810103,50.12143968713663 L181.49647999676858,58.47546939743275 L178.52976026345942,67.4719082489673 L174.69061694696364,75.73154743014419 L172.4788769943228,82.59936115168263 L173.62068719427742,88.33962866242659 L178.29226699556216,93.83826495628053 L184.99999999999997,99.99999999999999 Z" fill="none" stroke="#ff7f00" stroke-width="2" stroke-linecap="round"/><path d="M210,100 L219.52988480815557,109.40720595095188 L222.47335423379707,119.39787366498862 L216.58666234723472,127.9899812216166 L204.6162167924669,133.99186938124421 L192.4808078221069,138.3068048591365 L185.53662632208332,143.5830879749965 L185.34971108917506,152.30237022296197 L188.99186938124421,164.65637775217203 L191.17229122223023,177.86849298235717 L187.68124086713192,187.6812408671319 L177.86849298235717,191.17229122223023 L164.65637775217203,188.99186938124421 L152.30237022296197,185.34971108917506 L143.5830879749965,185.5366263220833 L138.3068048591365,192.4808078221069 L133.99186938124421,204.6162167924669 L127.9899812216166,216.58666234723472 L119.39787366498864,222.47335423379707 L109.40720595095188,219.5298848081556 L100,210 L92.146204890826,199.7919286131326 L84.98229135613782,194.8180806971332 L76.63200117331745,197.33472014025412 L66.0081306187558,204.6162167924669 L54.116449738816755,210.77268933037618 L43.70517803229621,210.48480899935763 L37.35268598545322,202.23112506872525 L35.34362224782795,188.99186938124421 L34.98992234971679,176.11702120977662 L32.117749006091444,167.88225099390857 L23.88297879022342,165.01007765028322 L11.0081306187558,164.65637775217203 L-2.2311250687252056,162.6473140145468 L-10.484808999357611,156.2948219677038 L-10.772689330376195,145.88355026118327 L-4.616216792466901,133.99186938124421 L2.6652798597458656,123.36799882668261 L5.181919302866788,115.01770864386218 L0.20807138686744509,107.85379510917403 L-9.999999999999986,100.00000000000001 L-19.529884808155558,90.5927940490482 L-22.47335423379708,80.60212633501139 L-16.58666234723475,72.01001877838341 L-4.616216792466858,66.00813061875576 L7.519192177893075,61.69319514086351 L14.463373677916664,56.41691202500356 L14.650288910824912,47.69762977703804 L11.008130618755786,35.34362224782798 L8.8277087777698,22.131507017642775 L12.318759132868081,12.31875913286811 L22.131507017642704,8.827708777769757 L35.343622247827966,11.008130618755814 L47.69762977703793,14.650288910824898 L56.4169120250035,14.463373677916692 L61.69319514086347,7.519192177893174 L66.00813061875579,-4.616216792466858 L72.01001877838343,-16.58666234723475 L80.60212633501135,-22.473354233797068 L90.59279404904817,-19.52988480815553 L99.99999999999999,-10.000000000000071 L107.85379510917396,0.2080713868673456 L115.01770864386215,5.181919302866774 L123.36799882668251,2.665279859745908 L133.9918693812442,-4.616216792466872 L145.8835502611833,-10.772689330376181 L156.2948219677038,-10.484808999357625 L162.64731401454677,-2.231125068725177 L164.656377752172,11.008130618755786 L165.01007765028325,23.88297879022342 L167.88225099390854,32.11774900609143 L176.1170212097765,34.989922349716764 L188.9918693812442,35.34362224782795 L202.23112506872513,37.35268598545318 L210.4848089993576,43.705178032296175 L210.77268933037618,54.116449738816655 L204.61621679246696,66.00813061875573 L197.3347201402541,76.63200117331743 L194.8180806971332,84.98229135613781 L199.7919286131326,92.146204890826 L209.99999999999997,99.99999999999997 Z" fill="none" stroke="#ffff00" stroke-width="2" stroke-linecap="round"/><path d="M235,100 L248.29473215858232,111.67104853398007 L249.3068323310034,123.64787907537536 L236.37807936745858,132.74148006026903 L218.88934079547164,138.62948849659512 L209.01778483633183,145.1566450190806 L211.38263235698656,156.75228581756627 L219.58558730262752,173.2821421492268 L222.29744927361273,188.85429796385796 L213.11288828551096,196.60753316164173 L195.45941546018392,195.4594154601839 L178.74343988750786,192.1967224264974 L169.84772015510976,196.13713920762308 L167.79247032407943,210.6272570729774 L165.82514911211132,229.18912917387274 L158.16788171949366,240.4296889417156 L144.8050999846407,237.89591860421982 L130.28876818082546,226.16179913991414 L118.589426485487,217.3690196296838 L109.51290731253808,220.87294794936224 L100.00000000000001,235 L88.32895146601994,248.2947321585823 L76.35212092462463,249.30683233100336 L67.258519939731,236.37807936745864 L61.37051150340489,218.88934079547164 L54.843354980919415,209.01778483633183 L43.247714182433725,211.38263235698656 L26.717857850773214,219.58558730262754 L11.14570203614204,222.29744927361273 L3.392466838358274,213.112888285511 L4.5405845398160665,195.45941546018395 L7.803277573502612,178.74343988750786 L3.862860792376935,169.84772015510978 L-10.62725707297733,167.79247032407937 L-29.189129173872686,165.82514911211132 L-40.4296889417156,158.16788171949366 L-37.895918604219844,144.80509998464072 L-26.16179913991415,130.28876818082546 L-17.369019629683777,118.589426485487 L-20.872947949362228,109.51290731253809 L-34.99999999999997,100.00000000000001 L-48.29473215858226,88.32895146602003 L-49.30683233100342,76.35212092462467 L-36.37807936745858,67.25851993973099 L-18.88934079547154,61.37051150340487 L-9.017784836331842,54.84335498091942 L-11.382632356986534,43.24771418243381 L-19.585587302627516,26.717857850773242 L-22.297449273612756,11.14570203614204 L-13.112888285510905,3.39246683835826 L4.540584539815995,4.540584539816038 L21.25656011249204,7.803277573502598 L30.15227984489023,3.8628607923769493 L32.207529675920554,-10.6272570729773 L34.17485088788864,-29.18912917387277 L41.83211828050627,-40.42968894171554 L55.19490001535929,-37.895918604219844 L69.71123181917463,-26.161799139914052 L81.41057351451299,-17.36901962968382 L90.48709268746197,-20.872947949362214 L99.99999999999997,-34.99999999999997 L111.67104853397997,-48.29473215858229 L123.64787907537533,-49.30683233100339 L132.74148006026897,-36.378079367458724 L138.62948849659512,-18.889340795471668 L145.15664501908063,-9.017784836331828 L156.75228581756625,-11.382632356986505 L173.2821421492268,-19.585587302627488 L188.8542979638579,-22.2974492736127 L196.6075331616417,-13.112888285510877 L195.4594154601839,4.540584539816081 L192.1967224264974,21.256560112492025 L196.13713920762305,30.152279844890217 L210.62725707297716,32.20752967592061 L229.18912917387266,34.17485088788868 L240.42968894171554,41.83211828050626 L237.89591860421976,55.194900015359295 L226.16179913991417,69.71123181917459 L217.3690196296838,81.41057351451299 L220.8729479493623,90.48709268746195 L234.99999999999994,99.99999999999997 Z" fill="none" stroke="#00ff00" stroke-width="2" stroke-linecap="round"/></g><g transform="matrix(0, 1, -1, 0, 200, 0)"><path d="M160,100 L163.43576801231183,104.99250321629947 L165.65375365720791,110.39853302820185 L166.02538268883825,115.85129194372607 L164.299458955209,120.89216067166674 L160.6590238101827,125.12579034249018 L155.66308071588733,128.36175622200716 L150.09135139738515,130.6960196153119 L144.73679359731622,132.50318311504816 L140.20414452495078,134.33758331434225 L136.76955262170048,136.76955262170048 L134.33758331434225,140.2041445249508 L132.50318311504816,144.73679359731622 L130.6960196153119,150.09135139738515 L128.36175622200716,155.66308071588733 L125.12579034249018,160.6590238101827 L120.89216067166674,164.299458955209 L115.85129194372607,166.02538268883825 L110.39853302820185,165.65375365720791 L104.99250321629948,163.43576801231183 L100,160 L95.57741172895808,156.19431203566353 L91.62639722337414,152.86884721420859 L87.83784828101743,150.65900775888295 L83.81012134667304,149.82732300020942 L79.20377845867941,150.20652009117168 L73.88289625326156,151.2577021867168 L67.99619184939804,152.2254683251059 L61.968952839951406,152.34524572767748 L56.403817514720224,151.0445713470529 L51.91673887931477,148.08326112068522 L48.95542865294708,143.5961824852798 L47.65475427232254,138.03104716004862 L47.774531674894085,132.00380815060197 L48.74229781328318,126.11710374673847 L49.7934799088283,120.7962215413206 L50.172676999790575,116.18987865332696 L49.34099224111707,112.16215171898259 L47.13115278579139,108.37360277662586 L43.80568796433648,104.42258827104193 L40.00000000000001,100.00000000000001 L36.564231987688196,95.00749678370056 L34.346246342792085,89.60146697179816 L33.97461731116174,84.14870805627395 L35.700541044790995,79.10783932833324 L39.340976189817276,74.87420965750982 L44.336919284112625,71.63824377799286 L49.90864860261484,69.3039803846881 L55.26320640268376,67.49681688495183 L59.79585547504922,65.66241668565775 L63.23044737829952,63.23044737829953 L65.66241668565773,59.79585547504924 L67.49681688495181,55.26320640268378 L69.30398038468807,49.908648602614875 L71.63824377799281,44.33691928411266 L74.8742096575098,39.340976189817326 L79.10783932833326,35.700541044790995 L84.14870805627396,33.97461731116174 L89.60146697179813,34.34624634279207 L95.00749678370055,36.56423198768817 L99.99999999999999,39.99999999999999 L104.42258827104189,43.80568796433646 L108.37360277662584,47.13115278579139 L112.16215171898256,49.34099224111705 L116.18987865332694,50.172676999790575 L120.79622154132062,49.793479908828296 L126.11710374673842,48.74229781328321 L132.00380815060197,47.77453167489411 L138.03104716004856,47.654754272322556 L143.59618248527983,48.95542865294707 L148.08326112068522,51.91673887931476 L151.0445713470529,56.40381751472016 L152.34524572767745,61.968952839951385 L152.2254683251059,67.99619184939799 L151.2577021867168,73.88289625326153 L150.20652009117174,79.20377845867935 L149.82732300020942,83.81012134667304 L150.65900775888292,87.83784828101743 L152.86884721420859,91.62639722337414 L156.19431203566353,95.5774117289581 L160,99.99999999999999 Z" fill="none" stroke="#ff0000" stroke-width="2" stroke-linecap="round"/><path d="M185,100 L191.1836797390696,107.17631123001416 L194.286330706896,114.93348771926586 L192.82400947328222,122.28507300718653 L186.98899082321248,128.26443647388527 L178.52976026345937,132.52809175103263 L169.97462911525398,135.65385435315574 L163.5544151420946,138.946195688848 L160.30281479463858,143.8125595067358 L159.71799754031855,151.0039882737409 L160.10407640085654,160.10407640085654 L159.40217994239032,169.5510166116867 L156.11093338298463,177.23007424910247 L149.8785603128633,181.3944127981011 L141.5245306025672,181.49647999676856 L132.52809175103263,178.52976026345937 L124.2684525698558,174.69061694696364 L117.40063884831739,172.47887699432277 L111.6603713375734,173.62068719427742 L106.16173504371949,178.29226699556216 L100,185 L92.82368876998585,191.1836797390696 L85.06651228073412,194.28633070689597 L77.7149269928135,192.82400947328222 L71.73556352611473,186.98899082321248 L67.47190824896737,178.52976026345937 L64.34614564684428,169.97462911525398 L61.053804311152,163.55441514209463 L56.18744049326421,160.30281479463858 L48.99601172625912,159.71799754031855 L39.89592359914347,160.10407640085654 L30.448983388313295,159.40217994239035 L22.769925750897528,156.11093338298465 L18.605587201898928,149.8785603128633 L18.50352000323143,141.52453060256724 L21.47023973654062,132.52809175103266 L25.30938305303637,124.2684525698558 L27.52112300567721,117.4006388483174 L26.379312805722577,111.6603713375734 L21.70773300443787,106.16173504371949 L15.000000000000014,100.00000000000001 L8.816320260930425,92.82368876998589 L5.7136692931040045,85.06651228073414 L7.175990526717769,77.71492699281347 L13.011009176787553,71.7355635261147 L21.470239736540606,67.47190824896737 L30.025370884745968,64.34614564684429 L36.44558485790539,61.05380431115201 L39.69718520536141,56.18744049326421 L40.28200245968145,48.996011726259084 L39.89592359914346,39.89592359914347 L40.59782005760965,30.448983388313366 L43.88906661701535,22.769925750897528 L50.12143968713664,18.605587201898942 L58.475469397432754,18.50352000323143 L67.47190824896731,21.47023973654059 L75.73154743014419,25.309383053036356 L82.59936115168263,27.521123005677197 L88.3396286624266,26.379312805722577 L93.83826495628054,21.70773300443784 L99.99999999999999,15.000000000000014 L107.1763112300141,8.816320260930425 L114.93348771926584,5.7136692931040045 L122.28507300718647,7.17599052671774 L128.26443647388527,13.01100917678751 L132.52809175103263,21.470239736540663 L135.65385435315574,30.02537088474601 L138.946195688848,36.4455848579054 L143.8125595067358,39.69718520536141 L151.0039882737409,40.28200245968144 L160.1040764008565,39.89592359914346 L169.55101661168663,40.597820057609646 L177.23007424910247,43.88906661701534 L181.39441279810103,50.12143968713663 L181.49647999676858,58.47546939743275 L178.52976026345942,67.4719082489673 L174.69061694696364,75.73154743014419 L172.4788769943228,82.59936115168263 L173.62068719427742,88.33962866242659 L178.29226699556216,93.83826495628053 L184.99999999999997,99.99999999999999 Z" fill="none" stroke="#ff7f00" stroke-width="2" stroke-linecap="round"/><path d="M210,100 L219.52988480815557,109.40720595095188 L222.47335423379707,119.39787366498862 L216.58666234723472,127.9899812216166 L204.6162167924669,133.99186938124421 L192.4808078221069,138.3068048591365 L185.53662632208332,143.5830879749965 L185.34971108917506,152.30237022296197 L188.99186938124421,164.65637775217203 L191.17229122223023,177.86849298235717 L187.68124086713192,187.6812408671319 L177.86849298235717,191.17229122223023 L164.65637775217203,188.99186938124421 L152.30237022296197,185.34971108917506 L143.5830879749965,185.5366263220833 L138.3068048591365,192.4808078221069 L133.99186938124421,204.6162167924669 L127.9899812216166,216.58666234723472 L119.39787366498864,222.47335423379707 L109.40720595095188,219.5298848081556 L100,210 L92.146204890826,199.7919286131326 L84.98229135613782,194.8180806971332 L76.63200117331745,197.33472014025412 L66.0081306187558,204.6162167924669 L54.116449738816755,210.77268933037618 L43.70517803229621,210.48480899935763 L37.35268598545322,202.23112506872525 L35.34362224782795,188.99186938124421 L34.98992234971679,176.11702120977662 L32.117749006091444,167.88225099390857 L23.88297879022342,165.01007765028322 L11.0081306187558,164.65637775217203 L-2.2311250687252056,162.6473140145468 L-10.484808999357611,156.2948219677038 L-10.772689330376195,145.88355026118327 L-4.616216792466901,133.99186938124421 L2.6652798597458656,123.36799882668261 L5.181919302866788,115.01770864386218 L0.20807138686744509,107.85379510917403 L-9.999999999999986,100.00000000000001 L-19.529884808155558,90.5927940490482 L-22.47335423379708,80.60212633501139 L-16.58666234723475,72.01001877838341 L-4.616216792466858,66.00813061875576 L7.519192177893075,61.69319514086351 L14.463373677916664,56.41691202500356 L14.650288910824912,47.69762977703804 L11.008130618755786,35.34362224782798 L8.8277087777698,22.131507017642775 L12.318759132868081,12.31875913286811 L22.131507017642704,8.827708777769757 L35.343622247827966,11.008130618755814 L47.69762977703793,14.650288910824898 L56.4169120250035,14.463373677916692 L61.69319514086347,7.519192177893174 L66.00813061875579,-4.616216792466858 L72.01001877838343,-16.58666234723475 L80.60212633501135,-22.473354233797068 L90.59279404904817,-19.52988480815553 L99.99999999999999,-10.000000000000071 L107.85379510917396,0.2080713868673456 L115.01770864386215,5.181919302866774 L123.36799882668251,2.665279859745908 L133.9918693812442,-4.616216792466872 L145.8835502611833,-10.772689330376181 L156.2948219677038,-10.484808999357625 L162.64731401454677,-2.231125068725177 L164.656377752172,11.008130618755786 L165.01007765028325,23.88297879022342 L167.88225099390854,32.11774900609143 L176.1170212097765,34.989922349716764 L188.9918693812442,35.34362224782795 L202.23112506872513,37.35268598545318 L210.4848089993576,43.705178032296175 L210.77268933037618,54.116449738816655 L204.61621679246696,66.00813061875573 L197.3347201402541,76.63200117331743 L194.8180806971332,84.98229135613781 L199.7919286131326,92.146204890826 L209.99999999999997,99.99999999999997 Z" fill="none" stroke="#ffff00" stroke-width="2" stroke-linecap="round"/><path d="M235,100 L248.29473215858232,111.67104853398007 L249.3068323310034,123.64787907537536 L236.37807936745858,132.74148006026903 L218.88934079547164,138.62948849659512 L209.01778483633183,145.1566450190806 L211.38263235698656,156.75228581756627 L219.58558730262752,173.2821421492268 L222.29744927361273,188.85429796385796 L213.11288828551096,196.60753316164173 L195.45941546018392,195.4594154601839 L178.74343988750786,192.1967224264974 L169.84772015510976,196.13713920762308 L167.79247032407943,210.6272570729774 L165.82514911211132,229.18912917387274 L158.16788171949366,240.4296889417156 L144.8050999846407,237.89591860421982 L130.28876818082546,226.16179913991414 L118.589426485487,217.3690196296838 L109.51290731253808,220.87294794936224 L100.00000000000001,235 L88.32895146601994,248.2947321585823 L76.35212092462463,249.30683233100336 L67.258519939731,236.37807936745864 L61.37051150340489,218.88934079547164 L54.843354980919415,209.01778483633183 L43.247714182433725,211.38263235698656 L26.717857850773214,219.58558730262754 L11.14570203614204,222.29744927361273 L3.392466838358274,213.112888285511 L4.5405845398160665,195.45941546018395 L7.803277573502612,178.74343988750786 L3.862860792376935,169.84772015510978 L-10.62725707297733,167.79247032407937 L-29.189129173872686,165.82514911211132 L-40.4296889417156,158.16788171949366 L-37.895918604219844,144.80509998464072 L-26.16179913991415,130.28876818082546 L-17.369019629683777,118.589426485487 L-20.872947949362228,109.51290731253809 L-34.99999999999997,100.00000000000001 L-48.29473215858226,88.32895146602003 L-49.30683233100342,76.35212092462467 L-36.37807936745858,67.25851993973099 L-18.88934079547154,61.37051150340487 L-9.017784836331842,54.84335498091942 L-11.382632356986534,43.24771418243381 L-19.585587302627516,26.717857850773242 L-22.297449273612756,11.14570203614204 L-13.112888285510905,3.39246683835826 L4.540584539815995,4.540584539816038 L21.25656011249204,7.803277573502598 L30.15227984489023,3.8628607923769493 L32.207529675920554,-10.6272570729773 L34.17485088788864,-29.18912917387277 L41.83211828050627,-40.42968894171554 L55.19490001535929,-37.895918604219844 L69.71123181917463,-26.161799139914052 L81.41057351451299,-17.36901962968382 L90.48709268746197,-20.872947949362214 L99.99999999999997,-34.99999999999997 L111.67104853397997,-48.29473215858229 L123.64787907537533,-49.30683233100339 L132.74148006026897,-36.378079367458724 L138.62948849659512,-18.889340795471668 L145.15664501908063,-9.017784836331828 L156.75228581756625,-11.382632356986505 L173.2821421492268,-19.585587302627488 L188.8542979638579,-22.2974492736127 L196.6075331616417,-13.112888285510877 L195.4594154601839,4.540584539816081 L192.1967224264974,21.256560112492025 L196.13713920762305,30.152279844890217 L210.62725707297716,32.20752967592061 L229.18912917387266,34.17485088788868 L240.42968894171554,41.83211828050626 L237.89591860421976,55.194900015359295 L226.16179913991417,69.71123181917459 L217.3690196296838,81.41057351451299 L220.8729479493623,90.48709268746195 L234.99999999999994,99.99999999999997 Z" fill="none" stroke="#00ff00" stroke-width="2" stroke-linecap="round"/></g><g transform="rotate(180, 100, 100)"><path d="M160,100 L163.43576801231183,104.99250321629947 L165.65375365720791,110.39853302820185 L166.02538268883825,115.85129194372607 L164.299458955209,120.89216067166674 L160.6590238101827,125.12579034249018 L155.66308071588733,128.36175622200716 L150.09135139738515,130.6960196153119 L144.73679359731622,132.50318311504816 L140.20414452495078,134.33758331434225 L136.76955262170048,136.76955262170048 L134.33758331434225,140.2041445249508 L132.50318311504816,144.73679359731622 L130.6960196153119,150.09135139738515 L128.36175622200716,155.66308071588733 L125.12579034249018,160.6590238101827 L120.89216067166674,164.299458955209 L115.85129194372607,166.02538268883825 L110.39853302820185,165.65375365720791 L104.99250321629948,163.43576801231183 L100,160 L95.57741172895808,156.19431203566353 L91.62639722337414,152.86884721420859 L87.83784828101743,150.65900775888295 L83.81012134667304,149.82732300020942 L79.20377845867941,150.20652009117168 L73.88289625326156,151.2577021867168 L67.99619184939804,152.2254683251059 L61.968952839951406,152.34524572767748 L56.403817514720224,151.0445713470529 L51.91673887931477,148.08326112068522 L48.95542865294708,143.5961824852798 L47.65475427232254,138.03104716004862 L47.774531674894085,132.00380815060197 L48.74229781328318,126.11710374673847 L49.7934799088283,120.7962215413206 L50.172676999790575,116.18987865332696 L49.34099224111707,112.16215171898259 L47.13115278579139,108.37360277662586 L43.80568796433648,104.42258827104193 L40.00000000000001,100.00000000000001 L36.564231987688196,95.00749678370056 L34.346246342792085,89.60146697179816 L33.97461731116174,84.14870805627395 L35.700541044790995,79.10783932833324 L39.340976189817276,74.87420965750982 L44.336919284112625,71.63824377799286 L49.90864860261484,69.3039803846881 L55.26320640268376,67.49681688495183 L59.79585547504922,65.66241668565775 L63.23044737829952,63.23044737829953 L65.66241668565773,59.79585547504924 L67.49681688495181,55.26320640268378 L69.30398038468807,49.908648602614875 L71.63824377799281,44.33691928411266 L74.8742096575098,39.340976189817326 L79.10783932833326,35.700541044790995 L84.14870805627396,33.97461731116174 L89.60146697179813,34.34624634279207 L95.00749678370055,36.56423198768817 L99.99999999999999,39.99999999999999 L104.42258827104189,43.80568796433646 L108.37360277662584,47.13115278579139 L112.16215171898256,49.34099224111705 L116.18987865332694,50.172676999790575 L120.79622154132062,49.793479908828296 L126.11710374673842,48.74229781328321 L132.00380815060197,47.77453167489411 L138.03104716004856,47.654754272322556 L143.59618248527983,48.95542865294707 L148.08326112068522,51.91673887931476 L151.0445713470529,56.40381751472016 L152.34524572767745,61.968952839951385 L152.2254683251059,67.99619184939799 L151.2577021867168,73.88289625326153 L150.20652009117174,79.20377845867935 L149.82732300020942,83.81012134667304 L150.65900775888292,87.83784828101743 L152.86884721420859,91.62639722337414 L156.19431203566353,95.5774117289581 L160,99.99999999999999 Z" fill="none" stroke="#ff0000" stroke-width="2" stroke-linecap="round"/><path d="M185,100 L191.1836797390696,107.17631123001416 L194.286330706896,114.93348771926586 L192.82400947328222,122.28507300718653 L186.98899082321248,128.26443647388527 L178.52976026345937,132.52809175103263 L169.97462911525398,135.65385435315574 L163.5544151420946,138.946195688848 L160.30281479463858,143.8125595067358 L159.71799754031855,151.0039882737409 L160.10407640085654,160.10407640085654 L159.40217994239032,169.5510166116867 L156.11093338298463,177.23007424910247 L149.8785603128633,181.3944127981011 L141.5245306025672,181.49647999676856 L132.52809175103263,178.52976026345937 L124.2684525698558,174.69061694696364 L117.40063884831739,172.47887699432277 L111.6603713375734,173.62068719427742 L106.16173504371949,178.29226699556216 L100,185 L92.82368876998585,191.1836797390696 L85.06651228073412,194.28633070689597 L77.7149269928135,192.82400947328222 L71.73556352611473,186.98899082321248 L67.47190824896737,178.52976026345937 L64.34614564684428,169.97462911525398 L61.053804311152,163.55441514209463 L56.18744049326421,160.30281479463858 L48.99601172625912,159.71799754031855 L39.89592359914347,160.10407640085654 L30.448983388313295,159.40217994239035 L22.769925750897528,156.11093338298465 L18.605587201898928,149.8785603128633 L18.50352000323143,141.52453060256724 L21.47023973654062,132.52809175103266 L25.30938305303637,124.2684525698558 L27.52112300567721,117.4006388483174 L26.379312805722577,111.6603713375734 L21.70773300443787,106.16173504371949 L15.000000000000014,100.00000000000001 L8.816320260930425,92.82368876998589 L5.7136692931040045,85.06651228073414 L7.175990526717769,77.71492699281347 L13.011009176787553,71.7355635261147 L21.470239736540606,67.47190824896737 L30.025370884745968,64.34614564684429 L36.44558485790539,61.05380431115201 L39.69718520536141,56.18744049326421 L40.28200245968145,48.996011726259084 L39.89592359914346,39.89592359914347 L40.59782005760965,30.448983388313366 L43.88906661701535,22.769925750897528 L50.12143968713664,18.605587201898942 L58.475469397432754,18.50352000323143 L67.47190824896731,21.47023973654059 L75.73154743014419,25.309383053036356 L82.59936115168263,27.521123005677197 L88.3396286624266,26.379312805722577 L93.83826495628054,21.70773300443784 L99.99999999999999,15.000000000000014 L107.1763112300141,8.816320260930425 L114.93348771926584,5.7136692931040045 L122.28507300718647,7.17599052671774 L128.26443647388527,13.01100917678751 L132.52809175103263,21.470239736540663 L135.65385435315574,30.02537088474601 L138.946195688848,36.4455848579054 L143.8125595067358,39.69718520536141 L151.0039882737409,40.28200245968144 L160.1040764008565,39.89592359914346 L169.55101661168663,40.597820057609646 L177.23007424910247,43.88906661701534 L181.39441279810103,50.12143968713663 L181.49647999676858,58.47546939743275 L178.52976026345942,67.4719082489673 L174.69061694696364,75.73154743014419 L172.4788769943228,82.59936115168263 L173.62068719427742,88.33962866242659 L178.29226699556216,93.83826495628053 L184.99999999999997,99.99999999999999 Z" fill="none" stroke="#ff7f00" stroke-width="2" stroke-linecap="round"/><path d="M210,100 L219.52988480815557,109.40720595095188 L222.47335423379707,119.39787366498862 L216.58666234723472,127.9899812216166 L204.6162167924669,133.99186938124421 L192.4808078221069,138.3068048591365 L185.53662632208332,143.5830879749965 L185.34971108917506,152.30237022296197 L188.99186938124421,164.65637775217203 L191.17229122223023,177.86849298235717 L187.68124086713192,187.6812408671319 L177.86849298235717,191.17229122223023 L164.65637775217203,188.99186938124421 L152.30237022296197,185.34971108917506 L143.5830879749965,185.5366263220833 L138.3068048591365,192.4808078221069 L133.99186938124421,204.6162167924669 L127.9899812216166,216.58666234723472 L119.39787366498864,222.47335423379707 L109.40720595095188,219.5298848081556 L100,210 L92.146204890826,199.7919286131326 L84.98229135613782,194.8180806971332 L76.63200117331745,197.33472014025412 L66.0081306187558,204.6162167924669 L54.116449738816755,210.77268933037618 L43.70517803229621,210.48480899935763 L37.35268598545322,202.23112506872525 L35.34362224782795,188.99186938124421 L34.98992234971679,176.11702120977662 L32.117749006091444,167.88225099390857 L23.88297879022342,165.01007765028322 L11.0081306187558,164.65637775217203 L-2.2311250687252056,162.6473140145468 L-10.484808999357611,156.2948219677038 L-10.772689330376195,145.88355026118327 L-4.616216792466901,133.99186938124421 L2.6652798597458656,123.36799882668261 L5.181919302866788,115.01770864386218 L0.20807138686744509,107.85379510917403 L-9.999999999999986,100.00000000000001 L-19.529884808155558,90.5927940490482 L-22.47335423379708,80.60212633501139 L-16.58666234723475,72.01001877838341 L-4.616216792466858,66.00813061875576 L7.519192177893075,61.69319514086351 L14.463373677916664,56.41691202500356 L14.650288910824912,47.69762977703804 L11.008130618755786,35.34362224782798 L8.8277087777698,22.131507017642775 L12.318759132868081,12.31875913286811 L22.131507017642704,8.827708777769757 L35.343622247827966,11.008130618755814 L47.69762977703793,14.650288910824898 L56.4169120250035,14.463373677916692 L61.69319514086347,7.519192177893174 L66.00813061875579,-4.616216792466858 L72.01001877838343,-16.58666234723475 L80.60212633501135,-22.473354233797068 L90.59279404904817,-19.52988480815553 L99.99999999999999,-10.000000000000071 L107.85379510917396,0.2080713868673456 L115.01770864386215,5.181919302866774 L123.36799882668251,2.665279859745908 L133.9918693812442,-4.616216792466872 L145.8835502611833,-10.772689330376181 L156.2948219677038,-10.484808999357625 L162.64731401454677,-2.231125068725177 L164.656377752172,11.008130618755786 L165.01007765028325,23.88297879022342 L167.88225099390854,32.11774900609143 L176.1170212097765,34.989922349716764 L188.9918693812442,35.34362224782795 L202.23112506872513,37.35268598545318 L210.4848089993576,43.705178032296175 L210.77268933037618,54.116449738816655 L204.61621679246696,66.00813061875573 L197.3347201402541,76.63200117331743 L194.8180806971332,84.98229135613781 L199.7919286131326,92.146204890826 L209.99999999999997,99.99999999999997 Z" fill="none" stroke="#ffff00" stroke-width="2" stroke-linecap="round"/><path d="M235,100 L248.29473215858232,111.67104853398007 L249.3068323310034,123.64787907537536 L236.37807936745858,132.74148006026903 L218.88934079547164,138.62948849659512 L209.01778483633183,145.1566450190806 L211.38263235698656,156.75228581756627 L219.58558730262752,173.2821421492268 L222.29744927361273,188.85429796385796 L213.11288828551096,196.60753316164173 L195.45941546018392,195.4594154601839 L178.74343988750786,192.1967224264974 L169.84772015510976,196.13713920762308 L167.79247032407943,210.6272570729774 L165.82514911211132,229.18912917387274 L158.16788171949366,240.4296889417156 L144.8050999846407,237.89591860421982 L130.28876818082546,226.16179913991414 L118.589426485487,217.3690196296838 L109.51290731253808,220.87294794936224 L100.00000000000001,235 L88.32895146601994,248.2947321585823 L76.35212092462463,249.30683233100336 L67.258519939731,236.37807936745864 L61.37051150340489,218.88934079547164 L54.843354980919415,209.01778483633183 L43.247714182433725,211.38263235698656 L26.717857850773214,219.58558730262754 L11.14570203614204,222.29744927361273 L3.392466838358274,213.112888285511 L4.5405845398160665,195.45941546018395 L7.803277573502612,178.74343988750786 L3.862860792376935,169.84772015510978 L-10.62725707297733,167.79247032407937 L-29.189129173872686,165.82514911211132 L-40.4296889417156,158.16788171949366 L-37.895918604219844,144.80509998464072 L-26.16179913991415,130.28876818082546 L-17.369019629683777,118.589426485487 L-20.872947949362228,109.51290731253809 L-34.99999999999997,100.00000000000001 L-48.29473215858226,88.32895146602003 L-49.30683233100342,76.35212092462467 L-36.37807936745858,67.25851993973099 L-18.88934079547154,61.37051150340487 L-9.017784836331842,54.84335498091942 L-11.382632356986534,43.24771418243381 L-19.585587302627516,26.717857850773242 L-22.297449273612756,11.14570203614204 L-13.112888285510905,3.39246683835826 L4.540584539815995,4.540584539816038 L21.25656011249204,7.803277573502598 L30.15227984489023,3.8628607923769493 L32.207529675920554,-10.6272570729773 L34.17485088788864,-29.18912917387277 L41.83211828050627,-40.42968894171554 L55.19490001535929,-37.895918604219844 L69.71123181917463,-26.161799139914052 L81.41057351451299,-17.36901962968382 L90.48709268746197,-20.872947949362214 L99.99999999999997,-34.99999999999997 L111.67104853397997,-48.29473215858229 L123.64787907537533,-49.30683233100339 L132.74148006026897,-36.378079367458724 L138.62948849659512,-18.889340795471668 L145.15664501908063,-9.017784836331828 L156.75228581756625,-11.382632356986505 L173.2821421492268,-19.585587302627488 L188.8542979638579,-22.2974492736127 L196.6075331616417,-13.112888285510877 L195.4594154601839,4.540584539816081 L192.1967224264974,21.256560112492025 L196.13713920762305,30.152279844890217 L210.62725707297716,32.20752967592061 L229.18912917387266,34.17485088788868 L240.42968894171554,41.83211828050626 L237.89591860421976,55.194900015359295 L226.16179913991417,69.71123181917459 L217.3690196296838,81.41057351451299 L220.8729479493623,90.48709268746195 L234.99999999999994,99.99999999999997 Z" fill="none" stroke="#00ff00" stroke-width="2" stroke-linecap="round"/></g></g></g><polygon points="100,72 124.24871130596428,86 124.24871130596429,114 100,128 75.75128869403572,114.00000000000001 75.75128869403572,86 " fill="#ff0000" fill-opacity="0.8" stroke="#e10000" stroke-width="4"/><polygon points="100,83.2 114.54922678357858,91.6 114.54922678357858,108.39999999999999 100,116.8 85.45077321642144,108.4 85.45077321642142,91.6 " fill="#ff7f00" fill-opacity="0.8" stroke="#e16100" stroke-width="2"/><circle cx="100" cy="100" r="5" fill="#ffff00" stroke="#d7d700" stroke-width="2"/><polygon points="15,3 27,15 15,27 3,15" fill="#ff0000" fill-opacity="0.4" stroke="#ff0000" stroke-width="2"/><polygon points="185,173 197,185 185,197 173,185" fill="#ff0000" fill-opacity="0.4" stroke="#ff0000" stroke-width="2"/><polygon points="185,5 195,15 185,25 175,15" fill="#ff7f00" fill-opacity="0.3" stroke="#ff7f00" stroke-width="1.6"/><polygon points="15,175 25,185 15,195 5,185" fill="#ff7f00" fill-opacity="0.3" stroke="#ff7f00" stroke-width="1.6"/><rect x="5" y="5" width="190" height="190" fill="none" stroke="#1e3c72" stroke-width="8" stroke-opacity="1"/></svg>