<svg xmlns="http://www.w3.org/2000/svg" width="200" height="200" viewBox="0 0 200 200"><defs></defs><rect width="200" height="200" fill="#ffffff"/><g class="pattern"><g class="symmetry-diagonal-falling"><circle cx="100" cy="100" r="15" fill="none" stroke="#ff6b6b" stroke-width="8.25"/><circle cx="99" cy="99" r="13" fill="none" stroke="#e14d4d" stroke-width="2.75"/><line x1="112" y1="100" x2="118" y2="100" stroke="#ff6b6b" stroke-width="5.5"/><line x1="108.48528137423857" y1="108.48528137423857" x2="112.72792206135786" y2="112.72792206135786" stroke="#ff6b6b" stroke-width="5.5"/><line x1="100" y1="112" x2="100" y2="118" stroke="#ff6b6b" stroke-width="5.5"/><line x1="91.51471862576143" y1="108.48528137423857" x2="87.27207793864214" y2="112.72792206135786" stroke="#ff6b6b" stroke-width="5.5"/><line x1="88" y1="100" x2="82" y2="100" stroke="#ff6b6b" stroke-width="5.5"/><line x1="91.51471862576143" y1="91.51471862576143" x2="87.27207793864214" y2="87.27207793864214" stroke="#ff6b6b" stroke-width="5.5"/><line x1="100" y1="88" x2="100" y2="82" stroke="#ff6b6b" stroke-width="5.5"/><line x1="108.48528137423857" y1="91.51471862576143" x2="112.72792206135784" y2="87.27207793864214" stroke="#ff6b6b" stroke-width="5.5"/><circle cx="100" cy="100" r="35" fill="none" stroke="#ffa726" stroke-width="8.25"/><circle cx="99" cy="99" r="33" fill="none" stroke="#e18908" stroke-width="2.75"/><line x1="132" y1="100" x2="138" y2="100" stroke="#ffa726" stroke-width="5.5"/><line x1="127.71281292110204" y1="116" x2="132.9089653438087" y2="119" stroke="#ffa726" stroke-width="5.5"/><line x1="116" y1="127.71281292110203" x2="119" y2="132.90896534380866" stroke="#ffa726" stroke-width="5.5"/><line x1="100" y1="132" x2="100" y2="138" stroke="#ffa726" stroke-width="5.5"/><line x1="84" y1="127.71281292110204" x2="81" y2="132.9089653438087" stroke="#ffa726" stroke-width="5.5"/><line x1="72.28718707889796" y1="116" x2="67.09103465619133" y2="119" stroke="#ffa726" stroke-width="5.5"/><line x1="68" y1="100" x2="62" y2="100" stroke="#ffa726" stroke-width="5.5"/><line x1="72.28718707889797" y1="84" x2="67.09103465619134" y2="81" stroke="#ffa726" stroke-width="5.5"/><line x1="83.99999999999999" y1="72.28718707889797" x2="80.99999999999999" y2="67.09103465619134" stroke="#ffa726" stroke-width="5.5"/><line x1="100" y1="68" x2="100" y2="62" stroke="#ffa726" stroke-width="5.5"/><line x1="116" y1="72.28718707889797" x2="119" y2="67.09103465619134" stroke="#ffa726" stroke-width="5.5"/><line x1="127.71281292110203" y1="83.99999999999999" x2="132.90896534380866" y2="80.99999999999999" stroke="#ffa726" stroke-width="5.5"/><circle cx="100" cy="100" r="55" fill="none" stroke="#ffcc02" stroke-width="8.25"/><circle cx="99" cy="99" r="53" fill="none" stroke="#e1ae00" stroke-width="2.75"/><line x1="152" y1="100" x2="158" y2="100" stroke="#ffcc02" stroke-width="5.5"/><line x1="148.0417356905869" y1="119.89953848298467" x2="153.58501288565463" y2="122.1956390771752" stroke="#ffcc02" stroke-width="5.5"/><line x1="136.76955262170048" y1="136.76955262170048" x2="141.01219330881975" y2="141.01219330881975" stroke="#ffcc02" stroke-width="5.5"/><line x1="119.89953848298467" y1="148.0417356905869" x2="122.19563907717522" y2="153.58501288565463" stroke="#ffcc02" stroke-width="5.5"/><line x1="100" y1="152" x2="100" y2="158" stroke="#ffcc02" stroke-width="5.5"/><line x1="80.10046151701533" y1="148.0417356905869" x2="77.8043609228248" y2="153.58501288565463" stroke="#ffcc02" stroke-width="5.5"/><line x1="63.23044737829953" y1="136.76955262170048" x2="58.987806691180246" y2="141.01219330881975" stroke="#ffcc02" stroke-width="5.5"/><line x1="51.95826430941309" y1="119.89953848298467" x2="46.41498711434537" y2="122.19563907717522" stroke="#ffcc02" stroke-width="5.5"/><line x1="48" y1="100" x2="42" y2="100" stroke="#ffcc02" stroke-width="5.5"/><line x1="51.95826430941308" y1="80.10046151701533" x2="46.414987114345365" y2="77.8043609228248" stroke="#ffcc02" stroke-width="5.5"/><line x1="63.23044737829952" y1="63.23044737829953" x2="58.98780669118023" y2="58.987806691180246" stroke="#ffcc02" stroke-width="5.5"/><line x1="80.1004615170153" y1="51.9582643094131" x2="77.80436092282476" y2="46.41498711434538" stroke="#ffcc02" stroke-width="5.5"/><line x1="99.99999999999999" y1="48" x2="99.99999999999999" y2="42" stroke="#ffcc02" stroke-width="5.5"/><line x1="119.89953848298468" y1="51.958264309413096" x2="122.19563907717522" y2="46.41498711434537" stroke="#ffcc02" stroke-width="5.5"/><line x1="136.76955262170046" y1="63.23044737829952" x2="141.01219330881975" y2="58.98780669118023" stroke="#ffcc02" stroke-width="5.5"/><line x1="148.0417356905869" y1="80.1004615170153" x2="153.58501288565463" y2="77.80436092282476" stroke="#ffcc02" stroke-width="5.5"/><circle cx="100" cy="100" r="75" fill="none" stroke="#66bb6a" stroke-width="8.25"/><circle cx="99" cy="99" r="73" fill="none" stroke="#489d4c" stroke-width="2.75"/><line x1="172" y1="100" x2="178" y2="100" stroke="#66bb6a" stroke-width="5.5"/><line x1="168.47606917325106" y1="122.24922359499621" x2="174.18240827102198" y2="124.1033255612459" stroke="#66bb6a" stroke-width="5.5"/><line x1="158.2492235949962" y1="142.32053816505805" x2="163.1033255612459" y2="145.84724967881291" stroke="#66bb6a" stroke-width="5.5"/><line x1="142.32053816505805" y1="158.2492235949962" x2="145.84724967881291" y2="163.1033255612459" stroke="#66bb6a" stroke-width="5.5"/><line x1="122.24922359499621" y1="168.47606917325106" x2="124.1033255612459" y2="174.18240827102198" stroke="#66bb6a" stroke-width="5.5"/><line x1="100" y1="172" x2="100" y2="178" stroke="#66bb6a" stroke-width="5.5"/><line x1="77.75077640500379" y1="168.47606917325106" x2="75.8966744387541" y2="174.18240827102198" stroke="#66bb6a" stroke-width="5.5"/><line x1="57.67946183494194" y1="158.2492235949962" x2="54.152750321187106" y2="163.1033255612459" stroke="#66bb6a" stroke-width="5.5"/><line x1="41.75077640500379" y1="142.32053816505808" x2="36.896674438754104" y2="145.84724967881291" stroke="#66bb6a" stroke-width="5.5"/><line x1="31.523930826748952" y1="122.24922359499622" x2="25.81759172897803" y2="124.10332556124591" stroke="#66bb6a" stroke-width="5.5"/><line x1="28" y1="100.00000000000001" x2="22" y2="100.00000000000001" stroke="#66bb6a" stroke-width="5.5"/><line x1="31.523930826748952" y1="77.75077640500376" x2="25.81759172897803" y2="75.89667443875408" stroke="#66bb6a" stroke-width="5.5"/><line x1="41.750776405003776" y1="57.67946183494194" x2="36.89667443875409" y2="54.152750321187106" stroke="#66bb6a" stroke-width="5.5"/><line x1="57.679461834941925" y1="41.75077640500379" x2="54.152750321187085" y2="36.896674438754104" stroke="#66bb6a" stroke-width="5.5"/><line x1="77.75077640500378" y1="31.523930826748952" x2="75.89667443875409" y2="25.81759172897803" stroke="#66bb6a" stroke-width="5.5"/><line x1="99.99999999999999" y1="28" x2="99.99999999999999" y2="22" stroke="#66bb6a" stroke-width="5.5"/><line x1="122.24922359499621" y1="31.523930826748938" x2="124.10332556124588" y2="25.817591728978016" stroke="#66bb6a" stroke-width="5.5"/><line x1="142.32053816505805" y1="41.750776405003776" x2="145.8472496788129" y2="36.89667443875409" stroke="#66bb6a" stroke-width="5.5"/><line x1="158.2492235949962" y1="57.67946183494192" x2="163.1033255612459" y2="54.15275032118708" stroke="#66bb6a" stroke-width="5.5"/><line x1="168.47606917325106" y1="77.75077640500376" x2="174.18240827102198" y2="75.89667443875408" stroke="#66bb6a" stroke-width="5.5"/><circle cx="100" cy="100" r="95" fill="none" stroke="#42a5f5" stroke-width="8.25"/><circle cx="99" cy="99" r="93" fill="none" stroke="#2487d7" stroke-width="2.75"/><line x1="192" y1="100" x2="198" y2="100" stroke="#42a5f5" stroke-width="5.5"/><line x1="188.8651760185943" y1="123.81135214943191" x2="194.6607309763287" y2="125.36426642004703" stroke="#42a5f5" stroke-width="5.5"/><line x1="179.67433714816838" y1="146" x2="184.870489570875" y2="149" stroke="#42a5f5" stroke-width="5.5"/><line x1="165.0538238691624" y1="165.0538238691624" x2="169.29646455628165" y2="169.29646455628165" stroke="#42a5f5" stroke-width="5.5"/><line x1="146" y1="179.67433714816835" x2="149" y2="184.87048957087498" stroke="#42a5f5" stroke-width="5.5"/><line x1="123.81135214943191" y1="188.8651760185943" x2="125.36426642004703" y2="194.6607309763287" stroke="#42a5f5" stroke-width="5.5"/><line x1="100" y1="192" x2="100" y2="198" stroke="#42a5f5" stroke-width="5.5"/><line x1="76.18864785056809" y1="188.8651760185943" x2="74.63573357995296" y2="194.6607309763287" stroke="#42a5f5" stroke-width="5.5"/><line x1="54.00000000000002" y1="179.67433714816838" x2="51.00000000000002" y2="184.870489570875" stroke="#42a5f5" stroke-width="5.5"/><line x1="34.94617613083763" y1="165.0538238691624" x2="30.70353544371835" y2="169.29646455628165" stroke="#42a5f5" stroke-width="5.5"/><line x1="20.325662851831638" y1="146" x2="15.129510429125006" y2="149" stroke="#42a5f5" stroke-width="5.5"/><line x1="11.13482398140573" y1="123.81135214943194" x2="5.339269023671321" y2="125.36426642004706" stroke="#42a5f5" stroke-width="5.5"/><line x1="8" y1="100.00000000000001" x2="2" y2="100.00000000000001" stroke="#42a5f5" stroke-width="5.5"/><line x1="11.134823981405702" y1="76.18864785056813" x2="5.339269023671292" y2="74.63573357995301" stroke="#42a5f5" stroke-width="5.5"/><line x1="20.325662851831652" y1="53.99999999999999" x2="15.12951042912502" y2="50.999999999999986" stroke="#42a5f5" stroke-width="5.5"/><line x1="34.946176130837614" y1="34.94617613083763" x2="30.703535443718323" y2="30.70353544371835" stroke="#42a5f5" stroke-width="5.5"/><line x1="53.99999999999996" y1="20.325662851831666" x2="50.99999999999996" y2="15.129510429125034" stroke="#42a5f5" stroke-width="5.5"/><line x1="76.1886478505681" y1="11.134823981405717" x2="74.63573357995298" y2="5.3392690236713065" stroke="#42a5f5" stroke-width="5.5"/><line x1="99.99999999999999" y1="8" x2="99.99999999999999" y2="2" stroke="#42a5f5" stroke-width="5.5"/><line x1="123.81135214943187" y1="11.134823981405702" x2="125.36426642004699" y2="5.339269023671292" stroke="#42a5f5" stroke-width="5.5"/><line x1="146" y1="20.325662851831652" x2="149" y2="15.12951042912502" stroke="#42a5f5" stroke-width="5.5"/><line x1="165.05382386916236" y1="34.946176130837614" x2="169.29646455628165" y2="30.703535443718323" stroke="#42a5f5" stroke-width="5.5"/><line x1="179.67433714816832" y1="53.99999999999996" x2="184.87048957087495" y2="50.99999999999996" stroke="#42a5f5" stroke-width="5.5"/><line x1="188.8651760185943" y1="76.18864785056809" x2="194.6607309763287" y2="74.63573357995297" stroke="#42a5f5" stroke-width="5.5"/><circle cx="100" cy="100" r="115" fill="none" stroke="#26c6da" stroke-width="8.25"/><circle cx="99" cy="99" r="113" fill="none" stroke="#08a8bc" stroke-width="2.75"/><line x1="212" y1="100" x2="218" y2="100" stroke="#26c6da" stroke-width="5.5"/><line x1="209.19192616436425" y1="124.9223446031072" x2="215.04149363745518" y2="126.2574702068451" stroke="#26c6da" stroke-width="5.5"/><line x1="200.90851320507096" y1="148.5949787811665" x2="206.31432641248546" y2="151.19828121587187" stroke="#26c6da" stroke-width="5.5"/><line x1="187.56512603641934" y1="169.83085780817817" x2="192.2561149312275" y2="173.57179661933054" stroke="#26c6da" stroke-width="5.5"/><line x1="169.83085780817817" y1="187.56512603641934" x2="173.57179661933057" y2="192.2561149312275" stroke="#26c6da" stroke-width="5.5"/><line x1="148.5949787811665" y1="200.90851320507096" x2="151.19828121587187" y2="206.31432641248546" stroke="#26c6da" stroke-width="5.5"/><line x1="124.92234460310722" y1="209.19192616436425" x2="126.25747020684511" y2="215.04149363745518" stroke="#26c6da" stroke-width="5.5"/><line x1="100" y1="212" x2="100.00000000000001" y2="218" stroke="#26c6da" stroke-width="5.5"/><line x1="75.0776553968928" y1="209.19192616436425" x2="73.74252979315492" y2="215.04149363745518" stroke="#26c6da" stroke-width="5.5"/><line x1="51.4050212188335" y1="200.90851320507096" x2="48.80171878412815" y2="206.31432641248546" stroke="#26c6da" stroke-width="5.5"/><line x1="30.169142191821848" y1="187.56512603641934" x2="26.428203380669444" y2="192.25611493122753" stroke="#26c6da" stroke-width="5.5"/><line x1="12.434873963580657" y1="169.83085780817817" x2="7.743885068772485" y2="173.57179661933057" stroke="#26c6da" stroke-width="5.5"/><line x1="-0.9085132050709319" y1="148.59497878116653" x2="-6.314326412485443" y2="151.19828121587187" stroke="#26c6da" stroke-width="5.5"/><line x1="-9.191926164364247" y1="124.92234460310722" x2="-15.04149363745519" y2="126.25747020684511" stroke="#26c6da" stroke-width="5.5"/><line x1="-12" y1="100.00000000000001" x2="-18" y2="100.00000000000001" stroke="#26c6da" stroke-width="5.5"/><line x1="-9.191926164364247" y1="75.0776553968928" x2="-15.04149363745519" y2="73.74252979315492" stroke="#26c6da" stroke-width="5.5"/><line x1="-0.9085132050709461" y1="51.405021218833504" x2="-6.314326412485457" y2="48.801718784128155" stroke="#26c6da" stroke-width="5.5"/><line x1="12.434873963580628" y1="30.169142191821905" x2="7.7438850687724425" y2="26.4282033806695" stroke="#26c6da" stroke-width="5.5"/><line x1="30.16914219182182" y1="12.43487396358067" x2="26.428203380669416" y2="7.743885068772499" stroke="#26c6da" stroke-width="5.5"/><line x1="51.40502121883347" y1="-0.9085132050709319" x2="48.80171878412812" y2="-6.314326412485443" stroke="#26c6da" stroke-width="5.5"/><line x1="75.07765539689277" y1="-9.191926164364247" x2="73.74252979315489" y2="-15.04149363745519" stroke="#26c6da" stroke-width="5.5"/><line x1="99.99999999999999" y1="-12" x2="99.99999999999997" y2="-18" stroke="#26c6da" stroke-width="5.5"/><line x1="124.92234460310719" y1="-9.191926164364247" x2="126.25747020684508" y2="-15.04149363745519" stroke="#26c6da" stroke-width="5.5"/><line x1="148.5949787811665" y1="-0.9085132050709603" x2="151.19828121587184" y2="-6.314326412485471" stroke="#26c6da" stroke-width="5.5"/><line x1="169.83085780817814" y1="12.434873963580657" x2="173.57179661933054" y2="7.743885068772471" stroke="#26c6da" stroke-width="5.5"/><line x1="187.56512603641931" y1="30.16914219182182" x2="192.2561149312275" y2="26.428203380669416" stroke="#26c6da" stroke-width="5.5"/><line x1="200.90851320507093" y1="51.40502121883347" x2="206.31432641248546" y2="48.80171878412811" stroke="#26c6da" stroke-width="5.5"/><line x1="209.19192616436425" y1="75.07765539689277" x2="215.04149363745518" y2="73.74252979315487" stroke="#26c6da" stroke-width="5.5"/><circle cx="100" cy="100" r="8" fill="#ff6b6b" stroke="#d74343" stroke-width="11"/><g transform="translate(0, 0)"><circle cx="100" cy="100" r="15" fill="none" stroke="#ff6b6b" stroke-width="8.25"/><circle cx="99" cy="99" r="13" fill="none" stroke="#e14d4d" stroke-width="2.75"/><line x1="112" y1="100" x2="118" y2="100" stroke="#ff6b6b" stroke-width="5.5"/><line x1="108.48528137423857" y1="108.48528137423857" x2="112.72792206135786" y2="112.72792206135786" stroke="#ff6b6b" stroke-width="5.5"/><line x1="100" y1="112" x2="100" y2="118" stroke="#ff6b6b" stroke-width="5.5"/><line x1="91.51471862576143" y1="108.48528137423857" x2="87.27207793864214" y2="112.72792206135786" stroke="#ff6b6b" stroke-width="5.5"/><line x1="88" y1="100" x2="82" y2="100" stroke="#ff6b6b" stroke-width="5.5"/><line x1="91.51471862576143" y1="91.51471862576143" x2="87.27207793864214" y2="87.27207793864214" stroke="#ff6b6b" stroke-width="5.5"/><line x1="100" y1="88" x2="100" y2="82" stroke="#ff6b6b" stroke-width="5.5"/><line x1="108.48528137423857" y1="91.51471862576143" x2="112.72792206135784" y2="87.27207793864214" stroke="#ff6b6b" stroke-width="5.5"/><circle cx="100" cy="100" r="35" fill="none" stroke="#ffa726" stroke-width="8.25"/><circle cx="99" cy="99" r="33" fill="none" stroke="#e18908" stroke-width="2.75"/><line x1="132" y1="100" x2="138" y2="100" stroke="#ffa726" stroke-width="5.5"/><line x1="127.71281292110204" y1="116" x2="132.9089653438087" y2="119" stroke="#ffa726" stroke-width="5.5"/><line x1="116" y1="127.71281292110203" x2="119" y2="132.90896534380866" stroke="#ffa726" stroke-width="5.5"/><line x1="100" y1="132" x2="100" y2="138" stroke="#ffa726" stroke-width="5.5"/><line x1="84" y1="127.71281292110204" x2="81" y2="132.9089653438087" stroke="#ffa726" stroke-width="5.5"/><line x1="72.28718707889796" y1="116" x2="67.09103465619133" y2="119" stroke="#ffa726" stroke-width="5.5"/><line x1="68" y1="100" x2="62" y2="100" stroke="#ffa726" stroke-width="5.5"/><line x1="72.28718707889797" y1="84" x2="67.09103465619134" y2="81" stroke="#ffa726" stroke-width="5.5"/><line x1="83.99999999999999" y1="72.28718707889797" x2="80.99999999999999" y2="67.09103465619134" stroke="#ffa726" stroke-width="5.5"/><line x1="100" y1="68" x2="100" y2="62" stroke="#ffa726" stroke-width="5.5"/><line x1="116" y1="72.28718707889797" x2="119" y2="67.09103465619134" stroke="#ffa726" stroke-width="5.5"/><line x1="127.71281292110203" y1="83.99999999999999" x2="132.90896534380866" y2="80.99999999999999" stroke="#ffa726" stroke-width="5.5"/><circle cx="100" cy="100" r="55" fill="none" stroke="#ffcc02" stroke-width="8.25"/><circle cx="99" cy="99" r="53" fill="none" stroke="#e1ae00" stroke-width="2.75"/><line x1="152" y1="100" x2="158" y2="100" stroke="#ffcc02" stroke-width="5.5"/><line x1="148.0417356905869" y1="119.89953848298467" x2="153.58501288565463" y2="122.1956390771752" stroke="#ffcc02" stroke-width="5.5"/><line x1="136.76955262170048" y1="136.76955262170048" x2="141.01219330881975" y2="141.01219330881975" stroke="#ffcc02" stroke-width="5.5"/><line x1="119.89953848298467" y1="148.0417356905869" x2="122.19563907717522" y2="153.58501288565463" stroke="#ffcc02" stroke-width="5.5"/><line x1="100" y1="152" x2="100" y2="158" stroke="#ffcc02" stroke-width="5.5"/><line x1="80.10046151701533" y1="148.0417356905869" x2="77.8043609228248" y2="153.58501288565463" stroke="#ffcc02" stroke-width="5.5"/><line x1="63.23044737829953" y1="136.76955262170048" x2="58.987806691180246" y2="141.01219330881975" stroke="#ffcc02" stroke-width="5.5"/><line x1="51.95826430941309" y1="119.89953848298467" x2="46.41498711434537" y2="122.19563907717522" stroke="#ffcc02" stroke-width="5.5"/><line x1="48" y1="100" x2="42" y2="100" stroke="#ffcc02" stroke-width="5.5"/><line x1="51.95826430941308" y1="80.10046151701533" x2="46.414987114345365" y2="77.8043609228248" stroke="#ffcc02" stroke-width="5.5"/><line x1="63.23044737829952" y1="63.23044737829953" x2="58.98780669118023" y2="58.987806691180246" stroke="#ffcc02" stroke-width="5.5"/><line x1="80.1004615170153" y1="51.9582643094131" x2="77.80436092282476" y2="46.41498711434538" stroke="#ffcc02" stroke-width="5.5"/><line x1="99.99999999999999" y1="48" x2="99.99999999999999" y2="42" stroke="#ffcc02" stroke-width="5.5"/><line x1="119.89953848298468" y1="51.958264309413096" x2="122.19563907717522" y2="46.41498711434537" stroke="#ffcc02" stroke-width="5.5"/><line x1="136.76955262170046" y1="63.23044737829952" x2="141.01219330881975" y2="58.98780669118023" stroke="#ffcc02" stroke-width="5.5"/><line x1="148.0417356905869" y1="80.1004615170153" x2="153.58501288565463" y2="77.80436092282476" stroke="#ffcc02" stroke-width="5.5"/><circle cx="100" cy="100" r="75" fill="none" stroke="#66bb6a" stroke-width="8.25"/><circle cx="99" cy="99" r="73" fill="none" stroke="#489d4c" stroke-width="2.75"/><line x1="172" y1="100" x2="178" y2="100" stroke="#66bb6a" stroke-width="5.5"/><line x1="168.47606917325106" y1="122.24922359499621" x2="174.18240827102198" y2="124.1033255612459" stroke="#66bb6a" stroke-width="5.5"/><line x1="158.2492235949962" y1="142.32053816505805" x2="163.1033255612459" y2="145.84724967881291" stroke="#66bb6a" stroke-width="5.5"/><line x1="142.32053816505805" y1="158.2492235949962" x2="145.84724967881291" y2="163.1033255612459" stroke="#66bb6a" stroke-width="5.5"/><line x1="122.24922359499621" y1="168.47606917325106" x2="124.1033255612459" y2="174.18240827102198" stroke="#66bb6a" stroke-width="5.5"/><line x1="100" y1="172" x2="100" y2="178" stroke="#66bb6a" stroke-width="5.5"/><line x1="77.75077640500379" y1="168.47606917325106" x2="75.8966744387541" y2="174.18240827102198" stroke="#66bb6a" stroke-width="5.5"/><line x1="57.67946183494194" y1="158.2492235949962" x2="54.152750321187106" y2="163.1033255612459" stroke="#66bb6a" stroke-width="5.5"/><line x1="41.75077640500379" y1="142.32053816505808" x2="36.896674438754104" y2="145.84724967881291" stroke="#66bb6a" stroke-width="5.5"/><line x1="31.523930826748952" y1="122.24922359499622" x2="25.81759172897803" y2="124.10332556124591" stroke="#66bb6a" stroke-width="5.5"/><line x1="28" y1="100.00000000000001" x2="22" y2="100.00000000000001" stroke="#66bb6a" stroke-width="5.5"/><line x1="31.523930826748952" y1="77.75077640500376" x2="25.81759172897803" y2="75.89667443875408" stroke="#66bb6a" stroke-width="5.5"/><line x1="41.750776405003776" y1="57.67946183494194" x2="36.89667443875409" y2="54.152750321187106" stroke="#66bb6a" stroke-width="5.5"/><line x1="57.679461834941925" y1="41.75077640500379" x2="54.152750321187085" y2="36.896674438754104" stroke="#66bb6a" stroke-width="5.5"/><line x1="77.75077640500378" y1="31.523930826748952" x2="75.89667443875409" y2="25.81759172897803" stroke="#66bb6a" stroke-width="5.5"/><line x1="99.99999999999999" y1="28" x2="99.99999999999999" y2="22" stroke="#66bb6a" stroke-width="5.5"/><line x1="122.24922359499621" y1="31.523930826748938" x2="124.10332556124588" y2="25.817591728978016" stroke="#66bb6a" stroke-width="5.5"/><line x1="142.32053816505805" y1="41.750776405003776" x2="145.8472496788129" y2="36.89667443875409" stroke="#66bb6a" stroke-width="5.5"/><line x1="158.2492235949962" y1="57.67946183494192" x2="163.1033255612459" y2="54.15275032118708" stroke="#66bb6a" stroke-width="5.5"/><line x1="168.47606917325106" y1="77.75077640500376" x2="174.18240827102198" y2="75.89667443875408" stroke="#66bb6a" stroke-width="5.5"/><circle cx="100" cy="100" r="95" fill="none" stroke="#42a5f5" stroke-width="8.25"/><circle cx="99" cy="99" r="93" fill="none" stroke="#2487d7" stroke-width="2.75"/><line x1="192" y1="100" x2="198" y2="100" stroke="#42a5f5" stroke-width="5.5"/><line x1="188.8651760185943" y1="123.81135214943191" x2="194.6607309763287" y2="125.36426642004703" stroke="#42a5f5" stroke-width="5.5"/><line x1="179.67433714816838" y1="146" x2="184.870489570875" y2="149" stroke="#42a5f5" stroke-width="5.5"/><line x1="165.0538238691624" y1="165.0538238691624" x2="169.29646455628165" y2="169.29646455628165" stroke="#42a5f5" stroke-width="5.5"/><line x1="146" y1="179.67433714816835" x2="149" y2="184.87048957087498" stroke="#42a5f5" stroke-width="5.5"/><line x1="123.81135214943191" y1="188.8651760185943" x2="125.36426642004703" y2="194.6607309763287" stroke="#42a5f5" stroke-width="5.5"/><line x1="100" y1="192" x2="100" y2="198" stroke="#42a5f5" stroke-width="5.5"/><line x1="76.18864785056809" y1="188.8651760185943" x2="74.63573357995296" y2="194.6607309763287" stroke="#42a5f5" stroke-width="5.5"/><line x1="54.00000000000002" y1="179.67433714816838" x2="51.00000000000002" y2="184.870489570875" stroke="#42a5f5" stroke-width="5.5"/><line x1="34.94617613083763" y1="165.0538238691624" x2="30.70353544371835" y2="169.29646455628165" stroke="#42a5f5" stroke-width="5.5"/><line x1="20.325662851831638" y1="146" x2="15.129510429125006" y2="149" stroke="#42a5f5" stroke-width="5.5"/><line x1="11.13482398140573" y1="123.81135214943194" x2="5.339269023671321" y2="125.36426642004706" stroke="#42a5f5" stroke-width="5.5"/><line x1="8" y1="100.00000000000001" x2="2" y2="100.00000000000001" stroke="#42a5f5" stroke-width="5.5"/><line x1="11.134823981405702" y1="76.18864785056813" x2="5.339269023671292" y2="74.63573357995301" stroke="#42a5f5" stroke-width="5.5"/><line x1="20.325662851831652" y1="53.99999999999999" x2="15.12951042912502" y2="50.999999999999986" stroke="#42a5f5" stroke-width="5.5"/><line x1="34.946176130837614" y1="34.94617613083763" x2="30.703535443718323" y2="30.70353544371835" stroke="#42a5f5" stroke-width="5.5"/><line x1="53.99999999999996" y1="20.325662851831666" x2="50.99999999999996" y2="15.129510429125034" stroke="#42a5f5" stroke-width="5.5"/><line x1="76.1886478505681" y1="11.134823981405717" x2="74.63573357995298" y2="5.3392690236713065" stroke="#42a5f5" stroke-width="5.5"/><line x1="99.99999999999999" y1="8" x2="99.99999999999999" y2="2" stroke="#42a5f5" stroke-width="5.5"/><line x1="123.81135214943187" y1="11.134823981405702" x2="125.36426642004699" y2="5.339269023671292" stroke="#42a5f5" stroke-width="5.5"/><line x1="146" y1="20.325662851831652" x2="149" y2="15.12951042912502" stroke="#42a5f5" stroke-width="5.5"/><line x1="165.05382386916236" y1="34.946176130837614" x2="169.29646455628165" y2="30.703535443718323" stroke="#42a5f5" stroke-width="5.5"/><line x1="179.67433714816832" y1="53.99999999999996" x2="184.87048957087495" y2="50.99999999999996" stroke="#42a5f5" stroke-width="5.5"/><line x1="188.8651760185943" y1="76.18864785056809" x2="194.6607309763287" y2="74.63573357995297" stroke="#42a5f5" stroke-width="5.5"/><circle cx="100" cy="100" r="115" fill="none" stroke="#26c6da" stroke-width="8.25"/><circle cx="99" cy="99" r="113" fill="none" stroke="#08a8bc" stroke-width="2.75"/><line x1="212" y1="100" x2="218" y2="100" stroke="#26c6da" stroke-width="5.5"/><line x1="209.19192616436425" y1="124.9223446031072" x2="215.04149363745518" y2="126.2574702068451" stroke="#26c6da" stroke-width="5.5"/><line x1="200.90851320507096" y1="148.5949787811665" x2="206.31432641248546" y2="151.19828121587187" stroke="#26c6da" stroke-width="5.5"/><line x1="187.56512603641934" y1="169.83085780817817" x2="192.2561149312275" y2="173.57179661933054" stroke="#26c6da" stroke-width="5.5"/><line x1="169.83085780817817" y1="187.56512603641934" x2="173.57179661933057" y2="192.2561149312275" stroke="#26c6da" stroke-width="5.5"/><line x1="148.5949787811665" y1="200.90851320507096" x2="151.19828121587187" y2="206.31432641248546" stroke="#26c6da" stroke-width="5.5"/><line x1="124.92234460310722" y1="209.19192616436425" x2="126.25747020684511" y2="215.04149363745518" stroke="#26c6da" stroke-width="5.5"/><line x1="100" y1="212" x2="100.00000000000001" y2="218" stroke="#26c6da" stroke-width="5.5"/><line x1="75.0776553968928" y1="209.19192616436425" x2="73.74252979315492" y2="215.04149363745518" stroke="#26c6da" stroke-width="5.5"/><line x1="51.4050212188335" y1="200.90851320507096" x2="48.80171878412815" y2="206.31432641248546" stroke="#26c6da" stroke-width="5.5"/><line x1="30.169142191821848" y1="187.56512603641934" x2="26.428203380669444" y2="192.25611493122753" stroke="#26c6da" stroke-width="5.5"/><line x1="12.434873963580657" y1="169.83085780817817" x2="7.743885068772485" y2="173.57179661933057" stroke="#26c6da" stroke-width="5.5"/><line x1="-0.9085132050709319" y1="148.59497878116653" x2="-6.314326412485443" y2="151.19828121587187" stroke="#26c6da" stroke-width="5.5"/><line x1="-9.191926164364247" y1="124.92234460310722" x2="-15.04149363745519" y2="126.25747020684511" stroke="#26c6da" stroke-width="5.5"/><line x1="-12" y1="100.00000000000001" x2="-18" y2="100.00000000000001" stroke="#26c6da" stroke-width="5.5"/><line x1="-9.191926164364247" y1="75.0776553968928" x2="-15.04149363745519" y2="73.74252979315492" stroke="#26c6da" stroke-width="5.5"/><line x1="-0.9085132050709461" y1="51.405021218833504" x2="-6.314326412485457" y2="48.801718784128155" stroke="#26c6da" stroke-width="5.5"/><line x1="12.434873963580628" y1="30.169142191821905" x2="7.7438850687724425" y2="26.4282033806695" stroke="#26c6da" stroke-width="5.5"/><line x1="30.16914219182182" y1="12.43487396358067" x2="26.428203380669416" y2="7.743885068772499" stroke="#26c6da" stroke-width="5.5"/><line x1="51.40502121883347" y1="-0.9085132050709319" x2="48.80171878412812" y2="-6.314326412485443" stroke="#26c6da" stroke-width="5.5"/><line x1="75.07765539689277" y1="-9.191926164364247" x2="73.74252979315489" y2="-15.04149363745519" stroke="#26c6da" stroke-width="5.5"/><line x1="99.99999999999999" y1="-12" x2="99.99999999999997" y2="-18" stroke="#26c6da" stroke-width="5.5"/><line x1="124.92234460310719" y1="-9.191926164364247" x2="126.25747020684508" y2="-15.04149363745519" stroke="#26c6da" stroke-width="5.5"/><line x1="148.5949787811665" y1="-0.9085132050709603" x2="151.19828121587184" y2="-6.314326412485471" stroke="#26c6da" stroke-width="5.5"/><line x1="169.83085780817814" y1="12.434873963580657" x2="173.57179661933054" y2="7.743885068772471" stroke="#26c6da" stroke-width="5.5"/><line x1="187.56512603641931" y1="30.16914219182182" x2="192.2561149312275" y2="26.428203380669416" stroke="#26c6da" stroke-width="5.5"/><line x1="200.90851320507093" y1="51.40502121883347" x2="206.31432641248546" y2="48.80171878412811" stroke="#26c6da" stroke-width="5.5"/><line x1="209.19192616436425" y1="75.07765539689277" x2="215.04149363745518" y2="73.74252979315487" stroke="#26c6da" stroke-width="5.5"/><circle cx="100" cy="100" r="8" fill="#ff6b6b" stroke="#d74343" stroke-width="11"/></g><g transform="matrix(0, 1, 1, 0, 0, 0)"><circle cx="100" cy="100" r="15" fill="none" stroke="#ff6b6b" stroke-width="8.25"/><circle cx="99" cy="99" r="13" fill="none" stroke="#e14d4d" stroke-width="2.75"/><line x1="112" y1="100" x2="118" y2="100" stroke="#ff6b6b" stroke-width="5.5"/><line x1="108.48528137423857" y1="108.48528137423857" x2="112.72792206135786" y2="112.72792206135786" stroke="#ff6b6b" stroke-width="5.5"/><line x1="100" y1="112" x2="100" y2="118" stroke="#ff6b6b" stroke-width="5.5"/><line x1="91.51471862576143" y1="108.48528137423857" x2="87.27207793864214" y2="112.72792206135786" stroke="#ff6b6b" stroke-width="5.5"/><line x1="88" y1="100" x2="82" y2="100" stroke="#ff6b6b" stroke-width="5.5"/><line x1="91.51471862576143" y1="91.51471862576143" x2="87.27207793864214" y2="87.27207793864214" stroke="#ff6b6b" stroke-width="5.5"/><line x1="100" y1="88" x2="100" y2="82" stroke="#ff6b6b" stroke-width="5.5"/><line x1="108.48528137423857" y1="91.51471862576143" x2="112.72792206135784" y2="87.27207793864214" stroke="#ff6b6b" stroke-width="5.5"/><circle cx="100" cy="100" r="35" fill="none" stroke="#ffa726" stroke-width="8.25"/><circle cx="99" cy="99" r="33" fill="none" stroke="#e18908" stroke-width="2.75"/><line x1="132" y1="100" x2="138" y2="100" stroke="#ffa726" stroke-width="5.5"/><line x1="127.71281292110204" y1="116" x2="132.9089653438087" y2="119" stroke="#ffa726" stroke-width="5.5"/><line x1="116" y1="127.71281292110203" x2="119" y2="132.90896534380866" stroke="#ffa726" stroke-width="5.5"/><line x1="100" y1="132" x2="100" y2="138" stroke="#ffa726" stroke-width="5.5"/><line x1="84" y1="127.71281292110204" x2="81" y2="132.9089653438087" stroke="#ffa726" stroke-width="5.5"/><line x1="72.28718707889796" y1="116" x2="67.09103465619133" y2="119" stroke="#ffa726" stroke-width="5.5"/><line x1="68" y1="100" x2="62" y2="100" stroke="#ffa726" stroke-width="5.5"/><line x1="72.28718707889797" y1="84" x2="67.09103465619134" y2="81" stroke="#ffa726" stroke-width="5.5"/><line x1="83.99999999999999" y1="72.28718707889797" x2="80.99999999999999" y2="67.09103465619134" stroke="#ffa726" stroke-width="5.5"/><line x1="100" y1="68" x2="100" y2="62" stroke="#ffa726" stroke-width="5.5"/><line x1="116" y1="72.28718707889797" x2="119" y2="67.09103465619134" stroke="#ffa726" stroke-width="5.5"/><line x1="127.71281292110203" y1="83.99999999999999" x2="132.90896534380866" y2="80.99999999999999" stroke="#ffa726" stroke-width="5.5"/><circle cx="100" cy="100" r="55" fill="none" stroke="#ffcc02" stroke-width="8.25"/><circle cx="99" cy="99" r="53" fill="none" stroke="#e1ae00" stroke-width="2.75"/><line x1="152" y1="100" x2="158" y2="100" stroke="#ffcc02" stroke-width="5.5"/><line x1="148.0417356905869" y1="119.89953848298467" x2="153.58501288565463" y2="122.1956390771752" stroke="#ffcc02" stroke-width="5.5"/><line x1="136.76955262170048" y1="136.76955262170048" x2="141.01219330881975" y2="141.01219330881975" stroke="#ffcc02" stroke-width="5.5"/><line x1="119.89953848298467" y1="148.0417356905869" x2="122.19563907717522" y2="153.58501288565463" stroke="#ffcc02" stroke-width="5.5"/><line x1="100" y1="152" x2="100" y2="158" stroke="#ffcc02" stroke-width="5.5"/><line x1="80.10046151701533" y1="148.0417356905869" x2="77.8043609228248" y2="153.58501288565463" stroke="#ffcc02" stroke-width="5.5"/><line x1="63.23044737829953" y1="136.76955262170048" x2="58.987806691180246" y2="141.01219330881975" stroke="#ffcc02" stroke-width="5.5"/><line x1="51.95826430941309" y1="119.89953848298467" x2="46.41498711434537" y2="122.19563907717522" stroke="#ffcc02" stroke-width="5.5"/><line x1="48" y1="100" x2="42" y2="100" stroke="#ffcc02" stroke-width="5.5"/><line x1="51.95826430941308" y1="80.10046151701533" x2="46.414987114345365" y2="77.8043609228248" stroke="#ffcc02" stroke-width="5.5"/><line x1="63.23044737829952" y1="63.23044737829953" x2="58.98780669118023" y2="58.987806691180246" stroke="#ffcc02" stroke-width="5.5"/><line x1="80.1004615170153" y1="51.9582643094131" x2="77.80436092282476" y2="46.41498711434538" stroke="#ffcc02" stroke-width="5.5"/><line x1="99.99999999999999" y1="48" x2="99.99999999999999" y2="42" stroke="#ffcc02" stroke-width="5.5"/><line x1="119.89953848298468" y1="51.958264309413096" x2="122.19563907717522" y2="46.41498711434537" stroke="#ffcc02" stroke-width="5.5"/><line x1="136.76955262170046" y1="63.23044737829952" x2="141.01219330881975" y2="58.98780669118023" stroke="#ffcc02" stroke-width="5.5"/><line x1="148.0417356905869" y1="80.1004615170153" x2="153.58501288565463" y2="77.80436092282476" stroke="#ffcc02" stroke-width="5.5"/><circle cx="100" cy="100" r="75" fill="none" stroke="#66bb6a" stroke-width="8.25"/><circle cx="99" cy="99" r="73" fill="none" stroke="#489d4c" stroke-width="2.75"/><line x1="172" y1="100" x2="178" y2="100" stroke="#66bb6a" stroke-width="5.5"/><line x1="168.47606917325106" y1="122.24922359499621" x2="174.18240827102198" y2="124.1033255612459" stroke="#66bb6a" stroke-width="5.5"/><line x1="158.2492235949962" y1="142.32053816505805" x2="163.1033255612459" y2="145.84724967881291" stroke="#66bb6a" stroke-width="5.5"/><line x1="142.32053816505805" y1="158.2492235949962" x2="145.84724967881291" y2="163.1033255612459" stroke="#66bb6a" stroke-width="5.5"/><line x1="122.24922359499621" y1="168.47606917325106" x2="124.1033255612459" y2="174.18240827102198" stroke="#66bb6a" stroke-width="5.5"/><line x1="100" y1="172" x2="100" y2="178" stroke="#66bb6a" stroke-width="5.5"/><line x1="77.75077640500379" y1="168.47606917325106" x2="75.8966744387541" y2="174.18240827102198" stroke="#66bb6a" stroke-width="5.5"/><line x1="57.67946183494194" y1="158.2492235949962" x2="54.152750321187106" y2="163.1033255612459" stroke="#66bb6a" stroke-width="5.5"/><line x1="41.75077640500379" y1="142.32053816505808" x2="36.896674438754104" y2="145.84724967881291" stroke="#66bb6a" stroke-width="5.5"/><line x1="31.523930826748952" y1="122.24922359499622" x2="25.81759172897803" y2="124.10332556124591" stroke="#66bb6a" stroke-width="5.5"/><line x1="28" y1="100.00000000000001" x2="22" y2="100.00000000000001" stroke="#66bb6a" stroke-width="5.5"/><line x1="31.523930826748952" y1="77.75077640500376" x2="25.81759172897803" y2="75.89667443875408" stroke="#66bb6a" stroke-width="5.5"/><line x1="41.750776405003776" y1="57.67946183494194" x2="36.89667443875409" y2="54.152750321187106" stroke="#66bb6a" stroke-width="5.5"/><line x1="57.679461834941925" y1="41.75077640500379" x2="54.152750321187085" y2="36.896674438754104" stroke="#66bb6a" stroke-width="5.5"/><line x1="77.75077640500378" y1="31.523930826748952" x2="75.89667443875409" y2="25.81759172897803" stroke="#66bb6a" stroke-width="5.5"/><line x1="99.99999999999999" y1="28" x2="99.99999999999999" y2="22" stroke="#66bb6a" stroke-width="5.5"/><line x1="122.24922359499621" y1="31.523930826748938" x2="124.10332556124588" y2="25.817591728978016" stroke="#66bb6a" stroke-width="5.5"/><line x1="142.32053816505805" y1="41.750776405003776" x2="145.8472496788129" y2="36.89667443875409" stroke="#66bb6a" stroke-width="5.5"/><line x1="158.2492235949962" y1="57.67946183494192" x2="163.1033255612459" y2="54.15275032118708" stroke="#66bb6a" stroke-width="5.5"/><line x1="168.47606917325106" y1="77.75077640500376" x2="174.18240827102198" y2="75.89667443875408" stroke="#66bb6a" stroke-width="5.5"/><circle cx="100" cy="100" r="95" fill="none" stroke="#42a5f5" stroke-width="8.25"/><circle cx="99" cy="99" r="93" fill="none" stroke="#2487d7" stroke-width="2.75"/><line x1="192" y1="100" x2="198" y2="100" stroke="#42a5f5" stroke-width="5.5"/><line x1="188.8651760185943" y1="123.81135214943191" x2="194.6607309763287" y2="125.36426642004703" stroke="#42a5f5" stroke-width="5.5"/><line x1="179.67433714816838" y1="146" x2="184.870489570875" y2="149" stroke="#42a5f5" stroke-width="5.5"/><line x1="165.0538238691624" y1="165.0538238691624" x2="169.29646455628165" y2="169.29646455628165" stroke="#42a5f5" stroke-width="5.5"/><line x1="146" y1="179.67433714816835" x2="149" y2="184.87048957087498" stroke="#42a5f5" stroke-width="5.5"/><line x1="123.81135214943191" y1="188.8651760185943" x2="125.36426642004703" y2="194.6607309763287" stroke="#42a5f5" stroke-width="5.5"/><line x1="100" y1="192" x2="100" y2="198" stroke="#42a5f5" stroke-width="5.5"/><line x1="76.18864785056809" y1="188.8651760185943" x2="74.63573357995296" y2="194.6607309763287" stroke="#42a5f5" stroke-width="5.5"/><line x1="54.00000000000002" y1="179.67433714816838" x2="51.00000000000002" y2="184.870489570875" stroke="#42a5f5" stroke-width="5.5"/><line x1="34.94617613083763" y1="165.0538238691624" x2="30.70353544371835" y2="169.29646455628165" stroke="#42a5f5" stroke-width="5.5"/><line x1="20.325662851831638" y1="146" x2="15.129510429125006" y2="149" stroke="#42a5f5" stroke-width="5.5"/><line x1="11.13482398140573" y1="123.81135214943194" x2="5.339269023671321" y2="125.36426642004706" stroke="#42a5f5" stroke-width="5.5"/><line x1="8" y1="100.00000000000001" x2="2" y2="100.00000000000001" stroke="#42a5f5" stroke-width="5.5"/><line x1="11.134823981405702" y1="76.18864785056813" x2="5.339269023671292" y2="74.63573357995301" stroke="#42a5f5" stroke-width="5.5"/><line x1="20.325662851831652" y1="53.99999999999999" x2="15.12951042912502" y2="50.999999999999986" stroke="#42a5f5" stroke-width="5.5"/><line x1="34.946176130837614" y1="34.94617613083763" x2="30.703535443718323" y2="30.70353544371835" stroke="#42a5f5" stroke-width="5.5"/><line x1="53.99999999999996" y1="20.325662851831666" x2="50.99999999999996" y2="15.129510429125034" stroke="#42a5f5" stroke-width="5.5"/><line x1="76.1886478505681" y1="11.134823981405717" x2="74.63573357995298" y2="5.3392690236713065" stroke="#42a5f5" stroke-width="5.5"/><line x1="99.99999999999999" y1="8" x2="99.99999999999999" y2="2" stroke="#42a5f5" stroke-width="5.5"/><line x1="123.81135214943187" y1="11.134823981405702" x2="125.36426642004699" y2="5.339269023671292" stroke="#42a5f5" stroke-width="5.5"/><line x1="146" y1="20.325662851831652" x2="149" y2="15.12951042912502" stroke="#42a5f5" stroke-width="5.5"/><line x1="165.05382386916236" y1="34.946176130837614" x2="169.29646455628165" y2="30.703535443718323" stroke="#42a5f5" stroke-width="5.5"/><line x1="179.67433714816832" y1="53.99999999999996" x2="184.87048957087495" y2="50.99999999999996" stroke="#42a5f5" stroke-width="5.5"/><line x1="188.8651760185943" y1="76.18864785056809" x2="194.6607309763287" y2="74.63573357995297" stroke="#42a5f5" stroke-width="5.5"/><circle cx="100" cy="100" r="115" fill="none" stroke="#26c6da" stroke-width="8.25"/><circle cx="99" cy="99" r="113" fill="none" stroke="#08a8bc" stroke-width="2.75"/><line x1="212" y1="100" x2="218" y2="100" stroke="#26c6da" stroke-width="5.5"/><line x1="209.19192616436425" y1="124.9223446031072" x2="215.04149363745518" y2="126.2574702068451" stroke="#26c6da" stroke-width="5.5"/><line x1="200.90851320507096" y1="148.5949787811665" x2="206.31432641248546" y2="151.19828121587187" stroke="#26c6da" stroke-width="5.5"/><line x1="187.56512603641934" y1="169.83085780817817" x2="192.2561149312275" y2="173.57179661933054" stroke="#26c6da" stroke-width="5.5"/><line x1="169.83085780817817" y1="187.56512603641934" x2="173.57179661933057" y2="192.2561149312275" stroke="#26c6da" stroke-width="5.5"/><line x1="148.5949787811665" y1="200.90851320507096" x2="151.19828121587187" y2="206.31432641248546" stroke="#26c6da" stroke-width="5.5"/><line x1="124.92234460310722" y1="209.19192616436425" x2="126.25747020684511" y2="215.04149363745518" stroke="#26c6da" stroke-width="5.5"/><line x1="100" y1="212" x2="100.00000000000001" y2="218" stroke="#26c6da" stroke-width="5.5"/><line x1="75.0776553968928" y1="209.19192616436425" x2="73.74252979315492" y2="215.04149363745518" stroke="#26c6da" stroke-width="5.5"/><line x1="51.4050212188335" y1="200.90851320507096" x2="48.80171878412815" y2="206.31432641248546" stroke="#26c6da" stroke-width="5.5"/><line x1="30.169142191821848" y1="187.56512603641934" x2="26.428203380669444" y2="192.25611493122753" stroke="#26c6da" stroke-width="5.5"/><line x1="12.434873963580657" y1="169.83085780817817" x2="7.743885068772485" y2="173.57179661933057" stroke="#26c6da" stroke-width="5.5"/><line x1="-0.9085132050709319" y1="148.59497878116653" x2="-6.314326412485443" y2="151.19828121587187" stroke="#26c6da" stroke-width="5.5"/><line x1="-9.191926164364247" y1="124.92234460310722" x2="-15.04149363745519" y2="126.25747020684511" stroke="#26c6da" stroke-width="5.5"/><line x1="-12" y1="100.00000000000001" x2="-18" y2="100.00000000000001" stroke="#26c6da" stroke-width="5.5"/><line x1="-9.191926164364247" y1="75.0776553968928" x2="-15.04149363745519" y2="73.74252979315492" stroke="#26c6da" stroke-width="5.5"/><line x1="-0.9085132050709461" y1="51.405021218833504" x2="-6.314326412485457" y2="48.801718784128155" stroke="#26c6da" stroke-width="5.5"/><line x1="12.434873963580628" y1="30.169142191821905" x2="7.7438850687724425" y2="26.4282033806695" stroke="#26c6da" stroke-width="5.5"/><line x1="30.16914219182182" y1="12.43487396358067" x2="26.428203380669416" y2="7.743885068772499" stroke="#26c6da" stroke-width="5.5"/><line x1="51.40502121883347" y1="-0.9085132050709319" x2="48.80171878412812" y2="-6.314326412485443" stroke="#26c6da" stroke-width="5.5"/><line x1="75.07765539689277" y1="-9.191926164364247" x2="73.74252979315489" y2="-15.04149363745519" stroke="#26c6da" stroke-width="5.5"/><line x1="99.99999999999999" y1="-12" x2="99.99999999999997" y2="-18" stroke="#26c6da" stroke-width="5.5"/><line x1="124.92234460310719" y1="-9.191926164364247" x2="126.25747020684508" y2="-15.04149363745519" stroke="#26c6da" stroke-width="5.5"/><line x1="148.5949787811665" y1="-0.9085132050709603" x2="151.19828121587184" y2="-6.314326412485471" stroke="#26c6da" stroke-width="5.5"/><line x1="169.83085780817814" y1="12.434873963580657" x2="173.57179661933054" y2="7.743885068772471" stroke="#26c6da" stroke-width="5.5"/><line x1="187.56512603641931" y1="30.16914219182182" x2="192.2561149312275" y2="26.428203380669416" stroke="#26c6da" stroke-width="5.5"/><line x1="200.90851320507093" y1="51.40502121883347" x2="206.31432641248546" y2="48.80171878412811" stroke="#26c6da" stroke-width="5.5"/><line x1="209.19192616436425" y1="75.07765539689277" x2="215.04149363745518" y2="73.74252979315487" stroke="#26c6da" stroke-width="5.5"/><circle cx="100" cy="100" r="8" fill="#ff6b6b" stroke="#d74343" stroke-width="11"/></g></g></g><path d="M100,100 Q92.9904698384443,83.42090210794807 100,72 Q107.00953016155572,83.42090210794807 100,100" fill="#ff6b6b" fill-opacity="0.8" stroke="#e14d4d" stroke-width="2"/><path d="M100,100 Q106.76670623525784,83.3203211444068 119.79898987322333,80.20101012677668 Q116.6796788555932,93.23329376474216 100,100" fill="#ffa726" fill-opacity="0.8" stroke="#e18908" stroke-width="2"/><path d="M100,100 Q116.57909789205193,92.99046983844428 128,100 Q116.57909789205193,107.00953016155572 100,100" fill="#ffcc02" fill-opacity="0.8" stroke="#e1ae00" stroke-width="2"/><path d="M100,100 Q116.6796788555932,106.76670623525784 119.79898987322333,119.79898987322332 Q106.76670623525784,116.6796788555932 100,100" fill="#66bb6a" fill-opacity="0.8" stroke="#489d4c" stroke-width="2"/><path d="M100,100 Q107.00953016155572,116.57909789205193 100,128 Q92.9904698384443,116.57909789205193 100,100" fill="#42a5f5" fill-opacity="0.8" stroke="#2487d7" stroke-width="2"/><path d="M100,100 Q93.23329376474216,116.6796788555932 80.20101012677668,119.79898987322333 Q83.3203211444068,106.76670623525784 100,100" fill="#26c6da" fill-opacity="0.8" stroke="#08a8bc" stroke-width="2"/><path d="M100,100 Q83.42090210794807,107.00953016155572 72,100 Q83.42090210794807,92.9904698384443 100,100" fill="#ff6b6b" fill-opacity="0.8" stroke="#e14d4d" stroke-width="2"/><path d="M100,100 Q83.3203211444068,93.23329376474216 80.20101012677667,80.20101012677668 Q93.23329376474217,83.3203211444068 100,100" fill="#ffa726" fill-opacity="0.8" stroke="#e18908" stroke-width="2"/><circle cx="100" cy="100" r="10" fill="#ff6b6b" stroke="#d74343" stroke-width="4"/><circle cx="15" cy="15" r="8" fill="none" stroke="#ff6b6b" stroke-width="2" stroke-opacity="1"/><circle cx="185" cy="185" r="8" fill="none" stroke="#ff6b6b" stroke-width="2" stroke-opacity="1"/><circle cx="185" cy="15" r="6" fill="none" stroke="#ffa726" stroke-width="1.6" stroke-opacity="1"/><circle cx="15" cy="185" r="6" fill="none" stroke="#ffa726" stroke-width="1.6" stroke-opacity="1"/><rect x="5" y="5" width="190" height="190" fill="none" stroke="#1e3c72" stroke-width="8" stroke-opacity="1"/></svg>