<svg xmlns="http://www.w3.org/2000/svg" width="200" height="200" viewBox="0 0 200 200"><defs></defs><rect width="200" height="200" fill="#ffffff"/><g class="pattern"><g class="symmetry-diagonal-falling"><ellipse cx="145" cy="100" rx="18" ry="10" transform="rotate(0, 145, 100)" fill="none" stroke="#ff6b6b" stroke-width="11"/><ellipse cx="131.81980515339464" cy="131.81980515339464" rx="18" ry="10" transform="rotate(45, 131.81980515339464, 131.81980515339464)" fill="none" stroke="#ffa726" stroke-width="11"/><ellipse cx="100" cy="145" rx="18" ry="10" transform="rotate(90, 100, 145)" fill="none" stroke="#ffcc02" stroke-width="11"/><ellipse cx="68.18019484660536" cy="131.81980515339464" rx="18" ry="10" transform="rotate(135, 68.18019484660536, 131.81980515339464)" fill="none" stroke="#66bb6a" stroke-width="11"/><ellipse cx="55" cy="100" rx="18" ry="10" transform="rotate(180, 55, 100)" fill="none" stroke="#42a5f5" stroke-width="11"/><ellipse cx="68.18019484660536" cy="68.18019484660536" rx="18" ry="10" transform="rotate(225, 68.18019484660536, 68.18019484660536)" fill="none" stroke="#26c6da" stroke-width="11"/><ellipse cx="99.99999999999999" cy="55" rx="18" ry="10" transform="rotate(270, 99.99999999999999, 55)" fill="none" stroke="#ff6b6b" stroke-width="11"/><ellipse cx="131.81980515339464" cy="68.18019484660536" rx="18" ry="10" transform="rotate(315, 131.81980515339464, 68.18019484660536)" fill="none" stroke="#ffa726" stroke-width="11"/><line x1="145" y1="100" x2="131.81980515339464" y2="131.81980515339464" stroke="#ff6b6b" stroke-width="11"/><line x1="131.81980515339464" y1="131.81980515339464" x2="100" y2="145" stroke="#ff6b6b" stroke-width="11"/><line x1="100" y1="145" x2="68.18019484660536" y2="131.81980515339464" stroke="#ff6b6b" stroke-width="11"/><line x1="68.18019484660536" y1="131.81980515339464" x2="55" y2="100" stroke="#ff6b6b" stroke-width="11"/><line x1="55" y1="100" x2="68.18019484660536" y2="68.18019484660536" stroke="#ff6b6b" stroke-width="11"/><line x1="68.18019484660536" y1="68.18019484660536" x2="99.99999999999999" y2="55" stroke="#ff6b6b" stroke-width="11"/><line x1="99.99999999999999" y1="55" x2="131.81980515339464" y2="68.18019484660536" stroke="#ff6b6b" stroke-width="11"/><line x1="131.81980515339464" y1="68.18019484660536" x2="145" y2="99.99999999999999" stroke="#ff6b6b" stroke-width="11"/><g transform="translate(0, 0)"><ellipse cx="145" cy="100" rx="18" ry="10" transform="rotate(0, 145, 100)" fill="none" stroke="#ff6b6b" stroke-width="11"/><ellipse cx="131.81980515339464" cy="131.81980515339464" rx="18" ry="10" transform="rotate(45, 131.81980515339464, 131.81980515339464)" fill="none" stroke="#ffa726" stroke-width="11"/><ellipse cx="100" cy="145" rx="18" ry="10" transform="rotate(90, 100, 145)" fill="none" stroke="#ffcc02" stroke-width="11"/><ellipse cx="68.18019484660536" cy="131.81980515339464" rx="18" ry="10" transform="rotate(135, 68.18019484660536, 131.81980515339464)" fill="none" stroke="#66bb6a" stroke-width="11"/><ellipse cx="55" cy="100" rx="18" ry="10" transform="rotate(180, 55, 100)" fill="none" stroke="#42a5f5" stroke-width="11"/><ellipse cx="68.18019484660536" cy="68.18019484660536" rx="18" ry="10" transform="rotate(225, 68.18019484660536, 68.18019484660536)" fill="none" stroke="#26c6da" stroke-width="11"/><ellipse cx="99.99999999999999" cy="55" rx="18" ry="10" transform="rotate(270, 99.99999999999999, 55)" fill="none" stroke="#ff6b6b" stroke-width="11"/><ellipse cx="131.81980515339464" cy="68.18019484660536" rx="18" ry="10" transform="rotate(315, 131.81980515339464, 68.18019484660536)" fill="none" stroke="#ffa726" stroke-width="11"/><line x1="145" y1="100" x2="131.81980515339464" y2="131.81980515339464" stroke="#ff6b6b" stroke-width="11"/><line x1="131.81980515339464" y1="131.81980515339464" x2="100" y2="145" stroke="#ff6b6b" stroke-width="11"/><line x1="100" y1="145" x2="68.18019484660536" y2="131.81980515339464" stroke="#ff6b6b" stroke-width="11"/><line x1="68.18019484660536" y1="131.81980515339464" x2="55" y2="100" stroke="#ff6b6b" stroke-width="11"/><line x1="55" y1="100" x2="68.18019484660536" y2="68.18019484660536" stroke="#ff6b6b" stroke-width="11"/><line x1="68.18019484660536" y1="68.18019484660536" x2="99.99999999999999" y2="55" stroke="#ff6b6b" stroke-width="11"/><line x1="99.99999999999999" y1="55" x2="131.81980515339464" y2="68.18019484660536" stroke="#ff6b6b" stroke-width="11"/><line x1="131.81980515339464" y1="68.18019484660536" x2="145" y2="99.99999999999999" stroke="#ff6b6b" stroke-width="11"/></g><g transform="matrix(0, 1, 1, 0, 0, 0)"><ellipse cx="145" cy="100" rx="18" ry="10" transform="rotate(0, 145, 100)" fill="none" stroke="#ff6b6b" stroke-width="11"/><ellipse cx="131.81980515339464" cy="131.81980515339464" rx="18" ry="10" transform="rotate(45, 131.81980515339464, 131.81980515339464)" fill="none" stroke="#ffa726" stroke-width="11"/><ellipse cx="100" cy="145" rx="18" ry="10" transform="rotate(90, 100, 145)" fill="none" stroke="#ffcc02" stroke-width="11"/><ellipse cx="68.18019484660536" cy="131.81980515339464" rx="18" ry="10" transform="rotate(135, 68.18019484660536, 131.81980515339464)" fill="none" stroke="#66bb6a" stroke-width="11"/><ellipse cx="55" cy="100" rx="18" ry="10" transform="rotate(180, 55, 100)" fill="none" stroke="#42a5f5" stroke-width="11"/><ellipse cx="68.18019484660536" cy="68.18019484660536" rx="18" ry="10" transform="rotate(225, 68.18019484660536, 68.18019484660536)" fill="none" stroke="#26c6da" stroke-width="11"/><ellipse cx="99.99999999999999" cy="55" rx="18" ry="10" transform="rotate(270, 99.99999999999999, 55)" fill="none" stroke="#ff6b6b" stroke-width="11"/><ellipse cx="131.81980515339464" cy="68.18019484660536" rx="18" ry="10" transform="rotate(315, 131.81980515339464, 68.18019484660536)" fill="none" stroke="#ffa726" stroke-width="11"/><line x1="145" y1="100" x2="131.81980515339464" y2="131.81980515339464" stroke="#ff6b6b" stroke-width="11"/><line x1="131.81980515339464" y1="131.81980515339464" x2="100" y2="145" stroke="#ff6b6b" stroke-width="11"/><line x1="100" y1="145" x2="68.18019484660536" y2="131.81980515339464" stroke="#ff6b6b" stroke-width="11"/><line x1="68.18019484660536" y1="131.81980515339464" x2="55" y2="100" stroke="#ff6b6b" stroke-width="11"/><line x1="55" y1="100" x2="68.18019484660536" y2="68.18019484660536" stroke="#ff6b6b" stroke-width="11"/><line x1="68.18019484660536" y1="68.18019484660536" x2="99.99999999999999" y2="55" stroke="#ff6b6b" stroke-width="11"/><line x1="99.99999999999999" y1="55" x2="131.81980515339464" y2="68.18019484660536" stroke="#ff6b6b" stroke-width="11"/><line x1="131.81980515339464" y1="68.18019484660536" x2="145" y2="99.99999999999999" stroke="#ff6b6b" stroke-width="11"/></g></g></g><rect x="75" y="105" width="50" height="10" fill="#ff6b6b" fill-opacity="0.8" stroke="#d74343" stroke-width="2"/><polygon points="72,105 80,80 88,105" fill="#ff6b6b" fill-opacity="0.8" stroke="#d74343" stroke-width="2"/><polygon points="82,105 90,80 98,105" fill="#ffa726" fill-opacity="0.8" stroke="#d77f00" stroke-width="2"/><polygon points="92,105 100,80 108,105" fill="#ffcc02" fill-opacity="0.8" stroke="#d7a400" stroke-width="2"/><polygon points="102,105 110,80 118,105" fill="#66bb6a" fill-opacity="0.8" stroke="#3e9342" stroke-width="2"/><polygon points="112,105 120,80 128,105" fill="#42a5f5" fill-opacity="0.8" stroke="#1a7dcd" stroke-width="2"/><circle cx="100" cy="110" r="6" fill="#ffa726" stroke="#d77f00" stroke-width="2"/><path d="M8,15 A7,7 0 0,1 15,8" fill="none" stroke="#ff6b6b" stroke-width="2" stroke-linecap="round" stroke-opacity="1"/><path d="M192,185 A7,7 0 0,1 185,192" fill="none" stroke="#ff6b6b" stroke-width="2" stroke-linecap="round" stroke-opacity="1"/><path d="M1,15 A14,14 0 0,1 15,1" fill="none" stroke="#ff6b6b" stroke-width="2" stroke-linecap="round" stroke-opacity="1"/><path d="M199,185 A14,14 0 0,1 185,199" fill="none" stroke="#ff6b6b" stroke-width="2" stroke-linecap="round" stroke-opacity="1"/><path d="M185,9 A6,6 0 0,1 191,15" fill="none" stroke="#ffa726" stroke-width="1.6" stroke-linecap="round" stroke-opacity="1"/><path d="M15,191 A6,6 0 0,1 9,185" fill="none" stroke="#ffa726" stroke-width="1.6" stroke-linecap="round" stroke-opacity="1"/><path d="M185,3 A12,12 0 0,1 197,15" fill="none" stroke="#ffa726" stroke-width="1.6" stroke-linecap="round" stroke-opacity="1"/><path d="M15,197 A12,12 0 0,1 3,185" fill="none" stroke="#ffa726" stroke-width="1.6" stroke-linecap="round" stroke-opacity="1"/><rect x="5" y="5" width="190" height="190" fill="none" stroke="#df3ef4" stroke-width="5" stroke-opacity="0.71"/></svg>