<svg xmlns="http://www.w3.org/2000/svg" width="200" height="200" viewBox="0 0 200 200"><defs></defs><rect width="200" height="200" fill="#ffffff"/><g class="pattern"><g class="symmetry-radial"><polygon points="112.14285714285714,112.14285714285714 123.28571428571428,123.28571428571428 101,123.28571428571428" fill="#4b0082" fill-opacity="0.8" stroke="#2d0064" stroke-width="2.5"/><polygon points="124.28571428571428,123.28571428571428 135.42857142857142,112.14285714285714 113.14285714285714,112.14285714285714" fill="#9400d3" fill-opacity="0.8" stroke="#7600b5" stroke-width="2.5"/><polygon points="136.42857142857142,112.14285714285714 147.57142857142856,123.28571428571428 125.28571428571428,123.28571428571428" fill="#ff0000" fill-opacity="0.8" stroke="#e10000" stroke-width="2.5"/><polygon points="148.57142857142856,123.28571428571428 159.7142857142857,112.14285714285714 137.42857142857142,112.14285714285714" fill="#ff7f00" fill-opacity="0.8" stroke="#e16100" stroke-width="2.5"/><polygon points="160.71428571428572,112.14285714285714 171.85714285714286,123.28571428571428 149.57142857142858,123.28571428571428" fill="#ffff00" fill-opacity="0.8" stroke="#e1e100" stroke-width="2.5"/><polygon points="172.85714285714286,123.28571428571428 184,112.14285714285714 161.71428571428572,112.14285714285714" fill="#00ff00" fill-opacity="0.8" stroke="#00e100" stroke-width="2.5"/><polygon points="136.42857142857142,147.57142857142856 147.57142857142856,136.42857142857142 125.28571428571428,136.42857142857142" fill="#ff7f00" fill-opacity="0.8" stroke="#e16100" stroke-width="2.5"/><polygon points="148.57142857142856,136.42857142857142 159.7142857142857,147.57142857142856 137.42857142857142,147.57142857142856" fill="#ffff00" fill-opacity="0.8" stroke="#e1e100" stroke-width="2.5"/><polygon points="160.71428571428572,147.57142857142856 171.85714285714286,136.42857142857142 149.57142857142858,136.42857142857142" fill="#00ff00" fill-opacity="0.8" stroke="#00e100" stroke-width="2.5"/><polygon points="172.85714285714286,136.42857142857142 184,147.57142857142856 161.71428571428572,147.57142857142856" fill="#0000ff" fill-opacity="0.8" stroke="#0000e1" stroke-width="2.5"/><polygon points="160.71428571428572,160.71428571428572 171.85714285714286,171.85714285714286 149.57142857142858,171.85714285714286" fill="#0000ff" fill-opacity="0.8" stroke="#0000e1" stroke-width="2.5"/><polygon points="172.85714285714286,171.85714285714286 184,160.71428571428572 161.71428571428572,160.71428571428572" fill="#4b0082" fill-opacity="0.8" stroke="#2d0064" stroke-width="2.5"/><g transform="rotate(45, 100, 100)"><polygon points="112.14285714285714,112.14285714285714 123.28571428571428,123.28571428571428 101,123.28571428571428" fill="#4b0082" fill-opacity="0.8" stroke="#2d0064" stroke-width="2.5"/><polygon points="124.28571428571428,123.28571428571428 135.42857142857142,112.14285714285714 113.14285714285714,112.14285714285714" fill="#9400d3" fill-opacity="0.8" stroke="#7600b5" stroke-width="2.5"/><polygon points="136.42857142857142,112.14285714285714 147.57142857142856,123.28571428571428 125.28571428571428,123.28571428571428" fill="#ff0000" fill-opacity="0.8" stroke="#e10000" stroke-width="2.5"/><polygon points="148.57142857142856,123.28571428571428 159.7142857142857,112.14285714285714 137.42857142857142,112.14285714285714" fill="#ff7f00" fill-opacity="0.8" stroke="#e16100" stroke-width="2.5"/><polygon points="160.71428571428572,112.14285714285714 171.85714285714286,123.28571428571428 149.57142857142858,123.28571428571428" fill="#ffff00" fill-opacity="0.8" stroke="#e1e100" stroke-width="2.5"/><polygon points="172.85714285714286,123.28571428571428 184,112.14285714285714 161.71428571428572,112.14285714285714" fill="#00ff00" fill-opacity="0.8" stroke="#00e100" stroke-width="2.5"/><polygon points="136.42857142857142,147.57142857142856 147.57142857142856,136.42857142857142 125.28571428571428,136.42857142857142" fill="#ff7f00" fill-opacity="0.8" stroke="#e16100" stroke-width="2.5"/><polygon points="148.57142857142856,136.42857142857142 159.7142857142857,147.57142857142856 137.42857142857142,147.57142857142856" fill="#ffff00" fill-opacity="0.8" stroke="#e1e100" stroke-width="2.5"/><polygon points="160.71428571428572,147.57142857142856 171.85714285714286,136.42857142857142 149.57142857142858,136.42857142857142" fill="#00ff00" fill-opacity="0.8" stroke="#00e100" stroke-width="2.5"/><polygon points="172.85714285714286,136.42857142857142 184,147.57142857142856 161.71428571428572,147.57142857142856" fill="#0000ff" fill-opacity="0.8" stroke="#0000e1" stroke-width="2.5"/><polygon points="160.71428571428572,160.71428571428572 171.85714285714286,171.85714285714286 149.57142857142858,171.85714285714286" fill="#0000ff" fill-opacity="0.8" stroke="#0000e1" stroke-width="2.5"/><polygon points="172.85714285714286,171.85714285714286 184,160.71428571428572 161.71428571428572,160.71428571428572" fill="#4b0082" fill-opacity="0.8" stroke="#2d0064" stroke-width="2.5"/></g><g transform="rotate(90, 100, 100)"><polygon points="112.14285714285714,112.14285714285714 123.28571428571428,123.28571428571428 101,123.28571428571428" fill="#4b0082" fill-opacity="0.8" stroke="#2d0064" stroke-width="2.5"/><polygon points="124.28571428571428,123.28571428571428 135.42857142857142,112.14285714285714 113.14285714285714,112.14285714285714" fill="#9400d3" fill-opacity="0.8" stroke="#7600b5" stroke-width="2.5"/><polygon points="136.42857142857142,112.14285714285714 147.57142857142856,123.28571428571428 125.28571428571428,123.28571428571428" fill="#ff0000" fill-opacity="0.8" stroke="#e10000" stroke-width="2.5"/><polygon points="148.57142857142856,123.28571428571428 159.7142857142857,112.14285714285714 137.42857142857142,112.14285714285714" fill="#ff7f00" fill-opacity="0.8" stroke="#e16100" stroke-width="2.5"/><polygon points="160.71428571428572,112.14285714285714 171.85714285714286,123.28571428571428 149.57142857142858,123.28571428571428" fill="#ffff00" fill-opacity="0.8" stroke="#e1e100" stroke-width="2.5"/><polygon points="172.85714285714286,123.28571428571428 184,112.14285714285714 161.71428571428572,112.14285714285714" fill="#00ff00" fill-opacity="0.8" stroke="#00e100" stroke-width="2.5"/><polygon points="136.42857142857142,147.57142857142856 147.57142857142856,136.42857142857142 125.28571428571428,136.42857142857142" fill="#ff7f00" fill-opacity="0.8" stroke="#e16100" stroke-width="2.5"/><polygon points="148.57142857142856,136.42857142857142 159.7142857142857,147.57142857142856 137.42857142857142,147.57142857142856" fill="#ffff00" fill-opacity="0.8" stroke="#e1e100" stroke-width="2.5"/><polygon points="160.71428571428572,147.57142857142856 171.85714285714286,136.42857142857142 149.57142857142858,136.42857142857142" fill="#00ff00" fill-opacity="0.8" stroke="#00e100" stroke-width="2.5"/><polygon points="172.85714285714286,136.42857142857142 184,147.57142857142856 161.71428571428572,147.57142857142856" fill="#0000ff" fill-opacity="0.8" stroke="#0000e1" stroke-width="2.5"/><polygon points="160.71428571428572,160.71428571428572 171.85714285714286,171.85714285714286 149.57142857142858,171.85714285714286" fill="#0000ff" fill-opacity="0.8" stroke="#0000e1" stroke-width="2.5"/><polygon points="172.85714285714286,171.85714285714286 184,160.71428571428572 161.71428571428572,160.71428571428572" fill="#4b0082" fill-opacity="0.8" stroke="#2d0064" stroke-width="2.5"/></g><g transform="rotate(135, 100, 100)"><polygon points="112.14285714285714,112.14285714285714 123.28571428571428,123.28571428571428 101,123.28571428571428" fill="#4b0082" fill-opacity="0.8" stroke="#2d0064" stroke-width="2.5"/><polygon points="124.28571428571428,123.28571428571428 135.42857142857142,112.14285714285714 113.14285714285714,112.14285714285714" fill="#9400d3" fill-opacity="0.8" stroke="#7600b5" stroke-width="2.5"/><polygon points="136.42857142857142,112.14285714285714 147.57142857142856,123.28571428571428 125.28571428571428,123.28571428571428" fill="#ff0000" fill-opacity="0.8" stroke="#e10000" stroke-width="2.5"/><polygon points="148.57142857142856,123.28571428571428 159.7142857142857,112.14285714285714 137.42857142857142,112.14285714285714" fill="#ff7f00" fill-opacity="0.8" stroke="#e16100" stroke-width="2.5"/><polygon points="160.71428571428572,112.14285714285714 171.85714285714286,123.28571428571428 149.57142857142858,123.28571428571428" fill="#ffff00" fill-opacity="0.8" stroke="#e1e100" stroke-width="2.5"/><polygon points="172.85714285714286,123.28571428571428 184,112.14285714285714 161.71428571428572,112.14285714285714" fill="#00ff00" fill-opacity="0.8" stroke="#00e100" stroke-width="2.5"/><polygon points="136.42857142857142,147.57142857142856 147.57142857142856,136.42857142857142 125.28571428571428,136.42857142857142" fill="#ff7f00" fill-opacity="0.8" stroke="#e16100" stroke-width="2.5"/><polygon points="148.57142857142856,136.42857142857142 159.7142857142857,147.57142857142856 137.42857142857142,147.57142857142856" fill="#ffff00" fill-opacity="0.8" stroke="#e1e100" stroke-width="2.5"/><polygon points="160.71428571428572,147.57142857142856 171.85714285714286,136.42857142857142 149.57142857142858,136.42857142857142" fill="#00ff00" fill-opacity="0.8" stroke="#00e100" stroke-width="2.5"/><polygon points="172.85714285714286,136.42857142857142 184,147.57142857142856 161.71428571428572,147.57142857142856" fill="#0000ff" fill-opacity="0.8" stroke="#0000e1" stroke-width="2.5"/><polygon points="160.71428571428572,160.71428571428572 171.85714285714286,171.85714285714286 149.57142857142858,171.85714285714286" fill="#0000ff" fill-opacity="0.8" stroke="#0000e1" stroke-width="2.5"/><polygon points="172.85714285714286,171.85714285714286 184,160.71428571428572 161.71428571428572,160.71428571428572" fill="#4b0082" fill-opacity="0.8" stroke="#2d0064" stroke-width="2.5"/></g><g transform="rotate(180, 100, 100)"><polygon points="112.14285714285714,112.14285714285714 123.28571428571428,123.28571428571428 101,123.28571428571428" fill="#4b0082" fill-opacity="0.8" stroke="#2d0064" stroke-width="2.5"/><polygon points="124.28571428571428,123.28571428571428 135.42857142857142,112.14285714285714 113.14285714285714,112.14285714285714" fill="#9400d3" fill-opacity="0.8" stroke="#7600b5" stroke-width="2.5"/><polygon points="136.42857142857142,112.14285714285714 147.57142857142856,123.28571428571428 125.28571428571428,123.28571428571428" fill="#ff0000" fill-opacity="0.8" stroke="#e10000" stroke-width="2.5"/><polygon points="148.57142857142856,123.28571428571428 159.7142857142857,112.14285714285714 137.42857142857142,112.14285714285714" fill="#ff7f00" fill-opacity="0.8" stroke="#e16100" stroke-width="2.5"/><polygon points="160.71428571428572,112.14285714285714 171.85714285714286,123.28571428571428 149.57142857142858,123.28571428571428" fill="#ffff00" fill-opacity="0.8" stroke="#e1e100" stroke-width="2.5"/><polygon points="172.85714285714286,123.28571428571428 184,112.14285714285714 161.71428571428572,112.14285714285714" fill="#00ff00" fill-opacity="0.8" stroke="#00e100" stroke-width="2.5"/><polygon points="136.42857142857142,147.57142857142856 147.57142857142856,136.42857142857142 125.28571428571428,136.42857142857142" fill="#ff7f00" fill-opacity="0.8" stroke="#e16100" stroke-width="2.5"/><polygon points="148.57142857142856,136.42857142857142 159.7142857142857,147.57142857142856 137.42857142857142,147.57142857142856" fill="#ffff00" fill-opacity="0.8" stroke="#e1e100" stroke-width="2.5"/><polygon points="160.71428571428572,147.57142857142856 171.85714285714286,136.42857142857142 149.57142857142858,136.42857142857142" fill="#00ff00" fill-opacity="0.8" stroke="#00e100" stroke-width="2.5"/><polygon points="172.85714285714286,136.42857142857142 184,147.57142857142856 161.71428571428572,147.57142857142856" fill="#0000ff" fill-opacity="0.8" stroke="#0000e1" stroke-width="2.5"/><polygon points="160.71428571428572,160.71428571428572 171.85714285714286,171.85714285714286 149.57142857142858,171.85714285714286" fill="#0000ff" fill-opacity="0.8" stroke="#0000e1" stroke-width="2.5"/><polygon points="172.85714285714286,171.85714285714286 184,160.71428571428572 161.71428571428572,160.71428571428572" fill="#4b0082" fill-opacity="0.8" stroke="#2d0064" stroke-width="2.5"/></g><g transform="rotate(225, 100, 100)"><polygon points="112.14285714285714,112.14285714285714 123.28571428571428,123.28571428571428 101,123.28571428571428" fill="#4b0082" fill-opacity="0.8" stroke="#2d0064" stroke-width="2.5"/><polygon points="124.28571428571428,123.28571428571428 135.42857142857142,112.14285714285714 113.14285714285714,112.14285714285714" fill="#9400d3" fill-opacity="0.8" stroke="#7600b5" stroke-width="2.5"/><polygon points="136.42857142857142,112.14285714285714 147.57142857142856,123.28571428571428 125.28571428571428,123.28571428571428" fill="#ff0000" fill-opacity="0.8" stroke="#e10000" stroke-width="2.5"/><polygon points="148.57142857142856,123.28571428571428 159.7142857142857,112.14285714285714 137.42857142857142,112.14285714285714" fill="#ff7f00" fill-opacity="0.8" stroke="#e16100" stroke-width="2.5"/><polygon points="160.71428571428572,112.14285714285714 171.85714285714286,123.28571428571428 149.57142857142858,123.28571428571428" fill="#ffff00" fill-opacity="0.8" stroke="#e1e100" stroke-width="2.5"/><polygon points="172.85714285714286,123.28571428571428 184,112.14285714285714 161.71428571428572,112.14285714285714" fill="#00ff00" fill-opacity="0.8" stroke="#00e100" stroke-width="2.5"/><polygon points="136.42857142857142,147.57142857142856 147.57142857142856,136.42857142857142 125.28571428571428,136.42857142857142" fill="#ff7f00" fill-opacity="0.8" stroke="#e16100" stroke-width="2.5"/><polygon points="148.57142857142856,136.42857142857142 159.7142857142857,147.57142857142856 137.42857142857142,147.57142857142856" fill="#ffff00" fill-opacity="0.8" stroke="#e1e100" stroke-width="2.5"/><polygon points="160.71428571428572,147.57142857142856 171.85714285714286,136.42857142857142 149.57142857142858,136.42857142857142" fill="#00ff00" fill-opacity="0.8" stroke="#00e100" stroke-width="2.5"/><polygon points="172.85714285714286,136.42857142857142 184,147.57142857142856 161.71428571428572,147.57142857142856" fill="#0000ff" fill-opacity="0.8" stroke="#0000e1" stroke-width="2.5"/><polygon points="160.71428571428572,160.71428571428572 171.85714285714286,171.85714285714286 149.57142857142858,171.85714285714286" fill="#0000ff" fill-opacity="0.8" stroke="#0000e1" stroke-width="2.5"/><polygon points="172.85714285714286,171.85714285714286 184,160.71428571428572 161.71428571428572,160.71428571428572" fill="#4b0082" fill-opacity="0.8" stroke="#2d0064" stroke-width="2.5"/></g><g transform="rotate(270, 100, 100)"><polygon points="112.14285714285714,112.14285714285714 123.28571428571428,123.28571428571428 101,123.28571428571428" fill="#4b0082" fill-opacity="0.8" stroke="#2d0064" stroke-width="2.5"/><polygon points="124.28571428571428,123.28571428571428 135.42857142857142,112.14285714285714 113.14285714285714,112.14285714285714" fill="#9400d3" fill-opacity="0.8" stroke="#7600b5" stroke-width="2.5"/><polygon points="136.42857142857142,112.14285714285714 147.57142857142856,123.28571428571428 125.28571428571428,123.28571428571428" fill="#ff0000" fill-opacity="0.8" stroke="#e10000" stroke-width="2.5"/><polygon points="148.57142857142856,123.28571428571428 159.7142857142857,112.14285714285714 137.42857142857142,112.14285714285714" fill="#ff7f00" fill-opacity="0.8" stroke="#e16100" stroke-width="2.5"/><polygon points="160.71428571428572,112.14285714285714 171.85714285714286,123.28571428571428 149.57142857142858,123.28571428571428" fill="#ffff00" fill-opacity="0.8" stroke="#e1e100" stroke-width="2.5"/><polygon points="172.85714285714286,123.28571428571428 184,112.14285714285714 161.71428571428572,112.14285714285714" fill="#00ff00" fill-opacity="0.8" stroke="#00e100" stroke-width="2.5"/><polygon points="136.42857142857142,147.57142857142856 147.57142857142856,136.42857142857142 125.28571428571428,136.42857142857142" fill="#ff7f00" fill-opacity="0.8" stroke="#e16100" stroke-width="2.5"/><polygon points="148.57142857142856,136.42857142857142 159.7142857142857,147.57142857142856 137.42857142857142,147.57142857142856" fill="#ffff00" fill-opacity="0.8" stroke="#e1e100" stroke-width="2.5"/><polygon points="160.71428571428572,147.57142857142856 171.85714285714286,136.42857142857142 149.57142857142858,136.42857142857142" fill="#00ff00" fill-opacity="0.8" stroke="#00e100" stroke-width="2.5"/><polygon points="172.85714285714286,136.42857142857142 184,147.57142857142856 161.71428571428572,147.57142857142856" fill="#0000ff" fill-opacity="0.8" stroke="#0000e1" stroke-width="2.5"/><polygon points="160.71428571428572,160.71428571428572 171.85714285714286,171.85714285714286 149.57142857142858,171.85714285714286" fill="#0000ff" fill-opacity="0.8" stroke="#0000e1" stroke-width="2.5"/><polygon points="172.85714285714286,171.85714285714286 184,160.71428571428572 161.71428571428572,160.71428571428572" fill="#4b0082" fill-opacity="0.8" stroke="#2d0064" stroke-width="2.5"/></g><g transform="rotate(315, 100, 100)"><polygon points="112.14285714285714,112.14285714285714 123.28571428571428,123.28571428571428 101,123.28571428571428" fill="#4b0082" fill-opacity="0.8" stroke="#2d0064" stroke-width="2.5"/><polygon points="124.28571428571428,123.28571428571428 135.42857142857142,112.14285714285714 113.14285714285714,112.14285714285714" fill="#9400d3" fill-opacity="0.8" stroke="#7600b5" stroke-width="2.5"/><polygon points="136.42857142857142,112.14285714285714 147.57142857142856,123.28571428571428 125.28571428571428,123.28571428571428" fill="#ff0000" fill-opacity="0.8" stroke="#e10000" stroke-width="2.5"/><polygon points="148.57142857142856,123.28571428571428 159.7142857142857,112.14285714285714 137.42857142857142,112.14285714285714" fill="#ff7f00" fill-opacity="0.8" stroke="#e16100" stroke-width="2.5"/><polygon points="160.71428571428572,112.14285714285714 171.85714285714286,123.28571428571428 149.57142857142858,123.28571428571428" fill="#ffff00" fill-opacity="0.8" stroke="#e1e100" stroke-width="2.5"/><polygon points="172.85714285714286,123.28571428571428 184,112.14285714285714 161.71428571428572,112.14285714285714" fill="#00ff00" fill-opacity="0.8" stroke="#00e100" stroke-width="2.5"/><polygon points="136.42857142857142,147.57142857142856 147.57142857142856,136.42857142857142 125.28571428571428,136.42857142857142" fill="#ff7f00" fill-opacity="0.8" stroke="#e16100" stroke-width="2.5"/><polygon points="148.57142857142856,136.42857142857142 159.7142857142857,147.57142857142856 137.42857142857142,147.57142857142856" fill="#ffff00" fill-opacity="0.8" stroke="#e1e100" stroke-width="2.5"/><polygon points="160.71428571428572,147.57142857142856 171.85714285714286,136.42857142857142 149.57142857142858,136.42857142857142" fill="#00ff00" fill-opacity="0.8" stroke="#00e100" stroke-width="2.5"/><polygon points="172.85714285714286,136.42857142857142 184,147.57142857142856 161.71428571428572,147.57142857142856" fill="#0000ff" fill-opacity="0.8" stroke="#0000e1" stroke-width="2.5"/><polygon points="160.71428571428572,160.71428571428572 171.85714285714286,171.85714285714286 149.57142857142858,171.85714285714286" fill="#0000ff" fill-opacity="0.8" stroke="#0000e1" stroke-width="2.5"/><polygon points="172.85714285714286,171.85714285714286 184,160.71428571428572 161.71428571428572,160.71428571428572" fill="#4b0082" fill-opacity="0.8" stroke="#2d0064" stroke-width="2.5"/></g></g></g><path d="M100,100 L132,100 A32,32 0 0,1 129.56414504036118,112.24586983568287 Z" fill="#0000ff" fill-opacity="0.8" stroke="#0000e1" stroke-width="4"/><path d="M100,100 L129.56414504036118,112.24586983568287 A32,32 0 0,1 122.62741699796952,122.62741699796952 Z" fill="#0000ff" fill-opacity="0.8" stroke="#0000e1" stroke-width="4"/><path d="M100,100 L122.62741699796952,122.62741699796952 A32,32 0 0,1 112.24586983568287,129.56414504036118 Z" fill="#0000ff" fill-opacity="0.8" stroke="#0000e1" stroke-width="4"/><path d="M100,100 L112.24586983568287,129.56414504036118 A32,32 0 0,1 100,132 Z" fill="#0000ff" fill-opacity="0.8" stroke="#0000e1" stroke-width="4"/><path d="M100,100 L100,132 A32,32 0 0,1 87.75413016431713,129.56414504036118 Z" fill="#0000ff" fill-opacity="0.8" stroke="#0000e1" stroke-width="4"/><path d="M100,100 L87.75413016431713,129.56414504036118 A32,32 0 0,1 77.37258300203048,122.62741699796952 Z" fill="#0000ff" fill-opacity="0.8" stroke="#0000e1" stroke-width="4"/><path d="M100,100 L77.37258300203048,122.62741699796952 A32,32 0 0,1 70.43585495963882,112.24586983568288 Z" fill="#0000ff" fill-opacity="0.8" stroke="#0000e1" stroke-width="4"/><path d="M100,100 L70.43585495963882,112.24586983568288 A32,32 0 0,1 68,100 Z" fill="#0000ff" fill-opacity="0.8" stroke="#0000e1" stroke-width="4"/><path d="M100,100 L68,100 A32,32 0 0,1 70.43585495963882,87.75413016431713 Z" fill="#0000ff" fill-opacity="0.8" stroke="#0000e1" stroke-width="4"/><path d="M100,100 L70.43585495963882,87.75413016431713 A32,32 0 0,1 77.37258300203047,77.37258300203048 Z" fill="#0000ff" fill-opacity="0.8" stroke="#0000e1" stroke-width="4"/><path d="M100,100 L77.37258300203047,77.37258300203048 A32,32 0 0,1 87.7541301643171,70.43585495963883 Z" fill="#0000ff" fill-opacity="0.8" stroke="#0000e1" stroke-width="4"/><path d="M100,100 L87.7541301643171,70.43585495963883 A32,32 0 0,1 100,68 Z" fill="#0000ff" fill-opacity="0.8" stroke="#0000e1" stroke-width="4"/><path d="M100,100 L100,68 A32,32 0 0,1 112.24586983568288,70.43585495963883 Z" fill="#0000ff" fill-opacity="0.8" stroke="#0000e1" stroke-width="4"/><path d="M100,100 L112.24586983568288,70.43585495963883 A32,32 0 0,1 122.62741699796952,77.37258300203047 Z" fill="#0000ff" fill-opacity="0.8" stroke="#0000e1" stroke-width="4"/><path d="M100,100 L122.62741699796952,77.37258300203047 A32,32 0 0,1 129.56414504036115,87.7541301643171 Z" fill="#0000ff" fill-opacity="0.8" stroke="#0000e1" stroke-width="4"/><path d="M100,100 L129.56414504036115,87.7541301643171 A32,32 0 0,1 132,99.99999999999999 Z" fill="#0000ff" fill-opacity="0.8" stroke="#0000e1" stroke-width="4"/><path d="M100,100 L124,100 A24,24 0 0,1 121.62325282965806,110.4132097388214 Z" fill="#00ff00" fill-opacity="0.8" stroke="#00e100" stroke-width="4"/><path d="M100,100 L121.62325282965806,110.4132097388214 A24,24 0 0,1 114.9637552446096,118.76395557923271 Z" fill="#00ff00" fill-opacity="0.8" stroke="#00e100" stroke-width="4"/><path d="M100,100 L114.9637552446096,118.76395557923271 A24,24 0 0,1 105.34050241495154,123.39826989236377 Z" fill="#00ff00" fill-opacity="0.8" stroke="#00e100" stroke-width="4"/><path d="M100,100 L105.34050241495154,123.39826989236377 A24,24 0 0,1 94.65949758504846,123.39826989236377 Z" fill="#00ff00" fill-opacity="0.8" stroke="#00e100" stroke-width="4"/><path d="M100,100 L94.65949758504846,123.39826989236377 A24,24 0 0,1 85.0362447553904,118.76395557923271 Z" fill="#00ff00" fill-opacity="0.8" stroke="#00e100" stroke-width="4"/><path d="M100,100 L85.0362447553904,118.76395557923271 A24,24 0 0,1 78.37674717034194,110.4132097388214 Z" fill="#00ff00" fill-opacity="0.8" stroke="#00e100" stroke-width="4"/><path d="M100,100 L78.37674717034194,110.4132097388214 A24,24 0 0,1 76,100 Z" fill="#00ff00" fill-opacity="0.8" stroke="#00e100" stroke-width="4"/><path d="M100,100 L76,100 A24,24 0 0,1 78.37674717034194,89.5867902611786 Z" fill="#00ff00" fill-opacity="0.8" stroke="#00e100" stroke-width="4"/><path d="M100,100 L78.37674717034194,89.5867902611786 A24,24 0 0,1 85.03624475539038,81.23604442076729 Z" fill="#00ff00" fill-opacity="0.8" stroke="#00e100" stroke-width="4"/><path d="M100,100 L85.03624475539038,81.23604442076729 A24,24 0 0,1 94.65949758504846,76.60173010763623 Z" fill="#00ff00" fill-opacity="0.8" stroke="#00e100" stroke-width="4"/><path d="M100,100 L94.65949758504846,76.60173010763623 A24,24 0 0,1 105.34050241495154,76.60173010763623 Z" fill="#00ff00" fill-opacity="0.8" stroke="#00e100" stroke-width="4"/><path d="M100,100 L105.34050241495154,76.60173010763623 A24,24 0 0,1 114.9637552446096,81.23604442076729 Z" fill="#00ff00" fill-opacity="0.8" stroke="#00e100" stroke-width="4"/><path d="M100,100 L114.9637552446096,81.23604442076729 A24,24 0 0,1 121.62325282965806,89.5867902611786 Z" fill="#00ff00" fill-opacity="0.8" stroke="#00e100" stroke-width="4"/><path d="M100,100 L121.62325282965806,89.5867902611786 A24,24 0 0,1 124,100 Z" fill="#00ff00" fill-opacity="0.8" stroke="#00e100" stroke-width="4"/><path d="M100,100 L116,100 A16,16 0 0,1 113.85640646055101,108 Z" fill="#ffff00" fill-opacity="0.8" stroke="#e1e100" stroke-width="4"/><path d="M100,100 L113.85640646055101,108 A16,16 0 0,1 108,113.85640646055101 Z" fill="#ffff00" fill-opacity="0.8" stroke="#e1e100" stroke-width="4"/><path d="M100,100 L108,113.85640646055101 A16,16 0 0,1 100,116 Z" fill="#ffff00" fill-opacity="0.8" stroke="#e1e100" stroke-width="4"/><path d="M100,100 L100,116 A16,16 0 0,1 92,113.85640646055101 Z" fill="#ffff00" fill-opacity="0.8" stroke="#e1e100" stroke-width="4"/><path d="M100,100 L92,113.85640646055101 A16,16 0 0,1 86.14359353944899,108 Z" fill="#ffff00" fill-opacity="0.8" stroke="#e1e100" stroke-width="4"/><path d="M100,100 L86.14359353944899,108 A16,16 0 0,1 84,100 Z" fill="#ffff00" fill-opacity="0.8" stroke="#e1e100" stroke-width="4"/><path d="M100,100 L84,100 A16,16 0 0,1 86.14359353944899,92 Z" fill="#ffff00" fill-opacity="0.8" stroke="#e1e100" stroke-width="4"/><path d="M100,100 L86.14359353944899,92 A16,16 0 0,1 92,86.14359353944899 Z" fill="#ffff00" fill-opacity="0.8" stroke="#e1e100" stroke-width="4"/><path d="M100,100 L92,86.14359353944899 A16,16 0 0,1 100,84 Z" fill="#ffff00" fill-opacity="0.8" stroke="#e1e100" stroke-width="4"/><path d="M100,100 L100,84 A16,16 0 0,1 108,86.14359353944899 Z" fill="#ffff00" fill-opacity="0.8" stroke="#e1e100" stroke-width="4"/><path d="M100,100 L108,86.14359353944899 A16,16 0 0,1 113.85640646055101,92 Z" fill="#ffff00" fill-opacity="0.8" stroke="#e1e100" stroke-width="4"/><path d="M100,100 L113.85640646055101,92 A16,16 0 0,1 116,100 Z" fill="#ffff00" fill-opacity="0.8" stroke="#e1e100" stroke-width="4"/><path d="M100,100 L108,100 A8,8 0 0,1 106.47213595499957,104.70228201833979 Z" fill="#ff7f00" fill-opacity="0.8" stroke="#e16100" stroke-width="4"/><path d="M100,100 L106.47213595499957,104.70228201833979 A8,8 0 0,1 102.47213595499957,107.60845213036123 Z" fill="#ff7f00" fill-opacity="0.8" stroke="#e16100" stroke-width="4"/><path d="M100,100 L102.47213595499957,107.60845213036123 A8,8 0 0,1 97.52786404500043,107.60845213036123 Z" fill="#ff7f00" fill-opacity="0.8" stroke="#e16100" stroke-width="4"/><path d="M100,100 L97.52786404500043,107.60845213036123 A8,8 0 0,1 93.52786404500043,104.70228201833979 Z" fill="#ff7f00" fill-opacity="0.8" stroke="#e16100" stroke-width="4"/><path d="M100,100 L93.52786404500043,104.70228201833979 A8,8 0 0,1 92,100 Z" fill="#ff7f00" fill-opacity="0.8" stroke="#e16100" stroke-width="4"/><path d="M100,100 L92,100 A8,8 0 0,1 93.52786404500041,95.29771798166021 Z" fill="#ff7f00" fill-opacity="0.8" stroke="#e16100" stroke-width="4"/><path d="M100,100 L93.52786404500041,95.29771798166021 A8,8 0 0,1 97.52786404500041,92.39154786963877 Z" fill="#ff7f00" fill-opacity="0.8" stroke="#e16100" stroke-width="4"/><path d="M100,100 L97.52786404500041,92.39154786963877 A8,8 0 0,1 102.47213595499957,92.39154786963877 Z" fill="#ff7f00" fill-opacity="0.8" stroke="#e16100" stroke-width="4"/><path d="M100,100 L102.47213595499957,92.39154786963877 A8,8 0 0,1 106.47213595499957,95.29771798166021 Z" fill="#ff7f00" fill-opacity="0.8" stroke="#e16100" stroke-width="4"/><path d="M100,100 L106.47213595499957,95.29771798166021 A8,8 0 0,1 108,100 Z" fill="#ff7f00" fill-opacity="0.8" stroke="#e16100" stroke-width="4"/><circle cx="100" cy="100" r="5" fill="#ff0000" stroke="#d70000" stroke-width="4"/><path d="M15,5 L17.82842712474619,12.17157287525381 L25,15 L17.82842712474619,17.82842712474619 L15,25 L12.17157287525381,17.82842712474619 L5,15.000000000000002 L12.171572875253808,12.17157287525381 Z" fill="#ff0000" fill-opacity="0.6" stroke="#ff0000" stroke-width="6.5" stroke-opacity="1"/><path d="M185,175 L187.82842712474618,182.17157287525382 L195,185 L187.82842712474618,187.82842712474618 L185,195 L182.17157287525382,187.82842712474618 L175,185 L182.17157287525382,182.17157287525382 Z" fill="#ff0000" fill-opacity="0.6" stroke="#ff0000" stroke-width="6.5" stroke-opacity="1"/><path d="M185,7 L187.26274169979695,12.737258300203049 L193,15 L187.26274169979695,17.26274169979695 L185,23 L182.73725830020305,17.26274169979695 L177,15.000000000000002 L182.73725830020305,12.737258300203049 Z" fill="#ff7f00" fill-opacity="0.6" stroke="#ff7f00" stroke-width="5.2" stroke-opacity="1"/><path d="M15,177 L17.26274169979695,182.73725830020305 L23,185 L17.26274169979695,187.26274169979695 L15,193 L12.737258300203049,187.26274169979695 L7,185 L12.737258300203047,182.73725830020305 Z" fill="#ff7f00" fill-opacity="0.6" stroke="#ff7f00" stroke-width="5.2" stroke-opacity="1"/><rect x="5" y="5" width="190" height="190" fill="none" stroke="#1e3c72" stroke-width="8" stroke-opacity="1"/><circle cx="5" cy="5" r="6.4" fill="none" stroke="#1e3c72" stroke-width="4" stroke-opacity="1"/><circle cx="195" cy="5" r="6.4" fill="none" stroke="#1e3c72" stroke-width="4" stroke-opacity="1"/><circle cx="195" cy="195" r="6.4" fill="none" stroke="#1e3c72" stroke-width="4" stroke-opacity="1"/><circle cx="5" cy="195" r="6.4" fill="none" stroke="#1e3c72" stroke-width="4" stroke-opacity="1"/></svg>