<svg xmlns="http://www.w3.org/2000/svg" width="200" height="200" viewBox="0 0 200 200"><defs></defs><rect width="200" height="200" fill="#ffffff"/><g class="pattern"><g class="symmetry-rotational"><path d="M30,5 L35.877852522924734,21.909830056250527 L53.77641290737884,22.274575140626315 L39.510565162951536,33.09016994374947 L44.69463130731183,50.22542485937369 L30,40 L15.305368692688175,50.22542485937369 L20.489434837048464,33.09016994374947 L6.223587092621159,22.274575140626318 L24.122147477075266,21.909830056250527 Z" fill="#1e3c72" fill-opacity="0.8" stroke="#001e54" stroke-width="2"/><path d="M30,75 L35.877852522924734,91.90983005625053 L53.77641290737884,92.27457514062631 L39.510565162951536,103.09016994374947 L44.69463130731183,120.22542485937369 L30,110 L15.305368692688175,120.22542485937369 L20.489434837048464,103.09016994374947 L6.223587092621159,92.27457514062633 L24.122147477075266,91.90983005625053 Z" fill="#d4af37" fill-opacity="0.8" stroke="#b69119" stroke-width="2"/><path d="M30,145 L35.877852522924734,161.9098300562505 L53.77641290737884,162.27457514062633 L39.510565162951536,173.0901699437495 L44.69463130731183,190.22542485937367 L30,180 L15.305368692688175,190.22542485937367 L20.489434837048464,173.0901699437495 L6.223587092621159,162.27457514062633 L24.122147477075266,161.90983005625054 Z" fill="#ffd700" fill-opacity="0.8" stroke="#e1b900" stroke-width="2"/><path d="M30,215 L35.877852522924734,231.9098300562505 L53.77641290737884,232.27457514062633 L39.510565162951536,243.0901699437495 L44.69463130731183,260.2254248593737 L30,250 L15.305368692688175,260.2254248593737 L20.489434837048464,243.0901699437495 L6.223587092621159,232.27457514062633 L24.122147477075266,231.90983005625054 Z" fill="#b8860b" fill-opacity="0.8" stroke="#9a6800" stroke-width="2"/><path d="M100,5 L105.87785252292473,21.909830056250527 L123.77641290737884,22.274575140626315 L109.51056516295154,33.09016994374947 L114.69463130731182,50.22542485937369 L100,40 L85.30536869268818,50.22542485937369 L90.48943483704846,33.09016994374947 L76.22358709262116,22.274575140626318 L94.12214747707527,21.909830056250527 Z" fill="#d4af37" fill-opacity="0.8" stroke="#b69119" stroke-width="2"/><path d="M100,75 L105.87785252292473,91.90983005625053 L123.77641290737884,92.27457514062631 L109.51056516295154,103.09016994374947 L114.69463130731182,120.22542485937369 L100,110 L85.30536869268818,120.22542485937369 L90.48943483704846,103.09016994374947 L76.22358709262116,92.27457514062633 L94.12214747707527,91.90983005625053 Z" fill="#ffd700" fill-opacity="0.8" stroke="#e1b900" stroke-width="2"/><path d="M100,145 L105.87785252292473,161.9098300562505 L123.77641290737884,162.27457514062633 L109.51056516295154,173.0901699437495 L114.69463130731182,190.22542485937367 L100,180 L85.30536869268818,190.22542485937367 L90.48943483704846,173.0901699437495 L76.22358709262116,162.27457514062633 L94.12214747707527,161.90983005625054 Z" fill="#b8860b" fill-opacity="0.8" stroke="#9a6800" stroke-width="2"/><path d="M100,215 L105.87785252292473,231.9098300562505 L123.77641290737884,232.27457514062633 L109.51056516295154,243.0901699437495 L114.69463130731182,260.2254248593737 L100,250 L85.30536869268818,260.2254248593737 L90.48943483704846,243.0901699437495 L76.22358709262116,232.27457514062633 L94.12214747707527,231.90983005625054 Z" fill="#fff8dc" fill-opacity="0.8" stroke="#e1dabe" stroke-width="2"/><path d="M170,5 L175.87785252292474,21.909830056250527 L193.77641290737884,22.274575140626315 L179.51056516295154,33.09016994374947 L184.69463130731182,50.22542485937369 L170,40 L155.30536869268818,50.22542485937369 L160.48943483704846,33.09016994374947 L146.22358709262116,22.274575140626318 L164.12214747707526,21.909830056250527 Z" fill="#ffd700" fill-opacity="0.8" stroke="#e1b900" stroke-width="2"/><path d="M170,75 L175.87785252292474,91.90983005625053 L193.77641290737884,92.27457514062631 L179.51056516295154,103.09016994374947 L184.69463130731182,120.22542485937369 L170,110 L155.30536869268818,120.22542485937369 L160.48943483704846,103.09016994374947 L146.22358709262116,92.27457514062633 L164.12214747707526,91.90983005625053 Z" fill="#b8860b" fill-opacity="0.8" stroke="#9a6800" stroke-width="2"/><path d="M170,145 L175.87785252292474,161.9098300562505 L193.77641290737884,162.27457514062633 L179.51056516295154,173.0901699437495 L184.69463130731182,190.22542485937367 L170,180 L155.30536869268818,190.22542485937367 L160.48943483704846,173.0901699437495 L146.22358709262116,162.27457514062633 L164.12214747707526,161.90983005625054 Z" fill="#fff8dc" fill-opacity="0.8" stroke="#e1dabe" stroke-width="2"/><path d="M170,215 L175.87785252292474,231.9098300562505 L193.77641290737884,232.27457514062633 L179.51056516295154,243.0901699437495 L184.69463130731182,260.2254248593737 L170,250 L155.30536869268818,260.2254248593737 L160.48943483704846,243.0901699437495 L146.22358709262116,232.27457514062633 L164.12214747707526,231.90983005625054 Z" fill="#1e3c72" fill-opacity="0.8" stroke="#001e54" stroke-width="2"/><path d="M240,5 L245.87785252292474,21.909830056250527 L263.7764129073788,22.274575140626315 L249.51056516295154,33.09016994374947 L254.69463130731182,50.22542485937369 L240,40 L225.30536869268818,50.22542485937369 L230.48943483704846,33.09016994374947 L216.22358709262116,22.274575140626318 L234.12214747707526,21.909830056250527 Z" fill="#b8860b" fill-opacity="0.8" stroke="#9a6800" stroke-width="2"/><path d="M240,75 L245.87785252292474,91.90983005625053 L263.7764129073788,92.27457514062631 L249.51056516295154,103.09016994374947 L254.69463130731182,120.22542485937369 L240,110 L225.30536869268818,120.22542485937369 L230.48943483704846,103.09016994374947 L216.22358709262116,92.27457514062633 L234.12214747707526,91.90983005625053 Z" fill="#fff8dc" fill-opacity="0.8" stroke="#e1dabe" stroke-width="2"/><path d="M240,145 L245.87785252292474,161.9098300562505 L263.7764129073788,162.27457514062633 L249.51056516295154,173.0901699437495 L254.69463130731182,190.22542485937367 L240,180 L225.30536869268818,190.22542485937367 L230.48943483704846,173.0901699437495 L216.22358709262116,162.27457514062633 L234.12214747707526,161.90983005625054 Z" fill="#1e3c72" fill-opacity="0.8" stroke="#001e54" stroke-width="2"/><path d="M240,215 L245.87785252292474,231.9098300562505 L263.7764129073788,232.27457514062633 L249.51056516295154,243.0901699437495 L254.69463130731182,260.2254248593737 L240,250 L225.30536869268818,260.2254248593737 L230.48943483704846,243.0901699437495 L216.22358709262116,232.27457514062633 L234.12214747707526,231.90983005625054 Z" fill="#d4af37" fill-opacity="0.8" stroke="#b69119" stroke-width="2"/><g transform="rotate(90, 100, 100)"><path d="M30,5 L35.877852522924734,21.909830056250527 L53.77641290737884,22.274575140626315 L39.510565162951536,33.09016994374947 L44.69463130731183,50.22542485937369 L30,40 L15.305368692688175,50.22542485937369 L20.489434837048464,33.09016994374947 L6.223587092621159,22.274575140626318 L24.122147477075266,21.909830056250527 Z" fill="#1e3c72" fill-opacity="0.8" stroke="#001e54" stroke-width="2"/><path d="M30,75 L35.877852522924734,91.90983005625053 L53.77641290737884,92.27457514062631 L39.510565162951536,103.09016994374947 L44.69463130731183,120.22542485937369 L30,110 L15.305368692688175,120.22542485937369 L20.489434837048464,103.09016994374947 L6.223587092621159,92.27457514062633 L24.122147477075266,91.90983005625053 Z" fill="#d4af37" fill-opacity="0.8" stroke="#b69119" stroke-width="2"/><path d="M30,145 L35.877852522924734,161.9098300562505 L53.77641290737884,162.27457514062633 L39.510565162951536,173.0901699437495 L44.69463130731183,190.22542485937367 L30,180 L15.305368692688175,190.22542485937367 L20.489434837048464,173.0901699437495 L6.223587092621159,162.27457514062633 L24.122147477075266,161.90983005625054 Z" fill="#ffd700" fill-opacity="0.8" stroke="#e1b900" stroke-width="2"/><path d="M30,215 L35.877852522924734,231.9098300562505 L53.77641290737884,232.27457514062633 L39.510565162951536,243.0901699437495 L44.69463130731183,260.2254248593737 L30,250 L15.305368692688175,260.2254248593737 L20.489434837048464,243.0901699437495 L6.223587092621159,232.27457514062633 L24.122147477075266,231.90983005625054 Z" fill="#b8860b" fill-opacity="0.8" stroke="#9a6800" stroke-width="2"/><path d="M100,5 L105.87785252292473,21.909830056250527 L123.77641290737884,22.274575140626315 L109.51056516295154,33.09016994374947 L114.69463130731182,50.22542485937369 L100,40 L85.30536869268818,50.22542485937369 L90.48943483704846,33.09016994374947 L76.22358709262116,22.274575140626318 L94.12214747707527,21.909830056250527 Z" fill="#d4af37" fill-opacity="0.8" stroke="#b69119" stroke-width="2"/><path d="M100,75 L105.87785252292473,91.90983005625053 L123.77641290737884,92.27457514062631 L109.51056516295154,103.09016994374947 L114.69463130731182,120.22542485937369 L100,110 L85.30536869268818,120.22542485937369 L90.48943483704846,103.09016994374947 L76.22358709262116,92.27457514062633 L94.12214747707527,91.90983005625053 Z" fill="#ffd700" fill-opacity="0.8" stroke="#e1b900" stroke-width="2"/><path d="M100,145 L105.87785252292473,161.9098300562505 L123.77641290737884,162.27457514062633 L109.51056516295154,173.0901699437495 L114.69463130731182,190.22542485937367 L100,180 L85.30536869268818,190.22542485937367 L90.48943483704846,173.0901699437495 L76.22358709262116,162.27457514062633 L94.12214747707527,161.90983005625054 Z" fill="#b8860b" fill-opacity="0.8" stroke="#9a6800" stroke-width="2"/><path d="M100,215 L105.87785252292473,231.9098300562505 L123.77641290737884,232.27457514062633 L109.51056516295154,243.0901699437495 L114.69463130731182,260.2254248593737 L100,250 L85.30536869268818,260.2254248593737 L90.48943483704846,243.0901699437495 L76.22358709262116,232.27457514062633 L94.12214747707527,231.90983005625054 Z" fill="#fff8dc" fill-opacity="0.8" stroke="#e1dabe" stroke-width="2"/><path d="M170,5 L175.87785252292474,21.909830056250527 L193.77641290737884,22.274575140626315 L179.51056516295154,33.09016994374947 L184.69463130731182,50.22542485937369 L170,40 L155.30536869268818,50.22542485937369 L160.48943483704846,33.09016994374947 L146.22358709262116,22.274575140626318 L164.12214747707526,21.909830056250527 Z" fill="#ffd700" fill-opacity="0.8" stroke="#e1b900" stroke-width="2"/><path d="M170,75 L175.87785252292474,91.90983005625053 L193.77641290737884,92.27457514062631 L179.51056516295154,103.09016994374947 L184.69463130731182,120.22542485937369 L170,110 L155.30536869268818,120.22542485937369 L160.48943483704846,103.09016994374947 L146.22358709262116,92.27457514062633 L164.12214747707526,91.90983005625053 Z" fill="#b8860b" fill-opacity="0.8" stroke="#9a6800" stroke-width="2"/><path d="M170,145 L175.87785252292474,161.9098300562505 L193.77641290737884,162.27457514062633 L179.51056516295154,173.0901699437495 L184.69463130731182,190.22542485937367 L170,180 L155.30536869268818,190.22542485937367 L160.48943483704846,173.0901699437495 L146.22358709262116,162.27457514062633 L164.12214747707526,161.90983005625054 Z" fill="#fff8dc" fill-opacity="0.8" stroke="#e1dabe" stroke-width="2"/><path d="M170,215 L175.87785252292474,231.9098300562505 L193.77641290737884,232.27457514062633 L179.51056516295154,243.0901699437495 L184.69463130731182,260.2254248593737 L170,250 L155.30536869268818,260.2254248593737 L160.48943483704846,243.0901699437495 L146.22358709262116,232.27457514062633 L164.12214747707526,231.90983005625054 Z" fill="#1e3c72" fill-opacity="0.8" stroke="#001e54" stroke-width="2"/><path d="M240,5 L245.87785252292474,21.909830056250527 L263.7764129073788,22.274575140626315 L249.51056516295154,33.09016994374947 L254.69463130731182,50.22542485937369 L240,40 L225.30536869268818,50.22542485937369 L230.48943483704846,33.09016994374947 L216.22358709262116,22.274575140626318 L234.12214747707526,21.909830056250527 Z" fill="#b8860b" fill-opacity="0.8" stroke="#9a6800" stroke-width="2"/><path d="M240,75 L245.87785252292474,91.90983005625053 L263.7764129073788,92.27457514062631 L249.51056516295154,103.09016994374947 L254.69463130731182,120.22542485937369 L240,110 L225.30536869268818,120.22542485937369 L230.48943483704846,103.09016994374947 L216.22358709262116,92.27457514062633 L234.12214747707526,91.90983005625053 Z" fill="#fff8dc" fill-opacity="0.8" stroke="#e1dabe" stroke-width="2"/><path d="M240,145 L245.87785252292474,161.9098300562505 L263.7764129073788,162.27457514062633 L249.51056516295154,173.0901699437495 L254.69463130731182,190.22542485937367 L240,180 L225.30536869268818,190.22542485937367 L230.48943483704846,173.0901699437495 L216.22358709262116,162.27457514062633 L234.12214747707526,161.90983005625054 Z" fill="#1e3c72" fill-opacity="0.8" stroke="#001e54" stroke-width="2"/><path d="M240,215 L245.87785252292474,231.9098300562505 L263.7764129073788,232.27457514062633 L249.51056516295154,243.0901699437495 L254.69463130731182,260.2254248593737 L240,250 L225.30536869268818,260.2254248593737 L230.48943483704846,243.0901699437495 L216.22358709262116,232.27457514062633 L234.12214747707526,231.90983005625054 Z" fill="#d4af37" fill-opacity="0.8" stroke="#b69119" stroke-width="2"/></g><g transform="rotate(180, 100, 100)"><path d="M30,5 L35.877852522924734,21.909830056250527 L53.77641290737884,22.274575140626315 L39.510565162951536,33.09016994374947 L44.69463130731183,50.22542485937369 L30,40 L15.305368692688175,50.22542485937369 L20.489434837048464,33.09016994374947 L6.223587092621159,22.274575140626318 L24.122147477075266,21.909830056250527 Z" fill="#1e3c72" fill-opacity="0.8" stroke="#001e54" stroke-width="2"/><path d="M30,75 L35.877852522924734,91.90983005625053 L53.77641290737884,92.27457514062631 L39.510565162951536,103.09016994374947 L44.69463130731183,120.22542485937369 L30,110 L15.305368692688175,120.22542485937369 L20.489434837048464,103.09016994374947 L6.223587092621159,92.27457514062633 L24.122147477075266,91.90983005625053 Z" fill="#d4af37" fill-opacity="0.8" stroke="#b69119" stroke-width="2"/><path d="M30,145 L35.877852522924734,161.9098300562505 L53.77641290737884,162.27457514062633 L39.510565162951536,173.0901699437495 L44.69463130731183,190.22542485937367 L30,180 L15.305368692688175,190.22542485937367 L20.489434837048464,173.0901699437495 L6.223587092621159,162.27457514062633 L24.122147477075266,161.90983005625054 Z" fill="#ffd700" fill-opacity="0.8" stroke="#e1b900" stroke-width="2"/><path d="M30,215 L35.877852522924734,231.9098300562505 L53.77641290737884,232.27457514062633 L39.510565162951536,243.0901699437495 L44.69463130731183,260.2254248593737 L30,250 L15.305368692688175,260.2254248593737 L20.489434837048464,243.0901699437495 L6.223587092621159,232.27457514062633 L24.122147477075266,231.90983005625054 Z" fill="#b8860b" fill-opacity="0.8" stroke="#9a6800" stroke-width="2"/><path d="M100,5 L105.87785252292473,21.909830056250527 L123.77641290737884,22.274575140626315 L109.51056516295154,33.09016994374947 L114.69463130731182,50.22542485937369 L100,40 L85.30536869268818,50.22542485937369 L90.48943483704846,33.09016994374947 L76.22358709262116,22.274575140626318 L94.12214747707527,21.909830056250527 Z" fill="#d4af37" fill-opacity="0.8" stroke="#b69119" stroke-width="2"/><path d="M100,75 L105.87785252292473,91.90983005625053 L123.77641290737884,92.27457514062631 L109.51056516295154,103.09016994374947 L114.69463130731182,120.22542485937369 L100,110 L85.30536869268818,120.22542485937369 L90.48943483704846,103.09016994374947 L76.22358709262116,92.27457514062633 L94.12214747707527,91.90983005625053 Z" fill="#ffd700" fill-opacity="0.8" stroke="#e1b900" stroke-width="2"/><path d="M100,145 L105.87785252292473,161.9098300562505 L123.77641290737884,162.27457514062633 L109.51056516295154,173.0901699437495 L114.69463130731182,190.22542485937367 L100,180 L85.30536869268818,190.22542485937367 L90.48943483704846,173.0901699437495 L76.22358709262116,162.27457514062633 L94.12214747707527,161.90983005625054 Z" fill="#b8860b" fill-opacity="0.8" stroke="#9a6800" stroke-width="2"/><path d="M100,215 L105.87785252292473,231.9098300562505 L123.77641290737884,232.27457514062633 L109.51056516295154,243.0901699437495 L114.69463130731182,260.2254248593737 L100,250 L85.30536869268818,260.2254248593737 L90.48943483704846,243.0901699437495 L76.22358709262116,232.27457514062633 L94.12214747707527,231.90983005625054 Z" fill="#fff8dc" fill-opacity="0.8" stroke="#e1dabe" stroke-width="2"/><path d="M170,5 L175.87785252292474,21.909830056250527 L193.77641290737884,22.274575140626315 L179.51056516295154,33.09016994374947 L184.69463130731182,50.22542485937369 L170,40 L155.30536869268818,50.22542485937369 L160.48943483704846,33.09016994374947 L146.22358709262116,22.274575140626318 L164.12214747707526,21.909830056250527 Z" fill="#ffd700" fill-opacity="0.8" stroke="#e1b900" stroke-width="2"/><path d="M170,75 L175.87785252292474,91.90983005625053 L193.77641290737884,92.27457514062631 L179.51056516295154,103.09016994374947 L184.69463130731182,120.22542485937369 L170,110 L155.30536869268818,120.22542485937369 L160.48943483704846,103.09016994374947 L146.22358709262116,92.27457514062633 L164.12214747707526,91.90983005625053 Z" fill="#b8860b" fill-opacity="0.8" stroke="#9a6800" stroke-width="2"/><path d="M170,145 L175.87785252292474,161.9098300562505 L193.77641290737884,162.27457514062633 L179.51056516295154,173.0901699437495 L184.69463130731182,190.22542485937367 L170,180 L155.30536869268818,190.22542485937367 L160.48943483704846,173.0901699437495 L146.22358709262116,162.27457514062633 L164.12214747707526,161.90983005625054 Z" fill="#fff8dc" fill-opacity="0.8" stroke="#e1dabe" stroke-width="2"/><path d="M170,215 L175.87785252292474,231.9098300562505 L193.77641290737884,232.27457514062633 L179.51056516295154,243.0901699437495 L184.69463130731182,260.2254248593737 L170,250 L155.30536869268818,260.2254248593737 L160.48943483704846,243.0901699437495 L146.22358709262116,232.27457514062633 L164.12214747707526,231.90983005625054 Z" fill="#1e3c72" fill-opacity="0.8" stroke="#001e54" stroke-width="2"/><path d="M240,5 L245.87785252292474,21.909830056250527 L263.7764129073788,22.274575140626315 L249.51056516295154,33.09016994374947 L254.69463130731182,50.22542485937369 L240,40 L225.30536869268818,50.22542485937369 L230.48943483704846,33.09016994374947 L216.22358709262116,22.274575140626318 L234.12214747707526,21.909830056250527 Z" fill="#b8860b" fill-opacity="0.8" stroke="#9a6800" stroke-width="2"/><path d="M240,75 L245.87785252292474,91.90983005625053 L263.7764129073788,92.27457514062631 L249.51056516295154,103.09016994374947 L254.69463130731182,120.22542485937369 L240,110 L225.30536869268818,120.22542485937369 L230.48943483704846,103.09016994374947 L216.22358709262116,92.27457514062633 L234.12214747707526,91.90983005625053 Z" fill="#fff8dc" fill-opacity="0.8" stroke="#e1dabe" stroke-width="2"/><path d="M240,145 L245.87785252292474,161.9098300562505 L263.7764129073788,162.27457514062633 L249.51056516295154,173.0901699437495 L254.69463130731182,190.22542485937367 L240,180 L225.30536869268818,190.22542485937367 L230.48943483704846,173.0901699437495 L216.22358709262116,162.27457514062633 L234.12214747707526,161.90983005625054 Z" fill="#1e3c72" fill-opacity="0.8" stroke="#001e54" stroke-width="2"/><path d="M240,215 L245.87785252292474,231.9098300562505 L263.7764129073788,232.27457514062633 L249.51056516295154,243.0901699437495 L254.69463130731182,260.2254248593737 L240,250 L225.30536869268818,260.2254248593737 L230.48943483704846,243.0901699437495 L216.22358709262116,232.27457514062633 L234.12214747707526,231.90983005625054 Z" fill="#d4af37" fill-opacity="0.8" stroke="#b69119" stroke-width="2"/></g><g transform="rotate(270, 100, 100)"><path d="M30,5 L35.877852522924734,21.909830056250527 L53.77641290737884,22.274575140626315 L39.510565162951536,33.09016994374947 L44.69463130731183,50.22542485937369 L30,40 L15.305368692688175,50.22542485937369 L20.489434837048464,33.09016994374947 L6.223587092621159,22.274575140626318 L24.122147477075266,21.909830056250527 Z" fill="#1e3c72" fill-opacity="0.8" stroke="#001e54" stroke-width="2"/><path d="M30,75 L35.877852522924734,91.90983005625053 L53.77641290737884,92.27457514062631 L39.510565162951536,103.09016994374947 L44.69463130731183,120.22542485937369 L30,110 L15.305368692688175,120.22542485937369 L20.489434837048464,103.09016994374947 L6.223587092621159,92.27457514062633 L24.122147477075266,91.90983005625053 Z" fill="#d4af37" fill-opacity="0.8" stroke="#b69119" stroke-width="2"/><path d="M30,145 L35.877852522924734,161.9098300562505 L53.77641290737884,162.27457514062633 L39.510565162951536,173.0901699437495 L44.69463130731183,190.22542485937367 L30,180 L15.305368692688175,190.22542485937367 L20.489434837048464,173.0901699437495 L6.223587092621159,162.27457514062633 L24.122147477075266,161.90983005625054 Z" fill="#ffd700" fill-opacity="0.8" stroke="#e1b900" stroke-width="2"/><path d="M30,215 L35.877852522924734,231.9098300562505 L53.77641290737884,232.27457514062633 L39.510565162951536,243.0901699437495 L44.69463130731183,260.2254248593737 L30,250 L15.305368692688175,260.2254248593737 L20.489434837048464,243.0901699437495 L6.223587092621159,232.27457514062633 L24.122147477075266,231.90983005625054 Z" fill="#b8860b" fill-opacity="0.8" stroke="#9a6800" stroke-width="2"/><path d="M100,5 L105.87785252292473,21.909830056250527 L123.77641290737884,22.274575140626315 L109.51056516295154,33.09016994374947 L114.69463130731182,50.22542485937369 L100,40 L85.30536869268818,50.22542485937369 L90.48943483704846,33.09016994374947 L76.22358709262116,22.274575140626318 L94.12214747707527,21.909830056250527 Z" fill="#d4af37" fill-opacity="0.8" stroke="#b69119" stroke-width="2"/><path d="M100,75 L105.87785252292473,91.90983005625053 L123.77641290737884,92.27457514062631 L109.51056516295154,103.09016994374947 L114.69463130731182,120.22542485937369 L100,110 L85.30536869268818,120.22542485937369 L90.48943483704846,103.09016994374947 L76.22358709262116,92.27457514062633 L94.12214747707527,91.90983005625053 Z" fill="#ffd700" fill-opacity="0.8" stroke="#e1b900" stroke-width="2"/><path d="M100,145 L105.87785252292473,161.9098300562505 L123.77641290737884,162.27457514062633 L109.51056516295154,173.0901699437495 L114.69463130731182,190.22542485937367 L100,180 L85.30536869268818,190.22542485937367 L90.48943483704846,173.0901699437495 L76.22358709262116,162.27457514062633 L94.12214747707527,161.90983005625054 Z" fill="#b8860b" fill-opacity="0.8" stroke="#9a6800" stroke-width="2"/><path d="M100,215 L105.87785252292473,231.9098300562505 L123.77641290737884,232.27457514062633 L109.51056516295154,243.0901699437495 L114.69463130731182,260.2254248593737 L100,250 L85.30536869268818,260.2254248593737 L90.48943483704846,243.0901699437495 L76.22358709262116,232.27457514062633 L94.12214747707527,231.90983005625054 Z" fill="#fff8dc" fill-opacity="0.8" stroke="#e1dabe" stroke-width="2"/><path d="M170,5 L175.87785252292474,21.909830056250527 L193.77641290737884,22.274575140626315 L179.51056516295154,33.09016994374947 L184.69463130731182,50.22542485937369 L170,40 L155.30536869268818,50.22542485937369 L160.48943483704846,33.09016994374947 L146.22358709262116,22.274575140626318 L164.12214747707526,21.909830056250527 Z" fill="#ffd700" fill-opacity="0.8" stroke="#e1b900" stroke-width="2"/><path d="M170,75 L175.87785252292474,91.90983005625053 L193.77641290737884,92.27457514062631 L179.51056516295154,103.09016994374947 L184.69463130731182,120.22542485937369 L170,110 L155.30536869268818,120.22542485937369 L160.48943483704846,103.09016994374947 L146.22358709262116,92.27457514062633 L164.12214747707526,91.90983005625053 Z" fill="#b8860b" fill-opacity="0.8" stroke="#9a6800" stroke-width="2"/><path d="M170,145 L175.87785252292474,161.9098300562505 L193.77641290737884,162.27457514062633 L179.51056516295154,173.0901699437495 L184.69463130731182,190.22542485937367 L170,180 L155.30536869268818,190.22542485937367 L160.48943483704846,173.0901699437495 L146.22358709262116,162.27457514062633 L164.12214747707526,161.90983005625054 Z" fill="#fff8dc" fill-opacity="0.8" stroke="#e1dabe" stroke-width="2"/><path d="M170,215 L175.87785252292474,231.9098300562505 L193.77641290737884,232.27457514062633 L179.51056516295154,243.0901699437495 L184.69463130731182,260.2254248593737 L170,250 L155.30536869268818,260.2254248593737 L160.48943483704846,243.0901699437495 L146.22358709262116,232.27457514062633 L164.12214747707526,231.90983005625054 Z" fill="#1e3c72" fill-opacity="0.8" stroke="#001e54" stroke-width="2"/><path d="M240,5 L245.87785252292474,21.909830056250527 L263.7764129073788,22.274575140626315 L249.51056516295154,33.09016994374947 L254.69463130731182,50.22542485937369 L240,40 L225.30536869268818,50.22542485937369 L230.48943483704846,33.09016994374947 L216.22358709262116,22.274575140626318 L234.12214747707526,21.909830056250527 Z" fill="#b8860b" fill-opacity="0.8" stroke="#9a6800" stroke-width="2"/><path d="M240,75 L245.87785252292474,91.90983005625053 L263.7764129073788,92.27457514062631 L249.51056516295154,103.09016994374947 L254.69463130731182,120.22542485937369 L240,110 L225.30536869268818,120.22542485937369 L230.48943483704846,103.09016994374947 L216.22358709262116,92.27457514062633 L234.12214747707526,91.90983005625053 Z" fill="#fff8dc" fill-opacity="0.8" stroke="#e1dabe" stroke-width="2"/><path d="M240,145 L245.87785252292474,161.9098300562505 L263.7764129073788,162.27457514062633 L249.51056516295154,173.0901699437495 L254.69463130731182,190.22542485937367 L240,180 L225.30536869268818,190.22542485937367 L230.48943483704846,173.0901699437495 L216.22358709262116,162.27457514062633 L234.12214747707526,161.90983005625054 Z" fill="#1e3c72" fill-opacity="0.8" stroke="#001e54" stroke-width="2"/><path d="M240,215 L245.87785252292474,231.9098300562505 L263.7764129073788,232.27457514062633 L249.51056516295154,243.0901699437495 L254.69463130731182,260.2254248593737 L240,250 L225.30536869268818,260.2254248593737 L230.48943483704846,243.0901699437495 L216.22358709262116,232.27457514062633 L234.12214747707526,231.90983005625054 Z" fill="#d4af37" fill-opacity="0.8" stroke="#b69119" stroke-width="2"/></g></g></g><polygon points="100,70 130,100 100,130 70,100" fill="#1e3c72" fill-opacity="0.8" stroke="#00144a" stroke-width="4"/><polygon points="100,80 120,100 100,120 80,100" fill="#d4af37" fill-opacity="0.8" stroke="#ac870f" stroke-width="2"/><path d="M15,5 L17.82842712474619,12.17157287525381 L25,15 L17.82842712474619,17.82842712474619 L15,25 L12.17157287525381,17.82842712474619 L5,15.000000000000002 L12.171572875253808,12.17157287525381 Z" fill="#1e3c72" fill-opacity="0.6" stroke="#1e3c72" stroke-width="6.5" stroke-opacity="1"/><path d="M185,175 L187.82842712474618,182.17157287525382 L195,185 L187.82842712474618,187.82842712474618 L185,195 L182.17157287525382,187.82842712474618 L175,185 L182.17157287525382,182.17157287525382 Z" fill="#1e3c72" fill-opacity="0.6" stroke="#1e3c72" stroke-width="6.5" stroke-opacity="1"/><path d="M185,7 L187.26274169979695,12.737258300203049 L193,15 L187.26274169979695,17.26274169979695 L185,23 L182.73725830020305,17.26274169979695 L177,15.000000000000002 L182.73725830020305,12.737258300203049 Z" fill="#d4af37" fill-opacity="0.6" stroke="#d4af37" stroke-width="5.2" stroke-opacity="1"/><path d="M15,177 L17.26274169979695,182.73725830020305 L23,185 L17.26274169979695,187.26274169979695 L15,193 L12.737258300203049,187.26274169979695 L7,185 L12.737258300203047,182.73725830020305 Z" fill="#d4af37" fill-opacity="0.6" stroke="#d4af37" stroke-width="5.2" stroke-opacity="1"/><rect x="5" y="5" width="190" height="190" fill="none" stroke="#1e3c72" stroke-width="8" stroke-opacity="1"/></svg>