<svg xmlns="http://www.w3.org/2000/svg" width="200" height="200" viewBox="0 0 200 200"><defs></defs><rect width="200" height="200" fill="#ffffff"/><g class="pattern"><g class="symmetry-rotational"><ellipse cx="100" cy="100" rx="100" ry="30" transform="rotate(0, 100, 100)" fill="none" stroke="#e76f51" stroke-width="11" stroke-dasharray="11,5.5"/><ellipse cx="100" cy="100" rx="100" ry="30" transform="rotate(59.99999999999999, 100, 100)" fill="none" stroke="#f4a261" stroke-width="11" stroke-dasharray="11,5.5"/><ellipse cx="100" cy="100" rx="100" ry="30" transform="rotate(119.99999999999999, 100, 100)" fill="none" stroke="#e9c46a" stroke-width="11" stroke-dasharray="11,5.5"/><ellipse cx="100" cy="100" rx="100" ry="30" transform="rotate(180, 100, 100)" fill="none" stroke="#264653" stroke-width="11" stroke-dasharray="11,5.5"/><ellipse cx="100" cy="100" rx="100" ry="30" transform="rotate(239.99999999999997, 100, 100)" fill="none" stroke="#2a9d8f" stroke-width="11" stroke-dasharray="11,5.5"/><ellipse cx="100" cy="100" rx="100" ry="30" transform="rotate(300.00000000000006, 100, 100)" fill="none" stroke="#e76f51" stroke-width="11" stroke-dasharray="11,5.5"/><g transform="rotate(90, 100, 100)"><ellipse cx="100" cy="100" rx="100" ry="30" transform="rotate(0, 100, 100)" fill="none" stroke="#e76f51" stroke-width="11" stroke-dasharray="11,5.5"/><ellipse cx="100" cy="100" rx="100" ry="30" transform="rotate(59.99999999999999, 100, 100)" fill="none" stroke="#f4a261" stroke-width="11" stroke-dasharray="11,5.5"/><ellipse cx="100" cy="100" rx="100" ry="30" transform="rotate(119.99999999999999, 100, 100)" fill="none" stroke="#e9c46a" stroke-width="11" stroke-dasharray="11,5.5"/><ellipse cx="100" cy="100" rx="100" ry="30" transform="rotate(180, 100, 100)" fill="none" stroke="#264653" stroke-width="11" stroke-dasharray="11,5.5"/><ellipse cx="100" cy="100" rx="100" ry="30" transform="rotate(239.99999999999997, 100, 100)" fill="none" stroke="#2a9d8f" stroke-width="11" stroke-dasharray="11,5.5"/><ellipse cx="100" cy="100" rx="100" ry="30" transform="rotate(300.00000000000006, 100, 100)" fill="none" stroke="#e76f51" stroke-width="11" stroke-dasharray="11,5.5"/></g><g transform="rotate(180, 100, 100)"><ellipse cx="100" cy="100" rx="100" ry="30" transform="rotate(0, 100, 100)" fill="none" stroke="#e76f51" stroke-width="11" stroke-dasharray="11,5.5"/><ellipse cx="100" cy="100" rx="100" ry="30" transform="rotate(59.99999999999999, 100, 100)" fill="none" stroke="#f4a261" stroke-width="11" stroke-dasharray="11,5.5"/><ellipse cx="100" cy="100" rx="100" ry="30" transform="rotate(119.99999999999999, 100, 100)" fill="none" stroke="#e9c46a" stroke-width="11" stroke-dasharray="11,5.5"/><ellipse cx="100" cy="100" rx="100" ry="30" transform="rotate(180, 100, 100)" fill="none" stroke="#264653" stroke-width="11" stroke-dasharray="11,5.5"/><ellipse cx="100" cy="100" rx="100" ry="30" transform="rotate(239.99999999999997, 100, 100)" fill="none" stroke="#2a9d8f" stroke-width="11" stroke-dasharray="11,5.5"/><ellipse cx="100" cy="100" rx="100" ry="30" transform="rotate(300.00000000000006, 100, 100)" fill="none" stroke="#e76f51" stroke-width="11" stroke-dasharray="11,5.5"/></g><g transform="rotate(270, 100, 100)"><ellipse cx="100" cy="100" rx="100" ry="30" transform="rotate(0, 100, 100)" fill="none" stroke="#e76f51" stroke-width="11" stroke-dasharray="11,5.5"/><ellipse cx="100" cy="100" rx="100" ry="30" transform="rotate(59.99999999999999, 100, 100)" fill="none" stroke="#f4a261" stroke-width="11" stroke-dasharray="11,5.5"/><ellipse cx="100" cy="100" rx="100" ry="30" transform="rotate(119.99999999999999, 100, 100)" fill="none" stroke="#e9c46a" stroke-width="11" stroke-dasharray="11,5.5"/><ellipse cx="100" cy="100" rx="100" ry="30" transform="rotate(180, 100, 100)" fill="none" stroke="#264653" stroke-width="11" stroke-dasharray="11,5.5"/><ellipse cx="100" cy="100" rx="100" ry="30" transform="rotate(239.99999999999997, 100, 100)" fill="none" stroke="#2a9d8f" stroke-width="11" stroke-dasharray="11,5.5"/><ellipse cx="100" cy="100" rx="100" ry="30" transform="rotate(300.00000000000006, 100, 100)" fill="none" stroke="#e76f51" stroke-width="11" stroke-dasharray="11,5.5"/></g></g></g><polygon points="100,70 130,100 100,130 70,100" fill="#e76f51" fill-opacity="0.8" stroke="#bf4729" stroke-width="4"/><polygon points="100,80 120,100 100,120 80,100" fill="#f4a261" fill-opacity="0.8" stroke="#cc7a39" stroke-width="2"/><path d="M15,5 L17.82842712474619,12.17157287525381 L25,15 L17.82842712474619,17.82842712474619 L15,25 L12.17157287525381,17.82842712474619 L5,15.000000000000002 L12.171572875253808,12.17157287525381 Z" fill="#e76f51" fill-opacity="0.6" stroke="#e76f51" stroke-width="6.5" stroke-opacity="1"/><path d="M185,175 L187.82842712474618,182.17157287525382 L195,185 L187.82842712474618,187.82842712474618 L185,195 L182.17157287525382,187.82842712474618 L175,185 L182.17157287525382,182.17157287525382 Z" fill="#e76f51" fill-opacity="0.6" stroke="#e76f51" stroke-width="6.5" stroke-opacity="1"/><path d="M185,7 L187.26274169979695,12.737258300203049 L193,15 L187.26274169979695,17.26274169979695 L185,23 L182.73725830020305,17.26274169979695 L177,15.000000000000002 L182.73725830020305,12.737258300203049 Z" fill="#f4a261" fill-opacity="0.6" stroke="#f4a261" stroke-width="5.2" stroke-opacity="1"/><path d="M15,177 L17.26274169979695,182.73725830020305 L23,185 L17.26274169979695,187.26274169979695 L15,193 L12.737258300203049,187.26274169979695 L7,185 L12.737258300203047,182.73725830020305 Z" fill="#f4a261" fill-opacity="0.6" stroke="#f4a261" stroke-width="5.2" stroke-opacity="1"/><rect x="5" y="5" width="190" height="190" fill="none" stroke="#1e3c72" stroke-width="8" stroke-opacity="1"/></svg>