<svg xmlns="http://www.w3.org/2000/svg" width="200" height="200" viewBox="0 0 200 200"><defs></defs><rect width="200" height="200" fill="#ffffff"/><g class="pattern"><g class="symmetry-rotational"><polygon points="36.25,16 56.5,36.25 36.25,56.5 16,36.25" fill="#dc143c" fill-opacity="0.8" stroke="#be001e" stroke-width="2.5"/><polygon points="78.75,16 99,36.25 78.75,56.5 58.5,36.25" fill="#ffd700" fill-opacity="0.8" stroke="#e1b900" stroke-width="2.5"/><polygon points="121.25,16 141.5,36.25 121.25,56.5 101,36.25" fill="#dc143c" fill-opacity="0.8" stroke="#be001e" stroke-width="2.5"/><polygon points="163.75,16 184,36.25 163.75,56.5 143.5,36.25" fill="#ffd700" fill-opacity="0.8" stroke="#e1b900" stroke-width="2.5"/><polygon points="36.25,58.5 56.5,78.75 36.25,99 16,78.75" fill="#ffd700" fill-opacity="0.8" stroke="#e1b900" stroke-width="2.5"/><polygon points="78.75,58.5 99,78.75 78.75,99 58.5,78.75" fill="#dc143c" fill-opacity="0.8" stroke="#be001e" stroke-width="2.5"/><polygon points="121.25,58.5 141.5,78.75 121.25,99 101,78.75" fill="#ffd700" fill-opacity="0.8" stroke="#e1b900" stroke-width="2.5"/><polygon points="163.75,58.5 184,78.75 163.75,99 143.5,78.75" fill="#dc143c" fill-opacity="0.8" stroke="#be001e" stroke-width="2.5"/><polygon points="36.25,101 56.5,121.25 36.25,141.5 16,121.25" fill="#dc143c" fill-opacity="0.8" stroke="#be001e" stroke-width="2.5"/><polygon points="78.75,101 99,121.25 78.75,141.5 58.5,121.25" fill="#ffd700" fill-opacity="0.8" stroke="#e1b900" stroke-width="2.5"/><polygon points="121.25,101 141.5,121.25 121.25,141.5 101,121.25" fill="#dc143c" fill-opacity="0.8" stroke="#be001e" stroke-width="2.5"/><polygon points="163.75,101 184,121.25 163.75,141.5 143.5,121.25" fill="#ffd700" fill-opacity="0.8" stroke="#e1b900" stroke-width="2.5"/><polygon points="36.25,143.5 56.5,163.75 36.25,184 16,163.75" fill="#ffd700" fill-opacity="0.8" stroke="#e1b900" stroke-width="2.5"/><polygon points="78.75,143.5 99,163.75 78.75,184 58.5,163.75" fill="#dc143c" fill-opacity="0.8" stroke="#be001e" stroke-width="2.5"/><polygon points="121.25,143.5 141.5,163.75 121.25,184 101,163.75" fill="#ffd700" fill-opacity="0.8" stroke="#e1b900" stroke-width="2.5"/><polygon points="163.75,143.5 184,163.75 163.75,184 143.5,163.75" fill="#dc143c" fill-opacity="0.8" stroke="#be001e" stroke-width="2.5"/><g transform="rotate(90, 100, 100)"><polygon points="36.25,16 56.5,36.25 36.25,56.5 16,36.25" fill="#dc143c" fill-opacity="0.8" stroke="#be001e" stroke-width="2.5"/><polygon points="78.75,16 99,36.25 78.75,56.5 58.5,36.25" fill="#ffd700" fill-opacity="0.8" stroke="#e1b900" stroke-width="2.5"/><polygon points="121.25,16 141.5,36.25 121.25,56.5 101,36.25" fill="#dc143c" fill-opacity="0.8" stroke="#be001e" stroke-width="2.5"/><polygon points="163.75,16 184,36.25 163.75,56.5 143.5,36.25" fill="#ffd700" fill-opacity="0.8" stroke="#e1b900" stroke-width="2.5"/><polygon points="36.25,58.5 56.5,78.75 36.25,99 16,78.75" fill="#ffd700" fill-opacity="0.8" stroke="#e1b900" stroke-width="2.5"/><polygon points="78.75,58.5 99,78.75 78.75,99 58.5,78.75" fill="#dc143c" fill-opacity="0.8" stroke="#be001e" stroke-width="2.5"/><polygon points="121.25,58.5 141.5,78.75 121.25,99 101,78.75" fill="#ffd700" fill-opacity="0.8" stroke="#e1b900" stroke-width="2.5"/><polygon points="163.75,58.5 184,78.75 163.75,99 143.5,78.75" fill="#dc143c" fill-opacity="0.8" stroke="#be001e" stroke-width="2.5"/><polygon points="36.25,101 56.5,121.25 36.25,141.5 16,121.25" fill="#dc143c" fill-opacity="0.8" stroke="#be001e" stroke-width="2.5"/><polygon points="78.75,101 99,121.25 78.75,141.5 58.5,121.25" fill="#ffd700" fill-opacity="0.8" stroke="#e1b900" stroke-width="2.5"/><polygon points="121.25,101 141.5,121.25 121.25,141.5 101,121.25" fill="#dc143c" fill-opacity="0.8" stroke="#be001e" stroke-width="2.5"/><polygon points="163.75,101 184,121.25 163.75,141.5 143.5,121.25" fill="#ffd700" fill-opacity="0.8" stroke="#e1b900" stroke-width="2.5"/><polygon points="36.25,143.5 56.5,163.75 36.25,184 16,163.75" fill="#ffd700" fill-opacity="0.8" stroke="#e1b900" stroke-width="2.5"/><polygon points="78.75,143.5 99,163.75 78.75,184 58.5,163.75" fill="#dc143c" fill-opacity="0.8" stroke="#be001e" stroke-width="2.5"/><polygon points="121.25,143.5 141.5,163.75 121.25,184 101,163.75" fill="#ffd700" fill-opacity="0.8" stroke="#e1b900" stroke-width="2.5"/><polygon points="163.75,143.5 184,163.75 163.75,184 143.5,163.75" fill="#dc143c" fill-opacity="0.8" stroke="#be001e" stroke-width="2.5"/></g><g transform="rotate(180, 100, 100)"><polygon points="36.25,16 56.5,36.25 36.25,56.5 16,36.25" fill="#dc143c" fill-opacity="0.8" stroke="#be001e" stroke-width="2.5"/><polygon points="78.75,16 99,36.25 78.75,56.5 58.5,36.25" fill="#ffd700" fill-opacity="0.8" stroke="#e1b900" stroke-width="2.5"/><polygon points="121.25,16 141.5,36.25 121.25,56.5 101,36.25" fill="#dc143c" fill-opacity="0.8" stroke="#be001e" stroke-width="2.5"/><polygon points="163.75,16 184,36.25 163.75,56.5 143.5,36.25" fill="#ffd700" fill-opacity="0.8" stroke="#e1b900" stroke-width="2.5"/><polygon points="36.25,58.5 56.5,78.75 36.25,99 16,78.75" fill="#ffd700" fill-opacity="0.8" stroke="#e1b900" stroke-width="2.5"/><polygon points="78.75,58.5 99,78.75 78.75,99 58.5,78.75" fill="#dc143c" fill-opacity="0.8" stroke="#be001e" stroke-width="2.5"/><polygon points="121.25,58.5 141.5,78.75 121.25,99 101,78.75" fill="#ffd700" fill-opacity="0.8" stroke="#e1b900" stroke-width="2.5"/><polygon points="163.75,58.5 184,78.75 163.75,99 143.5,78.75" fill="#dc143c" fill-opacity="0.8" stroke="#be001e" stroke-width="2.5"/><polygon points="36.25,101 56.5,121.25 36.25,141.5 16,121.25" fill="#dc143c" fill-opacity="0.8" stroke="#be001e" stroke-width="2.5"/><polygon points="78.75,101 99,121.25 78.75,141.5 58.5,121.25" fill="#ffd700" fill-opacity="0.8" stroke="#e1b900" stroke-width="2.5"/><polygon points="121.25,101 141.5,121.25 121.25,141.5 101,121.25" fill="#dc143c" fill-opacity="0.8" stroke="#be001e" stroke-width="2.5"/><polygon points="163.75,101 184,121.25 163.75,141.5 143.5,121.25" fill="#ffd700" fill-opacity="0.8" stroke="#e1b900" stroke-width="2.5"/><polygon points="36.25,143.5 56.5,163.75 36.25,184 16,163.75" fill="#ffd700" fill-opacity="0.8" stroke="#e1b900" stroke-width="2.5"/><polygon points="78.75,143.5 99,163.75 78.75,184 58.5,163.75" fill="#dc143c" fill-opacity="0.8" stroke="#be001e" stroke-width="2.5"/><polygon points="121.25,143.5 141.5,163.75 121.25,184 101,163.75" fill="#ffd700" fill-opacity="0.8" stroke="#e1b900" stroke-width="2.5"/><polygon points="163.75,143.5 184,163.75 163.75,184 143.5,163.75" fill="#dc143c" fill-opacity="0.8" stroke="#be001e" stroke-width="2.5"/></g><g transform="rotate(270, 100, 100)"><polygon points="36.25,16 56.5,36.25 36.25,56.5 16,36.25" fill="#dc143c" fill-opacity="0.8" stroke="#be001e" stroke-width="2.5"/><polygon points="78.75,16 99,36.25 78.75,56.5 58.5,36.25" fill="#ffd700" fill-opacity="0.8" stroke="#e1b900" stroke-width="2.5"/><polygon points="121.25,16 141.5,36.25 121.25,56.5 101,36.25" fill="#dc143c" fill-opacity="0.8" stroke="#be001e" stroke-width="2.5"/><polygon points="163.75,16 184,36.25 163.75,56.5 143.5,36.25" fill="#ffd700" fill-opacity="0.8" stroke="#e1b900" stroke-width="2.5"/><polygon points="36.25,58.5 56.5,78.75 36.25,99 16,78.75" fill="#ffd700" fill-opacity="0.8" stroke="#e1b900" stroke-width="2.5"/><polygon points="78.75,58.5 99,78.75 78.75,99 58.5,78.75" fill="#dc143c" fill-opacity="0.8" stroke="#be001e" stroke-width="2.5"/><polygon points="121.25,58.5 141.5,78.75 121.25,99 101,78.75" fill="#ffd700" fill-opacity="0.8" stroke="#e1b900" stroke-width="2.5"/><polygon points="163.75,58.5 184,78.75 163.75,99 143.5,78.75" fill="#dc143c" fill-opacity="0.8" stroke="#be001e" stroke-width="2.5"/><polygon points="36.25,101 56.5,121.25 36.25,141.5 16,121.25" fill="#dc143c" fill-opacity="0.8" stroke="#be001e" stroke-width="2.5"/><polygon points="78.75,101 99,121.25 78.75,141.5 58.5,121.25" fill="#ffd700" fill-opacity="0.8" stroke="#e1b900" stroke-width="2.5"/><polygon points="121.25,101 141.5,121.25 121.25,141.5 101,121.25" fill="#dc143c" fill-opacity="0.8" stroke="#be001e" stroke-width="2.5"/><polygon points="163.75,101 184,121.25 163.75,141.5 143.5,121.25" fill="#ffd700" fill-opacity="0.8" stroke="#e1b900" stroke-width="2.5"/><polygon points="36.25,143.5 56.5,163.75 36.25,184 16,163.75" fill="#ffd700" fill-opacity="0.8" stroke="#e1b900" stroke-width="2.5"/><polygon points="78.75,143.5 99,163.75 78.75,184 58.5,163.75" fill="#dc143c" fill-opacity="0.8" stroke="#be001e" stroke-width="2.5"/><polygon points="121.25,143.5 141.5,163.75 121.25,184 101,163.75" fill="#ffd700" fill-opacity="0.8" stroke="#e1b900" stroke-width="2.5"/><polygon points="163.75,143.5 184,163.75 163.75,184 143.5,163.75" fill="#dc143c" fill-opacity="0.8" stroke="#be001e" stroke-width="2.5"/></g></g></g><circle cx="100" cy="100" r="28" fill="none" stroke="#4a0080" stroke-width="3" stroke-opacity="1"/><circle cx="100" cy="100" r="21" fill="none" stroke="#1e3c72" stroke-width="3" stroke-opacity="1"/><circle cx="100" cy="100" r="14" fill="none" stroke="#228b22" stroke-width="3" stroke-opacity="1"/><circle cx="100" cy="100" r="7" fill="none" stroke="#ffd700" stroke-width="3" stroke-opacity="1"/><circle cx="100" cy="100" r="4" fill="#dc143c" stroke="#b40014" stroke-width="2"/><path d="M15,5 L17.82842712474619,12.17157287525381 L25,15 L17.82842712474619,17.82842712474619 L15,25 L12.17157287525381,17.82842712474619 L5,15.000000000000002 L12.171572875253808,12.17157287525381 Z" fill="#dc143c" fill-opacity="0.6" stroke="#dc143c" stroke-width="6.5" stroke-opacity="1"/><path d="M185,175 L187.82842712474618,182.17157287525382 L195,185 L187.82842712474618,187.82842712474618 L185,195 L182.17157287525382,187.82842712474618 L175,185 L182.17157287525382,182.17157287525382 Z" fill="#dc143c" fill-opacity="0.6" stroke="#dc143c" stroke-width="6.5" stroke-opacity="1"/><path d="M185,7 L187.26274169979695,12.737258300203049 L193,15 L187.26274169979695,17.26274169979695 L185,23 L182.73725830020305,17.26274169979695 L177,15.000000000000002 L182.73725830020305,12.737258300203049 Z" fill="#ffd700" fill-opacity="0.6" stroke="#ffd700" stroke-width="5.2" stroke-opacity="1"/><path d="M15,177 L17.26274169979695,182.73725830020305 L23,185 L17.26274169979695,187.26274169979695 L15,193 L12.737258300203049,187.26274169979695 L7,185 L12.737258300203047,182.73725830020305 Z" fill="#ffd700" fill-opacity="0.6" stroke="#ffd700" stroke-width="5.2" stroke-opacity="1"/><rect x="5" y="5" width="190" height="190" fill="none" stroke="#1e3c72" stroke-width="8" stroke-opacity="1"/><rect x="16" y="16" width="168" height="168" fill="none" stroke="#1e3c72" stroke-width="4.8" stroke-opacity="1"/></svg>