<svg xmlns="http://www.w3.org/2000/svg" width="200" height="200" viewBox="0 0 200 200"><defs></defs><rect width="200" height="200" fill="#ffffff"/><g class="pattern"><g class="symmetry-radial"><circle cx="55" cy="100" r="45" fill="none" stroke="#dc143c" stroke-width="7.5"/><circle cx="145" cy="100" r="45" fill="none" stroke="#ffd700" stroke-width="7.5"/><circle cx="100" cy="55" r="30" fill="#dc143c" stroke="none"/><circle cx="100" cy="145" r="30" fill="#ffd700" stroke="none"/><g transform="rotate(45, 100, 100)"><circle cx="55" cy="100" r="45" fill="none" stroke="#dc143c" stroke-width="7.5"/><circle cx="145" cy="100" r="45" fill="none" stroke="#ffd700" stroke-width="7.5"/><circle cx="100" cy="55" r="30" fill="#dc143c" stroke="none"/><circle cx="100" cy="145" r="30" fill="#ffd700" stroke="none"/></g><g transform="rotate(90, 100, 100)"><circle cx="55" cy="100" r="45" fill="none" stroke="#dc143c" stroke-width="7.5"/><circle cx="145" cy="100" r="45" fill="none" stroke="#ffd700" stroke-width="7.5"/><circle cx="100" cy="55" r="30" fill="#dc143c" stroke="none"/><circle cx="100" cy="145" r="30" fill="#ffd700" stroke="none"/></g><g transform="rotate(135, 100, 100)"><circle cx="55" cy="100" r="45" fill="none" stroke="#dc143c" stroke-width="7.5"/><circle cx="145" cy="100" r="45" fill="none" stroke="#ffd700" stroke-width="7.5"/><circle cx="100" cy="55" r="30" fill="#dc143c" stroke="none"/><circle cx="100" cy="145" r="30" fill="#ffd700" stroke="none"/></g><g transform="rotate(180, 100, 100)"><circle cx="55" cy="100" r="45" fill="none" stroke="#dc143c" stroke-width="7.5"/><circle cx="145" cy="100" r="45" fill="none" stroke="#ffd700" stroke-width="7.5"/><circle cx="100" cy="55" r="30" fill="#dc143c" stroke="none"/><circle cx="100" cy="145" r="30" fill="#ffd700" stroke="none"/></g><g transform="rotate(225, 100, 100)"><circle cx="55" cy="100" r="45" fill="none" stroke="#dc143c" stroke-width="7.5"/><circle cx="145" cy="100" r="45" fill="none" stroke="#ffd700" stroke-width="7.5"/><circle cx="100" cy="55" r="30" fill="#dc143c" stroke="none"/><circle cx="100" cy="145" r="30" fill="#ffd700" stroke="none"/></g><g transform="rotate(270, 100, 100)"><circle cx="55" cy="100" r="45" fill="none" stroke="#dc143c" stroke-width="7.5"/><circle cx="145" cy="100" r="45" fill="none" stroke="#ffd700" stroke-width="7.5"/><circle cx="100" cy="55" r="30" fill="#dc143c" stroke="none"/><circle cx="100" cy="145" r="30" fill="#ffd700" stroke="none"/></g><g transform="rotate(315, 100, 100)"><circle cx="55" cy="100" r="45" fill="none" stroke="#dc143c" stroke-width="7.5"/><circle cx="145" cy="100" r="45" fill="none" stroke="#ffd700" stroke-width="7.5"/><circle cx="100" cy="55" r="30" fill="#dc143c" stroke="none"/><circle cx="100" cy="145" r="30" fill="#ffd700" stroke="none"/></g></g></g><rect x="96" y="75" width="8" height="50" fill="#dc143c" fill-opacity="0.8" stroke="#b40014" stroke-width="4"/><rect x="75" y="96" width="50" height="8" fill="#dc143c" fill-opacity="0.8" stroke="#b40014" stroke-width="4"/><polygon points="100,90 110,100 100,110 90,100" fill="#ffd700" fill-opacity="0.8" stroke="#d7af00" stroke-width="4"/><polygon points="15,3 27,15 15,27 3,15" fill="#dc143c" fill-opacity="0.4" stroke="#dc143c" stroke-width="6.5"/><polygon points="185,173 197,185 185,197 173,185" fill="#dc143c" fill-opacity="0.4" stroke="#dc143c" stroke-width="6.5"/><polygon points="185,5 195,15 185,25 175,15" fill="#ffd700" fill-opacity="0.3" stroke="#ffd700" stroke-width="5.2"/><polygon points="15,175 25,185 15,195 5,185" fill="#ffd700" fill-opacity="0.3" stroke="#ffd700" stroke-width="5.2"/><rect x="5" y="5" width="190" height="190" fill="none" stroke="#1e3c72" stroke-width="8" stroke-opacity="1"/><rect x="16" y="16" width="168" height="168" fill="none" stroke="#1e3c72" stroke-width="4.8" stroke-opacity="1"/></svg>