<svg xmlns="http://www.w3.org/2000/svg" width="200" height="200" viewBox="0 0 200 200"><defs></defs><rect width="200" height="200" fill="#ffffff"/><g class="pattern"><path d="M15,27.142857142857142 L15,27.142857142857142 L20,33.15326478294279 L25,35.64285714285714 L30,33.1532647829428 L35,27.142857142857142 L40,21.13244950277149 L45,18.642857142857146 L50,21.132449502771486 L55,27.14285714285714 L60,33.15326478294279 L65,35.64285714285714 L70,33.153264782942806 L75,27.142857142857146 L80,21.132449502771486 L85,18.642857142857146 L90,21.132449502771482 L95,27.14285714285714 L100,33.1532647829428 L105,35.64285714285714 L110,33.153264782942806 L115,27.142857142857146 L120,21.132449502771486 L125,18.642857142857146 L130,21.13244950277148 L135,27.142857142857135 L140,33.1532647829428 L145,35.64285714285714 L150,33.153264782942806 L155,27.14285714285715 L160,21.13244950277149 L165,18.642857142857146 L170,21.13244950277148 L175,27.142857142857135 L180,33.15326478294279 L185,35.64285714285714 " fill="none" stroke="#1e3c72" stroke-width="12.142857142857142" stroke-linecap="round"/><path d="M15,51.42857142857143 L15,51.42857142857143 L20,57.43897906865708 L25,59.92857142857143 L30,57.43897906865708 L35,51.42857142857143 L40,45.41816378848578 L45,42.92857142857143 L50,45.41816378848578 L55,51.42857142857143 L60,57.43897906865708 L65,59.92857142857143 L70,57.43897906865709 L75,51.42857142857143 L80,45.41816378848577 L85,42.92857142857143 L90,45.41816378848577 L95,51.42857142857142 L100,57.43897906865709 L105,59.92857142857143 L110,57.43897906865709 L115,51.42857142857144 L120,45.41816378848578 L125,42.92857142857143 L130,45.41816378848577 L135,51.42857142857142 L140,57.43897906865708 L145,59.92857142857143 L150,57.43897906865709 L155,51.42857142857144 L160,45.41816378848578 L165,42.92857142857143 L170,45.418163788485764 L175,51.42857142857142 L180,57.43897906865708 L185,59.92857142857143 " fill="none" stroke="#d4af37" stroke-width="12.142857142857142" stroke-linecap="round"/><path d="M15,75.71428571428571 L15,75.71428571428571 L20,81.72469335437135 L25,84.21428571428571 L30,81.72469335437137 L35,75.71428571428571 L40,69.70387807420006 L45,67.21428571428571 L50,69.70387807420005 L55,75.71428571428571 L60,81.72469335437135 L65,84.21428571428571 L70,81.72469335437137 L75,75.71428571428571 L80,69.70387807420005 L85,67.21428571428571 L90,69.70387807420005 L95,75.71428571428571 L100,81.72469335437137 L105,84.21428571428571 L110,81.72469335437137 L115,75.71428571428571 L120,69.70387807420005 L125,67.21428571428571 L130,69.70387807420005 L135,75.71428571428571 L140,81.72469335437137 L145,84.21428571428571 L150,81.72469335437137 L155,75.71428571428572 L160,69.70387807420005 L165,67.21428571428571 L170,69.70387807420005 L175,75.7142857142857 L180,81.72469335437135 L185,84.21428571428571 " fill="none" stroke="#ffd700" stroke-width="12.142857142857142" stroke-linecap="round"/><path d="M15,100 L15,100 L20,106.01040764008565 L25,108.5 L30,106.01040764008566 L35,100 L40,93.98959235991435 L45,91.5 L50,93.98959235991434 L55,100 L60,106.01040764008565 L65,108.5 L70,106.01040764008566 L75,100 L80,93.98959235991434 L85,91.5 L90,93.98959235991434 L95,100 L100,106.01040764008566 L105,108.5 L110,106.01040764008566 L115,100 L120,93.98959235991434 L125,91.5 L130,93.98959235991434 L135,100 L140,106.01040764008566 L145,108.5 L150,106.01040764008566 L155,100.00000000000001 L160,93.98959235991434 L165,91.5 L170,93.98959235991434 L175,99.99999999999999 L180,106.01040764008565 L185,108.5 " fill="none" stroke="#b8860b" stroke-width="12.142857142857142" stroke-linecap="round"/><path d="M15,124.28571428571428 L15,124.28571428571428 L20,130.29612192579992 L25,132.78571428571428 L30,130.29612192579992 L35,124.28571428571428 L40,118.27530664562863 L45,115.78571428571428 L50,118.27530664562862 L55,124.28571428571428 L60,130.29612192579992 L65,132.78571428571428 L70,130.29612192579995 L75,124.28571428571428 L80,118.27530664562862 L85,115.78571428571428 L90,118.27530664562862 L95,124.28571428571428 L100,130.29612192579992 L105,132.78571428571428 L110,130.29612192579995 L115,124.28571428571428 L120,118.27530664562862 L125,115.78571428571428 L130,118.27530664562862 L135,124.28571428571428 L140,130.29612192579992 L145,132.78571428571428 L150,130.29612192579995 L155,124.28571428571429 L160,118.27530664562862 L165,115.78571428571428 L170,118.27530664562862 L175,124.28571428571426 L180,130.29612192579992 L185,132.78571428571428 " fill="none" stroke="#fff8dc" stroke-width="12.142857142857142" stroke-linecap="round"/><path d="M15,148.57142857142856 L15,148.57142857142856 L20,154.5818362115142 L25,157.07142857142856 L30,154.5818362115142 L35,148.57142857142856 L40,142.5610209313429 L45,140.07142857142856 L50,142.5610209313429 L55,148.57142857142856 L60,154.5818362115142 L65,157.07142857142856 L70,154.58183621151423 L75,148.57142857142856 L80,142.5610209313429 L85,140.07142857142856 L90,142.56102093134288 L95,148.57142857142856 L100,154.5818362115142 L105,157.07142857142856 L110,154.58183621151423 L115,148.57142857142856 L120,142.5610209313429 L125,140.07142857142856 L130,142.56102093134288 L135,148.57142857142856 L140,154.5818362115142 L145,157.07142857142856 L150,154.58183621151423 L155,148.57142857142856 L160,142.5610209313429 L165,140.07142857142856 L170,142.56102093134288 L175,148.57142857142856 L180,154.5818362115142 L185,157.07142857142856 " fill="none" stroke="#1e3c72" stroke-width="12.142857142857142" stroke-linecap="round"/><path d="M15,172.85714285714286 L15,172.85714285714286 L20,178.8675504972285 L25,181.35714285714286 L30,178.8675504972285 L35,172.85714285714286 L40,166.84673521705722 L45,164.35714285714286 L50,166.84673521705722 L55,172.85714285714286 L60,178.8675504972285 L65,181.35714285714286 L70,178.86755049722854 L75,172.85714285714286 L80,166.84673521705722 L85,164.35714285714286 L90,166.8467352170572 L95,172.85714285714286 L100,178.8675504972285 L105,181.35714285714286 L110,178.86755049722854 L115,172.85714285714286 L120,166.84673521705722 L125,164.35714285714286 L130,166.8467352170572 L135,172.85714285714286 L140,178.8675504972285 L145,181.35714285714286 L150,178.86755049722854 L155,172.85714285714286 L160,166.84673521705722 L165,164.35714285714286 L170,166.8467352170572 L175,172.85714285714286 L180,178.8675504972285 L185,181.35714285714286 " fill="none" stroke="#d4af37" stroke-width="12.142857142857142" stroke-linecap="round"/></g><circle cx="15" cy="15" r="8" fill="none" stroke="#1e3c72" stroke-width="2"/><circle cx="185" cy="15" r="8" fill="none" stroke="#1e3c72" stroke-width="2"/><circle cx="185" cy="185" r="8" fill="none" stroke="#1e3c72" stroke-width="2"/><circle cx="15" cy="185" r="8" fill="none" stroke="#1e3c72" stroke-width="2"/><rect x="5" y="5" width="190" height="190" fill="none" stroke="#1e3c72" stroke-width="8"/></svg>