<svg xmlns="http://www.w3.org/2000/svg" width="200" height="200" viewBox="0 0 200 200"><defs></defs><rect width="200" height="200" fill="#ffffff"/><g class="pattern"><g class="symmetry-vertical"><path d="M15,15 L43.33333333333333,15 L43.33333333333333,43.33333333333333 L15,43.33333333333333 Z" fill="#1e3c72" fill-opacity="0.8"/><path d="M15,15 L29.166666666666664,15 L15,29.166666666666664 Z" fill="#0a285e" fill-opacity="0.8"/><path d="M43.33333333333333,15 L71.66666666666666,15 L71.66666666666666,43.33333333333333 L43.33333333333333,43.33333333333333 Z" fill="#2a5298" fill-opacity="0.8"/><path d="M43.33333333333333,15 L57.49999999999999,15 L43.33333333333333,29.166666666666664 Z" fill="#163e84" fill-opacity="0.8"/><path d="M71.66666666666666,15 L99.99999999999999,15 L99.99999999999999,43.33333333333333 L71.66666666666666,43.33333333333333 Z" fill="#1e3c72" fill-opacity="0.8"/><path d="M71.66666666666666,15 L85.83333333333333,15 L71.66666666666666,29.166666666666664 Z" fill="#0a285e" fill-opacity="0.8"/><path d="M100,15 L128.33333333333334,15 L128.33333333333334,43.33333333333333 L100,43.33333333333333 Z" fill="#2a5298" fill-opacity="0.8"/><path d="M100,15 L114.16666666666667,15 L100,29.166666666666664 Z" fill="#163e84" fill-opacity="0.8"/><path d="M128.33333333333331,15 L156.66666666666666,15 L156.66666666666666,43.33333333333333 L128.33333333333331,43.33333333333333 Z" fill="#1e3c72" fill-opacity="0.8"/><path d="M128.33333333333331,15 L142.49999999999997,15 L128.33333333333331,29.166666666666664 Z" fill="#0a285e" fill-opacity="0.8"/><path d="M156.66666666666666,15 L185,15 L185,43.33333333333333 L156.66666666666666,43.33333333333333 Z" fill="#2a5298" fill-opacity="0.8"/><path d="M156.66666666666666,15 L170.83333333333331,15 L156.66666666666666,29.166666666666664 Z" fill="#163e84" fill-opacity="0.8"/><path d="M15,43.33333333333333 L43.33333333333333,43.33333333333333 L43.33333333333333,71.66666666666666 L15,71.66666666666666 Z" fill="#2a5298" fill-opacity="0.8"/><path d="M15,43.33333333333333 L29.166666666666664,43.33333333333333 L15,57.49999999999999 Z" fill="#163e84" fill-opacity="0.8"/><path d="M43.33333333333333,43.33333333333333 L71.66666666666666,43.33333333333333 L71.66666666666666,71.66666666666666 L43.33333333333333,71.66666666666666 Z" fill="#1e3c72" fill-opacity="0.8"/><path d="M43.33333333333333,43.33333333333333 L57.49999999999999,43.33333333333333 L43.33333333333333,57.49999999999999 Z" fill="#0a285e" fill-opacity="0.8"/><path d="M71.66666666666666,43.33333333333333 L99.99999999999999,43.33333333333333 L99.99999999999999,71.66666666666666 L71.66666666666666,71.66666666666666 Z" fill="#2a5298" fill-opacity="0.8"/><path d="M71.66666666666666,43.33333333333333 L85.83333333333333,43.33333333333333 L71.66666666666666,57.49999999999999 Z" fill="#163e84" fill-opacity="0.8"/><path d="M100,43.33333333333333 L128.33333333333334,43.33333333333333 L128.33333333333334,71.66666666666666 L100,71.66666666666666 Z" fill="#1e3c72" fill-opacity="0.8"/><path d="M100,43.33333333333333 L114.16666666666667,43.33333333333333 L100,57.49999999999999 Z" fill="#0a285e" fill-opacity="0.8"/><path d="M128.33333333333331,43.33333333333333 L156.66666666666666,43.33333333333333 L156.66666666666666,71.66666666666666 L128.33333333333331,71.66666666666666 Z" fill="#2a5298" fill-opacity="0.8"/><path d="M128.33333333333331,43.33333333333333 L142.49999999999997,43.33333333333333 L128.33333333333331,57.49999999999999 Z" fill="#163e84" fill-opacity="0.8"/><path d="M156.66666666666666,43.33333333333333 L185,43.33333333333333 L185,71.66666666666666 L156.66666666666666,71.66666666666666 Z" fill="#1e3c72" fill-opacity="0.8"/><path d="M156.66666666666666,43.33333333333333 L170.83333333333331,43.33333333333333 L156.66666666666666,57.49999999999999 Z" fill="#0a285e" fill-opacity="0.8"/><path d="M15,71.66666666666666 L43.33333333333333,71.66666666666666 L43.33333333333333,99.99999999999999 L15,99.99999999999999 Z" fill="#1e3c72" fill-opacity="0.8"/><path d="M15,71.66666666666666 L29.166666666666664,71.66666666666666 L15,85.83333333333333 Z" fill="#0a285e" fill-opacity="0.8"/><path d="M43.33333333333333,71.66666666666666 L71.66666666666666,71.66666666666666 L71.66666666666666,99.99999999999999 L43.33333333333333,99.99999999999999 Z" fill="#2a5298" fill-opacity="0.8"/><path d="M43.33333333333333,71.66666666666666 L57.49999999999999,71.66666666666666 L43.33333333333333,85.83333333333333 Z" fill="#163e84" fill-opacity="0.8"/><path d="M71.66666666666666,71.66666666666666 L99.99999999999999,71.66666666666666 L99.99999999999999,99.99999999999999 L71.66666666666666,99.99999999999999 Z" fill="#1e3c72" fill-opacity="0.8"/><path d="M71.66666666666666,71.66666666666666 L85.83333333333333,71.66666666666666 L71.66666666666666,85.83333333333333 Z" fill="#0a285e" fill-opacity="0.8"/><path d="M100,71.66666666666666 L128.33333333333334,71.66666666666666 L128.33333333333334,99.99999999999999 L100,99.99999999999999 Z" fill="#2a5298" fill-opacity="0.8"/><path d="M100,71.66666666666666 L114.16666666666667,71.66666666666666 L100,85.83333333333333 Z" fill="#163e84" fill-opacity="0.8"/><path d="M128.33333333333331,71.66666666666666 L156.66666666666666,71.66666666666666 L156.66666666666666,99.99999999999999 L128.33333333333331,99.99999999999999 Z" fill="#1e3c72" fill-opacity="0.8"/><path d="M128.33333333333331,71.66666666666666 L142.49999999999997,71.66666666666666 L128.33333333333331,85.83333333333333 Z" fill="#0a285e" fill-opacity="0.8"/><path d="M156.66666666666666,71.66666666666666 L185,71.66666666666666 L185,99.99999999999999 L156.66666666666666,99.99999999999999 Z" fill="#2a5298" fill-opacity="0.8"/><path d="M156.66666666666666,71.66666666666666 L170.83333333333331,71.66666666666666 L156.66666666666666,85.83333333333333 Z" fill="#163e84" fill-opacity="0.8"/><path d="M15,100 L43.33333333333333,100 L43.33333333333333,128.33333333333334 L15,128.33333333333334 Z" fill="#2a5298" fill-opacity="0.8"/><path d="M15,100 L29.166666666666664,100 L15,114.16666666666667 Z" fill="#163e84" fill-opacity="0.8"/><path d="M43.33333333333333,100 L71.66666666666666,100 L71.66666666666666,128.33333333333334 L43.33333333333333,128.33333333333334 Z" fill="#1e3c72" fill-opacity="0.8"/><path d="M43.33333333333333,100 L57.49999999999999,100 L43.33333333333333,114.16666666666667 Z" fill="#0a285e" fill-opacity="0.8"/><path d="M71.66666666666666,100 L99.99999999999999,100 L99.99999999999999,128.33333333333334 L71.66666666666666,128.33333333333334 Z" fill="#2a5298" fill-opacity="0.8"/><path d="M71.66666666666666,100 L85.83333333333333,100 L71.66666666666666,114.16666666666667 Z" fill="#163e84" fill-opacity="0.8"/><path d="M100,100 L128.33333333333334,100 L128.33333333333334,128.33333333333334 L100,128.33333333333334 Z" fill="#1e3c72" fill-opacity="0.8"/><path d="M100,100 L114.16666666666667,100 L100,114.16666666666667 Z" fill="#0a285e" fill-opacity="0.8"/><path d="M128.33333333333331,100 L156.66666666666666,100 L156.66666666666666,128.33333333333334 L128.33333333333331,128.33333333333334 Z" fill="#2a5298" fill-opacity="0.8"/><path d="M128.33333333333331,100 L142.49999999999997,100 L128.33333333333331,114.16666666666667 Z" fill="#163e84" fill-opacity="0.8"/><path d="M156.66666666666666,100 L185,100 L185,128.33333333333334 L156.66666666666666,128.33333333333334 Z" fill="#1e3c72" fill-opacity="0.8"/><path d="M156.66666666666666,100 L170.83333333333331,100 L156.66666666666666,114.16666666666667 Z" fill="#0a285e" fill-opacity="0.8"/><path d="M15,128.33333333333331 L43.33333333333333,128.33333333333331 L43.33333333333333,156.66666666666666 L15,156.66666666666666 Z" fill="#1e3c72" fill-opacity="0.8"/><path d="M15,128.33333333333331 L29.166666666666664,128.33333333333331 L15,142.49999999999997 Z" fill="#0a285e" fill-opacity="0.8"/><path d="M43.33333333333333,128.33333333333331 L71.66666666666666,128.33333333333331 L71.66666666666666,156.66666666666666 L43.33333333333333,156.66666666666666 Z" fill="#2a5298" fill-opacity="0.8"/><path d="M43.33333333333333,128.33333333333331 L57.49999999999999,128.33333333333331 L43.33333333333333,142.49999999999997 Z" fill="#163e84" fill-opacity="0.8"/><path d="M71.66666666666666,128.33333333333331 L99.99999999999999,128.33333333333331 L99.99999999999999,156.66666666666666 L71.66666666666666,156.66666666666666 Z" fill="#1e3c72" fill-opacity="0.8"/><path d="M71.66666666666666,128.33333333333331 L85.83333333333333,128.33333333333331 L71.66666666666666,142.49999999999997 Z" fill="#0a285e" fill-opacity="0.8"/><path d="M100,128.33333333333331 L128.33333333333334,128.33333333333331 L128.33333333333334,156.66666666666666 L100,156.66666666666666 Z" fill="#2a5298" fill-opacity="0.8"/><path d="M100,128.33333333333331 L114.16666666666667,128.33333333333331 L100,142.49999999999997 Z" fill="#163e84" fill-opacity="0.8"/><path d="M128.33333333333331,128.33333333333331 L156.66666666666666,128.33333333333331 L156.66666666666666,156.66666666666666 L128.33333333333331,156.66666666666666 Z" fill="#1e3c72" fill-opacity="0.8"/><path d="M128.33333333333331,128.33333333333331 L142.49999999999997,128.33333333333331 L128.33333333333331,142.49999999999997 Z" fill="#0a285e" fill-opacity="0.8"/><path d="M156.66666666666666,128.33333333333331 L185,128.33333333333331 L185,156.66666666666666 L156.66666666666666,156.66666666666666 Z" fill="#2a5298" fill-opacity="0.8"/><path d="M156.66666666666666,128.33333333333331 L170.83333333333331,128.33333333333331 L156.66666666666666,142.49999999999997 Z" fill="#163e84" fill-opacity="0.8"/><path d="M15,156.66666666666666 L43.33333333333333,156.66666666666666 L43.33333333333333,185 L15,185 Z" fill="#2a5298" fill-opacity="0.8"/><path d="M15,156.66666666666666 L29.166666666666664,156.66666666666666 L15,170.83333333333331 Z" fill="#163e84" fill-opacity="0.8"/><path d="M43.33333333333333,156.66666666666666 L71.66666666666666,156.66666666666666 L71.66666666666666,185 L43.33333333333333,185 Z" fill="#1e3c72" fill-opacity="0.8"/><path d="M43.33333333333333,156.66666666666666 L57.49999999999999,156.66666666666666 L43.33333333333333,170.83333333333331 Z" fill="#0a285e" fill-opacity="0.8"/><path d="M71.66666666666666,156.66666666666666 L99.99999999999999,156.66666666666666 L99.99999999999999,185 L71.66666666666666,185 Z" fill="#2a5298" fill-opacity="0.8"/><path d="M71.66666666666666,156.66666666666666 L85.83333333333333,156.66666666666666 L71.66666666666666,170.83333333333331 Z" fill="#163e84" fill-opacity="0.8"/><path d="M100,156.66666666666666 L128.33333333333334,156.66666666666666 L128.33333333333334,185 L100,185 Z" fill="#1e3c72" fill-opacity="0.8"/><path d="M100,156.66666666666666 L114.16666666666667,156.66666666666666 L100,170.83333333333331 Z" fill="#0a285e" fill-opacity="0.8"/><path d="M128.33333333333331,156.66666666666666 L156.66666666666666,156.66666666666666 L156.66666666666666,185 L128.33333333333331,185 Z" fill="#2a5298" fill-opacity="0.8"/><path d="M128.33333333333331,156.66666666666666 L142.49999999999997,156.66666666666666 L128.33333333333331,170.83333333333331 Z" fill="#163e84" fill-opacity="0.8"/><path d="M156.66666666666666,156.66666666666666 L185,156.66666666666666 L185,185 L156.66666666666666,185 Z" fill="#1e3c72" fill-opacity="0.8"/><path d="M156.66666666666666,156.66666666666666 L170.83333333333331,156.66666666666666 L156.66666666666666,170.83333333333331 Z" fill="#0a285e" fill-opacity="0.8"/><g transform="translate(0, 200) scale(1, -1)"><path d="M15,15 L43.33333333333333,15 L43.33333333333333,43.33333333333333 L15,43.33333333333333 Z" fill="#1e3c72" fill-opacity="0.8"/><path d="M15,15 L29.166666666666664,15 L15,29.166666666666664 Z" fill="#0a285e" fill-opacity="0.8"/><path d="M43.33333333333333,15 L71.66666666666666,15 L71.66666666666666,43.33333333333333 L43.33333333333333,43.33333333333333 Z" fill="#2a5298" fill-opacity="0.8"/><path d="M43.33333333333333,15 L57.49999999999999,15 L43.33333333333333,29.166666666666664 Z" fill="#163e84" fill-opacity="0.8"/><path d="M71.66666666666666,15 L99.99999999999999,15 L99.99999999999999,43.33333333333333 L71.66666666666666,43.33333333333333 Z" fill="#1e3c72" fill-opacity="0.8"/><path d="M71.66666666666666,15 L85.83333333333333,15 L71.66666666666666,29.166666666666664 Z" fill="#0a285e" fill-opacity="0.8"/><path d="M100,15 L128.33333333333334,15 L128.33333333333334,43.33333333333333 L100,43.33333333333333 Z" fill="#2a5298" fill-opacity="0.8"/><path d="M100,15 L114.16666666666667,15 L100,29.166666666666664 Z" fill="#163e84" fill-opacity="0.8"/><path d="M128.33333333333331,15 L156.66666666666666,15 L156.66666666666666,43.33333333333333 L128.33333333333331,43.33333333333333 Z" fill="#1e3c72" fill-opacity="0.8"/><path d="M128.33333333333331,15 L142.49999999999997,15 L128.33333333333331,29.166666666666664 Z" fill="#0a285e" fill-opacity="0.8"/><path d="M156.66666666666666,15 L185,15 L185,43.33333333333333 L156.66666666666666,43.33333333333333 Z" fill="#2a5298" fill-opacity="0.8"/><path d="M156.66666666666666,15 L170.83333333333331,15 L156.66666666666666,29.166666666666664 Z" fill="#163e84" fill-opacity="0.8"/><path d="M15,43.33333333333333 L43.33333333333333,43.33333333333333 L43.33333333333333,71.66666666666666 L15,71.66666666666666 Z" fill="#2a5298" fill-opacity="0.8"/><path d="M15,43.33333333333333 L29.166666666666664,43.33333333333333 L15,57.49999999999999 Z" fill="#163e84" fill-opacity="0.8"/><path d="M43.33333333333333,43.33333333333333 L71.66666666666666,43.33333333333333 L71.66666666666666,71.66666666666666 L43.33333333333333,71.66666666666666 Z" fill="#1e3c72" fill-opacity="0.8"/><path d="M43.33333333333333,43.33333333333333 L57.49999999999999,43.33333333333333 L43.33333333333333,57.49999999999999 Z" fill="#0a285e" fill-opacity="0.8"/><path d="M71.66666666666666,43.33333333333333 L99.99999999999999,43.33333333333333 L99.99999999999999,71.66666666666666 L71.66666666666666,71.66666666666666 Z" fill="#2a5298" fill-opacity="0.8"/><path d="M71.66666666666666,43.33333333333333 L85.83333333333333,43.33333333333333 L71.66666666666666,57.49999999999999 Z" fill="#163e84" fill-opacity="0.8"/><path d="M100,43.33333333333333 L128.33333333333334,43.33333333333333 L128.33333333333334,71.66666666666666 L100,71.66666666666666 Z" fill="#1e3c72" fill-opacity="0.8"/><path d="M100,43.33333333333333 L114.16666666666667,43.33333333333333 L100,57.49999999999999 Z" fill="#0a285e" fill-opacity="0.8"/><path d="M128.33333333333331,43.33333333333333 L156.66666666666666,43.33333333333333 L156.66666666666666,71.66666666666666 L128.33333333333331,71.66666666666666 Z" fill="#2a5298" fill-opacity="0.8"/><path d="M128.33333333333331,43.33333333333333 L142.49999999999997,43.33333333333333 L128.33333333333331,57.49999999999999 Z" fill="#163e84" fill-opacity="0.8"/><path d="M156.66666666666666,43.33333333333333 L185,43.33333333333333 L185,71.66666666666666 L156.66666666666666,71.66666666666666 Z" fill="#1e3c72" fill-opacity="0.8"/><path d="M156.66666666666666,43.33333333333333 L170.83333333333331,43.33333333333333 L156.66666666666666,57.49999999999999 Z" fill="#0a285e" fill-opacity="0.8"/><path d="M15,71.66666666666666 L43.33333333333333,71.66666666666666 L43.33333333333333,99.99999999999999 L15,99.99999999999999 Z" fill="#1e3c72" fill-opacity="0.8"/><path d="M15,71.66666666666666 L29.166666666666664,71.66666666666666 L15,85.83333333333333 Z" fill="#0a285e" fill-opacity="0.8"/><path d="M43.33333333333333,71.66666666666666 L71.66666666666666,71.66666666666666 L71.66666666666666,99.99999999999999 L43.33333333333333,99.99999999999999 Z" fill="#2a5298" fill-opacity="0.8"/><path d="M43.33333333333333,71.66666666666666 L57.49999999999999,71.66666666666666 L43.33333333333333,85.83333333333333 Z" fill="#163e84" fill-opacity="0.8"/><path d="M71.66666666666666,71.66666666666666 L99.99999999999999,71.66666666666666 L99.99999999999999,99.99999999999999 L71.66666666666666,99.99999999999999 Z" fill="#1e3c72" fill-opacity="0.8"/><path d="M71.66666666666666,71.66666666666666 L85.83333333333333,71.66666666666666 L71.66666666666666,85.83333333333333 Z" fill="#0a285e" fill-opacity="0.8"/><path d="M100,71.66666666666666 L128.33333333333334,71.66666666666666 L128.33333333333334,99.99999999999999 L100,99.99999999999999 Z" fill="#2a5298" fill-opacity="0.8"/><path d="M100,71.66666666666666 L114.16666666666667,71.66666666666666 L100,85.83333333333333 Z" fill="#163e84" fill-opacity="0.8"/><path d="M128.33333333333331,71.66666666666666 L156.66666666666666,71.66666666666666 L156.66666666666666,99.99999999999999 L128.33333333333331,99.99999999999999 Z" fill="#1e3c72" fill-opacity="0.8"/><path d="M128.33333333333331,71.66666666666666 L142.49999999999997,71.66666666666666 L128.33333333333331,85.83333333333333 Z" fill="#0a285e" fill-opacity="0.8"/><path d="M156.66666666666666,71.66666666666666 L185,71.66666666666666 L185,99.99999999999999 L156.66666666666666,99.99999999999999 Z" fill="#2a5298" fill-opacity="0.8"/><path d="M156.66666666666666,71.66666666666666 L170.83333333333331,71.66666666666666 L156.66666666666666,85.83333333333333 Z" fill="#163e84" fill-opacity="0.8"/><path d="M15,100 L43.33333333333333,100 L43.33333333333333,128.33333333333334 L15,128.33333333333334 Z" fill="#2a5298" fill-opacity="0.8"/><path d="M15,100 L29.166666666666664,100 L15,114.16666666666667 Z" fill="#163e84" fill-opacity="0.8"/><path d="M43.33333333333333,100 L71.66666666666666,100 L71.66666666666666,128.33333333333334 L43.33333333333333,128.33333333333334 Z" fill="#1e3c72" fill-opacity="0.8"/><path d="M43.33333333333333,100 L57.49999999999999,100 L43.33333333333333,114.16666666666667 Z" fill="#0a285e" fill-opacity="0.8"/><path d="M71.66666666666666,100 L99.99999999999999,100 L99.99999999999999,128.33333333333334 L71.66666666666666,128.33333333333334 Z" fill="#2a5298" fill-opacity="0.8"/><path d="M71.66666666666666,100 L85.83333333333333,100 L71.66666666666666,114.16666666666667 Z" fill="#163e84" fill-opacity="0.8"/><path d="M100,100 L128.33333333333334,100 L128.33333333333334,128.33333333333334 L100,128.33333333333334 Z" fill="#1e3c72" fill-opacity="0.8"/><path d="M100,100 L114.16666666666667,100 L100,114.16666666666667 Z" fill="#0a285e" fill-opacity="0.8"/><path d="M128.33333333333331,100 L156.66666666666666,100 L156.66666666666666,128.33333333333334 L128.33333333333331,128.33333333333334 Z" fill="#2a5298" fill-opacity="0.8"/><path d="M128.33333333333331,100 L142.49999999999997,100 L128.33333333333331,114.16666666666667 Z" fill="#163e84" fill-opacity="0.8"/><path d="M156.66666666666666,100 L185,100 L185,128.33333333333334 L156.66666666666666,128.33333333333334 Z" fill="#1e3c72" fill-opacity="0.8"/><path d="M156.66666666666666,100 L170.83333333333331,100 L156.66666666666666,114.16666666666667 Z" fill="#0a285e" fill-opacity="0.8"/><path d="M15,128.33333333333331 L43.33333333333333,128.33333333333331 L43.33333333333333,156.66666666666666 L15,156.66666666666666 Z" fill="#1e3c72" fill-opacity="0.8"/><path d="M15,128.33333333333331 L29.166666666666664,128.33333333333331 L15,142.49999999999997 Z" fill="#0a285e" fill-opacity="0.8"/><path d="M43.33333333333333,128.33333333333331 L71.66666666666666,128.33333333333331 L71.66666666666666,156.66666666666666 L43.33333333333333,156.66666666666666 Z" fill="#2a5298" fill-opacity="0.8"/><path d="M43.33333333333333,128.33333333333331 L57.49999999999999,128.33333333333331 L43.33333333333333,142.49999999999997 Z" fill="#163e84" fill-opacity="0.8"/><path d="M71.66666666666666,128.33333333333331 L99.99999999999999,128.33333333333331 L99.99999999999999,156.66666666666666 L71.66666666666666,156.66666666666666 Z" fill="#1e3c72" fill-opacity="0.8"/><path d="M71.66666666666666,128.33333333333331 L85.83333333333333,128.33333333333331 L71.66666666666666,142.49999999999997 Z" fill="#0a285e" fill-opacity="0.8"/><path d="M100,128.33333333333331 L128.33333333333334,128.33333333333331 L128.33333333333334,156.66666666666666 L100,156.66666666666666 Z" fill="#2a5298" fill-opacity="0.8"/><path d="M100,128.33333333333331 L114.16666666666667,128.33333333333331 L100,142.49999999999997 Z" fill="#163e84" fill-opacity="0.8"/><path d="M128.33333333333331,128.33333333333331 L156.66666666666666,128.33333333333331 L156.66666666666666,156.66666666666666 L128.33333333333331,156.66666666666666 Z" fill="#1e3c72" fill-opacity="0.8"/><path d="M128.33333333333331,128.33333333333331 L142.49999999999997,128.33333333333331 L128.33333333333331,142.49999999999997 Z" fill="#0a285e" fill-opacity="0.8"/><path d="M156.66666666666666,128.33333333333331 L185,128.33333333333331 L185,156.66666666666666 L156.66666666666666,156.66666666666666 Z" fill="#2a5298" fill-opacity="0.8"/><path d="M156.66666666666666,128.33333333333331 L170.83333333333331,128.33333333333331 L156.66666666666666,142.49999999999997 Z" fill="#163e84" fill-opacity="0.8"/><path d="M15,156.66666666666666 L43.33333333333333,156.66666666666666 L43.33333333333333,185 L15,185 Z" fill="#2a5298" fill-opacity="0.8"/><path d="M15,156.66666666666666 L29.166666666666664,156.66666666666666 L15,170.83333333333331 Z" fill="#163e84" fill-opacity="0.8"/><path d="M43.33333333333333,156.66666666666666 L71.66666666666666,156.66666666666666 L71.66666666666666,185 L43.33333333333333,185 Z" fill="#1e3c72" fill-opacity="0.8"/><path d="M43.33333333333333,156.66666666666666 L57.49999999999999,156.66666666666666 L43.33333333333333,170.83333333333331 Z" fill="#0a285e" fill-opacity="0.8"/><path d="M71.66666666666666,156.66666666666666 L99.99999999999999,156.66666666666666 L99.99999999999999,185 L71.66666666666666,185 Z" fill="#2a5298" fill-opacity="0.8"/><path d="M71.66666666666666,156.66666666666666 L85.83333333333333,156.66666666666666 L71.66666666666666,170.83333333333331 Z" fill="#163e84" fill-opacity="0.8"/><path d="M100,156.66666666666666 L128.33333333333334,156.66666666666666 L128.33333333333334,185 L100,185 Z" fill="#1e3c72" fill-opacity="0.8"/><path d="M100,156.66666666666666 L114.16666666666667,156.66666666666666 L100,170.83333333333331 Z" fill="#0a285e" fill-opacity="0.8"/><path d="M128.33333333333331,156.66666666666666 L156.66666666666666,156.66666666666666 L156.66666666666666,185 L128.33333333333331,185 Z" fill="#2a5298" fill-opacity="0.8"/><path d="M128.33333333333331,156.66666666666666 L142.49999999999997,156.66666666666666 L128.33333333333331,170.83333333333331 Z" fill="#163e84" fill-opacity="0.8"/><path d="M156.66666666666666,156.66666666666666 L185,156.66666666666666 L185,185 L156.66666666666666,185 Z" fill="#1e3c72" fill-opacity="0.8"/><path d="M156.66666666666666,156.66666666666666 L170.83333333333331,156.66666666666666 L156.66666666666666,170.83333333333331 Z" fill="#0a285e" fill-opacity="0.8"/></g></g></g><polygon points="15,3 27,15 15,27 3,15" fill="#1e3c72" fill-opacity="0.4" stroke="#1e3c72" stroke-width="2"/><polygon points="185,173 197,185 185,197 173,185" fill="#1e3c72" fill-opacity="0.4" stroke="#1e3c72" stroke-width="2"/><polygon points="185,5 195,15 185,25 175,15" fill="#2a5298" fill-opacity="0.3" stroke="#2a5298" stroke-width="1.6"/><polygon points="15,175 25,185 15,195 5,185" fill="#2a5298" fill-opacity="0.3" stroke="#2a5298" stroke-width="1.6"/><rect x="5" y="5" width="190" height="190" fill="none" stroke="#1e3c72" stroke-width="8" stroke-opacity="1"/></svg>