<svg xmlns="http://www.w3.org/2000/svg" width="200" height="200" viewBox="0 0 200 200"><defs></defs><rect width="200" height="200" fill="#ffffff"/><g class="pattern"><g class="symmetry-rotational"><line x1="15" y1="15" x2="185" y2="15" stroke="#002366" stroke-width="8.25" stroke-linecap="round"/><line x1="16" y1="16" x2="186" y2="16" stroke="#00003e" stroke-width="2.75" stroke-linecap="round"/><line x1="15" y1="23.5" x2="185" y2="23.5" stroke="#1c3a6e" stroke-width="8.25" stroke-linecap="round"/><line x1="16" y1="24.5" x2="186" y2="24.5" stroke="#001246" stroke-width="2.75" stroke-linecap="round"/><line x1="15" y1="32" x2="185" y2="32" stroke="#2e5a9c" stroke-width="8.25" stroke-linecap="round"/><line x1="16" y1="33" x2="186" y2="33" stroke="#063274" stroke-width="2.75" stroke-linecap="round"/><line x1="15" y1="40.5" x2="185" y2="40.5" stroke="#4a7ac9" stroke-width="8.25" stroke-linecap="round"/><line x1="16" y1="41.5" x2="186" y2="41.5" stroke="#2252a1" stroke-width="2.75" stroke-linecap="round"/><line x1="15" y1="49" x2="185" y2="49" stroke="#6b9ff5" stroke-width="8.25" stroke-linecap="round"/><line x1="16" y1="50" x2="186" y2="50" stroke="#4377cd" stroke-width="2.75" stroke-linecap="round"/><line x1="15" y1="57.5" x2="185" y2="57.5" stroke="#ffffff" stroke-width="8.25" stroke-linecap="round"/><line x1="16" y1="58.5" x2="186" y2="58.5" stroke="#d7d7d7" stroke-width="2.75" stroke-linecap="round"/><line x1="15" y1="66" x2="185" y2="66" stroke="#002366" stroke-width="8.25" stroke-linecap="round"/><line x1="16" y1="67" x2="186" y2="67" stroke="#00003e" stroke-width="2.75" stroke-linecap="round"/><line x1="15" y1="74.5" x2="185" y2="74.5" stroke="#1c3a6e" stroke-width="8.25" stroke-linecap="round"/><line x1="16" y1="75.5" x2="186" y2="75.5" stroke="#001246" stroke-width="2.75" stroke-linecap="round"/><line x1="15" y1="83" x2="185" y2="83" stroke="#2e5a9c" stroke-width="8.25" stroke-linecap="round"/><line x1="16" y1="84" x2="186" y2="84" stroke="#063274" stroke-width="2.75" stroke-linecap="round"/><line x1="15" y1="91.5" x2="185" y2="91.5" stroke="#4a7ac9" stroke-width="8.25" stroke-linecap="round"/><line x1="16" y1="92.5" x2="186" y2="92.5" stroke="#2252a1" stroke-width="2.75" stroke-linecap="round"/><line x1="15" y1="100" x2="185" y2="100" stroke="#6b9ff5" stroke-width="8.25" stroke-linecap="round"/><line x1="16" y1="101" x2="186" y2="101" stroke="#4377cd" stroke-width="2.75" stroke-linecap="round"/><g transform="rotate(90, 100, 100)"><line x1="15" y1="15" x2="185" y2="15" stroke="#002366" stroke-width="8.25" stroke-linecap="round"/><line x1="16" y1="16" x2="186" y2="16" stroke="#00003e" stroke-width="2.75" stroke-linecap="round"/><line x1="15" y1="23.5" x2="185" y2="23.5" stroke="#1c3a6e" stroke-width="8.25" stroke-linecap="round"/><line x1="16" y1="24.5" x2="186" y2="24.5" stroke="#001246" stroke-width="2.75" stroke-linecap="round"/><line x1="15" y1="32" x2="185" y2="32" stroke="#2e5a9c" stroke-width="8.25" stroke-linecap="round"/><line x1="16" y1="33" x2="186" y2="33" stroke="#063274" stroke-width="2.75" stroke-linecap="round"/><line x1="15" y1="40.5" x2="185" y2="40.5" stroke="#4a7ac9" stroke-width="8.25" stroke-linecap="round"/><line x1="16" y1="41.5" x2="186" y2="41.5" stroke="#2252a1" stroke-width="2.75" stroke-linecap="round"/><line x1="15" y1="49" x2="185" y2="49" stroke="#6b9ff5" stroke-width="8.25" stroke-linecap="round"/><line x1="16" y1="50" x2="186" y2="50" stroke="#4377cd" stroke-width="2.75" stroke-linecap="round"/><line x1="15" y1="57.5" x2="185" y2="57.5" stroke="#ffffff" stroke-width="8.25" stroke-linecap="round"/><line x1="16" y1="58.5" x2="186" y2="58.5" stroke="#d7d7d7" stroke-width="2.75" stroke-linecap="round"/><line x1="15" y1="66" x2="185" y2="66" stroke="#002366" stroke-width="8.25" stroke-linecap="round"/><line x1="16" y1="67" x2="186" y2="67" stroke="#00003e" stroke-width="2.75" stroke-linecap="round"/><line x1="15" y1="74.5" x2="185" y2="74.5" stroke="#1c3a6e" stroke-width="8.25" stroke-linecap="round"/><line x1="16" y1="75.5" x2="186" y2="75.5" stroke="#001246" stroke-width="2.75" stroke-linecap="round"/><line x1="15" y1="83" x2="185" y2="83" stroke="#2e5a9c" stroke-width="8.25" stroke-linecap="round"/><line x1="16" y1="84" x2="186" y2="84" stroke="#063274" stroke-width="2.75" stroke-linecap="round"/><line x1="15" y1="91.5" x2="185" y2="91.5" stroke="#4a7ac9" stroke-width="8.25" stroke-linecap="round"/><line x1="16" y1="92.5" x2="186" y2="92.5" stroke="#2252a1" stroke-width="2.75" stroke-linecap="round"/><line x1="15" y1="100" x2="185" y2="100" stroke="#6b9ff5" stroke-width="8.25" stroke-linecap="round"/><line x1="16" y1="101" x2="186" y2="101" stroke="#4377cd" stroke-width="2.75" stroke-linecap="round"/></g><g transform="rotate(180, 100, 100)"><line x1="15" y1="15" x2="185" y2="15" stroke="#002366" stroke-width="8.25" stroke-linecap="round"/><line x1="16" y1="16" x2="186" y2="16" stroke="#00003e" stroke-width="2.75" stroke-linecap="round"/><line x1="15" y1="23.5" x2="185" y2="23.5" stroke="#1c3a6e" stroke-width="8.25" stroke-linecap="round"/><line x1="16" y1="24.5" x2="186" y2="24.5" stroke="#001246" stroke-width="2.75" stroke-linecap="round"/><line x1="15" y1="32" x2="185" y2="32" stroke="#2e5a9c" stroke-width="8.25" stroke-linecap="round"/><line x1="16" y1="33" x2="186" y2="33" stroke="#063274" stroke-width="2.75" stroke-linecap="round"/><line x1="15" y1="40.5" x2="185" y2="40.5" stroke="#4a7ac9" stroke-width="8.25" stroke-linecap="round"/><line x1="16" y1="41.5" x2="186" y2="41.5" stroke="#2252a1" stroke-width="2.75" stroke-linecap="round"/><line x1="15" y1="49" x2="185" y2="49" stroke="#6b9ff5" stroke-width="8.25" stroke-linecap="round"/><line x1="16" y1="50" x2="186" y2="50" stroke="#4377cd" stroke-width="2.75" stroke-linecap="round"/><line x1="15" y1="57.5" x2="185" y2="57.5" stroke="#ffffff" stroke-width="8.25" stroke-linecap="round"/><line x1="16" y1="58.5" x2="186" y2="58.5" stroke="#d7d7d7" stroke-width="2.75" stroke-linecap="round"/><line x1="15" y1="66" x2="185" y2="66" stroke="#002366" stroke-width="8.25" stroke-linecap="round"/><line x1="16" y1="67" x2="186" y2="67" stroke="#00003e" stroke-width="2.75" stroke-linecap="round"/><line x1="15" y1="74.5" x2="185" y2="74.5" stroke="#1c3a6e" stroke-width="8.25" stroke-linecap="round"/><line x1="16" y1="75.5" x2="186" y2="75.5" stroke="#001246" stroke-width="2.75" stroke-linecap="round"/><line x1="15" y1="83" x2="185" y2="83" stroke="#2e5a9c" stroke-width="8.25" stroke-linecap="round"/><line x1="16" y1="84" x2="186" y2="84" stroke="#063274" stroke-width="2.75" stroke-linecap="round"/><line x1="15" y1="91.5" x2="185" y2="91.5" stroke="#4a7ac9" stroke-width="8.25" stroke-linecap="round"/><line x1="16" y1="92.5" x2="186" y2="92.5" stroke="#2252a1" stroke-width="2.75" stroke-linecap="round"/><line x1="15" y1="100" x2="185" y2="100" stroke="#6b9ff5" stroke-width="8.25" stroke-linecap="round"/><line x1="16" y1="101" x2="186" y2="101" stroke="#4377cd" stroke-width="2.75" stroke-linecap="round"/></g><g transform="rotate(270, 100, 100)"><line x1="15" y1="15" x2="185" y2="15" stroke="#002366" stroke-width="8.25" stroke-linecap="round"/><line x1="16" y1="16" x2="186" y2="16" stroke="#00003e" stroke-width="2.75" stroke-linecap="round"/><line x1="15" y1="23.5" x2="185" y2="23.5" stroke="#1c3a6e" stroke-width="8.25" stroke-linecap="round"/><line x1="16" y1="24.5" x2="186" y2="24.5" stroke="#001246" stroke-width="2.75" stroke-linecap="round"/><line x1="15" y1="32" x2="185" y2="32" stroke="#2e5a9c" stroke-width="8.25" stroke-linecap="round"/><line x1="16" y1="33" x2="186" y2="33" stroke="#063274" stroke-width="2.75" stroke-linecap="round"/><line x1="15" y1="40.5" x2="185" y2="40.5" stroke="#4a7ac9" stroke-width="8.25" stroke-linecap="round"/><line x1="16" y1="41.5" x2="186" y2="41.5" stroke="#2252a1" stroke-width="2.75" stroke-linecap="round"/><line x1="15" y1="49" x2="185" y2="49" stroke="#6b9ff5" stroke-width="8.25" stroke-linecap="round"/><line x1="16" y1="50" x2="186" y2="50" stroke="#4377cd" stroke-width="2.75" stroke-linecap="round"/><line x1="15" y1="57.5" x2="185" y2="57.5" stroke="#ffffff" stroke-width="8.25" stroke-linecap="round"/><line x1="16" y1="58.5" x2="186" y2="58.5" stroke="#d7d7d7" stroke-width="2.75" stroke-linecap="round"/><line x1="15" y1="66" x2="185" y2="66" stroke="#002366" stroke-width="8.25" stroke-linecap="round"/><line x1="16" y1="67" x2="186" y2="67" stroke="#00003e" stroke-width="2.75" stroke-linecap="round"/><line x1="15" y1="74.5" x2="185" y2="74.5" stroke="#1c3a6e" stroke-width="8.25" stroke-linecap="round"/><line x1="16" y1="75.5" x2="186" y2="75.5" stroke="#001246" stroke-width="2.75" stroke-linecap="round"/><line x1="15" y1="83" x2="185" y2="83" stroke="#2e5a9c" stroke-width="8.25" stroke-linecap="round"/><line x1="16" y1="84" x2="186" y2="84" stroke="#063274" stroke-width="2.75" stroke-linecap="round"/><line x1="15" y1="91.5" x2="185" y2="91.5" stroke="#4a7ac9" stroke-width="8.25" stroke-linecap="round"/><line x1="16" y1="92.5" x2="186" y2="92.5" stroke="#2252a1" stroke-width="2.75" stroke-linecap="round"/><line x1="15" y1="100" x2="185" y2="100" stroke="#6b9ff5" stroke-width="8.25" stroke-linecap="round"/><line x1="16" y1="101" x2="186" y2="101" stroke="#4377cd" stroke-width="2.75" stroke-linecap="round"/></g></g></g><path d="M15,29 Q22,19.2 29,15" fill="none" stroke="#002366" stroke-width="2.6" stroke-linecap="round" stroke-opacity="1"/><path d="M185,171 Q178,180.8 171,185" fill="none" stroke="#002366" stroke-width="2.6" stroke-linecap="round" stroke-opacity="1"/><path d="M171,15 Q180.8,22 185,29" fill="none" stroke="#1c3a6e" stroke-width="2.6" stroke-linecap="round" stroke-opacity="1"/><path d="M29,185 Q19.2,178 15,171" fill="none" stroke="#1c3a6e" stroke-width="2.6" stroke-linecap="round" stroke-opacity="1"/><rect x="5" y="5" width="190" height="190" fill="none" stroke="#4169e1" stroke-width="8" stroke-opacity="0.66"/></svg>