<svg xmlns="http://www.w3.org/2000/svg" width="200" height="200" viewBox="0 0 200 200"><defs></defs><rect width="200" height="200" fill="#ffffff"/><g class="pattern"><g class="symmetry-rotational"><line x1="-170" y1="15" x2="0" y2="185" stroke="#2e5a9c" stroke-width="5.5" stroke-linecap="round"/><line x1="-163.46153846153845" y1="15" x2="6.538461538461547" y2="185" stroke="#1c3a6e" stroke-width="5.5" stroke-linecap="round"/><line x1="-156.9230769230769" y1="15" x2="13.076923076923094" y2="185" stroke="#002366" stroke-width="5.5" stroke-linecap="round"/><line x1="-150.3846153846154" y1="15" x2="19.615384615384613" y2="185" stroke="#ffffff" stroke-width="5.5" stroke-linecap="round"/><line x1="-143.84615384615384" y1="15" x2="26.15384615384616" y2="185" stroke="#6b9ff5" stroke-width="5.5" stroke-linecap="round"/><line x1="-137.3076923076923" y1="15" x2="32.69230769230771" y2="185" stroke="#4a7ac9" stroke-width="5.5" stroke-linecap="round"/><line x1="-130.76923076923077" y1="15" x2="39.230769230769226" y2="185" stroke="#2e5a9c" stroke-width="5.5" stroke-linecap="round"/><line x1="-124.23076923076923" y1="15" x2="45.769230769230774" y2="185" stroke="#1c3a6e" stroke-width="5.5" stroke-linecap="round"/><line x1="-117.6923076923077" y1="15" x2="52.30769230769231" y2="185" stroke="#002366" stroke-width="5.5" stroke-linecap="round"/><line x1="-111.15384615384615" y1="15" x2="58.846153846153854" y2="185" stroke="#ffffff" stroke-width="5.5" stroke-linecap="round"/><line x1="-104.61538461538461" y1="15" x2="65.38461538461539" y2="185" stroke="#6b9ff5" stroke-width="5.5" stroke-linecap="round"/><line x1="-98.07692307692308" y1="15" x2="71.92307692307692" y2="185" stroke="#4a7ac9" stroke-width="5.5" stroke-linecap="round"/><line x1="-91.53846153846153" y1="15" x2="78.46153846153847" y2="185" stroke="#2e5a9c" stroke-width="5.5" stroke-linecap="round"/><line x1="-85" y1="15" x2="85" y2="185" stroke="#1c3a6e" stroke-width="5.5" stroke-linecap="round"/><line x1="-78.46153846153845" y1="15" x2="91.53846153846155" y2="185" stroke="#002366" stroke-width="5.5" stroke-linecap="round"/><line x1="-71.92307692307692" y1="15" x2="98.07692307692308" y2="185" stroke="#ffffff" stroke-width="5.5" stroke-linecap="round"/><line x1="-65.38461538461539" y1="15" x2="104.61538461538461" y2="185" stroke="#6b9ff5" stroke-width="5.5" stroke-linecap="round"/><line x1="-58.84615384615385" y1="15" x2="111.15384615384616" y2="185" stroke="#4a7ac9" stroke-width="5.5" stroke-linecap="round"/><line x1="-52.30769230769231" y1="15" x2="117.6923076923077" y2="185" stroke="#2e5a9c" stroke-width="5.5" stroke-linecap="round"/><line x1="-45.76923076923077" y1="15" x2="124.23076923076923" y2="185" stroke="#1c3a6e" stroke-width="5.5" stroke-linecap="round"/><line x1="-39.230769230769226" y1="15" x2="130.76923076923077" y2="185" stroke="#002366" stroke-width="5.5" stroke-linecap="round"/><line x1="-32.69230769230769" y1="15" x2="137.30769230769232" y2="185" stroke="#ffffff" stroke-width="5.5" stroke-linecap="round"/><line x1="-26.153846153846153" y1="15" x2="143.84615384615384" y2="185" stroke="#6b9ff5" stroke-width="5.5" stroke-linecap="round"/><line x1="-19.615384615384613" y1="15" x2="150.3846153846154" y2="185" stroke="#4a7ac9" stroke-width="5.5" stroke-linecap="round"/><line x1="-13.076923076923077" y1="15" x2="156.92307692307693" y2="185" stroke="#2e5a9c" stroke-width="5.5" stroke-linecap="round"/><line x1="-6.538461538461538" y1="15" x2="163.46153846153845" y2="185" stroke="#1c3a6e" stroke-width="5.5" stroke-linecap="round"/><line x1="0" y1="15" x2="170" y2="185" stroke="#002366" stroke-width="5.5" stroke-linecap="round"/><line x1="6.538461538461538" y1="15" x2="176.53846153846155" y2="185" stroke="#1c3a6e" stroke-width="5.5" stroke-linecap="round"/><line x1="13.076923076923077" y1="15" x2="183.07692307692307" y2="185" stroke="#2e5a9c" stroke-width="5.5" stroke-linecap="round"/><line x1="19.615384615384613" y1="15" x2="189.6153846153846" y2="185" stroke="#4a7ac9" stroke-width="5.5" stroke-linecap="round"/><line x1="26.153846153846153" y1="15" x2="196.15384615384616" y2="185" stroke="#6b9ff5" stroke-width="5.5" stroke-linecap="round"/><line x1="32.69230769230769" y1="15" x2="202.69230769230768" y2="185" stroke="#ffffff" stroke-width="5.5" stroke-linecap="round"/><line x1="39.230769230769226" y1="15" x2="209.23076923076923" y2="185" stroke="#002366" stroke-width="5.5" stroke-linecap="round"/><line x1="45.76923076923077" y1="15" x2="215.76923076923077" y2="185" stroke="#1c3a6e" stroke-width="5.5" stroke-linecap="round"/><line x1="52.30769230769231" y1="15" x2="222.30769230769232" y2="185" stroke="#2e5a9c" stroke-width="5.5" stroke-linecap="round"/><line x1="58.84615384615385" y1="15" x2="228.84615384615384" y2="185" stroke="#4a7ac9" stroke-width="5.5" stroke-linecap="round"/><line x1="65.38461538461539" y1="15" x2="235.3846153846154" y2="185" stroke="#6b9ff5" stroke-width="5.5" stroke-linecap="round"/><line x1="71.92307692307692" y1="15" x2="241.9230769230769" y2="185" stroke="#ffffff" stroke-width="5.5" stroke-linecap="round"/><line x1="78.46153846153845" y1="15" x2="248.46153846153845" y2="185" stroke="#002366" stroke-width="5.5" stroke-linecap="round"/><line x1="85" y1="15" x2="255" y2="185" stroke="#1c3a6e" stroke-width="5.5" stroke-linecap="round"/><line x1="91.53846153846153" y1="15" x2="261.53846153846155" y2="185" stroke="#2e5a9c" stroke-width="5.5" stroke-linecap="round"/><line x1="98.07692307692308" y1="15" x2="268.0769230769231" y2="185" stroke="#4a7ac9" stroke-width="5.5" stroke-linecap="round"/><line x1="104.61538461538461" y1="15" x2="274.61538461538464" y2="185" stroke="#6b9ff5" stroke-width="5.5" stroke-linecap="round"/><line x1="111.15384615384615" y1="15" x2="281.15384615384613" y2="185" stroke="#ffffff" stroke-width="5.5" stroke-linecap="round"/><line x1="117.6923076923077" y1="15" x2="287.6923076923077" y2="185" stroke="#002366" stroke-width="5.5" stroke-linecap="round"/><line x1="124.23076923076923" y1="15" x2="294.2307692307692" y2="185" stroke="#1c3a6e" stroke-width="5.5" stroke-linecap="round"/><line x1="130.76923076923077" y1="15" x2="300.7692307692308" y2="185" stroke="#2e5a9c" stroke-width="5.5" stroke-linecap="round"/><line x1="137.3076923076923" y1="15" x2="307.30769230769226" y2="185" stroke="#4a7ac9" stroke-width="5.5" stroke-linecap="round"/><line x1="143.84615384615384" y1="15" x2="313.8461538461538" y2="185" stroke="#6b9ff5" stroke-width="5.5" stroke-linecap="round"/><line x1="150.3846153846154" y1="15" x2="320.38461538461536" y2="185" stroke="#ffffff" stroke-width="5.5" stroke-linecap="round"/><line x1="156.9230769230769" y1="15" x2="326.9230769230769" y2="185" stroke="#002366" stroke-width="5.5" stroke-linecap="round"/><line x1="163.46153846153845" y1="15" x2="333.46153846153845" y2="185" stroke="#1c3a6e" stroke-width="5.5" stroke-linecap="round"/><line x1="170" y1="15" x2="340" y2="185" stroke="#2e5a9c" stroke-width="5.5" stroke-linecap="round"/><line x1="176.53846153846155" y1="15" x2="346.53846153846155" y2="185" stroke="#4a7ac9" stroke-width="5.5" stroke-linecap="round"/><line x1="183.07692307692307" y1="15" x2="353.0769230769231" y2="185" stroke="#6b9ff5" stroke-width="5.5" stroke-linecap="round"/><line x1="189.6153846153846" y1="15" x2="359.61538461538464" y2="185" stroke="#ffffff" stroke-width="5.5" stroke-linecap="round"/><line x1="196.15384615384616" y1="15" x2="366.1538461538462" y2="185" stroke="#002366" stroke-width="5.5" stroke-linecap="round"/><line x1="202.69230769230768" y1="15" x2="372.6923076923077" y2="185" stroke="#1c3a6e" stroke-width="5.5" stroke-linecap="round"/><line x1="209.23076923076923" y1="15" x2="379.2307692307692" y2="185" stroke="#2e5a9c" stroke-width="5.5" stroke-linecap="round"/><line x1="215.76923076923077" y1="15" x2="385.7692307692308" y2="185" stroke="#4a7ac9" stroke-width="5.5" stroke-linecap="round"/><line x1="222.3076923076923" y1="15" x2="392.30769230769226" y2="185" stroke="#6b9ff5" stroke-width="5.5" stroke-linecap="round"/><line x1="228.84615384615384" y1="15" x2="398.8461538461538" y2="185" stroke="#ffffff" stroke-width="5.5" stroke-linecap="round"/><line x1="235.3846153846154" y1="15" x2="405.38461538461536" y2="185" stroke="#002366" stroke-width="5.5" stroke-linecap="round"/><line x1="241.9230769230769" y1="15" x2="411.9230769230769" y2="185" stroke="#1c3a6e" stroke-width="5.5" stroke-linecap="round"/><line x1="248.46153846153845" y1="15" x2="418.46153846153845" y2="185" stroke="#2e5a9c" stroke-width="5.5" stroke-linecap="round"/><line x1="255" y1="15" x2="425" y2="185" stroke="#4a7ac9" stroke-width="5.5" stroke-linecap="round"/><line x1="261.53846153846155" y1="15" x2="431.53846153846155" y2="185" stroke="#6b9ff5" stroke-width="5.5" stroke-linecap="round"/><line x1="268.0769230769231" y1="15" x2="438.0769230769231" y2="185" stroke="#ffffff" stroke-width="5.5" stroke-linecap="round"/><line x1="274.6153846153846" y1="15" x2="444.6153846153846" y2="185" stroke="#002366" stroke-width="5.5" stroke-linecap="round"/><line x1="281.15384615384613" y1="15" x2="451.15384615384613" y2="185" stroke="#1c3a6e" stroke-width="5.5" stroke-linecap="round"/><line x1="287.6923076923077" y1="15" x2="457.6923076923077" y2="185" stroke="#2e5a9c" stroke-width="5.5" stroke-linecap="round"/><line x1="294.2307692307692" y1="15" x2="464.2307692307692" y2="185" stroke="#4a7ac9" stroke-width="5.5" stroke-linecap="round"/><line x1="300.7692307692308" y1="15" x2="470.7692307692308" y2="185" stroke="#6b9ff5" stroke-width="5.5" stroke-linecap="round"/><line x1="307.3076923076923" y1="15" x2="477.3076923076923" y2="185" stroke="#ffffff" stroke-width="5.5" stroke-linecap="round"/><line x1="313.8461538461538" y1="15" x2="483.8461538461538" y2="185" stroke="#002366" stroke-width="5.5" stroke-linecap="round"/><line x1="320.38461538461536" y1="15" x2="490.38461538461536" y2="185" stroke="#1c3a6e" stroke-width="5.5" stroke-linecap="round"/><line x1="326.9230769230769" y1="15" x2="496.9230769230769" y2="185" stroke="#2e5a9c" stroke-width="5.5" stroke-linecap="round"/><line x1="333.46153846153845" y1="15" x2="503.46153846153845" y2="185" stroke="#4a7ac9" stroke-width="5.5" stroke-linecap="round"/><g transform="rotate(90, 100, 100)"><line x1="-170" y1="15" x2="0" y2="185" stroke="#2e5a9c" stroke-width="5.5" stroke-linecap="round"/><line x1="-163.46153846153845" y1="15" x2="6.538461538461547" y2="185" stroke="#1c3a6e" stroke-width="5.5" stroke-linecap="round"/><line x1="-156.9230769230769" y1="15" x2="13.076923076923094" y2="185" stroke="#002366" stroke-width="5.5" stroke-linecap="round"/><line x1="-150.3846153846154" y1="15" x2="19.615384615384613" y2="185" stroke="#ffffff" stroke-width="5.5" stroke-linecap="round"/><line x1="-143.84615384615384" y1="15" x2="26.15384615384616" y2="185" stroke="#6b9ff5" stroke-width="5.5" stroke-linecap="round"/><line x1="-137.3076923076923" y1="15" x2="32.69230769230771" y2="185" stroke="#4a7ac9" stroke-width="5.5" stroke-linecap="round"/><line x1="-130.76923076923077" y1="15" x2="39.230769230769226" y2="185" stroke="#2e5a9c" stroke-width="5.5" stroke-linecap="round"/><line x1="-124.23076923076923" y1="15" x2="45.769230769230774" y2="185" stroke="#1c3a6e" stroke-width="5.5" stroke-linecap="round"/><line x1="-117.6923076923077" y1="15" x2="52.30769230769231" y2="185" stroke="#002366" stroke-width="5.5" stroke-linecap="round"/><line x1="-111.15384615384615" y1="15" x2="58.846153846153854" y2="185" stroke="#ffffff" stroke-width="5.5" stroke-linecap="round"/><line x1="-104.61538461538461" y1="15" x2="65.38461538461539" y2="185" stroke="#6b9ff5" stroke-width="5.5" stroke-linecap="round"/><line x1="-98.07692307692308" y1="15" x2="71.92307692307692" y2="185" stroke="#4a7ac9" stroke-width="5.5" stroke-linecap="round"/><line x1="-91.53846153846153" y1="15" x2="78.46153846153847" y2="185" stroke="#2e5a9c" stroke-width="5.5" stroke-linecap="round"/><line x1="-85" y1="15" x2="85" y2="185" stroke="#1c3a6e" stroke-width="5.5" stroke-linecap="round"/><line x1="-78.46153846153845" y1="15" x2="91.53846153846155" y2="185" stroke="#002366" stroke-width="5.5" stroke-linecap="round"/><line x1="-71.92307692307692" y1="15" x2="98.07692307692308" y2="185" stroke="#ffffff" stroke-width="5.5" stroke-linecap="round"/><line x1="-65.38461538461539" y1="15" x2="104.61538461538461" y2="185" stroke="#6b9ff5" stroke-width="5.5" stroke-linecap="round"/><line x1="-58.84615384615385" y1="15" x2="111.15384615384616" y2="185" stroke="#4a7ac9" stroke-width="5.5" stroke-linecap="round"/><line x1="-52.30769230769231" y1="15" x2="117.6923076923077" y2="185" stroke="#2e5a9c" stroke-width="5.5" stroke-linecap="round"/><line x1="-45.76923076923077" y1="15" x2="124.23076923076923" y2="185" stroke="#1c3a6e" stroke-width="5.5" stroke-linecap="round"/><line x1="-39.230769230769226" y1="15" x2="130.76923076923077" y2="185" stroke="#002366" stroke-width="5.5" stroke-linecap="round"/><line x1="-32.69230769230769" y1="15" x2="137.30769230769232" y2="185" stroke="#ffffff" stroke-width="5.5" stroke-linecap="round"/><line x1="-26.153846153846153" y1="15" x2="143.84615384615384" y2="185" stroke="#6b9ff5" stroke-width="5.5" stroke-linecap="round"/><line x1="-19.615384615384613" y1="15" x2="150.3846153846154" y2="185" stroke="#4a7ac9" stroke-width="5.5" stroke-linecap="round"/><line x1="-13.076923076923077" y1="15" x2="156.92307692307693" y2="185" stroke="#2e5a9c" stroke-width="5.5" stroke-linecap="round"/><line x1="-6.538461538461538" y1="15" x2="163.46153846153845" y2="185" stroke="#1c3a6e" stroke-width="5.5" stroke-linecap="round"/><line x1="0" y1="15" x2="170" y2="185" stroke="#002366" stroke-width="5.5" stroke-linecap="round"/><line x1="6.538461538461538" y1="15" x2="176.53846153846155" y2="185" stroke="#1c3a6e" stroke-width="5.5" stroke-linecap="round"/><line x1="13.076923076923077" y1="15" x2="183.07692307692307" y2="185" stroke="#2e5a9c" stroke-width="5.5" stroke-linecap="round"/><line x1="19.615384615384613" y1="15" x2="189.6153846153846" y2="185" stroke="#4a7ac9" stroke-width="5.5" stroke-linecap="round"/><line x1="26.153846153846153" y1="15" x2="196.15384615384616" y2="185" stroke="#6b9ff5" stroke-width="5.5" stroke-linecap="round"/><line x1="32.69230769230769" y1="15" x2="202.69230769230768" y2="185" stroke="#ffffff" stroke-width="5.5" stroke-linecap="round"/><line x1="39.230769230769226" y1="15" x2="209.23076923076923" y2="185" stroke="#002366" stroke-width="5.5" stroke-linecap="round"/><line x1="45.76923076923077" y1="15" x2="215.76923076923077" y2="185" stroke="#1c3a6e" stroke-width="5.5" stroke-linecap="round"/><line x1="52.30769230769231" y1="15" x2="222.30769230769232" y2="185" stroke="#2e5a9c" stroke-width="5.5" stroke-linecap="round"/><line x1="58.84615384615385" y1="15" x2="228.84615384615384" y2="185" stroke="#4a7ac9" stroke-width="5.5" stroke-linecap="round"/><line x1="65.38461538461539" y1="15" x2="235.3846153846154" y2="185" stroke="#6b9ff5" stroke-width="5.5" stroke-linecap="round"/><line x1="71.92307692307692" y1="15" x2="241.9230769230769" y2="185" stroke="#ffffff" stroke-width="5.5" stroke-linecap="round"/><line x1="78.46153846153845" y1="15" x2="248.46153846153845" y2="185" stroke="#002366" stroke-width="5.5" stroke-linecap="round"/><line x1="85" y1="15" x2="255" y2="185" stroke="#1c3a6e" stroke-width="5.5" stroke-linecap="round"/><line x1="91.53846153846153" y1="15" x2="261.53846153846155" y2="185" stroke="#2e5a9c" stroke-width="5.5" stroke-linecap="round"/><line x1="98.07692307692308" y1="15" x2="268.0769230769231" y2="185" stroke="#4a7ac9" stroke-width="5.5" stroke-linecap="round"/><line x1="104.61538461538461" y1="15" x2="274.61538461538464" y2="185" stroke="#6b9ff5" stroke-width="5.5" stroke-linecap="round"/><line x1="111.15384615384615" y1="15" x2="281.15384615384613" y2="185" stroke="#ffffff" stroke-width="5.5" stroke-linecap="round"/><line x1="117.6923076923077" y1="15" x2="287.6923076923077" y2="185" stroke="#002366" stroke-width="5.5" stroke-linecap="round"/><line x1="124.23076923076923" y1="15" x2="294.2307692307692" y2="185" stroke="#1c3a6e" stroke-width="5.5" stroke-linecap="round"/><line x1="130.76923076923077" y1="15" x2="300.7692307692308" y2="185" stroke="#2e5a9c" stroke-width="5.5" stroke-linecap="round"/><line x1="137.3076923076923" y1="15" x2="307.30769230769226" y2="185" stroke="#4a7ac9" stroke-width="5.5" stroke-linecap="round"/><line x1="143.84615384615384" y1="15" x2="313.8461538461538" y2="185" stroke="#6b9ff5" stroke-width="5.5" stroke-linecap="round"/><line x1="150.3846153846154" y1="15" x2="320.38461538461536" y2="185" stroke="#ffffff" stroke-width="5.5" stroke-linecap="round"/><line x1="156.9230769230769" y1="15" x2="326.9230769230769" y2="185" stroke="#002366" stroke-width="5.5" stroke-linecap="round"/><line x1="163.46153846153845" y1="15" x2="333.46153846153845" y2="185" stroke="#1c3a6e" stroke-width="5.5" stroke-linecap="round"/><line x1="170" y1="15" x2="340" y2="185" stroke="#2e5a9c" stroke-width="5.5" stroke-linecap="round"/><line x1="176.53846153846155" y1="15" x2="346.53846153846155" y2="185" stroke="#4a7ac9" stroke-width="5.5" stroke-linecap="round"/><line x1="183.07692307692307" y1="15" x2="353.0769230769231" y2="185" stroke="#6b9ff5" stroke-width="5.5" stroke-linecap="round"/><line x1="189.6153846153846" y1="15" x2="359.61538461538464" y2="185" stroke="#ffffff" stroke-width="5.5" stroke-linecap="round"/><line x1="196.15384615384616" y1="15" x2="366.1538461538462" y2="185" stroke="#002366" stroke-width="5.5" stroke-linecap="round"/><line x1="202.69230769230768" y1="15" x2="372.6923076923077" y2="185" stroke="#1c3a6e" stroke-width="5.5" stroke-linecap="round"/><line x1="209.23076923076923" y1="15" x2="379.2307692307692" y2="185" stroke="#2e5a9c" stroke-width="5.5" stroke-linecap="round"/><line x1="215.76923076923077" y1="15" x2="385.7692307692308" y2="185" stroke="#4a7ac9" stroke-width="5.5" stroke-linecap="round"/><line x1="222.3076923076923" y1="15" x2="392.30769230769226" y2="185" stroke="#6b9ff5" stroke-width="5.5" stroke-linecap="round"/><line x1="228.84615384615384" y1="15" x2="398.8461538461538" y2="185" stroke="#ffffff" stroke-width="5.5" stroke-linecap="round"/><line x1="235.3846153846154" y1="15" x2="405.38461538461536" y2="185" stroke="#002366" stroke-width="5.5" stroke-linecap="round"/><line x1="241.9230769230769" y1="15" x2="411.9230769230769" y2="185" stroke="#1c3a6e" stroke-width="5.5" stroke-linecap="round"/><line x1="248.46153846153845" y1="15" x2="418.46153846153845" y2="185" stroke="#2e5a9c" stroke-width="5.5" stroke-linecap="round"/><line x1="255" y1="15" x2="425" y2="185" stroke="#4a7ac9" stroke-width="5.5" stroke-linecap="round"/><line x1="261.53846153846155" y1="15" x2="431.53846153846155" y2="185" stroke="#6b9ff5" stroke-width="5.5" stroke-linecap="round"/><line x1="268.0769230769231" y1="15" x2="438.0769230769231" y2="185" stroke="#ffffff" stroke-width="5.5" stroke-linecap="round"/><line x1="274.6153846153846" y1="15" x2="444.6153846153846" y2="185" stroke="#002366" stroke-width="5.5" stroke-linecap="round"/><line x1="281.15384615384613" y1="15" x2="451.15384615384613" y2="185" stroke="#1c3a6e" stroke-width="5.5" stroke-linecap="round"/><line x1="287.6923076923077" y1="15" x2="457.6923076923077" y2="185" stroke="#2e5a9c" stroke-width="5.5" stroke-linecap="round"/><line x1="294.2307692307692" y1="15" x2="464.2307692307692" y2="185" stroke="#4a7ac9" stroke-width="5.5" stroke-linecap="round"/><line x1="300.7692307692308" y1="15" x2="470.7692307692308" y2="185" stroke="#6b9ff5" stroke-width="5.5" stroke-linecap="round"/><line x1="307.3076923076923" y1="15" x2="477.3076923076923" y2="185" stroke="#ffffff" stroke-width="5.5" stroke-linecap="round"/><line x1="313.8461538461538" y1="15" x2="483.8461538461538" y2="185" stroke="#002366" stroke-width="5.5" stroke-linecap="round"/><line x1="320.38461538461536" y1="15" x2="490.38461538461536" y2="185" stroke="#1c3a6e" stroke-width="5.5" stroke-linecap="round"/><line x1="326.9230769230769" y1="15" x2="496.9230769230769" y2="185" stroke="#2e5a9c" stroke-width="5.5" stroke-linecap="round"/><line x1="333.46153846153845" y1="15" x2="503.46153846153845" y2="185" stroke="#4a7ac9" stroke-width="5.5" stroke-linecap="round"/></g><g transform="rotate(180, 100, 100)"><line x1="-170" y1="15" x2="0" y2="185" stroke="#2e5a9c" stroke-width="5.5" stroke-linecap="round"/><line x1="-163.46153846153845" y1="15" x2="6.538461538461547" y2="185" stroke="#1c3a6e" stroke-width="5.5" stroke-linecap="round"/><line x1="-156.9230769230769" y1="15" x2="13.076923076923094" y2="185" stroke="#002366" stroke-width="5.5" stroke-linecap="round"/><line x1="-150.3846153846154" y1="15" x2="19.615384615384613" y2="185" stroke="#ffffff" stroke-width="5.5" stroke-linecap="round"/><line x1="-143.84615384615384" y1="15" x2="26.15384615384616" y2="185" stroke="#6b9ff5" stroke-width="5.5" stroke-linecap="round"/><line x1="-137.3076923076923" y1="15" x2="32.69230769230771" y2="185" stroke="#4a7ac9" stroke-width="5.5" stroke-linecap="round"/><line x1="-130.76923076923077" y1="15" x2="39.230769230769226" y2="185" stroke="#2e5a9c" stroke-width="5.5" stroke-linecap="round"/><line x1="-124.23076923076923" y1="15" x2="45.769230769230774" y2="185" stroke="#1c3a6e" stroke-width="5.5" stroke-linecap="round"/><line x1="-117.6923076923077" y1="15" x2="52.30769230769231" y2="185" stroke="#002366" stroke-width="5.5" stroke-linecap="round"/><line x1="-111.15384615384615" y1="15" x2="58.846153846153854" y2="185" stroke="#ffffff" stroke-width="5.5" stroke-linecap="round"/><line x1="-104.61538461538461" y1="15" x2="65.38461538461539" y2="185" stroke="#6b9ff5" stroke-width="5.5" stroke-linecap="round"/><line x1="-98.07692307692308" y1="15" x2="71.92307692307692" y2="185" stroke="#4a7ac9" stroke-width="5.5" stroke-linecap="round"/><line x1="-91.53846153846153" y1="15" x2="78.46153846153847" y2="185" stroke="#2e5a9c" stroke-width="5.5" stroke-linecap="round"/><line x1="-85" y1="15" x2="85" y2="185" stroke="#1c3a6e" stroke-width="5.5" stroke-linecap="round"/><line x1="-78.46153846153845" y1="15" x2="91.53846153846155" y2="185" stroke="#002366" stroke-width="5.5" stroke-linecap="round"/><line x1="-71.92307692307692" y1="15" x2="98.07692307692308" y2="185" stroke="#ffffff" stroke-width="5.5" stroke-linecap="round"/><line x1="-65.38461538461539" y1="15" x2="104.61538461538461" y2="185" stroke="#6b9ff5" stroke-width="5.5" stroke-linecap="round"/><line x1="-58.84615384615385" y1="15" x2="111.15384615384616" y2="185" stroke="#4a7ac9" stroke-width="5.5" stroke-linecap="round"/><line x1="-52.30769230769231" y1="15" x2="117.6923076923077" y2="185" stroke="#2e5a9c" stroke-width="5.5" stroke-linecap="round"/><line x1="-45.76923076923077" y1="15" x2="124.23076923076923" y2="185" stroke="#1c3a6e" stroke-width="5.5" stroke-linecap="round"/><line x1="-39.230769230769226" y1="15" x2="130.76923076923077" y2="185" stroke="#002366" stroke-width="5.5" stroke-linecap="round"/><line x1="-32.69230769230769" y1="15" x2="137.30769230769232" y2="185" stroke="#ffffff" stroke-width="5.5" stroke-linecap="round"/><line x1="-26.153846153846153" y1="15" x2="143.84615384615384" y2="185" stroke="#6b9ff5" stroke-width="5.5" stroke-linecap="round"/><line x1="-19.615384615384613" y1="15" x2="150.3846153846154" y2="185" stroke="#4a7ac9" stroke-width="5.5" stroke-linecap="round"/><line x1="-13.076923076923077" y1="15" x2="156.92307692307693" y2="185" stroke="#2e5a9c" stroke-width="5.5" stroke-linecap="round"/><line x1="-6.538461538461538" y1="15" x2="163.46153846153845" y2="185" stroke="#1c3a6e" stroke-width="5.5" stroke-linecap="round"/><line x1="0" y1="15" x2="170" y2="185" stroke="#002366" stroke-width="5.5" stroke-linecap="round"/><line x1="6.538461538461538" y1="15" x2="176.53846153846155" y2="185" stroke="#1c3a6e" stroke-width="5.5" stroke-linecap="round"/><line x1="13.076923076923077" y1="15" x2="183.07692307692307" y2="185" stroke="#2e5a9c" stroke-width="5.5" stroke-linecap="round"/><line x1="19.615384615384613" y1="15" x2="189.6153846153846" y2="185" stroke="#4a7ac9" stroke-width="5.5" stroke-linecap="round"/><line x1="26.153846153846153" y1="15" x2="196.15384615384616" y2="185" stroke="#6b9ff5" stroke-width="5.5" stroke-linecap="round"/><line x1="32.69230769230769" y1="15" x2="202.69230769230768" y2="185" stroke="#ffffff" stroke-width="5.5" stroke-linecap="round"/><line x1="39.230769230769226" y1="15" x2="209.23076923076923" y2="185" stroke="#002366" stroke-width="5.5" stroke-linecap="round"/><line x1="45.76923076923077" y1="15" x2="215.76923076923077" y2="185" stroke="#1c3a6e" stroke-width="5.5" stroke-linecap="round"/><line x1="52.30769230769231" y1="15" x2="222.30769230769232" y2="185" stroke="#2e5a9c" stroke-width="5.5" stroke-linecap="round"/><line x1="58.84615384615385" y1="15" x2="228.84615384615384" y2="185" stroke="#4a7ac9" stroke-width="5.5" stroke-linecap="round"/><line x1="65.38461538461539" y1="15" x2="235.3846153846154" y2="185" stroke="#6b9ff5" stroke-width="5.5" stroke-linecap="round"/><line x1="71.92307692307692" y1="15" x2="241.9230769230769" y2="185" stroke="#ffffff" stroke-width="5.5" stroke-linecap="round"/><line x1="78.46153846153845" y1="15" x2="248.46153846153845" y2="185" stroke="#002366" stroke-width="5.5" stroke-linecap="round"/><line x1="85" y1="15" x2="255" y2="185" stroke="#1c3a6e" stroke-width="5.5" stroke-linecap="round"/><line x1="91.53846153846153" y1="15" x2="261.53846153846155" y2="185" stroke="#2e5a9c" stroke-width="5.5" stroke-linecap="round"/><line x1="98.07692307692308" y1="15" x2="268.0769230769231" y2="185" stroke="#4a7ac9" stroke-width="5.5" stroke-linecap="round"/><line x1="104.61538461538461" y1="15" x2="274.61538461538464" y2="185" stroke="#6b9ff5" stroke-width="5.5" stroke-linecap="round"/><line x1="111.15384615384615" y1="15" x2="281.15384615384613" y2="185" stroke="#ffffff" stroke-width="5.5" stroke-linecap="round"/><line x1="117.6923076923077" y1="15" x2="287.6923076923077" y2="185" stroke="#002366" stroke-width="5.5" stroke-linecap="round"/><line x1="124.23076923076923" y1="15" x2="294.2307692307692" y2="185" stroke="#1c3a6e" stroke-width="5.5" stroke-linecap="round"/><line x1="130.76923076923077" y1="15" x2="300.7692307692308" y2="185" stroke="#2e5a9c" stroke-width="5.5" stroke-linecap="round"/><line x1="137.3076923076923" y1="15" x2="307.30769230769226" y2="185" stroke="#4a7ac9" stroke-width="5.5" stroke-linecap="round"/><line x1="143.84615384615384" y1="15" x2="313.8461538461538" y2="185" stroke="#6b9ff5" stroke-width="5.5" stroke-linecap="round"/><line x1="150.3846153846154" y1="15" x2="320.38461538461536" y2="185" stroke="#ffffff" stroke-width="5.5" stroke-linecap="round"/><line x1="156.9230769230769" y1="15" x2="326.9230769230769" y2="185" stroke="#002366" stroke-width="5.5" stroke-linecap="round"/><line x1="163.46153846153845" y1="15" x2="333.46153846153845" y2="185" stroke="#1c3a6e" stroke-width="5.5" stroke-linecap="round"/><line x1="170" y1="15" x2="340" y2="185" stroke="#2e5a9c" stroke-width="5.5" stroke-linecap="round"/><line x1="176.53846153846155" y1="15" x2="346.53846153846155" y2="185" stroke="#4a7ac9" stroke-width="5.5" stroke-linecap="round"/><line x1="183.07692307692307" y1="15" x2="353.0769230769231" y2="185" stroke="#6b9ff5" stroke-width="5.5" stroke-linecap="round"/><line x1="189.6153846153846" y1="15" x2="359.61538461538464" y2="185" stroke="#ffffff" stroke-width="5.5" stroke-linecap="round"/><line x1="196.15384615384616" y1="15" x2="366.1538461538462" y2="185" stroke="#002366" stroke-width="5.5" stroke-linecap="round"/><line x1="202.69230769230768" y1="15" x2="372.6923076923077" y2="185" stroke="#1c3a6e" stroke-width="5.5" stroke-linecap="round"/><line x1="209.23076923076923" y1="15" x2="379.2307692307692" y2="185" stroke="#2e5a9c" stroke-width="5.5" stroke-linecap="round"/><line x1="215.76923076923077" y1="15" x2="385.7692307692308" y2="185" stroke="#4a7ac9" stroke-width="5.5" stroke-linecap="round"/><line x1="222.3076923076923" y1="15" x2="392.30769230769226" y2="185" stroke="#6b9ff5" stroke-width="5.5" stroke-linecap="round"/><line x1="228.84615384615384" y1="15" x2="398.8461538461538" y2="185" stroke="#ffffff" stroke-width="5.5" stroke-linecap="round"/><line x1="235.3846153846154" y1="15" x2="405.38461538461536" y2="185" stroke="#002366" stroke-width="5.5" stroke-linecap="round"/><line x1="241.9230769230769" y1="15" x2="411.9230769230769" y2="185" stroke="#1c3a6e" stroke-width="5.5" stroke-linecap="round"/><line x1="248.46153846153845" y1="15" x2="418.46153846153845" y2="185" stroke="#2e5a9c" stroke-width="5.5" stroke-linecap="round"/><line x1="255" y1="15" x2="425" y2="185" stroke="#4a7ac9" stroke-width="5.5" stroke-linecap="round"/><line x1="261.53846153846155" y1="15" x2="431.53846153846155" y2="185" stroke="#6b9ff5" stroke-width="5.5" stroke-linecap="round"/><line x1="268.0769230769231" y1="15" x2="438.0769230769231" y2="185" stroke="#ffffff" stroke-width="5.5" stroke-linecap="round"/><line x1="274.6153846153846" y1="15" x2="444.6153846153846" y2="185" stroke="#002366" stroke-width="5.5" stroke-linecap="round"/><line x1="281.15384615384613" y1="15" x2="451.15384615384613" y2="185" stroke="#1c3a6e" stroke-width="5.5" stroke-linecap="round"/><line x1="287.6923076923077" y1="15" x2="457.6923076923077" y2="185" stroke="#2e5a9c" stroke-width="5.5" stroke-linecap="round"/><line x1="294.2307692307692" y1="15" x2="464.2307692307692" y2="185" stroke="#4a7ac9" stroke-width="5.5" stroke-linecap="round"/><line x1="300.7692307692308" y1="15" x2="470.7692307692308" y2="185" stroke="#6b9ff5" stroke-width="5.5" stroke-linecap="round"/><line x1="307.3076923076923" y1="15" x2="477.3076923076923" y2="185" stroke="#ffffff" stroke-width="5.5" stroke-linecap="round"/><line x1="313.8461538461538" y1="15" x2="483.8461538461538" y2="185" stroke="#002366" stroke-width="5.5" stroke-linecap="round"/><line x1="320.38461538461536" y1="15" x2="490.38461538461536" y2="185" stroke="#1c3a6e" stroke-width="5.5" stroke-linecap="round"/><line x1="326.9230769230769" y1="15" x2="496.9230769230769" y2="185" stroke="#2e5a9c" stroke-width="5.5" stroke-linecap="round"/><line x1="333.46153846153845" y1="15" x2="503.46153846153845" y2="185" stroke="#4a7ac9" stroke-width="5.5" stroke-linecap="round"/></g><g transform="rotate(270, 100, 100)"><line x1="-170" y1="15" x2="0" y2="185" stroke="#2e5a9c" stroke-width="5.5" stroke-linecap="round"/><line x1="-163.46153846153845" y1="15" x2="6.538461538461547" y2="185" stroke="#1c3a6e" stroke-width="5.5" stroke-linecap="round"/><line x1="-156.9230769230769" y1="15" x2="13.076923076923094" y2="185" stroke="#002366" stroke-width="5.5" stroke-linecap="round"/><line x1="-150.3846153846154" y1="15" x2="19.615384615384613" y2="185" stroke="#ffffff" stroke-width="5.5" stroke-linecap="round"/><line x1="-143.84615384615384" y1="15" x2="26.15384615384616" y2="185" stroke="#6b9ff5" stroke-width="5.5" stroke-linecap="round"/><line x1="-137.3076923076923" y1="15" x2="32.69230769230771" y2="185" stroke="#4a7ac9" stroke-width="5.5" stroke-linecap="round"/><line x1="-130.76923076923077" y1="15" x2="39.230769230769226" y2="185" stroke="#2e5a9c" stroke-width="5.5" stroke-linecap="round"/><line x1="-124.23076923076923" y1="15" x2="45.769230769230774" y2="185" stroke="#1c3a6e" stroke-width="5.5" stroke-linecap="round"/><line x1="-117.6923076923077" y1="15" x2="52.30769230769231" y2="185" stroke="#002366" stroke-width="5.5" stroke-linecap="round"/><line x1="-111.15384615384615" y1="15" x2="58.846153846153854" y2="185" stroke="#ffffff" stroke-width="5.5" stroke-linecap="round"/><line x1="-104.61538461538461" y1="15" x2="65.38461538461539" y2="185" stroke="#6b9ff5" stroke-width="5.5" stroke-linecap="round"/><line x1="-98.07692307692308" y1="15" x2="71.92307692307692" y2="185" stroke="#4a7ac9" stroke-width="5.5" stroke-linecap="round"/><line x1="-91.53846153846153" y1="15" x2="78.46153846153847" y2="185" stroke="#2e5a9c" stroke-width="5.5" stroke-linecap="round"/><line x1="-85" y1="15" x2="85" y2="185" stroke="#1c3a6e" stroke-width="5.5" stroke-linecap="round"/><line x1="-78.46153846153845" y1="15" x2="91.53846153846155" y2="185" stroke="#002366" stroke-width="5.5" stroke-linecap="round"/><line x1="-71.92307692307692" y1="15" x2="98.07692307692308" y2="185" stroke="#ffffff" stroke-width="5.5" stroke-linecap="round"/><line x1="-65.38461538461539" y1="15" x2="104.61538461538461" y2="185" stroke="#6b9ff5" stroke-width="5.5" stroke-linecap="round"/><line x1="-58.84615384615385" y1="15" x2="111.15384615384616" y2="185" stroke="#4a7ac9" stroke-width="5.5" stroke-linecap="round"/><line x1="-52.30769230769231" y1="15" x2="117.6923076923077" y2="185" stroke="#2e5a9c" stroke-width="5.5" stroke-linecap="round"/><line x1="-45.76923076923077" y1="15" x2="124.23076923076923" y2="185" stroke="#1c3a6e" stroke-width="5.5" stroke-linecap="round"/><line x1="-39.230769230769226" y1="15" x2="130.76923076923077" y2="185" stroke="#002366" stroke-width="5.5" stroke-linecap="round"/><line x1="-32.69230769230769" y1="15" x2="137.30769230769232" y2="185" stroke="#ffffff" stroke-width="5.5" stroke-linecap="round"/><line x1="-26.153846153846153" y1="15" x2="143.84615384615384" y2="185" stroke="#6b9ff5" stroke-width="5.5" stroke-linecap="round"/><line x1="-19.615384615384613" y1="15" x2="150.3846153846154" y2="185" stroke="#4a7ac9" stroke-width="5.5" stroke-linecap="round"/><line x1="-13.076923076923077" y1="15" x2="156.92307692307693" y2="185" stroke="#2e5a9c" stroke-width="5.5" stroke-linecap="round"/><line x1="-6.538461538461538" y1="15" x2="163.46153846153845" y2="185" stroke="#1c3a6e" stroke-width="5.5" stroke-linecap="round"/><line x1="0" y1="15" x2="170" y2="185" stroke="#002366" stroke-width="5.5" stroke-linecap="round"/><line x1="6.538461538461538" y1="15" x2="176.53846153846155" y2="185" stroke="#1c3a6e" stroke-width="5.5" stroke-linecap="round"/><line x1="13.076923076923077" y1="15" x2="183.07692307692307" y2="185" stroke="#2e5a9c" stroke-width="5.5" stroke-linecap="round"/><line x1="19.615384615384613" y1="15" x2="189.6153846153846" y2="185" stroke="#4a7ac9" stroke-width="5.5" stroke-linecap="round"/><line x1="26.153846153846153" y1="15" x2="196.15384615384616" y2="185" stroke="#6b9ff5" stroke-width="5.5" stroke-linecap="round"/><line x1="32.69230769230769" y1="15" x2="202.69230769230768" y2="185" stroke="#ffffff" stroke-width="5.5" stroke-linecap="round"/><line x1="39.230769230769226" y1="15" x2="209.23076923076923" y2="185" stroke="#002366" stroke-width="5.5" stroke-linecap="round"/><line x1="45.76923076923077" y1="15" x2="215.76923076923077" y2="185" stroke="#1c3a6e" stroke-width="5.5" stroke-linecap="round"/><line x1="52.30769230769231" y1="15" x2="222.30769230769232" y2="185" stroke="#2e5a9c" stroke-width="5.5" stroke-linecap="round"/><line x1="58.84615384615385" y1="15" x2="228.84615384615384" y2="185" stroke="#4a7ac9" stroke-width="5.5" stroke-linecap="round"/><line x1="65.38461538461539" y1="15" x2="235.3846153846154" y2="185" stroke="#6b9ff5" stroke-width="5.5" stroke-linecap="round"/><line x1="71.92307692307692" y1="15" x2="241.9230769230769" y2="185" stroke="#ffffff" stroke-width="5.5" stroke-linecap="round"/><line x1="78.46153846153845" y1="15" x2="248.46153846153845" y2="185" stroke="#002366" stroke-width="5.5" stroke-linecap="round"/><line x1="85" y1="15" x2="255" y2="185" stroke="#1c3a6e" stroke-width="5.5" stroke-linecap="round"/><line x1="91.53846153846153" y1="15" x2="261.53846153846155" y2="185" stroke="#2e5a9c" stroke-width="5.5" stroke-linecap="round"/><line x1="98.07692307692308" y1="15" x2="268.0769230769231" y2="185" stroke="#4a7ac9" stroke-width="5.5" stroke-linecap="round"/><line x1="104.61538461538461" y1="15" x2="274.61538461538464" y2="185" stroke="#6b9ff5" stroke-width="5.5" stroke-linecap="round"/><line x1="111.15384615384615" y1="15" x2="281.15384615384613" y2="185" stroke="#ffffff" stroke-width="5.5" stroke-linecap="round"/><line x1="117.6923076923077" y1="15" x2="287.6923076923077" y2="185" stroke="#002366" stroke-width="5.5" stroke-linecap="round"/><line x1="124.23076923076923" y1="15" x2="294.2307692307692" y2="185" stroke="#1c3a6e" stroke-width="5.5" stroke-linecap="round"/><line x1="130.76923076923077" y1="15" x2="300.7692307692308" y2="185" stroke="#2e5a9c" stroke-width="5.5" stroke-linecap="round"/><line x1="137.3076923076923" y1="15" x2="307.30769230769226" y2="185" stroke="#4a7ac9" stroke-width="5.5" stroke-linecap="round"/><line x1="143.84615384615384" y1="15" x2="313.8461538461538" y2="185" stroke="#6b9ff5" stroke-width="5.5" stroke-linecap="round"/><line x1="150.3846153846154" y1="15" x2="320.38461538461536" y2="185" stroke="#ffffff" stroke-width="5.5" stroke-linecap="round"/><line x1="156.9230769230769" y1="15" x2="326.9230769230769" y2="185" stroke="#002366" stroke-width="5.5" stroke-linecap="round"/><line x1="163.46153846153845" y1="15" x2="333.46153846153845" y2="185" stroke="#1c3a6e" stroke-width="5.5" stroke-linecap="round"/><line x1="170" y1="15" x2="340" y2="185" stroke="#2e5a9c" stroke-width="5.5" stroke-linecap="round"/><line x1="176.53846153846155" y1="15" x2="346.53846153846155" y2="185" stroke="#4a7ac9" stroke-width="5.5" stroke-linecap="round"/><line x1="183.07692307692307" y1="15" x2="353.0769230769231" y2="185" stroke="#6b9ff5" stroke-width="5.5" stroke-linecap="round"/><line x1="189.6153846153846" y1="15" x2="359.61538461538464" y2="185" stroke="#ffffff" stroke-width="5.5" stroke-linecap="round"/><line x1="196.15384615384616" y1="15" x2="366.1538461538462" y2="185" stroke="#002366" stroke-width="5.5" stroke-linecap="round"/><line x1="202.69230769230768" y1="15" x2="372.6923076923077" y2="185" stroke="#1c3a6e" stroke-width="5.5" stroke-linecap="round"/><line x1="209.23076923076923" y1="15" x2="379.2307692307692" y2="185" stroke="#2e5a9c" stroke-width="5.5" stroke-linecap="round"/><line x1="215.76923076923077" y1="15" x2="385.7692307692308" y2="185" stroke="#4a7ac9" stroke-width="5.5" stroke-linecap="round"/><line x1="222.3076923076923" y1="15" x2="392.30769230769226" y2="185" stroke="#6b9ff5" stroke-width="5.5" stroke-linecap="round"/><line x1="228.84615384615384" y1="15" x2="398.8461538461538" y2="185" stroke="#ffffff" stroke-width="5.5" stroke-linecap="round"/><line x1="235.3846153846154" y1="15" x2="405.38461538461536" y2="185" stroke="#002366" stroke-width="5.5" stroke-linecap="round"/><line x1="241.9230769230769" y1="15" x2="411.9230769230769" y2="185" stroke="#1c3a6e" stroke-width="5.5" stroke-linecap="round"/><line x1="248.46153846153845" y1="15" x2="418.46153846153845" y2="185" stroke="#2e5a9c" stroke-width="5.5" stroke-linecap="round"/><line x1="255" y1="15" x2="425" y2="185" stroke="#4a7ac9" stroke-width="5.5" stroke-linecap="round"/><line x1="261.53846153846155" y1="15" x2="431.53846153846155" y2="185" stroke="#6b9ff5" stroke-width="5.5" stroke-linecap="round"/><line x1="268.0769230769231" y1="15" x2="438.0769230769231" y2="185" stroke="#ffffff" stroke-width="5.5" stroke-linecap="round"/><line x1="274.6153846153846" y1="15" x2="444.6153846153846" y2="185" stroke="#002366" stroke-width="5.5" stroke-linecap="round"/><line x1="281.15384615384613" y1="15" x2="451.15384615384613" y2="185" stroke="#1c3a6e" stroke-width="5.5" stroke-linecap="round"/><line x1="287.6923076923077" y1="15" x2="457.6923076923077" y2="185" stroke="#2e5a9c" stroke-width="5.5" stroke-linecap="round"/><line x1="294.2307692307692" y1="15" x2="464.2307692307692" y2="185" stroke="#4a7ac9" stroke-width="5.5" stroke-linecap="round"/><line x1="300.7692307692308" y1="15" x2="470.7692307692308" y2="185" stroke="#6b9ff5" stroke-width="5.5" stroke-linecap="round"/><line x1="307.3076923076923" y1="15" x2="477.3076923076923" y2="185" stroke="#ffffff" stroke-width="5.5" stroke-linecap="round"/><line x1="313.8461538461538" y1="15" x2="483.8461538461538" y2="185" stroke="#002366" stroke-width="5.5" stroke-linecap="round"/><line x1="320.38461538461536" y1="15" x2="490.38461538461536" y2="185" stroke="#1c3a6e" stroke-width="5.5" stroke-linecap="round"/><line x1="326.9230769230769" y1="15" x2="496.9230769230769" y2="185" stroke="#2e5a9c" stroke-width="5.5" stroke-linecap="round"/><line x1="333.46153846153845" y1="15" x2="503.46153846153845" y2="185" stroke="#4a7ac9" stroke-width="5.5" stroke-linecap="round"/></g></g></g><path d="M8,15 A7,7 0 0,1 15,8" fill="none" stroke="#002366" stroke-width="2" stroke-linecap="round" stroke-opacity="1"/><path d="M192,185 A7,7 0 0,1 185,192" fill="none" stroke="#002366" stroke-width="2" stroke-linecap="round" stroke-opacity="1"/><path d="M1,15 A14,14 0 0,1 15,1" fill="none" stroke="#002366" stroke-width="2" stroke-linecap="round" stroke-opacity="1"/><path d="M199,185 A14,14 0 0,1 185,199" fill="none" stroke="#002366" stroke-width="2" stroke-linecap="round" stroke-opacity="1"/><path d="M185,9 A6,6 0 0,1 191,15" fill="none" stroke="#1c3a6e" stroke-width="1.6" stroke-linecap="round" stroke-opacity="1"/><path d="M15,191 A6,6 0 0,1 9,185" fill="none" stroke="#1c3a6e" stroke-width="1.6" stroke-linecap="round" stroke-opacity="1"/><path d="M185,3 A12,12 0 0,1 197,15" fill="none" stroke="#1c3a6e" stroke-width="1.6" stroke-linecap="round" stroke-opacity="1"/><path d="M15,197 A12,12 0 0,1 3,185" fill="none" stroke="#1c3a6e" stroke-width="1.6" stroke-linecap="round" stroke-opacity="1"/><rect x="5" y="5" width="190" height="190" fill="none" stroke="#4169e1" stroke-width="8" stroke-opacity="0.66"/></svg>