<svg xmlns="http://www.w3.org/2000/svg" width="200" height="200" viewBox="0 0 200 200"><defs></defs><rect width="200" height="200" fill="#ffffff"/><g class="pattern"><g class="symmetry-both"><path d="M20,20 Q100,10 180,20" fill="none" stroke="#002366" stroke-width="11" stroke-linecap="round"/><path d="M180,20 Q190,100 180,180" fill="none" stroke="#002366" stroke-width="11" stroke-linecap="round"/><path d="M180,180 Q100,190 20,180" fill="none" stroke="#002366" stroke-width="11" stroke-linecap="round"/><path d="M20,180 Q10,100 20,20" fill="none" stroke="#002366" stroke-width="11" stroke-linecap="round"/><path d="M32,32 Q100,22 168,32" fill="none" stroke="#1c3a6e" stroke-width="11" stroke-linecap="round"/><path d="M168,32 Q178,100 168,168" fill="none" stroke="#1c3a6e" stroke-width="11" stroke-linecap="round"/><path d="M168,168 Q100,178 32,168" fill="none" stroke="#1c3a6e" stroke-width="11" stroke-linecap="round"/><path d="M32,168 Q22,100 32,32" fill="none" stroke="#1c3a6e" stroke-width="11" stroke-linecap="round"/><g transform="translate(200, 0) scale(-1, 1)"><path d="M20,20 Q100,10 180,20" fill="none" stroke="#002366" stroke-width="11" stroke-linecap="round"/><path d="M180,20 Q190,100 180,180" fill="none" stroke="#002366" stroke-width="11" stroke-linecap="round"/><path d="M180,180 Q100,190 20,180" fill="none" stroke="#002366" stroke-width="11" stroke-linecap="round"/><path d="M20,180 Q10,100 20,20" fill="none" stroke="#002366" stroke-width="11" stroke-linecap="round"/><path d="M32,32 Q100,22 168,32" fill="none" stroke="#1c3a6e" stroke-width="11" stroke-linecap="round"/><path d="M168,32 Q178,100 168,168" fill="none" stroke="#1c3a6e" stroke-width="11" stroke-linecap="round"/><path d="M168,168 Q100,178 32,168" fill="none" stroke="#1c3a6e" stroke-width="11" stroke-linecap="round"/><path d="M32,168 Q22,100 32,32" fill="none" stroke="#1c3a6e" stroke-width="11" stroke-linecap="round"/></g><g transform="translate(0, 200) scale(1, -1)"><path d="M20,20 Q100,10 180,20" fill="none" stroke="#002366" stroke-width="11" stroke-linecap="round"/><path d="M180,20 Q190,100 180,180" fill="none" stroke="#002366" stroke-width="11" stroke-linecap="round"/><path d="M180,180 Q100,190 20,180" fill="none" stroke="#002366" stroke-width="11" stroke-linecap="round"/><path d="M20,180 Q10,100 20,20" fill="none" stroke="#002366" stroke-width="11" stroke-linecap="round"/><path d="M32,32 Q100,22 168,32" fill="none" stroke="#1c3a6e" stroke-width="11" stroke-linecap="round"/><path d="M168,32 Q178,100 168,168" fill="none" stroke="#1c3a6e" stroke-width="11" stroke-linecap="round"/><path d="M168,168 Q100,178 32,168" fill="none" stroke="#1c3a6e" stroke-width="11" stroke-linecap="round"/><path d="M32,168 Q22,100 32,32" fill="none" stroke="#1c3a6e" stroke-width="11" stroke-linecap="round"/></g><g transform="translate(200, 200) scale(-1, -1)"><path d="M20,20 Q100,10 180,20" fill="none" stroke="#002366" stroke-width="11" stroke-linecap="round"/><path d="M180,20 Q190,100 180,180" fill="none" stroke="#002366" stroke-width="11" stroke-linecap="round"/><path d="M180,180 Q100,190 20,180" fill="none" stroke="#002366" stroke-width="11" stroke-linecap="round"/><path d="M20,180 Q10,100 20,20" fill="none" stroke="#002366" stroke-width="11" stroke-linecap="round"/><path d="M32,32 Q100,22 168,32" fill="none" stroke="#1c3a6e" stroke-width="11" stroke-linecap="round"/><path d="M168,32 Q178,100 168,168" fill="none" stroke="#1c3a6e" stroke-width="11" stroke-linecap="round"/><path d="M168,168 Q100,178 32,168" fill="none" stroke="#1c3a6e" stroke-width="11" stroke-linecap="round"/><path d="M32,168 Q22,100 32,32" fill="none" stroke="#1c3a6e" stroke-width="11" stroke-linecap="round"/></g></g></g><circle cx="100" cy="100" r="35" fill="none" stroke="#002366" stroke-width="4"/><path d="M100,65 A35,35 0 0,1 100,100 A17.5,17.5 0 0,0 100,65" fill="#1c3a6e" fill-opacity="1" stroke="none"/><path d="M100,135 A35,35 0 0,1 100,100 A17.5,17.5 0 0,0 100,135" fill="#002366" fill-opacity="1" stroke="none"/><circle cx="100" cy="91.25" r="4.2" fill="#002366" stroke="none"/><circle cx="100" cy="108.75" r="4.2" fill="#1c3a6e" stroke="none"/><path d="M15,33 Q15,15 33,15" fill="none" stroke="#002366" stroke-width="3" stroke-linecap="round" stroke-opacity="1"/><circle cx="21" cy="21" r="4" fill="#002366" fill-opacity="1"/><path d="M185,167 Q185,185 167,185" fill="none" stroke="#002366" stroke-width="3" stroke-linecap="round" stroke-opacity="1"/><circle cx="179" cy="179" r="4" fill="#002366" fill-opacity="1"/><path d="M167,15 Q185,15 185,33" fill="none" stroke="#1c3a6e" stroke-width="3" stroke-linecap="round" stroke-opacity="1"/><circle cx="179" cy="21" r="4" fill="#1c3a6e" fill-opacity="1"/><path d="M33,185 Q15,185 15,167" fill="none" stroke="#1c3a6e" stroke-width="3" stroke-linecap="round" stroke-opacity="1"/><circle cx="21" cy="179" r="4" fill="#1c3a6e" fill-opacity="1"/><rect x="5" y="5" width="190" height="190" fill="none" stroke="#002366" stroke-width="8" stroke-opacity="0.88"/></svg>