<svg xmlns="http://www.w3.org/2000/svg" width="200" height="200" viewBox="0 0 200 200"><defs></defs><rect width="200" height="200" fill="#ffffff"/><g class="pattern"><g class="symmetry-horizontal"><path d="M100,100 Q87.05551045768652,76.30527082895993 100,19 Q112.94448954231348,76.30527082895993 100,100" fill="#daa520" fill-opacity="0.6400000000000001" stroke="#bc8702" stroke-width="5.5"/><path d="M100,100 Q100.63710780285456,73.00751783093037 140.5,29.851942293460468 Q123.05762136818551,85.95200737324384 100,100" fill="#b8860b" fill-opacity="0.6400000000000001" stroke="#9a6800" stroke-width="5.5"/><path d="M100,100 Q114.04799262675614,76.94237863181449 170.14805770653953,59.5 Q126.99248216906963,99.36289219714544 100,100" fill="#fff8dc" fill-opacity="0.6400000000000001" stroke="#e1dabe" stroke-width="5.5"/><path d="M100,100 Q123.69472917104007,87.05551045768652 181,100 Q123.69472917104007,112.94448954231348 100,100" fill="#0047ab" fill-opacity="0.6400000000000001" stroke="#00298d" stroke-width="5.5"/><path d="M100,100 Q126.99248216906963,100.63710780285456 170.14805770653953,140.5 Q114.04799262675616,123.05762136818551 100,100" fill="#1e90ff" fill-opacity="0.6400000000000001" stroke="#0072e1" stroke-width="5.5"/><path d="M100,100 Q123.05762136818551,114.04799262675616 140.5,170.14805770653953 Q100.63710780285456,126.99248216906963 100,100" fill="#ffd700" fill-opacity="0.6400000000000001" stroke="#e1b900" stroke-width="5.5"/><path d="M100,100 Q112.94448954231348,123.69472917104007 100,181 Q87.05551045768652,123.69472917104007 100,100" fill="#daa520" fill-opacity="0.6400000000000001" stroke="#bc8702" stroke-width="5.5"/><path d="M100,100 Q99.36289219714544,126.99248216906963 59.49999999999998,170.14805770653953 Q76.94237863181449,114.04799262675614 100,100" fill="#b8860b" fill-opacity="0.6400000000000001" stroke="#9a6800" stroke-width="5.5"/><path d="M100,100 Q85.95200737324386,123.05762136818551 29.851942293460482,140.50000000000003 Q73.00751783093037,100.63710780285457 100,100" fill="#fff8dc" fill-opacity="0.6400000000000001" stroke="#e1dabe" stroke-width="5.5"/><path d="M100,100 Q76.30527082895993,112.94448954231348 19,100.00000000000001 Q76.30527082895993,87.05551045768652 100,100" fill="#0047ab" fill-opacity="0.6400000000000001" stroke="#00298d" stroke-width="5.5"/><path d="M100,100 Q73.00751783093037,99.36289219714544 29.851942293460468,59.49999999999999 Q85.95200737324386,76.94237863181449 100,100" fill="#1e90ff" fill-opacity="0.6400000000000001" stroke="#0072e1" stroke-width="5.5"/><path d="M100,100 Q76.94237863181448,85.95200737324386 59.499999999999964,29.851942293460496 Q99.36289219714543,73.00751783093037 100,100" fill="#ffd700" fill-opacity="0.6400000000000001" stroke="#e1b900" stroke-width="5.5"/><path d="M100,100 Q88.49378707349913,78.93801851463105 100,41 Q111.50621292650088,78.93801851463105 100,100" fill="#ffd700" fill-opacity="0.6400000000000001" stroke="#e1b900" stroke-width="5.5"/><path d="M100,100 Q100.56631804698182,76.00668251638255 129.5,48.904501176718114 Q120.49566343838711,87.51289544288342 100,100" fill="#daa520" fill-opacity="0.6400000000000001" stroke="#bc8702" stroke-width="5.5"/><path d="M100,100 Q112.48710455711657,79.50433656161289 151.09549882328187,70.5 Q123.99331748361745,99.43368195301817 100,100" fill="#b8860b" fill-opacity="0.6400000000000001" stroke="#9a6800" stroke-width="5.5"/><path d="M100,100 Q121.06198148536895,88.49378707349913 159,100 Q121.06198148536895,111.50621292650087 100,100" fill="#fff8dc" fill-opacity="0.6400000000000001" stroke="#e1dabe" stroke-width="5.5"/><path d="M100,100 Q123.99331748361745,100.56631804698182 151.0954988232819,129.5 Q112.48710455711658,120.49566343838711 100,100" fill="#0047ab" fill-opacity="0.6400000000000001" stroke="#00298d" stroke-width="5.5"/><path d="M100,100 Q120.49566343838711,112.48710455711658 129.5,151.0954988232819 Q100.56631804698182,123.99331748361745 100,100" fill="#1e90ff" fill-opacity="0.6400000000000001" stroke="#0072e1" stroke-width="5.5"/><path d="M100,100 Q111.50621292650088,121.06198148536895 100,159 Q88.49378707349913,121.06198148536895 100,100" fill="#ffd700" fill-opacity="0.6400000000000001" stroke="#e1b900" stroke-width="5.5"/><path d="M100,100 Q99.43368195301817,123.99331748361745 70.49999999999999,151.09549882328187 Q79.50433656161287,112.48710455711657 100,100" fill="#daa520" fill-opacity="0.6400000000000001" stroke="#bc8702" stroke-width="5.5"/><path d="M100,100 Q87.51289544288343,120.49566343838713 48.90450117671813,129.50000000000003 Q76.00668251638255,100.56631804698183 100,100" fill="#b8860b" fill-opacity="0.6400000000000001" stroke="#9a6800" stroke-width="5.5"/><path d="M100,100 Q78.93801851463105,111.50621292650088 41,100.00000000000001 Q78.93801851463105,88.49378707349913 100,100" fill="#fff8dc" fill-opacity="0.6400000000000001" stroke="#e1dabe" stroke-width="5.5"/><path d="M100,100 Q76.00668251638255,99.43368195301817 48.90450117671812,70.5 Q87.51289544288343,79.50433656161289 100,100" fill="#0047ab" fill-opacity="0.6400000000000001" stroke="#00298d" stroke-width="5.5"/><path d="M100,100 Q79.50433656161287,87.51289544288343 70.49999999999997,48.904501176718135 Q99.43368195301817,76.00668251638255 100,100" fill="#1e90ff" fill-opacity="0.6400000000000001" stroke="#0072e1" stroke-width="5.5"/><path d="M100,100 Q89.93206368931173,81.57076620030217 100,63 Q110.06793631068827,81.57076620030217 100,100" fill="#1e90ff" fill-opacity="0.6400000000000001" stroke="#0072e1" stroke-width="5.5"/><path d="M100,100 Q100.4955282911091,79.00584720183474 118.5,67.95706005997576 Q117.93370550858873,89.073783512523 100,100" fill="#ffd700" fill-opacity="0.6400000000000001" stroke="#e1b900" stroke-width="5.5"/><path d="M100,100 Q110.926216487477,82.06629449141127 132.0429399400242,81.5 Q120.99415279816526,99.5044717088909 100,100" fill="#daa520" fill-opacity="0.6400000000000001" stroke="#bc8702" stroke-width="5.5"/><path d="M100,100 Q118.42923379969783,89.93206368931173 137,100 Q118.42923379969783,110.06793631068827 100,100" fill="#b8860b" fill-opacity="0.6400000000000001" stroke="#9a6800" stroke-width="5.5"/><path d="M100,100 Q120.99415279816526,100.4955282911091 132.04293994002424,118.5 Q110.926216487477,117.93370550858873 100,100" fill="#fff8dc" fill-opacity="0.6400000000000001" stroke="#e1dabe" stroke-width="5.5"/><path d="M100,100 Q117.93370550858873,110.926216487477 118.5,132.04293994002424 Q100.4955282911091,120.99415279816526 100,100" fill="#0047ab" fill-opacity="0.6400000000000001" stroke="#00298d" stroke-width="5.5"/><path d="M100,100 Q110.06793631068827,118.42923379969783 100,137 Q89.93206368931173,118.42923379969783 100,100" fill="#1e90ff" fill-opacity="0.6400000000000001" stroke="#0072e1" stroke-width="5.5"/><path d="M100,100 Q99.50447170889089,120.99415279816526 81.5,132.0429399400242 Q82.06629449141127,110.926216487477 100,100" fill="#ffd700" fill-opacity="0.6400000000000001" stroke="#e1b900" stroke-width="5.5"/><path d="M100,100 Q89.07378351252301,117.93370550858873 67.95706005997577,118.50000000000001 Q79.00584720183474,100.49552829110911 100,100" fill="#daa520" fill-opacity="0.6400000000000001" stroke="#bc8702" stroke-width="5.5"/><path d="M100,100 Q81.57076620030217,110.06793631068827 63,100 Q81.57076620030217,89.93206368931175 100,100" fill="#b8860b" fill-opacity="0.6400000000000001" stroke="#9a6800" stroke-width="5.5"/><path d="M100,100 Q79.00584720183474,99.5044717088909 67.95706005997577,81.5 Q89.073783512523,82.06629449141127 100,100" fill="#fff8dc" fill-opacity="0.6400000000000001" stroke="#e1dabe" stroke-width="5.5"/><path d="M100,100 Q82.06629449141127,89.07378351252301 81.49999999999999,67.95706005997579 Q99.50447170889089,79.00584720183474 100,100" fill="#0047ab" fill-opacity="0.6400000000000001" stroke="#00298d" stroke-width="5.5"/><path d="M100,100 Q91.37034030512434,84.2035138859733 100,85 Q108.62965969487566,84.2035138859733 100,100" fill="#0047ab" fill-opacity="0.6400000000000001" stroke="#00298d" stroke-width="5.5"/><path d="M100,100 Q100.42473853523637,82.00501188728691 107.5,87.00961894323342 Q115.37174757879033,90.63467158216257 100,100" fill="#1e90ff" fill-opacity="0.6400000000000001" stroke="#0072e1" stroke-width="5.5"/><path d="M100,100 Q109.36532841783743,84.62825242120967 112.99038105676658,92.5 Q117.99498811271309,99.57526146476363 100,100" fill="#ffd700" fill-opacity="0.6400000000000001" stroke="#e1b900" stroke-width="5.5"/><path d="M100,100 Q115.7964861140267,91.37034030512434 115,100 Q115.7964861140267,108.62965969487566 100,100" fill="#daa520" fill-opacity="0.6400000000000001" stroke="#bc8702" stroke-width="5.5"/><path d="M100,100 Q117.99498811271309,100.42473853523637 112.99038105676658,107.5 Q109.36532841783743,115.37174757879033 100,100" fill="#b8860b" fill-opacity="0.6400000000000001" stroke="#9a6800" stroke-width="5.5"/><path d="M100,100 Q115.37174757879033,109.36532841783743 107.5,112.99038105676658 Q100.42473853523637,117.99498811271309 100,100" fill="#fff8dc" fill-opacity="0.6400000000000001" stroke="#e1dabe" stroke-width="5.5"/><path d="M100,100 Q108.62965969487566,115.7964861140267 100,115 Q91.37034030512434,115.7964861140267 100,100" fill="#0047ab" fill-opacity="0.6400000000000001" stroke="#00298d" stroke-width="5.5"/><path d="M100,100 Q99.57526146476363,117.99498811271309 92.5,112.99038105676658 Q84.62825242120965,109.36532841783743 100,100" fill="#1e90ff" fill-opacity="0.6400000000000001" stroke="#0072e1" stroke-width="5.5"/><path d="M100,100 Q90.63467158216257,115.37174757879035 87.00961894323342,107.5 Q82.00501188728691,100.42473853523637 100,100" fill="#ffd700" fill-opacity="0.6400000000000001" stroke="#e1b900" stroke-width="5.5"/><path d="M100,100 Q84.2035138859733,108.62965969487566 85,100 Q84.2035138859733,91.37034030512434 100,100" fill="#daa520" fill-opacity="0.6400000000000001" stroke="#bc8702" stroke-width="5.5"/><path d="M100,100 Q82.00501188728691,99.57526146476363 87.00961894323342,92.5 Q90.63467158216257,84.62825242120967 100,100" fill="#b8860b" fill-opacity="0.6400000000000001" stroke="#9a6800" stroke-width="5.5"/><path d="M100,100 Q84.62825242120965,90.63467158216258 92.5,87.00961894323342 Q99.57526146476363,82.00501188728691 100,100" fill="#fff8dc" fill-opacity="0.6400000000000001" stroke="#e1dabe" stroke-width="5.5"/><g transform="translate(200, 0) scale(-1, 1)"><path d="M100,100 Q87.05551045768652,76.30527082895993 100,19 Q112.94448954231348,76.30527082895993 100,100" fill="#daa520" fill-opacity="0.6400000000000001" stroke="#bc8702" stroke-width="5.5"/><path d="M100,100 Q100.63710780285456,73.00751783093037 140.5,29.851942293460468 Q123.05762136818551,85.95200737324384 100,100" fill="#b8860b" fill-opacity="0.6400000000000001" stroke="#9a6800" stroke-width="5.5"/><path d="M100,100 Q114.04799262675614,76.94237863181449 170.14805770653953,59.5 Q126.99248216906963,99.36289219714544 100,100" fill="#fff8dc" fill-opacity="0.6400000000000001" stroke="#e1dabe" stroke-width="5.5"/><path d="M100,100 Q123.69472917104007,87.05551045768652 181,100 Q123.69472917104007,112.94448954231348 100,100" fill="#0047ab" fill-opacity="0.6400000000000001" stroke="#00298d" stroke-width="5.5"/><path d="M100,100 Q126.99248216906963,100.63710780285456 170.14805770653953,140.5 Q114.04799262675616,123.05762136818551 100,100" fill="#1e90ff" fill-opacity="0.6400000000000001" stroke="#0072e1" stroke-width="5.5"/><path d="M100,100 Q123.05762136818551,114.04799262675616 140.5,170.14805770653953 Q100.63710780285456,126.99248216906963 100,100" fill="#ffd700" fill-opacity="0.6400000000000001" stroke="#e1b900" stroke-width="5.5"/><path d="M100,100 Q112.94448954231348,123.69472917104007 100,181 Q87.05551045768652,123.69472917104007 100,100" fill="#daa520" fill-opacity="0.6400000000000001" stroke="#bc8702" stroke-width="5.5"/><path d="M100,100 Q99.36289219714544,126.99248216906963 59.49999999999998,170.14805770653953 Q76.94237863181449,114.04799262675614 100,100" fill="#b8860b" fill-opacity="0.6400000000000001" stroke="#9a6800" stroke-width="5.5"/><path d="M100,100 Q85.95200737324386,123.05762136818551 29.851942293460482,140.50000000000003 Q73.00751783093037,100.63710780285457 100,100" fill="#fff8dc" fill-opacity="0.6400000000000001" stroke="#e1dabe" stroke-width="5.5"/><path d="M100,100 Q76.30527082895993,112.94448954231348 19,100.00000000000001 Q76.30527082895993,87.05551045768652 100,100" fill="#0047ab" fill-opacity="0.6400000000000001" stroke="#00298d" stroke-width="5.5"/><path d="M100,100 Q73.00751783093037,99.36289219714544 29.851942293460468,59.49999999999999 Q85.95200737324386,76.94237863181449 100,100" fill="#1e90ff" fill-opacity="0.6400000000000001" stroke="#0072e1" stroke-width="5.5"/><path d="M100,100 Q76.94237863181448,85.95200737324386 59.499999999999964,29.851942293460496 Q99.36289219714543,73.00751783093037 100,100" fill="#ffd700" fill-opacity="0.6400000000000001" stroke="#e1b900" stroke-width="5.5"/><path d="M100,100 Q88.49378707349913,78.93801851463105 100,41 Q111.50621292650088,78.93801851463105 100,100" fill="#ffd700" fill-opacity="0.6400000000000001" stroke="#e1b900" stroke-width="5.5"/><path d="M100,100 Q100.56631804698182,76.00668251638255 129.5,48.904501176718114 Q120.49566343838711,87.51289544288342 100,100" fill="#daa520" fill-opacity="0.6400000000000001" stroke="#bc8702" stroke-width="5.5"/><path d="M100,100 Q112.48710455711657,79.50433656161289 151.09549882328187,70.5 Q123.99331748361745,99.43368195301817 100,100" fill="#b8860b" fill-opacity="0.6400000000000001" stroke="#9a6800" stroke-width="5.5"/><path d="M100,100 Q121.06198148536895,88.49378707349913 159,100 Q121.06198148536895,111.50621292650087 100,100" fill="#fff8dc" fill-opacity="0.6400000000000001" stroke="#e1dabe" stroke-width="5.5"/><path d="M100,100 Q123.99331748361745,100.56631804698182 151.0954988232819,129.5 Q112.48710455711658,120.49566343838711 100,100" fill="#0047ab" fill-opacity="0.6400000000000001" stroke="#00298d" stroke-width="5.5"/><path d="M100,100 Q120.49566343838711,112.48710455711658 129.5,151.0954988232819 Q100.56631804698182,123.99331748361745 100,100" fill="#1e90ff" fill-opacity="0.6400000000000001" stroke="#0072e1" stroke-width="5.5"/><path d="M100,100 Q111.50621292650088,121.06198148536895 100,159 Q88.49378707349913,121.06198148536895 100,100" fill="#ffd700" fill-opacity="0.6400000000000001" stroke="#e1b900" stroke-width="5.5"/><path d="M100,100 Q99.43368195301817,123.99331748361745 70.49999999999999,151.09549882328187 Q79.50433656161287,112.48710455711657 100,100" fill="#daa520" fill-opacity="0.6400000000000001" stroke="#bc8702" stroke-width="5.5"/><path d="M100,100 Q87.51289544288343,120.49566343838713 48.90450117671813,129.50000000000003 Q76.00668251638255,100.56631804698183 100,100" fill="#b8860b" fill-opacity="0.6400000000000001" stroke="#9a6800" stroke-width="5.5"/><path d="M100,100 Q78.93801851463105,111.50621292650088 41,100.00000000000001 Q78.93801851463105,88.49378707349913 100,100" fill="#fff8dc" fill-opacity="0.6400000000000001" stroke="#e1dabe" stroke-width="5.5"/><path d="M100,100 Q76.00668251638255,99.43368195301817 48.90450117671812,70.5 Q87.51289544288343,79.50433656161289 100,100" fill="#0047ab" fill-opacity="0.6400000000000001" stroke="#00298d" stroke-width="5.5"/><path d="M100,100 Q79.50433656161287,87.51289544288343 70.49999999999997,48.904501176718135 Q99.43368195301817,76.00668251638255 100,100" fill="#1e90ff" fill-opacity="0.6400000000000001" stroke="#0072e1" stroke-width="5.5"/><path d="M100,100 Q89.93206368931173,81.57076620030217 100,63 Q110.06793631068827,81.57076620030217 100,100" fill="#1e90ff" fill-opacity="0.6400000000000001" stroke="#0072e1" stroke-width="5.5"/><path d="M100,100 Q100.4955282911091,79.00584720183474 118.5,67.95706005997576 Q117.93370550858873,89.073783512523 100,100" fill="#ffd700" fill-opacity="0.6400000000000001" stroke="#e1b900" stroke-width="5.5"/><path d="M100,100 Q110.926216487477,82.06629449141127 132.0429399400242,81.5 Q120.99415279816526,99.5044717088909 100,100" fill="#daa520" fill-opacity="0.6400000000000001" stroke="#bc8702" stroke-width="5.5"/><path d="M100,100 Q118.42923379969783,89.93206368931173 137,100 Q118.42923379969783,110.06793631068827 100,100" fill="#b8860b" fill-opacity="0.6400000000000001" stroke="#9a6800" stroke-width="5.5"/><path d="M100,100 Q120.99415279816526,100.4955282911091 132.04293994002424,118.5 Q110.926216487477,117.93370550858873 100,100" fill="#fff8dc" fill-opacity="0.6400000000000001" stroke="#e1dabe" stroke-width="5.5"/><path d="M100,100 Q117.93370550858873,110.926216487477 118.5,132.04293994002424 Q100.4955282911091,120.99415279816526 100,100" fill="#0047ab" fill-opacity="0.6400000000000001" stroke="#00298d" stroke-width="5.5"/><path d="M100,100 Q110.06793631068827,118.42923379969783 100,137 Q89.93206368931173,118.42923379969783 100,100" fill="#1e90ff" fill-opacity="0.6400000000000001" stroke="#0072e1" stroke-width="5.5"/><path d="M100,100 Q99.50447170889089,120.99415279816526 81.5,132.0429399400242 Q82.06629449141127,110.926216487477 100,100" fill="#ffd700" fill-opacity="0.6400000000000001" stroke="#e1b900" stroke-width="5.5"/><path d="M100,100 Q89.07378351252301,117.93370550858873 67.95706005997577,118.50000000000001 Q79.00584720183474,100.49552829110911 100,100" fill="#daa520" fill-opacity="0.6400000000000001" stroke="#bc8702" stroke-width="5.5"/><path d="M100,100 Q81.57076620030217,110.06793631068827 63,100 Q81.57076620030217,89.93206368931175 100,100" fill="#b8860b" fill-opacity="0.6400000000000001" stroke="#9a6800" stroke-width="5.5"/><path d="M100,100 Q79.00584720183474,99.5044717088909 67.95706005997577,81.5 Q89.073783512523,82.06629449141127 100,100" fill="#fff8dc" fill-opacity="0.6400000000000001" stroke="#e1dabe" stroke-width="5.5"/><path d="M100,100 Q82.06629449141127,89.07378351252301 81.49999999999999,67.95706005997579 Q99.50447170889089,79.00584720183474 100,100" fill="#0047ab" fill-opacity="0.6400000000000001" stroke="#00298d" stroke-width="5.5"/><path d="M100,100 Q91.37034030512434,84.2035138859733 100,85 Q108.62965969487566,84.2035138859733 100,100" fill="#0047ab" fill-opacity="0.6400000000000001" stroke="#00298d" stroke-width="5.5"/><path d="M100,100 Q100.42473853523637,82.00501188728691 107.5,87.00961894323342 Q115.37174757879033,90.63467158216257 100,100" fill="#1e90ff" fill-opacity="0.6400000000000001" stroke="#0072e1" stroke-width="5.5"/><path d="M100,100 Q109.36532841783743,84.62825242120967 112.99038105676658,92.5 Q117.99498811271309,99.57526146476363 100,100" fill="#ffd700" fill-opacity="0.6400000000000001" stroke="#e1b900" stroke-width="5.5"/><path d="M100,100 Q115.7964861140267,91.37034030512434 115,100 Q115.7964861140267,108.62965969487566 100,100" fill="#daa520" fill-opacity="0.6400000000000001" stroke="#bc8702" stroke-width="5.5"/><path d="M100,100 Q117.99498811271309,100.42473853523637 112.99038105676658,107.5 Q109.36532841783743,115.37174757879033 100,100" fill="#b8860b" fill-opacity="0.6400000000000001" stroke="#9a6800" stroke-width="5.5"/><path d="M100,100 Q115.37174757879033,109.36532841783743 107.5,112.99038105676658 Q100.42473853523637,117.99498811271309 100,100" fill="#fff8dc" fill-opacity="0.6400000000000001" stroke="#e1dabe" stroke-width="5.5"/><path d="M100,100 Q108.62965969487566,115.7964861140267 100,115 Q91.37034030512434,115.7964861140267 100,100" fill="#0047ab" fill-opacity="0.6400000000000001" stroke="#00298d" stroke-width="5.5"/><path d="M100,100 Q99.57526146476363,117.99498811271309 92.5,112.99038105676658 Q84.62825242120965,109.36532841783743 100,100" fill="#1e90ff" fill-opacity="0.6400000000000001" stroke="#0072e1" stroke-width="5.5"/><path d="M100,100 Q90.63467158216257,115.37174757879035 87.00961894323342,107.5 Q82.00501188728691,100.42473853523637 100,100" fill="#ffd700" fill-opacity="0.6400000000000001" stroke="#e1b900" stroke-width="5.5"/><path d="M100,100 Q84.2035138859733,108.62965969487566 85,100 Q84.2035138859733,91.37034030512434 100,100" fill="#daa520" fill-opacity="0.6400000000000001" stroke="#bc8702" stroke-width="5.5"/><path d="M100,100 Q82.00501188728691,99.57526146476363 87.00961894323342,92.5 Q90.63467158216257,84.62825242120967 100,100" fill="#b8860b" fill-opacity="0.6400000000000001" stroke="#9a6800" stroke-width="5.5"/><path d="M100,100 Q84.62825242120965,90.63467158216258 92.5,87.00961894323342 Q99.57526146476363,82.00501188728691 100,100" fill="#fff8dc" fill-opacity="0.6400000000000001" stroke="#e1dabe" stroke-width="5.5"/></g></g></g><ellipse cx="86" cy="91.6" rx="12.6" ry="9.799999999999999" fill="#0047ab" fill-opacity="0.8" stroke="#001f83" stroke-width="2"/><ellipse cx="87.4" cy="109.8" rx="9.799999999999999" ry="8.4" fill="#1e90ff" fill-opacity="0.8" stroke="#0068d7" stroke-width="2"/><ellipse cx="114" cy="91.6" rx="12.6" ry="9.799999999999999" fill="#0047ab" fill-opacity="0.8" stroke="#001f83" stroke-width="2"/><ellipse cx="112.6" cy="109.8" rx="9.799999999999999" ry="8.4" fill="#1e90ff" fill-opacity="0.8" stroke="#0068d7" stroke-width="2"/><ellipse cx="100" cy="100" rx="2.8000000000000003" ry="14" fill="#ffd700" stroke="#d7af00" stroke-width="2"/><path d="M98.6,86 Q94.4,77.6 91.6,80.4" fill="none" stroke="#ffd700" stroke-width="2" stroke-linecap="round"/><path d="M101.4,86 Q105.6,77.6 108.4,80.4" fill="none" stroke="#ffd700" stroke-width="2" stroke-linecap="round"/><circle cx="86" cy="91.6" r="4.2" fill="#ffd700" fill-opacity="1"/><circle cx="114" cy="91.6" r="4.2" fill="#ffd700" fill-opacity="1"/><path d="M15,33 Q15,15 33,15" fill="none" stroke="#0047ab" stroke-width="3" stroke-linecap="round" stroke-opacity="1"/><circle cx="21" cy="21" r="4" fill="#0047ab" fill-opacity="1"/><path d="M185,167 Q185,185 167,185" fill="none" stroke="#0047ab" stroke-width="3" stroke-linecap="round" stroke-opacity="1"/><circle cx="179" cy="179" r="4" fill="#0047ab" fill-opacity="1"/><path d="M167,15 Q185,15 185,33" fill="none" stroke="#1e90ff" stroke-width="3" stroke-linecap="round" stroke-opacity="1"/><circle cx="179" cy="21" r="4" fill="#1e90ff" fill-opacity="1"/><path d="M33,185 Q15,185 15,167" fill="none" stroke="#1e90ff" stroke-width="3" stroke-linecap="round" stroke-opacity="1"/><circle cx="21" cy="179" r="4" fill="#1e90ff" fill-opacity="1"/><rect x="5" y="5" width="190" height="190" fill="none" stroke="#002366" stroke-width="8" stroke-opacity="0.88"/></svg>