<svg xmlns="http://www.w3.org/2000/svg" width="200" height="200" viewBox="0 0 200 200"><defs></defs><rect width="200" height="200" fill="#ffffff"/><g class="pattern"><g class="symmetry-horizontal"><line x1="15" y1="15" x2="185" y2="185" stroke="#191970" stroke-width="5.5"/><line x1="15" y1="15" x2="185" y2="185" stroke="#191970" stroke-width="5.5"/><line x1="43.33333333333333" y1="15" x2="185" y2="156.66666666666669" stroke="#000080" stroke-width="5.5"/><line x1="15" y1="43.33333333333333" x2="156.66666666666669" y2="185" stroke="#000080" stroke-width="5.5"/><line x1="71.66666666666666" y1="15" x2="185" y2="128.33333333333334" stroke="#4169e1" stroke-width="5.5"/><line x1="15" y1="71.66666666666666" x2="128.33333333333334" y2="185" stroke="#4169e1" stroke-width="5.5"/><line x1="100" y1="15" x2="185" y2="100" stroke="#6495ed" stroke-width="5.5"/><line x1="15" y1="100" x2="100" y2="185" stroke="#6495ed" stroke-width="5.5"/><line x1="128.33333333333331" y1="15" x2="185" y2="71.66666666666669" stroke="#87ceeb" stroke-width="5.5"/><line x1="15" y1="128.33333333333331" x2="71.66666666666669" y2="185" stroke="#87ceeb" stroke-width="5.5"/><line x1="156.66666666666666" y1="15" x2="185" y2="43.33333333333334" stroke="#f0f8ff" stroke-width="5.5"/><line x1="15" y1="156.66666666666666" x2="43.33333333333334" y2="185" stroke="#f0f8ff" stroke-width="5.5"/><line x1="185" y1="15" x2="185" y2="15" stroke="#191970" stroke-width="5.5"/><line x1="15" y1="185" x2="15" y2="185" stroke="#191970" stroke-width="5.5"/><circle cx="43.33333333333333" cy="43.33333333333333" r="2" fill="#191970"/><circle cx="43.33333333333333" cy="71.66666666666666" r="2" fill="#191970"/><circle cx="43.33333333333333" cy="100" r="2" fill="#191970"/><circle cx="43.33333333333333" cy="128.33333333333331" r="2" fill="#191970"/><circle cx="43.33333333333333" cy="156.66666666666666" r="2" fill="#191970"/><circle cx="71.66666666666666" cy="43.33333333333333" r="2" fill="#191970"/><circle cx="71.66666666666666" cy="71.66666666666666" r="2" fill="#191970"/><circle cx="71.66666666666666" cy="100" r="2" fill="#191970"/><circle cx="71.66666666666666" cy="128.33333333333331" r="2" fill="#191970"/><circle cx="71.66666666666666" cy="156.66666666666666" r="2" fill="#191970"/><circle cx="100" cy="43.33333333333333" r="2" fill="#191970"/><circle cx="100" cy="71.66666666666666" r="2" fill="#191970"/><circle cx="100" cy="100" r="2" fill="#191970"/><circle cx="100" cy="128.33333333333331" r="2" fill="#191970"/><circle cx="100" cy="156.66666666666666" r="2" fill="#191970"/><circle cx="128.33333333333331" cy="43.33333333333333" r="2" fill="#191970"/><circle cx="128.33333333333331" cy="71.66666666666666" r="2" fill="#191970"/><circle cx="128.33333333333331" cy="100" r="2" fill="#191970"/><circle cx="128.33333333333331" cy="128.33333333333331" r="2" fill="#191970"/><circle cx="128.33333333333331" cy="156.66666666666666" r="2" fill="#191970"/><circle cx="156.66666666666666" cy="43.33333333333333" r="2" fill="#191970"/><circle cx="156.66666666666666" cy="71.66666666666666" r="2" fill="#191970"/><circle cx="156.66666666666666" cy="100" r="2" fill="#191970"/><circle cx="156.66666666666666" cy="128.33333333333331" r="2" fill="#191970"/><circle cx="156.66666666666666" cy="156.66666666666666" r="2" fill="#191970"/><g transform="translate(200, 0) scale(-1, 1)"><line x1="15" y1="15" x2="185" y2="185" stroke="#191970" stroke-width="5.5"/><line x1="15" y1="15" x2="185" y2="185" stroke="#191970" stroke-width="5.5"/><line x1="43.33333333333333" y1="15" x2="185" y2="156.66666666666669" stroke="#000080" stroke-width="5.5"/><line x1="15" y1="43.33333333333333" x2="156.66666666666669" y2="185" stroke="#000080" stroke-width="5.5"/><line x1="71.66666666666666" y1="15" x2="185" y2="128.33333333333334" stroke="#4169e1" stroke-width="5.5"/><line x1="15" y1="71.66666666666666" x2="128.33333333333334" y2="185" stroke="#4169e1" stroke-width="5.5"/><line x1="100" y1="15" x2="185" y2="100" stroke="#6495ed" stroke-width="5.5"/><line x1="15" y1="100" x2="100" y2="185" stroke="#6495ed" stroke-width="5.5"/><line x1="128.33333333333331" y1="15" x2="185" y2="71.66666666666669" stroke="#87ceeb" stroke-width="5.5"/><line x1="15" y1="128.33333333333331" x2="71.66666666666669" y2="185" stroke="#87ceeb" stroke-width="5.5"/><line x1="156.66666666666666" y1="15" x2="185" y2="43.33333333333334" stroke="#f0f8ff" stroke-width="5.5"/><line x1="15" y1="156.66666666666666" x2="43.33333333333334" y2="185" stroke="#f0f8ff" stroke-width="5.5"/><line x1="185" y1="15" x2="185" y2="15" stroke="#191970" stroke-width="5.5"/><line x1="15" y1="185" x2="15" y2="185" stroke="#191970" stroke-width="5.5"/><circle cx="43.33333333333333" cy="43.33333333333333" r="2" fill="#191970"/><circle cx="43.33333333333333" cy="71.66666666666666" r="2" fill="#191970"/><circle cx="43.33333333333333" cy="100" r="2" fill="#191970"/><circle cx="43.33333333333333" cy="128.33333333333331" r="2" fill="#191970"/><circle cx="43.33333333333333" cy="156.66666666666666" r="2" fill="#191970"/><circle cx="71.66666666666666" cy="43.33333333333333" r="2" fill="#191970"/><circle cx="71.66666666666666" cy="71.66666666666666" r="2" fill="#191970"/><circle cx="71.66666666666666" cy="100" r="2" fill="#191970"/><circle cx="71.66666666666666" cy="128.33333333333331" r="2" fill="#191970"/><circle cx="71.66666666666666" cy="156.66666666666666" r="2" fill="#191970"/><circle cx="100" cy="43.33333333333333" r="2" fill="#191970"/><circle cx="100" cy="71.66666666666666" r="2" fill="#191970"/><circle cx="100" cy="100" r="2" fill="#191970"/><circle cx="100" cy="128.33333333333331" r="2" fill="#191970"/><circle cx="100" cy="156.66666666666666" r="2" fill="#191970"/><circle cx="128.33333333333331" cy="43.33333333333333" r="2" fill="#191970"/><circle cx="128.33333333333331" cy="71.66666666666666" r="2" fill="#191970"/><circle cx="128.33333333333331" cy="100" r="2" fill="#191970"/><circle cx="128.33333333333331" cy="128.33333333333331" r="2" fill="#191970"/><circle cx="128.33333333333331" cy="156.66666666666666" r="2" fill="#191970"/><circle cx="156.66666666666666" cy="43.33333333333333" r="2" fill="#191970"/><circle cx="156.66666666666666" cy="71.66666666666666" r="2" fill="#191970"/><circle cx="156.66666666666666" cy="100" r="2" fill="#191970"/><circle cx="156.66666666666666" cy="128.33333333333331" r="2" fill="#191970"/><circle cx="156.66666666666666" cy="156.66666666666666" r="2" fill="#191970"/></g></g></g><polygon points="100,70 130,100 110.60660171779821,89.39339828220179" fill="#191970" fill-opacity="0.8" stroke="#000052" stroke-width="2"/><polygon points="130,100 100,130 110.60660171779821,110.60660171779821" fill="#000080" fill-opacity="0.8" stroke="#000062" stroke-width="2"/><polygon points="100,130 70,100 89.39339828220179,110.60660171779821" fill="#4169e1" fill-opacity="0.8" stroke="#234bc3" stroke-width="2"/><polygon points="70,100 100,70 89.39339828220179,89.39339828220179" fill="#6495ed" fill-opacity="0.8" stroke="#4677cf" stroke-width="2"/><circle cx="100" cy="100" r="8" fill="#191970" stroke="#000048" stroke-width="4"/><line x1="100" y1="92" x2="100" y2="80" stroke="#000034" stroke-width="2"/><line x1="100" y1="108" x2="100" y2="120" stroke="#000034" stroke-width="2"/><line x1="92" y1="100" x2="80" y2="100" stroke="#000034" stroke-width="2"/><line x1="108" y1="100" x2="120" y2="100" stroke="#000034" stroke-width="2"/><path d="M15,29 Q22,19.2 29,15" fill="none" stroke="#191970" stroke-width="2.6" stroke-linecap="round" stroke-opacity="1"/><path d="M185,171 Q178,180.8 171,185" fill="none" stroke="#191970" stroke-width="2.6" stroke-linecap="round" stroke-opacity="1"/><path d="M171,15 Q180.8,22 185,29" fill="none" stroke="#000080" stroke-width="2.6" stroke-linecap="round" stroke-opacity="1"/><path d="M29,185 Q19.2,178 15,171" fill="none" stroke="#000080" stroke-width="2.6" stroke-linecap="round" stroke-opacity="1"/><rect x="5" y="5" width="190" height="190" fill="none" stroke="#002366" stroke-width="8" stroke-opacity="0.88"/></svg>