<svg xmlns="http://www.w3.org/2000/svg" width="200" height="200" viewBox="0 0 200 200"><defs></defs><rect width="200" height="200" fill="#ffffff"/><g class="pattern"><g class="symmetry-horizontal"><path d="M36.25,23.5 L39.856244584051396,32.643755415948604 L49,36.25 L39.856244584051396,39.856244584051396 L36.25,49 L32.643755415948604,39.856244584051396 L23.5,36.25 L32.643755415948604,32.643755415948604 Z" fill="#002366" fill-opacity="0.8" stroke="#000548" stroke-width="5.5"/><path d="M78.75,23.5 L82.3562445840514,32.643755415948604 L91.5,36.25 L82.3562445840514,39.856244584051396 L78.75,49 L75.1437554159486,39.856244584051396 L66,36.25 L75.1437554159486,32.643755415948604 Z" fill="#1c3a6e" fill-opacity="0.8" stroke="#001c50" stroke-width="5.5"/><path d="M36.25,66 L39.856244584051396,75.1437554159486 L49,78.75 L39.856244584051396,82.3562445840514 L36.25,91.5 L32.643755415948604,82.3562445840514 L23.5,78.75 L32.643755415948604,75.1437554159486 Z" fill="#1c3a6e" fill-opacity="0.8" stroke="#001c50" stroke-width="5.5"/><path d="M78.75,66 L82.3562445840514,75.1437554159486 L91.5,78.75 L82.3562445840514,82.3562445840514 L78.75,91.5 L75.1437554159486,82.3562445840514 L66,78.75 L75.1437554159486,75.1437554159486 Z" fill="#2e5a9c" fill-opacity="0.8" stroke="#103c7e" stroke-width="5.5"/><path d="M36.25,108.5 L39.856244584051396,117.6437554159486 L49,121.25 L39.856244584051396,124.8562445840514 L36.25,134 L32.643755415948604,124.8562445840514 L23.5,121.25 L32.643755415948604,117.6437554159486 Z" fill="#2e5a9c" fill-opacity="0.8" stroke="#103c7e" stroke-width="5.5"/><path d="M78.75,108.5 L82.3562445840514,117.6437554159486 L91.5,121.25 L82.3562445840514,124.8562445840514 L78.75,134 L75.1437554159486,124.8562445840514 L66,121.25 L75.1437554159486,117.6437554159486 Z" fill="#4a7ac9" fill-opacity="0.8" stroke="#2c5cab" stroke-width="5.5"/><path d="M36.25,151 L39.856244584051396,160.14375541594862 L49,163.75 L39.856244584051396,167.35624458405138 L36.25,176.5 L32.643755415948604,167.35624458405138 L23.5,163.75 L32.643755415948604,160.14375541594862 Z" fill="#4a7ac9" fill-opacity="0.8" stroke="#2c5cab" stroke-width="5.5"/><path d="M78.75,151 L82.3562445840514,160.14375541594862 L91.5,163.75 L82.3562445840514,167.35624458405138 L78.75,176.5 L75.1437554159486,167.35624458405138 L66,163.75 L75.1437554159486,160.14375541594862 Z" fill="#6b9ff5" fill-opacity="0.8" stroke="#4d81d7" stroke-width="5.5"/><line x1="15" y1="15" x2="15" y2="185" stroke="#002366" stroke-width="2.75"/><line x1="15" y1="15" x2="185" y2="15" stroke="#002366" stroke-width="2.75"/><line x1="57.5" y1="15" x2="57.5" y2="185" stroke="#002366" stroke-width="2.75"/><line x1="15" y1="57.5" x2="185" y2="57.5" stroke="#002366" stroke-width="2.75"/><line x1="100" y1="15" x2="100" y2="185" stroke="#002366" stroke-width="2.75"/><line x1="15" y1="100" x2="185" y2="100" stroke="#002366" stroke-width="2.75"/><line x1="142.5" y1="15" x2="142.5" y2="185" stroke="#002366" stroke-width="2.75"/><line x1="15" y1="142.5" x2="185" y2="142.5" stroke="#002366" stroke-width="2.75"/><line x1="185" y1="15" x2="185" y2="185" stroke="#002366" stroke-width="2.75"/><line x1="15" y1="185" x2="185" y2="185" stroke="#002366" stroke-width="2.75"/><g transform="translate(200, 0) scale(-1, 1)"><path d="M36.25,23.5 L39.856244584051396,32.643755415948604 L49,36.25 L39.856244584051396,39.856244584051396 L36.25,49 L32.643755415948604,39.856244584051396 L23.5,36.25 L32.643755415948604,32.643755415948604 Z" fill="#002366" fill-opacity="0.8" stroke="#000548" stroke-width="5.5"/><path d="M78.75,23.5 L82.3562445840514,32.643755415948604 L91.5,36.25 L82.3562445840514,39.856244584051396 L78.75,49 L75.1437554159486,39.856244584051396 L66,36.25 L75.1437554159486,32.643755415948604 Z" fill="#1c3a6e" fill-opacity="0.8" stroke="#001c50" stroke-width="5.5"/><path d="M36.25,66 L39.856244584051396,75.1437554159486 L49,78.75 L39.856244584051396,82.3562445840514 L36.25,91.5 L32.643755415948604,82.3562445840514 L23.5,78.75 L32.643755415948604,75.1437554159486 Z" fill="#1c3a6e" fill-opacity="0.8" stroke="#001c50" stroke-width="5.5"/><path d="M78.75,66 L82.3562445840514,75.1437554159486 L91.5,78.75 L82.3562445840514,82.3562445840514 L78.75,91.5 L75.1437554159486,82.3562445840514 L66,78.75 L75.1437554159486,75.1437554159486 Z" fill="#2e5a9c" fill-opacity="0.8" stroke="#103c7e" stroke-width="5.5"/><path d="M36.25,108.5 L39.856244584051396,117.6437554159486 L49,121.25 L39.856244584051396,124.8562445840514 L36.25,134 L32.643755415948604,124.8562445840514 L23.5,121.25 L32.643755415948604,117.6437554159486 Z" fill="#2e5a9c" fill-opacity="0.8" stroke="#103c7e" stroke-width="5.5"/><path d="M78.75,108.5 L82.3562445840514,117.6437554159486 L91.5,121.25 L82.3562445840514,124.8562445840514 L78.75,134 L75.1437554159486,124.8562445840514 L66,121.25 L75.1437554159486,117.6437554159486 Z" fill="#4a7ac9" fill-opacity="0.8" stroke="#2c5cab" stroke-width="5.5"/><path d="M36.25,151 L39.856244584051396,160.14375541594862 L49,163.75 L39.856244584051396,167.35624458405138 L36.25,176.5 L32.643755415948604,167.35624458405138 L23.5,163.75 L32.643755415948604,160.14375541594862 Z" fill="#4a7ac9" fill-opacity="0.8" stroke="#2c5cab" stroke-width="5.5"/><path d="M78.75,151 L82.3562445840514,160.14375541594862 L91.5,163.75 L82.3562445840514,167.35624458405138 L78.75,176.5 L75.1437554159486,167.35624458405138 L66,163.75 L75.1437554159486,160.14375541594862 Z" fill="#6b9ff5" fill-opacity="0.8" stroke="#4d81d7" stroke-width="5.5"/><line x1="15" y1="15" x2="15" y2="185" stroke="#002366" stroke-width="2.75"/><line x1="15" y1="15" x2="185" y2="15" stroke="#002366" stroke-width="2.75"/><line x1="57.5" y1="15" x2="57.5" y2="185" stroke="#002366" stroke-width="2.75"/><line x1="15" y1="57.5" x2="185" y2="57.5" stroke="#002366" stroke-width="2.75"/><line x1="100" y1="15" x2="100" y2="185" stroke="#002366" stroke-width="2.75"/><line x1="15" y1="100" x2="185" y2="100" stroke="#002366" stroke-width="2.75"/><line x1="142.5" y1="15" x2="142.5" y2="185" stroke="#002366" stroke-width="2.75"/><line x1="15" y1="142.5" x2="185" y2="142.5" stroke="#002366" stroke-width="2.75"/><line x1="185" y1="15" x2="185" y2="185" stroke="#002366" stroke-width="2.75"/><line x1="15" y1="185" x2="185" y2="185" stroke="#002366" stroke-width="2.75"/></g></g></g><circle cx="100" cy="100" r="15" fill="#002366" fill-opacity="0.8" stroke="#00003e" stroke-width="4"/><line x1="115" y1="100" x2="135" y2="100" stroke="#002366" stroke-width="4" stroke-linecap="round" stroke-opacity="1"/><line x1="112.99038105676658" y1="107.5" x2="130.31088913245534" y2="117.5" stroke="#1c3a6e" stroke-width="4" stroke-linecap="round" stroke-opacity="1"/><line x1="107.5" y1="112.99038105676658" x2="117.5" y2="130.31088913245534" stroke="#2e5a9c" stroke-width="4" stroke-linecap="round" stroke-opacity="1"/><line x1="100" y1="115" x2="100" y2="135" stroke="#4a7ac9" stroke-width="4" stroke-linecap="round" stroke-opacity="1"/><line x1="92.5" y1="112.99038105676658" x2="82.5" y2="130.31088913245534" stroke="#6b9ff5" stroke-width="4" stroke-linecap="round" stroke-opacity="1"/><line x1="87.00961894323342" y1="107.5" x2="69.68911086754464" y2="117.5" stroke="#ffffff" stroke-width="4" stroke-linecap="round" stroke-opacity="1"/><line x1="85" y1="100" x2="65" y2="100" stroke="#002366" stroke-width="4" stroke-linecap="round" stroke-opacity="1"/><line x1="87.00961894323342" y1="92.5" x2="69.68911086754466" y2="82.5" stroke="#1c3a6e" stroke-width="4" stroke-linecap="round" stroke-opacity="1"/><line x1="92.5" y1="87.00961894323342" x2="82.49999999999999" y2="69.68911086754466" stroke="#2e5a9c" stroke-width="4" stroke-linecap="round" stroke-opacity="1"/><line x1="100" y1="85" x2="100" y2="65" stroke="#4a7ac9" stroke-width="4" stroke-linecap="round" stroke-opacity="1"/><line x1="107.5" y1="87.00961894323342" x2="117.5" y2="69.68911086754466" stroke="#6b9ff5" stroke-width="4" stroke-linecap="round" stroke-opacity="1"/><line x1="112.99038105676658" y1="92.5" x2="130.31088913245534" y2="82.49999999999999" stroke="#ffffff" stroke-width="4" stroke-linecap="round" stroke-opacity="1"/><circle cx="100" cy="100" r="6" fill="#1c3a6e" stroke="#001246" stroke-width="2"/><path d="M15,5 L17.82842712474619,12.17157287525381 L25,15 L17.82842712474619,17.82842712474619 L15,25 L12.17157287525381,17.82842712474619 L5,15.000000000000002 L12.171572875253808,12.17157287525381 Z" fill="#002366" fill-opacity="0.6" stroke="#002366" stroke-width="2" stroke-opacity="1"/><path d="M185,175 L187.82842712474618,182.17157287525382 L195,185 L187.82842712474618,187.82842712474618 L185,195 L182.17157287525382,187.82842712474618 L175,185 L182.17157287525382,182.17157287525382 Z" fill="#002366" fill-opacity="0.6" stroke="#002366" stroke-width="2" stroke-opacity="1"/><path d="M185,7 L187.26274169979695,12.737258300203049 L193,15 L187.26274169979695,17.26274169979695 L185,23 L182.73725830020305,17.26274169979695 L177,15.000000000000002 L182.73725830020305,12.737258300203049 Z" fill="#1c3a6e" fill-opacity="0.6" stroke="#1c3a6e" stroke-width="1.6" stroke-opacity="1"/><path d="M15,177 L17.26274169979695,182.73725830020305 L23,185 L17.26274169979695,187.26274169979695 L15,193 L12.737258300203049,187.26274169979695 L7,185 L12.737258300203047,182.73725830020305 Z" fill="#1c3a6e" fill-opacity="0.6" stroke="#1c3a6e" stroke-width="1.6" stroke-opacity="1"/><rect x="5" y="5" width="190" height="190" fill="none" stroke="#002366" stroke-width="8" stroke-opacity="0.88"/></svg>