<svg xmlns="http://www.w3.org/2000/svg" width="200" height="200" viewBox="0 0 200 200"><defs></defs><rect width="200" height="200" fill="#ffffff"/><g class="pattern"><g class="symmetry-diagonal-falling"><path d="M150,100 L159.70807035168767,104.43529408029248 L163.499218124166,107.49423607398717 L159.09413907916488,108.99923848310976 L148.5263245931904,110.25729779210184 L136.80607966083863,113.1698729810778 L128.90953645434018,118.75612751022315 L126.97379257858756,126.1411705886568 L129.37413126879775,132.79903468856355 L132.11379709464376,136.0098036460613 L131.4951905283833,134.64101615137756 L126.30455922711677,130.07472321011747 L118.17538419876747,125.59276922739224 L110.06959419783956,124.50727396736606 L104.06122636449577,128.15361594904024 L100,135 L95.93877363550425,141.4629167267389 L89.93040580216045,143.96305808400035 L81.82461580123254,140.98118691326852 L73.69544077288326,133.87345882486463 L68.50480947161672,125.98076211353317 L67.88620290535624,120.62138596018502 L70.62586873120223,119.22110309485403 L73.02620742141245,120.69797185646328 L71.09046354565983,122.38884015024996 L63.19392033916135,121.83012701892218 L51.47367540680959,118.21426722320416 L40.905860920835146,112.63195112313657 L36.500781875834015,107.05958228325598 L40.29192964831231,102.88169834844328 L49.999999999999986,100 L60.25588081486033,97.11830165155673 L65.68445805078542,92.94041771674404 L63.98848744964951,87.36804887686343 L57.17177882893033,81.78573277679584 L50.20353928239476,78.16987298107782 L48.00783701684542,77.61115984975004 L52.659310030848125,79.30202814353673 L62.46107063291189,80.77889690514597 L73.33527186539642,79.37861403981498 L81.49519052838326,74.01923788646687 L85.63089491953673,66.12654117513537 L87.27368476127273,59.0188130867315 L89.27842511606363,56.03694191599966 L93.60838003773037,58.53708327326107 L99.99999999999999,65 L106.3916199622696,71.84638405095981 L110.72157488393637,75.49272603263394 L112.72631523872727,74.40723077260776 L114.36910508046326,69.92527678988257 L118.50480947161671,65.35898384862246 L126.66472813460351,63.990196353938714 L137.5389293670881,67.20096531143645 L147.34068996915178,73.85882941134312 L151.9921629831546,81.2438724897768 L149.7964607176052,86.83012701892218 L142.82822117106966,89.74270220789815 L136.01151255035046,91.00076151689024 L134.31554194921458,92.5057639260128 L139.7441191851396,95.56470591970749 L149.99999999999997,99.99999999999999 Z" fill="none" stroke="#0047ab" stroke-width="5.5" stroke-linecap="round"/><path d="M152.9800399619259,100 L161.71156487831368,104.28085416502651 L163.5130448527237,107.07911000861944 L157.1981882269659,108.53877135343966 L145.80662228670008,110.1685972855777 L134.70052106419803,113.75286055793468 L128.3945843334246,119.90292902929609 L128.07754304979233,127.30134812053286 L131.2771499339461,133.26421369353324 L133.7253807813005,135.3597584060297 L132.11072914406094,133.06468192054535 L125.93359402116882,128.33731013980218 L117.37606491230966,124.63554581868081 L109.45990130604328,124.90431214463109 L103.8760192109773,129.75457887783065 L100,136.9866933079506 L95.70711376260529,142.79857974448956 L89.30771670410884,143.97227590303882 L81.13391510672739,139.7172196784692 L73.56239001309704,132.0603239538711 L69.37929083690203,124.57705638243944 L69.60640518396562,120.27808454624132 L72.36613502901633,119.95693674232386 L73.72397592886696,121.96665096656217 L70.11539568561246,123.46322927468778 L60.8294189929131,122.24048609604063 L48.867555801336685,117.96695708590553 L39.47002580776798,112.09907159883136 L37.096339141731555,106.65312035539179 L42.69337404149795,102.7582269127643 L52.9800399619259,100 L62.25937534148634,96.96386173629077 L65.69828477934315,92.5252916513763 L62.09253659745056,86.90758174719333 L54.45207652244002,81.6970322702717 L48.097980685754166,78.75286055793468 L47.49288489592985,78.75796136882296 L53.76306050205288,80.46220567541278 L64.36408929806022,81.24407591011564 L74.94685555205314,78.7285687997834 L82.11072914406091,72.4429036556347 L85.25992971358878,64.3891281048201 L86.47436547481492,58.06158967802006 L88.66873222426734,56.43398009326469 L93.42317288421191,60.13804620205153 L99.99999999999999,66.98669330795065 L106.15996008937064,73.18204706871049 L110.09888578588475,75.50194385167242 L112.03561454422211,73.14326353780844 L114.23605432067704,68.112141918889 L119.37929083690204,63.9552781175287 L128.38493041321294,63.646894939994986 L139.2791956649022,67.9367989589063 L148.03845847660634,75.12750852144202 L151.0170951231072,82.31826161421463 L147.43195937135692,87.24048609604061 L140.2221015655967,89.49539207059951 L134.5756774372833,90.46788199258502 L134.91109921511213,92.09930199814862 L142.14556357832527,95.44123448402851 L152.98003996192594,99.99999999999999 Z" fill="none" stroke="#1e90ff" stroke-width="5.5" stroke-linecap="round"/><path d="M155.84127513462977,100 L163.23723653399605,104.10160280223185 L162.94458981590682,106.6718695719683 L154.91770721309342,108.16907398977656 L143.0817632276352,110.24204261911255 L132.93784719393878,114.48523475956439 L128.36027746767635,121.07642358538016 L129.5432724365464,128.3067714571421 L133.2670536175719,133.44019283703187 L135.16409712006396,134.4288845922939 L132.4427854279683,131.3785626613477 L125.33950358117185,126.74488404655465 L116.49999337145238,124.02322771266942 L108.88751115210106,125.67334202092152 L103.74464840159514,131.55701637782067 L100,138.8941834230865 L95.43823671841331,143.81569418161115 L88.69685604913214,143.59330587849422 L80.57936906123274,138.1968990025542 L73.67255801339931,130.24375124782782 L70.47785213934661,123.40194046893325 L71.36664701809174,120.25521330240915 L73.87427003393019,120.93408966682657 L73.98794464411489,123.29325342231269 L68.71908496500879,124.42237350053009 L58.300240104116604,122.46185695197885 L46.478916661465384,117.57089679257422 L38.55154864875092,111.51502390492652 L38.24988395616719,106.2715269194303 L45.39703029148292,102.6706463731762 L55.841275134629726,100 L63.78504699716872,96.78461037349612 L65.12982974252625,92.11805121472517 L59.812055583578065,86.53788438353024 L51.727217463375155,81.77047760380655 L46.33530681549491,79.4852347595644 L47.4585780301816,79.93145592490703 L55.22878988880695,81.46762901202203 L66.35399298168602,81.42005505361428 L76.3855718908166,77.79769498604763 L82.44278542796826,70.75678439643704 L84.66583927359183,62.79670201157258 L85.59829393395765,57.44927157200868 L88.09634207032512,57.2030099695551 L93.29180207482975,61.94048370204147 L99.99999999999999,68.8941834230865 L105.89108304517868,74.19916150583204 L109.48802513090807,75.12297382712782 L111.48106849872748,71.62294286189348 L114.34622232097931,66.29556921284579 L120.4778521393466,62.78016220402256 L130.145172247339,63.624023696162816 L140.78733066981604,68.913951883409 L148.3024271918543,76.45411097719253 L149.62078440250355,83.27740584005693 L144.90278048256047,87.46185695197883 L137.83346242572546,89.09933177726822 L133.65720027826626,89.88383429868017 L136.0646440295477,91.71770856218714 L144.8492198283102,95.35365394444041 L155.8412751346297,99.99999999999999 Z" fill="none" stroke="#ffd700" stroke-width="5.5" stroke-linecap="round"/><path d="M158.46963710092552,100 L164.22426160435805,103.90468617808277 L161.81651552216954,106.28875015512155 L152.3436116190965,107.90488505936223 L140.4603789478907,110.4747057590285 L131.58833029482906,115.33779813768842 L128.80798356357124,122.22982765370051 L131.31254673357645,129.11735754285075 L135.26451113931316,133.31995638594245 L136.3725890306396,133.2542932062654 L132.47812134393013,129.64987862779174 L124.54597241820778,125.3609299335215 L115.58209578392601,123.78022609996326 L108.37524312516899,126.78370480188374 L103.6723512759548,133.48907095380605 L100,140.64642473395034 L95.14286178218968,144.47371089518583 L88.12217692386201,142.84125634933605 L80.18308566561124,136.4808352732229 L74.02155272327323,128.49616172799816 L71.75669720653265,122.50226253619343 L73.09675312057226,120.55368403300574 L75.09014916249315,122.11360586484663 L73.80758996748074,124.62489177014022 L66.95719788596598,125.22803477424719 L55.70721405378264,122.48541422928675 L44.402985491915636,117.04187601726483 L38.18704622969165,110.90309217990892 L39.915428127610575,105.93001490147559 L48.29511215546104,102.62244828941596 L58.46963710092554,100 L64.77207206753073,96.58769374934703 L64.001755448789,91.73493179787842 L57.2379599895811,86.27369545311589 L49.1058331836306,82.0031407437225 L44.985789916385166,80.33779813768844 L47.9062841260765,81.0848599932274 L56.998064185837045,82.27821509773067 L68.35145050342732,81.29981860252485 L77.59406380139228,76.62310360001909 L82.47812134393011,69.02810036288106 L83.87230811062773,61.41274789853942 L84.68039634643125,57.20626995930251 L87.58407404339306,58.31337275051732 L93.2195049491894,63.87253827802688 L99.99999999999999,70.64642473395037 L105.59570810895504,74.8571782194067 L108.91334600563793,74.37092429796964 L111.08478510310597,69.90687913256215 L114.69521703085321,64.54797969301609 L121.75669720653265,61.88048427128272 L131.87527834981955,63.922494426759414 L142.00320979837898,70.09346808142905 L148.12207251522017,77.78574932502006 L147.85889732346075,84.08306711377405 L142.3097544322265,87.48541422928673 L135.7575312561757,88.57031100195881 L133.292697859207,89.27190257366257 L137.7301882009911,91.37619654423243 L147.74730169228832,95.30545586068017 L158.46963710092552,99.99999999999999 Z" fill="none" stroke="#daa520" stroke-width="5.5" stroke-linecap="round"/><path d="M160.76034136349284,100 L164.6332905145821,103.69795473697772 L160.17379473375897,105.94502552022563 L149.57852251327944,107.75673694115589 L138.0469757664435,110.85731116014807 L130.7057713469895,116.27656168084027 L129.71985399188424,123.31715865383022 L133.31483055792785,129.70079086837387 L137.18989017111983,132.90829778814185 L137.30267775416954,131.88281149986764 L132.21532816048602,127.94754699711747 L123.58463611561156,124.24062168386963 L114.65896582995185,123.91622868802496 L107.94351973492563,128.19113382739323 L103.66201009230876,135.47371768679307 L100,142.17356090899523 L94.83276462053212,144.7463968353352 L87.60658997151812,141.74610915706234 L79.96086348830173,134.63744253601152 L74.59546082495261,126.88722627370001 L73.16484252126043,121.9138899043004 L74.72774962076683,121.16159765188107 L75.96529915077784,123.44846174774756 L73.19010207077983,125.90847779134465 L64.89997532636934,125.84809392326716 L53.15371660777122,122.31021877365734 L42.72252311743785,116.40098514886736 L38.391050111784196,110.28767221059283 L42.02657166587476,105.64219930798002 L51.27208225494157,102.61555416698526 L60.76034136349284,100 L65.18110097775477,96.38096230824198 L62.35903466037843,91.39120716298248 L54.472870883764045,86.12554733490956 L46.69243000218341,82.38574614484207 L44.10323096854564,81.27656168084029 L48.81815455438948,82.1721909933571 L59.000348010188425,82.8616484232538 L70.27682953523396,80.88816000472426 L78.52415252492221,75.25162189362135 L82.215328160486,67.32576873220678 L82.91097180803152,60.29243964888756 L83.75726639245711,57.34227254736421 L87.15235065314968,59.720801776026796 L93.20916376554337,65.85718501101388 L99.99999999999999,72.17356090899521 L105.28561094729747,75.12986415955605 L108.39775905329405,73.27577710569594 L110.86256292579645,68.06348639535082 L115.26912513253258,62.939044238717976 L123.1648425212604,61.2921116393897 L133.5062748500141,64.53040804563472 L142.87835978666368,71.42832396432995 L147.5045846185193,79.06933534622448 L145.80167476386418,84.703126262794 L139.75625698621513,87.31021877365734 L134.07706888169795,87.92942013356135 L133.49670174129955,88.6564826043465 L139.84133173925522,91.08838095073685 L150.72427179176879,95.29856173824948 L160.76034136349278,99.99999999999999 Z" fill="none" stroke="#b8860b" stroke-width="5.5" stroke-linecap="round"/><path d="M162.62206477211845,100 L164.44801657278288,103.48965020909479 L158.08191754460375,105.65439888378802 L146.73267527254788,107.730535833122 L135.93776845220378,111.37460555250983 L130.3253551905947,117.26409984899414 L131.059535356212,124.29506813006552 L135.47029917209565,130.0338117881532 L138.9664319268786,132.22162857286054 L137.91728358831134,130.36911612077392 L131.66488261256802,126.33943435942173 L122.4938201180956,123.42862245217555 L113.76740578768988,124.42581348284949 L107.60955243055803,129.83951934360198 L103.71403712101552,137.4318349744525 L100,143.41470984807896 L94.52030782870773,144.62288087413572 L87.17065001686171,140.3515243642922 L79.92156182625091,132.7402110421905 L75.37140241349525,125.48108806420686 L74.64614977349122,121.66027913337054 L76.1946138351198,122.05471856143292 L76.46483053044685,124.88544082385941 L72.16009824785789,127.0928389618505 L62.62943225772879,126.25783114602834 L50.74154765122762,121.94325507504533 L41.504524269896706,115.67377448385672 L39.15542730402099,109.69329884908484 L44.49914994018788,105.41955443840162 L54.20925818643069,102.65023885278977 L62.62206477211844,100 L64.99582703595553,96.17265778035905 L60.267157471223236,91.10058052654487 L51.62702364303251,86.09934622687568 L44.58322268794368,82.90304053720384 L43.722814812150844,82.26409984899415 L50.15783591871724,83.1501004695924 L61.155816624356206,83.19466934303313 L72.05337129099274,80.20149078944297 L79.13875835906401,73.73792651452763 L81.664882612568,65.71765609451106 L81.82015581051556,59.48044041719347 L82.86570635019513,57.85185734218875 L86.81838334878208,61.3691872922355 L93.26119079425013,67.81530229867332 L99.99999999999999,73.41470984807897 L104.97315415547307,75.00634819835656 L107.96181909863762,71.88119231292578 L110.82326126374564,66.16625490152977 L116.04506672107522,61.532906029224804 L124.64614977349123,61.03850086845983 L134.97313906436707,65.42352895518658 L143.3778911663327,72.86530304044183 L146.47458079559735,80.25369651673036 L143.53113169522356,85.11286348555521 L137.34408802967147,86.94325507504533 L132.8590700341568,87.2022094685507 L134.26107893353637,88.0621092428385 L142.31391001356837,90.86573608115845 L153.66144772325794,95.33324642405398 L162.62206477211845,99.99999999999999 Z" fill="none" stroke="#fff8dc" stroke-width="5.5" stroke-linecap="round"/><path d="M163.98058628950838,100 L163.6758260663542,103.28807703861771 L155.62428049693534,105.4284566126781 L143.91952484579951,107.82732629075552 L134.21684444480167,112.00596604110716 L130.46224781732752,118.26104261174265 L132.77361878816782,125.1245699175607 L137.69302084440753,130.10314380902543 L140.52331129298912,131.2873240748018 L138.1919041379586,128.7735533270067 L130.84872922714024,124.88965109087657 L121.31701181721192,122.95730408539511 L112.94295934254464,125.28866494675502 L107.38665543459655,131.66314542176005 L103.82635820862131,139.28535885972173 L100,144.32039085967227 L94.21794807299212,144.10808720318326 L86.83173661019684,138.71309966584658 L80.06674751270117,130.8647774243583 L76.31844314639122,124.33380539260546 L76.14156391761398,121.75154088452574 L77.43886651636258,123.19744084940348 L76.5688285617552,126.36725527206733 L70.75864150076978,128.1307585392575 L60.23608806707799,126.44091151245985 L48.5668727484099,121.39915281809348 L40.79754671972607,114.88923561660093 L40.449704499879275,109.14366788565468 L47.234589057425005,105.27095644109397 L56.98954401433454,102.7251195778603 L63.98058628950839,100 L64.22363652952689,95.97108460988198 L57.80952042355484,90.87463825543496 L48.81387321628418,86.19613668450918 L42.86229868054159,83.53440102580115 L43.859707438883646,83.26104261174265 L51.87191935067307,83.97960225708759 L63.37853829666809,83.26400136390536 L73.61025065710325,79.26718629138423 L79.41337890871128,72.14236372076043 L80.84872922714023,64.2678728259659 L80.64334750963187,59.00912205041304 L82.04125990504988,58.714708806094265 L86.5954863528206,63.19281337039361 L93.37351188185592,69.66882618394258 L99.99999999999999,74.32039085967227 L104.67079439975745,74.4915545274041 L107.62290569197275,70.24276761448014 L110.96844695019591,64.29082128369751 L116.99210745397122,60.38562335762339 L126.141563917614,61.129762619615036 L136.21739174560986,66.56625124315714 L143.481889197641,74.34711748864979 L145.07312404850924,81.29161609413738 L141.13778750457274,85.29594385198672 L135.16941312685373,86.39915281809347 L132.15209248398617,86.41767060129489 L135.55535612939468,87.51247827940833 L145.04934913080555,90.7171380838508 L156.44173355116186,95.40812714912451 L163.9805862895084,99.99999999999999 Z" fill="none" stroke="#0047ab" stroke-width="5.5" stroke-linecap="round"/><path d="M164.7817459498269,100 L162.34750379399935,103.1012713117525 L152.8988618243221,105.27620631224298 L141.25122266313934,108.04324958395054 L132.9528115537226,112.72622227563289 L131.11099175014974,119.2276450071698 L134.7937691904227,125.77259439769261 L139.8943826759923,129.90602288210823 L141.79846040214147,130.1426320659349 L138.11559114841216,127.15973317206397 L129.79940546415875,123.65599547534325 L120.10112684628338,122.84545655948077 L112.21849457259286,126.47038391476089 L107.28371494687804,133.58930984491622 L103.994495467813,140.96039519442797 L100,144.8544972998846 L93.93773948269428,143.2225390216134 L86.60336115954414,136.89615388410442 L80.39063245249369,129.0859093025848 L77.39882749817983,123.49111679855274 L77.59146751075471,122.18403683974056 L78.41090323656042,124.54420778424004 L76.27314717137939,127.83482982645717 L69.04160348746943,128.98085794535908 L57.81535783466388,126.39003618609556 L46.716389325109915,120.6996036427725 L40.62977543085455,114.07864563598191 L42.222282951888054,108.6606913723535 L50.123835692159204,105.20232944928163 L59.5020985163939,102.83721108398808 L64.7817459498269,100 L62.895314257172046,95.78427888301675 L55.08410175094159,90.72238795499983 L46.14557103362399,86.4120599777042 L41.59826578946251,84.25465726032688 L44.508451371705874,84.22764500716981 L53.892069752927924,84.62762673721949 L65.57990012825283,83.06688043698816 L74.8853997662556,78.12249428251734 L79.33706591916484,70.52854356581769 L79.79940546415874,63.034217210432566 L79.42746253870334,58.897274524498705 L81.3167951350981,59.89642777410015 L86.49254586510209,65.11897779354977 L93.54164914104759,71.34386251864879 L99.99999999999999,74.8544972998846 L104.39058580945962,73.60600634583422 L107.39453024132006,68.42582183273801 L111.29233188998842,62.51195316192408 L118.07249180575978,59.54293476357068 L127.59146751075471,61.56225857482985 L137.1894284658077,67.91301817799368 L143.1862078072652,75.81469204303959 L143.35608603520893,82.14171550023894 L138.71705727215868,85.24506852562244 L133.31892970355378,85.69960364277249 L131.98432119511466,85.60708062067589 L137.32793458140344,87.02950176610716 L147.9385957655397,90.64851109203846 L158.95428805322118,95.5202186552523 L164.7817459498269,99.99999999999999 Z" fill="none" stroke="#1e90ff" stroke-width="5.5" stroke-linecap="round"/><g transform="translate(0, 0)"><path d="M150,100 L159.70807035168767,104.43529408029248 L163.499218124166,107.49423607398717 L159.09413907916488,108.99923848310976 L148.5263245931904,110.25729779210184 L136.80607966083863,113.1698729810778 L128.90953645434018,118.75612751022315 L126.97379257858756,126.1411705886568 L129.37413126879775,132.79903468856355 L132.11379709464376,136.0098036460613 L131.4951905283833,134.64101615137756 L126.30455922711677,130.07472321011747 L118.17538419876747,125.59276922739224 L110.06959419783956,124.50727396736606 L104.06122636449577,128.15361594904024 L100,135 L95.93877363550425,141.4629167267389 L89.93040580216045,143.96305808400035 L81.82461580123254,140.98118691326852 L73.69544077288326,133.87345882486463 L68.50480947161672,125.98076211353317 L67.88620290535624,120.62138596018502 L70.62586873120223,119.22110309485403 L73.02620742141245,120.69797185646328 L71.09046354565983,122.38884015024996 L63.19392033916135,121.83012701892218 L51.47367540680959,118.21426722320416 L40.905860920835146,112.63195112313657 L36.500781875834015,107.05958228325598 L40.29192964831231,102.88169834844328 L49.999999999999986,100 L60.25588081486033,97.11830165155673 L65.68445805078542,92.94041771674404 L63.98848744964951,87.36804887686343 L57.17177882893033,81.78573277679584 L50.20353928239476,78.16987298107782 L48.00783701684542,77.61115984975004 L52.659310030848125,79.30202814353673 L62.46107063291189,80.77889690514597 L73.33527186539642,79.37861403981498 L81.49519052838326,74.01923788646687 L85.63089491953673,66.12654117513537 L87.27368476127273,59.0188130867315 L89.27842511606363,56.03694191599966 L93.60838003773037,58.53708327326107 L99.99999999999999,65 L106.3916199622696,71.84638405095981 L110.72157488393637,75.49272603263394 L112.72631523872727,74.40723077260776 L114.36910508046326,69.92527678988257 L118.50480947161671,65.35898384862246 L126.66472813460351,63.990196353938714 L137.5389293670881,67.20096531143645 L147.34068996915178,73.85882941134312 L151.9921629831546,81.2438724897768 L149.7964607176052,86.83012701892218 L142.82822117106966,89.74270220789815 L136.01151255035046,91.00076151689024 L134.31554194921458,92.5057639260128 L139.7441191851396,95.56470591970749 L149.99999999999997,99.99999999999999 Z" fill="none" stroke="#0047ab" stroke-width="5.5" stroke-linecap="round"/><path d="M152.9800399619259,100 L161.71156487831368,104.28085416502651 L163.5130448527237,107.07911000861944 L157.1981882269659,108.53877135343966 L145.80662228670008,110.1685972855777 L134.70052106419803,113.75286055793468 L128.3945843334246,119.90292902929609 L128.07754304979233,127.30134812053286 L131.2771499339461,133.26421369353324 L133.7253807813005,135.3597584060297 L132.11072914406094,133.06468192054535 L125.93359402116882,128.33731013980218 L117.37606491230966,124.63554581868081 L109.45990130604328,124.90431214463109 L103.8760192109773,129.75457887783065 L100,136.9866933079506 L95.70711376260529,142.79857974448956 L89.30771670410884,143.97227590303882 L81.13391510672739,139.7172196784692 L73.56239001309704,132.0603239538711 L69.37929083690203,124.57705638243944 L69.60640518396562,120.27808454624132 L72.36613502901633,119.95693674232386 L73.72397592886696,121.96665096656217 L70.11539568561246,123.46322927468778 L60.8294189929131,122.24048609604063 L48.867555801336685,117.96695708590553 L39.47002580776798,112.09907159883136 L37.096339141731555,106.65312035539179 L42.69337404149795,102.7582269127643 L52.9800399619259,100 L62.25937534148634,96.96386173629077 L65.69828477934315,92.5252916513763 L62.09253659745056,86.90758174719333 L54.45207652244002,81.6970322702717 L48.097980685754166,78.75286055793468 L47.49288489592985,78.75796136882296 L53.76306050205288,80.46220567541278 L64.36408929806022,81.24407591011564 L74.94685555205314,78.7285687997834 L82.11072914406091,72.4429036556347 L85.25992971358878,64.3891281048201 L86.47436547481492,58.06158967802006 L88.66873222426734,56.43398009326469 L93.42317288421191,60.13804620205153 L99.99999999999999,66.98669330795065 L106.15996008937064,73.18204706871049 L110.09888578588475,75.50194385167242 L112.03561454422211,73.14326353780844 L114.23605432067704,68.112141918889 L119.37929083690204,63.9552781175287 L128.38493041321294,63.646894939994986 L139.2791956649022,67.9367989589063 L148.03845847660634,75.12750852144202 L151.0170951231072,82.31826161421463 L147.43195937135692,87.24048609604061 L140.2221015655967,89.49539207059951 L134.5756774372833,90.46788199258502 L134.91109921511213,92.09930199814862 L142.14556357832527,95.44123448402851 L152.98003996192594,99.99999999999999 Z" fill="none" stroke="#1e90ff" stroke-width="5.5" stroke-linecap="round"/><path d="M155.84127513462977,100 L163.23723653399605,104.10160280223185 L162.94458981590682,106.6718695719683 L154.91770721309342,108.16907398977656 L143.0817632276352,110.24204261911255 L132.93784719393878,114.48523475956439 L128.36027746767635,121.07642358538016 L129.5432724365464,128.3067714571421 L133.2670536175719,133.44019283703187 L135.16409712006396,134.4288845922939 L132.4427854279683,131.3785626613477 L125.33950358117185,126.74488404655465 L116.49999337145238,124.02322771266942 L108.88751115210106,125.67334202092152 L103.74464840159514,131.55701637782067 L100,138.8941834230865 L95.43823671841331,143.81569418161115 L88.69685604913214,143.59330587849422 L80.57936906123274,138.1968990025542 L73.67255801339931,130.24375124782782 L70.47785213934661,123.40194046893325 L71.36664701809174,120.25521330240915 L73.87427003393019,120.93408966682657 L73.98794464411489,123.29325342231269 L68.71908496500879,124.42237350053009 L58.300240104116604,122.46185695197885 L46.478916661465384,117.57089679257422 L38.55154864875092,111.51502390492652 L38.24988395616719,106.2715269194303 L45.39703029148292,102.6706463731762 L55.841275134629726,100 L63.78504699716872,96.78461037349612 L65.12982974252625,92.11805121472517 L59.812055583578065,86.53788438353024 L51.727217463375155,81.77047760380655 L46.33530681549491,79.4852347595644 L47.4585780301816,79.93145592490703 L55.22878988880695,81.46762901202203 L66.35399298168602,81.42005505361428 L76.3855718908166,77.79769498604763 L82.44278542796826,70.75678439643704 L84.66583927359183,62.79670201157258 L85.59829393395765,57.44927157200868 L88.09634207032512,57.2030099695551 L93.29180207482975,61.94048370204147 L99.99999999999999,68.8941834230865 L105.89108304517868,74.19916150583204 L109.48802513090807,75.12297382712782 L111.48106849872748,71.62294286189348 L114.34622232097931,66.29556921284579 L120.4778521393466,62.78016220402256 L130.145172247339,63.624023696162816 L140.78733066981604,68.913951883409 L148.3024271918543,76.45411097719253 L149.62078440250355,83.27740584005693 L144.90278048256047,87.46185695197883 L137.83346242572546,89.09933177726822 L133.65720027826626,89.88383429868017 L136.0646440295477,91.71770856218714 L144.8492198283102,95.35365394444041 L155.8412751346297,99.99999999999999 Z" fill="none" stroke="#ffd700" stroke-width="5.5" stroke-linecap="round"/><path d="M158.46963710092552,100 L164.22426160435805,103.90468617808277 L161.81651552216954,106.28875015512155 L152.3436116190965,107.90488505936223 L140.4603789478907,110.4747057590285 L131.58833029482906,115.33779813768842 L128.80798356357124,122.22982765370051 L131.31254673357645,129.11735754285075 L135.26451113931316,133.31995638594245 L136.3725890306396,133.2542932062654 L132.47812134393013,129.64987862779174 L124.54597241820778,125.3609299335215 L115.58209578392601,123.78022609996326 L108.37524312516899,126.78370480188374 L103.6723512759548,133.48907095380605 L100,140.64642473395034 L95.14286178218968,144.47371089518583 L88.12217692386201,142.84125634933605 L80.18308566561124,136.4808352732229 L74.02155272327323,128.49616172799816 L71.75669720653265,122.50226253619343 L73.09675312057226,120.55368403300574 L75.09014916249315,122.11360586484663 L73.80758996748074,124.62489177014022 L66.95719788596598,125.22803477424719 L55.70721405378264,122.48541422928675 L44.402985491915636,117.04187601726483 L38.18704622969165,110.90309217990892 L39.915428127610575,105.93001490147559 L48.29511215546104,102.62244828941596 L58.46963710092554,100 L64.77207206753073,96.58769374934703 L64.001755448789,91.73493179787842 L57.2379599895811,86.27369545311589 L49.1058331836306,82.0031407437225 L44.985789916385166,80.33779813768844 L47.9062841260765,81.0848599932274 L56.998064185837045,82.27821509773067 L68.35145050342732,81.29981860252485 L77.59406380139228,76.62310360001909 L82.47812134393011,69.02810036288106 L83.87230811062773,61.41274789853942 L84.68039634643125,57.20626995930251 L87.58407404339306,58.31337275051732 L93.2195049491894,63.87253827802688 L99.99999999999999,70.64642473395037 L105.59570810895504,74.8571782194067 L108.91334600563793,74.37092429796964 L111.08478510310597,69.90687913256215 L114.69521703085321,64.54797969301609 L121.75669720653265,61.88048427128272 L131.87527834981955,63.922494426759414 L142.00320979837898,70.09346808142905 L148.12207251522017,77.78574932502006 L147.85889732346075,84.08306711377405 L142.3097544322265,87.48541422928673 L135.7575312561757,88.57031100195881 L133.292697859207,89.27190257366257 L137.7301882009911,91.37619654423243 L147.74730169228832,95.30545586068017 L158.46963710092552,99.99999999999999 Z" fill="none" stroke="#daa520" stroke-width="5.5" stroke-linecap="round"/><path d="M160.76034136349284,100 L164.6332905145821,103.69795473697772 L160.17379473375897,105.94502552022563 L149.57852251327944,107.75673694115589 L138.0469757664435,110.85731116014807 L130.7057713469895,116.27656168084027 L129.71985399188424,123.31715865383022 L133.31483055792785,129.70079086837387 L137.18989017111983,132.90829778814185 L137.30267775416954,131.88281149986764 L132.21532816048602,127.94754699711747 L123.58463611561156,124.24062168386963 L114.65896582995185,123.91622868802496 L107.94351973492563,128.19113382739323 L103.66201009230876,135.47371768679307 L100,142.17356090899523 L94.83276462053212,144.7463968353352 L87.60658997151812,141.74610915706234 L79.96086348830173,134.63744253601152 L74.59546082495261,126.88722627370001 L73.16484252126043,121.9138899043004 L74.72774962076683,121.16159765188107 L75.96529915077784,123.44846174774756 L73.19010207077983,125.90847779134465 L64.89997532636934,125.84809392326716 L53.15371660777122,122.31021877365734 L42.72252311743785,116.40098514886736 L38.391050111784196,110.28767221059283 L42.02657166587476,105.64219930798002 L51.27208225494157,102.61555416698526 L60.76034136349284,100 L65.18110097775477,96.38096230824198 L62.35903466037843,91.39120716298248 L54.472870883764045,86.12554733490956 L46.69243000218341,82.38574614484207 L44.10323096854564,81.27656168084029 L48.81815455438948,82.1721909933571 L59.000348010188425,82.8616484232538 L70.27682953523396,80.88816000472426 L78.52415252492221,75.25162189362135 L82.215328160486,67.32576873220678 L82.91097180803152,60.29243964888756 L83.75726639245711,57.34227254736421 L87.15235065314968,59.720801776026796 L93.20916376554337,65.85718501101388 L99.99999999999999,72.17356090899521 L105.28561094729747,75.12986415955605 L108.39775905329405,73.27577710569594 L110.86256292579645,68.06348639535082 L115.26912513253258,62.939044238717976 L123.1648425212604,61.2921116393897 L133.5062748500141,64.53040804563472 L142.87835978666368,71.42832396432995 L147.5045846185193,79.06933534622448 L145.80167476386418,84.703126262794 L139.75625698621513,87.31021877365734 L134.07706888169795,87.92942013356135 L133.49670174129955,88.6564826043465 L139.84133173925522,91.08838095073685 L150.72427179176879,95.29856173824948 L160.76034136349278,99.99999999999999 Z" fill="none" stroke="#b8860b" stroke-width="5.5" stroke-linecap="round"/><path d="M162.62206477211845,100 L164.44801657278288,103.48965020909479 L158.08191754460375,105.65439888378802 L146.73267527254788,107.730535833122 L135.93776845220378,111.37460555250983 L130.3253551905947,117.26409984899414 L131.059535356212,124.29506813006552 L135.47029917209565,130.0338117881532 L138.9664319268786,132.22162857286054 L137.91728358831134,130.36911612077392 L131.66488261256802,126.33943435942173 L122.4938201180956,123.42862245217555 L113.76740578768988,124.42581348284949 L107.60955243055803,129.83951934360198 L103.71403712101552,137.4318349744525 L100,143.41470984807896 L94.52030782870773,144.62288087413572 L87.17065001686171,140.3515243642922 L79.92156182625091,132.7402110421905 L75.37140241349525,125.48108806420686 L74.64614977349122,121.66027913337054 L76.1946138351198,122.05471856143292 L76.46483053044685,124.88544082385941 L72.16009824785789,127.0928389618505 L62.62943225772879,126.25783114602834 L50.74154765122762,121.94325507504533 L41.504524269896706,115.67377448385672 L39.15542730402099,109.69329884908484 L44.49914994018788,105.41955443840162 L54.20925818643069,102.65023885278977 L62.62206477211844,100 L64.99582703595553,96.17265778035905 L60.267157471223236,91.10058052654487 L51.62702364303251,86.09934622687568 L44.58322268794368,82.90304053720384 L43.722814812150844,82.26409984899415 L50.15783591871724,83.1501004695924 L61.155816624356206,83.19466934303313 L72.05337129099274,80.20149078944297 L79.13875835906401,73.73792651452763 L81.664882612568,65.71765609451106 L81.82015581051556,59.48044041719347 L82.86570635019513,57.85185734218875 L86.81838334878208,61.3691872922355 L93.26119079425013,67.81530229867332 L99.99999999999999,73.41470984807897 L104.97315415547307,75.00634819835656 L107.96181909863762,71.88119231292578 L110.82326126374564,66.16625490152977 L116.04506672107522,61.532906029224804 L124.64614977349123,61.03850086845983 L134.97313906436707,65.42352895518658 L143.3778911663327,72.86530304044183 L146.47458079559735,80.25369651673036 L143.53113169522356,85.11286348555521 L137.34408802967147,86.94325507504533 L132.8590700341568,87.2022094685507 L134.26107893353637,88.0621092428385 L142.31391001356837,90.86573608115845 L153.66144772325794,95.33324642405398 L162.62206477211845,99.99999999999999 Z" fill="none" stroke="#fff8dc" stroke-width="5.5" stroke-linecap="round"/><path d="M163.98058628950838,100 L163.6758260663542,103.28807703861771 L155.62428049693534,105.4284566126781 L143.91952484579951,107.82732629075552 L134.21684444480167,112.00596604110716 L130.46224781732752,118.26104261174265 L132.77361878816782,125.1245699175607 L137.69302084440753,130.10314380902543 L140.52331129298912,131.2873240748018 L138.1919041379586,128.7735533270067 L130.84872922714024,124.88965109087657 L121.31701181721192,122.95730408539511 L112.94295934254464,125.28866494675502 L107.38665543459655,131.66314542176005 L103.82635820862131,139.28535885972173 L100,144.32039085967227 L94.21794807299212,144.10808720318326 L86.83173661019684,138.71309966584658 L80.06674751270117,130.8647774243583 L76.31844314639122,124.33380539260546 L76.14156391761398,121.75154088452574 L77.43886651636258,123.19744084940348 L76.5688285617552,126.36725527206733 L70.75864150076978,128.1307585392575 L60.23608806707799,126.44091151245985 L48.5668727484099,121.39915281809348 L40.79754671972607,114.88923561660093 L40.449704499879275,109.14366788565468 L47.234589057425005,105.27095644109397 L56.98954401433454,102.7251195778603 L63.98058628950839,100 L64.22363652952689,95.97108460988198 L57.80952042355484,90.87463825543496 L48.81387321628418,86.19613668450918 L42.86229868054159,83.53440102580115 L43.859707438883646,83.26104261174265 L51.87191935067307,83.97960225708759 L63.37853829666809,83.26400136390536 L73.61025065710325,79.26718629138423 L79.41337890871128,72.14236372076043 L80.84872922714023,64.2678728259659 L80.64334750963187,59.00912205041304 L82.04125990504988,58.714708806094265 L86.5954863528206,63.19281337039361 L93.37351188185592,69.66882618394258 L99.99999999999999,74.32039085967227 L104.67079439975745,74.4915545274041 L107.62290569197275,70.24276761448014 L110.96844695019591,64.29082128369751 L116.99210745397122,60.38562335762339 L126.141563917614,61.129762619615036 L136.21739174560986,66.56625124315714 L143.481889197641,74.34711748864979 L145.07312404850924,81.29161609413738 L141.13778750457274,85.29594385198672 L135.16941312685373,86.39915281809347 L132.15209248398617,86.41767060129489 L135.55535612939468,87.51247827940833 L145.04934913080555,90.7171380838508 L156.44173355116186,95.40812714912451 L163.9805862895084,99.99999999999999 Z" fill="none" stroke="#0047ab" stroke-width="5.5" stroke-linecap="round"/><path d="M164.7817459498269,100 L162.34750379399935,103.1012713117525 L152.8988618243221,105.27620631224298 L141.25122266313934,108.04324958395054 L132.9528115537226,112.72622227563289 L131.11099175014974,119.2276450071698 L134.7937691904227,125.77259439769261 L139.8943826759923,129.90602288210823 L141.79846040214147,130.1426320659349 L138.11559114841216,127.15973317206397 L129.79940546415875,123.65599547534325 L120.10112684628338,122.84545655948077 L112.21849457259286,126.47038391476089 L107.28371494687804,133.58930984491622 L103.994495467813,140.96039519442797 L100,144.8544972998846 L93.93773948269428,143.2225390216134 L86.60336115954414,136.89615388410442 L80.39063245249369,129.0859093025848 L77.39882749817983,123.49111679855274 L77.59146751075471,122.18403683974056 L78.41090323656042,124.54420778424004 L76.27314717137939,127.83482982645717 L69.04160348746943,128.98085794535908 L57.81535783466388,126.39003618609556 L46.716389325109915,120.6996036427725 L40.62977543085455,114.07864563598191 L42.222282951888054,108.6606913723535 L50.123835692159204,105.20232944928163 L59.5020985163939,102.83721108398808 L64.7817459498269,100 L62.895314257172046,95.78427888301675 L55.08410175094159,90.72238795499983 L46.14557103362399,86.4120599777042 L41.59826578946251,84.25465726032688 L44.508451371705874,84.22764500716981 L53.892069752927924,84.62762673721949 L65.57990012825283,83.06688043698816 L74.8853997662556,78.12249428251734 L79.33706591916484,70.52854356581769 L79.79940546415874,63.034217210432566 L79.42746253870334,58.897274524498705 L81.3167951350981,59.89642777410015 L86.49254586510209,65.11897779354977 L93.54164914104759,71.34386251864879 L99.99999999999999,74.8544972998846 L104.39058580945962,73.60600634583422 L107.39453024132006,68.42582183273801 L111.29233188998842,62.51195316192408 L118.07249180575978,59.54293476357068 L127.59146751075471,61.56225857482985 L137.1894284658077,67.91301817799368 L143.1862078072652,75.81469204303959 L143.35608603520893,82.14171550023894 L138.71705727215868,85.24506852562244 L133.31892970355378,85.69960364277249 L131.98432119511466,85.60708062067589 L137.32793458140344,87.02950176610716 L147.9385957655397,90.64851109203846 L158.95428805322118,95.5202186552523 L164.7817459498269,99.99999999999999 Z" fill="none" stroke="#1e90ff" stroke-width="5.5" stroke-linecap="round"/></g><g transform="matrix(0, 1, 1, 0, 0, 0)"><path d="M150,100 L159.70807035168767,104.43529408029248 L163.499218124166,107.49423607398717 L159.09413907916488,108.99923848310976 L148.5263245931904,110.25729779210184 L136.80607966083863,113.1698729810778 L128.90953645434018,118.75612751022315 L126.97379257858756,126.1411705886568 L129.37413126879775,132.79903468856355 L132.11379709464376,136.0098036460613 L131.4951905283833,134.64101615137756 L126.30455922711677,130.07472321011747 L118.17538419876747,125.59276922739224 L110.06959419783956,124.50727396736606 L104.06122636449577,128.15361594904024 L100,135 L95.93877363550425,141.4629167267389 L89.93040580216045,143.96305808400035 L81.82461580123254,140.98118691326852 L73.69544077288326,133.87345882486463 L68.50480947161672,125.98076211353317 L67.88620290535624,120.62138596018502 L70.62586873120223,119.22110309485403 L73.02620742141245,120.69797185646328 L71.09046354565983,122.38884015024996 L63.19392033916135,121.83012701892218 L51.47367540680959,118.21426722320416 L40.905860920835146,112.63195112313657 L36.500781875834015,107.05958228325598 L40.29192964831231,102.88169834844328 L49.999999999999986,100 L60.25588081486033,97.11830165155673 L65.68445805078542,92.94041771674404 L63.98848744964951,87.36804887686343 L57.17177882893033,81.78573277679584 L50.20353928239476,78.16987298107782 L48.00783701684542,77.61115984975004 L52.659310030848125,79.30202814353673 L62.46107063291189,80.77889690514597 L73.33527186539642,79.37861403981498 L81.49519052838326,74.01923788646687 L85.63089491953673,66.12654117513537 L87.27368476127273,59.0188130867315 L89.27842511606363,56.03694191599966 L93.60838003773037,58.53708327326107 L99.99999999999999,65 L106.3916199622696,71.84638405095981 L110.72157488393637,75.49272603263394 L112.72631523872727,74.40723077260776 L114.36910508046326,69.92527678988257 L118.50480947161671,65.35898384862246 L126.66472813460351,63.990196353938714 L137.5389293670881,67.20096531143645 L147.34068996915178,73.85882941134312 L151.9921629831546,81.2438724897768 L149.7964607176052,86.83012701892218 L142.82822117106966,89.74270220789815 L136.01151255035046,91.00076151689024 L134.31554194921458,92.5057639260128 L139.7441191851396,95.56470591970749 L149.99999999999997,99.99999999999999 Z" fill="none" stroke="#0047ab" stroke-width="5.5" stroke-linecap="round"/><path d="M152.9800399619259,100 L161.71156487831368,104.28085416502651 L163.5130448527237,107.07911000861944 L157.1981882269659,108.53877135343966 L145.80662228670008,110.1685972855777 L134.70052106419803,113.75286055793468 L128.3945843334246,119.90292902929609 L128.07754304979233,127.30134812053286 L131.2771499339461,133.26421369353324 L133.7253807813005,135.3597584060297 L132.11072914406094,133.06468192054535 L125.93359402116882,128.33731013980218 L117.37606491230966,124.63554581868081 L109.45990130604328,124.90431214463109 L103.8760192109773,129.75457887783065 L100,136.9866933079506 L95.70711376260529,142.79857974448956 L89.30771670410884,143.97227590303882 L81.13391510672739,139.7172196784692 L73.56239001309704,132.0603239538711 L69.37929083690203,124.57705638243944 L69.60640518396562,120.27808454624132 L72.36613502901633,119.95693674232386 L73.72397592886696,121.96665096656217 L70.11539568561246,123.46322927468778 L60.8294189929131,122.24048609604063 L48.867555801336685,117.96695708590553 L39.47002580776798,112.09907159883136 L37.096339141731555,106.65312035539179 L42.69337404149795,102.7582269127643 L52.9800399619259,100 L62.25937534148634,96.96386173629077 L65.69828477934315,92.5252916513763 L62.09253659745056,86.90758174719333 L54.45207652244002,81.6970322702717 L48.097980685754166,78.75286055793468 L47.49288489592985,78.75796136882296 L53.76306050205288,80.46220567541278 L64.36408929806022,81.24407591011564 L74.94685555205314,78.7285687997834 L82.11072914406091,72.4429036556347 L85.25992971358878,64.3891281048201 L86.47436547481492,58.06158967802006 L88.66873222426734,56.43398009326469 L93.42317288421191,60.13804620205153 L99.99999999999999,66.98669330795065 L106.15996008937064,73.18204706871049 L110.09888578588475,75.50194385167242 L112.03561454422211,73.14326353780844 L114.23605432067704,68.112141918889 L119.37929083690204,63.9552781175287 L128.38493041321294,63.646894939994986 L139.2791956649022,67.9367989589063 L148.03845847660634,75.12750852144202 L151.0170951231072,82.31826161421463 L147.43195937135692,87.24048609604061 L140.2221015655967,89.49539207059951 L134.5756774372833,90.46788199258502 L134.91109921511213,92.09930199814862 L142.14556357832527,95.44123448402851 L152.98003996192594,99.99999999999999 Z" fill="none" stroke="#1e90ff" stroke-width="5.5" stroke-linecap="round"/><path d="M155.84127513462977,100 L163.23723653399605,104.10160280223185 L162.94458981590682,106.6718695719683 L154.91770721309342,108.16907398977656 L143.0817632276352,110.24204261911255 L132.93784719393878,114.48523475956439 L128.36027746767635,121.07642358538016 L129.5432724365464,128.3067714571421 L133.2670536175719,133.44019283703187 L135.16409712006396,134.4288845922939 L132.4427854279683,131.3785626613477 L125.33950358117185,126.74488404655465 L116.49999337145238,124.02322771266942 L108.88751115210106,125.67334202092152 L103.74464840159514,131.55701637782067 L100,138.8941834230865 L95.43823671841331,143.81569418161115 L88.69685604913214,143.59330587849422 L80.57936906123274,138.1968990025542 L73.67255801339931,130.24375124782782 L70.47785213934661,123.40194046893325 L71.36664701809174,120.25521330240915 L73.87427003393019,120.93408966682657 L73.98794464411489,123.29325342231269 L68.71908496500879,124.42237350053009 L58.300240104116604,122.46185695197885 L46.478916661465384,117.57089679257422 L38.55154864875092,111.51502390492652 L38.24988395616719,106.2715269194303 L45.39703029148292,102.6706463731762 L55.841275134629726,100 L63.78504699716872,96.78461037349612 L65.12982974252625,92.11805121472517 L59.812055583578065,86.53788438353024 L51.727217463375155,81.77047760380655 L46.33530681549491,79.4852347595644 L47.4585780301816,79.93145592490703 L55.22878988880695,81.46762901202203 L66.35399298168602,81.42005505361428 L76.3855718908166,77.79769498604763 L82.44278542796826,70.75678439643704 L84.66583927359183,62.79670201157258 L85.59829393395765,57.44927157200868 L88.09634207032512,57.2030099695551 L93.29180207482975,61.94048370204147 L99.99999999999999,68.8941834230865 L105.89108304517868,74.19916150583204 L109.48802513090807,75.12297382712782 L111.48106849872748,71.62294286189348 L114.34622232097931,66.29556921284579 L120.4778521393466,62.78016220402256 L130.145172247339,63.624023696162816 L140.78733066981604,68.913951883409 L148.3024271918543,76.45411097719253 L149.62078440250355,83.27740584005693 L144.90278048256047,87.46185695197883 L137.83346242572546,89.09933177726822 L133.65720027826626,89.88383429868017 L136.0646440295477,91.71770856218714 L144.8492198283102,95.35365394444041 L155.8412751346297,99.99999999999999 Z" fill="none" stroke="#ffd700" stroke-width="5.5" stroke-linecap="round"/><path d="M158.46963710092552,100 L164.22426160435805,103.90468617808277 L161.81651552216954,106.28875015512155 L152.3436116190965,107.90488505936223 L140.4603789478907,110.4747057590285 L131.58833029482906,115.33779813768842 L128.80798356357124,122.22982765370051 L131.31254673357645,129.11735754285075 L135.26451113931316,133.31995638594245 L136.3725890306396,133.2542932062654 L132.47812134393013,129.64987862779174 L124.54597241820778,125.3609299335215 L115.58209578392601,123.78022609996326 L108.37524312516899,126.78370480188374 L103.6723512759548,133.48907095380605 L100,140.64642473395034 L95.14286178218968,144.47371089518583 L88.12217692386201,142.84125634933605 L80.18308566561124,136.4808352732229 L74.02155272327323,128.49616172799816 L71.75669720653265,122.50226253619343 L73.09675312057226,120.55368403300574 L75.09014916249315,122.11360586484663 L73.80758996748074,124.62489177014022 L66.95719788596598,125.22803477424719 L55.70721405378264,122.48541422928675 L44.402985491915636,117.04187601726483 L38.18704622969165,110.90309217990892 L39.915428127610575,105.93001490147559 L48.29511215546104,102.62244828941596 L58.46963710092554,100 L64.77207206753073,96.58769374934703 L64.001755448789,91.73493179787842 L57.2379599895811,86.27369545311589 L49.1058331836306,82.0031407437225 L44.985789916385166,80.33779813768844 L47.9062841260765,81.0848599932274 L56.998064185837045,82.27821509773067 L68.35145050342732,81.29981860252485 L77.59406380139228,76.62310360001909 L82.47812134393011,69.02810036288106 L83.87230811062773,61.41274789853942 L84.68039634643125,57.20626995930251 L87.58407404339306,58.31337275051732 L93.2195049491894,63.87253827802688 L99.99999999999999,70.64642473395037 L105.59570810895504,74.8571782194067 L108.91334600563793,74.37092429796964 L111.08478510310597,69.90687913256215 L114.69521703085321,64.54797969301609 L121.75669720653265,61.88048427128272 L131.87527834981955,63.922494426759414 L142.00320979837898,70.09346808142905 L148.12207251522017,77.78574932502006 L147.85889732346075,84.08306711377405 L142.3097544322265,87.48541422928673 L135.7575312561757,88.57031100195881 L133.292697859207,89.27190257366257 L137.7301882009911,91.37619654423243 L147.74730169228832,95.30545586068017 L158.46963710092552,99.99999999999999 Z" fill="none" stroke="#daa520" stroke-width="5.5" stroke-linecap="round"/><path d="M160.76034136349284,100 L164.6332905145821,103.69795473697772 L160.17379473375897,105.94502552022563 L149.57852251327944,107.75673694115589 L138.0469757664435,110.85731116014807 L130.7057713469895,116.27656168084027 L129.71985399188424,123.31715865383022 L133.31483055792785,129.70079086837387 L137.18989017111983,132.90829778814185 L137.30267775416954,131.88281149986764 L132.21532816048602,127.94754699711747 L123.58463611561156,124.24062168386963 L114.65896582995185,123.91622868802496 L107.94351973492563,128.19113382739323 L103.66201009230876,135.47371768679307 L100,142.17356090899523 L94.83276462053212,144.7463968353352 L87.60658997151812,141.74610915706234 L79.96086348830173,134.63744253601152 L74.59546082495261,126.88722627370001 L73.16484252126043,121.9138899043004 L74.72774962076683,121.16159765188107 L75.96529915077784,123.44846174774756 L73.19010207077983,125.90847779134465 L64.89997532636934,125.84809392326716 L53.15371660777122,122.31021877365734 L42.72252311743785,116.40098514886736 L38.391050111784196,110.28767221059283 L42.02657166587476,105.64219930798002 L51.27208225494157,102.61555416698526 L60.76034136349284,100 L65.18110097775477,96.38096230824198 L62.35903466037843,91.39120716298248 L54.472870883764045,86.12554733490956 L46.69243000218341,82.38574614484207 L44.10323096854564,81.27656168084029 L48.81815455438948,82.1721909933571 L59.000348010188425,82.8616484232538 L70.27682953523396,80.88816000472426 L78.52415252492221,75.25162189362135 L82.215328160486,67.32576873220678 L82.91097180803152,60.29243964888756 L83.75726639245711,57.34227254736421 L87.15235065314968,59.720801776026796 L93.20916376554337,65.85718501101388 L99.99999999999999,72.17356090899521 L105.28561094729747,75.12986415955605 L108.39775905329405,73.27577710569594 L110.86256292579645,68.06348639535082 L115.26912513253258,62.939044238717976 L123.1648425212604,61.2921116393897 L133.5062748500141,64.53040804563472 L142.87835978666368,71.42832396432995 L147.5045846185193,79.06933534622448 L145.80167476386418,84.703126262794 L139.75625698621513,87.31021877365734 L134.07706888169795,87.92942013356135 L133.49670174129955,88.6564826043465 L139.84133173925522,91.08838095073685 L150.72427179176879,95.29856173824948 L160.76034136349278,99.99999999999999 Z" fill="none" stroke="#b8860b" stroke-width="5.5" stroke-linecap="round"/><path d="M162.62206477211845,100 L164.44801657278288,103.48965020909479 L158.08191754460375,105.65439888378802 L146.73267527254788,107.730535833122 L135.93776845220378,111.37460555250983 L130.3253551905947,117.26409984899414 L131.059535356212,124.29506813006552 L135.47029917209565,130.0338117881532 L138.9664319268786,132.22162857286054 L137.91728358831134,130.36911612077392 L131.66488261256802,126.33943435942173 L122.4938201180956,123.42862245217555 L113.76740578768988,124.42581348284949 L107.60955243055803,129.83951934360198 L103.71403712101552,137.4318349744525 L100,143.41470984807896 L94.52030782870773,144.62288087413572 L87.17065001686171,140.3515243642922 L79.92156182625091,132.7402110421905 L75.37140241349525,125.48108806420686 L74.64614977349122,121.66027913337054 L76.1946138351198,122.05471856143292 L76.46483053044685,124.88544082385941 L72.16009824785789,127.0928389618505 L62.62943225772879,126.25783114602834 L50.74154765122762,121.94325507504533 L41.504524269896706,115.67377448385672 L39.15542730402099,109.69329884908484 L44.49914994018788,105.41955443840162 L54.20925818643069,102.65023885278977 L62.62206477211844,100 L64.99582703595553,96.17265778035905 L60.267157471223236,91.10058052654487 L51.62702364303251,86.09934622687568 L44.58322268794368,82.90304053720384 L43.722814812150844,82.26409984899415 L50.15783591871724,83.1501004695924 L61.155816624356206,83.19466934303313 L72.05337129099274,80.20149078944297 L79.13875835906401,73.73792651452763 L81.664882612568,65.71765609451106 L81.82015581051556,59.48044041719347 L82.86570635019513,57.85185734218875 L86.81838334878208,61.3691872922355 L93.26119079425013,67.81530229867332 L99.99999999999999,73.41470984807897 L104.97315415547307,75.00634819835656 L107.96181909863762,71.88119231292578 L110.82326126374564,66.16625490152977 L116.04506672107522,61.532906029224804 L124.64614977349123,61.03850086845983 L134.97313906436707,65.42352895518658 L143.3778911663327,72.86530304044183 L146.47458079559735,80.25369651673036 L143.53113169522356,85.11286348555521 L137.34408802967147,86.94325507504533 L132.8590700341568,87.2022094685507 L134.26107893353637,88.0621092428385 L142.31391001356837,90.86573608115845 L153.66144772325794,95.33324642405398 L162.62206477211845,99.99999999999999 Z" fill="none" stroke="#fff8dc" stroke-width="5.5" stroke-linecap="round"/><path d="M163.98058628950838,100 L163.6758260663542,103.28807703861771 L155.62428049693534,105.4284566126781 L143.91952484579951,107.82732629075552 L134.21684444480167,112.00596604110716 L130.46224781732752,118.26104261174265 L132.77361878816782,125.1245699175607 L137.69302084440753,130.10314380902543 L140.52331129298912,131.2873240748018 L138.1919041379586,128.7735533270067 L130.84872922714024,124.88965109087657 L121.31701181721192,122.95730408539511 L112.94295934254464,125.28866494675502 L107.38665543459655,131.66314542176005 L103.82635820862131,139.28535885972173 L100,144.32039085967227 L94.21794807299212,144.10808720318326 L86.83173661019684,138.71309966584658 L80.06674751270117,130.8647774243583 L76.31844314639122,124.33380539260546 L76.14156391761398,121.75154088452574 L77.43886651636258,123.19744084940348 L76.5688285617552,126.36725527206733 L70.75864150076978,128.1307585392575 L60.23608806707799,126.44091151245985 L48.5668727484099,121.39915281809348 L40.79754671972607,114.88923561660093 L40.449704499879275,109.14366788565468 L47.234589057425005,105.27095644109397 L56.98954401433454,102.7251195778603 L63.98058628950839,100 L64.22363652952689,95.97108460988198 L57.80952042355484,90.87463825543496 L48.81387321628418,86.19613668450918 L42.86229868054159,83.53440102580115 L43.859707438883646,83.26104261174265 L51.87191935067307,83.97960225708759 L63.37853829666809,83.26400136390536 L73.61025065710325,79.26718629138423 L79.41337890871128,72.14236372076043 L80.84872922714023,64.2678728259659 L80.64334750963187,59.00912205041304 L82.04125990504988,58.714708806094265 L86.5954863528206,63.19281337039361 L93.37351188185592,69.66882618394258 L99.99999999999999,74.32039085967227 L104.67079439975745,74.4915545274041 L107.62290569197275,70.24276761448014 L110.96844695019591,64.29082128369751 L116.99210745397122,60.38562335762339 L126.141563917614,61.129762619615036 L136.21739174560986,66.56625124315714 L143.481889197641,74.34711748864979 L145.07312404850924,81.29161609413738 L141.13778750457274,85.29594385198672 L135.16941312685373,86.39915281809347 L132.15209248398617,86.41767060129489 L135.55535612939468,87.51247827940833 L145.04934913080555,90.7171380838508 L156.44173355116186,95.40812714912451 L163.9805862895084,99.99999999999999 Z" fill="none" stroke="#0047ab" stroke-width="5.5" stroke-linecap="round"/><path d="M164.7817459498269,100 L162.34750379399935,103.1012713117525 L152.8988618243221,105.27620631224298 L141.25122266313934,108.04324958395054 L132.9528115537226,112.72622227563289 L131.11099175014974,119.2276450071698 L134.7937691904227,125.77259439769261 L139.8943826759923,129.90602288210823 L141.79846040214147,130.1426320659349 L138.11559114841216,127.15973317206397 L129.79940546415875,123.65599547534325 L120.10112684628338,122.84545655948077 L112.21849457259286,126.47038391476089 L107.28371494687804,133.58930984491622 L103.994495467813,140.96039519442797 L100,144.8544972998846 L93.93773948269428,143.2225390216134 L86.60336115954414,136.89615388410442 L80.39063245249369,129.0859093025848 L77.39882749817983,123.49111679855274 L77.59146751075471,122.18403683974056 L78.41090323656042,124.54420778424004 L76.27314717137939,127.83482982645717 L69.04160348746943,128.98085794535908 L57.81535783466388,126.39003618609556 L46.716389325109915,120.6996036427725 L40.62977543085455,114.07864563598191 L42.222282951888054,108.6606913723535 L50.123835692159204,105.20232944928163 L59.5020985163939,102.83721108398808 L64.7817459498269,100 L62.895314257172046,95.78427888301675 L55.08410175094159,90.72238795499983 L46.14557103362399,86.4120599777042 L41.59826578946251,84.25465726032688 L44.508451371705874,84.22764500716981 L53.892069752927924,84.62762673721949 L65.57990012825283,83.06688043698816 L74.8853997662556,78.12249428251734 L79.33706591916484,70.52854356581769 L79.79940546415874,63.034217210432566 L79.42746253870334,58.897274524498705 L81.3167951350981,59.89642777410015 L86.49254586510209,65.11897779354977 L93.54164914104759,71.34386251864879 L99.99999999999999,74.8544972998846 L104.39058580945962,73.60600634583422 L107.39453024132006,68.42582183273801 L111.29233188998842,62.51195316192408 L118.07249180575978,59.54293476357068 L127.59146751075471,61.56225857482985 L137.1894284658077,67.91301817799368 L143.1862078072652,75.81469204303959 L143.35608603520893,82.14171550023894 L138.71705727215868,85.24506852562244 L133.31892970355378,85.69960364277249 L131.98432119511466,85.60708062067589 L137.32793458140344,87.02950176610716 L147.9385957655397,90.64851109203846 L158.95428805322118,95.5202186552523 L164.7817459498269,99.99999999999999 Z" fill="none" stroke="#1e90ff" stroke-width="5.5" stroke-linecap="round"/></g></g></g><circle cx="100" cy="100" r="15" fill="#0047ab" fill-opacity="0.8" stroke="#001f83" stroke-width="4"/><line x1="115" y1="100" x2="135" y2="100" stroke="#0047ab" stroke-width="4" stroke-linecap="round" stroke-opacity="1"/><line x1="112.99038105676658" y1="107.5" x2="130.31088913245534" y2="117.5" stroke="#1e90ff" stroke-width="4" stroke-linecap="round" stroke-opacity="1"/><line x1="107.5" y1="112.99038105676658" x2="117.5" y2="130.31088913245534" stroke="#ffd700" stroke-width="4" stroke-linecap="round" stroke-opacity="1"/><line x1="100" y1="115" x2="100" y2="135" stroke="#daa520" stroke-width="4" stroke-linecap="round" stroke-opacity="1"/><line x1="92.5" y1="112.99038105676658" x2="82.5" y2="130.31088913245534" stroke="#b8860b" stroke-width="4" stroke-linecap="round" stroke-opacity="1"/><line x1="87.00961894323342" y1="107.5" x2="69.68911086754464" y2="117.5" stroke="#fff8dc" stroke-width="4" stroke-linecap="round" stroke-opacity="1"/><line x1="85" y1="100" x2="65" y2="100" stroke="#0047ab" stroke-width="4" stroke-linecap="round" stroke-opacity="1"/><line x1="87.00961894323342" y1="92.5" x2="69.68911086754466" y2="82.5" stroke="#1e90ff" stroke-width="4" stroke-linecap="round" stroke-opacity="1"/><line x1="92.5" y1="87.00961894323342" x2="82.49999999999999" y2="69.68911086754466" stroke="#ffd700" stroke-width="4" stroke-linecap="round" stroke-opacity="1"/><line x1="100" y1="85" x2="100" y2="65" stroke="#daa520" stroke-width="4" stroke-linecap="round" stroke-opacity="1"/><line x1="107.5" y1="87.00961894323342" x2="117.5" y2="69.68911086754466" stroke="#b8860b" stroke-width="4" stroke-linecap="round" stroke-opacity="1"/><line x1="112.99038105676658" y1="92.5" x2="130.31088913245534" y2="82.49999999999999" stroke="#fff8dc" stroke-width="4" stroke-linecap="round" stroke-opacity="1"/><circle cx="100" cy="100" r="6" fill="#1e90ff" stroke="#0068d7" stroke-width="2"/><path d="M20,30 Q30,30 30,20" fill="none" stroke="#0047ab" stroke-width="2.4" stroke-linecap="round" stroke-opacity="1"/><ellipse cx="25" cy="25" rx="5" ry="3" transform="rotate(45, 25, 25)" fill="#0047ab" fill-opacity="0.5"/><path d="M180,170 Q170,170 170,180" fill="none" stroke="#0047ab" stroke-width="2.4" stroke-linecap="round" stroke-opacity="1"/><ellipse cx="175" cy="175" rx="5" ry="3" transform="rotate(45, 175, 175)" fill="#0047ab" fill-opacity="0.5"/><path d="M170,20 Q170,30 180,30" fill="none" stroke="#1e90ff" stroke-width="2.4" stroke-linecap="round" stroke-opacity="1"/><ellipse cx="175" cy="25" rx="5" ry="3" transform="rotate(-45, 175, 25)" fill="#1e90ff" fill-opacity="0.5"/><path d="M30,180 Q30,170 20,170" fill="none" stroke="#1e90ff" stroke-width="2.4" stroke-linecap="round" stroke-opacity="1"/><ellipse cx="25" cy="175" rx="5" ry="3" transform="rotate(-45, 25, 175)" fill="#1e90ff" fill-opacity="0.5"/><rect x="5" y="5" width="190" height="190" fill="none" stroke="#002366" stroke-width="8" stroke-opacity="0.88"/></svg>