<svg xmlns="http://www.w3.org/2000/svg" width="200" height="200" viewBox="0 0 200 200"><defs></defs><rect width="200" height="200" fill="#ffffff"/><g class="pattern"><g class="symmetry-both"><path d="M130,100 L139.58636102512347,106.26986363544921 L145.8222262073212,114.88854381999832 L147.00395040491716,123.94970895807924 L142.89499549462448,131.16503846544305 L134.74873734152916,134.74873734152916 L124.79298172255584,134.12461179749812 L115.37725327116117,130.17955881579434 L108.1099331462212,124.9598077317169 L103.31326155739374,120.91911017650936 L100,120 L96.37386951252579,122.89448685769965 L90.65399887627902,128.7640337968975 L81.89880373040155,135.52559796092456 L70.50473625910439,140.5967477524977 L58.18019484660537,141.81980515339464 L47.39680057287615,138.2184614929527 L40.52195825644571,130.3055759544329 L38.96086953195637,119.83281572999748 L42.63524884416406,109.08568400617338 L49.99999999999999,100 L58.59591709632216,93.44223750215029 L65.93347883852829,88.93111629250272 L70.3773893247175,84.90652598047824 L71.7014999896291,79.4399362637054 L71.10912703473988,71.1091270347399 L70.71673851164832,59.69504831500296 L72.70214629564376,46.42494554208778 L78.44430168622624,33.65838216738216 L87.98268398345111,24.125652798185882 L99.99999999999999,20 L112.33018494662933,22.150276116995585 L122.79176629127353,29.854156102201514 L130.0217967027935,41.07890639695755 L133.9855435066915,53.22291236000332 L135.96194077712556,64.03805922287441 L138.00670394287027,72.38651323619571 L142.09670201391964,78.55065898412457 L149.2834254221942,83.98684438250356 L159.18247303439028,90.62641713142611 L170,99.99999999999999 " fill="none" stroke="#0047ab" stroke-width="11" stroke-linecap="round"/><path d="M143.83516097304698,123.94725758227891 L139.12797254475618,130.1847291165247 L130.80291171690365,132.62775066235636 L121.17065053573236,130.97446112931263 L112.49456633056755,126.37035771527653 L106.16393238041911,121.00805883591728 L102.2347714166148,117.32011945375513 L99.50898908631302,117.06734041829883 L96.11448062139094,120.6665398051386 L90.35586637138996,127.01240675735056 L81.50124287600974,133.86174778240493 L70.19473629575162,138.63607771356806 L58.328385687767565,139.34096070684677 L48.414971559312654,135.25771135886237 L42.69619710509753,127.15117382914195 L42.32426932374622,116.92252038402907 L46.92957756459489,106.84754302318642 L54.74225078677723,98.69797822929839 L63.22600103691725,93.08611470777126 L69.98859877775753,89.28514714112335 L73.62855602181715,85.59321449394267 L74.20206284105036,80.09854090913328 L73.13859380793474,71.54725917699444 L72.64281578198045,59.974114270212425 L74.81473113778848,46.845330083435954 L80.82537457757604,34.64859213728616 L90.46183692285065,26.076500425323687 L102.21215995712625,23.106216184692585 L113.85267489114565,26.319539513404663 L123.307274265756,34.71828604655384 L129.44379673643002,46.10349159336765 L132.49706796836045,57.87458027725104 L133.95185133631085,67.94704329574239 L135.92702699029672,75.44433363912164 L140.2950946532655,80.9077397289131 L147.87472862207318,85.95317195833198 L158.00876594703317,92.51527494382137 L168.69510358072523,101.9762918385825 L177.2286263894291,114.5197661170582 L181.1182543274923,128.96133215678856 L178.93846344866188,143.12427912644702 " fill="none" stroke="#1e90ff" stroke-width="11" stroke-linecap="round"/><path d="M117.73401849122172,127.61909738740158 L109.85975833793098,122.45666180188269 L104.47768661935807,117.06280547604796 L101.38011615947815,113.81668252684193 L99.17805539001216,114.2734075325153 L95.9530120570325,118.56773375958872 L90.12243282893077,125.34016487250011 L81.17858489983072,132.21443895812246 L70.00914446673445,136.6471725801722 L58.66848516812794,136.83049815892733 L49.68016138634804,132.30999680883315 L45.132398113556484,124.09001391011665 L45.91005001124657,114.19449138339974 L51.35703572673421,104.8588321334034 L59.50132164025572,97.66785399256679 L67.76173644307431,92.97340937745237 L73.87332958965239,89.81585387336378 L76.68524589132808,86.37826144952776 L76.53372293023122,80.79596116280491 L75.05427467026772,72.0056836589998 L74.50983402177056,60.30141860276988 L76.89450992504993,47.374757210449744 L83.15603430772329,35.813884605049566 L92.83231414729721,28.242532921014416 L104.23721829483537,26.41895476714626 L115.11926942136914,30.632220008635883 L123.53523201182814,39.622110468755196 L128.5982031114195,51.05176398577353 L130.80823586785036,62.35403369912372 L131.83422465773538,71.63253373565027 L133.82725986713768,78.27976622201916 L138.52696236143652,83.08446100628899 L146.50395204200646,87.7962551880424 L156.83215035717282,94.32316918815718 L167.32269548866316,103.87682664848619 L175.23847547201663,116.39883504497493 L178.22574364638533,130.49230505254317 L175.11657511311296,143.88716013166737 L166.30459907816476,154.2615299391533 L153.55794611870337,160.10320671791487 L139.3461107259473,161.27793677971744 " fill="none" stroke="#ffd700" stroke-width="11" stroke-linecap="round"/><path d="M100.7391611486405,110.42322176561352 L98.99464160783369,111.62290019344715 L95.88000522384907,116.59388054201219 L89.95122251212427,123.73829774471677 L80.936056566142,130.57553672936243 L69.95814501737767,134.62790063320963 L59.21047053304167,134.2948737732842 L51.19654979484784,129.38941426885788 L47.8251076432386,121.13971809928638 L49.70257686383191,111.6641728932622 L55.89484547324989,103.12771016620891 L64.25285842229852,96.90794137582274 L72.18327536439992,93.09355277699233 L77.57672038507279,90.50788941052136 L79.54653963416627,87.24720305346406 L78.70313985860201,81.52365080603602 L76.86539221096034,72.48423270615265 L76.32398331627175,60.684099019113035 L78.94064828417604,48.02345973982573 L85.42758158959136,37.161845797999106 L95.08018501522426,30.62362283728916 L106.0610970004821,29.92794803492201 L116.12130261405751,35.06909976977619 L123.47625328911339,44.54188171847262 L127.49555804499208,55.901492898584394 L128.93664929951032,66.64602045442624 L129.6283848405171,75.08915323392202 L131.72263899201357,80.89664203824492 L136.79935815828034,85.08999209080478 L145.16912317725246,89.52510030682521 L155.64434413365535,96.05398999943861 L165.87340866826878,105.69792247399518 L173.11871822526354,118.15420668867895 L175.19090758021085,131.8294389728568 L171.19195706284842,144.38840941387096 L161.7921045215595,153.608489373087 L148.94192156322734,158.21038925438359 L135.1343666597811,158.34339868376082 L122.50073387775797,155.53401244550113 L112.08483225489306,152.1113607468116 L103.56864921534863,150.3230212297757 " fill="none" stroke="#daa520" stroke-width="11" stroke-linecap="round"/><path d="M89.84115241674026,122.19748693422046 L80.78002540760488,128.93763546562775 L70.05225536682791,132.57755893457738 L59.9636018912886,131.7420628091634 L52.9667170026733,126.51102277136826 L50.76690939007943,118.31787904361678 L53.68456586121594,109.34593061439233 L60.519471865716795,101.66055103438356 L68.9729045330787,96.4146746825879 L76.47216886710422,93.43464775396353 L81.08971034628583,91.34556308483656 L82.21322481477881,88.18627155813543 L80.71791363929876,82.27445464883657 L78.58106989583783,72.98421284500313 L78.09045217364172,61.13020715392836 L80.95089804845762,48.80159650662662 L87.63014260796379,38.69895476596639 L97.19114315333195,33.21785993694634 L107.6703912097117,33.62109731673077 L116.8516726886029,39.6097430166614 L123.13289934051166,49.453692788165924 L126.14806987441484,60.631409239480845 L126.90072691783075,70.73702787027608 L127.35336869691693,78.3134250772968 L129.62716727414576,83.30019815328097 L135.1176657944953,86.93396765572743 L143.86683396018054,91.14816919913945 L154.43643696745073,97.71040343211718 L164.33831455049508,107.43459175169778 L170.86598195461187,119.77488410067598 L172.019453028854,132.9602467395508 L167.1795062180347,144.61969272416732 L157.2823806712909,152.6582765691258 L144.43497221651057,156.04601844263803 L131.12191875038525,155.2134870325537 L119.30901196698906,151.89696544535715 L109.78393911348905,148.4860637560103 L101.98174769225076,147.1171580390492 L94.35465808453726,148.85430108777555 L85.13587790378595,153.26759959141546 L73.19527895485459,158.56938400724772 " fill="none" stroke="#b8860b" stroke-width="11" stroke-linecap="round"/><g transform="translate(200, 0) scale(-1, 1)"><path d="M130,100 L139.58636102512347,106.26986363544921 L145.8222262073212,114.88854381999832 L147.00395040491716,123.94970895807924 L142.89499549462448,131.16503846544305 L134.74873734152916,134.74873734152916 L124.79298172255584,134.12461179749812 L115.37725327116117,130.17955881579434 L108.1099331462212,124.9598077317169 L103.31326155739374,120.91911017650936 L100,120 L96.37386951252579,122.89448685769965 L90.65399887627902,128.7640337968975 L81.89880373040155,135.52559796092456 L70.50473625910439,140.5967477524977 L58.18019484660537,141.81980515339464 L47.39680057287615,138.2184614929527 L40.52195825644571,130.3055759544329 L38.96086953195637,119.83281572999748 L42.63524884416406,109.08568400617338 L49.99999999999999,100 L58.59591709632216,93.44223750215029 L65.93347883852829,88.93111629250272 L70.3773893247175,84.90652598047824 L71.7014999896291,79.4399362637054 L71.10912703473988,71.1091270347399 L70.71673851164832,59.69504831500296 L72.70214629564376,46.42494554208778 L78.44430168622624,33.65838216738216 L87.98268398345111,24.125652798185882 L99.99999999999999,20 L112.33018494662933,22.150276116995585 L122.79176629127353,29.854156102201514 L130.0217967027935,41.07890639695755 L133.9855435066915,53.22291236000332 L135.96194077712556,64.03805922287441 L138.00670394287027,72.38651323619571 L142.09670201391964,78.55065898412457 L149.2834254221942,83.98684438250356 L159.18247303439028,90.62641713142611 L170,99.99999999999999 " fill="none" stroke="#0047ab" stroke-width="11" stroke-linecap="round"/><path d="M143.83516097304698,123.94725758227891 L139.12797254475618,130.1847291165247 L130.80291171690365,132.62775066235636 L121.17065053573236,130.97446112931263 L112.49456633056755,126.37035771527653 L106.16393238041911,121.00805883591728 L102.2347714166148,117.32011945375513 L99.50898908631302,117.06734041829883 L96.11448062139094,120.6665398051386 L90.35586637138996,127.01240675735056 L81.50124287600974,133.86174778240493 L70.19473629575162,138.63607771356806 L58.328385687767565,139.34096070684677 L48.414971559312654,135.25771135886237 L42.69619710509753,127.15117382914195 L42.32426932374622,116.92252038402907 L46.92957756459489,106.84754302318642 L54.74225078677723,98.69797822929839 L63.22600103691725,93.08611470777126 L69.98859877775753,89.28514714112335 L73.62855602181715,85.59321449394267 L74.20206284105036,80.09854090913328 L73.13859380793474,71.54725917699444 L72.64281578198045,59.974114270212425 L74.81473113778848,46.845330083435954 L80.82537457757604,34.64859213728616 L90.46183692285065,26.076500425323687 L102.21215995712625,23.106216184692585 L113.85267489114565,26.319539513404663 L123.307274265756,34.71828604655384 L129.44379673643002,46.10349159336765 L132.49706796836045,57.87458027725104 L133.95185133631085,67.94704329574239 L135.92702699029672,75.44433363912164 L140.2950946532655,80.9077397289131 L147.87472862207318,85.95317195833198 L158.00876594703317,92.51527494382137 L168.69510358072523,101.9762918385825 L177.2286263894291,114.5197661170582 L181.1182543274923,128.96133215678856 L178.93846344866188,143.12427912644702 " fill="none" stroke="#1e90ff" stroke-width="11" stroke-linecap="round"/><path d="M117.73401849122172,127.61909738740158 L109.85975833793098,122.45666180188269 L104.47768661935807,117.06280547604796 L101.38011615947815,113.81668252684193 L99.17805539001216,114.2734075325153 L95.9530120570325,118.56773375958872 L90.12243282893077,125.34016487250011 L81.17858489983072,132.21443895812246 L70.00914446673445,136.6471725801722 L58.66848516812794,136.83049815892733 L49.68016138634804,132.30999680883315 L45.132398113556484,124.09001391011665 L45.91005001124657,114.19449138339974 L51.35703572673421,104.8588321334034 L59.50132164025572,97.66785399256679 L67.76173644307431,92.97340937745237 L73.87332958965239,89.81585387336378 L76.68524589132808,86.37826144952776 L76.53372293023122,80.79596116280491 L75.05427467026772,72.0056836589998 L74.50983402177056,60.30141860276988 L76.89450992504993,47.374757210449744 L83.15603430772329,35.813884605049566 L92.83231414729721,28.242532921014416 L104.23721829483537,26.41895476714626 L115.11926942136914,30.632220008635883 L123.53523201182814,39.622110468755196 L128.5982031114195,51.05176398577353 L130.80823586785036,62.35403369912372 L131.83422465773538,71.63253373565027 L133.82725986713768,78.27976622201916 L138.52696236143652,83.08446100628899 L146.50395204200646,87.7962551880424 L156.83215035717282,94.32316918815718 L167.32269548866316,103.87682664848619 L175.23847547201663,116.39883504497493 L178.22574364638533,130.49230505254317 L175.11657511311296,143.88716013166737 L166.30459907816476,154.2615299391533 L153.55794611870337,160.10320671791487 L139.3461107259473,161.27793677971744 " fill="none" stroke="#ffd700" stroke-width="11" stroke-linecap="round"/><path d="M100.7391611486405,110.42322176561352 L98.99464160783369,111.62290019344715 L95.88000522384907,116.59388054201219 L89.95122251212427,123.73829774471677 L80.936056566142,130.57553672936243 L69.95814501737767,134.62790063320963 L59.21047053304167,134.2948737732842 L51.19654979484784,129.38941426885788 L47.8251076432386,121.13971809928638 L49.70257686383191,111.6641728932622 L55.89484547324989,103.12771016620891 L64.25285842229852,96.90794137582274 L72.18327536439992,93.09355277699233 L77.57672038507279,90.50788941052136 L79.54653963416627,87.24720305346406 L78.70313985860201,81.52365080603602 L76.86539221096034,72.48423270615265 L76.32398331627175,60.684099019113035 L78.94064828417604,48.02345973982573 L85.42758158959136,37.161845797999106 L95.08018501522426,30.62362283728916 L106.0610970004821,29.92794803492201 L116.12130261405751,35.06909976977619 L123.47625328911339,44.54188171847262 L127.49555804499208,55.901492898584394 L128.93664929951032,66.64602045442624 L129.6283848405171,75.08915323392202 L131.72263899201357,80.89664203824492 L136.79935815828034,85.08999209080478 L145.16912317725246,89.52510030682521 L155.64434413365535,96.05398999943861 L165.87340866826878,105.69792247399518 L173.11871822526354,118.15420668867895 L175.19090758021085,131.8294389728568 L171.19195706284842,144.38840941387096 L161.7921045215595,153.608489373087 L148.94192156322734,158.21038925438359 L135.1343666597811,158.34339868376082 L122.50073387775797,155.53401244550113 L112.08483225489306,152.1113607468116 L103.56864921534863,150.3230212297757 " fill="none" stroke="#daa520" stroke-width="11" stroke-linecap="round"/><path d="M89.84115241674026,122.19748693422046 L80.78002540760488,128.93763546562775 L70.05225536682791,132.57755893457738 L59.9636018912886,131.7420628091634 L52.9667170026733,126.51102277136826 L50.76690939007943,118.31787904361678 L53.68456586121594,109.34593061439233 L60.519471865716795,101.66055103438356 L68.9729045330787,96.4146746825879 L76.47216886710422,93.43464775396353 L81.08971034628583,91.34556308483656 L82.21322481477881,88.18627155813543 L80.71791363929876,82.27445464883657 L78.58106989583783,72.98421284500313 L78.09045217364172,61.13020715392836 L80.95089804845762,48.80159650662662 L87.63014260796379,38.69895476596639 L97.19114315333195,33.21785993694634 L107.6703912097117,33.62109731673077 L116.8516726886029,39.6097430166614 L123.13289934051166,49.453692788165924 L126.14806987441484,60.631409239480845 L126.90072691783075,70.73702787027608 L127.35336869691693,78.3134250772968 L129.62716727414576,83.30019815328097 L135.1176657944953,86.93396765572743 L143.86683396018054,91.14816919913945 L154.43643696745073,97.71040343211718 L164.33831455049508,107.43459175169778 L170.86598195461187,119.77488410067598 L172.019453028854,132.9602467395508 L167.1795062180347,144.61969272416732 L157.2823806712909,152.6582765691258 L144.43497221651057,156.04601844263803 L131.12191875038525,155.2134870325537 L119.30901196698906,151.89696544535715 L109.78393911348905,148.4860637560103 L101.98174769225076,147.1171580390492 L94.35465808453726,148.85430108777555 L85.13587790378595,153.26759959141546 L73.19527895485459,158.56938400724772 " fill="none" stroke="#b8860b" stroke-width="11" stroke-linecap="round"/></g><g transform="translate(0, 200) scale(1, -1)"><path d="M130,100 L139.58636102512347,106.26986363544921 L145.8222262073212,114.88854381999832 L147.00395040491716,123.94970895807924 L142.89499549462448,131.16503846544305 L134.74873734152916,134.74873734152916 L124.79298172255584,134.12461179749812 L115.37725327116117,130.17955881579434 L108.1099331462212,124.9598077317169 L103.31326155739374,120.91911017650936 L100,120 L96.37386951252579,122.89448685769965 L90.65399887627902,128.7640337968975 L81.89880373040155,135.52559796092456 L70.50473625910439,140.5967477524977 L58.18019484660537,141.81980515339464 L47.39680057287615,138.2184614929527 L40.52195825644571,130.3055759544329 L38.96086953195637,119.83281572999748 L42.63524884416406,109.08568400617338 L49.99999999999999,100 L58.59591709632216,93.44223750215029 L65.93347883852829,88.93111629250272 L70.3773893247175,84.90652598047824 L71.7014999896291,79.4399362637054 L71.10912703473988,71.1091270347399 L70.71673851164832,59.69504831500296 L72.70214629564376,46.42494554208778 L78.44430168622624,33.65838216738216 L87.98268398345111,24.125652798185882 L99.99999999999999,20 L112.33018494662933,22.150276116995585 L122.79176629127353,29.854156102201514 L130.0217967027935,41.07890639695755 L133.9855435066915,53.22291236000332 L135.96194077712556,64.03805922287441 L138.00670394287027,72.38651323619571 L142.09670201391964,78.55065898412457 L149.2834254221942,83.98684438250356 L159.18247303439028,90.62641713142611 L170,99.99999999999999 " fill="none" stroke="#0047ab" stroke-width="11" stroke-linecap="round"/><path d="M143.83516097304698,123.94725758227891 L139.12797254475618,130.1847291165247 L130.80291171690365,132.62775066235636 L121.17065053573236,130.97446112931263 L112.49456633056755,126.37035771527653 L106.16393238041911,121.00805883591728 L102.2347714166148,117.32011945375513 L99.50898908631302,117.06734041829883 L96.11448062139094,120.6665398051386 L90.35586637138996,127.01240675735056 L81.50124287600974,133.86174778240493 L70.19473629575162,138.63607771356806 L58.328385687767565,139.34096070684677 L48.414971559312654,135.25771135886237 L42.69619710509753,127.15117382914195 L42.32426932374622,116.92252038402907 L46.92957756459489,106.84754302318642 L54.74225078677723,98.69797822929839 L63.22600103691725,93.08611470777126 L69.98859877775753,89.28514714112335 L73.62855602181715,85.59321449394267 L74.20206284105036,80.09854090913328 L73.13859380793474,71.54725917699444 L72.64281578198045,59.974114270212425 L74.81473113778848,46.845330083435954 L80.82537457757604,34.64859213728616 L90.46183692285065,26.076500425323687 L102.21215995712625,23.106216184692585 L113.85267489114565,26.319539513404663 L123.307274265756,34.71828604655384 L129.44379673643002,46.10349159336765 L132.49706796836045,57.87458027725104 L133.95185133631085,67.94704329574239 L135.92702699029672,75.44433363912164 L140.2950946532655,80.9077397289131 L147.87472862207318,85.95317195833198 L158.00876594703317,92.51527494382137 L168.69510358072523,101.9762918385825 L177.2286263894291,114.5197661170582 L181.1182543274923,128.96133215678856 L178.93846344866188,143.12427912644702 " fill="none" stroke="#1e90ff" stroke-width="11" stroke-linecap="round"/><path d="M117.73401849122172,127.61909738740158 L109.85975833793098,122.45666180188269 L104.47768661935807,117.06280547604796 L101.38011615947815,113.81668252684193 L99.17805539001216,114.2734075325153 L95.9530120570325,118.56773375958872 L90.12243282893077,125.34016487250011 L81.17858489983072,132.21443895812246 L70.00914446673445,136.6471725801722 L58.66848516812794,136.83049815892733 L49.68016138634804,132.30999680883315 L45.132398113556484,124.09001391011665 L45.91005001124657,114.19449138339974 L51.35703572673421,104.8588321334034 L59.50132164025572,97.66785399256679 L67.76173644307431,92.97340937745237 L73.87332958965239,89.81585387336378 L76.68524589132808,86.37826144952776 L76.53372293023122,80.79596116280491 L75.05427467026772,72.0056836589998 L74.50983402177056,60.30141860276988 L76.89450992504993,47.374757210449744 L83.15603430772329,35.813884605049566 L92.83231414729721,28.242532921014416 L104.23721829483537,26.41895476714626 L115.11926942136914,30.632220008635883 L123.53523201182814,39.622110468755196 L128.5982031114195,51.05176398577353 L130.80823586785036,62.35403369912372 L131.83422465773538,71.63253373565027 L133.82725986713768,78.27976622201916 L138.52696236143652,83.08446100628899 L146.50395204200646,87.7962551880424 L156.83215035717282,94.32316918815718 L167.32269548866316,103.87682664848619 L175.23847547201663,116.39883504497493 L178.22574364638533,130.49230505254317 L175.11657511311296,143.88716013166737 L166.30459907816476,154.2615299391533 L153.55794611870337,160.10320671791487 L139.3461107259473,161.27793677971744 " fill="none" stroke="#ffd700" stroke-width="11" stroke-linecap="round"/><path d="M100.7391611486405,110.42322176561352 L98.99464160783369,111.62290019344715 L95.88000522384907,116.59388054201219 L89.95122251212427,123.73829774471677 L80.936056566142,130.57553672936243 L69.95814501737767,134.62790063320963 L59.21047053304167,134.2948737732842 L51.19654979484784,129.38941426885788 L47.8251076432386,121.13971809928638 L49.70257686383191,111.6641728932622 L55.89484547324989,103.12771016620891 L64.25285842229852,96.90794137582274 L72.18327536439992,93.09355277699233 L77.57672038507279,90.50788941052136 L79.54653963416627,87.24720305346406 L78.70313985860201,81.52365080603602 L76.86539221096034,72.48423270615265 L76.32398331627175,60.684099019113035 L78.94064828417604,48.02345973982573 L85.42758158959136,37.161845797999106 L95.08018501522426,30.62362283728916 L106.0610970004821,29.92794803492201 L116.12130261405751,35.06909976977619 L123.47625328911339,44.54188171847262 L127.49555804499208,55.901492898584394 L128.93664929951032,66.64602045442624 L129.6283848405171,75.08915323392202 L131.72263899201357,80.89664203824492 L136.79935815828034,85.08999209080478 L145.16912317725246,89.52510030682521 L155.64434413365535,96.05398999943861 L165.87340866826878,105.69792247399518 L173.11871822526354,118.15420668867895 L175.19090758021085,131.8294389728568 L171.19195706284842,144.38840941387096 L161.7921045215595,153.608489373087 L148.94192156322734,158.21038925438359 L135.1343666597811,158.34339868376082 L122.50073387775797,155.53401244550113 L112.08483225489306,152.1113607468116 L103.56864921534863,150.3230212297757 " fill="none" stroke="#daa520" stroke-width="11" stroke-linecap="round"/><path d="M89.84115241674026,122.19748693422046 L80.78002540760488,128.93763546562775 L70.05225536682791,132.57755893457738 L59.9636018912886,131.7420628091634 L52.9667170026733,126.51102277136826 L50.76690939007943,118.31787904361678 L53.68456586121594,109.34593061439233 L60.519471865716795,101.66055103438356 L68.9729045330787,96.4146746825879 L76.47216886710422,93.43464775396353 L81.08971034628583,91.34556308483656 L82.21322481477881,88.18627155813543 L80.71791363929876,82.27445464883657 L78.58106989583783,72.98421284500313 L78.09045217364172,61.13020715392836 L80.95089804845762,48.80159650662662 L87.63014260796379,38.69895476596639 L97.19114315333195,33.21785993694634 L107.6703912097117,33.62109731673077 L116.8516726886029,39.6097430166614 L123.13289934051166,49.453692788165924 L126.14806987441484,60.631409239480845 L126.90072691783075,70.73702787027608 L127.35336869691693,78.3134250772968 L129.62716727414576,83.30019815328097 L135.1176657944953,86.93396765572743 L143.86683396018054,91.14816919913945 L154.43643696745073,97.71040343211718 L164.33831455049508,107.43459175169778 L170.86598195461187,119.77488410067598 L172.019453028854,132.9602467395508 L167.1795062180347,144.61969272416732 L157.2823806712909,152.6582765691258 L144.43497221651057,156.04601844263803 L131.12191875038525,155.2134870325537 L119.30901196698906,151.89696544535715 L109.78393911348905,148.4860637560103 L101.98174769225076,147.1171580390492 L94.35465808453726,148.85430108777555 L85.13587790378595,153.26759959141546 L73.19527895485459,158.56938400724772 " fill="none" stroke="#b8860b" stroke-width="11" stroke-linecap="round"/></g><g transform="translate(200, 200) scale(-1, -1)"><path d="M130,100 L139.58636102512347,106.26986363544921 L145.8222262073212,114.88854381999832 L147.00395040491716,123.94970895807924 L142.89499549462448,131.16503846544305 L134.74873734152916,134.74873734152916 L124.79298172255584,134.12461179749812 L115.37725327116117,130.17955881579434 L108.1099331462212,124.9598077317169 L103.31326155739374,120.91911017650936 L100,120 L96.37386951252579,122.89448685769965 L90.65399887627902,128.7640337968975 L81.89880373040155,135.52559796092456 L70.50473625910439,140.5967477524977 L58.18019484660537,141.81980515339464 L47.39680057287615,138.2184614929527 L40.52195825644571,130.3055759544329 L38.96086953195637,119.83281572999748 L42.63524884416406,109.08568400617338 L49.99999999999999,100 L58.59591709632216,93.44223750215029 L65.93347883852829,88.93111629250272 L70.3773893247175,84.90652598047824 L71.7014999896291,79.4399362637054 L71.10912703473988,71.1091270347399 L70.71673851164832,59.69504831500296 L72.70214629564376,46.42494554208778 L78.44430168622624,33.65838216738216 L87.98268398345111,24.125652798185882 L99.99999999999999,20 L112.33018494662933,22.150276116995585 L122.79176629127353,29.854156102201514 L130.0217967027935,41.07890639695755 L133.9855435066915,53.22291236000332 L135.96194077712556,64.03805922287441 L138.00670394287027,72.38651323619571 L142.09670201391964,78.55065898412457 L149.2834254221942,83.98684438250356 L159.18247303439028,90.62641713142611 L170,99.99999999999999 " fill="none" stroke="#0047ab" stroke-width="11" stroke-linecap="round"/><path d="M143.83516097304698,123.94725758227891 L139.12797254475618,130.1847291165247 L130.80291171690365,132.62775066235636 L121.17065053573236,130.97446112931263 L112.49456633056755,126.37035771527653 L106.16393238041911,121.00805883591728 L102.2347714166148,117.32011945375513 L99.50898908631302,117.06734041829883 L96.11448062139094,120.6665398051386 L90.35586637138996,127.01240675735056 L81.50124287600974,133.86174778240493 L70.19473629575162,138.63607771356806 L58.328385687767565,139.34096070684677 L48.414971559312654,135.25771135886237 L42.69619710509753,127.15117382914195 L42.32426932374622,116.92252038402907 L46.92957756459489,106.84754302318642 L54.74225078677723,98.69797822929839 L63.22600103691725,93.08611470777126 L69.98859877775753,89.28514714112335 L73.62855602181715,85.59321449394267 L74.20206284105036,80.09854090913328 L73.13859380793474,71.54725917699444 L72.64281578198045,59.974114270212425 L74.81473113778848,46.845330083435954 L80.82537457757604,34.64859213728616 L90.46183692285065,26.076500425323687 L102.21215995712625,23.106216184692585 L113.85267489114565,26.319539513404663 L123.307274265756,34.71828604655384 L129.44379673643002,46.10349159336765 L132.49706796836045,57.87458027725104 L133.95185133631085,67.94704329574239 L135.92702699029672,75.44433363912164 L140.2950946532655,80.9077397289131 L147.87472862207318,85.95317195833198 L158.00876594703317,92.51527494382137 L168.69510358072523,101.9762918385825 L177.2286263894291,114.5197661170582 L181.1182543274923,128.96133215678856 L178.93846344866188,143.12427912644702 " fill="none" stroke="#1e90ff" stroke-width="11" stroke-linecap="round"/><path d="M117.73401849122172,127.61909738740158 L109.85975833793098,122.45666180188269 L104.47768661935807,117.06280547604796 L101.38011615947815,113.81668252684193 L99.17805539001216,114.2734075325153 L95.9530120570325,118.56773375958872 L90.12243282893077,125.34016487250011 L81.17858489983072,132.21443895812246 L70.00914446673445,136.6471725801722 L58.66848516812794,136.83049815892733 L49.68016138634804,132.30999680883315 L45.132398113556484,124.09001391011665 L45.91005001124657,114.19449138339974 L51.35703572673421,104.8588321334034 L59.50132164025572,97.66785399256679 L67.76173644307431,92.97340937745237 L73.87332958965239,89.81585387336378 L76.68524589132808,86.37826144952776 L76.53372293023122,80.79596116280491 L75.05427467026772,72.0056836589998 L74.50983402177056,60.30141860276988 L76.89450992504993,47.374757210449744 L83.15603430772329,35.813884605049566 L92.83231414729721,28.242532921014416 L104.23721829483537,26.41895476714626 L115.11926942136914,30.632220008635883 L123.53523201182814,39.622110468755196 L128.5982031114195,51.05176398577353 L130.80823586785036,62.35403369912372 L131.83422465773538,71.63253373565027 L133.82725986713768,78.27976622201916 L138.52696236143652,83.08446100628899 L146.50395204200646,87.7962551880424 L156.83215035717282,94.32316918815718 L167.32269548866316,103.87682664848619 L175.23847547201663,116.39883504497493 L178.22574364638533,130.49230505254317 L175.11657511311296,143.88716013166737 L166.30459907816476,154.2615299391533 L153.55794611870337,160.10320671791487 L139.3461107259473,161.27793677971744 " fill="none" stroke="#ffd700" stroke-width="11" stroke-linecap="round"/><path d="M100.7391611486405,110.42322176561352 L98.99464160783369,111.62290019344715 L95.88000522384907,116.59388054201219 L89.95122251212427,123.73829774471677 L80.936056566142,130.57553672936243 L69.95814501737767,134.62790063320963 L59.21047053304167,134.2948737732842 L51.19654979484784,129.38941426885788 L47.8251076432386,121.13971809928638 L49.70257686383191,111.6641728932622 L55.89484547324989,103.12771016620891 L64.25285842229852,96.90794137582274 L72.18327536439992,93.09355277699233 L77.57672038507279,90.50788941052136 L79.54653963416627,87.24720305346406 L78.70313985860201,81.52365080603602 L76.86539221096034,72.48423270615265 L76.32398331627175,60.684099019113035 L78.94064828417604,48.02345973982573 L85.42758158959136,37.161845797999106 L95.08018501522426,30.62362283728916 L106.0610970004821,29.92794803492201 L116.12130261405751,35.06909976977619 L123.47625328911339,44.54188171847262 L127.49555804499208,55.901492898584394 L128.93664929951032,66.64602045442624 L129.6283848405171,75.08915323392202 L131.72263899201357,80.89664203824492 L136.79935815828034,85.08999209080478 L145.16912317725246,89.52510030682521 L155.64434413365535,96.05398999943861 L165.87340866826878,105.69792247399518 L173.11871822526354,118.15420668867895 L175.19090758021085,131.8294389728568 L171.19195706284842,144.38840941387096 L161.7921045215595,153.608489373087 L148.94192156322734,158.21038925438359 L135.1343666597811,158.34339868376082 L122.50073387775797,155.53401244550113 L112.08483225489306,152.1113607468116 L103.56864921534863,150.3230212297757 " fill="none" stroke="#daa520" stroke-width="11" stroke-linecap="round"/><path d="M89.84115241674026,122.19748693422046 L80.78002540760488,128.93763546562775 L70.05225536682791,132.57755893457738 L59.9636018912886,131.7420628091634 L52.9667170026733,126.51102277136826 L50.76690939007943,118.31787904361678 L53.68456586121594,109.34593061439233 L60.519471865716795,101.66055103438356 L68.9729045330787,96.4146746825879 L76.47216886710422,93.43464775396353 L81.08971034628583,91.34556308483656 L82.21322481477881,88.18627155813543 L80.71791363929876,82.27445464883657 L78.58106989583783,72.98421284500313 L78.09045217364172,61.13020715392836 L80.95089804845762,48.80159650662662 L87.63014260796379,38.69895476596639 L97.19114315333195,33.21785993694634 L107.6703912097117,33.62109731673077 L116.8516726886029,39.6097430166614 L123.13289934051166,49.453692788165924 L126.14806987441484,60.631409239480845 L126.90072691783075,70.73702787027608 L127.35336869691693,78.3134250772968 L129.62716727414576,83.30019815328097 L135.1176657944953,86.93396765572743 L143.86683396018054,91.14816919913945 L154.43643696745073,97.71040343211718 L164.33831455049508,107.43459175169778 L170.86598195461187,119.77488410067598 L172.019453028854,132.9602467395508 L167.1795062180347,144.61969272416732 L157.2823806712909,152.6582765691258 L144.43497221651057,156.04601844263803 L131.12191875038525,155.2134870325537 L119.30901196698906,151.89696544535715 L109.78393911348905,148.4860637560103 L101.98174769225076,147.1171580390492 L94.35465808453726,148.85430108777555 L85.13587790378595,153.26759959141546 L73.19527895485459,158.56938400724772 " fill="none" stroke="#b8860b" stroke-width="11" stroke-linecap="round"/></g></g></g><circle cx="100" cy="100" r="15" fill="#0047ab" fill-opacity="0.8" stroke="#001f83" stroke-width="4"/><line x1="115" y1="100" x2="135" y2="100" stroke="#0047ab" stroke-width="4" stroke-linecap="round" stroke-opacity="1"/><line x1="112.99038105676658" y1="107.5" x2="130.31088913245534" y2="117.5" stroke="#1e90ff" stroke-width="4" stroke-linecap="round" stroke-opacity="1"/><line x1="107.5" y1="112.99038105676658" x2="117.5" y2="130.31088913245534" stroke="#ffd700" stroke-width="4" stroke-linecap="round" stroke-opacity="1"/><line x1="100" y1="115" x2="100" y2="135" stroke="#daa520" stroke-width="4" stroke-linecap="round" stroke-opacity="1"/><line x1="92.5" y1="112.99038105676658" x2="82.5" y2="130.31088913245534" stroke="#b8860b" stroke-width="4" stroke-linecap="round" stroke-opacity="1"/><line x1="87.00961894323342" y1="107.5" x2="69.68911086754464" y2="117.5" stroke="#fff8dc" stroke-width="4" stroke-linecap="round" stroke-opacity="1"/><line x1="85" y1="100" x2="65" y2="100" stroke="#0047ab" stroke-width="4" stroke-linecap="round" stroke-opacity="1"/><line x1="87.00961894323342" y1="92.5" x2="69.68911086754466" y2="82.5" stroke="#1e90ff" stroke-width="4" stroke-linecap="round" stroke-opacity="1"/><line x1="92.5" y1="87.00961894323342" x2="82.49999999999999" y2="69.68911086754466" stroke="#ffd700" stroke-width="4" stroke-linecap="round" stroke-opacity="1"/><line x1="100" y1="85" x2="100" y2="65" stroke="#daa520" stroke-width="4" stroke-linecap="round" stroke-opacity="1"/><line x1="107.5" y1="87.00961894323342" x2="117.5" y2="69.68911086754466" stroke="#b8860b" stroke-width="4" stroke-linecap="round" stroke-opacity="1"/><line x1="112.99038105676658" y1="92.5" x2="130.31088913245534" y2="82.49999999999999" stroke="#fff8dc" stroke-width="4" stroke-linecap="round" stroke-opacity="1"/><circle cx="100" cy="100" r="6" fill="#1e90ff" stroke="#0068d7" stroke-width="2"/><path d="M15,35 Q20,25 30,25 Q35,25 35,15" fill="none" stroke="#0047ab" stroke-width="2.4" stroke-linecap="round" stroke-opacity="1"/><path d="M185,165 Q180,175 170,175 Q165,175 165,185" fill="none" stroke="#0047ab" stroke-width="2.4" stroke-linecap="round" stroke-opacity="1"/><path d="M165,15 Q170,25 180,25 Q185,25 185,35" fill="none" stroke="#1e90ff" stroke-width="2.4" stroke-linecap="round" stroke-opacity="1"/><path d="M35,185 Q30,175 20,175 Q15,175 15,165" fill="none" stroke="#1e90ff" stroke-width="2.4" stroke-linecap="round" stroke-opacity="1"/><rect x="5" y="5" width="190" height="190" fill="none" stroke="#002366" stroke-width="8" stroke-opacity="0.88"/></svg>