<svg xmlns="http://www.w3.org/2000/svg" width="200" height="200" viewBox="0 0 200 200"><defs></defs><rect width="200" height="200" fill="#ffffff"/><g class="pattern"><g class="symmetry-both"><circle cx="120" cy="100" r="5.5" fill="#1e3c72"/><line x1="120" y1="100" x2="122.87537728058518" y2="107.85312693973266" stroke="#1e3c72" stroke-width="5.5" stroke-linecap="round"/><line x1="122.87537728058518" y1="107.85312693973266" x2="119.39617933536888" y2="115.09665234966158" stroke="#1e3c72" stroke-width="5.5" stroke-linecap="round"/><line x1="119.39617933536888" y1="115.09665234966158" x2="111.38908670240336" y2="117.43229493268251" stroke="#1e3c72" stroke-width="5.5" stroke-linecap="round"/><line x1="111.38908670240336" y1="117.43229493268251" x2="104.00666202975235" y2="115.82195054546432" stroke="#1e3c72" stroke-width="5.5" stroke-linecap="round"/><line x1="104.00666202975235" y1="115.82195054546432" x2="98.74867528786322" y2="115.10124349737501" stroke="#1e3c72" stroke-width="5.5" stroke-linecap="round"/><line x1="98.74867528786322" y1="115.10124349737501" x2="92.61824296277446" y2="116.82871096771763" stroke="#1e3c72" stroke-width="5.5" stroke-linecap="round"/><line x1="92.61824296277446" y1="116.82871096771763" x2="84.37439381067034" y2="116.9739331082886" stroke="#1e3c72" stroke-width="5.5" stroke-linecap="round"/><line x1="84.37439381067034" y1="116.9739331082886" x2="78.02817546357625" y2="111.89055681767996" stroke="#1e3c72" stroke-width="5.5" stroke-linecap="round"/><line x1="78.02817546357625" y1="111.89055681767996" x2="77.92549347720967" y2="103.68358363637529" stroke="#1e3c72" stroke-width="5.5" stroke-linecap="round"/><line x1="77.92549347720967" y1="103.68358363637529" x2="82.62005438668143" y2="97.09980002514592" stroke="#1e3c72" stroke-width="5.5" stroke-linecap="round"/><line x1="82.62005438668143" y1="97.09980002514592" x2="86.79287448816419" y2="92.85266109619702" stroke="#1e3c72" stroke-width="5.5" stroke-linecap="round"/><line x1="86.79287448816419" y1="92.85266109619702" x2="88.53434332430001" y2="87.54497668136335" stroke="#1e3c72" stroke-width="5.5" stroke-linecap="round"/><line x1="88.53434332430001" y1="87.54497668136335" x2="91.31394005110675" y2="80.19777790151534" stroke="#1e3c72" stroke-width="5.5" stroke-linecap="round"/><line x1="91.31394005110675" y1="80.19777790151534" x2="97.94815089324347" y2="75.2378637771082" stroke="#1e3c72" stroke-width="5.5" stroke-linecap="round"/><line x1="97.94815089324347" y1="75.2378637771082" x2="105.81275745587962" y2="77.0459399078911" stroke="#1e3c72" stroke-width="5.5" stroke-linecap="round"/><line x1="105.81275745587962" y1="77.0459399078911" x2="110.48883962249373" y2="83.94563580218134" stroke="#1e3c72" stroke-width="5.5" stroke-linecap="round"/><line x1="110.48883962249373" y1="83.94563580218134" x2="112.16944104048686" y2="90.52814384207485" stroke="#1e3c72" stroke-width="5.5" stroke-linecap="round"/><line x1="112.16944104048686" y1="90.52814384207485" x2="114.9573123874402" y2="94.86514817154531" stroke="#1e3c72" stroke-width="5.5" stroke-linecap="round"/><circle cx="135" cy="100" r="5.5" fill="#d4af37"/><line x1="135" y1="100" x2="139.52173185896442" y2="113.56782768474558" stroke="#d4af37" stroke-width="5.5" stroke-linecap="round"/><line x1="139.52173185896442" y1="113.56782768474558" x2="130.24904340618392" y2="123.5437755197625" stroke="#d4af37" stroke-width="5.5" stroke-linecap="round"/><line x1="130.24904340618392" y1="123.5437755197625" x2="116.32636566947986" y2="124.98936297228617" stroke="#d4af37" stroke-width="5.5" stroke-linecap="round"/><line x1="116.32636566947986" y1="124.98936297228617" x2="107.1534065047884" y2="128.24816346123424" stroke="#d4af37" stroke-width="5.5" stroke-linecap="round"/><line x1="107.1534065047884" y1="128.24816346123424" x2="96.92202862097342" y2="137.14559044651162" stroke="#d4af37" stroke-width="5.5" stroke-linecap="round"/><line x1="96.92202862097342" y1="137.14559044651162" x2="83.13839611929993" y2="138.44058490810195" stroke="#d4af37" stroke-width="5.5" stroke-linecap="round"/><line x1="83.13839611929993" y1="138.44058490810195" x2="75.51480681359405" y2="126.5980101030185" stroke="#d4af37" stroke-width="5.5" stroke-linecap="round"/><line x1="75.51480681359405" y1="126.5980101030185" x2="74.85620892771007" y2="113.60713926425704" stroke="#d4af37" stroke-width="5.5" stroke-linecap="round"/><line x1="74.85620892771007" y1="113.60713926425704" x2="69.71820394389044" y2="105.05313803129307" stroke="#d4af37" stroke-width="5.5" stroke-linecap="round"/><line x1="69.71820394389044" y1="105.05313803129307" x2="61.236504817919" y2="93.5315167116417" stroke="#d4af37" stroke-width="5.5" stroke-linecap="round"/><line x1="61.236504817919" y1="93.5315167116417" x2="63.5806284878357" y2="80.2908217516619" stroke="#d4af37" stroke-width="5.5" stroke-linecap="round"/><line x1="63.5806284878357" y1="80.2908217516619" x2="77.07548317260405" y2="75.09733635589929" stroke="#d4af37" stroke-width="5.5" stroke-linecap="round"/><line x1="77.07548317260405" y1="75.09733635589929" x2="88.74292415499221" y2="74.33645204224793" stroke="#d4af37" stroke-width="5.5" stroke-linecap="round"/><line x1="88.74292415499221" y1="74.33645204224793" x2="97.2974171959633" y2="67.38467593604476" stroke="#d4af37" stroke-width="5.5" stroke-linecap="round"/><line x1="97.2974171959633" y1="67.38467593604476" x2="110.03057759506753" y2="60.390144845481124" stroke="#d4af37" stroke-width="5.5" stroke-linecap="round"/><line x1="110.03057759506753" y1="60.390144845481124" x2="121.96000539909002" y2="66.38770949390916" stroke="#d4af37" stroke-width="5.5" stroke-linecap="round"/><line x1="121.96000539909002" y1="66.38770949390916" x2="124.99079225156365" y2="80.54888563148575" stroke="#d4af37" stroke-width="5.5" stroke-linecap="round"/><line x1="124.99079225156365" y1="80.54888563148575" x2="126.68547506008002" y2="90.83886484041773" stroke="#d4af37" stroke-width="5.5" stroke-linecap="round"/><circle cx="150" cy="100" r="5.5" fill="#ffd700"/><line x1="150" y1="100" x2="155.77414325170648" y2="119.14728756330614" stroke="#ffd700" stroke-width="5.5" stroke-linecap="round"/><line x1="155.77414325170648" y1="119.14728756330614" x2="138.2880311404574" y2="129.80077082637" stroke="#ffd700" stroke-width="5.5" stroke-linecap="round"/><line x1="138.2880311404574" y1="129.80077082637" x2="122.57550269667118" y2="134.55437925315772" stroke="#ffd700" stroke-width="5.5" stroke-linecap="round"/><line x1="122.57550269667118" y1="134.55437925315772" x2="112.9916554233886" y2="151.30288706314292" stroke="#ffd700" stroke-width="5.5" stroke-linecap="round"/><line x1="112.9916554233886" y1="151.30288706314292" x2="95.19041706913764" y2="158.04303411841556" stroke="#ffd700" stroke-width="5.5" stroke-linecap="round"/><line x1="95.19041706913764" y1="158.04303411841556" x2="81.63590177877805" y2="141.8659269858436" stroke="#ffd700" stroke-width="5.5" stroke-linecap="round"/><line x1="81.63590177877805" y1="141.8659269858436" x2="71.23889827170325" y2="131.24288497621075" stroke="#ffd700" stroke-width="5.5" stroke-linecap="round"/><line x1="71.23889827170325" y1="131.24288497621075" x2="51.1646568134645" y2="126.42836610622757" stroke="#ffd700" stroke-width="5.5" stroke-linecap="round"/><line x1="51.1646568134645" y1="126.42836610622757" x2="44.150728470579" y2="109.31959509476955" stroke="#ffd700" stroke-width="5.5" stroke-linecap="round"/><line x1="44.150728470579" y1="109.31959509476955" x2="57.213141189148764" y2="92.86013606669616" stroke="#ffd700" stroke-width="5.5" stroke-linecap="round"/><line x1="57.213141189148764" y1="92.86013606669616" x2="60.887968065886604" y2="78.83362680252021" stroke="#ffd700" stroke-width="5.5" stroke-linecap="round"/><line x1="60.887968065886604" y1="78.83362680252021" x2="61.032944565722644" y2="57.6704939088976" stroke="#ffd700" stroke-width="5.5" stroke-linecap="round"/><line x1="61.032944565722644" y1="57.6704939088976" x2="78.194555755925" y2="50.288594320337864" stroke="#ffd700" stroke-width="5.5" stroke-linecap="round"/><line x1="78.194555755925" y1="50.288594320337864" x2="96.55164838362911" y2="58.384584817748554" stroke="#ffd700" stroke-width="5.5" stroke-linecap="round"/><line x1="96.55164838362911" y1="58.384584817748554" x2="111.5568932906913" y2="54.362860469209906" stroke="#ffd700" stroke-width="5.5" stroke-linecap="round"/><line x1="111.5568932906913" y1="54.362860469209906" x2="132.1193131155715" y2="50.837731426904874" stroke="#ffd700" stroke-width="5.5" stroke-linecap="round"/><line x1="132.1193131155715" y1="50.837731426904874" x2="140.62601979918196" y2="68.37949955740322" stroke="#ffd700" stroke-width="5.5" stroke-linecap="round"/><line x1="140.62601979918196" y1="68.37949955740322" x2="138.807580918357" y2="86.67734064283778" stroke="#ffd700" stroke-width="5.5" stroke-linecap="round"/><circle cx="165" cy="100" r="5.5" fill="#b8860b"/><line x1="165" y1="100" x2="171.00581693078016" y2="124.37632774214818" stroke="#b8860b" stroke-width="5.5" stroke-linecap="round"/><line x1="171.00581693078016" y1="124.37632774214818" x2="144.90764815268486" y2="134.95302555621126" stroke="#b8860b" stroke-width="5.5" stroke-linecap="round"/><line x1="144.90764815268486" y1="134.95302555621126" x2="133.5980987350846" y2="151.4257184646586" stroke="#b8860b" stroke-width="5.5" stroke-linecap="round"/><line x1="133.5980987350846" y1="151.4257184646586" x2="118.64767399132175" y2="173.63799928412493" stroke="#b8860b" stroke-width="5.5" stroke-linecap="round"/><line x1="118.64767399132175" y1="173.63799928412493" x2="95.06468021045731" y2="159.56045234016887" stroke="#b8860b" stroke-width="5.5" stroke-linecap="round"/><line x1="95.06468021045731" y1="159.56045234016887" x2="76.60378819851942" y2="153.33799042166862" stroke="#b8860b" stroke-width="5.5" stroke-linecap="round"/><line x1="76.60378819851942" y1="153.33799042166862" x2="48.75457155217904" y2="155.66737469506262" stroke="#b8860b" stroke-width="5.5" stroke-linecap="round"/><line x1="48.75457155217904" y1="155.66737469506262" x2="44.42652901074562" y2="130.07485851973647" stroke="#b8860b" stroke-width="5.5" stroke-linecap="round"/><line x1="44.42652901074562" y1="130.07485851973647" x2="44.96975008412809" y2="109.18292455989747" stroke="#b8860b" stroke-width="5.5" stroke-linecap="round"/><line x1="44.96975008412809" y1="109.18292455989747" x2="26.803280473518015" y2="87.78562782340207" stroke="#b8860b" stroke-width="5.5" stroke-linecap="round"/><line x1="26.803280473518015" y1="87.78562782340207" x2="41.2418833324108" y2="68.2016974249169" stroke="#b8860b" stroke-width="5.5" stroke-linecap="round"/><line x1="41.2418833324108" y1="68.2016974249169" x2="63.198824136474634" y2="60.02326630755551" stroke="#b8860b" stroke-width="5.5" stroke-linecap="round"/><line x1="63.198824136474634" y1="60.02326630755551" x2="71.17580659659455" y2="34.28745795651122" stroke="#b8860b" stroke-width="5.5" stroke-linecap="round"/><line x1="71.17580659659455" y1="34.28745795651122" x2="94.20000487813945" y2="30.004468249301766" stroke="#b8860b" stroke-width="5.5" stroke-linecap="round"/><line x1="94.20000487813945" y1="30.004468249301766" x2="113.26543933698213" y2="47.61596471201198" stroke="#b8860b" stroke-width="5.5" stroke-linecap="round"/><line x1="113.26543933698213" y1="47.61596471201198" x2="137.50516182083084" y2="42.5940762905299" stroke="#b8860b" stroke-width="5.5" stroke-linecap="round"/><line x1="137.50516182083084" y1="42.5940762905299" x2="157.6806180688463" y2="55.10537290655444" stroke="#b8860b" stroke-width="5.5" stroke-linecap="round"/><line x1="157.6806180688463" y1="55.10537290655444" x2="151.95042449030234" y2="82.16539674553931" stroke="#b8860b" stroke-width="5.5" stroke-linecap="round"/><g transform="translate(200, 0) scale(-1, 1)"><circle cx="120" cy="100" r="5.5" fill="#1e3c72"/><line x1="120" y1="100" x2="122.87537728058518" y2="107.85312693973266" stroke="#1e3c72" stroke-width="5.5" stroke-linecap="round"/><line x1="122.87537728058518" y1="107.85312693973266" x2="119.39617933536888" y2="115.09665234966158" stroke="#1e3c72" stroke-width="5.5" stroke-linecap="round"/><line x1="119.39617933536888" y1="115.09665234966158" x2="111.38908670240336" y2="117.43229493268251" stroke="#1e3c72" stroke-width="5.5" stroke-linecap="round"/><line x1="111.38908670240336" y1="117.43229493268251" x2="104.00666202975235" y2="115.82195054546432" stroke="#1e3c72" stroke-width="5.5" stroke-linecap="round"/><line x1="104.00666202975235" y1="115.82195054546432" x2="98.74867528786322" y2="115.10124349737501" stroke="#1e3c72" stroke-width="5.5" stroke-linecap="round"/><line x1="98.74867528786322" y1="115.10124349737501" x2="92.61824296277446" y2="116.82871096771763" stroke="#1e3c72" stroke-width="5.5" stroke-linecap="round"/><line x1="92.61824296277446" y1="116.82871096771763" x2="84.37439381067034" y2="116.9739331082886" stroke="#1e3c72" stroke-width="5.5" stroke-linecap="round"/><line x1="84.37439381067034" y1="116.9739331082886" x2="78.02817546357625" y2="111.89055681767996" stroke="#1e3c72" stroke-width="5.5" stroke-linecap="round"/><line x1="78.02817546357625" y1="111.89055681767996" x2="77.92549347720967" y2="103.68358363637529" stroke="#1e3c72" stroke-width="5.5" stroke-linecap="round"/><line x1="77.92549347720967" y1="103.68358363637529" x2="82.62005438668143" y2="97.09980002514592" stroke="#1e3c72" stroke-width="5.5" stroke-linecap="round"/><line x1="82.62005438668143" y1="97.09980002514592" x2="86.79287448816419" y2="92.85266109619702" stroke="#1e3c72" stroke-width="5.5" stroke-linecap="round"/><line x1="86.79287448816419" y1="92.85266109619702" x2="88.53434332430001" y2="87.54497668136335" stroke="#1e3c72" stroke-width="5.5" stroke-linecap="round"/><line x1="88.53434332430001" y1="87.54497668136335" x2="91.31394005110675" y2="80.19777790151534" stroke="#1e3c72" stroke-width="5.5" stroke-linecap="round"/><line x1="91.31394005110675" y1="80.19777790151534" x2="97.94815089324347" y2="75.2378637771082" stroke="#1e3c72" stroke-width="5.5" stroke-linecap="round"/><line x1="97.94815089324347" y1="75.2378637771082" x2="105.81275745587962" y2="77.0459399078911" stroke="#1e3c72" stroke-width="5.5" stroke-linecap="round"/><line x1="105.81275745587962" y1="77.0459399078911" x2="110.48883962249373" y2="83.94563580218134" stroke="#1e3c72" stroke-width="5.5" stroke-linecap="round"/><line x1="110.48883962249373" y1="83.94563580218134" x2="112.16944104048686" y2="90.52814384207485" stroke="#1e3c72" stroke-width="5.5" stroke-linecap="round"/><line x1="112.16944104048686" y1="90.52814384207485" x2="114.9573123874402" y2="94.86514817154531" stroke="#1e3c72" stroke-width="5.5" stroke-linecap="round"/><circle cx="135" cy="100" r="5.5" fill="#d4af37"/><line x1="135" y1="100" x2="139.52173185896442" y2="113.56782768474558" stroke="#d4af37" stroke-width="5.5" stroke-linecap="round"/><line x1="139.52173185896442" y1="113.56782768474558" x2="130.24904340618392" y2="123.5437755197625" stroke="#d4af37" stroke-width="5.5" stroke-linecap="round"/><line x1="130.24904340618392" y1="123.5437755197625" x2="116.32636566947986" y2="124.98936297228617" stroke="#d4af37" stroke-width="5.5" stroke-linecap="round"/><line x1="116.32636566947986" y1="124.98936297228617" x2="107.1534065047884" y2="128.24816346123424" stroke="#d4af37" stroke-width="5.5" stroke-linecap="round"/><line x1="107.1534065047884" y1="128.24816346123424" x2="96.92202862097342" y2="137.14559044651162" stroke="#d4af37" stroke-width="5.5" stroke-linecap="round"/><line x1="96.92202862097342" y1="137.14559044651162" x2="83.13839611929993" y2="138.44058490810195" stroke="#d4af37" stroke-width="5.5" stroke-linecap="round"/><line x1="83.13839611929993" y1="138.44058490810195" x2="75.51480681359405" y2="126.5980101030185" stroke="#d4af37" stroke-width="5.5" stroke-linecap="round"/><line x1="75.51480681359405" y1="126.5980101030185" x2="74.85620892771007" y2="113.60713926425704" stroke="#d4af37" stroke-width="5.5" stroke-linecap="round"/><line x1="74.85620892771007" y1="113.60713926425704" x2="69.71820394389044" y2="105.05313803129307" stroke="#d4af37" stroke-width="5.5" stroke-linecap="round"/><line x1="69.71820394389044" y1="105.05313803129307" x2="61.236504817919" y2="93.5315167116417" stroke="#d4af37" stroke-width="5.5" stroke-linecap="round"/><line x1="61.236504817919" y1="93.5315167116417" x2="63.5806284878357" y2="80.2908217516619" stroke="#d4af37" stroke-width="5.5" stroke-linecap="round"/><line x1="63.5806284878357" y1="80.2908217516619" x2="77.07548317260405" y2="75.09733635589929" stroke="#d4af37" stroke-width="5.5" stroke-linecap="round"/><line x1="77.07548317260405" y1="75.09733635589929" x2="88.74292415499221" y2="74.33645204224793" stroke="#d4af37" stroke-width="5.5" stroke-linecap="round"/><line x1="88.74292415499221" y1="74.33645204224793" x2="97.2974171959633" y2="67.38467593604476" stroke="#d4af37" stroke-width="5.5" stroke-linecap="round"/><line x1="97.2974171959633" y1="67.38467593604476" x2="110.03057759506753" y2="60.390144845481124" stroke="#d4af37" stroke-width="5.5" stroke-linecap="round"/><line x1="110.03057759506753" y1="60.390144845481124" x2="121.96000539909002" y2="66.38770949390916" stroke="#d4af37" stroke-width="5.5" stroke-linecap="round"/><line x1="121.96000539909002" y1="66.38770949390916" x2="124.99079225156365" y2="80.54888563148575" stroke="#d4af37" stroke-width="5.5" stroke-linecap="round"/><line x1="124.99079225156365" y1="80.54888563148575" x2="126.68547506008002" y2="90.83886484041773" stroke="#d4af37" stroke-width="5.5" stroke-linecap="round"/><circle cx="150" cy="100" r="5.5" fill="#ffd700"/><line x1="150" y1="100" x2="155.77414325170648" y2="119.14728756330614" stroke="#ffd700" stroke-width="5.5" stroke-linecap="round"/><line x1="155.77414325170648" y1="119.14728756330614" x2="138.2880311404574" y2="129.80077082637" stroke="#ffd700" stroke-width="5.5" stroke-linecap="round"/><line x1="138.2880311404574" y1="129.80077082637" x2="122.57550269667118" y2="134.55437925315772" stroke="#ffd700" stroke-width="5.5" stroke-linecap="round"/><line x1="122.57550269667118" y1="134.55437925315772" x2="112.9916554233886" y2="151.30288706314292" stroke="#ffd700" stroke-width="5.5" stroke-linecap="round"/><line x1="112.9916554233886" y1="151.30288706314292" x2="95.19041706913764" y2="158.04303411841556" stroke="#ffd700" stroke-width="5.5" stroke-linecap="round"/><line x1="95.19041706913764" y1="158.04303411841556" x2="81.63590177877805" y2="141.8659269858436" stroke="#ffd700" stroke-width="5.5" stroke-linecap="round"/><line x1="81.63590177877805" y1="141.8659269858436" x2="71.23889827170325" y2="131.24288497621075" stroke="#ffd700" stroke-width="5.5" stroke-linecap="round"/><line x1="71.23889827170325" y1="131.24288497621075" x2="51.1646568134645" y2="126.42836610622757" stroke="#ffd700" stroke-width="5.5" stroke-linecap="round"/><line x1="51.1646568134645" y1="126.42836610622757" x2="44.150728470579" y2="109.31959509476955" stroke="#ffd700" stroke-width="5.5" stroke-linecap="round"/><line x1="44.150728470579" y1="109.31959509476955" x2="57.213141189148764" y2="92.86013606669616" stroke="#ffd700" stroke-width="5.5" stroke-linecap="round"/><line x1="57.213141189148764" y1="92.86013606669616" x2="60.887968065886604" y2="78.83362680252021" stroke="#ffd700" stroke-width="5.5" stroke-linecap="round"/><line x1="60.887968065886604" y1="78.83362680252021" x2="61.032944565722644" y2="57.6704939088976" stroke="#ffd700" stroke-width="5.5" stroke-linecap="round"/><line x1="61.032944565722644" y1="57.6704939088976" x2="78.194555755925" y2="50.288594320337864" stroke="#ffd700" stroke-width="5.5" stroke-linecap="round"/><line x1="78.194555755925" y1="50.288594320337864" x2="96.55164838362911" y2="58.384584817748554" stroke="#ffd700" stroke-width="5.5" stroke-linecap="round"/><line x1="96.55164838362911" y1="58.384584817748554" x2="111.5568932906913" y2="54.362860469209906" stroke="#ffd700" stroke-width="5.5" stroke-linecap="round"/><line x1="111.5568932906913" y1="54.362860469209906" x2="132.1193131155715" y2="50.837731426904874" stroke="#ffd700" stroke-width="5.5" stroke-linecap="round"/><line x1="132.1193131155715" y1="50.837731426904874" x2="140.62601979918196" y2="68.37949955740322" stroke="#ffd700" stroke-width="5.5" stroke-linecap="round"/><line x1="140.62601979918196" y1="68.37949955740322" x2="138.807580918357" y2="86.67734064283778" stroke="#ffd700" stroke-width="5.5" stroke-linecap="round"/><circle cx="165" cy="100" r="5.5" fill="#b8860b"/><line x1="165" y1="100" x2="171.00581693078016" y2="124.37632774214818" stroke="#b8860b" stroke-width="5.5" stroke-linecap="round"/><line x1="171.00581693078016" y1="124.37632774214818" x2="144.90764815268486" y2="134.95302555621126" stroke="#b8860b" stroke-width="5.5" stroke-linecap="round"/><line x1="144.90764815268486" y1="134.95302555621126" x2="133.5980987350846" y2="151.4257184646586" stroke="#b8860b" stroke-width="5.5" stroke-linecap="round"/><line x1="133.5980987350846" y1="151.4257184646586" x2="118.64767399132175" y2="173.63799928412493" stroke="#b8860b" stroke-width="5.5" stroke-linecap="round"/><line x1="118.64767399132175" y1="173.63799928412493" x2="95.06468021045731" y2="159.56045234016887" stroke="#b8860b" stroke-width="5.5" stroke-linecap="round"/><line x1="95.06468021045731" y1="159.56045234016887" x2="76.60378819851942" y2="153.33799042166862" stroke="#b8860b" stroke-width="5.5" stroke-linecap="round"/><line x1="76.60378819851942" y1="153.33799042166862" x2="48.75457155217904" y2="155.66737469506262" stroke="#b8860b" stroke-width="5.5" stroke-linecap="round"/><line x1="48.75457155217904" y1="155.66737469506262" x2="44.42652901074562" y2="130.07485851973647" stroke="#b8860b" stroke-width="5.5" stroke-linecap="round"/><line x1="44.42652901074562" y1="130.07485851973647" x2="44.96975008412809" y2="109.18292455989747" stroke="#b8860b" stroke-width="5.5" stroke-linecap="round"/><line x1="44.96975008412809" y1="109.18292455989747" x2="26.803280473518015" y2="87.78562782340207" stroke="#b8860b" stroke-width="5.5" stroke-linecap="round"/><line x1="26.803280473518015" y1="87.78562782340207" x2="41.2418833324108" y2="68.2016974249169" stroke="#b8860b" stroke-width="5.5" stroke-linecap="round"/><line x1="41.2418833324108" y1="68.2016974249169" x2="63.198824136474634" y2="60.02326630755551" stroke="#b8860b" stroke-width="5.5" stroke-linecap="round"/><line x1="63.198824136474634" y1="60.02326630755551" x2="71.17580659659455" y2="34.28745795651122" stroke="#b8860b" stroke-width="5.5" stroke-linecap="round"/><line x1="71.17580659659455" y1="34.28745795651122" x2="94.20000487813945" y2="30.004468249301766" stroke="#b8860b" stroke-width="5.5" stroke-linecap="round"/><line x1="94.20000487813945" y1="30.004468249301766" x2="113.26543933698213" y2="47.61596471201198" stroke="#b8860b" stroke-width="5.5" stroke-linecap="round"/><line x1="113.26543933698213" y1="47.61596471201198" x2="137.50516182083084" y2="42.5940762905299" stroke="#b8860b" stroke-width="5.5" stroke-linecap="round"/><line x1="137.50516182083084" y1="42.5940762905299" x2="157.6806180688463" y2="55.10537290655444" stroke="#b8860b" stroke-width="5.5" stroke-linecap="round"/><line x1="157.6806180688463" y1="55.10537290655444" x2="151.95042449030234" y2="82.16539674553931" stroke="#b8860b" stroke-width="5.5" stroke-linecap="round"/></g><g transform="translate(0, 200) scale(1, -1)"><circle cx="120" cy="100" r="5.5" fill="#1e3c72"/><line x1="120" y1="100" x2="122.87537728058518" y2="107.85312693973266" stroke="#1e3c72" stroke-width="5.5" stroke-linecap="round"/><line x1="122.87537728058518" y1="107.85312693973266" x2="119.39617933536888" y2="115.09665234966158" stroke="#1e3c72" stroke-width="5.5" stroke-linecap="round"/><line x1="119.39617933536888" y1="115.09665234966158" x2="111.38908670240336" y2="117.43229493268251" stroke="#1e3c72" stroke-width="5.5" stroke-linecap="round"/><line x1="111.38908670240336" y1="117.43229493268251" x2="104.00666202975235" y2="115.82195054546432" stroke="#1e3c72" stroke-width="5.5" stroke-linecap="round"/><line x1="104.00666202975235" y1="115.82195054546432" x2="98.74867528786322" y2="115.10124349737501" stroke="#1e3c72" stroke-width="5.5" stroke-linecap="round"/><line x1="98.74867528786322" y1="115.10124349737501" x2="92.61824296277446" y2="116.82871096771763" stroke="#1e3c72" stroke-width="5.5" stroke-linecap="round"/><line x1="92.61824296277446" y1="116.82871096771763" x2="84.37439381067034" y2="116.9739331082886" stroke="#1e3c72" stroke-width="5.5" stroke-linecap="round"/><line x1="84.37439381067034" y1="116.9739331082886" x2="78.02817546357625" y2="111.89055681767996" stroke="#1e3c72" stroke-width="5.5" stroke-linecap="round"/><line x1="78.02817546357625" y1="111.89055681767996" x2="77.92549347720967" y2="103.68358363637529" stroke="#1e3c72" stroke-width="5.5" stroke-linecap="round"/><line x1="77.92549347720967" y1="103.68358363637529" x2="82.62005438668143" y2="97.09980002514592" stroke="#1e3c72" stroke-width="5.5" stroke-linecap="round"/><line x1="82.62005438668143" y1="97.09980002514592" x2="86.79287448816419" y2="92.85266109619702" stroke="#1e3c72" stroke-width="5.5" stroke-linecap="round"/><line x1="86.79287448816419" y1="92.85266109619702" x2="88.53434332430001" y2="87.54497668136335" stroke="#1e3c72" stroke-width="5.5" stroke-linecap="round"/><line x1="88.53434332430001" y1="87.54497668136335" x2="91.31394005110675" y2="80.19777790151534" stroke="#1e3c72" stroke-width="5.5" stroke-linecap="round"/><line x1="91.31394005110675" y1="80.19777790151534" x2="97.94815089324347" y2="75.2378637771082" stroke="#1e3c72" stroke-width="5.5" stroke-linecap="round"/><line x1="97.94815089324347" y1="75.2378637771082" x2="105.81275745587962" y2="77.0459399078911" stroke="#1e3c72" stroke-width="5.5" stroke-linecap="round"/><line x1="105.81275745587962" y1="77.0459399078911" x2="110.48883962249373" y2="83.94563580218134" stroke="#1e3c72" stroke-width="5.5" stroke-linecap="round"/><line x1="110.48883962249373" y1="83.94563580218134" x2="112.16944104048686" y2="90.52814384207485" stroke="#1e3c72" stroke-width="5.5" stroke-linecap="round"/><line x1="112.16944104048686" y1="90.52814384207485" x2="114.9573123874402" y2="94.86514817154531" stroke="#1e3c72" stroke-width="5.5" stroke-linecap="round"/><circle cx="135" cy="100" r="5.5" fill="#d4af37"/><line x1="135" y1="100" x2="139.52173185896442" y2="113.56782768474558" stroke="#d4af37" stroke-width="5.5" stroke-linecap="round"/><line x1="139.52173185896442" y1="113.56782768474558" x2="130.24904340618392" y2="123.5437755197625" stroke="#d4af37" stroke-width="5.5" stroke-linecap="round"/><line x1="130.24904340618392" y1="123.5437755197625" x2="116.32636566947986" y2="124.98936297228617" stroke="#d4af37" stroke-width="5.5" stroke-linecap="round"/><line x1="116.32636566947986" y1="124.98936297228617" x2="107.1534065047884" y2="128.24816346123424" stroke="#d4af37" stroke-width="5.5" stroke-linecap="round"/><line x1="107.1534065047884" y1="128.24816346123424" x2="96.92202862097342" y2="137.14559044651162" stroke="#d4af37" stroke-width="5.5" stroke-linecap="round"/><line x1="96.92202862097342" y1="137.14559044651162" x2="83.13839611929993" y2="138.44058490810195" stroke="#d4af37" stroke-width="5.5" stroke-linecap="round"/><line x1="83.13839611929993" y1="138.44058490810195" x2="75.51480681359405" y2="126.5980101030185" stroke="#d4af37" stroke-width="5.5" stroke-linecap="round"/><line x1="75.51480681359405" y1="126.5980101030185" x2="74.85620892771007" y2="113.60713926425704" stroke="#d4af37" stroke-width="5.5" stroke-linecap="round"/><line x1="74.85620892771007" y1="113.60713926425704" x2="69.71820394389044" y2="105.05313803129307" stroke="#d4af37" stroke-width="5.5" stroke-linecap="round"/><line x1="69.71820394389044" y1="105.05313803129307" x2="61.236504817919" y2="93.5315167116417" stroke="#d4af37" stroke-width="5.5" stroke-linecap="round"/><line x1="61.236504817919" y1="93.5315167116417" x2="63.5806284878357" y2="80.2908217516619" stroke="#d4af37" stroke-width="5.5" stroke-linecap="round"/><line x1="63.5806284878357" y1="80.2908217516619" x2="77.07548317260405" y2="75.09733635589929" stroke="#d4af37" stroke-width="5.5" stroke-linecap="round"/><line x1="77.07548317260405" y1="75.09733635589929" x2="88.74292415499221" y2="74.33645204224793" stroke="#d4af37" stroke-width="5.5" stroke-linecap="round"/><line x1="88.74292415499221" y1="74.33645204224793" x2="97.2974171959633" y2="67.38467593604476" stroke="#d4af37" stroke-width="5.5" stroke-linecap="round"/><line x1="97.2974171959633" y1="67.38467593604476" x2="110.03057759506753" y2="60.390144845481124" stroke="#d4af37" stroke-width="5.5" stroke-linecap="round"/><line x1="110.03057759506753" y1="60.390144845481124" x2="121.96000539909002" y2="66.38770949390916" stroke="#d4af37" stroke-width="5.5" stroke-linecap="round"/><line x1="121.96000539909002" y1="66.38770949390916" x2="124.99079225156365" y2="80.54888563148575" stroke="#d4af37" stroke-width="5.5" stroke-linecap="round"/><line x1="124.99079225156365" y1="80.54888563148575" x2="126.68547506008002" y2="90.83886484041773" stroke="#d4af37" stroke-width="5.5" stroke-linecap="round"/><circle cx="150" cy="100" r="5.5" fill="#ffd700"/><line x1="150" y1="100" x2="155.77414325170648" y2="119.14728756330614" stroke="#ffd700" stroke-width="5.5" stroke-linecap="round"/><line x1="155.77414325170648" y1="119.14728756330614" x2="138.2880311404574" y2="129.80077082637" stroke="#ffd700" stroke-width="5.5" stroke-linecap="round"/><line x1="138.2880311404574" y1="129.80077082637" x2="122.57550269667118" y2="134.55437925315772" stroke="#ffd700" stroke-width="5.5" stroke-linecap="round"/><line x1="122.57550269667118" y1="134.55437925315772" x2="112.9916554233886" y2="151.30288706314292" stroke="#ffd700" stroke-width="5.5" stroke-linecap="round"/><line x1="112.9916554233886" y1="151.30288706314292" x2="95.19041706913764" y2="158.04303411841556" stroke="#ffd700" stroke-width="5.5" stroke-linecap="round"/><line x1="95.19041706913764" y1="158.04303411841556" x2="81.63590177877805" y2="141.8659269858436" stroke="#ffd700" stroke-width="5.5" stroke-linecap="round"/><line x1="81.63590177877805" y1="141.8659269858436" x2="71.23889827170325" y2="131.24288497621075" stroke="#ffd700" stroke-width="5.5" stroke-linecap="round"/><line x1="71.23889827170325" y1="131.24288497621075" x2="51.1646568134645" y2="126.42836610622757" stroke="#ffd700" stroke-width="5.5" stroke-linecap="round"/><line x1="51.1646568134645" y1="126.42836610622757" x2="44.150728470579" y2="109.31959509476955" stroke="#ffd700" stroke-width="5.5" stroke-linecap="round"/><line x1="44.150728470579" y1="109.31959509476955" x2="57.213141189148764" y2="92.86013606669616" stroke="#ffd700" stroke-width="5.5" stroke-linecap="round"/><line x1="57.213141189148764" y1="92.86013606669616" x2="60.887968065886604" y2="78.83362680252021" stroke="#ffd700" stroke-width="5.5" stroke-linecap="round"/><line x1="60.887968065886604" y1="78.83362680252021" x2="61.032944565722644" y2="57.6704939088976" stroke="#ffd700" stroke-width="5.5" stroke-linecap="round"/><line x1="61.032944565722644" y1="57.6704939088976" x2="78.194555755925" y2="50.288594320337864" stroke="#ffd700" stroke-width="5.5" stroke-linecap="round"/><line x1="78.194555755925" y1="50.288594320337864" x2="96.55164838362911" y2="58.384584817748554" stroke="#ffd700" stroke-width="5.5" stroke-linecap="round"/><line x1="96.55164838362911" y1="58.384584817748554" x2="111.5568932906913" y2="54.362860469209906" stroke="#ffd700" stroke-width="5.5" stroke-linecap="round"/><line x1="111.5568932906913" y1="54.362860469209906" x2="132.1193131155715" y2="50.837731426904874" stroke="#ffd700" stroke-width="5.5" stroke-linecap="round"/><line x1="132.1193131155715" y1="50.837731426904874" x2="140.62601979918196" y2="68.37949955740322" stroke="#ffd700" stroke-width="5.5" stroke-linecap="round"/><line x1="140.62601979918196" y1="68.37949955740322" x2="138.807580918357" y2="86.67734064283778" stroke="#ffd700" stroke-width="5.5" stroke-linecap="round"/><circle cx="165" cy="100" r="5.5" fill="#b8860b"/><line x1="165" y1="100" x2="171.00581693078016" y2="124.37632774214818" stroke="#b8860b" stroke-width="5.5" stroke-linecap="round"/><line x1="171.00581693078016" y1="124.37632774214818" x2="144.90764815268486" y2="134.95302555621126" stroke="#b8860b" stroke-width="5.5" stroke-linecap="round"/><line x1="144.90764815268486" y1="134.95302555621126" x2="133.5980987350846" y2="151.4257184646586" stroke="#b8860b" stroke-width="5.5" stroke-linecap="round"/><line x1="133.5980987350846" y1="151.4257184646586" x2="118.64767399132175" y2="173.63799928412493" stroke="#b8860b" stroke-width="5.5" stroke-linecap="round"/><line x1="118.64767399132175" y1="173.63799928412493" x2="95.06468021045731" y2="159.56045234016887" stroke="#b8860b" stroke-width="5.5" stroke-linecap="round"/><line x1="95.06468021045731" y1="159.56045234016887" x2="76.60378819851942" y2="153.33799042166862" stroke="#b8860b" stroke-width="5.5" stroke-linecap="round"/><line x1="76.60378819851942" y1="153.33799042166862" x2="48.75457155217904" y2="155.66737469506262" stroke="#b8860b" stroke-width="5.5" stroke-linecap="round"/><line x1="48.75457155217904" y1="155.66737469506262" x2="44.42652901074562" y2="130.07485851973647" stroke="#b8860b" stroke-width="5.5" stroke-linecap="round"/><line x1="44.42652901074562" y1="130.07485851973647" x2="44.96975008412809" y2="109.18292455989747" stroke="#b8860b" stroke-width="5.5" stroke-linecap="round"/><line x1="44.96975008412809" y1="109.18292455989747" x2="26.803280473518015" y2="87.78562782340207" stroke="#b8860b" stroke-width="5.5" stroke-linecap="round"/><line x1="26.803280473518015" y1="87.78562782340207" x2="41.2418833324108" y2="68.2016974249169" stroke="#b8860b" stroke-width="5.5" stroke-linecap="round"/><line x1="41.2418833324108" y1="68.2016974249169" x2="63.198824136474634" y2="60.02326630755551" stroke="#b8860b" stroke-width="5.5" stroke-linecap="round"/><line x1="63.198824136474634" y1="60.02326630755551" x2="71.17580659659455" y2="34.28745795651122" stroke="#b8860b" stroke-width="5.5" stroke-linecap="round"/><line x1="71.17580659659455" y1="34.28745795651122" x2="94.20000487813945" y2="30.004468249301766" stroke="#b8860b" stroke-width="5.5" stroke-linecap="round"/><line x1="94.20000487813945" y1="30.004468249301766" x2="113.26543933698213" y2="47.61596471201198" stroke="#b8860b" stroke-width="5.5" stroke-linecap="round"/><line x1="113.26543933698213" y1="47.61596471201198" x2="137.50516182083084" y2="42.5940762905299" stroke="#b8860b" stroke-width="5.5" stroke-linecap="round"/><line x1="137.50516182083084" y1="42.5940762905299" x2="157.6806180688463" y2="55.10537290655444" stroke="#b8860b" stroke-width="5.5" stroke-linecap="round"/><line x1="157.6806180688463" y1="55.10537290655444" x2="151.95042449030234" y2="82.16539674553931" stroke="#b8860b" stroke-width="5.5" stroke-linecap="round"/></g><g transform="translate(200, 200) scale(-1, -1)"><circle cx="120" cy="100" r="5.5" fill="#1e3c72"/><line x1="120" y1="100" x2="122.87537728058518" y2="107.85312693973266" stroke="#1e3c72" stroke-width="5.5" stroke-linecap="round"/><line x1="122.87537728058518" y1="107.85312693973266" x2="119.39617933536888" y2="115.09665234966158" stroke="#1e3c72" stroke-width="5.5" stroke-linecap="round"/><line x1="119.39617933536888" y1="115.09665234966158" x2="111.38908670240336" y2="117.43229493268251" stroke="#1e3c72" stroke-width="5.5" stroke-linecap="round"/><line x1="111.38908670240336" y1="117.43229493268251" x2="104.00666202975235" y2="115.82195054546432" stroke="#1e3c72" stroke-width="5.5" stroke-linecap="round"/><line x1="104.00666202975235" y1="115.82195054546432" x2="98.74867528786322" y2="115.10124349737501" stroke="#1e3c72" stroke-width="5.5" stroke-linecap="round"/><line x1="98.74867528786322" y1="115.10124349737501" x2="92.61824296277446" y2="116.82871096771763" stroke="#1e3c72" stroke-width="5.5" stroke-linecap="round"/><line x1="92.61824296277446" y1="116.82871096771763" x2="84.37439381067034" y2="116.9739331082886" stroke="#1e3c72" stroke-width="5.5" stroke-linecap="round"/><line x1="84.37439381067034" y1="116.9739331082886" x2="78.02817546357625" y2="111.89055681767996" stroke="#1e3c72" stroke-width="5.5" stroke-linecap="round"/><line x1="78.02817546357625" y1="111.89055681767996" x2="77.92549347720967" y2="103.68358363637529" stroke="#1e3c72" stroke-width="5.5" stroke-linecap="round"/><line x1="77.92549347720967" y1="103.68358363637529" x2="82.62005438668143" y2="97.09980002514592" stroke="#1e3c72" stroke-width="5.5" stroke-linecap="round"/><line x1="82.62005438668143" y1="97.09980002514592" x2="86.79287448816419" y2="92.85266109619702" stroke="#1e3c72" stroke-width="5.5" stroke-linecap="round"/><line x1="86.79287448816419" y1="92.85266109619702" x2="88.53434332430001" y2="87.54497668136335" stroke="#1e3c72" stroke-width="5.5" stroke-linecap="round"/><line x1="88.53434332430001" y1="87.54497668136335" x2="91.31394005110675" y2="80.19777790151534" stroke="#1e3c72" stroke-width="5.5" stroke-linecap="round"/><line x1="91.31394005110675" y1="80.19777790151534" x2="97.94815089324347" y2="75.2378637771082" stroke="#1e3c72" stroke-width="5.5" stroke-linecap="round"/><line x1="97.94815089324347" y1="75.2378637771082" x2="105.81275745587962" y2="77.0459399078911" stroke="#1e3c72" stroke-width="5.5" stroke-linecap="round"/><line x1="105.81275745587962" y1="77.0459399078911" x2="110.48883962249373" y2="83.94563580218134" stroke="#1e3c72" stroke-width="5.5" stroke-linecap="round"/><line x1="110.48883962249373" y1="83.94563580218134" x2="112.16944104048686" y2="90.52814384207485" stroke="#1e3c72" stroke-width="5.5" stroke-linecap="round"/><line x1="112.16944104048686" y1="90.52814384207485" x2="114.9573123874402" y2="94.86514817154531" stroke="#1e3c72" stroke-width="5.5" stroke-linecap="round"/><circle cx="135" cy="100" r="5.5" fill="#d4af37"/><line x1="135" y1="100" x2="139.52173185896442" y2="113.56782768474558" stroke="#d4af37" stroke-width="5.5" stroke-linecap="round"/><line x1="139.52173185896442" y1="113.56782768474558" x2="130.24904340618392" y2="123.5437755197625" stroke="#d4af37" stroke-width="5.5" stroke-linecap="round"/><line x1="130.24904340618392" y1="123.5437755197625" x2="116.32636566947986" y2="124.98936297228617" stroke="#d4af37" stroke-width="5.5" stroke-linecap="round"/><line x1="116.32636566947986" y1="124.98936297228617" x2="107.1534065047884" y2="128.24816346123424" stroke="#d4af37" stroke-width="5.5" stroke-linecap="round"/><line x1="107.1534065047884" y1="128.24816346123424" x2="96.92202862097342" y2="137.14559044651162" stroke="#d4af37" stroke-width="5.5" stroke-linecap="round"/><line x1="96.92202862097342" y1="137.14559044651162" x2="83.13839611929993" y2="138.44058490810195" stroke="#d4af37" stroke-width="5.5" stroke-linecap="round"/><line x1="83.13839611929993" y1="138.44058490810195" x2="75.51480681359405" y2="126.5980101030185" stroke="#d4af37" stroke-width="5.5" stroke-linecap="round"/><line x1="75.51480681359405" y1="126.5980101030185" x2="74.85620892771007" y2="113.60713926425704" stroke="#d4af37" stroke-width="5.5" stroke-linecap="round"/><line x1="74.85620892771007" y1="113.60713926425704" x2="69.71820394389044" y2="105.05313803129307" stroke="#d4af37" stroke-width="5.5" stroke-linecap="round"/><line x1="69.71820394389044" y1="105.05313803129307" x2="61.236504817919" y2="93.5315167116417" stroke="#d4af37" stroke-width="5.5" stroke-linecap="round"/><line x1="61.236504817919" y1="93.5315167116417" x2="63.5806284878357" y2="80.2908217516619" stroke="#d4af37" stroke-width="5.5" stroke-linecap="round"/><line x1="63.5806284878357" y1="80.2908217516619" x2="77.07548317260405" y2="75.09733635589929" stroke="#d4af37" stroke-width="5.5" stroke-linecap="round"/><line x1="77.07548317260405" y1="75.09733635589929" x2="88.74292415499221" y2="74.33645204224793" stroke="#d4af37" stroke-width="5.5" stroke-linecap="round"/><line x1="88.74292415499221" y1="74.33645204224793" x2="97.2974171959633" y2="67.38467593604476" stroke="#d4af37" stroke-width="5.5" stroke-linecap="round"/><line x1="97.2974171959633" y1="67.38467593604476" x2="110.03057759506753" y2="60.390144845481124" stroke="#d4af37" stroke-width="5.5" stroke-linecap="round"/><line x1="110.03057759506753" y1="60.390144845481124" x2="121.96000539909002" y2="66.38770949390916" stroke="#d4af37" stroke-width="5.5" stroke-linecap="round"/><line x1="121.96000539909002" y1="66.38770949390916" x2="124.99079225156365" y2="80.54888563148575" stroke="#d4af37" stroke-width="5.5" stroke-linecap="round"/><line x1="124.99079225156365" y1="80.54888563148575" x2="126.68547506008002" y2="90.83886484041773" stroke="#d4af37" stroke-width="5.5" stroke-linecap="round"/><circle cx="150" cy="100" r="5.5" fill="#ffd700"/><line x1="150" y1="100" x2="155.77414325170648" y2="119.14728756330614" stroke="#ffd700" stroke-width="5.5" stroke-linecap="round"/><line x1="155.77414325170648" y1="119.14728756330614" x2="138.2880311404574" y2="129.80077082637" stroke="#ffd700" stroke-width="5.5" stroke-linecap="round"/><line x1="138.2880311404574" y1="129.80077082637" x2="122.57550269667118" y2="134.55437925315772" stroke="#ffd700" stroke-width="5.5" stroke-linecap="round"/><line x1="122.57550269667118" y1="134.55437925315772" x2="112.9916554233886" y2="151.30288706314292" stroke="#ffd700" stroke-width="5.5" stroke-linecap="round"/><line x1="112.9916554233886" y1="151.30288706314292" x2="95.19041706913764" y2="158.04303411841556" stroke="#ffd700" stroke-width="5.5" stroke-linecap="round"/><line x1="95.19041706913764" y1="158.04303411841556" x2="81.63590177877805" y2="141.8659269858436" stroke="#ffd700" stroke-width="5.5" stroke-linecap="round"/><line x1="81.63590177877805" y1="141.8659269858436" x2="71.23889827170325" y2="131.24288497621075" stroke="#ffd700" stroke-width="5.5" stroke-linecap="round"/><line x1="71.23889827170325" y1="131.24288497621075" x2="51.1646568134645" y2="126.42836610622757" stroke="#ffd700" stroke-width="5.5" stroke-linecap="round"/><line x1="51.1646568134645" y1="126.42836610622757" x2="44.150728470579" y2="109.31959509476955" stroke="#ffd700" stroke-width="5.5" stroke-linecap="round"/><line x1="44.150728470579" y1="109.31959509476955" x2="57.213141189148764" y2="92.86013606669616" stroke="#ffd700" stroke-width="5.5" stroke-linecap="round"/><line x1="57.213141189148764" y1="92.86013606669616" x2="60.887968065886604" y2="78.83362680252021" stroke="#ffd700" stroke-width="5.5" stroke-linecap="round"/><line x1="60.887968065886604" y1="78.83362680252021" x2="61.032944565722644" y2="57.6704939088976" stroke="#ffd700" stroke-width="5.5" stroke-linecap="round"/><line x1="61.032944565722644" y1="57.6704939088976" x2="78.194555755925" y2="50.288594320337864" stroke="#ffd700" stroke-width="5.5" stroke-linecap="round"/><line x1="78.194555755925" y1="50.288594320337864" x2="96.55164838362911" y2="58.384584817748554" stroke="#ffd700" stroke-width="5.5" stroke-linecap="round"/><line x1="96.55164838362911" y1="58.384584817748554" x2="111.5568932906913" y2="54.362860469209906" stroke="#ffd700" stroke-width="5.5" stroke-linecap="round"/><line x1="111.5568932906913" y1="54.362860469209906" x2="132.1193131155715" y2="50.837731426904874" stroke="#ffd700" stroke-width="5.5" stroke-linecap="round"/><line x1="132.1193131155715" y1="50.837731426904874" x2="140.62601979918196" y2="68.37949955740322" stroke="#ffd700" stroke-width="5.5" stroke-linecap="round"/><line x1="140.62601979918196" y1="68.37949955740322" x2="138.807580918357" y2="86.67734064283778" stroke="#ffd700" stroke-width="5.5" stroke-linecap="round"/><circle cx="165" cy="100" r="5.5" fill="#b8860b"/><line x1="165" y1="100" x2="171.00581693078016" y2="124.37632774214818" stroke="#b8860b" stroke-width="5.5" stroke-linecap="round"/><line x1="171.00581693078016" y1="124.37632774214818" x2="144.90764815268486" y2="134.95302555621126" stroke="#b8860b" stroke-width="5.5" stroke-linecap="round"/><line x1="144.90764815268486" y1="134.95302555621126" x2="133.5980987350846" y2="151.4257184646586" stroke="#b8860b" stroke-width="5.5" stroke-linecap="round"/><line x1="133.5980987350846" y1="151.4257184646586" x2="118.64767399132175" y2="173.63799928412493" stroke="#b8860b" stroke-width="5.5" stroke-linecap="round"/><line x1="118.64767399132175" y1="173.63799928412493" x2="95.06468021045731" y2="159.56045234016887" stroke="#b8860b" stroke-width="5.5" stroke-linecap="round"/><line x1="95.06468021045731" y1="159.56045234016887" x2="76.60378819851942" y2="153.33799042166862" stroke="#b8860b" stroke-width="5.5" stroke-linecap="round"/><line x1="76.60378819851942" y1="153.33799042166862" x2="48.75457155217904" y2="155.66737469506262" stroke="#b8860b" stroke-width="5.5" stroke-linecap="round"/><line x1="48.75457155217904" y1="155.66737469506262" x2="44.42652901074562" y2="130.07485851973647" stroke="#b8860b" stroke-width="5.5" stroke-linecap="round"/><line x1="44.42652901074562" y1="130.07485851973647" x2="44.96975008412809" y2="109.18292455989747" stroke="#b8860b" stroke-width="5.5" stroke-linecap="round"/><line x1="44.96975008412809" y1="109.18292455989747" x2="26.803280473518015" y2="87.78562782340207" stroke="#b8860b" stroke-width="5.5" stroke-linecap="round"/><line x1="26.803280473518015" y1="87.78562782340207" x2="41.2418833324108" y2="68.2016974249169" stroke="#b8860b" stroke-width="5.5" stroke-linecap="round"/><line x1="41.2418833324108" y1="68.2016974249169" x2="63.198824136474634" y2="60.02326630755551" stroke="#b8860b" stroke-width="5.5" stroke-linecap="round"/><line x1="63.198824136474634" y1="60.02326630755551" x2="71.17580659659455" y2="34.28745795651122" stroke="#b8860b" stroke-width="5.5" stroke-linecap="round"/><line x1="71.17580659659455" y1="34.28745795651122" x2="94.20000487813945" y2="30.004468249301766" stroke="#b8860b" stroke-width="5.5" stroke-linecap="round"/><line x1="94.20000487813945" y1="30.004468249301766" x2="113.26543933698213" y2="47.61596471201198" stroke="#b8860b" stroke-width="5.5" stroke-linecap="round"/><line x1="113.26543933698213" y1="47.61596471201198" x2="137.50516182083084" y2="42.5940762905299" stroke="#b8860b" stroke-width="5.5" stroke-linecap="round"/><line x1="137.50516182083084" y1="42.5940762905299" x2="157.6806180688463" y2="55.10537290655444" stroke="#b8860b" stroke-width="5.5" stroke-linecap="round"/><line x1="157.6806180688463" y1="55.10537290655444" x2="151.95042449030234" y2="82.16539674553931" stroke="#b8860b" stroke-width="5.5" stroke-linecap="round"/></g></g></g><circle cx="100" cy="100" r="15" fill="#1e3c72" fill-opacity="0.8" stroke="#00144a" stroke-width="4"/><line x1="115" y1="100" x2="135" y2="100" stroke="#1e3c72" stroke-width="4" stroke-linecap="round" stroke-opacity="1"/><line x1="112.99038105676658" y1="107.5" x2="130.31088913245534" y2="117.5" stroke="#d4af37" stroke-width="4" stroke-linecap="round" stroke-opacity="1"/><line x1="107.5" y1="112.99038105676658" x2="117.5" y2="130.31088913245534" stroke="#ffd700" stroke-width="4" stroke-linecap="round" stroke-opacity="1"/><line x1="100" y1="115" x2="100" y2="135" stroke="#b8860b" stroke-width="4" stroke-linecap="round" stroke-opacity="1"/><line x1="92.5" y1="112.99038105676658" x2="82.5" y2="130.31088913245534" stroke="#fff8dc" stroke-width="4" stroke-linecap="round" stroke-opacity="1"/><line x1="87.00961894323342" y1="107.5" x2="69.68911086754464" y2="117.5" stroke="#1e3c72" stroke-width="4" stroke-linecap="round" stroke-opacity="1"/><line x1="85" y1="100" x2="65" y2="100" stroke="#d4af37" stroke-width="4" stroke-linecap="round" stroke-opacity="1"/><line x1="87.00961894323342" y1="92.5" x2="69.68911086754466" y2="82.5" stroke="#ffd700" stroke-width="4" stroke-linecap="round" stroke-opacity="1"/><line x1="92.5" y1="87.00961894323342" x2="82.49999999999999" y2="69.68911086754466" stroke="#b8860b" stroke-width="4" stroke-linecap="round" stroke-opacity="1"/><line x1="100" y1="85" x2="100" y2="65" stroke="#fff8dc" stroke-width="4" stroke-linecap="round" stroke-opacity="1"/><line x1="107.5" y1="87.00961894323342" x2="117.5" y2="69.68911086754466" stroke="#1e3c72" stroke-width="4" stroke-linecap="round" stroke-opacity="1"/><line x1="112.99038105676658" y1="92.5" x2="130.31088913245534" y2="82.49999999999999" stroke="#d4af37" stroke-width="4" stroke-linecap="round" stroke-opacity="1"/><circle cx="100" cy="100" r="6" fill="#d4af37" stroke="#ac870f" stroke-width="2"/><path d="M20,20 L22,20 L22.3947585844075,21.01248769000249 L22.22946146991093,22.295539490878472 L21.37695946701136,23.54174852667546 L19.87152210187433,24.39812385338262 L17.91926581726429,24.54648713412841 L15.870595192969024,23.782593811086443 L14.15822148785432,22.07692653096661 L13.21159552459568,19.603055824692454 L13.363987719127312,16.725348719618093 L14.770851033091105,13.945580037536574 L17.356937318185594,11.816222164550163 L20.804990647642914,10.835285598710268 L24.591463378743697,11.3421443739425 L28.0658851365066,13.434826966127863 L30.561873153154025,16.926429519811816 L31.520945057595036,21.351970776265727 L30.60664938226786,26.028182883891027 L27.786896826012857,30.158948657269157 L23.366881890602215,32.97012360522192 " fill="none" stroke="#1e3c72" stroke-width="2.4" stroke-linecap="round" stroke-opacity="1"/><path d="M180,180 L178,180 L177.6052414155925,178.9875123099975 L177.77053853008908,177.70446050912153 L178.62304053298865,176.45825147332454 L180.12847789812568,175.60187614661737 L182.0807341827357,175.4535128658716 L184.12940480703097,176.21740618891354 L185.84177851214568,177.9230734690334 L186.78840447540432,180.39694417530754 L186.63601228087268,183.2746512803819 L185.2291489669089,186.0544199624634 L182.6430626818144,188.18377783544983 L179.1950093523571,189.16471440128973 L175.4085366212563,188.6578556260575 L171.9341148634934,186.56517303387213 L169.438126846846,183.07357048018818 L168.47905494240496,178.64802922373428 L169.39335061773212,173.97181711610898 L172.21310317398712,169.84105134273085 L176.6331181093978,167.02987639477809 " fill="none" stroke="#1e3c72" stroke-width="2.4" stroke-linecap="round" stroke-opacity="1"/><path d="M180,20 L180,22 L179.02645414422838,22.30265248500721 L177.84793172730144,22.090120128041498 L176.7378631991147,21.268252140668356 L176.00170558783398,19.883201910794845 L175.90816157928444,18.12733923553786 L176.62268409724425,16.313031422293772 L178.15756517414252,14.81777712632238 L180.35024486056548,14.010231345231482 L182.87638288141653,14.171070293828043 L185.2976174671555,15.424494653954717 L187.13701555417137,17.695003475161855 L187.96931687068673,20.69999186751558 L187.5093645736213,23.982391706053207 L185.68139974085088,26.98009290659225 L182.6544472328898,29.121617723178474 L178.83450795149506,29.931849187581925 L174.81180981304462,29.12867364867316 " fill="none" stroke="#d4af37" stroke-width="2" stroke-linecap="round" stroke-opacity="1"/><path d="M20,180 L20,178 L20.973545855771626,177.6973475149928 L22.152068272698568,177.9098798719585 L23.262136800885294,178.73174785933165 L23.99829441216602,180.11679808920516 L24.09183842071557,181.87266076446215 L23.377315902755754,183.68696857770624 L21.842434825857474,185.18222287367763 L19.649755139434518,185.9897686547685 L17.123617118583457,185.82892970617195 L14.702382532844503,184.57550534604528 L12.86298444582863,182.30499652483815 L12.030683129313275,179.3000081324844 L12.490635426378699,176.0176082939468 L14.318600259149113,173.01990709340774 L17.345552767110206,170.87838227682153 L21.165492048504937,170.06815081241808 L25.188190186955396,170.87132635132684 " fill="none" stroke="#d4af37" stroke-width="2" stroke-linecap="round" stroke-opacity="1"/><rect x="5" y="5" width="190" height="190" fill="none" stroke="#002366" stroke-width="8" stroke-opacity="0.88"/></svg>