<svg xmlns="http://www.w3.org/2000/svg" width="200" height="200" viewBox="0 0 200 200"><defs></defs><rect width="200" height="200" fill="#ffffff"/><g class="pattern"><g class="symmetry-radial"><polygon points="100,100 109.625,109.625 90.375,109.625" fill="#8b4513" fill-opacity="0.8" stroke="#6d2700" stroke-width="5.5"/><polygon points="110.625,109.625 120.25,100 101,100" fill="#d2691e" fill-opacity="0.8" stroke="#b44b00" stroke-width="5.5"/><polygon points="121.25,100 130.875,109.625 111.625,109.625" fill="#f5deb3" fill-opacity="0.8" stroke="#d7c095" stroke-width="5.5"/><polygon points="131.875,109.625 141.5,100 122.25,100" fill="#cd853f" fill-opacity="0.8" stroke="#af6721" stroke-width="5.5"/><polygon points="142.5,100 152.125,109.625 132.875,109.625" fill="#bc8f8f" fill-opacity="0.8" stroke="#9e7171" stroke-width="5.5"/><polygon points="153.125,109.625 162.75,100 143.5,100" fill="#8b4513" fill-opacity="0.8" stroke="#6d2700" stroke-width="5.5"/><polygon points="163.75,100 173.375,109.625 154.125,109.625" fill="#d2691e" fill-opacity="0.8" stroke="#b44b00" stroke-width="5.5"/><polygon points="174.375,109.625 184,100 164.75,100" fill="#f5deb3" fill-opacity="0.8" stroke="#d7c095" stroke-width="5.5"/><polygon points="121.25,130.875 130.875,121.25 111.625,121.25" fill="#cd853f" fill-opacity="0.8" stroke="#af6721" stroke-width="5.5"/><polygon points="131.875,121.25 141.5,130.875 122.25,130.875" fill="#bc8f8f" fill-opacity="0.8" stroke="#9e7171" stroke-width="5.5"/><polygon points="142.5,130.875 152.125,121.25 132.875,121.25" fill="#8b4513" fill-opacity="0.8" stroke="#6d2700" stroke-width="5.5"/><polygon points="153.125,121.25 162.75,130.875 143.5,130.875" fill="#d2691e" fill-opacity="0.8" stroke="#b44b00" stroke-width="5.5"/><polygon points="163.75,130.875 173.375,121.25 154.125,121.25" fill="#f5deb3" fill-opacity="0.8" stroke="#d7c095" stroke-width="5.5"/><polygon points="174.375,121.25 184,130.875 164.75,130.875" fill="#cd853f" fill-opacity="0.8" stroke="#af6721" stroke-width="5.5"/><polygon points="142.5,142.5 152.125,152.125 132.875,152.125" fill="#d2691e" fill-opacity="0.8" stroke="#b44b00" stroke-width="5.5"/><polygon points="153.125,152.125 162.75,142.5 143.5,142.5" fill="#f5deb3" fill-opacity="0.8" stroke="#d7c095" stroke-width="5.5"/><polygon points="163.75,142.5 173.375,152.125 154.125,152.125" fill="#cd853f" fill-opacity="0.8" stroke="#af6721" stroke-width="5.5"/><polygon points="174.375,152.125 184,142.5 164.75,142.5" fill="#bc8f8f" fill-opacity="0.8" stroke="#9e7171" stroke-width="5.5"/><polygon points="163.75,173.375 173.375,163.75 154.125,163.75" fill="#bc8f8f" fill-opacity="0.8" stroke="#9e7171" stroke-width="5.5"/><polygon points="174.375,163.75 184,173.375 164.75,173.375" fill="#8b4513" fill-opacity="0.8" stroke="#6d2700" stroke-width="5.5"/><g transform="rotate(45, 100, 100)"><polygon points="100,100 109.625,109.625 90.375,109.625" fill="#8b4513" fill-opacity="0.8" stroke="#6d2700" stroke-width="5.5"/><polygon points="110.625,109.625 120.25,100 101,100" fill="#d2691e" fill-opacity="0.8" stroke="#b44b00" stroke-width="5.5"/><polygon points="121.25,100 130.875,109.625 111.625,109.625" fill="#f5deb3" fill-opacity="0.8" stroke="#d7c095" stroke-width="5.5"/><polygon points="131.875,109.625 141.5,100 122.25,100" fill="#cd853f" fill-opacity="0.8" stroke="#af6721" stroke-width="5.5"/><polygon points="142.5,100 152.125,109.625 132.875,109.625" fill="#bc8f8f" fill-opacity="0.8" stroke="#9e7171" stroke-width="5.5"/><polygon points="153.125,109.625 162.75,100 143.5,100" fill="#8b4513" fill-opacity="0.8" stroke="#6d2700" stroke-width="5.5"/><polygon points="163.75,100 173.375,109.625 154.125,109.625" fill="#d2691e" fill-opacity="0.8" stroke="#b44b00" stroke-width="5.5"/><polygon points="174.375,109.625 184,100 164.75,100" fill="#f5deb3" fill-opacity="0.8" stroke="#d7c095" stroke-width="5.5"/><polygon points="121.25,130.875 130.875,121.25 111.625,121.25" fill="#cd853f" fill-opacity="0.8" stroke="#af6721" stroke-width="5.5"/><polygon points="131.875,121.25 141.5,130.875 122.25,130.875" fill="#bc8f8f" fill-opacity="0.8" stroke="#9e7171" stroke-width="5.5"/><polygon points="142.5,130.875 152.125,121.25 132.875,121.25" fill="#8b4513" fill-opacity="0.8" stroke="#6d2700" stroke-width="5.5"/><polygon points="153.125,121.25 162.75,130.875 143.5,130.875" fill="#d2691e" fill-opacity="0.8" stroke="#b44b00" stroke-width="5.5"/><polygon points="163.75,130.875 173.375,121.25 154.125,121.25" fill="#f5deb3" fill-opacity="0.8" stroke="#d7c095" stroke-width="5.5"/><polygon points="174.375,121.25 184,130.875 164.75,130.875" fill="#cd853f" fill-opacity="0.8" stroke="#af6721" stroke-width="5.5"/><polygon points="142.5,142.5 152.125,152.125 132.875,152.125" fill="#d2691e" fill-opacity="0.8" stroke="#b44b00" stroke-width="5.5"/><polygon points="153.125,152.125 162.75,142.5 143.5,142.5" fill="#f5deb3" fill-opacity="0.8" stroke="#d7c095" stroke-width="5.5"/><polygon points="163.75,142.5 173.375,152.125 154.125,152.125" fill="#cd853f" fill-opacity="0.8" stroke="#af6721" stroke-width="5.5"/><polygon points="174.375,152.125 184,142.5 164.75,142.5" fill="#bc8f8f" fill-opacity="0.8" stroke="#9e7171" stroke-width="5.5"/><polygon points="163.75,173.375 173.375,163.75 154.125,163.75" fill="#bc8f8f" fill-opacity="0.8" stroke="#9e7171" stroke-width="5.5"/><polygon points="174.375,163.75 184,173.375 164.75,173.375" fill="#8b4513" fill-opacity="0.8" stroke="#6d2700" stroke-width="5.5"/></g><g transform="rotate(90, 100, 100)"><polygon points="100,100 109.625,109.625 90.375,109.625" fill="#8b4513" fill-opacity="0.8" stroke="#6d2700" stroke-width="5.5"/><polygon points="110.625,109.625 120.25,100 101,100" fill="#d2691e" fill-opacity="0.8" stroke="#b44b00" stroke-width="5.5"/><polygon points="121.25,100 130.875,109.625 111.625,109.625" fill="#f5deb3" fill-opacity="0.8" stroke="#d7c095" stroke-width="5.5"/><polygon points="131.875,109.625 141.5,100 122.25,100" fill="#cd853f" fill-opacity="0.8" stroke="#af6721" stroke-width="5.5"/><polygon points="142.5,100 152.125,109.625 132.875,109.625" fill="#bc8f8f" fill-opacity="0.8" stroke="#9e7171" stroke-width="5.5"/><polygon points="153.125,109.625 162.75,100 143.5,100" fill="#8b4513" fill-opacity="0.8" stroke="#6d2700" stroke-width="5.5"/><polygon points="163.75,100 173.375,109.625 154.125,109.625" fill="#d2691e" fill-opacity="0.8" stroke="#b44b00" stroke-width="5.5"/><polygon points="174.375,109.625 184,100 164.75,100" fill="#f5deb3" fill-opacity="0.8" stroke="#d7c095" stroke-width="5.5"/><polygon points="121.25,130.875 130.875,121.25 111.625,121.25" fill="#cd853f" fill-opacity="0.8" stroke="#af6721" stroke-width="5.5"/><polygon points="131.875,121.25 141.5,130.875 122.25,130.875" fill="#bc8f8f" fill-opacity="0.8" stroke="#9e7171" stroke-width="5.5"/><polygon points="142.5,130.875 152.125,121.25 132.875,121.25" fill="#8b4513" fill-opacity="0.8" stroke="#6d2700" stroke-width="5.5"/><polygon points="153.125,121.25 162.75,130.875 143.5,130.875" fill="#d2691e" fill-opacity="0.8" stroke="#b44b00" stroke-width="5.5"/><polygon points="163.75,130.875 173.375,121.25 154.125,121.25" fill="#f5deb3" fill-opacity="0.8" stroke="#d7c095" stroke-width="5.5"/><polygon points="174.375,121.25 184,130.875 164.75,130.875" fill="#cd853f" fill-opacity="0.8" stroke="#af6721" stroke-width="5.5"/><polygon points="142.5,142.5 152.125,152.125 132.875,152.125" fill="#d2691e" fill-opacity="0.8" stroke="#b44b00" stroke-width="5.5"/><polygon points="153.125,152.125 162.75,142.5 143.5,142.5" fill="#f5deb3" fill-opacity="0.8" stroke="#d7c095" stroke-width="5.5"/><polygon points="163.75,142.5 173.375,152.125 154.125,152.125" fill="#cd853f" fill-opacity="0.8" stroke="#af6721" stroke-width="5.5"/><polygon points="174.375,152.125 184,142.5 164.75,142.5" fill="#bc8f8f" fill-opacity="0.8" stroke="#9e7171" stroke-width="5.5"/><polygon points="163.75,173.375 173.375,163.75 154.125,163.75" fill="#bc8f8f" fill-opacity="0.8" stroke="#9e7171" stroke-width="5.5"/><polygon points="174.375,163.75 184,173.375 164.75,173.375" fill="#8b4513" fill-opacity="0.8" stroke="#6d2700" stroke-width="5.5"/></g><g transform="rotate(135, 100, 100)"><polygon points="100,100 109.625,109.625 90.375,109.625" fill="#8b4513" fill-opacity="0.8" stroke="#6d2700" stroke-width="5.5"/><polygon points="110.625,109.625 120.25,100 101,100" fill="#d2691e" fill-opacity="0.8" stroke="#b44b00" stroke-width="5.5"/><polygon points="121.25,100 130.875,109.625 111.625,109.625" fill="#f5deb3" fill-opacity="0.8" stroke="#d7c095" stroke-width="5.5"/><polygon points="131.875,109.625 141.5,100 122.25,100" fill="#cd853f" fill-opacity="0.8" stroke="#af6721" stroke-width="5.5"/><polygon points="142.5,100 152.125,109.625 132.875,109.625" fill="#bc8f8f" fill-opacity="0.8" stroke="#9e7171" stroke-width="5.5"/><polygon points="153.125,109.625 162.75,100 143.5,100" fill="#8b4513" fill-opacity="0.8" stroke="#6d2700" stroke-width="5.5"/><polygon points="163.75,100 173.375,109.625 154.125,109.625" fill="#d2691e" fill-opacity="0.8" stroke="#b44b00" stroke-width="5.5"/><polygon points="174.375,109.625 184,100 164.75,100" fill="#f5deb3" fill-opacity="0.8" stroke="#d7c095" stroke-width="5.5"/><polygon points="121.25,130.875 130.875,121.25 111.625,121.25" fill="#cd853f" fill-opacity="0.8" stroke="#af6721" stroke-width="5.5"/><polygon points="131.875,121.25 141.5,130.875 122.25,130.875" fill="#bc8f8f" fill-opacity="0.8" stroke="#9e7171" stroke-width="5.5"/><polygon points="142.5,130.875 152.125,121.25 132.875,121.25" fill="#8b4513" fill-opacity="0.8" stroke="#6d2700" stroke-width="5.5"/><polygon points="153.125,121.25 162.75,130.875 143.5,130.875" fill="#d2691e" fill-opacity="0.8" stroke="#b44b00" stroke-width="5.5"/><polygon points="163.75,130.875 173.375,121.25 154.125,121.25" fill="#f5deb3" fill-opacity="0.8" stroke="#d7c095" stroke-width="5.5"/><polygon points="174.375,121.25 184,130.875 164.75,130.875" fill="#cd853f" fill-opacity="0.8" stroke="#af6721" stroke-width="5.5"/><polygon points="142.5,142.5 152.125,152.125 132.875,152.125" fill="#d2691e" fill-opacity="0.8" stroke="#b44b00" stroke-width="5.5"/><polygon points="153.125,152.125 162.75,142.5 143.5,142.5" fill="#f5deb3" fill-opacity="0.8" stroke="#d7c095" stroke-width="5.5"/><polygon points="163.75,142.5 173.375,152.125 154.125,152.125" fill="#cd853f" fill-opacity="0.8" stroke="#af6721" stroke-width="5.5"/><polygon points="174.375,152.125 184,142.5 164.75,142.5" fill="#bc8f8f" fill-opacity="0.8" stroke="#9e7171" stroke-width="5.5"/><polygon points="163.75,173.375 173.375,163.75 154.125,163.75" fill="#bc8f8f" fill-opacity="0.8" stroke="#9e7171" stroke-width="5.5"/><polygon points="174.375,163.75 184,173.375 164.75,173.375" fill="#8b4513" fill-opacity="0.8" stroke="#6d2700" stroke-width="5.5"/></g><g transform="rotate(180, 100, 100)"><polygon points="100,100 109.625,109.625 90.375,109.625" fill="#8b4513" fill-opacity="0.8" stroke="#6d2700" stroke-width="5.5"/><polygon points="110.625,109.625 120.25,100 101,100" fill="#d2691e" fill-opacity="0.8" stroke="#b44b00" stroke-width="5.5"/><polygon points="121.25,100 130.875,109.625 111.625,109.625" fill="#f5deb3" fill-opacity="0.8" stroke="#d7c095" stroke-width="5.5"/><polygon points="131.875,109.625 141.5,100 122.25,100" fill="#cd853f" fill-opacity="0.8" stroke="#af6721" stroke-width="5.5"/><polygon points="142.5,100 152.125,109.625 132.875,109.625" fill="#bc8f8f" fill-opacity="0.8" stroke="#9e7171" stroke-width="5.5"/><polygon points="153.125,109.625 162.75,100 143.5,100" fill="#8b4513" fill-opacity="0.8" stroke="#6d2700" stroke-width="5.5"/><polygon points="163.75,100 173.375,109.625 154.125,109.625" fill="#d2691e" fill-opacity="0.8" stroke="#b44b00" stroke-width="5.5"/><polygon points="174.375,109.625 184,100 164.75,100" fill="#f5deb3" fill-opacity="0.8" stroke="#d7c095" stroke-width="5.5"/><polygon points="121.25,130.875 130.875,121.25 111.625,121.25" fill="#cd853f" fill-opacity="0.8" stroke="#af6721" stroke-width="5.5"/><polygon points="131.875,121.25 141.5,130.875 122.25,130.875" fill="#bc8f8f" fill-opacity="0.8" stroke="#9e7171" stroke-width="5.5"/><polygon points="142.5,130.875 152.125,121.25 132.875,121.25" fill="#8b4513" fill-opacity="0.8" stroke="#6d2700" stroke-width="5.5"/><polygon points="153.125,121.25 162.75,130.875 143.5,130.875" fill="#d2691e" fill-opacity="0.8" stroke="#b44b00" stroke-width="5.5"/><polygon points="163.75,130.875 173.375,121.25 154.125,121.25" fill="#f5deb3" fill-opacity="0.8" stroke="#d7c095" stroke-width="5.5"/><polygon points="174.375,121.25 184,130.875 164.75,130.875" fill="#cd853f" fill-opacity="0.8" stroke="#af6721" stroke-width="5.5"/><polygon points="142.5,142.5 152.125,152.125 132.875,152.125" fill="#d2691e" fill-opacity="0.8" stroke="#b44b00" stroke-width="5.5"/><polygon points="153.125,152.125 162.75,142.5 143.5,142.5" fill="#f5deb3" fill-opacity="0.8" stroke="#d7c095" stroke-width="5.5"/><polygon points="163.75,142.5 173.375,152.125 154.125,152.125" fill="#cd853f" fill-opacity="0.8" stroke="#af6721" stroke-width="5.5"/><polygon points="174.375,152.125 184,142.5 164.75,142.5" fill="#bc8f8f" fill-opacity="0.8" stroke="#9e7171" stroke-width="5.5"/><polygon points="163.75,173.375 173.375,163.75 154.125,163.75" fill="#bc8f8f" fill-opacity="0.8" stroke="#9e7171" stroke-width="5.5"/><polygon points="174.375,163.75 184,173.375 164.75,173.375" fill="#8b4513" fill-opacity="0.8" stroke="#6d2700" stroke-width="5.5"/></g><g transform="rotate(225, 100, 100)"><polygon points="100,100 109.625,109.625 90.375,109.625" fill="#8b4513" fill-opacity="0.8" stroke="#6d2700" stroke-width="5.5"/><polygon points="110.625,109.625 120.25,100 101,100" fill="#d2691e" fill-opacity="0.8" stroke="#b44b00" stroke-width="5.5"/><polygon points="121.25,100 130.875,109.625 111.625,109.625" fill="#f5deb3" fill-opacity="0.8" stroke="#d7c095" stroke-width="5.5"/><polygon points="131.875,109.625 141.5,100 122.25,100" fill="#cd853f" fill-opacity="0.8" stroke="#af6721" stroke-width="5.5"/><polygon points="142.5,100 152.125,109.625 132.875,109.625" fill="#bc8f8f" fill-opacity="0.8" stroke="#9e7171" stroke-width="5.5"/><polygon points="153.125,109.625 162.75,100 143.5,100" fill="#8b4513" fill-opacity="0.8" stroke="#6d2700" stroke-width="5.5"/><polygon points="163.75,100 173.375,109.625 154.125,109.625" fill="#d2691e" fill-opacity="0.8" stroke="#b44b00" stroke-width="5.5"/><polygon points="174.375,109.625 184,100 164.75,100" fill="#f5deb3" fill-opacity="0.8" stroke="#d7c095" stroke-width="5.5"/><polygon points="121.25,130.875 130.875,121.25 111.625,121.25" fill="#cd853f" fill-opacity="0.8" stroke="#af6721" stroke-width="5.5"/><polygon points="131.875,121.25 141.5,130.875 122.25,130.875" fill="#bc8f8f" fill-opacity="0.8" stroke="#9e7171" stroke-width="5.5"/><polygon points="142.5,130.875 152.125,121.25 132.875,121.25" fill="#8b4513" fill-opacity="0.8" stroke="#6d2700" stroke-width="5.5"/><polygon points="153.125,121.25 162.75,130.875 143.5,130.875" fill="#d2691e" fill-opacity="0.8" stroke="#b44b00" stroke-width="5.5"/><polygon points="163.75,130.875 173.375,121.25 154.125,121.25" fill="#f5deb3" fill-opacity="0.8" stroke="#d7c095" stroke-width="5.5"/><polygon points="174.375,121.25 184,130.875 164.75,130.875" fill="#cd853f" fill-opacity="0.8" stroke="#af6721" stroke-width="5.5"/><polygon points="142.5,142.5 152.125,152.125 132.875,152.125" fill="#d2691e" fill-opacity="0.8" stroke="#b44b00" stroke-width="5.5"/><polygon points="153.125,152.125 162.75,142.5 143.5,142.5" fill="#f5deb3" fill-opacity="0.8" stroke="#d7c095" stroke-width="5.5"/><polygon points="163.75,142.5 173.375,152.125 154.125,152.125" fill="#cd853f" fill-opacity="0.8" stroke="#af6721" stroke-width="5.5"/><polygon points="174.375,152.125 184,142.5 164.75,142.5" fill="#bc8f8f" fill-opacity="0.8" stroke="#9e7171" stroke-width="5.5"/><polygon points="163.75,173.375 173.375,163.75 154.125,163.75" fill="#bc8f8f" fill-opacity="0.8" stroke="#9e7171" stroke-width="5.5"/><polygon points="174.375,163.75 184,173.375 164.75,173.375" fill="#8b4513" fill-opacity="0.8" stroke="#6d2700" stroke-width="5.5"/></g><g transform="rotate(270, 100, 100)"><polygon points="100,100 109.625,109.625 90.375,109.625" fill="#8b4513" fill-opacity="0.8" stroke="#6d2700" stroke-width="5.5"/><polygon points="110.625,109.625 120.25,100 101,100" fill="#d2691e" fill-opacity="0.8" stroke="#b44b00" stroke-width="5.5"/><polygon points="121.25,100 130.875,109.625 111.625,109.625" fill="#f5deb3" fill-opacity="0.8" stroke="#d7c095" stroke-width="5.5"/><polygon points="131.875,109.625 141.5,100 122.25,100" fill="#cd853f" fill-opacity="0.8" stroke="#af6721" stroke-width="5.5"/><polygon points="142.5,100 152.125,109.625 132.875,109.625" fill="#bc8f8f" fill-opacity="0.8" stroke="#9e7171" stroke-width="5.5"/><polygon points="153.125,109.625 162.75,100 143.5,100" fill="#8b4513" fill-opacity="0.8" stroke="#6d2700" stroke-width="5.5"/><polygon points="163.75,100 173.375,109.625 154.125,109.625" fill="#d2691e" fill-opacity="0.8" stroke="#b44b00" stroke-width="5.5"/><polygon points="174.375,109.625 184,100 164.75,100" fill="#f5deb3" fill-opacity="0.8" stroke="#d7c095" stroke-width="5.5"/><polygon points="121.25,130.875 130.875,121.25 111.625,121.25" fill="#cd853f" fill-opacity="0.8" stroke="#af6721" stroke-width="5.5"/><polygon points="131.875,121.25 141.5,130.875 122.25,130.875" fill="#bc8f8f" fill-opacity="0.8" stroke="#9e7171" stroke-width="5.5"/><polygon points="142.5,130.875 152.125,121.25 132.875,121.25" fill="#8b4513" fill-opacity="0.8" stroke="#6d2700" stroke-width="5.5"/><polygon points="153.125,121.25 162.75,130.875 143.5,130.875" fill="#d2691e" fill-opacity="0.8" stroke="#b44b00" stroke-width="5.5"/><polygon points="163.75,130.875 173.375,121.25 154.125,121.25" fill="#f5deb3" fill-opacity="0.8" stroke="#d7c095" stroke-width="5.5"/><polygon points="174.375,121.25 184,130.875 164.75,130.875" fill="#cd853f" fill-opacity="0.8" stroke="#af6721" stroke-width="5.5"/><polygon points="142.5,142.5 152.125,152.125 132.875,152.125" fill="#d2691e" fill-opacity="0.8" stroke="#b44b00" stroke-width="5.5"/><polygon points="153.125,152.125 162.75,142.5 143.5,142.5" fill="#f5deb3" fill-opacity="0.8" stroke="#d7c095" stroke-width="5.5"/><polygon points="163.75,142.5 173.375,152.125 154.125,152.125" fill="#cd853f" fill-opacity="0.8" stroke="#af6721" stroke-width="5.5"/><polygon points="174.375,152.125 184,142.5 164.75,142.5" fill="#bc8f8f" fill-opacity="0.8" stroke="#9e7171" stroke-width="5.5"/><polygon points="163.75,173.375 173.375,163.75 154.125,163.75" fill="#bc8f8f" fill-opacity="0.8" stroke="#9e7171" stroke-width="5.5"/><polygon points="174.375,163.75 184,173.375 164.75,173.375" fill="#8b4513" fill-opacity="0.8" stroke="#6d2700" stroke-width="5.5"/></g><g transform="rotate(315, 100, 100)"><polygon points="100,100 109.625,109.625 90.375,109.625" fill="#8b4513" fill-opacity="0.8" stroke="#6d2700" stroke-width="5.5"/><polygon points="110.625,109.625 120.25,100 101,100" fill="#d2691e" fill-opacity="0.8" stroke="#b44b00" stroke-width="5.5"/><polygon points="121.25,100 130.875,109.625 111.625,109.625" fill="#f5deb3" fill-opacity="0.8" stroke="#d7c095" stroke-width="5.5"/><polygon points="131.875,109.625 141.5,100 122.25,100" fill="#cd853f" fill-opacity="0.8" stroke="#af6721" stroke-width="5.5"/><polygon points="142.5,100 152.125,109.625 132.875,109.625" fill="#bc8f8f" fill-opacity="0.8" stroke="#9e7171" stroke-width="5.5"/><polygon points="153.125,109.625 162.75,100 143.5,100" fill="#8b4513" fill-opacity="0.8" stroke="#6d2700" stroke-width="5.5"/><polygon points="163.75,100 173.375,109.625 154.125,109.625" fill="#d2691e" fill-opacity="0.8" stroke="#b44b00" stroke-width="5.5"/><polygon points="174.375,109.625 184,100 164.75,100" fill="#f5deb3" fill-opacity="0.8" stroke="#d7c095" stroke-width="5.5"/><polygon points="121.25,130.875 130.875,121.25 111.625,121.25" fill="#cd853f" fill-opacity="0.8" stroke="#af6721" stroke-width="5.5"/><polygon points="131.875,121.25 141.5,130.875 122.25,130.875" fill="#bc8f8f" fill-opacity="0.8" stroke="#9e7171" stroke-width="5.5"/><polygon points="142.5,130.875 152.125,121.25 132.875,121.25" fill="#8b4513" fill-opacity="0.8" stroke="#6d2700" stroke-width="5.5"/><polygon points="153.125,121.25 162.75,130.875 143.5,130.875" fill="#d2691e" fill-opacity="0.8" stroke="#b44b00" stroke-width="5.5"/><polygon points="163.75,130.875 173.375,121.25 154.125,121.25" fill="#f5deb3" fill-opacity="0.8" stroke="#d7c095" stroke-width="5.5"/><polygon points="174.375,121.25 184,130.875 164.75,130.875" fill="#cd853f" fill-opacity="0.8" stroke="#af6721" stroke-width="5.5"/><polygon points="142.5,142.5 152.125,152.125 132.875,152.125" fill="#d2691e" fill-opacity="0.8" stroke="#b44b00" stroke-width="5.5"/><polygon points="153.125,152.125 162.75,142.5 143.5,142.5" fill="#f5deb3" fill-opacity="0.8" stroke="#d7c095" stroke-width="5.5"/><polygon points="163.75,142.5 173.375,152.125 154.125,152.125" fill="#cd853f" fill-opacity="0.8" stroke="#af6721" stroke-width="5.5"/><polygon points="174.375,152.125 184,142.5 164.75,142.5" fill="#bc8f8f" fill-opacity="0.8" stroke="#9e7171" stroke-width="5.5"/><polygon points="163.75,173.375 173.375,163.75 154.125,163.75" fill="#bc8f8f" fill-opacity="0.8" stroke="#9e7171" stroke-width="5.5"/><polygon points="174.375,163.75 184,173.375 164.75,173.375" fill="#8b4513" fill-opacity="0.8" stroke="#6d2700" stroke-width="5.5"/></g></g></g><circle cx="100" cy="100" r="15" fill="#cd853f" fill-opacity="0.8" stroke="#a55d17" stroke-width="4"/><line x1="115" y1="100" x2="135" y2="100" stroke="#cd853f" stroke-width="4" stroke-linecap="round" stroke-opacity="1"/><line x1="112.99038105676658" y1="107.5" x2="130.31088913245534" y2="117.5" stroke="#bc8f8f" stroke-width="4" stroke-linecap="round" stroke-opacity="1"/><line x1="107.5" y1="112.99038105676658" x2="117.5" y2="130.31088913245534" stroke="#8b4513" stroke-width="4" stroke-linecap="round" stroke-opacity="1"/><line x1="100" y1="115" x2="100" y2="135" stroke="#d2691e" stroke-width="4" stroke-linecap="round" stroke-opacity="1"/><line x1="92.5" y1="112.99038105676658" x2="82.5" y2="130.31088913245534" stroke="#f5deb3" stroke-width="4" stroke-linecap="round" stroke-opacity="1"/><line x1="87.00961894323342" y1="107.5" x2="69.68911086754464" y2="117.5" stroke="#cd853f" stroke-width="4" stroke-linecap="round" stroke-opacity="1"/><line x1="85" y1="100" x2="65" y2="100" stroke="#bc8f8f" stroke-width="4" stroke-linecap="round" stroke-opacity="1"/><line x1="87.00961894323342" y1="92.5" x2="69.68911086754466" y2="82.5" stroke="#8b4513" stroke-width="4" stroke-linecap="round" stroke-opacity="1"/><line x1="92.5" y1="87.00961894323342" x2="82.49999999999999" y2="69.68911086754466" stroke="#d2691e" stroke-width="4" stroke-linecap="round" stroke-opacity="1"/><line x1="100" y1="85" x2="100" y2="65" stroke="#f5deb3" stroke-width="4" stroke-linecap="round" stroke-opacity="1"/><line x1="107.5" y1="87.00961894323342" x2="117.5" y2="69.68911086754466" stroke="#cd853f" stroke-width="4" stroke-linecap="round" stroke-opacity="1"/><line x1="112.99038105676658" y1="92.5" x2="130.31088913245534" y2="82.49999999999999" stroke="#bc8f8f" stroke-width="4" stroke-linecap="round" stroke-opacity="1"/><circle cx="100" cy="100" r="6" fill="#bc8f8f" stroke="#946767" stroke-width="2"/><path d="M8,15 A7,7 0 0,1 15,8" fill="none" stroke="#cd853f" stroke-width="2" stroke-linecap="round" stroke-opacity="1"/><path d="M192,185 A7,7 0 0,1 185,192" fill="none" stroke="#cd853f" stroke-width="2" stroke-linecap="round" stroke-opacity="1"/><path d="M1,15 A14,14 0 0,1 15,1" fill="none" stroke="#cd853f" stroke-width="2" stroke-linecap="round" stroke-opacity="1"/><path d="M199,185 A14,14 0 0,1 185,199" fill="none" stroke="#cd853f" stroke-width="2" stroke-linecap="round" stroke-opacity="1"/><path d="M185,9 A6,6 0 0,1 191,15" fill="none" stroke="#bc8f8f" stroke-width="1.6" stroke-linecap="round" stroke-opacity="1"/><path d="M15,191 A6,6 0 0,1 9,185" fill="none" stroke="#bc8f8f" stroke-width="1.6" stroke-linecap="round" stroke-opacity="1"/><path d="M185,3 A12,12 0 0,1 197,15" fill="none" stroke="#bc8f8f" stroke-width="1.6" stroke-linecap="round" stroke-opacity="1"/><path d="M15,197 A12,12 0 0,1 3,185" fill="none" stroke="#bc8f8f" stroke-width="1.6" stroke-linecap="round" stroke-opacity="1"/><rect x="5" y="5" width="190" height="190" fill="none" stroke="#002366" stroke-width="8" stroke-opacity="0.88"/></svg>