<svg xmlns="http://www.w3.org/2000/svg" width="200" height="200" viewBox="0 0 200 200"><defs></defs><rect width="200" height="200" fill="#ffffff"/><g class="pattern"><g class="symmetry-vertical"><line x1="15" y1="15" x2="185" y2="185" stroke="#e3f2fd" stroke-width="5.5"/><line x1="15" y1="15" x2="185" y2="185" stroke="#e3f2fd" stroke-width="5.5"/><line x1="39.285714285714285" y1="15" x2="185" y2="160.71428571428572" stroke="#bbdefb" stroke-width="5.5"/><line x1="15" y1="39.285714285714285" x2="160.71428571428572" y2="185" stroke="#bbdefb" stroke-width="5.5"/><line x1="63.57142857142857" y1="15" x2="185" y2="136.42857142857144" stroke="#90caf9" stroke-width="5.5"/><line x1="15" y1="63.57142857142857" x2="136.42857142857144" y2="185" stroke="#90caf9" stroke-width="5.5"/><line x1="87.85714285714286" y1="15" x2="185" y2="112.14285714285714" stroke="#64b5f6" stroke-width="5.5"/><line x1="15" y1="87.85714285714286" x2="112.14285714285714" y2="185" stroke="#64b5f6" stroke-width="5.5"/><line x1="112.14285714285714" y1="15" x2="185" y2="87.85714285714286" stroke="#42a5f5" stroke-width="5.5"/><line x1="15" y1="112.14285714285714" x2="87.85714285714286" y2="185" stroke="#42a5f5" stroke-width="5.5"/><line x1="136.42857142857142" y1="15" x2="185" y2="63.571428571428584" stroke="#2196f3" stroke-width="5.5"/><line x1="15" y1="136.42857142857142" x2="63.571428571428584" y2="185" stroke="#2196f3" stroke-width="5.5"/><line x1="160.71428571428572" y1="15" x2="185" y2="39.28571428571428" stroke="#e3f2fd" stroke-width="5.5"/><line x1="15" y1="160.71428571428572" x2="39.28571428571428" y2="185" stroke="#e3f2fd" stroke-width="5.5"/><line x1="185" y1="15" x2="185" y2="15" stroke="#bbdefb" stroke-width="5.5"/><line x1="15" y1="185" x2="15" y2="185" stroke="#bbdefb" stroke-width="5.5"/><circle cx="39.285714285714285" cy="39.285714285714285" r="3" fill="#e3f2fd"/><circle cx="39.285714285714285" cy="63.57142857142857" r="3" fill="#e3f2fd"/><circle cx="39.285714285714285" cy="87.85714285714286" r="3" fill="#e3f2fd"/><circle cx="39.285714285714285" cy="112.14285714285714" r="3" fill="#e3f2fd"/><circle cx="39.285714285714285" cy="136.42857142857142" r="3" fill="#e3f2fd"/><circle cx="39.285714285714285" cy="160.71428571428572" r="3" fill="#e3f2fd"/><circle cx="63.57142857142857" cy="39.285714285714285" r="3" fill="#e3f2fd"/><circle cx="63.57142857142857" cy="63.57142857142857" r="3" fill="#e3f2fd"/><circle cx="63.57142857142857" cy="87.85714285714286" r="3" fill="#e3f2fd"/><circle cx="63.57142857142857" cy="112.14285714285714" r="3" fill="#e3f2fd"/><circle cx="63.57142857142857" cy="136.42857142857142" r="3" fill="#e3f2fd"/><circle cx="63.57142857142857" cy="160.71428571428572" r="3" fill="#e3f2fd"/><circle cx="87.85714285714286" cy="39.285714285714285" r="3" fill="#e3f2fd"/><circle cx="87.85714285714286" cy="63.57142857142857" r="3" fill="#e3f2fd"/><circle cx="87.85714285714286" cy="87.85714285714286" r="3" fill="#e3f2fd"/><circle cx="87.85714285714286" cy="112.14285714285714" r="3" fill="#e3f2fd"/><circle cx="87.85714285714286" cy="136.42857142857142" r="3" fill="#e3f2fd"/><circle cx="87.85714285714286" cy="160.71428571428572" r="3" fill="#e3f2fd"/><circle cx="112.14285714285714" cy="39.285714285714285" r="3" fill="#e3f2fd"/><circle cx="112.14285714285714" cy="63.57142857142857" r="3" fill="#e3f2fd"/><circle cx="112.14285714285714" cy="87.85714285714286" r="3" fill="#e3f2fd"/><circle cx="112.14285714285714" cy="112.14285714285714" r="3" fill="#e3f2fd"/><circle cx="112.14285714285714" cy="136.42857142857142" r="3" fill="#e3f2fd"/><circle cx="112.14285714285714" cy="160.71428571428572" r="3" fill="#e3f2fd"/><circle cx="136.42857142857142" cy="39.285714285714285" r="3" fill="#e3f2fd"/><circle cx="136.42857142857142" cy="63.57142857142857" r="3" fill="#e3f2fd"/><circle cx="136.42857142857142" cy="87.85714285714286" r="3" fill="#e3f2fd"/><circle cx="136.42857142857142" cy="112.14285714285714" r="3" fill="#e3f2fd"/><circle cx="136.42857142857142" cy="136.42857142857142" r="3" fill="#e3f2fd"/><circle cx="136.42857142857142" cy="160.71428571428572" r="3" fill="#e3f2fd"/><circle cx="160.71428571428572" cy="39.285714285714285" r="3" fill="#e3f2fd"/><circle cx="160.71428571428572" cy="63.57142857142857" r="3" fill="#e3f2fd"/><circle cx="160.71428571428572" cy="87.85714285714286" r="3" fill="#e3f2fd"/><circle cx="160.71428571428572" cy="112.14285714285714" r="3" fill="#e3f2fd"/><circle cx="160.71428571428572" cy="136.42857142857142" r="3" fill="#e3f2fd"/><circle cx="160.71428571428572" cy="160.71428571428572" r="3" fill="#e3f2fd"/><g transform="translate(0, 200) scale(1, -1)"><line x1="15" y1="15" x2="185" y2="185" stroke="#e3f2fd" stroke-width="5.5"/><line x1="15" y1="15" x2="185" y2="185" stroke="#e3f2fd" stroke-width="5.5"/><line x1="39.285714285714285" y1="15" x2="185" y2="160.71428571428572" stroke="#bbdefb" stroke-width="5.5"/><line x1="15" y1="39.285714285714285" x2="160.71428571428572" y2="185" stroke="#bbdefb" stroke-width="5.5"/><line x1="63.57142857142857" y1="15" x2="185" y2="136.42857142857144" stroke="#90caf9" stroke-width="5.5"/><line x1="15" y1="63.57142857142857" x2="136.42857142857144" y2="185" stroke="#90caf9" stroke-width="5.5"/><line x1="87.85714285714286" y1="15" x2="185" y2="112.14285714285714" stroke="#64b5f6" stroke-width="5.5"/><line x1="15" y1="87.85714285714286" x2="112.14285714285714" y2="185" stroke="#64b5f6" stroke-width="5.5"/><line x1="112.14285714285714" y1="15" x2="185" y2="87.85714285714286" stroke="#42a5f5" stroke-width="5.5"/><line x1="15" y1="112.14285714285714" x2="87.85714285714286" y2="185" stroke="#42a5f5" stroke-width="5.5"/><line x1="136.42857142857142" y1="15" x2="185" y2="63.571428571428584" stroke="#2196f3" stroke-width="5.5"/><line x1="15" y1="136.42857142857142" x2="63.571428571428584" y2="185" stroke="#2196f3" stroke-width="5.5"/><line x1="160.71428571428572" y1="15" x2="185" y2="39.28571428571428" stroke="#e3f2fd" stroke-width="5.5"/><line x1="15" y1="160.71428571428572" x2="39.28571428571428" y2="185" stroke="#e3f2fd" stroke-width="5.5"/><line x1="185" y1="15" x2="185" y2="15" stroke="#bbdefb" stroke-width="5.5"/><line x1="15" y1="185" x2="15" y2="185" stroke="#bbdefb" stroke-width="5.5"/><circle cx="39.285714285714285" cy="39.285714285714285" r="3" fill="#e3f2fd"/><circle cx="39.285714285714285" cy="63.57142857142857" r="3" fill="#e3f2fd"/><circle cx="39.285714285714285" cy="87.85714285714286" r="3" fill="#e3f2fd"/><circle cx="39.285714285714285" cy="112.14285714285714" r="3" fill="#e3f2fd"/><circle cx="39.285714285714285" cy="136.42857142857142" r="3" fill="#e3f2fd"/><circle cx="39.285714285714285" cy="160.71428571428572" r="3" fill="#e3f2fd"/><circle cx="63.57142857142857" cy="39.285714285714285" r="3" fill="#e3f2fd"/><circle cx="63.57142857142857" cy="63.57142857142857" r="3" fill="#e3f2fd"/><circle cx="63.57142857142857" cy="87.85714285714286" r="3" fill="#e3f2fd"/><circle cx="63.57142857142857" cy="112.14285714285714" r="3" fill="#e3f2fd"/><circle cx="63.57142857142857" cy="136.42857142857142" r="3" fill="#e3f2fd"/><circle cx="63.57142857142857" cy="160.71428571428572" r="3" fill="#e3f2fd"/><circle cx="87.85714285714286" cy="39.285714285714285" r="3" fill="#e3f2fd"/><circle cx="87.85714285714286" cy="63.57142857142857" r="3" fill="#e3f2fd"/><circle cx="87.85714285714286" cy="87.85714285714286" r="3" fill="#e3f2fd"/><circle cx="87.85714285714286" cy="112.14285714285714" r="3" fill="#e3f2fd"/><circle cx="87.85714285714286" cy="136.42857142857142" r="3" fill="#e3f2fd"/><circle cx="87.85714285714286" cy="160.71428571428572" r="3" fill="#e3f2fd"/><circle cx="112.14285714285714" cy="39.285714285714285" r="3" fill="#e3f2fd"/><circle cx="112.14285714285714" cy="63.57142857142857" r="3" fill="#e3f2fd"/><circle cx="112.14285714285714" cy="87.85714285714286" r="3" fill="#e3f2fd"/><circle cx="112.14285714285714" cy="112.14285714285714" r="3" fill="#e3f2fd"/><circle cx="112.14285714285714" cy="136.42857142857142" r="3" fill="#e3f2fd"/><circle cx="112.14285714285714" cy="160.71428571428572" r="3" fill="#e3f2fd"/><circle cx="136.42857142857142" cy="39.285714285714285" r="3" fill="#e3f2fd"/><circle cx="136.42857142857142" cy="63.57142857142857" r="3" fill="#e3f2fd"/><circle cx="136.42857142857142" cy="87.85714285714286" r="3" fill="#e3f2fd"/><circle cx="136.42857142857142" cy="112.14285714285714" r="3" fill="#e3f2fd"/><circle cx="136.42857142857142" cy="136.42857142857142" r="3" fill="#e3f2fd"/><circle cx="136.42857142857142" cy="160.71428571428572" r="3" fill="#e3f2fd"/><circle cx="160.71428571428572" cy="39.285714285714285" r="3" fill="#e3f2fd"/><circle cx="160.71428571428572" cy="63.57142857142857" r="3" fill="#e3f2fd"/><circle cx="160.71428571428572" cy="87.85714285714286" r="3" fill="#e3f2fd"/><circle cx="160.71428571428572" cy="112.14285714285714" r="3" fill="#e3f2fd"/><circle cx="160.71428571428572" cy="136.42857142857142" r="3" fill="#e3f2fd"/><circle cx="160.71428571428572" cy="160.71428571428572" r="3" fill="#e3f2fd"/></g></g></g><polygon points="100,70 70,100 130,100" fill="#e3f2fd" fill-opacity="0.8" stroke="#bbcad5" stroke-width="4"/><polygon points="100,130 70,100 130,100" fill="#bbdefb" fill-opacity="0.8" stroke="#93b6d3" stroke-width="4"/><line x1="85" y1="85" x2="115" y2="85" stroke="#b1c0cb" stroke-width="2"/><line x1="85" y1="115" x2="115" y2="115" stroke="#89acc9" stroke-width="2"/><polygon points="100,91 91,100 100,109 109,100" fill="#90caf9" fill-opacity="0.4" stroke="none"/><path d="M15,29 Q22,19.2 29,15" fill="none" stroke="#e3f2fd" stroke-width="2.6" stroke-linecap="round" stroke-opacity="1"/><path d="M185,171 Q178,180.8 171,185" fill="none" stroke="#e3f2fd" stroke-width="2.6" stroke-linecap="round" stroke-opacity="1"/><path d="M171,15 Q180.8,22 185,29" fill="none" stroke="#bbdefb" stroke-width="2.6" stroke-linecap="round" stroke-opacity="1"/><path d="M29,185 Q19.2,178 15,171" fill="none" stroke="#bbdefb" stroke-width="2.6" stroke-linecap="round" stroke-opacity="1"/><rect x="5" y="5" width="190" height="190" fill="none" stroke="#1e3c72" stroke-width="8" stroke-opacity="1"/></svg>