<svg xmlns="http://www.w3.org/2000/svg" width="200" height="200" viewBox="0 0 200 200"><defs></defs><rect width="200" height="200" fill="#ffffff"/><g class="pattern"><g class="symmetry-rotational"><rect x="15" y="15" width="170" height="15.454545454545455" fill="#e76f51" fill-opacity="0.8" stroke="#e76f51" stroke-width="6"/><rect x="15" y="30.454545454545453" width="170" height="15.454545454545455" fill="#f4a261" fill-opacity="0" stroke="#f4a261" stroke-width="6"/><rect x="15" y="45.90909090909091" width="170" height="15.454545454545455" fill="#e9c46a" fill-opacity="0.8" stroke="#e9c46a" stroke-width="6"/><rect x="15" y="61.36363636363637" width="170" height="15.454545454545455" fill="#264653" fill-opacity="0" stroke="#264653" stroke-width="6"/><rect x="15" y="76.81818181818181" width="170" height="15.454545454545455" fill="#2a9d8f" fill-opacity="0.8" stroke="#2a9d8f" stroke-width="6"/><rect x="15" y="92.27272727272728" width="170" height="15.454545454545455" fill="#e76f51" fill-opacity="0" stroke="#e76f51" stroke-width="6"/><rect x="15" y="107.72727272727273" width="170" height="15.454545454545455" fill="#f4a261" fill-opacity="0.8" stroke="#f4a261" stroke-width="6"/><rect x="15" y="123.18181818181819" width="170" height="15.454545454545455" fill="#e9c46a" fill-opacity="0" stroke="#e9c46a" stroke-width="6"/><rect x="15" y="138.63636363636363" width="170" height="15.454545454545455" fill="#264653" fill-opacity="0.8" stroke="#264653" stroke-width="6"/><rect x="15" y="154.0909090909091" width="170" height="15.454545454545455" fill="#2a9d8f" fill-opacity="0" stroke="#2a9d8f" stroke-width="6"/><rect x="15" y="169.54545454545456" width="170" height="15.454545454545455" fill="#e76f51" fill-opacity="0.8" stroke="#e76f51" stroke-width="6"/><g transform="rotate(90, 100, 100)"><rect x="15" y="15" width="170" height="15.454545454545455" fill="#e76f51" fill-opacity="0.8" stroke="#e76f51" stroke-width="6"/><rect x="15" y="30.454545454545453" width="170" height="15.454545454545455" fill="#f4a261" fill-opacity="0" stroke="#f4a261" stroke-width="6"/><rect x="15" y="45.90909090909091" width="170" height="15.454545454545455" fill="#e9c46a" fill-opacity="0.8" stroke="#e9c46a" stroke-width="6"/><rect x="15" y="61.36363636363637" width="170" height="15.454545454545455" fill="#264653" fill-opacity="0" stroke="#264653" stroke-width="6"/><rect x="15" y="76.81818181818181" width="170" height="15.454545454545455" fill="#2a9d8f" fill-opacity="0.8" stroke="#2a9d8f" stroke-width="6"/><rect x="15" y="92.27272727272728" width="170" height="15.454545454545455" fill="#e76f51" fill-opacity="0" stroke="#e76f51" stroke-width="6"/><rect x="15" y="107.72727272727273" width="170" height="15.454545454545455" fill="#f4a261" fill-opacity="0.8" stroke="#f4a261" stroke-width="6"/><rect x="15" y="123.18181818181819" width="170" height="15.454545454545455" fill="#e9c46a" fill-opacity="0" stroke="#e9c46a" stroke-width="6"/><rect x="15" y="138.63636363636363" width="170" height="15.454545454545455" fill="#264653" fill-opacity="0.8" stroke="#264653" stroke-width="6"/><rect x="15" y="154.0909090909091" width="170" height="15.454545454545455" fill="#2a9d8f" fill-opacity="0" stroke="#2a9d8f" stroke-width="6"/><rect x="15" y="169.54545454545456" width="170" height="15.454545454545455" fill="#e76f51" fill-opacity="0.8" stroke="#e76f51" stroke-width="6"/></g><g transform="rotate(180, 100, 100)"><rect x="15" y="15" width="170" height="15.454545454545455" fill="#e76f51" fill-opacity="0.8" stroke="#e76f51" stroke-width="6"/><rect x="15" y="30.454545454545453" width="170" height="15.454545454545455" fill="#f4a261" fill-opacity="0" stroke="#f4a261" stroke-width="6"/><rect x="15" y="45.90909090909091" width="170" height="15.454545454545455" fill="#e9c46a" fill-opacity="0.8" stroke="#e9c46a" stroke-width="6"/><rect x="15" y="61.36363636363637" width="170" height="15.454545454545455" fill="#264653" fill-opacity="0" stroke="#264653" stroke-width="6"/><rect x="15" y="76.81818181818181" width="170" height="15.454545454545455" fill="#2a9d8f" fill-opacity="0.8" stroke="#2a9d8f" stroke-width="6"/><rect x="15" y="92.27272727272728" width="170" height="15.454545454545455" fill="#e76f51" fill-opacity="0" stroke="#e76f51" stroke-width="6"/><rect x="15" y="107.72727272727273" width="170" height="15.454545454545455" fill="#f4a261" fill-opacity="0.8" stroke="#f4a261" stroke-width="6"/><rect x="15" y="123.18181818181819" width="170" height="15.454545454545455" fill="#e9c46a" fill-opacity="0" stroke="#e9c46a" stroke-width="6"/><rect x="15" y="138.63636363636363" width="170" height="15.454545454545455" fill="#264653" fill-opacity="0.8" stroke="#264653" stroke-width="6"/><rect x="15" y="154.0909090909091" width="170" height="15.454545454545455" fill="#2a9d8f" fill-opacity="0" stroke="#2a9d8f" stroke-width="6"/><rect x="15" y="169.54545454545456" width="170" height="15.454545454545455" fill="#e76f51" fill-opacity="0.8" stroke="#e76f51" stroke-width="6"/></g><g transform="rotate(270, 100, 100)"><rect x="15" y="15" width="170" height="15.454545454545455" fill="#e76f51" fill-opacity="0.8" stroke="#e76f51" stroke-width="6"/><rect x="15" y="30.454545454545453" width="170" height="15.454545454545455" fill="#f4a261" fill-opacity="0" stroke="#f4a261" stroke-width="6"/><rect x="15" y="45.90909090909091" width="170" height="15.454545454545455" fill="#e9c46a" fill-opacity="0.8" stroke="#e9c46a" stroke-width="6"/><rect x="15" y="61.36363636363637" width="170" height="15.454545454545455" fill="#264653" fill-opacity="0" stroke="#264653" stroke-width="6"/><rect x="15" y="76.81818181818181" width="170" height="15.454545454545455" fill="#2a9d8f" fill-opacity="0.8" stroke="#2a9d8f" stroke-width="6"/><rect x="15" y="92.27272727272728" width="170" height="15.454545454545455" fill="#e76f51" fill-opacity="0" stroke="#e76f51" stroke-width="6"/><rect x="15" y="107.72727272727273" width="170" height="15.454545454545455" fill="#f4a261" fill-opacity="0.8" stroke="#f4a261" stroke-width="6"/><rect x="15" y="123.18181818181819" width="170" height="15.454545454545455" fill="#e9c46a" fill-opacity="0" stroke="#e9c46a" stroke-width="6"/><rect x="15" y="138.63636363636363" width="170" height="15.454545454545455" fill="#264653" fill-opacity="0.8" stroke="#264653" stroke-width="6"/><rect x="15" y="154.0909090909091" width="170" height="15.454545454545455" fill="#2a9d8f" fill-opacity="0" stroke="#2a9d8f" stroke-width="6"/><rect x="15" y="169.54545454545456" width="170" height="15.454545454545455" fill="#e76f51" fill-opacity="0.8" stroke="#e76f51" stroke-width="6"/></g></g></g><rect x="96" y="75" width="8" height="50" fill="#e76f51" fill-opacity="0.8" stroke="#bf4729" stroke-width="4"/><rect x="75" y="96" width="50" height="8" fill="#e76f51" fill-opacity="0.8" stroke="#bf4729" stroke-width="4"/><polygon points="100,90 110,100 100,110 90,100" fill="#f4a261" fill-opacity="0.8" stroke="#cc7a39" stroke-width="4"/><circle cx="15" cy="15" r="8" fill="none" stroke="#e76f51" stroke-width="6.5" stroke-opacity="1"/><circle cx="185" cy="185" r="8" fill="none" stroke="#e76f51" stroke-width="6.5" stroke-opacity="1"/><circle cx="185" cy="15" r="6" fill="none" stroke="#f4a261" stroke-width="5.2" stroke-opacity="1"/><circle cx="15" cy="185" r="6" fill="none" stroke="#f4a261" stroke-width="5.2" stroke-opacity="1"/><rect x="5" y="5" width="190" height="190" fill="none" stroke="#0c0d0d" stroke-width="8" stroke-opacity="1"/><circle cx="5" cy="5" r="6.4" fill="none" stroke="#0c0d0d" stroke-width="4" stroke-opacity="1"/><circle cx="195" cy="5" r="6.4" fill="none" stroke="#0c0d0d" stroke-width="4" stroke-opacity="1"/><circle cx="195" cy="195" r="6.4" fill="none" stroke="#0c0d0d" stroke-width="4" stroke-opacity="1"/><circle cx="5" cy="195" r="6.4" fill="none" stroke="#0c0d0d" stroke-width="4" stroke-opacity="1"/></svg>