<svg xmlns="http://www.w3.org/2000/svg" width="200" height="200" viewBox="0 0 200 200"><defs></defs><rect width="200" height="200" fill="#ffffff"/><g class="pattern"><g class="symmetry-radial"><polygon points="139.03468100084228,113.88334392697202 139.03468100084228,128.61665607302797 128.61665607302797,139.03468100084228 113.88334392697202,139.03468100084228 103.46531899915773,128.61665607302797 103.46531899915773,113.88334392697202 113.88334392697202,103.46531899915773 128.61665607302797,103.46531899915773 " fill="#9bf6ff" fill-opacity="0.8" stroke="#7dd8e1" stroke-width="5.5"/><rect x="113.55" y="113.55" width="15.4" height="15.4" fill="#a0c4ff" fill-opacity="0.8"/><polygon points="181.53468100084228,113.88334392697202 181.53468100084228,128.61665607302797 171.11665607302797,139.03468100084228 156.38334392697203,139.03468100084228 145.96531899915772,128.61665607302797 145.96531899915772,113.88334392697202 156.383343926972,103.46531899915773 171.11665607302797,103.46531899915773 " fill="#a0c4ff" fill-opacity="0.8" stroke="#82a6e1" stroke-width="5.5"/><rect x="156.05" y="113.55" width="15.4" height="15.4" fill="#bdb2ff" fill-opacity="0.8"/><polygon points="181.53468100084228,156.38334392697203 181.53468100084228,171.11665607302797 171.11665607302797,181.53468100084228 156.38334392697203,181.53468100084228 145.96531899915772,171.11665607302797 145.96531899915772,156.38334392697203 156.383343926972,145.96531899915774 171.11665607302797,145.96531899915772 " fill="#bdb2ff" fill-opacity="0.8" stroke="#9f94e1" stroke-width="5.5"/><rect x="156.05" y="156.05" width="15.4" height="15.4" fill="#ffc6ff" fill-opacity="0.8"/><g transform="rotate(45, 100, 100)"><polygon points="139.03468100084228,113.88334392697202 139.03468100084228,128.61665607302797 128.61665607302797,139.03468100084228 113.88334392697202,139.03468100084228 103.46531899915773,128.61665607302797 103.46531899915773,113.88334392697202 113.88334392697202,103.46531899915773 128.61665607302797,103.46531899915773 " fill="#9bf6ff" fill-opacity="0.8" stroke="#7dd8e1" stroke-width="5.5"/><rect x="113.55" y="113.55" width="15.4" height="15.4" fill="#a0c4ff" fill-opacity="0.8"/><polygon points="181.53468100084228,113.88334392697202 181.53468100084228,128.61665607302797 171.11665607302797,139.03468100084228 156.38334392697203,139.03468100084228 145.96531899915772,128.61665607302797 145.96531899915772,113.88334392697202 156.383343926972,103.46531899915773 171.11665607302797,103.46531899915773 " fill="#a0c4ff" fill-opacity="0.8" stroke="#82a6e1" stroke-width="5.5"/><rect x="156.05" y="113.55" width="15.4" height="15.4" fill="#bdb2ff" fill-opacity="0.8"/><polygon points="181.53468100084228,156.38334392697203 181.53468100084228,171.11665607302797 171.11665607302797,181.53468100084228 156.38334392697203,181.53468100084228 145.96531899915772,171.11665607302797 145.96531899915772,156.38334392697203 156.383343926972,145.96531899915774 171.11665607302797,145.96531899915772 " fill="#bdb2ff" fill-opacity="0.8" stroke="#9f94e1" stroke-width="5.5"/><rect x="156.05" y="156.05" width="15.4" height="15.4" fill="#ffc6ff" fill-opacity="0.8"/></g><g transform="rotate(90, 100, 100)"><polygon points="139.03468100084228,113.88334392697202 139.03468100084228,128.61665607302797 128.61665607302797,139.03468100084228 113.88334392697202,139.03468100084228 103.46531899915773,128.61665607302797 103.46531899915773,113.88334392697202 113.88334392697202,103.46531899915773 128.61665607302797,103.46531899915773 " fill="#9bf6ff" fill-opacity="0.8" stroke="#7dd8e1" stroke-width="5.5"/><rect x="113.55" y="113.55" width="15.4" height="15.4" fill="#a0c4ff" fill-opacity="0.8"/><polygon points="181.53468100084228,113.88334392697202 181.53468100084228,128.61665607302797 171.11665607302797,139.03468100084228 156.38334392697203,139.03468100084228 145.96531899915772,128.61665607302797 145.96531899915772,113.88334392697202 156.383343926972,103.46531899915773 171.11665607302797,103.46531899915773 " fill="#a0c4ff" fill-opacity="0.8" stroke="#82a6e1" stroke-width="5.5"/><rect x="156.05" y="113.55" width="15.4" height="15.4" fill="#bdb2ff" fill-opacity="0.8"/><polygon points="181.53468100084228,156.38334392697203 181.53468100084228,171.11665607302797 171.11665607302797,181.53468100084228 156.38334392697203,181.53468100084228 145.96531899915772,171.11665607302797 145.96531899915772,156.38334392697203 156.383343926972,145.96531899915774 171.11665607302797,145.96531899915772 " fill="#bdb2ff" fill-opacity="0.8" stroke="#9f94e1" stroke-width="5.5"/><rect x="156.05" y="156.05" width="15.4" height="15.4" fill="#ffc6ff" fill-opacity="0.8"/></g><g transform="rotate(135, 100, 100)"><polygon points="139.03468100084228,113.88334392697202 139.03468100084228,128.61665607302797 128.61665607302797,139.03468100084228 113.88334392697202,139.03468100084228 103.46531899915773,128.61665607302797 103.46531899915773,113.88334392697202 113.88334392697202,103.46531899915773 128.61665607302797,103.46531899915773 " fill="#9bf6ff" fill-opacity="0.8" stroke="#7dd8e1" stroke-width="5.5"/><rect x="113.55" y="113.55" width="15.4" height="15.4" fill="#a0c4ff" fill-opacity="0.8"/><polygon points="181.53468100084228,113.88334392697202 181.53468100084228,128.61665607302797 171.11665607302797,139.03468100084228 156.38334392697203,139.03468100084228 145.96531899915772,128.61665607302797 145.96531899915772,113.88334392697202 156.383343926972,103.46531899915773 171.11665607302797,103.46531899915773 " fill="#a0c4ff" fill-opacity="0.8" stroke="#82a6e1" stroke-width="5.5"/><rect x="156.05" y="113.55" width="15.4" height="15.4" fill="#bdb2ff" fill-opacity="0.8"/><polygon points="181.53468100084228,156.38334392697203 181.53468100084228,171.11665607302797 171.11665607302797,181.53468100084228 156.38334392697203,181.53468100084228 145.96531899915772,171.11665607302797 145.96531899915772,156.38334392697203 156.383343926972,145.96531899915774 171.11665607302797,145.96531899915772 " fill="#bdb2ff" fill-opacity="0.8" stroke="#9f94e1" stroke-width="5.5"/><rect x="156.05" y="156.05" width="15.4" height="15.4" fill="#ffc6ff" fill-opacity="0.8"/></g><g transform="rotate(180, 100, 100)"><polygon points="139.03468100084228,113.88334392697202 139.03468100084228,128.61665607302797 128.61665607302797,139.03468100084228 113.88334392697202,139.03468100084228 103.46531899915773,128.61665607302797 103.46531899915773,113.88334392697202 113.88334392697202,103.46531899915773 128.61665607302797,103.46531899915773 " fill="#9bf6ff" fill-opacity="0.8" stroke="#7dd8e1" stroke-width="5.5"/><rect x="113.55" y="113.55" width="15.4" height="15.4" fill="#a0c4ff" fill-opacity="0.8"/><polygon points="181.53468100084228,113.88334392697202 181.53468100084228,128.61665607302797 171.11665607302797,139.03468100084228 156.38334392697203,139.03468100084228 145.96531899915772,128.61665607302797 145.96531899915772,113.88334392697202 156.383343926972,103.46531899915773 171.11665607302797,103.46531899915773 " fill="#a0c4ff" fill-opacity="0.8" stroke="#82a6e1" stroke-width="5.5"/><rect x="156.05" y="113.55" width="15.4" height="15.4" fill="#bdb2ff" fill-opacity="0.8"/><polygon points="181.53468100084228,156.38334392697203 181.53468100084228,171.11665607302797 171.11665607302797,181.53468100084228 156.38334392697203,181.53468100084228 145.96531899915772,171.11665607302797 145.96531899915772,156.38334392697203 156.383343926972,145.96531899915774 171.11665607302797,145.96531899915772 " fill="#bdb2ff" fill-opacity="0.8" stroke="#9f94e1" stroke-width="5.5"/><rect x="156.05" y="156.05" width="15.4" height="15.4" fill="#ffc6ff" fill-opacity="0.8"/></g><g transform="rotate(225, 100, 100)"><polygon points="139.03468100084228,113.88334392697202 139.03468100084228,128.61665607302797 128.61665607302797,139.03468100084228 113.88334392697202,139.03468100084228 103.46531899915773,128.61665607302797 103.46531899915773,113.88334392697202 113.88334392697202,103.46531899915773 128.61665607302797,103.46531899915773 " fill="#9bf6ff" fill-opacity="0.8" stroke="#7dd8e1" stroke-width="5.5"/><rect x="113.55" y="113.55" width="15.4" height="15.4" fill="#a0c4ff" fill-opacity="0.8"/><polygon points="181.53468100084228,113.88334392697202 181.53468100084228,128.61665607302797 171.11665607302797,139.03468100084228 156.38334392697203,139.03468100084228 145.96531899915772,128.61665607302797 145.96531899915772,113.88334392697202 156.383343926972,103.46531899915773 171.11665607302797,103.46531899915773 " fill="#a0c4ff" fill-opacity="0.8" stroke="#82a6e1" stroke-width="5.5"/><rect x="156.05" y="113.55" width="15.4" height="15.4" fill="#bdb2ff" fill-opacity="0.8"/><polygon points="181.53468100084228,156.38334392697203 181.53468100084228,171.11665607302797 171.11665607302797,181.53468100084228 156.38334392697203,181.53468100084228 145.96531899915772,171.11665607302797 145.96531899915772,156.38334392697203 156.383343926972,145.96531899915774 171.11665607302797,145.96531899915772 " fill="#bdb2ff" fill-opacity="0.8" stroke="#9f94e1" stroke-width="5.5"/><rect x="156.05" y="156.05" width="15.4" height="15.4" fill="#ffc6ff" fill-opacity="0.8"/></g><g transform="rotate(270, 100, 100)"><polygon points="139.03468100084228,113.88334392697202 139.03468100084228,128.61665607302797 128.61665607302797,139.03468100084228 113.88334392697202,139.03468100084228 103.46531899915773,128.61665607302797 103.46531899915773,113.88334392697202 113.88334392697202,103.46531899915773 128.61665607302797,103.46531899915773 " fill="#9bf6ff" fill-opacity="0.8" stroke="#7dd8e1" stroke-width="5.5"/><rect x="113.55" y="113.55" width="15.4" height="15.4" fill="#a0c4ff" fill-opacity="0.8"/><polygon points="181.53468100084228,113.88334392697202 181.53468100084228,128.61665607302797 171.11665607302797,139.03468100084228 156.38334392697203,139.03468100084228 145.96531899915772,128.61665607302797 145.96531899915772,113.88334392697202 156.383343926972,103.46531899915773 171.11665607302797,103.46531899915773 " fill="#a0c4ff" fill-opacity="0.8" stroke="#82a6e1" stroke-width="5.5"/><rect x="156.05" y="113.55" width="15.4" height="15.4" fill="#bdb2ff" fill-opacity="0.8"/><polygon points="181.53468100084228,156.38334392697203 181.53468100084228,171.11665607302797 171.11665607302797,181.53468100084228 156.38334392697203,181.53468100084228 145.96531899915772,171.11665607302797 145.96531899915772,156.38334392697203 156.383343926972,145.96531899915774 171.11665607302797,145.96531899915772 " fill="#bdb2ff" fill-opacity="0.8" stroke="#9f94e1" stroke-width="5.5"/><rect x="156.05" y="156.05" width="15.4" height="15.4" fill="#ffc6ff" fill-opacity="0.8"/></g><g transform="rotate(315, 100, 100)"><polygon points="139.03468100084228,113.88334392697202 139.03468100084228,128.61665607302797 128.61665607302797,139.03468100084228 113.88334392697202,139.03468100084228 103.46531899915773,128.61665607302797 103.46531899915773,113.88334392697202 113.88334392697202,103.46531899915773 128.61665607302797,103.46531899915773 " fill="#9bf6ff" fill-opacity="0.8" stroke="#7dd8e1" stroke-width="5.5"/><rect x="113.55" y="113.55" width="15.4" height="15.4" fill="#a0c4ff" fill-opacity="0.8"/><polygon points="181.53468100084228,113.88334392697202 181.53468100084228,128.61665607302797 171.11665607302797,139.03468100084228 156.38334392697203,139.03468100084228 145.96531899915772,128.61665607302797 145.96531899915772,113.88334392697202 156.383343926972,103.46531899915773 171.11665607302797,103.46531899915773 " fill="#a0c4ff" fill-opacity="0.8" stroke="#82a6e1" stroke-width="5.5"/><rect x="156.05" y="113.55" width="15.4" height="15.4" fill="#bdb2ff" fill-opacity="0.8"/><polygon points="181.53468100084228,156.38334392697203 181.53468100084228,171.11665607302797 171.11665607302797,181.53468100084228 156.38334392697203,181.53468100084228 145.96531899915772,171.11665607302797 145.96531899915772,156.38334392697203 156.383343926972,145.96531899915774 171.11665607302797,145.96531899915772 " fill="#bdb2ff" fill-opacity="0.8" stroke="#9f94e1" stroke-width="5.5"/><rect x="156.05" y="156.05" width="15.4" height="15.4" fill="#ffc6ff" fill-opacity="0.8"/></g></g></g><circle cx="100" cy="100" r="15" fill="#ffadad" fill-opacity="0.8" stroke="#d78585" stroke-width="4"/><line x1="115" y1="100" x2="135" y2="100" stroke="#ffadad" stroke-width="4" stroke-linecap="round" stroke-opacity="1"/><line x1="112.99038105676658" y1="107.5" x2="130.31088913245534" y2="117.5" stroke="#ffd6a5" stroke-width="4" stroke-linecap="round" stroke-opacity="1"/><line x1="107.5" y1="112.99038105676658" x2="117.5" y2="130.31088913245534" stroke="#fdffb6" stroke-width="4" stroke-linecap="round" stroke-opacity="1"/><line x1="100" y1="115" x2="100" y2="135" stroke="#caffbf" stroke-width="4" stroke-linecap="round" stroke-opacity="1"/><line x1="92.5" y1="112.99038105676658" x2="82.5" y2="130.31088913245534" stroke="#9bf6ff" stroke-width="4" stroke-linecap="round" stroke-opacity="1"/><line x1="87.00961894323342" y1="107.5" x2="69.68911086754464" y2="117.5" stroke="#a0c4ff" stroke-width="4" stroke-linecap="round" stroke-opacity="1"/><line x1="85" y1="100" x2="65" y2="100" stroke="#bdb2ff" stroke-width="4" stroke-linecap="round" stroke-opacity="1"/><line x1="87.00961894323342" y1="92.5" x2="69.68911086754466" y2="82.5" stroke="#ffc6ff" stroke-width="4" stroke-linecap="round" stroke-opacity="1"/><line x1="92.5" y1="87.00961894323342" x2="82.49999999999999" y2="69.68911086754466" stroke="#ffadad" stroke-width="4" stroke-linecap="round" stroke-opacity="1"/><line x1="100" y1="85" x2="100" y2="65" stroke="#ffd6a5" stroke-width="4" stroke-linecap="round" stroke-opacity="1"/><line x1="107.5" y1="87.00961894323342" x2="117.5" y2="69.68911086754466" stroke="#fdffb6" stroke-width="4" stroke-linecap="round" stroke-opacity="1"/><line x1="112.99038105676658" y1="92.5" x2="130.31088913245534" y2="82.49999999999999" stroke="#caffbf" stroke-width="4" stroke-linecap="round" stroke-opacity="1"/><circle cx="100" cy="100" r="6" fill="#ffd6a5" stroke="#d7ae7d" stroke-width="2"/><path d="M8,15 A7,7 0 0,1 15,8" fill="none" stroke="#ffadad" stroke-width="2" stroke-linecap="round" stroke-opacity="1"/><path d="M192,185 A7,7 0 0,1 185,192" fill="none" stroke="#ffadad" stroke-width="2" stroke-linecap="round" stroke-opacity="1"/><path d="M1,15 A14,14 0 0,1 15,1" fill="none" stroke="#ffadad" stroke-width="2" stroke-linecap="round" stroke-opacity="1"/><path d="M199,185 A14,14 0 0,1 185,199" fill="none" stroke="#ffadad" stroke-width="2" stroke-linecap="round" stroke-opacity="1"/><path d="M185,9 A6,6 0 0,1 191,15" fill="none" stroke="#ffd6a5" stroke-width="1.6" stroke-linecap="round" stroke-opacity="1"/><path d="M15,191 A6,6 0 0,1 9,185" fill="none" stroke="#ffd6a5" stroke-width="1.6" stroke-linecap="round" stroke-opacity="1"/><path d="M185,3 A12,12 0 0,1 197,15" fill="none" stroke="#ffd6a5" stroke-width="1.6" stroke-linecap="round" stroke-opacity="1"/><path d="M15,197 A12,12 0 0,1 3,185" fill="none" stroke="#ffd6a5" stroke-width="1.6" stroke-linecap="round" stroke-opacity="1"/><rect x="5" y="5" width="190" height="190" fill="none" stroke="#002366" stroke-width="8" stroke-opacity="0.88"/></svg>