<svg xmlns="http://www.w3.org/2000/svg" width="200" height="200" viewBox="0 0 200 200"><defs></defs><rect width="200" height="200" fill="#ffffff"/><g class="pattern"><g class="symmetry-both"><polygon points="15,15 24.625,24.625 5.375,24.625" fill="#ff6b6b" fill-opacity="0.8" stroke="#e14d4d" stroke-width="5.5"/><polygon points="25.625,24.625 35.25,15 16,15" fill="#ffa726" fill-opacity="0.8" stroke="#e18908" stroke-width="5.5"/><polygon points="36.25,15 45.875,24.625 26.625,24.625" fill="#ffcc02" fill-opacity="0.8" stroke="#e1ae00" stroke-width="5.5"/><polygon points="46.875,24.625 56.5,15 37.25,15" fill="#66bb6a" fill-opacity="0.8" stroke="#489d4c" stroke-width="5.5"/><polygon points="57.5,15 67.125,24.625 47.875,24.625" fill="#42a5f5" fill-opacity="0.8" stroke="#2487d7" stroke-width="5.5"/><polygon points="68.125,24.625 77.75,15 58.5,15" fill="#26c6da" fill-opacity="0.8" stroke="#08a8bc" stroke-width="5.5"/><polygon points="78.75,15 88.375,24.625 69.125,24.625" fill="#ff6b6b" fill-opacity="0.8" stroke="#e14d4d" stroke-width="5.5"/><polygon points="89.375,24.625 99,15 79.75,15" fill="#ffa726" fill-opacity="0.8" stroke="#e18908" stroke-width="5.5"/><polygon points="100,15 109.625,24.625 90.375,24.625" fill="#ffcc02" fill-opacity="0.8" stroke="#e1ae00" stroke-width="5.5"/><polygon points="15,45.875 24.625,36.25 5.375,36.25" fill="#ffa726" fill-opacity="0.8" stroke="#e18908" stroke-width="5.5"/><polygon points="25.625,36.25 35.25,45.875 16,45.875" fill="#ffcc02" fill-opacity="0.8" stroke="#e1ae00" stroke-width="5.5"/><polygon points="36.25,45.875 45.875,36.25 26.625,36.25" fill="#66bb6a" fill-opacity="0.8" stroke="#489d4c" stroke-width="5.5"/><polygon points="46.875,36.25 56.5,45.875 37.25,45.875" fill="#42a5f5" fill-opacity="0.8" stroke="#2487d7" stroke-width="5.5"/><polygon points="57.5,45.875 67.125,36.25 47.875,36.25" fill="#26c6da" fill-opacity="0.8" stroke="#08a8bc" stroke-width="5.5"/><polygon points="68.125,36.25 77.75,45.875 58.5,45.875" fill="#ff6b6b" fill-opacity="0.8" stroke="#e14d4d" stroke-width="5.5"/><polygon points="78.75,45.875 88.375,36.25 69.125,36.25" fill="#ffa726" fill-opacity="0.8" stroke="#e18908" stroke-width="5.5"/><polygon points="89.375,36.25 99,45.875 79.75,45.875" fill="#ffcc02" fill-opacity="0.8" stroke="#e1ae00" stroke-width="5.5"/><polygon points="100,45.875 109.625,36.25 90.375,36.25" fill="#66bb6a" fill-opacity="0.8" stroke="#489d4c" stroke-width="5.5"/><polygon points="15,57.5 24.625,67.125 5.375,67.125" fill="#ffcc02" fill-opacity="0.8" stroke="#e1ae00" stroke-width="5.5"/><polygon points="25.625,67.125 35.25,57.5 16,57.5" fill="#66bb6a" fill-opacity="0.8" stroke="#489d4c" stroke-width="5.5"/><polygon points="36.25,57.5 45.875,67.125 26.625,67.125" fill="#42a5f5" fill-opacity="0.8" stroke="#2487d7" stroke-width="5.5"/><polygon points="46.875,67.125 56.5,57.5 37.25,57.5" fill="#26c6da" fill-opacity="0.8" stroke="#08a8bc" stroke-width="5.5"/><polygon points="57.5,57.5 67.125,67.125 47.875,67.125" fill="#ff6b6b" fill-opacity="0.8" stroke="#e14d4d" stroke-width="5.5"/><polygon points="68.125,67.125 77.75,57.5 58.5,57.5" fill="#ffa726" fill-opacity="0.8" stroke="#e18908" stroke-width="5.5"/><polygon points="78.75,57.5 88.375,67.125 69.125,67.125" fill="#ffcc02" fill-opacity="0.8" stroke="#e1ae00" stroke-width="5.5"/><polygon points="89.375,67.125 99,57.5 79.75,57.5" fill="#66bb6a" fill-opacity="0.8" stroke="#489d4c" stroke-width="5.5"/><polygon points="100,57.5 109.625,67.125 90.375,67.125" fill="#42a5f5" fill-opacity="0.8" stroke="#2487d7" stroke-width="5.5"/><polygon points="15,88.375 24.625,78.75 5.375,78.75" fill="#66bb6a" fill-opacity="0.8" stroke="#489d4c" stroke-width="5.5"/><polygon points="25.625,78.75 35.25,88.375 16,88.375" fill="#42a5f5" fill-opacity="0.8" stroke="#2487d7" stroke-width="5.5"/><polygon points="36.25,88.375 45.875,78.75 26.625,78.75" fill="#26c6da" fill-opacity="0.8" stroke="#08a8bc" stroke-width="5.5"/><polygon points="46.875,78.75 56.5,88.375 37.25,88.375" fill="#ff6b6b" fill-opacity="0.8" stroke="#e14d4d" stroke-width="5.5"/><polygon points="57.5,88.375 67.125,78.75 47.875,78.75" fill="#ffa726" fill-opacity="0.8" stroke="#e18908" stroke-width="5.5"/><polygon points="68.125,78.75 77.75,88.375 58.5,88.375" fill="#ffcc02" fill-opacity="0.8" stroke="#e1ae00" stroke-width="5.5"/><polygon points="78.75,88.375 88.375,78.75 69.125,78.75" fill="#66bb6a" fill-opacity="0.8" stroke="#489d4c" stroke-width="5.5"/><polygon points="89.375,78.75 99,88.375 79.75,88.375" fill="#42a5f5" fill-opacity="0.8" stroke="#2487d7" stroke-width="5.5"/><polygon points="100,88.375 109.625,78.75 90.375,78.75" fill="#26c6da" fill-opacity="0.8" stroke="#08a8bc" stroke-width="5.5"/><polygon points="15,100 24.625,109.625 5.375,109.625" fill="#42a5f5" fill-opacity="0.8" stroke="#2487d7" stroke-width="5.5"/><polygon points="25.625,109.625 35.25,100 16,100" fill="#26c6da" fill-opacity="0.8" stroke="#08a8bc" stroke-width="5.5"/><polygon points="36.25,100 45.875,109.625 26.625,109.625" fill="#ff6b6b" fill-opacity="0.8" stroke="#e14d4d" stroke-width="5.5"/><polygon points="46.875,109.625 56.5,100 37.25,100" fill="#ffa726" fill-opacity="0.8" stroke="#e18908" stroke-width="5.5"/><polygon points="57.5,100 67.125,109.625 47.875,109.625" fill="#ffcc02" fill-opacity="0.8" stroke="#e1ae00" stroke-width="5.5"/><polygon points="68.125,109.625 77.75,100 58.5,100" fill="#66bb6a" fill-opacity="0.8" stroke="#489d4c" stroke-width="5.5"/><polygon points="78.75,100 88.375,109.625 69.125,109.625" fill="#42a5f5" fill-opacity="0.8" stroke="#2487d7" stroke-width="5.5"/><polygon points="89.375,109.625 99,100 79.75,100" fill="#26c6da" fill-opacity="0.8" stroke="#08a8bc" stroke-width="5.5"/><polygon points="100,100 109.625,109.625 90.375,109.625" fill="#ff6b6b" fill-opacity="0.8" stroke="#e14d4d" stroke-width="5.5"/><g transform="translate(200, 0) scale(-1, 1)"><polygon points="15,15 24.625,24.625 5.375,24.625" fill="#ff6b6b" fill-opacity="0.8" stroke="#e14d4d" stroke-width="5.5"/><polygon points="25.625,24.625 35.25,15 16,15" fill="#ffa726" fill-opacity="0.8" stroke="#e18908" stroke-width="5.5"/><polygon points="36.25,15 45.875,24.625 26.625,24.625" fill="#ffcc02" fill-opacity="0.8" stroke="#e1ae00" stroke-width="5.5"/><polygon points="46.875,24.625 56.5,15 37.25,15" fill="#66bb6a" fill-opacity="0.8" stroke="#489d4c" stroke-width="5.5"/><polygon points="57.5,15 67.125,24.625 47.875,24.625" fill="#42a5f5" fill-opacity="0.8" stroke="#2487d7" stroke-width="5.5"/><polygon points="68.125,24.625 77.75,15 58.5,15" fill="#26c6da" fill-opacity="0.8" stroke="#08a8bc" stroke-width="5.5"/><polygon points="78.75,15 88.375,24.625 69.125,24.625" fill="#ff6b6b" fill-opacity="0.8" stroke="#e14d4d" stroke-width="5.5"/><polygon points="89.375,24.625 99,15 79.75,15" fill="#ffa726" fill-opacity="0.8" stroke="#e18908" stroke-width="5.5"/><polygon points="100,15 109.625,24.625 90.375,24.625" fill="#ffcc02" fill-opacity="0.8" stroke="#e1ae00" stroke-width="5.5"/><polygon points="15,45.875 24.625,36.25 5.375,36.25" fill="#ffa726" fill-opacity="0.8" stroke="#e18908" stroke-width="5.5"/><polygon points="25.625,36.25 35.25,45.875 16,45.875" fill="#ffcc02" fill-opacity="0.8" stroke="#e1ae00" stroke-width="5.5"/><polygon points="36.25,45.875 45.875,36.25 26.625,36.25" fill="#66bb6a" fill-opacity="0.8" stroke="#489d4c" stroke-width="5.5"/><polygon points="46.875,36.25 56.5,45.875 37.25,45.875" fill="#42a5f5" fill-opacity="0.8" stroke="#2487d7" stroke-width="5.5"/><polygon points="57.5,45.875 67.125,36.25 47.875,36.25" fill="#26c6da" fill-opacity="0.8" stroke="#08a8bc" stroke-width="5.5"/><polygon points="68.125,36.25 77.75,45.875 58.5,45.875" fill="#ff6b6b" fill-opacity="0.8" stroke="#e14d4d" stroke-width="5.5"/><polygon points="78.75,45.875 88.375,36.25 69.125,36.25" fill="#ffa726" fill-opacity="0.8" stroke="#e18908" stroke-width="5.5"/><polygon points="89.375,36.25 99,45.875 79.75,45.875" fill="#ffcc02" fill-opacity="0.8" stroke="#e1ae00" stroke-width="5.5"/><polygon points="100,45.875 109.625,36.25 90.375,36.25" fill="#66bb6a" fill-opacity="0.8" stroke="#489d4c" stroke-width="5.5"/><polygon points="15,57.5 24.625,67.125 5.375,67.125" fill="#ffcc02" fill-opacity="0.8" stroke="#e1ae00" stroke-width="5.5"/><polygon points="25.625,67.125 35.25,57.5 16,57.5" fill="#66bb6a" fill-opacity="0.8" stroke="#489d4c" stroke-width="5.5"/><polygon points="36.25,57.5 45.875,67.125 26.625,67.125" fill="#42a5f5" fill-opacity="0.8" stroke="#2487d7" stroke-width="5.5"/><polygon points="46.875,67.125 56.5,57.5 37.25,57.5" fill="#26c6da" fill-opacity="0.8" stroke="#08a8bc" stroke-width="5.5"/><polygon points="57.5,57.5 67.125,67.125 47.875,67.125" fill="#ff6b6b" fill-opacity="0.8" stroke="#e14d4d" stroke-width="5.5"/><polygon points="68.125,67.125 77.75,57.5 58.5,57.5" fill="#ffa726" fill-opacity="0.8" stroke="#e18908" stroke-width="5.5"/><polygon points="78.75,57.5 88.375,67.125 69.125,67.125" fill="#ffcc02" fill-opacity="0.8" stroke="#e1ae00" stroke-width="5.5"/><polygon points="89.375,67.125 99,57.5 79.75,57.5" fill="#66bb6a" fill-opacity="0.8" stroke="#489d4c" stroke-width="5.5"/><polygon points="100,57.5 109.625,67.125 90.375,67.125" fill="#42a5f5" fill-opacity="0.8" stroke="#2487d7" stroke-width="5.5"/><polygon points="15,88.375 24.625,78.75 5.375,78.75" fill="#66bb6a" fill-opacity="0.8" stroke="#489d4c" stroke-width="5.5"/><polygon points="25.625,78.75 35.25,88.375 16,88.375" fill="#42a5f5" fill-opacity="0.8" stroke="#2487d7" stroke-width="5.5"/><polygon points="36.25,88.375 45.875,78.75 26.625,78.75" fill="#26c6da" fill-opacity="0.8" stroke="#08a8bc" stroke-width="5.5"/><polygon points="46.875,78.75 56.5,88.375 37.25,88.375" fill="#ff6b6b" fill-opacity="0.8" stroke="#e14d4d" stroke-width="5.5"/><polygon points="57.5,88.375 67.125,78.75 47.875,78.75" fill="#ffa726" fill-opacity="0.8" stroke="#e18908" stroke-width="5.5"/><polygon points="68.125,78.75 77.75,88.375 58.5,88.375" fill="#ffcc02" fill-opacity="0.8" stroke="#e1ae00" stroke-width="5.5"/><polygon points="78.75,88.375 88.375,78.75 69.125,78.75" fill="#66bb6a" fill-opacity="0.8" stroke="#489d4c" stroke-width="5.5"/><polygon points="89.375,78.75 99,88.375 79.75,88.375" fill="#42a5f5" fill-opacity="0.8" stroke="#2487d7" stroke-width="5.5"/><polygon points="100,88.375 109.625,78.75 90.375,78.75" fill="#26c6da" fill-opacity="0.8" stroke="#08a8bc" stroke-width="5.5"/><polygon points="15,100 24.625,109.625 5.375,109.625" fill="#42a5f5" fill-opacity="0.8" stroke="#2487d7" stroke-width="5.5"/><polygon points="25.625,109.625 35.25,100 16,100" fill="#26c6da" fill-opacity="0.8" stroke="#08a8bc" stroke-width="5.5"/><polygon points="36.25,100 45.875,109.625 26.625,109.625" fill="#ff6b6b" fill-opacity="0.8" stroke="#e14d4d" stroke-width="5.5"/><polygon points="46.875,109.625 56.5,100 37.25,100" fill="#ffa726" fill-opacity="0.8" stroke="#e18908" stroke-width="5.5"/><polygon points="57.5,100 67.125,109.625 47.875,109.625" fill="#ffcc02" fill-opacity="0.8" stroke="#e1ae00" stroke-width="5.5"/><polygon points="68.125,109.625 77.75,100 58.5,100" fill="#66bb6a" fill-opacity="0.8" stroke="#489d4c" stroke-width="5.5"/><polygon points="78.75,100 88.375,109.625 69.125,109.625" fill="#42a5f5" fill-opacity="0.8" stroke="#2487d7" stroke-width="5.5"/><polygon points="89.375,109.625 99,100 79.75,100" fill="#26c6da" fill-opacity="0.8" stroke="#08a8bc" stroke-width="5.5"/><polygon points="100,100 109.625,109.625 90.375,109.625" fill="#ff6b6b" fill-opacity="0.8" stroke="#e14d4d" stroke-width="5.5"/></g><g transform="translate(0, 200) scale(1, -1)"><polygon points="15,15 24.625,24.625 5.375,24.625" fill="#ff6b6b" fill-opacity="0.8" stroke="#e14d4d" stroke-width="5.5"/><polygon points="25.625,24.625 35.25,15 16,15" fill="#ffa726" fill-opacity="0.8" stroke="#e18908" stroke-width="5.5"/><polygon points="36.25,15 45.875,24.625 26.625,24.625" fill="#ffcc02" fill-opacity="0.8" stroke="#e1ae00" stroke-width="5.5"/><polygon points="46.875,24.625 56.5,15 37.25,15" fill="#66bb6a" fill-opacity="0.8" stroke="#489d4c" stroke-width="5.5"/><polygon points="57.5,15 67.125,24.625 47.875,24.625" fill="#42a5f5" fill-opacity="0.8" stroke="#2487d7" stroke-width="5.5"/><polygon points="68.125,24.625 77.75,15 58.5,15" fill="#26c6da" fill-opacity="0.8" stroke="#08a8bc" stroke-width="5.5"/><polygon points="78.75,15 88.375,24.625 69.125,24.625" fill="#ff6b6b" fill-opacity="0.8" stroke="#e14d4d" stroke-width="5.5"/><polygon points="89.375,24.625 99,15 79.75,15" fill="#ffa726" fill-opacity="0.8" stroke="#e18908" stroke-width="5.5"/><polygon points="100,15 109.625,24.625 90.375,24.625" fill="#ffcc02" fill-opacity="0.8" stroke="#e1ae00" stroke-width="5.5"/><polygon points="15,45.875 24.625,36.25 5.375,36.25" fill="#ffa726" fill-opacity="0.8" stroke="#e18908" stroke-width="5.5"/><polygon points="25.625,36.25 35.25,45.875 16,45.875" fill="#ffcc02" fill-opacity="0.8" stroke="#e1ae00" stroke-width="5.5"/><polygon points="36.25,45.875 45.875,36.25 26.625,36.25" fill="#66bb6a" fill-opacity="0.8" stroke="#489d4c" stroke-width="5.5"/><polygon points="46.875,36.25 56.5,45.875 37.25,45.875" fill="#42a5f5" fill-opacity="0.8" stroke="#2487d7" stroke-width="5.5"/><polygon points="57.5,45.875 67.125,36.25 47.875,36.25" fill="#26c6da" fill-opacity="0.8" stroke="#08a8bc" stroke-width="5.5"/><polygon points="68.125,36.25 77.75,45.875 58.5,45.875" fill="#ff6b6b" fill-opacity="0.8" stroke="#e14d4d" stroke-width="5.5"/><polygon points="78.75,45.875 88.375,36.25 69.125,36.25" fill="#ffa726" fill-opacity="0.8" stroke="#e18908" stroke-width="5.5"/><polygon points="89.375,36.25 99,45.875 79.75,45.875" fill="#ffcc02" fill-opacity="0.8" stroke="#e1ae00" stroke-width="5.5"/><polygon points="100,45.875 109.625,36.25 90.375,36.25" fill="#66bb6a" fill-opacity="0.8" stroke="#489d4c" stroke-width="5.5"/><polygon points="15,57.5 24.625,67.125 5.375,67.125" fill="#ffcc02" fill-opacity="0.8" stroke="#e1ae00" stroke-width="5.5"/><polygon points="25.625,67.125 35.25,57.5 16,57.5" fill="#66bb6a" fill-opacity="0.8" stroke="#489d4c" stroke-width="5.5"/><polygon points="36.25,57.5 45.875,67.125 26.625,67.125" fill="#42a5f5" fill-opacity="0.8" stroke="#2487d7" stroke-width="5.5"/><polygon points="46.875,67.125 56.5,57.5 37.25,57.5" fill="#26c6da" fill-opacity="0.8" stroke="#08a8bc" stroke-width="5.5"/><polygon points="57.5,57.5 67.125,67.125 47.875,67.125" fill="#ff6b6b" fill-opacity="0.8" stroke="#e14d4d" stroke-width="5.5"/><polygon points="68.125,67.125 77.75,57.5 58.5,57.5" fill="#ffa726" fill-opacity="0.8" stroke="#e18908" stroke-width="5.5"/><polygon points="78.75,57.5 88.375,67.125 69.125,67.125" fill="#ffcc02" fill-opacity="0.8" stroke="#e1ae00" stroke-width="5.5"/><polygon points="89.375,67.125 99,57.5 79.75,57.5" fill="#66bb6a" fill-opacity="0.8" stroke="#489d4c" stroke-width="5.5"/><polygon points="100,57.5 109.625,67.125 90.375,67.125" fill="#42a5f5" fill-opacity="0.8" stroke="#2487d7" stroke-width="5.5"/><polygon points="15,88.375 24.625,78.75 5.375,78.75" fill="#66bb6a" fill-opacity="0.8" stroke="#489d4c" stroke-width="5.5"/><polygon points="25.625,78.75 35.25,88.375 16,88.375" fill="#42a5f5" fill-opacity="0.8" stroke="#2487d7" stroke-width="5.5"/><polygon points="36.25,88.375 45.875,78.75 26.625,78.75" fill="#26c6da" fill-opacity="0.8" stroke="#08a8bc" stroke-width="5.5"/><polygon points="46.875,78.75 56.5,88.375 37.25,88.375" fill="#ff6b6b" fill-opacity="0.8" stroke="#e14d4d" stroke-width="5.5"/><polygon points="57.5,88.375 67.125,78.75 47.875,78.75" fill="#ffa726" fill-opacity="0.8" stroke="#e18908" stroke-width="5.5"/><polygon points="68.125,78.75 77.75,88.375 58.5,88.375" fill="#ffcc02" fill-opacity="0.8" stroke="#e1ae00" stroke-width="5.5"/><polygon points="78.75,88.375 88.375,78.75 69.125,78.75" fill="#66bb6a" fill-opacity="0.8" stroke="#489d4c" stroke-width="5.5"/><polygon points="89.375,78.75 99,88.375 79.75,88.375" fill="#42a5f5" fill-opacity="0.8" stroke="#2487d7" stroke-width="5.5"/><polygon points="100,88.375 109.625,78.75 90.375,78.75" fill="#26c6da" fill-opacity="0.8" stroke="#08a8bc" stroke-width="5.5"/><polygon points="15,100 24.625,109.625 5.375,109.625" fill="#42a5f5" fill-opacity="0.8" stroke="#2487d7" stroke-width="5.5"/><polygon points="25.625,109.625 35.25,100 16,100" fill="#26c6da" fill-opacity="0.8" stroke="#08a8bc" stroke-width="5.5"/><polygon points="36.25,100 45.875,109.625 26.625,109.625" fill="#ff6b6b" fill-opacity="0.8" stroke="#e14d4d" stroke-width="5.5"/><polygon points="46.875,109.625 56.5,100 37.25,100" fill="#ffa726" fill-opacity="0.8" stroke="#e18908" stroke-width="5.5"/><polygon points="57.5,100 67.125,109.625 47.875,109.625" fill="#ffcc02" fill-opacity="0.8" stroke="#e1ae00" stroke-width="5.5"/><polygon points="68.125,109.625 77.75,100 58.5,100" fill="#66bb6a" fill-opacity="0.8" stroke="#489d4c" stroke-width="5.5"/><polygon points="78.75,100 88.375,109.625 69.125,109.625" fill="#42a5f5" fill-opacity="0.8" stroke="#2487d7" stroke-width="5.5"/><polygon points="89.375,109.625 99,100 79.75,100" fill="#26c6da" fill-opacity="0.8" stroke="#08a8bc" stroke-width="5.5"/><polygon points="100,100 109.625,109.625 90.375,109.625" fill="#ff6b6b" fill-opacity="0.8" stroke="#e14d4d" stroke-width="5.5"/></g><g transform="translate(200, 200) scale(-1, -1)"><polygon points="15,15 24.625,24.625 5.375,24.625" fill="#ff6b6b" fill-opacity="0.8" stroke="#e14d4d" stroke-width="5.5"/><polygon points="25.625,24.625 35.25,15 16,15" fill="#ffa726" fill-opacity="0.8" stroke="#e18908" stroke-width="5.5"/><polygon points="36.25,15 45.875,24.625 26.625,24.625" fill="#ffcc02" fill-opacity="0.8" stroke="#e1ae00" stroke-width="5.5"/><polygon points="46.875,24.625 56.5,15 37.25,15" fill="#66bb6a" fill-opacity="0.8" stroke="#489d4c" stroke-width="5.5"/><polygon points="57.5,15 67.125,24.625 47.875,24.625" fill="#42a5f5" fill-opacity="0.8" stroke="#2487d7" stroke-width="5.5"/><polygon points="68.125,24.625 77.75,15 58.5,15" fill="#26c6da" fill-opacity="0.8" stroke="#08a8bc" stroke-width="5.5"/><polygon points="78.75,15 88.375,24.625 69.125,24.625" fill="#ff6b6b" fill-opacity="0.8" stroke="#e14d4d" stroke-width="5.5"/><polygon points="89.375,24.625 99,15 79.75,15" fill="#ffa726" fill-opacity="0.8" stroke="#e18908" stroke-width="5.5"/><polygon points="100,15 109.625,24.625 90.375,24.625" fill="#ffcc02" fill-opacity="0.8" stroke="#e1ae00" stroke-width="5.5"/><polygon points="15,45.875 24.625,36.25 5.375,36.25" fill="#ffa726" fill-opacity="0.8" stroke="#e18908" stroke-width="5.5"/><polygon points="25.625,36.25 35.25,45.875 16,45.875" fill="#ffcc02" fill-opacity="0.8" stroke="#e1ae00" stroke-width="5.5"/><polygon points="36.25,45.875 45.875,36.25 26.625,36.25" fill="#66bb6a" fill-opacity="0.8" stroke="#489d4c" stroke-width="5.5"/><polygon points="46.875,36.25 56.5,45.875 37.25,45.875" fill="#42a5f5" fill-opacity="0.8" stroke="#2487d7" stroke-width="5.5"/><polygon points="57.5,45.875 67.125,36.25 47.875,36.25" fill="#26c6da" fill-opacity="0.8" stroke="#08a8bc" stroke-width="5.5"/><polygon points="68.125,36.25 77.75,45.875 58.5,45.875" fill="#ff6b6b" fill-opacity="0.8" stroke="#e14d4d" stroke-width="5.5"/><polygon points="78.75,45.875 88.375,36.25 69.125,36.25" fill="#ffa726" fill-opacity="0.8" stroke="#e18908" stroke-width="5.5"/><polygon points="89.375,36.25 99,45.875 79.75,45.875" fill="#ffcc02" fill-opacity="0.8" stroke="#e1ae00" stroke-width="5.5"/><polygon points="100,45.875 109.625,36.25 90.375,36.25" fill="#66bb6a" fill-opacity="0.8" stroke="#489d4c" stroke-width="5.5"/><polygon points="15,57.5 24.625,67.125 5.375,67.125" fill="#ffcc02" fill-opacity="0.8" stroke="#e1ae00" stroke-width="5.5"/><polygon points="25.625,67.125 35.25,57.5 16,57.5" fill="#66bb6a" fill-opacity="0.8" stroke="#489d4c" stroke-width="5.5"/><polygon points="36.25,57.5 45.875,67.125 26.625,67.125" fill="#42a5f5" fill-opacity="0.8" stroke="#2487d7" stroke-width="5.5"/><polygon points="46.875,67.125 56.5,57.5 37.25,57.5" fill="#26c6da" fill-opacity="0.8" stroke="#08a8bc" stroke-width="5.5"/><polygon points="57.5,57.5 67.125,67.125 47.875,67.125" fill="#ff6b6b" fill-opacity="0.8" stroke="#e14d4d" stroke-width="5.5"/><polygon points="68.125,67.125 77.75,57.5 58.5,57.5" fill="#ffa726" fill-opacity="0.8" stroke="#e18908" stroke-width="5.5"/><polygon points="78.75,57.5 88.375,67.125 69.125,67.125" fill="#ffcc02" fill-opacity="0.8" stroke="#e1ae00" stroke-width="5.5"/><polygon points="89.375,67.125 99,57.5 79.75,57.5" fill="#66bb6a" fill-opacity="0.8" stroke="#489d4c" stroke-width="5.5"/><polygon points="100,57.5 109.625,67.125 90.375,67.125" fill="#42a5f5" fill-opacity="0.8" stroke="#2487d7" stroke-width="5.5"/><polygon points="15,88.375 24.625,78.75 5.375,78.75" fill="#66bb6a" fill-opacity="0.8" stroke="#489d4c" stroke-width="5.5"/><polygon points="25.625,78.75 35.25,88.375 16,88.375" fill="#42a5f5" fill-opacity="0.8" stroke="#2487d7" stroke-width="5.5"/><polygon points="36.25,88.375 45.875,78.75 26.625,78.75" fill="#26c6da" fill-opacity="0.8" stroke="#08a8bc" stroke-width="5.5"/><polygon points="46.875,78.75 56.5,88.375 37.25,88.375" fill="#ff6b6b" fill-opacity="0.8" stroke="#e14d4d" stroke-width="5.5"/><polygon points="57.5,88.375 67.125,78.75 47.875,78.75" fill="#ffa726" fill-opacity="0.8" stroke="#e18908" stroke-width="5.5"/><polygon points="68.125,78.75 77.75,88.375 58.5,88.375" fill="#ffcc02" fill-opacity="0.8" stroke="#e1ae00" stroke-width="5.5"/><polygon points="78.75,88.375 88.375,78.75 69.125,78.75" fill="#66bb6a" fill-opacity="0.8" stroke="#489d4c" stroke-width="5.5"/><polygon points="89.375,78.75 99,88.375 79.75,88.375" fill="#42a5f5" fill-opacity="0.8" stroke="#2487d7" stroke-width="5.5"/><polygon points="100,88.375 109.625,78.75 90.375,78.75" fill="#26c6da" fill-opacity="0.8" stroke="#08a8bc" stroke-width="5.5"/><polygon points="15,100 24.625,109.625 5.375,109.625" fill="#42a5f5" fill-opacity="0.8" stroke="#2487d7" stroke-width="5.5"/><polygon points="25.625,109.625 35.25,100 16,100" fill="#26c6da" fill-opacity="0.8" stroke="#08a8bc" stroke-width="5.5"/><polygon points="36.25,100 45.875,109.625 26.625,109.625" fill="#ff6b6b" fill-opacity="0.8" stroke="#e14d4d" stroke-width="5.5"/><polygon points="46.875,109.625 56.5,100 37.25,100" fill="#ffa726" fill-opacity="0.8" stroke="#e18908" stroke-width="5.5"/><polygon points="57.5,100 67.125,109.625 47.875,109.625" fill="#ffcc02" fill-opacity="0.8" stroke="#e1ae00" stroke-width="5.5"/><polygon points="68.125,109.625 77.75,100 58.5,100" fill="#66bb6a" fill-opacity="0.8" stroke="#489d4c" stroke-width="5.5"/><polygon points="78.75,100 88.375,109.625 69.125,109.625" fill="#42a5f5" fill-opacity="0.8" stroke="#2487d7" stroke-width="5.5"/><polygon points="89.375,109.625 99,100 79.75,100" fill="#26c6da" fill-opacity="0.8" stroke="#08a8bc" stroke-width="5.5"/><polygon points="100,100 109.625,109.625 90.375,109.625" fill="#ff6b6b" fill-opacity="0.8" stroke="#e14d4d" stroke-width="5.5"/></g></g></g><polygon points="100,70 70,100 130,100" fill="#ff6b6b" fill-opacity="0.8" stroke="#d74343" stroke-width="4"/><polygon points="100,130 70,100 130,100" fill="#ffa726" fill-opacity="0.8" stroke="#d77f00" stroke-width="4"/><line x1="85" y1="85" x2="115" y2="85" stroke="#cd3939" stroke-width="2"/><line x1="85" y1="115" x2="115" y2="115" stroke="#cd7500" stroke-width="2"/><polygon points="100,91 91,100 100,109 109,100" fill="#ffcc02" fill-opacity="0.4" stroke="none"/><path d="M8,15 A7,7 0 0,1 15,8" fill="none" stroke="#ff6b6b" stroke-width="2" stroke-linecap="round" stroke-opacity="1"/><path d="M192,185 A7,7 0 0,1 185,192" fill="none" stroke="#ff6b6b" stroke-width="2" stroke-linecap="round" stroke-opacity="1"/><path d="M1,15 A14,14 0 0,1 15,1" fill="none" stroke="#ff6b6b" stroke-width="2" stroke-linecap="round" stroke-opacity="1"/><path d="M199,185 A14,14 0 0,1 185,199" fill="none" stroke="#ff6b6b" stroke-width="2" stroke-linecap="round" stroke-opacity="1"/><path d="M185,9 A6,6 0 0,1 191,15" fill="none" stroke="#ffa726" stroke-width="1.6" stroke-linecap="round" stroke-opacity="1"/><path d="M15,191 A6,6 0 0,1 9,185" fill="none" stroke="#ffa726" stroke-width="1.6" stroke-linecap="round" stroke-opacity="1"/><path d="M185,3 A12,12 0 0,1 197,15" fill="none" stroke="#ffa726" stroke-width="1.6" stroke-linecap="round" stroke-opacity="1"/><path d="M15,197 A12,12 0 0,1 3,185" fill="none" stroke="#ffa726" stroke-width="1.6" stroke-linecap="round" stroke-opacity="1"/><rect x="5" y="5" width="190" height="190" fill="none" stroke="#002366" stroke-width="8" stroke-opacity="0.88"/></svg>