<svg xmlns="http://www.w3.org/2000/svg" width="200" height="200" viewBox="0 0 200 200"><defs></defs><rect width="200" height="200" fill="#ffffff"/><g class="pattern"><g class="symmetry-diagonal-falling"><polygon points="27.142857142857142,17 37.285714285714285,27.142857142857142 27.142857142857142,37.285714285714285 17,27.142857142857142" fill="#ff6b6b" fill-opacity="0.8" stroke="#e14d4d" stroke-width="5.5"/><polygon points="51.42857142857143,17 61.57142857142857,27.142857142857142 51.42857142857143,37.285714285714285 41.28571428571429,27.142857142857142" fill="#ffa726" fill-opacity="0.8" stroke="#e18908" stroke-width="5.5"/><polygon points="75.71428571428571,17 85.85714285714285,27.142857142857142 75.71428571428571,37.285714285714285 65.57142857142857,27.142857142857142" fill="#ffcc02" fill-opacity="0.8" stroke="#e1ae00" stroke-width="5.5"/><polygon points="100,17 110.14285714285714,27.142857142857142 100,37.285714285714285 89.85714285714286,27.142857142857142" fill="#66bb6a" fill-opacity="0.8" stroke="#489d4c" stroke-width="5.5"/><polygon points="124.28571428571428,17 134.42857142857142,27.142857142857142 124.28571428571428,37.285714285714285 114.14285714285714,27.142857142857142" fill="#42a5f5" fill-opacity="0.8" stroke="#2487d7" stroke-width="5.5"/><polygon points="148.57142857142856,17 158.7142857142857,27.142857142857142 148.57142857142856,37.285714285714285 138.42857142857142,27.142857142857142" fill="#26c6da" fill-opacity="0.8" stroke="#08a8bc" stroke-width="5.5"/><polygon points="172.85714285714286,17 183,27.142857142857142 172.85714285714286,37.285714285714285 162.71428571428572,27.142857142857142" fill="#ff6b6b" fill-opacity="0.8" stroke="#e14d4d" stroke-width="5.5"/><polygon points="51.42857142857143,41.28571428571429 61.57142857142857,51.42857142857143 51.42857142857143,61.57142857142857 41.28571428571429,51.42857142857143" fill="#ffcc02" fill-opacity="0.8" stroke="#e1ae00" stroke-width="5.5"/><polygon points="75.71428571428571,41.28571428571429 85.85714285714285,51.42857142857143 75.71428571428571,61.57142857142857 65.57142857142857,51.42857142857143" fill="#66bb6a" fill-opacity="0.8" stroke="#489d4c" stroke-width="5.5"/><polygon points="100,41.28571428571429 110.14285714285714,51.42857142857143 100,61.57142857142857 89.85714285714286,51.42857142857143" fill="#42a5f5" fill-opacity="0.8" stroke="#2487d7" stroke-width="5.5"/><polygon points="124.28571428571428,41.28571428571429 134.42857142857142,51.42857142857143 124.28571428571428,61.57142857142857 114.14285714285714,51.42857142857143" fill="#26c6da" fill-opacity="0.8" stroke="#08a8bc" stroke-width="5.5"/><polygon points="148.57142857142856,41.28571428571429 158.7142857142857,51.42857142857143 148.57142857142856,61.57142857142857 138.42857142857142,51.42857142857143" fill="#ff6b6b" fill-opacity="0.8" stroke="#e14d4d" stroke-width="5.5"/><polygon points="172.85714285714286,41.28571428571429 183,51.42857142857143 172.85714285714286,61.57142857142857 162.71428571428572,51.42857142857143" fill="#ffa726" fill-opacity="0.8" stroke="#e18908" stroke-width="5.5"/><polygon points="75.71428571428571,65.57142857142857 85.85714285714285,75.71428571428571 75.71428571428571,85.85714285714285 65.57142857142857,75.71428571428571" fill="#42a5f5" fill-opacity="0.8" stroke="#2487d7" stroke-width="5.5"/><polygon points="100,65.57142857142857 110.14285714285714,75.71428571428571 100,85.85714285714285 89.85714285714286,75.71428571428571" fill="#26c6da" fill-opacity="0.8" stroke="#08a8bc" stroke-width="5.5"/><polygon points="124.28571428571428,65.57142857142857 134.42857142857142,75.71428571428571 124.28571428571428,85.85714285714285 114.14285714285714,75.71428571428571" fill="#ff6b6b" fill-opacity="0.8" stroke="#e14d4d" stroke-width="5.5"/><polygon points="148.57142857142856,65.57142857142857 158.7142857142857,75.71428571428571 148.57142857142856,85.85714285714285 138.42857142857142,75.71428571428571" fill="#ffa726" fill-opacity="0.8" stroke="#e18908" stroke-width="5.5"/><polygon points="172.85714285714286,65.57142857142857 183,75.71428571428571 172.85714285714286,85.85714285714285 162.71428571428572,75.71428571428571" fill="#ffcc02" fill-opacity="0.8" stroke="#e1ae00" stroke-width="5.5"/><polygon points="100,89.85714285714286 110.14285714285714,100 100,110.14285714285714 89.85714285714286,100" fill="#ff6b6b" fill-opacity="0.8" stroke="#e14d4d" stroke-width="5.5"/><polygon points="124.28571428571428,89.85714285714286 134.42857142857142,100 124.28571428571428,110.14285714285714 114.14285714285714,100" fill="#ffa726" fill-opacity="0.8" stroke="#e18908" stroke-width="5.5"/><polygon points="148.57142857142856,89.85714285714286 158.7142857142857,100 148.57142857142856,110.14285714285714 138.42857142857142,100" fill="#ffcc02" fill-opacity="0.8" stroke="#e1ae00" stroke-width="5.5"/><polygon points="172.85714285714286,89.85714285714286 183,100 172.85714285714286,110.14285714285714 162.71428571428572,100" fill="#66bb6a" fill-opacity="0.8" stroke="#489d4c" stroke-width="5.5"/><polygon points="124.28571428571428,114.14285714285714 134.42857142857142,124.28571428571428 124.28571428571428,134.42857142857142 114.14285714285714,124.28571428571428" fill="#ffcc02" fill-opacity="0.8" stroke="#e1ae00" stroke-width="5.5"/><polygon points="148.57142857142856,114.14285714285714 158.7142857142857,124.28571428571428 148.57142857142856,134.42857142857142 138.42857142857142,124.28571428571428" fill="#66bb6a" fill-opacity="0.8" stroke="#489d4c" stroke-width="5.5"/><polygon points="172.85714285714286,114.14285714285714 183,124.28571428571428 172.85714285714286,134.42857142857142 162.71428571428572,124.28571428571428" fill="#42a5f5" fill-opacity="0.8" stroke="#2487d7" stroke-width="5.5"/><polygon points="148.57142857142856,138.42857142857142 158.7142857142857,148.57142857142856 148.57142857142856,158.7142857142857 138.42857142857142,148.57142857142856" fill="#42a5f5" fill-opacity="0.8" stroke="#2487d7" stroke-width="5.5"/><polygon points="172.85714285714286,138.42857142857142 183,148.57142857142856 172.85714285714286,158.7142857142857 162.71428571428572,148.57142857142856" fill="#26c6da" fill-opacity="0.8" stroke="#08a8bc" stroke-width="5.5"/><polygon points="172.85714285714286,162.71428571428572 183,172.85714285714286 172.85714285714286,183 162.71428571428572,172.85714285714286" fill="#ff6b6b" fill-opacity="0.8" stroke="#e14d4d" stroke-width="5.5"/><g transform="translate(0, 0)"><polygon points="27.142857142857142,17 37.285714285714285,27.142857142857142 27.142857142857142,37.285714285714285 17,27.142857142857142" fill="#ff6b6b" fill-opacity="0.8" stroke="#e14d4d" stroke-width="5.5"/><polygon points="51.42857142857143,17 61.57142857142857,27.142857142857142 51.42857142857143,37.285714285714285 41.28571428571429,27.142857142857142" fill="#ffa726" fill-opacity="0.8" stroke="#e18908" stroke-width="5.5"/><polygon points="75.71428571428571,17 85.85714285714285,27.142857142857142 75.71428571428571,37.285714285714285 65.57142857142857,27.142857142857142" fill="#ffcc02" fill-opacity="0.8" stroke="#e1ae00" stroke-width="5.5"/><polygon points="100,17 110.14285714285714,27.142857142857142 100,37.285714285714285 89.85714285714286,27.142857142857142" fill="#66bb6a" fill-opacity="0.8" stroke="#489d4c" stroke-width="5.5"/><polygon points="124.28571428571428,17 134.42857142857142,27.142857142857142 124.28571428571428,37.285714285714285 114.14285714285714,27.142857142857142" fill="#42a5f5" fill-opacity="0.8" stroke="#2487d7" stroke-width="5.5"/><polygon points="148.57142857142856,17 158.7142857142857,27.142857142857142 148.57142857142856,37.285714285714285 138.42857142857142,27.142857142857142" fill="#26c6da" fill-opacity="0.8" stroke="#08a8bc" stroke-width="5.5"/><polygon points="172.85714285714286,17 183,27.142857142857142 172.85714285714286,37.285714285714285 162.71428571428572,27.142857142857142" fill="#ff6b6b" fill-opacity="0.8" stroke="#e14d4d" stroke-width="5.5"/><polygon points="51.42857142857143,41.28571428571429 61.57142857142857,51.42857142857143 51.42857142857143,61.57142857142857 41.28571428571429,51.42857142857143" fill="#ffcc02" fill-opacity="0.8" stroke="#e1ae00" stroke-width="5.5"/><polygon points="75.71428571428571,41.28571428571429 85.85714285714285,51.42857142857143 75.71428571428571,61.57142857142857 65.57142857142857,51.42857142857143" fill="#66bb6a" fill-opacity="0.8" stroke="#489d4c" stroke-width="5.5"/><polygon points="100,41.28571428571429 110.14285714285714,51.42857142857143 100,61.57142857142857 89.85714285714286,51.42857142857143" fill="#42a5f5" fill-opacity="0.8" stroke="#2487d7" stroke-width="5.5"/><polygon points="124.28571428571428,41.28571428571429 134.42857142857142,51.42857142857143 124.28571428571428,61.57142857142857 114.14285714285714,51.42857142857143" fill="#26c6da" fill-opacity="0.8" stroke="#08a8bc" stroke-width="5.5"/><polygon points="148.57142857142856,41.28571428571429 158.7142857142857,51.42857142857143 148.57142857142856,61.57142857142857 138.42857142857142,51.42857142857143" fill="#ff6b6b" fill-opacity="0.8" stroke="#e14d4d" stroke-width="5.5"/><polygon points="172.85714285714286,41.28571428571429 183,51.42857142857143 172.85714285714286,61.57142857142857 162.71428571428572,51.42857142857143" fill="#ffa726" fill-opacity="0.8" stroke="#e18908" stroke-width="5.5"/><polygon points="75.71428571428571,65.57142857142857 85.85714285714285,75.71428571428571 75.71428571428571,85.85714285714285 65.57142857142857,75.71428571428571" fill="#42a5f5" fill-opacity="0.8" stroke="#2487d7" stroke-width="5.5"/><polygon points="100,65.57142857142857 110.14285714285714,75.71428571428571 100,85.85714285714285 89.85714285714286,75.71428571428571" fill="#26c6da" fill-opacity="0.8" stroke="#08a8bc" stroke-width="5.5"/><polygon points="124.28571428571428,65.57142857142857 134.42857142857142,75.71428571428571 124.28571428571428,85.85714285714285 114.14285714285714,75.71428571428571" fill="#ff6b6b" fill-opacity="0.8" stroke="#e14d4d" stroke-width="5.5"/><polygon points="148.57142857142856,65.57142857142857 158.7142857142857,75.71428571428571 148.57142857142856,85.85714285714285 138.42857142857142,75.71428571428571" fill="#ffa726" fill-opacity="0.8" stroke="#e18908" stroke-width="5.5"/><polygon points="172.85714285714286,65.57142857142857 183,75.71428571428571 172.85714285714286,85.85714285714285 162.71428571428572,75.71428571428571" fill="#ffcc02" fill-opacity="0.8" stroke="#e1ae00" stroke-width="5.5"/><polygon points="100,89.85714285714286 110.14285714285714,100 100,110.14285714285714 89.85714285714286,100" fill="#ff6b6b" fill-opacity="0.8" stroke="#e14d4d" stroke-width="5.5"/><polygon points="124.28571428571428,89.85714285714286 134.42857142857142,100 124.28571428571428,110.14285714285714 114.14285714285714,100" fill="#ffa726" fill-opacity="0.8" stroke="#e18908" stroke-width="5.5"/><polygon points="148.57142857142856,89.85714285714286 158.7142857142857,100 148.57142857142856,110.14285714285714 138.42857142857142,100" fill="#ffcc02" fill-opacity="0.8" stroke="#e1ae00" stroke-width="5.5"/><polygon points="172.85714285714286,89.85714285714286 183,100 172.85714285714286,110.14285714285714 162.71428571428572,100" fill="#66bb6a" fill-opacity="0.8" stroke="#489d4c" stroke-width="5.5"/><polygon points="124.28571428571428,114.14285714285714 134.42857142857142,124.28571428571428 124.28571428571428,134.42857142857142 114.14285714285714,124.28571428571428" fill="#ffcc02" fill-opacity="0.8" stroke="#e1ae00" stroke-width="5.5"/><polygon points="148.57142857142856,114.14285714285714 158.7142857142857,124.28571428571428 148.57142857142856,134.42857142857142 138.42857142857142,124.28571428571428" fill="#66bb6a" fill-opacity="0.8" stroke="#489d4c" stroke-width="5.5"/><polygon points="172.85714285714286,114.14285714285714 183,124.28571428571428 172.85714285714286,134.42857142857142 162.71428571428572,124.28571428571428" fill="#42a5f5" fill-opacity="0.8" stroke="#2487d7" stroke-width="5.5"/><polygon points="148.57142857142856,138.42857142857142 158.7142857142857,148.57142857142856 148.57142857142856,158.7142857142857 138.42857142857142,148.57142857142856" fill="#42a5f5" fill-opacity="0.8" stroke="#2487d7" stroke-width="5.5"/><polygon points="172.85714285714286,138.42857142857142 183,148.57142857142856 172.85714285714286,158.7142857142857 162.71428571428572,148.57142857142856" fill="#26c6da" fill-opacity="0.8" stroke="#08a8bc" stroke-width="5.5"/><polygon points="172.85714285714286,162.71428571428572 183,172.85714285714286 172.85714285714286,183 162.71428571428572,172.85714285714286" fill="#ff6b6b" fill-opacity="0.8" stroke="#e14d4d" stroke-width="5.5"/></g><g transform="matrix(0, 1, 1, 0, 0, 0)"><polygon points="27.142857142857142,17 37.285714285714285,27.142857142857142 27.142857142857142,37.285714285714285 17,27.142857142857142" fill="#ff6b6b" fill-opacity="0.8" stroke="#e14d4d" stroke-width="5.5"/><polygon points="51.42857142857143,17 61.57142857142857,27.142857142857142 51.42857142857143,37.285714285714285 41.28571428571429,27.142857142857142" fill="#ffa726" fill-opacity="0.8" stroke="#e18908" stroke-width="5.5"/><polygon points="75.71428571428571,17 85.85714285714285,27.142857142857142 75.71428571428571,37.285714285714285 65.57142857142857,27.142857142857142" fill="#ffcc02" fill-opacity="0.8" stroke="#e1ae00" stroke-width="5.5"/><polygon points="100,17 110.14285714285714,27.142857142857142 100,37.285714285714285 89.85714285714286,27.142857142857142" fill="#66bb6a" fill-opacity="0.8" stroke="#489d4c" stroke-width="5.5"/><polygon points="124.28571428571428,17 134.42857142857142,27.142857142857142 124.28571428571428,37.285714285714285 114.14285714285714,27.142857142857142" fill="#42a5f5" fill-opacity="0.8" stroke="#2487d7" stroke-width="5.5"/><polygon points="148.57142857142856,17 158.7142857142857,27.142857142857142 148.57142857142856,37.285714285714285 138.42857142857142,27.142857142857142" fill="#26c6da" fill-opacity="0.8" stroke="#08a8bc" stroke-width="5.5"/><polygon points="172.85714285714286,17 183,27.142857142857142 172.85714285714286,37.285714285714285 162.71428571428572,27.142857142857142" fill="#ff6b6b" fill-opacity="0.8" stroke="#e14d4d" stroke-width="5.5"/><polygon points="51.42857142857143,41.28571428571429 61.57142857142857,51.42857142857143 51.42857142857143,61.57142857142857 41.28571428571429,51.42857142857143" fill="#ffcc02" fill-opacity="0.8" stroke="#e1ae00" stroke-width="5.5"/><polygon points="75.71428571428571,41.28571428571429 85.85714285714285,51.42857142857143 75.71428571428571,61.57142857142857 65.57142857142857,51.42857142857143" fill="#66bb6a" fill-opacity="0.8" stroke="#489d4c" stroke-width="5.5"/><polygon points="100,41.28571428571429 110.14285714285714,51.42857142857143 100,61.57142857142857 89.85714285714286,51.42857142857143" fill="#42a5f5" fill-opacity="0.8" stroke="#2487d7" stroke-width="5.5"/><polygon points="124.28571428571428,41.28571428571429 134.42857142857142,51.42857142857143 124.28571428571428,61.57142857142857 114.14285714285714,51.42857142857143" fill="#26c6da" fill-opacity="0.8" stroke="#08a8bc" stroke-width="5.5"/><polygon points="148.57142857142856,41.28571428571429 158.7142857142857,51.42857142857143 148.57142857142856,61.57142857142857 138.42857142857142,51.42857142857143" fill="#ff6b6b" fill-opacity="0.8" stroke="#e14d4d" stroke-width="5.5"/><polygon points="172.85714285714286,41.28571428571429 183,51.42857142857143 172.85714285714286,61.57142857142857 162.71428571428572,51.42857142857143" fill="#ffa726" fill-opacity="0.8" stroke="#e18908" stroke-width="5.5"/><polygon points="75.71428571428571,65.57142857142857 85.85714285714285,75.71428571428571 75.71428571428571,85.85714285714285 65.57142857142857,75.71428571428571" fill="#42a5f5" fill-opacity="0.8" stroke="#2487d7" stroke-width="5.5"/><polygon points="100,65.57142857142857 110.14285714285714,75.71428571428571 100,85.85714285714285 89.85714285714286,75.71428571428571" fill="#26c6da" fill-opacity="0.8" stroke="#08a8bc" stroke-width="5.5"/><polygon points="124.28571428571428,65.57142857142857 134.42857142857142,75.71428571428571 124.28571428571428,85.85714285714285 114.14285714285714,75.71428571428571" fill="#ff6b6b" fill-opacity="0.8" stroke="#e14d4d" stroke-width="5.5"/><polygon points="148.57142857142856,65.57142857142857 158.7142857142857,75.71428571428571 148.57142857142856,85.85714285714285 138.42857142857142,75.71428571428571" fill="#ffa726" fill-opacity="0.8" stroke="#e18908" stroke-width="5.5"/><polygon points="172.85714285714286,65.57142857142857 183,75.71428571428571 172.85714285714286,85.85714285714285 162.71428571428572,75.71428571428571" fill="#ffcc02" fill-opacity="0.8" stroke="#e1ae00" stroke-width="5.5"/><polygon points="100,89.85714285714286 110.14285714285714,100 100,110.14285714285714 89.85714285714286,100" fill="#ff6b6b" fill-opacity="0.8" stroke="#e14d4d" stroke-width="5.5"/><polygon points="124.28571428571428,89.85714285714286 134.42857142857142,100 124.28571428571428,110.14285714285714 114.14285714285714,100" fill="#ffa726" fill-opacity="0.8" stroke="#e18908" stroke-width="5.5"/><polygon points="148.57142857142856,89.85714285714286 158.7142857142857,100 148.57142857142856,110.14285714285714 138.42857142857142,100" fill="#ffcc02" fill-opacity="0.8" stroke="#e1ae00" stroke-width="5.5"/><polygon points="172.85714285714286,89.85714285714286 183,100 172.85714285714286,110.14285714285714 162.71428571428572,100" fill="#66bb6a" fill-opacity="0.8" stroke="#489d4c" stroke-width="5.5"/><polygon points="124.28571428571428,114.14285714285714 134.42857142857142,124.28571428571428 124.28571428571428,134.42857142857142 114.14285714285714,124.28571428571428" fill="#ffcc02" fill-opacity="0.8" stroke="#e1ae00" stroke-width="5.5"/><polygon points="148.57142857142856,114.14285714285714 158.7142857142857,124.28571428571428 148.57142857142856,134.42857142857142 138.42857142857142,124.28571428571428" fill="#66bb6a" fill-opacity="0.8" stroke="#489d4c" stroke-width="5.5"/><polygon points="172.85714285714286,114.14285714285714 183,124.28571428571428 172.85714285714286,134.42857142857142 162.71428571428572,124.28571428571428" fill="#42a5f5" fill-opacity="0.8" stroke="#2487d7" stroke-width="5.5"/><polygon points="148.57142857142856,138.42857142857142 158.7142857142857,148.57142857142856 148.57142857142856,158.7142857142857 138.42857142857142,148.57142857142856" fill="#42a5f5" fill-opacity="0.8" stroke="#2487d7" stroke-width="5.5"/><polygon points="172.85714285714286,138.42857142857142 183,148.57142857142856 172.85714285714286,158.7142857142857 162.71428571428572,148.57142857142856" fill="#26c6da" fill-opacity="0.8" stroke="#08a8bc" stroke-width="5.5"/><polygon points="172.85714285714286,162.71428571428572 183,172.85714285714286 172.85714285714286,183 162.71428571428572,172.85714285714286" fill="#ff6b6b" fill-opacity="0.8" stroke="#e14d4d" stroke-width="5.5"/></g></g></g><circle cx="100" cy="100" r="25" fill="#ff6b6b" fill-opacity="0.8" stroke="#d74343" stroke-width="4"/><circle cx="100" cy="100" r="12" fill="none" stroke="#c32f2f" stroke-width="2"/><path d="M8,15 A7,7 0 0,1 15,8" fill="none" stroke="#ff6b6b" stroke-width="2" stroke-linecap="round" stroke-opacity="1"/><path d="M192,185 A7,7 0 0,1 185,192" fill="none" stroke="#ff6b6b" stroke-width="2" stroke-linecap="round" stroke-opacity="1"/><path d="M1,15 A14,14 0 0,1 15,1" fill="none" stroke="#ff6b6b" stroke-width="2" stroke-linecap="round" stroke-opacity="1"/><path d="M199,185 A14,14 0 0,1 185,199" fill="none" stroke="#ff6b6b" stroke-width="2" stroke-linecap="round" stroke-opacity="1"/><path d="M185,9 A6,6 0 0,1 191,15" fill="none" stroke="#ffa726" stroke-width="1.6" stroke-linecap="round" stroke-opacity="1"/><path d="M15,191 A6,6 0 0,1 9,185" fill="none" stroke="#ffa726" stroke-width="1.6" stroke-linecap="round" stroke-opacity="1"/><path d="M185,3 A12,12 0 0,1 197,15" fill="none" stroke="#ffa726" stroke-width="1.6" stroke-linecap="round" stroke-opacity="1"/><path d="M15,197 A12,12 0 0,1 3,185" fill="none" stroke="#ffa726" stroke-width="1.6" stroke-linecap="round" stroke-opacity="1"/><rect x="5" y="5" width="190" height="190" fill="none" stroke="#002366" stroke-width="8" stroke-opacity="0.88"/></svg>