<svg xmlns="http://www.w3.org/2000/svg" width="200" height="200" viewBox="0 0 200 200"><defs></defs><rect width="200" height="200" fill="#ffffff"/><g class="pattern"><g class="symmetry-vertical"><circle cx="100" cy="100" r="45" fill="none" stroke="#0047ab" stroke-width="16.5"/><circle cx="100" cy="100" r="35" fill="#1e90ff" fill-opacity="0.8" stroke="#00298d" stroke-width="5.5"/><circle cx="125" cy="100" r="5" fill="#0047ab" stroke="#001f83" stroke-width="5.5"/><circle cx="117.67766952966369" cy="117.67766952966369" r="5" fill="#0047ab" stroke="#001f83" stroke-width="5.5"/><circle cx="100" cy="125" r="5" fill="#0047ab" stroke="#001f83" stroke-width="5.5"/><circle cx="82.32233047033631" cy="117.67766952966369" r="5" fill="#0047ab" stroke="#001f83" stroke-width="5.5"/><circle cx="75" cy="100" r="5" fill="#0047ab" stroke="#001f83" stroke-width="5.5"/><circle cx="82.32233047033631" cy="82.32233047033631" r="5" fill="#0047ab" stroke="#001f83" stroke-width="5.5"/><circle cx="100" cy="75" r="5" fill="#0047ab" stroke="#001f83" stroke-width="5.5"/><circle cx="117.67766952966369" cy="82.32233047033631" r="5" fill="#0047ab" stroke="#001f83" stroke-width="5.5"/><circle cx="100" cy="100" r="12" fill="#ffd700" stroke="#d7af00" stroke-width="5.5"/><line x1="150" y1="100" x2="175" y2="100" stroke="#0047ab" stroke-width="11"/><line x1="143.30127018922195" y1="125" x2="164.9519052838329" y2="137.5" stroke="#0047ab" stroke-width="11"/><line x1="125" y1="143.30127018922192" x2="137.5" y2="164.9519052838329" stroke="#0047ab" stroke-width="11"/><line x1="100" y1="150" x2="100" y2="175" stroke="#0047ab" stroke-width="11"/><line x1="75.00000000000001" y1="143.30127018922195" x2="62.500000000000014" y2="164.9519052838329" stroke="#0047ab" stroke-width="11"/><line x1="56.69872981077806" y1="125" x2="35.0480947161671" y2="137.5" stroke="#0047ab" stroke-width="11"/><line x1="50" y1="100" x2="25" y2="100.00000000000001" stroke="#0047ab" stroke-width="11"/><line x1="56.69872981077807" y1="75" x2="35.0480947161671" y2="62.49999999999999" stroke="#0047ab" stroke-width="11"/><line x1="74.99999999999997" y1="56.69872981077808" x2="62.499999999999964" y2="35.04809471616713" stroke="#0047ab" stroke-width="11"/><line x1="99.99999999999999" y1="50" x2="99.99999999999999" y2="25" stroke="#0047ab" stroke-width="11"/><line x1="125" y1="56.69872981077807" x2="137.5" y2="35.0480947161671" stroke="#0047ab" stroke-width="11"/><line x1="143.30127018922192" y1="74.99999999999997" x2="164.95190528383287" y2="62.499999999999964" stroke="#0047ab" stroke-width="11"/><g transform="translate(0, 200) scale(1, -1)"><circle cx="100" cy="100" r="45" fill="none" stroke="#0047ab" stroke-width="16.5"/><circle cx="100" cy="100" r="35" fill="#1e90ff" fill-opacity="0.8" stroke="#00298d" stroke-width="5.5"/><circle cx="125" cy="100" r="5" fill="#0047ab" stroke="#001f83" stroke-width="5.5"/><circle cx="117.67766952966369" cy="117.67766952966369" r="5" fill="#0047ab" stroke="#001f83" stroke-width="5.5"/><circle cx="100" cy="125" r="5" fill="#0047ab" stroke="#001f83" stroke-width="5.5"/><circle cx="82.32233047033631" cy="117.67766952966369" r="5" fill="#0047ab" stroke="#001f83" stroke-width="5.5"/><circle cx="75" cy="100" r="5" fill="#0047ab" stroke="#001f83" stroke-width="5.5"/><circle cx="82.32233047033631" cy="82.32233047033631" r="5" fill="#0047ab" stroke="#001f83" stroke-width="5.5"/><circle cx="100" cy="75" r="5" fill="#0047ab" stroke="#001f83" stroke-width="5.5"/><circle cx="117.67766952966369" cy="82.32233047033631" r="5" fill="#0047ab" stroke="#001f83" stroke-width="5.5"/><circle cx="100" cy="100" r="12" fill="#ffd700" stroke="#d7af00" stroke-width="5.5"/><line x1="150" y1="100" x2="175" y2="100" stroke="#0047ab" stroke-width="11"/><line x1="143.30127018922195" y1="125" x2="164.9519052838329" y2="137.5" stroke="#0047ab" stroke-width="11"/><line x1="125" y1="143.30127018922192" x2="137.5" y2="164.9519052838329" stroke="#0047ab" stroke-width="11"/><line x1="100" y1="150" x2="100" y2="175" stroke="#0047ab" stroke-width="11"/><line x1="75.00000000000001" y1="143.30127018922195" x2="62.500000000000014" y2="164.9519052838329" stroke="#0047ab" stroke-width="11"/><line x1="56.69872981077806" y1="125" x2="35.0480947161671" y2="137.5" stroke="#0047ab" stroke-width="11"/><line x1="50" y1="100" x2="25" y2="100.00000000000001" stroke="#0047ab" stroke-width="11"/><line x1="56.69872981077807" y1="75" x2="35.0480947161671" y2="62.49999999999999" stroke="#0047ab" stroke-width="11"/><line x1="74.99999999999997" y1="56.69872981077808" x2="62.499999999999964" y2="35.04809471616713" stroke="#0047ab" stroke-width="11"/><line x1="99.99999999999999" y1="50" x2="99.99999999999999" y2="25" stroke="#0047ab" stroke-width="11"/><line x1="125" y1="56.69872981077807" x2="137.5" y2="35.0480947161671" stroke="#0047ab" stroke-width="11"/><line x1="143.30127018922192" y1="74.99999999999997" x2="164.95190528383287" y2="62.499999999999964" stroke="#0047ab" stroke-width="11"/></g></g></g><path d="M100,100 L132,100 A32,32 0 0,1 129.56414504036118,112.24586983568287 Z" fill="#b8860b" fill-opacity="0.8" stroke="#9a6800" stroke-width="2"/><path d="M100,100 L129.56414504036118,112.24586983568287 A32,32 0 0,1 122.62741699796952,122.62741699796952 Z" fill="#b8860b" fill-opacity="0.8" stroke="#9a6800" stroke-width="2"/><path d="M100,100 L122.62741699796952,122.62741699796952 A32,32 0 0,1 112.24586983568287,129.56414504036118 Z" fill="#b8860b" fill-opacity="0.8" stroke="#9a6800" stroke-width="2"/><path d="M100,100 L112.24586983568287,129.56414504036118 A32,32 0 0,1 100,132 Z" fill="#b8860b" fill-opacity="0.8" stroke="#9a6800" stroke-width="2"/><path d="M100,100 L100,132 A32,32 0 0,1 87.75413016431713,129.56414504036118 Z" fill="#b8860b" fill-opacity="0.8" stroke="#9a6800" stroke-width="2"/><path d="M100,100 L87.75413016431713,129.56414504036118 A32,32 0 0,1 77.37258300203048,122.62741699796952 Z" fill="#b8860b" fill-opacity="0.8" stroke="#9a6800" stroke-width="2"/><path d="M100,100 L77.37258300203048,122.62741699796952 A32,32 0 0,1 70.43585495963882,112.24586983568288 Z" fill="#b8860b" fill-opacity="0.8" stroke="#9a6800" stroke-width="2"/><path d="M100,100 L70.43585495963882,112.24586983568288 A32,32 0 0,1 68,100 Z" fill="#b8860b" fill-opacity="0.8" stroke="#9a6800" stroke-width="2"/><path d="M100,100 L68,100 A32,32 0 0,1 70.43585495963882,87.75413016431713 Z" fill="#b8860b" fill-opacity="0.8" stroke="#9a6800" stroke-width="2"/><path d="M100,100 L70.43585495963882,87.75413016431713 A32,32 0 0,1 77.37258300203047,77.37258300203048 Z" fill="#b8860b" fill-opacity="0.8" stroke="#9a6800" stroke-width="2"/><path d="M100,100 L77.37258300203047,77.37258300203048 A32,32 0 0,1 87.7541301643171,70.43585495963883 Z" fill="#b8860b" fill-opacity="0.8" stroke="#9a6800" stroke-width="2"/><path d="M100,100 L87.7541301643171,70.43585495963883 A32,32 0 0,1 100,68 Z" fill="#b8860b" fill-opacity="0.8" stroke="#9a6800" stroke-width="2"/><path d="M100,100 L100,68 A32,32 0 0,1 112.24586983568288,70.43585495963883 Z" fill="#b8860b" fill-opacity="0.8" stroke="#9a6800" stroke-width="2"/><path d="M100,100 L112.24586983568288,70.43585495963883 A32,32 0 0,1 122.62741699796952,77.37258300203047 Z" fill="#b8860b" fill-opacity="0.8" stroke="#9a6800" stroke-width="2"/><path d="M100,100 L122.62741699796952,77.37258300203047 A32,32 0 0,1 129.56414504036115,87.7541301643171 Z" fill="#b8860b" fill-opacity="0.8" stroke="#9a6800" stroke-width="2"/><path d="M100,100 L129.56414504036115,87.7541301643171 A32,32 0 0,1 132,99.99999999999999 Z" fill="#b8860b" fill-opacity="0.8" stroke="#9a6800" stroke-width="2"/><path d="M100,100 L124,100 A24,24 0 0,1 121.62325282965806,110.4132097388214 Z" fill="#daa520" fill-opacity="0.8" stroke="#bc8702" stroke-width="2"/><path d="M100,100 L121.62325282965806,110.4132097388214 A24,24 0 0,1 114.9637552446096,118.76395557923271 Z" fill="#daa520" fill-opacity="0.8" stroke="#bc8702" stroke-width="2"/><path d="M100,100 L114.9637552446096,118.76395557923271 A24,24 0 0,1 105.34050241495154,123.39826989236377 Z" fill="#daa520" fill-opacity="0.8" stroke="#bc8702" stroke-width="2"/><path d="M100,100 L105.34050241495154,123.39826989236377 A24,24 0 0,1 94.65949758504846,123.39826989236377 Z" fill="#daa520" fill-opacity="0.8" stroke="#bc8702" stroke-width="2"/><path d="M100,100 L94.65949758504846,123.39826989236377 A24,24 0 0,1 85.0362447553904,118.76395557923271 Z" fill="#daa520" fill-opacity="0.8" stroke="#bc8702" stroke-width="2"/><path d="M100,100 L85.0362447553904,118.76395557923271 A24,24 0 0,1 78.37674717034194,110.4132097388214 Z" fill="#daa520" fill-opacity="0.8" stroke="#bc8702" stroke-width="2"/><path d="M100,100 L78.37674717034194,110.4132097388214 A24,24 0 0,1 76,100 Z" fill="#daa520" fill-opacity="0.8" stroke="#bc8702" stroke-width="2"/><path d="M100,100 L76,100 A24,24 0 0,1 78.37674717034194,89.5867902611786 Z" fill="#daa520" fill-opacity="0.8" stroke="#bc8702" stroke-width="2"/><path d="M100,100 L78.37674717034194,89.5867902611786 A24,24 0 0,1 85.03624475539038,81.23604442076729 Z" fill="#daa520" fill-opacity="0.8" stroke="#bc8702" stroke-width="2"/><path d="M100,100 L85.03624475539038,81.23604442076729 A24,24 0 0,1 94.65949758504846,76.60173010763623 Z" fill="#daa520" fill-opacity="0.8" stroke="#bc8702" stroke-width="2"/><path d="M100,100 L94.65949758504846,76.60173010763623 A24,24 0 0,1 105.34050241495154,76.60173010763623 Z" fill="#daa520" fill-opacity="0.8" stroke="#bc8702" stroke-width="2"/><path d="M100,100 L105.34050241495154,76.60173010763623 A24,24 0 0,1 114.9637552446096,81.23604442076729 Z" fill="#daa520" fill-opacity="0.8" stroke="#bc8702" stroke-width="2"/><path d="M100,100 L114.9637552446096,81.23604442076729 A24,24 0 0,1 121.62325282965806,89.5867902611786 Z" fill="#daa520" fill-opacity="0.8" stroke="#bc8702" stroke-width="2"/><path d="M100,100 L121.62325282965806,89.5867902611786 A24,24 0 0,1 124,100 Z" fill="#daa520" fill-opacity="0.8" stroke="#bc8702" stroke-width="2"/><path d="M100,100 L116,100 A16,16 0 0,1 113.85640646055101,108 Z" fill="#ffd700" fill-opacity="0.8" stroke="#e1b900" stroke-width="2"/><path d="M100,100 L113.85640646055101,108 A16,16 0 0,1 108,113.85640646055101 Z" fill="#ffd700" fill-opacity="0.8" stroke="#e1b900" stroke-width="2"/><path d="M100,100 L108,113.85640646055101 A16,16 0 0,1 100,116 Z" fill="#ffd700" fill-opacity="0.8" stroke="#e1b900" stroke-width="2"/><path d="M100,100 L100,116 A16,16 0 0,1 92,113.85640646055101 Z" fill="#ffd700" fill-opacity="0.8" stroke="#e1b900" stroke-width="2"/><path d="M100,100 L92,113.85640646055101 A16,16 0 0,1 86.14359353944899,108 Z" fill="#ffd700" fill-opacity="0.8" stroke="#e1b900" stroke-width="2"/><path d="M100,100 L86.14359353944899,108 A16,16 0 0,1 84,100 Z" fill="#ffd700" fill-opacity="0.8" stroke="#e1b900" stroke-width="2"/><path d="M100,100 L84,100 A16,16 0 0,1 86.14359353944899,92 Z" fill="#ffd700" fill-opacity="0.8" stroke="#e1b900" stroke-width="2"/><path d="M100,100 L86.14359353944899,92 A16,16 0 0,1 92,86.14359353944899 Z" fill="#ffd700" fill-opacity="0.8" stroke="#e1b900" stroke-width="2"/><path d="M100,100 L92,86.14359353944899 A16,16 0 0,1 100,84 Z" fill="#ffd700" fill-opacity="0.8" stroke="#e1b900" stroke-width="2"/><path d="M100,100 L100,84 A16,16 0 0,1 108,86.14359353944899 Z" fill="#ffd700" fill-opacity="0.8" stroke="#e1b900" stroke-width="2"/><path d="M100,100 L108,86.14359353944899 A16,16 0 0,1 113.85640646055101,92 Z" fill="#ffd700" fill-opacity="0.8" stroke="#e1b900" stroke-width="2"/><path d="M100,100 L113.85640646055101,92 A16,16 0 0,1 116,100 Z" fill="#ffd700" fill-opacity="0.8" stroke="#e1b900" stroke-width="2"/><path d="M100,100 L108,100 A8,8 0 0,1 106.47213595499957,104.70228201833979 Z" fill="#1e90ff" fill-opacity="0.8" stroke="#0072e1" stroke-width="2"/><path d="M100,100 L106.47213595499957,104.70228201833979 A8,8 0 0,1 102.47213595499957,107.60845213036123 Z" fill="#1e90ff" fill-opacity="0.8" stroke="#0072e1" stroke-width="2"/><path d="M100,100 L102.47213595499957,107.60845213036123 A8,8 0 0,1 97.52786404500043,107.60845213036123 Z" fill="#1e90ff" fill-opacity="0.8" stroke="#0072e1" stroke-width="2"/><path d="M100,100 L97.52786404500043,107.60845213036123 A8,8 0 0,1 93.52786404500043,104.70228201833979 Z" fill="#1e90ff" fill-opacity="0.8" stroke="#0072e1" stroke-width="2"/><path d="M100,100 L93.52786404500043,104.70228201833979 A8,8 0 0,1 92,100 Z" fill="#1e90ff" fill-opacity="0.8" stroke="#0072e1" stroke-width="2"/><path d="M100,100 L92,100 A8,8 0 0,1 93.52786404500041,95.29771798166021 Z" fill="#1e90ff" fill-opacity="0.8" stroke="#0072e1" stroke-width="2"/><path d="M100,100 L93.52786404500041,95.29771798166021 A8,8 0 0,1 97.52786404500041,92.39154786963877 Z" fill="#1e90ff" fill-opacity="0.8" stroke="#0072e1" stroke-width="2"/><path d="M100,100 L97.52786404500041,92.39154786963877 A8,8 0 0,1 102.47213595499957,92.39154786963877 Z" fill="#1e90ff" fill-opacity="0.8" stroke="#0072e1" stroke-width="2"/><path d="M100,100 L102.47213595499957,92.39154786963877 A8,8 0 0,1 106.47213595499957,95.29771798166021 Z" fill="#1e90ff" fill-opacity="0.8" stroke="#0072e1" stroke-width="2"/><path d="M100,100 L106.47213595499957,95.29771798166021 A8,8 0 0,1 108,100 Z" fill="#1e90ff" fill-opacity="0.8" stroke="#0072e1" stroke-width="2"/><circle cx="100" cy="100" r="5" fill="#0047ab" stroke="#001f83" stroke-width="2"/><path d="M15,29 Q22,19.2 29,15" fill="none" stroke="#0047ab" stroke-width="2.6" stroke-linecap="round" stroke-opacity="1"/><path d="M185,171 Q178,180.8 171,185" fill="none" stroke="#0047ab" stroke-width="2.6" stroke-linecap="round" stroke-opacity="1"/><path d="M171,15 Q180.8,22 185,29" fill="none" stroke="#1e90ff" stroke-width="2.6" stroke-linecap="round" stroke-opacity="1"/><path d="M29,185 Q19.2,178 15,171" fill="none" stroke="#1e90ff" stroke-width="2.6" stroke-linecap="round" stroke-opacity="1"/><rect x="5" y="5" width="190" height="190" fill="none" stroke="#1e3c72" stroke-width="8" stroke-opacity="1"/></svg>