<svg xmlns="http://www.w3.org/2000/svg" width="200" height="200" viewBox="0 0 200 200"><defs></defs><rect width="200" height="200" fill="#ffffff"/><g class="pattern"><g class="symmetry-rotational"><path d="M35,35 C165,35 165,165 35,165" fill="none" stroke="#0047ab" stroke-width="16.5"/><path d="M165,35 C35,35 35,165 165,165" fill="none" stroke="#1e90ff" stroke-width="16.5"/><path d="M35,35 C35,165 165,165 165,35" fill="none" stroke="#ffd700" stroke-width="16.5"/><path d="M35,165 C35,35 165,35 165,165" fill="none" stroke="#daa520" stroke-width="16.5"/><circle cx="100" cy="35" r="11" fill="#1e90ff" stroke="none"/><circle cx="100" cy="165" r="11" fill="#0047ab" stroke="none"/><g transform="rotate(90, 100, 100)"><path d="M35,35 C165,35 165,165 35,165" fill="none" stroke="#0047ab" stroke-width="16.5"/><path d="M165,35 C35,35 35,165 165,165" fill="none" stroke="#1e90ff" stroke-width="16.5"/><path d="M35,35 C35,165 165,165 165,35" fill="none" stroke="#ffd700" stroke-width="16.5"/><path d="M35,165 C35,35 165,35 165,165" fill="none" stroke="#daa520" stroke-width="16.5"/><circle cx="100" cy="35" r="11" fill="#1e90ff" stroke="none"/><circle cx="100" cy="165" r="11" fill="#0047ab" stroke="none"/></g><g transform="rotate(180, 100, 100)"><path d="M35,35 C165,35 165,165 35,165" fill="none" stroke="#0047ab" stroke-width="16.5"/><path d="M165,35 C35,35 35,165 165,165" fill="none" stroke="#1e90ff" stroke-width="16.5"/><path d="M35,35 C35,165 165,165 165,35" fill="none" stroke="#ffd700" stroke-width="16.5"/><path d="M35,165 C35,35 165,35 165,165" fill="none" stroke="#daa520" stroke-width="16.5"/><circle cx="100" cy="35" r="11" fill="#1e90ff" stroke="none"/><circle cx="100" cy="165" r="11" fill="#0047ab" stroke="none"/></g><g transform="rotate(270, 100, 100)"><path d="M35,35 C165,35 165,165 35,165" fill="none" stroke="#0047ab" stroke-width="16.5"/><path d="M165,35 C35,35 35,165 165,165" fill="none" stroke="#1e90ff" stroke-width="16.5"/><path d="M35,35 C35,165 165,165 165,35" fill="none" stroke="#ffd700" stroke-width="16.5"/><path d="M35,165 C35,35 165,35 165,165" fill="none" stroke="#daa520" stroke-width="16.5"/><circle cx="100" cy="35" r="11" fill="#1e90ff" stroke="none"/><circle cx="100" cy="165" r="11" fill="#0047ab" stroke="none"/></g></g></g><circle cx="100" cy="100" r="25" fill="#0047ab" fill-opacity="0.8" stroke="#001f83" stroke-width="4"/><circle cx="100" cy="100" r="12" fill="none" stroke="#000b6f" stroke-width="2"/><path d="M15,5 L17.82842712474619,12.17157287525381 L25,15 L17.82842712474619,17.82842712474619 L15,25 L12.17157287525381,17.82842712474619 L5,15.000000000000002 L12.171572875253808,12.17157287525381 Z" fill="#0047ab" fill-opacity="0.6" stroke="#0047ab" stroke-width="2" stroke-opacity="1"/><path d="M185,175 L187.82842712474618,182.17157287525382 L195,185 L187.82842712474618,187.82842712474618 L185,195 L182.17157287525382,187.82842712474618 L175,185 L182.17157287525382,182.17157287525382 Z" fill="#0047ab" fill-opacity="0.6" stroke="#0047ab" stroke-width="2" stroke-opacity="1"/><path d="M185,7 L187.26274169979695,12.737258300203049 L193,15 L187.26274169979695,17.26274169979695 L185,23 L182.73725830020305,17.26274169979695 L177,15.000000000000002 L182.73725830020305,12.737258300203049 Z" fill="#1e90ff" fill-opacity="0.6" stroke="#1e90ff" stroke-width="1.6" stroke-opacity="1"/><path d="M15,177 L17.26274169979695,182.73725830020305 L23,185 L17.26274169979695,187.26274169979695 L15,193 L12.737258300203049,187.26274169979695 L7,185 L12.737258300203047,182.73725830020305 Z" fill="#1e90ff" fill-opacity="0.6" stroke="#1e90ff" stroke-width="1.6" stroke-opacity="1"/><rect x="5" y="5" width="190" height="190" fill="none" stroke="#1e3c72" stroke-width="8" stroke-opacity="1"/></svg>