<svg xmlns="http://www.w3.org/2000/svg" width="200" height="200" viewBox="0 0 200 200"><defs></defs><rect width="200" height="200" fill="#ffffff"/><g class="pattern"><g class="symmetry-radial"><rect x="90.55555555555556" y="94.33333333333333" width="18.88888888888889" height="11.333333333333334" fill="#4169e1" fill-opacity="0.8" stroke="#234bc3" stroke-width="5.5"/><rect x="113.22222222222221" y="90.55555555555556" width="11.333333333333334" height="18.88888888888889" fill="#6495ed" fill-opacity="0.8" stroke="#4677cf" stroke-width="5.5"/><rect x="128.33333333333334" y="94.33333333333333" width="18.88888888888889" height="11.333333333333334" fill="#87ceeb" fill-opacity="0.8" stroke="#69b0cd" stroke-width="5.5"/><rect x="151.00000000000003" y="90.55555555555556" width="11.333333333333334" height="18.88888888888889" fill="#f0f8ff" fill-opacity="0.8" stroke="#d2dae1" stroke-width="5.5"/><rect x="166.11111111111111" y="94.33333333333333" width="18.88888888888889" height="11.333333333333334" fill="#191970" fill-opacity="0.8" stroke="#000052" stroke-width="5.5"/><rect x="109.44444444444444" y="113.22222222222221" width="18.88888888888889" height="11.333333333333334" fill="#87ceeb" fill-opacity="0.8" stroke="#69b0cd" stroke-width="5.5"/><rect x="132.11111111111114" y="109.44444444444444" width="11.333333333333334" height="18.88888888888889" fill="#f0f8ff" fill-opacity="0.8" stroke="#d2dae1" stroke-width="5.5"/><rect x="147.22222222222223" y="113.22222222222221" width="18.88888888888889" height="11.333333333333334" fill="#191970" fill-opacity="0.8" stroke="#000052" stroke-width="5.5"/><rect x="169.8888888888889" y="109.44444444444444" width="11.333333333333334" height="18.88888888888889" fill="#000080" fill-opacity="0.8" stroke="#000062" stroke-width="5.5"/><rect x="128.33333333333334" y="132.11111111111114" width="18.88888888888889" height="11.333333333333334" fill="#191970" fill-opacity="0.8" stroke="#000052" stroke-width="5.5"/><rect x="151.00000000000003" y="128.33333333333334" width="11.333333333333334" height="18.88888888888889" fill="#000080" fill-opacity="0.8" stroke="#000062" stroke-width="5.5"/><rect x="166.11111111111111" y="132.11111111111114" width="18.88888888888889" height="11.333333333333334" fill="#4169e1" fill-opacity="0.8" stroke="#234bc3" stroke-width="5.5"/><rect x="147.22222222222223" y="151.00000000000003" width="18.88888888888889" height="11.333333333333334" fill="#4169e1" fill-opacity="0.8" stroke="#234bc3" stroke-width="5.5"/><rect x="169.8888888888889" y="147.22222222222223" width="11.333333333333334" height="18.88888888888889" fill="#6495ed" fill-opacity="0.8" stroke="#4677cf" stroke-width="5.5"/><rect x="166.11111111111111" y="169.8888888888889" width="18.88888888888889" height="11.333333333333334" fill="#87ceeb" fill-opacity="0.8" stroke="#69b0cd" stroke-width="5.5"/><g transform="rotate(45, 100, 100)"><rect x="90.55555555555556" y="94.33333333333333" width="18.88888888888889" height="11.333333333333334" fill="#4169e1" fill-opacity="0.8" stroke="#234bc3" stroke-width="5.5"/><rect x="113.22222222222221" y="90.55555555555556" width="11.333333333333334" height="18.88888888888889" fill="#6495ed" fill-opacity="0.8" stroke="#4677cf" stroke-width="5.5"/><rect x="128.33333333333334" y="94.33333333333333" width="18.88888888888889" height="11.333333333333334" fill="#87ceeb" fill-opacity="0.8" stroke="#69b0cd" stroke-width="5.5"/><rect x="151.00000000000003" y="90.55555555555556" width="11.333333333333334" height="18.88888888888889" fill="#f0f8ff" fill-opacity="0.8" stroke="#d2dae1" stroke-width="5.5"/><rect x="166.11111111111111" y="94.33333333333333" width="18.88888888888889" height="11.333333333333334" fill="#191970" fill-opacity="0.8" stroke="#000052" stroke-width="5.5"/><rect x="109.44444444444444" y="113.22222222222221" width="18.88888888888889" height="11.333333333333334" fill="#87ceeb" fill-opacity="0.8" stroke="#69b0cd" stroke-width="5.5"/><rect x="132.11111111111114" y="109.44444444444444" width="11.333333333333334" height="18.88888888888889" fill="#f0f8ff" fill-opacity="0.8" stroke="#d2dae1" stroke-width="5.5"/><rect x="147.22222222222223" y="113.22222222222221" width="18.88888888888889" height="11.333333333333334" fill="#191970" fill-opacity="0.8" stroke="#000052" stroke-width="5.5"/><rect x="169.8888888888889" y="109.44444444444444" width="11.333333333333334" height="18.88888888888889" fill="#000080" fill-opacity="0.8" stroke="#000062" stroke-width="5.5"/><rect x="128.33333333333334" y="132.11111111111114" width="18.88888888888889" height="11.333333333333334" fill="#191970" fill-opacity="0.8" stroke="#000052" stroke-width="5.5"/><rect x="151.00000000000003" y="128.33333333333334" width="11.333333333333334" height="18.88888888888889" fill="#000080" fill-opacity="0.8" stroke="#000062" stroke-width="5.5"/><rect x="166.11111111111111" y="132.11111111111114" width="18.88888888888889" height="11.333333333333334" fill="#4169e1" fill-opacity="0.8" stroke="#234bc3" stroke-width="5.5"/><rect x="147.22222222222223" y="151.00000000000003" width="18.88888888888889" height="11.333333333333334" fill="#4169e1" fill-opacity="0.8" stroke="#234bc3" stroke-width="5.5"/><rect x="169.8888888888889" y="147.22222222222223" width="11.333333333333334" height="18.88888888888889" fill="#6495ed" fill-opacity="0.8" stroke="#4677cf" stroke-width="5.5"/><rect x="166.11111111111111" y="169.8888888888889" width="18.88888888888889" height="11.333333333333334" fill="#87ceeb" fill-opacity="0.8" stroke="#69b0cd" stroke-width="5.5"/></g><g transform="rotate(90, 100, 100)"><rect x="90.55555555555556" y="94.33333333333333" width="18.88888888888889" height="11.333333333333334" fill="#4169e1" fill-opacity="0.8" stroke="#234bc3" stroke-width="5.5"/><rect x="113.22222222222221" y="90.55555555555556" width="11.333333333333334" height="18.88888888888889" fill="#6495ed" fill-opacity="0.8" stroke="#4677cf" stroke-width="5.5"/><rect x="128.33333333333334" y="94.33333333333333" width="18.88888888888889" height="11.333333333333334" fill="#87ceeb" fill-opacity="0.8" stroke="#69b0cd" stroke-width="5.5"/><rect x="151.00000000000003" y="90.55555555555556" width="11.333333333333334" height="18.88888888888889" fill="#f0f8ff" fill-opacity="0.8" stroke="#d2dae1" stroke-width="5.5"/><rect x="166.11111111111111" y="94.33333333333333" width="18.88888888888889" height="11.333333333333334" fill="#191970" fill-opacity="0.8" stroke="#000052" stroke-width="5.5"/><rect x="109.44444444444444" y="113.22222222222221" width="18.88888888888889" height="11.333333333333334" fill="#87ceeb" fill-opacity="0.8" stroke="#69b0cd" stroke-width="5.5"/><rect x="132.11111111111114" y="109.44444444444444" width="11.333333333333334" height="18.88888888888889" fill="#f0f8ff" fill-opacity="0.8" stroke="#d2dae1" stroke-width="5.5"/><rect x="147.22222222222223" y="113.22222222222221" width="18.88888888888889" height="11.333333333333334" fill="#191970" fill-opacity="0.8" stroke="#000052" stroke-width="5.5"/><rect x="169.8888888888889" y="109.44444444444444" width="11.333333333333334" height="18.88888888888889" fill="#000080" fill-opacity="0.8" stroke="#000062" stroke-width="5.5"/><rect x="128.33333333333334" y="132.11111111111114" width="18.88888888888889" height="11.333333333333334" fill="#191970" fill-opacity="0.8" stroke="#000052" stroke-width="5.5"/><rect x="151.00000000000003" y="128.33333333333334" width="11.333333333333334" height="18.88888888888889" fill="#000080" fill-opacity="0.8" stroke="#000062" stroke-width="5.5"/><rect x="166.11111111111111" y="132.11111111111114" width="18.88888888888889" height="11.333333333333334" fill="#4169e1" fill-opacity="0.8" stroke="#234bc3" stroke-width="5.5"/><rect x="147.22222222222223" y="151.00000000000003" width="18.88888888888889" height="11.333333333333334" fill="#4169e1" fill-opacity="0.8" stroke="#234bc3" stroke-width="5.5"/><rect x="169.8888888888889" y="147.22222222222223" width="11.333333333333334" height="18.88888888888889" fill="#6495ed" fill-opacity="0.8" stroke="#4677cf" stroke-width="5.5"/><rect x="166.11111111111111" y="169.8888888888889" width="18.88888888888889" height="11.333333333333334" fill="#87ceeb" fill-opacity="0.8" stroke="#69b0cd" stroke-width="5.5"/></g><g transform="rotate(135, 100, 100)"><rect x="90.55555555555556" y="94.33333333333333" width="18.88888888888889" height="11.333333333333334" fill="#4169e1" fill-opacity="0.8" stroke="#234bc3" stroke-width="5.5"/><rect x="113.22222222222221" y="90.55555555555556" width="11.333333333333334" height="18.88888888888889" fill="#6495ed" fill-opacity="0.8" stroke="#4677cf" stroke-width="5.5"/><rect x="128.33333333333334" y="94.33333333333333" width="18.88888888888889" height="11.333333333333334" fill="#87ceeb" fill-opacity="0.8" stroke="#69b0cd" stroke-width="5.5"/><rect x="151.00000000000003" y="90.55555555555556" width="11.333333333333334" height="18.88888888888889" fill="#f0f8ff" fill-opacity="0.8" stroke="#d2dae1" stroke-width="5.5"/><rect x="166.11111111111111" y="94.33333333333333" width="18.88888888888889" height="11.333333333333334" fill="#191970" fill-opacity="0.8" stroke="#000052" stroke-width="5.5"/><rect x="109.44444444444444" y="113.22222222222221" width="18.88888888888889" height="11.333333333333334" fill="#87ceeb" fill-opacity="0.8" stroke="#69b0cd" stroke-width="5.5"/><rect x="132.11111111111114" y="109.44444444444444" width="11.333333333333334" height="18.88888888888889" fill="#f0f8ff" fill-opacity="0.8" stroke="#d2dae1" stroke-width="5.5"/><rect x="147.22222222222223" y="113.22222222222221" width="18.88888888888889" height="11.333333333333334" fill="#191970" fill-opacity="0.8" stroke="#000052" stroke-width="5.5"/><rect x="169.8888888888889" y="109.44444444444444" width="11.333333333333334" height="18.88888888888889" fill="#000080" fill-opacity="0.8" stroke="#000062" stroke-width="5.5"/><rect x="128.33333333333334" y="132.11111111111114" width="18.88888888888889" height="11.333333333333334" fill="#191970" fill-opacity="0.8" stroke="#000052" stroke-width="5.5"/><rect x="151.00000000000003" y="128.33333333333334" width="11.333333333333334" height="18.88888888888889" fill="#000080" fill-opacity="0.8" stroke="#000062" stroke-width="5.5"/><rect x="166.11111111111111" y="132.11111111111114" width="18.88888888888889" height="11.333333333333334" fill="#4169e1" fill-opacity="0.8" stroke="#234bc3" stroke-width="5.5"/><rect x="147.22222222222223" y="151.00000000000003" width="18.88888888888889" height="11.333333333333334" fill="#4169e1" fill-opacity="0.8" stroke="#234bc3" stroke-width="5.5"/><rect x="169.8888888888889" y="147.22222222222223" width="11.333333333333334" height="18.88888888888889" fill="#6495ed" fill-opacity="0.8" stroke="#4677cf" stroke-width="5.5"/><rect x="166.11111111111111" y="169.8888888888889" width="18.88888888888889" height="11.333333333333334" fill="#87ceeb" fill-opacity="0.8" stroke="#69b0cd" stroke-width="5.5"/></g><g transform="rotate(180, 100, 100)"><rect x="90.55555555555556" y="94.33333333333333" width="18.88888888888889" height="11.333333333333334" fill="#4169e1" fill-opacity="0.8" stroke="#234bc3" stroke-width="5.5"/><rect x="113.22222222222221" y="90.55555555555556" width="11.333333333333334" height="18.88888888888889" fill="#6495ed" fill-opacity="0.8" stroke="#4677cf" stroke-width="5.5"/><rect x="128.33333333333334" y="94.33333333333333" width="18.88888888888889" height="11.333333333333334" fill="#87ceeb" fill-opacity="0.8" stroke="#69b0cd" stroke-width="5.5"/><rect x="151.00000000000003" y="90.55555555555556" width="11.333333333333334" height="18.88888888888889" fill="#f0f8ff" fill-opacity="0.8" stroke="#d2dae1" stroke-width="5.5"/><rect x="166.11111111111111" y="94.33333333333333" width="18.88888888888889" height="11.333333333333334" fill="#191970" fill-opacity="0.8" stroke="#000052" stroke-width="5.5"/><rect x="109.44444444444444" y="113.22222222222221" width="18.88888888888889" height="11.333333333333334" fill="#87ceeb" fill-opacity="0.8" stroke="#69b0cd" stroke-width="5.5"/><rect x="132.11111111111114" y="109.44444444444444" width="11.333333333333334" height="18.88888888888889" fill="#f0f8ff" fill-opacity="0.8" stroke="#d2dae1" stroke-width="5.5"/><rect x="147.22222222222223" y="113.22222222222221" width="18.88888888888889" height="11.333333333333334" fill="#191970" fill-opacity="0.8" stroke="#000052" stroke-width="5.5"/><rect x="169.8888888888889" y="109.44444444444444" width="11.333333333333334" height="18.88888888888889" fill="#000080" fill-opacity="0.8" stroke="#000062" stroke-width="5.5"/><rect x="128.33333333333334" y="132.11111111111114" width="18.88888888888889" height="11.333333333333334" fill="#191970" fill-opacity="0.8" stroke="#000052" stroke-width="5.5"/><rect x="151.00000000000003" y="128.33333333333334" width="11.333333333333334" height="18.88888888888889" fill="#000080" fill-opacity="0.8" stroke="#000062" stroke-width="5.5"/><rect x="166.11111111111111" y="132.11111111111114" width="18.88888888888889" height="11.333333333333334" fill="#4169e1" fill-opacity="0.8" stroke="#234bc3" stroke-width="5.5"/><rect x="147.22222222222223" y="151.00000000000003" width="18.88888888888889" height="11.333333333333334" fill="#4169e1" fill-opacity="0.8" stroke="#234bc3" stroke-width="5.5"/><rect x="169.8888888888889" y="147.22222222222223" width="11.333333333333334" height="18.88888888888889" fill="#6495ed" fill-opacity="0.8" stroke="#4677cf" stroke-width="5.5"/><rect x="166.11111111111111" y="169.8888888888889" width="18.88888888888889" height="11.333333333333334" fill="#87ceeb" fill-opacity="0.8" stroke="#69b0cd" stroke-width="5.5"/></g><g transform="rotate(225, 100, 100)"><rect x="90.55555555555556" y="94.33333333333333" width="18.88888888888889" height="11.333333333333334" fill="#4169e1" fill-opacity="0.8" stroke="#234bc3" stroke-width="5.5"/><rect x="113.22222222222221" y="90.55555555555556" width="11.333333333333334" height="18.88888888888889" fill="#6495ed" fill-opacity="0.8" stroke="#4677cf" stroke-width="5.5"/><rect x="128.33333333333334" y="94.33333333333333" width="18.88888888888889" height="11.333333333333334" fill="#87ceeb" fill-opacity="0.8" stroke="#69b0cd" stroke-width="5.5"/><rect x="151.00000000000003" y="90.55555555555556" width="11.333333333333334" height="18.88888888888889" fill="#f0f8ff" fill-opacity="0.8" stroke="#d2dae1" stroke-width="5.5"/><rect x="166.11111111111111" y="94.33333333333333" width="18.88888888888889" height="11.333333333333334" fill="#191970" fill-opacity="0.8" stroke="#000052" stroke-width="5.5"/><rect x="109.44444444444444" y="113.22222222222221" width="18.88888888888889" height="11.333333333333334" fill="#87ceeb" fill-opacity="0.8" stroke="#69b0cd" stroke-width="5.5"/><rect x="132.11111111111114" y="109.44444444444444" width="11.333333333333334" height="18.88888888888889" fill="#f0f8ff" fill-opacity="0.8" stroke="#d2dae1" stroke-width="5.5"/><rect x="147.22222222222223" y="113.22222222222221" width="18.88888888888889" height="11.333333333333334" fill="#191970" fill-opacity="0.8" stroke="#000052" stroke-width="5.5"/><rect x="169.8888888888889" y="109.44444444444444" width="11.333333333333334" height="18.88888888888889" fill="#000080" fill-opacity="0.8" stroke="#000062" stroke-width="5.5"/><rect x="128.33333333333334" y="132.11111111111114" width="18.88888888888889" height="11.333333333333334" fill="#191970" fill-opacity="0.8" stroke="#000052" stroke-width="5.5"/><rect x="151.00000000000003" y="128.33333333333334" width="11.333333333333334" height="18.88888888888889" fill="#000080" fill-opacity="0.8" stroke="#000062" stroke-width="5.5"/><rect x="166.11111111111111" y="132.11111111111114" width="18.88888888888889" height="11.333333333333334" fill="#4169e1" fill-opacity="0.8" stroke="#234bc3" stroke-width="5.5"/><rect x="147.22222222222223" y="151.00000000000003" width="18.88888888888889" height="11.333333333333334" fill="#4169e1" fill-opacity="0.8" stroke="#234bc3" stroke-width="5.5"/><rect x="169.8888888888889" y="147.22222222222223" width="11.333333333333334" height="18.88888888888889" fill="#6495ed" fill-opacity="0.8" stroke="#4677cf" stroke-width="5.5"/><rect x="166.11111111111111" y="169.8888888888889" width="18.88888888888889" height="11.333333333333334" fill="#87ceeb" fill-opacity="0.8" stroke="#69b0cd" stroke-width="5.5"/></g><g transform="rotate(270, 100, 100)"><rect x="90.55555555555556" y="94.33333333333333" width="18.88888888888889" height="11.333333333333334" fill="#4169e1" fill-opacity="0.8" stroke="#234bc3" stroke-width="5.5"/><rect x="113.22222222222221" y="90.55555555555556" width="11.333333333333334" height="18.88888888888889" fill="#6495ed" fill-opacity="0.8" stroke="#4677cf" stroke-width="5.5"/><rect x="128.33333333333334" y="94.33333333333333" width="18.88888888888889" height="11.333333333333334" fill="#87ceeb" fill-opacity="0.8" stroke="#69b0cd" stroke-width="5.5"/><rect x="151.00000000000003" y="90.55555555555556" width="11.333333333333334" height="18.88888888888889" fill="#f0f8ff" fill-opacity="0.8" stroke="#d2dae1" stroke-width="5.5"/><rect x="166.11111111111111" y="94.33333333333333" width="18.88888888888889" height="11.333333333333334" fill="#191970" fill-opacity="0.8" stroke="#000052" stroke-width="5.5"/><rect x="109.44444444444444" y="113.22222222222221" width="18.88888888888889" height="11.333333333333334" fill="#87ceeb" fill-opacity="0.8" stroke="#69b0cd" stroke-width="5.5"/><rect x="132.11111111111114" y="109.44444444444444" width="11.333333333333334" height="18.88888888888889" fill="#f0f8ff" fill-opacity="0.8" stroke="#d2dae1" stroke-width="5.5"/><rect x="147.22222222222223" y="113.22222222222221" width="18.88888888888889" height="11.333333333333334" fill="#191970" fill-opacity="0.8" stroke="#000052" stroke-width="5.5"/><rect x="169.8888888888889" y="109.44444444444444" width="11.333333333333334" height="18.88888888888889" fill="#000080" fill-opacity="0.8" stroke="#000062" stroke-width="5.5"/><rect x="128.33333333333334" y="132.11111111111114" width="18.88888888888889" height="11.333333333333334" fill="#191970" fill-opacity="0.8" stroke="#000052" stroke-width="5.5"/><rect x="151.00000000000003" y="128.33333333333334" width="11.333333333333334" height="18.88888888888889" fill="#000080" fill-opacity="0.8" stroke="#000062" stroke-width="5.5"/><rect x="166.11111111111111" y="132.11111111111114" width="18.88888888888889" height="11.333333333333334" fill="#4169e1" fill-opacity="0.8" stroke="#234bc3" stroke-width="5.5"/><rect x="147.22222222222223" y="151.00000000000003" width="18.88888888888889" height="11.333333333333334" fill="#4169e1" fill-opacity="0.8" stroke="#234bc3" stroke-width="5.5"/><rect x="169.8888888888889" y="147.22222222222223" width="11.333333333333334" height="18.88888888888889" fill="#6495ed" fill-opacity="0.8" stroke="#4677cf" stroke-width="5.5"/><rect x="166.11111111111111" y="169.8888888888889" width="18.88888888888889" height="11.333333333333334" fill="#87ceeb" fill-opacity="0.8" stroke="#69b0cd" stroke-width="5.5"/></g><g transform="rotate(315, 100, 100)"><rect x="90.55555555555556" y="94.33333333333333" width="18.88888888888889" height="11.333333333333334" fill="#4169e1" fill-opacity="0.8" stroke="#234bc3" stroke-width="5.5"/><rect x="113.22222222222221" y="90.55555555555556" width="11.333333333333334" height="18.88888888888889" fill="#6495ed" fill-opacity="0.8" stroke="#4677cf" stroke-width="5.5"/><rect x="128.33333333333334" y="94.33333333333333" width="18.88888888888889" height="11.333333333333334" fill="#87ceeb" fill-opacity="0.8" stroke="#69b0cd" stroke-width="5.5"/><rect x="151.00000000000003" y="90.55555555555556" width="11.333333333333334" height="18.88888888888889" fill="#f0f8ff" fill-opacity="0.8" stroke="#d2dae1" stroke-width="5.5"/><rect x="166.11111111111111" y="94.33333333333333" width="18.88888888888889" height="11.333333333333334" fill="#191970" fill-opacity="0.8" stroke="#000052" stroke-width="5.5"/><rect x="109.44444444444444" y="113.22222222222221" width="18.88888888888889" height="11.333333333333334" fill="#87ceeb" fill-opacity="0.8" stroke="#69b0cd" stroke-width="5.5"/><rect x="132.11111111111114" y="109.44444444444444" width="11.333333333333334" height="18.88888888888889" fill="#f0f8ff" fill-opacity="0.8" stroke="#d2dae1" stroke-width="5.5"/><rect x="147.22222222222223" y="113.22222222222221" width="18.88888888888889" height="11.333333333333334" fill="#191970" fill-opacity="0.8" stroke="#000052" stroke-width="5.5"/><rect x="169.8888888888889" y="109.44444444444444" width="11.333333333333334" height="18.88888888888889" fill="#000080" fill-opacity="0.8" stroke="#000062" stroke-width="5.5"/><rect x="128.33333333333334" y="132.11111111111114" width="18.88888888888889" height="11.333333333333334" fill="#191970" fill-opacity="0.8" stroke="#000052" stroke-width="5.5"/><rect x="151.00000000000003" y="128.33333333333334" width="11.333333333333334" height="18.88888888888889" fill="#000080" fill-opacity="0.8" stroke="#000062" stroke-width="5.5"/><rect x="166.11111111111111" y="132.11111111111114" width="18.88888888888889" height="11.333333333333334" fill="#4169e1" fill-opacity="0.8" stroke="#234bc3" stroke-width="5.5"/><rect x="147.22222222222223" y="151.00000000000003" width="18.88888888888889" height="11.333333333333334" fill="#4169e1" fill-opacity="0.8" stroke="#234bc3" stroke-width="5.5"/><rect x="169.8888888888889" y="147.22222222222223" width="11.333333333333334" height="18.88888888888889" fill="#6495ed" fill-opacity="0.8" stroke="#4677cf" stroke-width="5.5"/><rect x="166.11111111111111" y="169.8888888888889" width="18.88888888888889" height="11.333333333333334" fill="#87ceeb" fill-opacity="0.8" stroke="#69b0cd" stroke-width="5.5"/></g></g></g><circle cx="100" cy="100" r="25" fill="#191970" fill-opacity="0.8" stroke="#000048" stroke-width="4"/><circle cx="100" cy="100" r="12" fill="none" stroke="#000034" stroke-width="2"/><path d="M3,15 A12,12 0 0,1 27,15" fill="none" stroke="#191970" stroke-width="2.4" stroke-opacity="1"/><path d="M6.600000000000001,15 A8.399999999999999,8.399999999999999 0 0,1 23.4,15" fill="none" stroke="#191970" stroke-width="1.6" stroke-opacity="1"/><path d="M197,185 A12,12 0 0,1 173,185" fill="none" stroke="#191970" stroke-width="2.4" stroke-opacity="1"/><path d="M193.4,185 A8.399999999999999,8.399999999999999 0 0,1 176.6,185" fill="none" stroke="#191970" stroke-width="1.6" stroke-opacity="1"/><path d="M185,3 A12,12 0 0,1 185,27" fill="none" stroke="#000080" stroke-width="2.4" stroke-opacity="1"/><path d="M185,6.600000000000001 A8.399999999999999,8.399999999999999 0 0,1 185,23.4" fill="none" stroke="#000080" stroke-width="1.6" stroke-opacity="1"/><path d="M15,197 A12,12 0 0,1 15,173" fill="none" stroke="#000080" stroke-width="2.4" stroke-opacity="1"/><path d="M15,193.4 A8.399999999999999,8.399999999999999 0 0,1 15,176.6" fill="none" stroke="#000080" stroke-width="1.6" stroke-opacity="1"/><rect x="5" y="5" width="190" height="190" fill="none" stroke="#4169e1" stroke-width="8" stroke-opacity="1"/></svg>