<svg xmlns="http://www.w3.org/2000/svg" width="200" height="200" viewBox="0 0 200 200"><defs></defs><rect width="200" height="200" fill="#ffffff"/><g class="pattern"><g class="symmetry-diagonal-falling"><polygon points="29.166666666666664,17.83333333333333 40.5,29.166666666666664 29.166666666666664,40.5 17.83333333333333,29.166666666666664" fill="#191970" fill-opacity="0.8" stroke="#000052" stroke-width="5.5"/><line x1="17.83333333333333" y1="29.166666666666664" x2="40.5" y2="29.166666666666664" stroke="#00003e" stroke-width="5.5"/><polygon points="57.49999999999999,17.83333333333333 68.83333333333333,29.166666666666664 57.49999999999999,40.5 46.16666666666666,29.166666666666664" fill="#000080" fill-opacity="0.8" stroke="#000062" stroke-width="5.5"/><line x1="57.49999999999999" y1="17.83333333333333" x2="57.49999999999999" y2="40.5" stroke="#00004e" stroke-width="5.5"/><polygon points="85.83333333333333,17.83333333333333 97.16666666666666,29.166666666666664 85.83333333333333,40.5 74.5,29.166666666666664" fill="#4169e1" fill-opacity="0.8" stroke="#234bc3" stroke-width="5.5"/><line x1="74.5" y1="29.166666666666664" x2="97.16666666666666" y2="29.166666666666664" stroke="#0f37af" stroke-width="5.5"/><polygon points="114.16666666666667,17.83333333333333 125.5,29.166666666666664 114.16666666666667,40.5 102.83333333333334,29.166666666666664" fill="#6495ed" fill-opacity="0.8" stroke="#4677cf" stroke-width="5.5"/><line x1="114.16666666666667" y1="17.83333333333333" x2="114.16666666666667" y2="40.5" stroke="#3263bb" stroke-width="5.5"/><polygon points="142.49999999999997,17.83333333333333 153.83333333333331,29.166666666666664 142.49999999999997,40.5 131.16666666666663,29.166666666666664" fill="#87ceeb" fill-opacity="0.8" stroke="#69b0cd" stroke-width="5.5"/><line x1="131.16666666666663" y1="29.166666666666664" x2="153.83333333333331" y2="29.166666666666664" stroke="#559cb9" stroke-width="5.5"/><polygon points="170.83333333333331,17.83333333333333 182.16666666666666,29.166666666666664 170.83333333333331,40.5 159.49999999999997,29.166666666666664" fill="#f0f8ff" fill-opacity="0.8" stroke="#d2dae1" stroke-width="5.5"/><line x1="170.83333333333331" y1="17.83333333333333" x2="170.83333333333331" y2="40.5" stroke="#bec6cd" stroke-width="5.5"/><polygon points="57.49999999999999,46.16666666666666 68.83333333333333,57.49999999999999 57.49999999999999,68.83333333333333 46.16666666666666,57.49999999999999" fill="#4169e1" fill-opacity="0.8" stroke="#234bc3" stroke-width="5.5"/><line x1="46.16666666666666" y1="57.49999999999999" x2="68.83333333333333" y2="57.49999999999999" stroke="#0f37af" stroke-width="5.5"/><polygon points="85.83333333333333,46.16666666666666 97.16666666666666,57.49999999999999 85.83333333333333,68.83333333333333 74.5,57.49999999999999" fill="#6495ed" fill-opacity="0.8" stroke="#4677cf" stroke-width="5.5"/><line x1="85.83333333333333" y1="46.16666666666666" x2="85.83333333333333" y2="68.83333333333333" stroke="#3263bb" stroke-width="5.5"/><polygon points="114.16666666666667,46.16666666666666 125.5,57.49999999999999 114.16666666666667,68.83333333333333 102.83333333333334,57.49999999999999" fill="#87ceeb" fill-opacity="0.8" stroke="#69b0cd" stroke-width="5.5"/><line x1="102.83333333333334" y1="57.49999999999999" x2="125.5" y2="57.49999999999999" stroke="#559cb9" stroke-width="5.5"/><polygon points="142.49999999999997,46.16666666666666 153.83333333333331,57.49999999999999 142.49999999999997,68.83333333333333 131.16666666666663,57.49999999999999" fill="#f0f8ff" fill-opacity="0.8" stroke="#d2dae1" stroke-width="5.5"/><line x1="142.49999999999997" y1="46.16666666666666" x2="142.49999999999997" y2="68.83333333333333" stroke="#bec6cd" stroke-width="5.5"/><polygon points="170.83333333333331,46.16666666666666 182.16666666666666,57.49999999999999 170.83333333333331,68.83333333333333 159.49999999999997,57.49999999999999" fill="#191970" fill-opacity="0.8" stroke="#000052" stroke-width="5.5"/><line x1="159.49999999999997" y1="57.49999999999999" x2="182.16666666666666" y2="57.49999999999999" stroke="#00003e" stroke-width="5.5"/><polygon points="85.83333333333333,74.5 97.16666666666666,85.83333333333333 85.83333333333333,97.16666666666666 74.5,85.83333333333333" fill="#87ceeb" fill-opacity="0.8" stroke="#69b0cd" stroke-width="5.5"/><line x1="74.5" y1="85.83333333333333" x2="97.16666666666666" y2="85.83333333333333" stroke="#559cb9" stroke-width="5.5"/><polygon points="114.16666666666667,74.5 125.5,85.83333333333333 114.16666666666667,97.16666666666666 102.83333333333334,85.83333333333333" fill="#f0f8ff" fill-opacity="0.8" stroke="#d2dae1" stroke-width="5.5"/><line x1="114.16666666666667" y1="74.5" x2="114.16666666666667" y2="97.16666666666666" stroke="#bec6cd" stroke-width="5.5"/><polygon points="142.49999999999997,74.5 153.83333333333331,85.83333333333333 142.49999999999997,97.16666666666666 131.16666666666663,85.83333333333333" fill="#191970" fill-opacity="0.8" stroke="#000052" stroke-width="5.5"/><line x1="131.16666666666663" y1="85.83333333333333" x2="153.83333333333331" y2="85.83333333333333" stroke="#00003e" stroke-width="5.5"/><polygon points="170.83333333333331,74.5 182.16666666666666,85.83333333333333 170.83333333333331,97.16666666666666 159.49999999999997,85.83333333333333" fill="#000080" fill-opacity="0.8" stroke="#000062" stroke-width="5.5"/><line x1="170.83333333333331" y1="74.5" x2="170.83333333333331" y2="97.16666666666666" stroke="#00004e" stroke-width="5.5"/><polygon points="114.16666666666667,102.83333333333334 125.5,114.16666666666667 114.16666666666667,125.5 102.83333333333334,114.16666666666667" fill="#191970" fill-opacity="0.8" stroke="#000052" stroke-width="5.5"/><line x1="102.83333333333334" y1="114.16666666666667" x2="125.5" y2="114.16666666666667" stroke="#00003e" stroke-width="5.5"/><polygon points="142.49999999999997,102.83333333333334 153.83333333333331,114.16666666666667 142.49999999999997,125.5 131.16666666666663,114.16666666666667" fill="#000080" fill-opacity="0.8" stroke="#000062" stroke-width="5.5"/><line x1="142.49999999999997" y1="102.83333333333334" x2="142.49999999999997" y2="125.5" stroke="#00004e" stroke-width="5.5"/><polygon points="170.83333333333331,102.83333333333334 182.16666666666666,114.16666666666667 170.83333333333331,125.5 159.49999999999997,114.16666666666667" fill="#4169e1" fill-opacity="0.8" stroke="#234bc3" stroke-width="5.5"/><line x1="159.49999999999997" y1="114.16666666666667" x2="182.16666666666666" y2="114.16666666666667" stroke="#0f37af" stroke-width="5.5"/><polygon points="142.49999999999997,131.16666666666663 153.83333333333331,142.49999999999997 142.49999999999997,153.83333333333331 131.16666666666663,142.49999999999997" fill="#4169e1" fill-opacity="0.8" stroke="#234bc3" stroke-width="5.5"/><line x1="131.16666666666663" y1="142.49999999999997" x2="153.83333333333331" y2="142.49999999999997" stroke="#0f37af" stroke-width="5.5"/><polygon points="170.83333333333331,131.16666666666663 182.16666666666666,142.49999999999997 170.83333333333331,153.83333333333331 159.49999999999997,142.49999999999997" fill="#6495ed" fill-opacity="0.8" stroke="#4677cf" stroke-width="5.5"/><line x1="170.83333333333331" y1="131.16666666666663" x2="170.83333333333331" y2="153.83333333333331" stroke="#3263bb" stroke-width="5.5"/><polygon points="170.83333333333331,159.49999999999997 182.16666666666666,170.83333333333331 170.83333333333331,182.16666666666666 159.49999999999997,170.83333333333331" fill="#87ceeb" fill-opacity="0.8" stroke="#69b0cd" stroke-width="5.5"/><line x1="159.49999999999997" y1="170.83333333333331" x2="182.16666666666666" y2="170.83333333333331" stroke="#559cb9" stroke-width="5.5"/><g transform="translate(0, 0)"><polygon points="29.166666666666664,17.83333333333333 40.5,29.166666666666664 29.166666666666664,40.5 17.83333333333333,29.166666666666664" fill="#191970" fill-opacity="0.8" stroke="#000052" stroke-width="5.5"/><line x1="17.83333333333333" y1="29.166666666666664" x2="40.5" y2="29.166666666666664" stroke="#00003e" stroke-width="5.5"/><polygon points="57.49999999999999,17.83333333333333 68.83333333333333,29.166666666666664 57.49999999999999,40.5 46.16666666666666,29.166666666666664" fill="#000080" fill-opacity="0.8" stroke="#000062" stroke-width="5.5"/><line x1="57.49999999999999" y1="17.83333333333333" x2="57.49999999999999" y2="40.5" stroke="#00004e" stroke-width="5.5"/><polygon points="85.83333333333333,17.83333333333333 97.16666666666666,29.166666666666664 85.83333333333333,40.5 74.5,29.166666666666664" fill="#4169e1" fill-opacity="0.8" stroke="#234bc3" stroke-width="5.5"/><line x1="74.5" y1="29.166666666666664" x2="97.16666666666666" y2="29.166666666666664" stroke="#0f37af" stroke-width="5.5"/><polygon points="114.16666666666667,17.83333333333333 125.5,29.166666666666664 114.16666666666667,40.5 102.83333333333334,29.166666666666664" fill="#6495ed" fill-opacity="0.8" stroke="#4677cf" stroke-width="5.5"/><line x1="114.16666666666667" y1="17.83333333333333" x2="114.16666666666667" y2="40.5" stroke="#3263bb" stroke-width="5.5"/><polygon points="142.49999999999997,17.83333333333333 153.83333333333331,29.166666666666664 142.49999999999997,40.5 131.16666666666663,29.166666666666664" fill="#87ceeb" fill-opacity="0.8" stroke="#69b0cd" stroke-width="5.5"/><line x1="131.16666666666663" y1="29.166666666666664" x2="153.83333333333331" y2="29.166666666666664" stroke="#559cb9" stroke-width="5.5"/><polygon points="170.83333333333331,17.83333333333333 182.16666666666666,29.166666666666664 170.83333333333331,40.5 159.49999999999997,29.166666666666664" fill="#f0f8ff" fill-opacity="0.8" stroke="#d2dae1" stroke-width="5.5"/><line x1="170.83333333333331" y1="17.83333333333333" x2="170.83333333333331" y2="40.5" stroke="#bec6cd" stroke-width="5.5"/><polygon points="57.49999999999999,46.16666666666666 68.83333333333333,57.49999999999999 57.49999999999999,68.83333333333333 46.16666666666666,57.49999999999999" fill="#4169e1" fill-opacity="0.8" stroke="#234bc3" stroke-width="5.5"/><line x1="46.16666666666666" y1="57.49999999999999" x2="68.83333333333333" y2="57.49999999999999" stroke="#0f37af" stroke-width="5.5"/><polygon points="85.83333333333333,46.16666666666666 97.16666666666666,57.49999999999999 85.83333333333333,68.83333333333333 74.5,57.49999999999999" fill="#6495ed" fill-opacity="0.8" stroke="#4677cf" stroke-width="5.5"/><line x1="85.83333333333333" y1="46.16666666666666" x2="85.83333333333333" y2="68.83333333333333" stroke="#3263bb" stroke-width="5.5"/><polygon points="114.16666666666667,46.16666666666666 125.5,57.49999999999999 114.16666666666667,68.83333333333333 102.83333333333334,57.49999999999999" fill="#87ceeb" fill-opacity="0.8" stroke="#69b0cd" stroke-width="5.5"/><line x1="102.83333333333334" y1="57.49999999999999" x2="125.5" y2="57.49999999999999" stroke="#559cb9" stroke-width="5.5"/><polygon points="142.49999999999997,46.16666666666666 153.83333333333331,57.49999999999999 142.49999999999997,68.83333333333333 131.16666666666663,57.49999999999999" fill="#f0f8ff" fill-opacity="0.8" stroke="#d2dae1" stroke-width="5.5"/><line x1="142.49999999999997" y1="46.16666666666666" x2="142.49999999999997" y2="68.83333333333333" stroke="#bec6cd" stroke-width="5.5"/><polygon points="170.83333333333331,46.16666666666666 182.16666666666666,57.49999999999999 170.83333333333331,68.83333333333333 159.49999999999997,57.49999999999999" fill="#191970" fill-opacity="0.8" stroke="#000052" stroke-width="5.5"/><line x1="159.49999999999997" y1="57.49999999999999" x2="182.16666666666666" y2="57.49999999999999" stroke="#00003e" stroke-width="5.5"/><polygon points="85.83333333333333,74.5 97.16666666666666,85.83333333333333 85.83333333333333,97.16666666666666 74.5,85.83333333333333" fill="#87ceeb" fill-opacity="0.8" stroke="#69b0cd" stroke-width="5.5"/><line x1="74.5" y1="85.83333333333333" x2="97.16666666666666" y2="85.83333333333333" stroke="#559cb9" stroke-width="5.5"/><polygon points="114.16666666666667,74.5 125.5,85.83333333333333 114.16666666666667,97.16666666666666 102.83333333333334,85.83333333333333" fill="#f0f8ff" fill-opacity="0.8" stroke="#d2dae1" stroke-width="5.5"/><line x1="114.16666666666667" y1="74.5" x2="114.16666666666667" y2="97.16666666666666" stroke="#bec6cd" stroke-width="5.5"/><polygon points="142.49999999999997,74.5 153.83333333333331,85.83333333333333 142.49999999999997,97.16666666666666 131.16666666666663,85.83333333333333" fill="#191970" fill-opacity="0.8" stroke="#000052" stroke-width="5.5"/><line x1="131.16666666666663" y1="85.83333333333333" x2="153.83333333333331" y2="85.83333333333333" stroke="#00003e" stroke-width="5.5"/><polygon points="170.83333333333331,74.5 182.16666666666666,85.83333333333333 170.83333333333331,97.16666666666666 159.49999999999997,85.83333333333333" fill="#000080" fill-opacity="0.8" stroke="#000062" stroke-width="5.5"/><line x1="170.83333333333331" y1="74.5" x2="170.83333333333331" y2="97.16666666666666" stroke="#00004e" stroke-width="5.5"/><polygon points="114.16666666666667,102.83333333333334 125.5,114.16666666666667 114.16666666666667,125.5 102.83333333333334,114.16666666666667" fill="#191970" fill-opacity="0.8" stroke="#000052" stroke-width="5.5"/><line x1="102.83333333333334" y1="114.16666666666667" x2="125.5" y2="114.16666666666667" stroke="#00003e" stroke-width="5.5"/><polygon points="142.49999999999997,102.83333333333334 153.83333333333331,114.16666666666667 142.49999999999997,125.5 131.16666666666663,114.16666666666667" fill="#000080" fill-opacity="0.8" stroke="#000062" stroke-width="5.5"/><line x1="142.49999999999997" y1="102.83333333333334" x2="142.49999999999997" y2="125.5" stroke="#00004e" stroke-width="5.5"/><polygon points="170.83333333333331,102.83333333333334 182.16666666666666,114.16666666666667 170.83333333333331,125.5 159.49999999999997,114.16666666666667" fill="#4169e1" fill-opacity="0.8" stroke="#234bc3" stroke-width="5.5"/><line x1="159.49999999999997" y1="114.16666666666667" x2="182.16666666666666" y2="114.16666666666667" stroke="#0f37af" stroke-width="5.5"/><polygon points="142.49999999999997,131.16666666666663 153.83333333333331,142.49999999999997 142.49999999999997,153.83333333333331 131.16666666666663,142.49999999999997" fill="#4169e1" fill-opacity="0.8" stroke="#234bc3" stroke-width="5.5"/><line x1="131.16666666666663" y1="142.49999999999997" x2="153.83333333333331" y2="142.49999999999997" stroke="#0f37af" stroke-width="5.5"/><polygon points="170.83333333333331,131.16666666666663 182.16666666666666,142.49999999999997 170.83333333333331,153.83333333333331 159.49999999999997,142.49999999999997" fill="#6495ed" fill-opacity="0.8" stroke="#4677cf" stroke-width="5.5"/><line x1="170.83333333333331" y1="131.16666666666663" x2="170.83333333333331" y2="153.83333333333331" stroke="#3263bb" stroke-width="5.5"/><polygon points="170.83333333333331,159.49999999999997 182.16666666666666,170.83333333333331 170.83333333333331,182.16666666666666 159.49999999999997,170.83333333333331" fill="#87ceeb" fill-opacity="0.8" stroke="#69b0cd" stroke-width="5.5"/><line x1="159.49999999999997" y1="170.83333333333331" x2="182.16666666666666" y2="170.83333333333331" stroke="#559cb9" stroke-width="5.5"/></g><g transform="matrix(0, 1, 1, 0, 0, 0)"><polygon points="29.166666666666664,17.83333333333333 40.5,29.166666666666664 29.166666666666664,40.5 17.83333333333333,29.166666666666664" fill="#191970" fill-opacity="0.8" stroke="#000052" stroke-width="5.5"/><line x1="17.83333333333333" y1="29.166666666666664" x2="40.5" y2="29.166666666666664" stroke="#00003e" stroke-width="5.5"/><polygon points="57.49999999999999,17.83333333333333 68.83333333333333,29.166666666666664 57.49999999999999,40.5 46.16666666666666,29.166666666666664" fill="#000080" fill-opacity="0.8" stroke="#000062" stroke-width="5.5"/><line x1="57.49999999999999" y1="17.83333333333333" x2="57.49999999999999" y2="40.5" stroke="#00004e" stroke-width="5.5"/><polygon points="85.83333333333333,17.83333333333333 97.16666666666666,29.166666666666664 85.83333333333333,40.5 74.5,29.166666666666664" fill="#4169e1" fill-opacity="0.8" stroke="#234bc3" stroke-width="5.5"/><line x1="74.5" y1="29.166666666666664" x2="97.16666666666666" y2="29.166666666666664" stroke="#0f37af" stroke-width="5.5"/><polygon points="114.16666666666667,17.83333333333333 125.5,29.166666666666664 114.16666666666667,40.5 102.83333333333334,29.166666666666664" fill="#6495ed" fill-opacity="0.8" stroke="#4677cf" stroke-width="5.5"/><line x1="114.16666666666667" y1="17.83333333333333" x2="114.16666666666667" y2="40.5" stroke="#3263bb" stroke-width="5.5"/><polygon points="142.49999999999997,17.83333333333333 153.83333333333331,29.166666666666664 142.49999999999997,40.5 131.16666666666663,29.166666666666664" fill="#87ceeb" fill-opacity="0.8" stroke="#69b0cd" stroke-width="5.5"/><line x1="131.16666666666663" y1="29.166666666666664" x2="153.83333333333331" y2="29.166666666666664" stroke="#559cb9" stroke-width="5.5"/><polygon points="170.83333333333331,17.83333333333333 182.16666666666666,29.166666666666664 170.83333333333331,40.5 159.49999999999997,29.166666666666664" fill="#f0f8ff" fill-opacity="0.8" stroke="#d2dae1" stroke-width="5.5"/><line x1="170.83333333333331" y1="17.83333333333333" x2="170.83333333333331" y2="40.5" stroke="#bec6cd" stroke-width="5.5"/><polygon points="57.49999999999999,46.16666666666666 68.83333333333333,57.49999999999999 57.49999999999999,68.83333333333333 46.16666666666666,57.49999999999999" fill="#4169e1" fill-opacity="0.8" stroke="#234bc3" stroke-width="5.5"/><line x1="46.16666666666666" y1="57.49999999999999" x2="68.83333333333333" y2="57.49999999999999" stroke="#0f37af" stroke-width="5.5"/><polygon points="85.83333333333333,46.16666666666666 97.16666666666666,57.49999999999999 85.83333333333333,68.83333333333333 74.5,57.49999999999999" fill="#6495ed" fill-opacity="0.8" stroke="#4677cf" stroke-width="5.5"/><line x1="85.83333333333333" y1="46.16666666666666" x2="85.83333333333333" y2="68.83333333333333" stroke="#3263bb" stroke-width="5.5"/><polygon points="114.16666666666667,46.16666666666666 125.5,57.49999999999999 114.16666666666667,68.83333333333333 102.83333333333334,57.49999999999999" fill="#87ceeb" fill-opacity="0.8" stroke="#69b0cd" stroke-width="5.5"/><line x1="102.83333333333334" y1="57.49999999999999" x2="125.5" y2="57.49999999999999" stroke="#559cb9" stroke-width="5.5"/><polygon points="142.49999999999997,46.16666666666666 153.83333333333331,57.49999999999999 142.49999999999997,68.83333333333333 131.16666666666663,57.49999999999999" fill="#f0f8ff" fill-opacity="0.8" stroke="#d2dae1" stroke-width="5.5"/><line x1="142.49999999999997" y1="46.16666666666666" x2="142.49999999999997" y2="68.83333333333333" stroke="#bec6cd" stroke-width="5.5"/><polygon points="170.83333333333331,46.16666666666666 182.16666666666666,57.49999999999999 170.83333333333331,68.83333333333333 159.49999999999997,57.49999999999999" fill="#191970" fill-opacity="0.8" stroke="#000052" stroke-width="5.5"/><line x1="159.49999999999997" y1="57.49999999999999" x2="182.16666666666666" y2="57.49999999999999" stroke="#00003e" stroke-width="5.5"/><polygon points="85.83333333333333,74.5 97.16666666666666,85.83333333333333 85.83333333333333,97.16666666666666 74.5,85.83333333333333" fill="#87ceeb" fill-opacity="0.8" stroke="#69b0cd" stroke-width="5.5"/><line x1="74.5" y1="85.83333333333333" x2="97.16666666666666" y2="85.83333333333333" stroke="#559cb9" stroke-width="5.5"/><polygon points="114.16666666666667,74.5 125.5,85.83333333333333 114.16666666666667,97.16666666666666 102.83333333333334,85.83333333333333" fill="#f0f8ff" fill-opacity="0.8" stroke="#d2dae1" stroke-width="5.5"/><line x1="114.16666666666667" y1="74.5" x2="114.16666666666667" y2="97.16666666666666" stroke="#bec6cd" stroke-width="5.5"/><polygon points="142.49999999999997,74.5 153.83333333333331,85.83333333333333 142.49999999999997,97.16666666666666 131.16666666666663,85.83333333333333" fill="#191970" fill-opacity="0.8" stroke="#000052" stroke-width="5.5"/><line x1="131.16666666666663" y1="85.83333333333333" x2="153.83333333333331" y2="85.83333333333333" stroke="#00003e" stroke-width="5.5"/><polygon points="170.83333333333331,74.5 182.16666666666666,85.83333333333333 170.83333333333331,97.16666666666666 159.49999999999997,85.83333333333333" fill="#000080" fill-opacity="0.8" stroke="#000062" stroke-width="5.5"/><line x1="170.83333333333331" y1="74.5" x2="170.83333333333331" y2="97.16666666666666" stroke="#00004e" stroke-width="5.5"/><polygon points="114.16666666666667,102.83333333333334 125.5,114.16666666666667 114.16666666666667,125.5 102.83333333333334,114.16666666666667" fill="#191970" fill-opacity="0.8" stroke="#000052" stroke-width="5.5"/><line x1="102.83333333333334" y1="114.16666666666667" x2="125.5" y2="114.16666666666667" stroke="#00003e" stroke-width="5.5"/><polygon points="142.49999999999997,102.83333333333334 153.83333333333331,114.16666666666667 142.49999999999997,125.5 131.16666666666663,114.16666666666667" fill="#000080" fill-opacity="0.8" stroke="#000062" stroke-width="5.5"/><line x1="142.49999999999997" y1="102.83333333333334" x2="142.49999999999997" y2="125.5" stroke="#00004e" stroke-width="5.5"/><polygon points="170.83333333333331,102.83333333333334 182.16666666666666,114.16666666666667 170.83333333333331,125.5 159.49999999999997,114.16666666666667" fill="#4169e1" fill-opacity="0.8" stroke="#234bc3" stroke-width="5.5"/><line x1="159.49999999999997" y1="114.16666666666667" x2="182.16666666666666" y2="114.16666666666667" stroke="#0f37af" stroke-width="5.5"/><polygon points="142.49999999999997,131.16666666666663 153.83333333333331,142.49999999999997 142.49999999999997,153.83333333333331 131.16666666666663,142.49999999999997" fill="#4169e1" fill-opacity="0.8" stroke="#234bc3" stroke-width="5.5"/><line x1="131.16666666666663" y1="142.49999999999997" x2="153.83333333333331" y2="142.49999999999997" stroke="#0f37af" stroke-width="5.5"/><polygon points="170.83333333333331,131.16666666666663 182.16666666666666,142.49999999999997 170.83333333333331,153.83333333333331 159.49999999999997,142.49999999999997" fill="#6495ed" fill-opacity="0.8" stroke="#4677cf" stroke-width="5.5"/><line x1="170.83333333333331" y1="131.16666666666663" x2="170.83333333333331" y2="153.83333333333331" stroke="#3263bb" stroke-width="5.5"/><polygon points="170.83333333333331,159.49999999999997 182.16666666666666,170.83333333333331 170.83333333333331,182.16666666666666 159.49999999999997,170.83333333333331" fill="#87ceeb" fill-opacity="0.8" stroke="#69b0cd" stroke-width="5.5"/><line x1="159.49999999999997" y1="170.83333333333331" x2="182.16666666666666" y2="170.83333333333331" stroke="#559cb9" stroke-width="5.5"/></g></g></g><path d="M15,29 Q22,19.2 29,15" fill="none" stroke="#191970" stroke-width="2.6" stroke-linecap="round" stroke-opacity="1"/><path d="M185,171 Q178,180.8 171,185" fill="none" stroke="#191970" stroke-width="2.6" stroke-linecap="round" stroke-opacity="1"/><path d="M171,15 Q180.8,22 185,29" fill="none" stroke="#000080" stroke-width="2.6" stroke-linecap="round" stroke-opacity="1"/><path d="M29,185 Q19.2,178 15,171" fill="none" stroke="#000080" stroke-width="2.6" stroke-linecap="round" stroke-opacity="1"/><rect x="5" y="5" width="190" height="190" fill="none" stroke="#4169e1" stroke-width="8" stroke-opacity="0.66"/></svg>