<svg xmlns="http://www.w3.org/2000/svg" width="200" height="200" viewBox="0 0 200 200"><defs></defs><rect width="200" height="200" fill="#ffffff"/><g class="pattern"><g class="symmetry-vertical"><polygon points="27.142857142857142,17 37.285714285714285,27.142857142857142 27.142857142857142,37.285714285714285 17,27.142857142857142" fill="#1e3c72" fill-opacity="0.8" stroke="#001e54" stroke-width="5.5"/><polygon points="51.42857142857143,17 61.57142857142857,27.142857142857142 51.42857142857143,37.285714285714285 41.28571428571429,27.142857142857142" fill="#2a5298" fill-opacity="0.8" stroke="#0c347a" stroke-width="5.5"/><polygon points="75.71428571428571,17 85.85714285714285,27.142857142857142 75.71428571428571,37.285714285714285 65.57142857142857,27.142857142857142" fill="#3b82f6" fill-opacity="0.8" stroke="#1d64d8" stroke-width="5.5"/><polygon points="100,17 110.14285714285714,27.142857142857142 100,37.285714285714285 89.85714285714286,27.142857142857142" fill="#60a5fa" fill-opacity="0.8" stroke="#4287dc" stroke-width="5.5"/><polygon points="124.28571428571428,17 134.42857142857142,27.142857142857142 124.28571428571428,37.285714285714285 114.14285714285714,27.142857142857142" fill="#93c5fd" fill-opacity="0.8" stroke="#75a7df" stroke-width="5.5"/><polygon points="148.57142857142856,17 158.7142857142857,27.142857142857142 148.57142857142856,37.285714285714285 138.42857142857142,27.142857142857142" fill="#1e3c72" fill-opacity="0.8" stroke="#001e54" stroke-width="5.5"/><polygon points="172.85714285714286,17 183,27.142857142857142 172.85714285714286,37.285714285714285 162.71428571428572,27.142857142857142" fill="#2a5298" fill-opacity="0.8" stroke="#0c347a" stroke-width="5.5"/><polygon points="27.142857142857142,41.28571428571429 37.285714285714285,51.42857142857143 27.142857142857142,61.57142857142857 17,51.42857142857143" fill="#2a5298" fill-opacity="0.8" stroke="#0c347a" stroke-width="5.5"/><polygon points="51.42857142857143,41.28571428571429 61.57142857142857,51.42857142857143 51.42857142857143,61.57142857142857 41.28571428571429,51.42857142857143" fill="#3b82f6" fill-opacity="0.8" stroke="#1d64d8" stroke-width="5.5"/><polygon points="75.71428571428571,41.28571428571429 85.85714285714285,51.42857142857143 75.71428571428571,61.57142857142857 65.57142857142857,51.42857142857143" fill="#60a5fa" fill-opacity="0.8" stroke="#4287dc" stroke-width="5.5"/><polygon points="100,41.28571428571429 110.14285714285714,51.42857142857143 100,61.57142857142857 89.85714285714286,51.42857142857143" fill="#93c5fd" fill-opacity="0.8" stroke="#75a7df" stroke-width="5.5"/><polygon points="124.28571428571428,41.28571428571429 134.42857142857142,51.42857142857143 124.28571428571428,61.57142857142857 114.14285714285714,51.42857142857143" fill="#1e3c72" fill-opacity="0.8" stroke="#001e54" stroke-width="5.5"/><polygon points="148.57142857142856,41.28571428571429 158.7142857142857,51.42857142857143 148.57142857142856,61.57142857142857 138.42857142857142,51.42857142857143" fill="#2a5298" fill-opacity="0.8" stroke="#0c347a" stroke-width="5.5"/><polygon points="172.85714285714286,41.28571428571429 183,51.42857142857143 172.85714285714286,61.57142857142857 162.71428571428572,51.42857142857143" fill="#3b82f6" fill-opacity="0.8" stroke="#1d64d8" stroke-width="5.5"/><polygon points="27.142857142857142,65.57142857142857 37.285714285714285,75.71428571428571 27.142857142857142,85.85714285714285 17,75.71428571428571" fill="#3b82f6" fill-opacity="0.8" stroke="#1d64d8" stroke-width="5.5"/><polygon points="51.42857142857143,65.57142857142857 61.57142857142857,75.71428571428571 51.42857142857143,85.85714285714285 41.28571428571429,75.71428571428571" fill="#60a5fa" fill-opacity="0.8" stroke="#4287dc" stroke-width="5.5"/><polygon points="75.71428571428571,65.57142857142857 85.85714285714285,75.71428571428571 75.71428571428571,85.85714285714285 65.57142857142857,75.71428571428571" fill="#93c5fd" fill-opacity="0.8" stroke="#75a7df" stroke-width="5.5"/><polygon points="100,65.57142857142857 110.14285714285714,75.71428571428571 100,85.85714285714285 89.85714285714286,75.71428571428571" fill="#1e3c72" fill-opacity="0.8" stroke="#001e54" stroke-width="5.5"/><polygon points="124.28571428571428,65.57142857142857 134.42857142857142,75.71428571428571 124.28571428571428,85.85714285714285 114.14285714285714,75.71428571428571" fill="#2a5298" fill-opacity="0.8" stroke="#0c347a" stroke-width="5.5"/><polygon points="148.57142857142856,65.57142857142857 158.7142857142857,75.71428571428571 148.57142857142856,85.85714285714285 138.42857142857142,75.71428571428571" fill="#3b82f6" fill-opacity="0.8" stroke="#1d64d8" stroke-width="5.5"/><polygon points="172.85714285714286,65.57142857142857 183,75.71428571428571 172.85714285714286,85.85714285714285 162.71428571428572,75.71428571428571" fill="#60a5fa" fill-opacity="0.8" stroke="#4287dc" stroke-width="5.5"/><polygon points="27.142857142857142,89.85714285714286 37.285714285714285,100 27.142857142857142,110.14285714285714 17,100" fill="#60a5fa" fill-opacity="0.8" stroke="#4287dc" stroke-width="5.5"/><polygon points="51.42857142857143,89.85714285714286 61.57142857142857,100 51.42857142857143,110.14285714285714 41.28571428571429,100" fill="#93c5fd" fill-opacity="0.8" stroke="#75a7df" stroke-width="5.5"/><polygon points="75.71428571428571,89.85714285714286 85.85714285714285,100 75.71428571428571,110.14285714285714 65.57142857142857,100" fill="#1e3c72" fill-opacity="0.8" stroke="#001e54" stroke-width="5.5"/><polygon points="100,89.85714285714286 110.14285714285714,100 100,110.14285714285714 89.85714285714286,100" fill="#2a5298" fill-opacity="0.8" stroke="#0c347a" stroke-width="5.5"/><polygon points="124.28571428571428,89.85714285714286 134.42857142857142,100 124.28571428571428,110.14285714285714 114.14285714285714,100" fill="#3b82f6" fill-opacity="0.8" stroke="#1d64d8" stroke-width="5.5"/><polygon points="148.57142857142856,89.85714285714286 158.7142857142857,100 148.57142857142856,110.14285714285714 138.42857142857142,100" fill="#60a5fa" fill-opacity="0.8" stroke="#4287dc" stroke-width="5.5"/><polygon points="172.85714285714286,89.85714285714286 183,100 172.85714285714286,110.14285714285714 162.71428571428572,100" fill="#93c5fd" fill-opacity="0.8" stroke="#75a7df" stroke-width="5.5"/><g transform="translate(0, 200) scale(1, -1)"><polygon points="27.142857142857142,17 37.285714285714285,27.142857142857142 27.142857142857142,37.285714285714285 17,27.142857142857142" fill="#1e3c72" fill-opacity="0.8" stroke="#001e54" stroke-width="5.5"/><polygon points="51.42857142857143,17 61.57142857142857,27.142857142857142 51.42857142857143,37.285714285714285 41.28571428571429,27.142857142857142" fill="#2a5298" fill-opacity="0.8" stroke="#0c347a" stroke-width="5.5"/><polygon points="75.71428571428571,17 85.85714285714285,27.142857142857142 75.71428571428571,37.285714285714285 65.57142857142857,27.142857142857142" fill="#3b82f6" fill-opacity="0.8" stroke="#1d64d8" stroke-width="5.5"/><polygon points="100,17 110.14285714285714,27.142857142857142 100,37.285714285714285 89.85714285714286,27.142857142857142" fill="#60a5fa" fill-opacity="0.8" stroke="#4287dc" stroke-width="5.5"/><polygon points="124.28571428571428,17 134.42857142857142,27.142857142857142 124.28571428571428,37.285714285714285 114.14285714285714,27.142857142857142" fill="#93c5fd" fill-opacity="0.8" stroke="#75a7df" stroke-width="5.5"/><polygon points="148.57142857142856,17 158.7142857142857,27.142857142857142 148.57142857142856,37.285714285714285 138.42857142857142,27.142857142857142" fill="#1e3c72" fill-opacity="0.8" stroke="#001e54" stroke-width="5.5"/><polygon points="172.85714285714286,17 183,27.142857142857142 172.85714285714286,37.285714285714285 162.71428571428572,27.142857142857142" fill="#2a5298" fill-opacity="0.8" stroke="#0c347a" stroke-width="5.5"/><polygon points="27.142857142857142,41.28571428571429 37.285714285714285,51.42857142857143 27.142857142857142,61.57142857142857 17,51.42857142857143" fill="#2a5298" fill-opacity="0.8" stroke="#0c347a" stroke-width="5.5"/><polygon points="51.42857142857143,41.28571428571429 61.57142857142857,51.42857142857143 51.42857142857143,61.57142857142857 41.28571428571429,51.42857142857143" fill="#3b82f6" fill-opacity="0.8" stroke="#1d64d8" stroke-width="5.5"/><polygon points="75.71428571428571,41.28571428571429 85.85714285714285,51.42857142857143 75.71428571428571,61.57142857142857 65.57142857142857,51.42857142857143" fill="#60a5fa" fill-opacity="0.8" stroke="#4287dc" stroke-width="5.5"/><polygon points="100,41.28571428571429 110.14285714285714,51.42857142857143 100,61.57142857142857 89.85714285714286,51.42857142857143" fill="#93c5fd" fill-opacity="0.8" stroke="#75a7df" stroke-width="5.5"/><polygon points="124.28571428571428,41.28571428571429 134.42857142857142,51.42857142857143 124.28571428571428,61.57142857142857 114.14285714285714,51.42857142857143" fill="#1e3c72" fill-opacity="0.8" stroke="#001e54" stroke-width="5.5"/><polygon points="148.57142857142856,41.28571428571429 158.7142857142857,51.42857142857143 148.57142857142856,61.57142857142857 138.42857142857142,51.42857142857143" fill="#2a5298" fill-opacity="0.8" stroke="#0c347a" stroke-width="5.5"/><polygon points="172.85714285714286,41.28571428571429 183,51.42857142857143 172.85714285714286,61.57142857142857 162.71428571428572,51.42857142857143" fill="#3b82f6" fill-opacity="0.8" stroke="#1d64d8" stroke-width="5.5"/><polygon points="27.142857142857142,65.57142857142857 37.285714285714285,75.71428571428571 27.142857142857142,85.85714285714285 17,75.71428571428571" fill="#3b82f6" fill-opacity="0.8" stroke="#1d64d8" stroke-width="5.5"/><polygon points="51.42857142857143,65.57142857142857 61.57142857142857,75.71428571428571 51.42857142857143,85.85714285714285 41.28571428571429,75.71428571428571" fill="#60a5fa" fill-opacity="0.8" stroke="#4287dc" stroke-width="5.5"/><polygon points="75.71428571428571,65.57142857142857 85.85714285714285,75.71428571428571 75.71428571428571,85.85714285714285 65.57142857142857,75.71428571428571" fill="#93c5fd" fill-opacity="0.8" stroke="#75a7df" stroke-width="5.5"/><polygon points="100,65.57142857142857 110.14285714285714,75.71428571428571 100,85.85714285714285 89.85714285714286,75.71428571428571" fill="#1e3c72" fill-opacity="0.8" stroke="#001e54" stroke-width="5.5"/><polygon points="124.28571428571428,65.57142857142857 134.42857142857142,75.71428571428571 124.28571428571428,85.85714285714285 114.14285714285714,75.71428571428571" fill="#2a5298" fill-opacity="0.8" stroke="#0c347a" stroke-width="5.5"/><polygon points="148.57142857142856,65.57142857142857 158.7142857142857,75.71428571428571 148.57142857142856,85.85714285714285 138.42857142857142,75.71428571428571" fill="#3b82f6" fill-opacity="0.8" stroke="#1d64d8" stroke-width="5.5"/><polygon points="172.85714285714286,65.57142857142857 183,75.71428571428571 172.85714285714286,85.85714285714285 162.71428571428572,75.71428571428571" fill="#60a5fa" fill-opacity="0.8" stroke="#4287dc" stroke-width="5.5"/><polygon points="27.142857142857142,89.85714285714286 37.285714285714285,100 27.142857142857142,110.14285714285714 17,100" fill="#60a5fa" fill-opacity="0.8" stroke="#4287dc" stroke-width="5.5"/><polygon points="51.42857142857143,89.85714285714286 61.57142857142857,100 51.42857142857143,110.14285714285714 41.28571428571429,100" fill="#93c5fd" fill-opacity="0.8" stroke="#75a7df" stroke-width="5.5"/><polygon points="75.71428571428571,89.85714285714286 85.85714285714285,100 75.71428571428571,110.14285714285714 65.57142857142857,100" fill="#1e3c72" fill-opacity="0.8" stroke="#001e54" stroke-width="5.5"/><polygon points="100,89.85714285714286 110.14285714285714,100 100,110.14285714285714 89.85714285714286,100" fill="#2a5298" fill-opacity="0.8" stroke="#0c347a" stroke-width="5.5"/><polygon points="124.28571428571428,89.85714285714286 134.42857142857142,100 124.28571428571428,110.14285714285714 114.14285714285714,100" fill="#3b82f6" fill-opacity="0.8" stroke="#1d64d8" stroke-width="5.5"/><polygon points="148.57142857142856,89.85714285714286 158.7142857142857,100 148.57142857142856,110.14285714285714 138.42857142857142,100" fill="#60a5fa" fill-opacity="0.8" stroke="#4287dc" stroke-width="5.5"/><polygon points="172.85714285714286,89.85714285714286 183,100 172.85714285714286,110.14285714285714 162.71428571428572,100" fill="#93c5fd" fill-opacity="0.8" stroke="#75a7df" stroke-width="5.5"/></g></g></g><path d="M15,29 Q22,19.2 29,15" fill="none" stroke="#1e3c72" stroke-width="2.6" stroke-linecap="round" stroke-opacity="1"/><path d="M185,171 Q178,180.8 171,185" fill="none" stroke="#1e3c72" stroke-width="2.6" stroke-linecap="round" stroke-opacity="1"/><path d="M171,15 Q180.8,22 185,29" fill="none" stroke="#2a5298" stroke-width="2.6" stroke-linecap="round" stroke-opacity="1"/><path d="M29,185 Q19.2,178 15,171" fill="none" stroke="#2a5298" stroke-width="2.6" stroke-linecap="round" stroke-opacity="1"/><rect x="5" y="5" width="190" height="190" fill="none" stroke="#4169e1" stroke-width="8" stroke-opacity="0.66"/></svg>