<svg xmlns="http://www.w3.org/2000/svg" width="200" height="200" viewBox="0 0 200 200"><defs></defs><rect width="200" height="200" fill="#ffffff"/><g class="pattern"><g class="symmetry-rotational"><polygon points="15,1.2592592592592595 26.899830548297288,8.12962962962963 26.899830548297288,21.870370370370367 15,28.74074074074074 3.1001694517027154,21.870370370370374 3.1001694517027136,8.129629629629628 " fill="#e3f2fd" fill-opacity="0.8" stroke="#c5d4df" stroke-width="5.5"/><polygon points="38.611111111111114,1.2592592592592595 50.5109416594084,8.12962962962963 50.5109416594084,21.870370370370367 38.611111111111114,28.74074074074074 26.71128056281383,21.870370370370374 26.711280562813826,8.129629629629628 " fill="#bbdefb" fill-opacity="0.8" stroke="#9dc0dd" stroke-width="5.5"/><polygon points="62.22222222222222,1.2592592592592595 74.1220527705195,8.12962962962963 74.1220527705195,21.870370370370367 62.22222222222222,28.74074074074074 50.32239167392494,21.870370370370374 50.32239167392493,8.129629629629628 " fill="#90caf9" fill-opacity="0.8" stroke="#72acdb" stroke-width="5.5"/><polygon points="85.83333333333333,1.2592592592592595 97.73316388163062,8.12962962962963 97.73316388163062,21.870370370370367 85.83333333333333,28.74074074074074 73.93350278503604,21.870370370370374 73.93350278503604,8.129629629629628 " fill="#64b5f6" fill-opacity="0.8" stroke="#4697d8" stroke-width="5.5"/><polygon points="26.805555555555557,14.890740740740739 38.705386103852845,21.76111111111111 38.705386103852845,35.501851851851846 26.805555555555557,42.37222222222222 14.905725007258273,35.50185185185185 14.90572500725827,21.761111111111106 " fill="#bbdefb" fill-opacity="0.8" stroke="#9dc0dd" stroke-width="5.5"/><polygon points="50.41666666666667,14.890740740740739 62.31649721496396,21.76111111111111 62.31649721496396,35.501851851851846 50.41666666666667,42.37222222222222 38.51683611836938,35.50185185185185 38.51683611836938,21.761111111111106 " fill="#90caf9" fill-opacity="0.8" stroke="#72acdb" stroke-width="5.5"/><polygon points="74.02777777777777,14.890740740740739 85.92760832607506,21.76111111111111 85.92760832607506,35.501851851851846 74.02777777777777,42.37222222222222 62.12794722948048,35.50185185185185 62.12794722948048,21.761111111111106 " fill="#64b5f6" fill-opacity="0.8" stroke="#4697d8" stroke-width="5.5"/><polygon points="97.63888888888889,14.890740740740739 109.53871943718617,21.76111111111111 109.53871943718617,35.501851851851846 97.63888888888889,42.37222222222222 85.7390583405916,35.50185185185185 85.7390583405916,21.761111111111106 " fill="#42a5f5" fill-opacity="0.8" stroke="#2487d7" stroke-width="5.5"/><polygon points="15,28.52222222222222 26.899830548297288,35.39259259259259 26.899830548297288,49.133333333333326 15,56.0037037037037 3.1001694517027154,49.13333333333333 3.1001694517027136,35.392592592592585 " fill="#90caf9" fill-opacity="0.8" stroke="#72acdb" stroke-width="5.5"/><polygon points="38.611111111111114,28.52222222222222 50.5109416594084,35.39259259259259 50.5109416594084,49.133333333333326 38.611111111111114,56.0037037037037 26.71128056281383,49.13333333333333 26.711280562813826,35.392592592592585 " fill="#64b5f6" fill-opacity="0.8" stroke="#4697d8" stroke-width="5.5"/><polygon points="62.22222222222222,28.52222222222222 74.1220527705195,35.39259259259259 74.1220527705195,49.133333333333326 62.22222222222222,56.0037037037037 50.32239167392494,49.13333333333333 50.32239167392493,35.392592592592585 " fill="#42a5f5" fill-opacity="0.8" stroke="#2487d7" stroke-width="5.5"/><polygon points="85.83333333333333,28.52222222222222 97.73316388163062,35.39259259259259 97.73316388163062,49.133333333333326 85.83333333333333,56.0037037037037 73.93350278503604,49.13333333333333 73.93350278503604,35.392592592592585 " fill="#2196f3" fill-opacity="0.8" stroke="#0378d5" stroke-width="5.5"/><polygon points="26.805555555555557,42.153703703703705 38.705386103852845,49.02407407407408 38.705386103852845,62.76481481481481 26.805555555555557,69.63518518518518 14.905725007258273,62.76481481481482 14.90572500725827,49.02407407407407 " fill="#64b5f6" fill-opacity="0.8" stroke="#4697d8" stroke-width="5.5"/><polygon points="50.41666666666667,42.153703703703705 62.31649721496396,49.02407407407408 62.31649721496396,62.76481481481481 50.41666666666667,69.63518518518518 38.51683611836938,62.76481481481482 38.51683611836938,49.02407407407407 " fill="#42a5f5" fill-opacity="0.8" stroke="#2487d7" stroke-width="5.5"/><polygon points="74.02777777777777,42.153703703703705 85.92760832607506,49.02407407407408 85.92760832607506,62.76481481481481 74.02777777777777,69.63518518518518 62.12794722948048,62.76481481481482 62.12794722948048,49.02407407407407 " fill="#2196f3" fill-opacity="0.8" stroke="#0378d5" stroke-width="5.5"/><polygon points="97.63888888888889,42.153703703703705 109.53871943718617,49.02407407407408 109.53871943718617,62.76481481481481 97.63888888888889,69.63518518518518 85.7390583405916,62.76481481481482 85.7390583405916,49.02407407407407 " fill="#e3f2fd" fill-opacity="0.8" stroke="#c5d4df" stroke-width="5.5"/><polygon points="15,55.78518518518518 26.899830548297288,62.65555555555555 26.899830548297288,76.39629629629628 15,83.26666666666665 3.1001694517027154,76.3962962962963 3.1001694517027136,62.655555555555544 " fill="#42a5f5" fill-opacity="0.8" stroke="#2487d7" stroke-width="5.5"/><polygon points="38.611111111111114,55.78518518518518 50.5109416594084,62.65555555555555 50.5109416594084,76.39629629629628 38.611111111111114,83.26666666666665 26.71128056281383,76.3962962962963 26.711280562813826,62.655555555555544 " fill="#2196f3" fill-opacity="0.8" stroke="#0378d5" stroke-width="5.5"/><polygon points="62.22222222222222,55.78518518518518 74.1220527705195,62.65555555555555 74.1220527705195,76.39629629629628 62.22222222222222,83.26666666666665 50.32239167392494,76.3962962962963 50.32239167392493,62.655555555555544 " fill="#e3f2fd" fill-opacity="0.8" stroke="#c5d4df" stroke-width="5.5"/><polygon points="85.83333333333333,55.78518518518518 97.73316388163062,62.65555555555555 97.73316388163062,76.39629629629628 85.83333333333333,83.26666666666665 73.93350278503604,76.3962962962963 73.93350278503604,62.655555555555544 " fill="#bbdefb" fill-opacity="0.8" stroke="#9dc0dd" stroke-width="5.5"/><polygon points="26.805555555555557,69.41666666666666 38.705386103852845,76.28703703703704 38.705386103852845,90.02777777777777 26.805555555555557,96.89814814814815 14.905725007258273,90.02777777777779 14.90572500725827,76.28703703703704 " fill="#2196f3" fill-opacity="0.8" stroke="#0378d5" stroke-width="5.5"/><polygon points="50.41666666666667,69.41666666666666 62.31649721496396,76.28703703703704 62.31649721496396,90.02777777777777 50.41666666666667,96.89814814814815 38.51683611836938,90.02777777777779 38.51683611836938,76.28703703703704 " fill="#e3f2fd" fill-opacity="0.8" stroke="#c5d4df" stroke-width="5.5"/><polygon points="74.02777777777777,69.41666666666666 85.92760832607506,76.28703703703704 85.92760832607506,90.02777777777777 74.02777777777777,96.89814814814815 62.12794722948048,90.02777777777779 62.12794722948048,76.28703703703704 " fill="#bbdefb" fill-opacity="0.8" stroke="#9dc0dd" stroke-width="5.5"/><polygon points="97.63888888888889,69.41666666666666 109.53871943718617,76.28703703703704 109.53871943718617,90.02777777777777 97.63888888888889,96.89814814814815 85.7390583405916,90.02777777777779 85.7390583405916,76.28703703703704 " fill="#90caf9" fill-opacity="0.8" stroke="#72acdb" stroke-width="5.5"/><polygon points="15,83.04814814814816 26.899830548297288,89.91851851851852 26.899830548297288,103.65925925925926 15,110.52962962962962 3.1001694517027154,103.65925925925927 3.1001694517027136,89.91851851851852 " fill="#e3f2fd" fill-opacity="0.8" stroke="#c5d4df" stroke-width="5.5"/><polygon points="38.611111111111114,83.04814814814816 50.5109416594084,89.91851851851852 50.5109416594084,103.65925925925926 38.611111111111114,110.52962962962962 26.71128056281383,103.65925925925927 26.711280562813826,89.91851851851852 " fill="#bbdefb" fill-opacity="0.8" stroke="#9dc0dd" stroke-width="5.5"/><polygon points="62.22222222222222,83.04814814814816 74.1220527705195,89.91851851851852 74.1220527705195,103.65925925925926 62.22222222222222,110.52962962962962 50.32239167392494,103.65925925925927 50.32239167392493,89.91851851851852 " fill="#90caf9" fill-opacity="0.8" stroke="#72acdb" stroke-width="5.5"/><polygon points="85.83333333333333,83.04814814814816 97.73316388163062,89.91851851851852 97.73316388163062,103.65925925925926 85.83333333333333,110.52962962962962 73.93350278503604,103.65925925925927 73.93350278503604,89.91851851851852 " fill="#64b5f6" fill-opacity="0.8" stroke="#4697d8" stroke-width="5.5"/><g transform="rotate(90, 100, 100)"><polygon points="15,1.2592592592592595 26.899830548297288,8.12962962962963 26.899830548297288,21.870370370370367 15,28.74074074074074 3.1001694517027154,21.870370370370374 3.1001694517027136,8.129629629629628 " fill="#e3f2fd" fill-opacity="0.8" stroke="#c5d4df" stroke-width="5.5"/><polygon points="38.611111111111114,1.2592592592592595 50.5109416594084,8.12962962962963 50.5109416594084,21.870370370370367 38.611111111111114,28.74074074074074 26.71128056281383,21.870370370370374 26.711280562813826,8.129629629629628 " fill="#bbdefb" fill-opacity="0.8" stroke="#9dc0dd" stroke-width="5.5"/><polygon points="62.22222222222222,1.2592592592592595 74.1220527705195,8.12962962962963 74.1220527705195,21.870370370370367 62.22222222222222,28.74074074074074 50.32239167392494,21.870370370370374 50.32239167392493,8.129629629629628 " fill="#90caf9" fill-opacity="0.8" stroke="#72acdb" stroke-width="5.5"/><polygon points="85.83333333333333,1.2592592592592595 97.73316388163062,8.12962962962963 97.73316388163062,21.870370370370367 85.83333333333333,28.74074074074074 73.93350278503604,21.870370370370374 73.93350278503604,8.129629629629628 " fill="#64b5f6" fill-opacity="0.8" stroke="#4697d8" stroke-width="5.5"/><polygon points="26.805555555555557,14.890740740740739 38.705386103852845,21.76111111111111 38.705386103852845,35.501851851851846 26.805555555555557,42.37222222222222 14.905725007258273,35.50185185185185 14.90572500725827,21.761111111111106 " fill="#bbdefb" fill-opacity="0.8" stroke="#9dc0dd" stroke-width="5.5"/><polygon points="50.41666666666667,14.890740740740739 62.31649721496396,21.76111111111111 62.31649721496396,35.501851851851846 50.41666666666667,42.37222222222222 38.51683611836938,35.50185185185185 38.51683611836938,21.761111111111106 " fill="#90caf9" fill-opacity="0.8" stroke="#72acdb" stroke-width="5.5"/><polygon points="74.02777777777777,14.890740740740739 85.92760832607506,21.76111111111111 85.92760832607506,35.501851851851846 74.02777777777777,42.37222222222222 62.12794722948048,35.50185185185185 62.12794722948048,21.761111111111106 " fill="#64b5f6" fill-opacity="0.8" stroke="#4697d8" stroke-width="5.5"/><polygon points="97.63888888888889,14.890740740740739 109.53871943718617,21.76111111111111 109.53871943718617,35.501851851851846 97.63888888888889,42.37222222222222 85.7390583405916,35.50185185185185 85.7390583405916,21.761111111111106 " fill="#42a5f5" fill-opacity="0.8" stroke="#2487d7" stroke-width="5.5"/><polygon points="15,28.52222222222222 26.899830548297288,35.39259259259259 26.899830548297288,49.133333333333326 15,56.0037037037037 3.1001694517027154,49.13333333333333 3.1001694517027136,35.392592592592585 " fill="#90caf9" fill-opacity="0.8" stroke="#72acdb" stroke-width="5.5"/><polygon points="38.611111111111114,28.52222222222222 50.5109416594084,35.39259259259259 50.5109416594084,49.133333333333326 38.611111111111114,56.0037037037037 26.71128056281383,49.13333333333333 26.711280562813826,35.392592592592585 " fill="#64b5f6" fill-opacity="0.8" stroke="#4697d8" stroke-width="5.5"/><polygon points="62.22222222222222,28.52222222222222 74.1220527705195,35.39259259259259 74.1220527705195,49.133333333333326 62.22222222222222,56.0037037037037 50.32239167392494,49.13333333333333 50.32239167392493,35.392592592592585 " fill="#42a5f5" fill-opacity="0.8" stroke="#2487d7" stroke-width="5.5"/><polygon points="85.83333333333333,28.52222222222222 97.73316388163062,35.39259259259259 97.73316388163062,49.133333333333326 85.83333333333333,56.0037037037037 73.93350278503604,49.13333333333333 73.93350278503604,35.392592592592585 " fill="#2196f3" fill-opacity="0.8" stroke="#0378d5" stroke-width="5.5"/><polygon points="26.805555555555557,42.153703703703705 38.705386103852845,49.02407407407408 38.705386103852845,62.76481481481481 26.805555555555557,69.63518518518518 14.905725007258273,62.76481481481482 14.90572500725827,49.02407407407407 " fill="#64b5f6" fill-opacity="0.8" stroke="#4697d8" stroke-width="5.5"/><polygon points="50.41666666666667,42.153703703703705 62.31649721496396,49.02407407407408 62.31649721496396,62.76481481481481 50.41666666666667,69.63518518518518 38.51683611836938,62.76481481481482 38.51683611836938,49.02407407407407 " fill="#42a5f5" fill-opacity="0.8" stroke="#2487d7" stroke-width="5.5"/><polygon points="74.02777777777777,42.153703703703705 85.92760832607506,49.02407407407408 85.92760832607506,62.76481481481481 74.02777777777777,69.63518518518518 62.12794722948048,62.76481481481482 62.12794722948048,49.02407407407407 " fill="#2196f3" fill-opacity="0.8" stroke="#0378d5" stroke-width="5.5"/><polygon points="97.63888888888889,42.153703703703705 109.53871943718617,49.02407407407408 109.53871943718617,62.76481481481481 97.63888888888889,69.63518518518518 85.7390583405916,62.76481481481482 85.7390583405916,49.02407407407407 " fill="#e3f2fd" fill-opacity="0.8" stroke="#c5d4df" stroke-width="5.5"/><polygon points="15,55.78518518518518 26.899830548297288,62.65555555555555 26.899830548297288,76.39629629629628 15,83.26666666666665 3.1001694517027154,76.3962962962963 3.1001694517027136,62.655555555555544 " fill="#42a5f5" fill-opacity="0.8" stroke="#2487d7" stroke-width="5.5"/><polygon points="38.611111111111114,55.78518518518518 50.5109416594084,62.65555555555555 50.5109416594084,76.39629629629628 38.611111111111114,83.26666666666665 26.71128056281383,76.3962962962963 26.711280562813826,62.655555555555544 " fill="#2196f3" fill-opacity="0.8" stroke="#0378d5" stroke-width="5.5"/><polygon points="62.22222222222222,55.78518518518518 74.1220527705195,62.65555555555555 74.1220527705195,76.39629629629628 62.22222222222222,83.26666666666665 50.32239167392494,76.3962962962963 50.32239167392493,62.655555555555544 " fill="#e3f2fd" fill-opacity="0.8" stroke="#c5d4df" stroke-width="5.5"/><polygon points="85.83333333333333,55.78518518518518 97.73316388163062,62.65555555555555 97.73316388163062,76.39629629629628 85.83333333333333,83.26666666666665 73.93350278503604,76.3962962962963 73.93350278503604,62.655555555555544 " fill="#bbdefb" fill-opacity="0.8" stroke="#9dc0dd" stroke-width="5.5"/><polygon points="26.805555555555557,69.41666666666666 38.705386103852845,76.28703703703704 38.705386103852845,90.02777777777777 26.805555555555557,96.89814814814815 14.905725007258273,90.02777777777779 14.90572500725827,76.28703703703704 " fill="#2196f3" fill-opacity="0.8" stroke="#0378d5" stroke-width="5.5"/><polygon points="50.41666666666667,69.41666666666666 62.31649721496396,76.28703703703704 62.31649721496396,90.02777777777777 50.41666666666667,96.89814814814815 38.51683611836938,90.02777777777779 38.51683611836938,76.28703703703704 " fill="#e3f2fd" fill-opacity="0.8" stroke="#c5d4df" stroke-width="5.5"/><polygon points="74.02777777777777,69.41666666666666 85.92760832607506,76.28703703703704 85.92760832607506,90.02777777777777 74.02777777777777,96.89814814814815 62.12794722948048,90.02777777777779 62.12794722948048,76.28703703703704 " fill="#bbdefb" fill-opacity="0.8" stroke="#9dc0dd" stroke-width="5.5"/><polygon points="97.63888888888889,69.41666666666666 109.53871943718617,76.28703703703704 109.53871943718617,90.02777777777777 97.63888888888889,96.89814814814815 85.7390583405916,90.02777777777779 85.7390583405916,76.28703703703704 " fill="#90caf9" fill-opacity="0.8" stroke="#72acdb" stroke-width="5.5"/><polygon points="15,83.04814814814816 26.899830548297288,89.91851851851852 26.899830548297288,103.65925925925926 15,110.52962962962962 3.1001694517027154,103.65925925925927 3.1001694517027136,89.91851851851852 " fill="#e3f2fd" fill-opacity="0.8" stroke="#c5d4df" stroke-width="5.5"/><polygon points="38.611111111111114,83.04814814814816 50.5109416594084,89.91851851851852 50.5109416594084,103.65925925925926 38.611111111111114,110.52962962962962 26.71128056281383,103.65925925925927 26.711280562813826,89.91851851851852 " fill="#bbdefb" fill-opacity="0.8" stroke="#9dc0dd" stroke-width="5.5"/><polygon points="62.22222222222222,83.04814814814816 74.1220527705195,89.91851851851852 74.1220527705195,103.65925925925926 62.22222222222222,110.52962962962962 50.32239167392494,103.65925925925927 50.32239167392493,89.91851851851852 " fill="#90caf9" fill-opacity="0.8" stroke="#72acdb" stroke-width="5.5"/><polygon points="85.83333333333333,83.04814814814816 97.73316388163062,89.91851851851852 97.73316388163062,103.65925925925926 85.83333333333333,110.52962962962962 73.93350278503604,103.65925925925927 73.93350278503604,89.91851851851852 " fill="#64b5f6" fill-opacity="0.8" stroke="#4697d8" stroke-width="5.5"/></g><g transform="rotate(180, 100, 100)"><polygon points="15,1.2592592592592595 26.899830548297288,8.12962962962963 26.899830548297288,21.870370370370367 15,28.74074074074074 3.1001694517027154,21.870370370370374 3.1001694517027136,8.129629629629628 " fill="#e3f2fd" fill-opacity="0.8" stroke="#c5d4df" stroke-width="5.5"/><polygon points="38.611111111111114,1.2592592592592595 50.5109416594084,8.12962962962963 50.5109416594084,21.870370370370367 38.611111111111114,28.74074074074074 26.71128056281383,21.870370370370374 26.711280562813826,8.129629629629628 " fill="#bbdefb" fill-opacity="0.8" stroke="#9dc0dd" stroke-width="5.5"/><polygon points="62.22222222222222,1.2592592592592595 74.1220527705195,8.12962962962963 74.1220527705195,21.870370370370367 62.22222222222222,28.74074074074074 50.32239167392494,21.870370370370374 50.32239167392493,8.129629629629628 " fill="#90caf9" fill-opacity="0.8" stroke="#72acdb" stroke-width="5.5"/><polygon points="85.83333333333333,1.2592592592592595 97.73316388163062,8.12962962962963 97.73316388163062,21.870370370370367 85.83333333333333,28.74074074074074 73.93350278503604,21.870370370370374 73.93350278503604,8.129629629629628 " fill="#64b5f6" fill-opacity="0.8" stroke="#4697d8" stroke-width="5.5"/><polygon points="26.805555555555557,14.890740740740739 38.705386103852845,21.76111111111111 38.705386103852845,35.501851851851846 26.805555555555557,42.37222222222222 14.905725007258273,35.50185185185185 14.90572500725827,21.761111111111106 " fill="#bbdefb" fill-opacity="0.8" stroke="#9dc0dd" stroke-width="5.5"/><polygon points="50.41666666666667,14.890740740740739 62.31649721496396,21.76111111111111 62.31649721496396,35.501851851851846 50.41666666666667,42.37222222222222 38.51683611836938,35.50185185185185 38.51683611836938,21.761111111111106 " fill="#90caf9" fill-opacity="0.8" stroke="#72acdb" stroke-width="5.5"/><polygon points="74.02777777777777,14.890740740740739 85.92760832607506,21.76111111111111 85.92760832607506,35.501851851851846 74.02777777777777,42.37222222222222 62.12794722948048,35.50185185185185 62.12794722948048,21.761111111111106 " fill="#64b5f6" fill-opacity="0.8" stroke="#4697d8" stroke-width="5.5"/><polygon points="97.63888888888889,14.890740740740739 109.53871943718617,21.76111111111111 109.53871943718617,35.501851851851846 97.63888888888889,42.37222222222222 85.7390583405916,35.50185185185185 85.7390583405916,21.761111111111106 " fill="#42a5f5" fill-opacity="0.8" stroke="#2487d7" stroke-width="5.5"/><polygon points="15,28.52222222222222 26.899830548297288,35.39259259259259 26.899830548297288,49.133333333333326 15,56.0037037037037 3.1001694517027154,49.13333333333333 3.1001694517027136,35.392592592592585 " fill="#90caf9" fill-opacity="0.8" stroke="#72acdb" stroke-width="5.5"/><polygon points="38.611111111111114,28.52222222222222 50.5109416594084,35.39259259259259 50.5109416594084,49.133333333333326 38.611111111111114,56.0037037037037 26.71128056281383,49.13333333333333 26.711280562813826,35.392592592592585 " fill="#64b5f6" fill-opacity="0.8" stroke="#4697d8" stroke-width="5.5"/><polygon points="62.22222222222222,28.52222222222222 74.1220527705195,35.39259259259259 74.1220527705195,49.133333333333326 62.22222222222222,56.0037037037037 50.32239167392494,49.13333333333333 50.32239167392493,35.392592592592585 " fill="#42a5f5" fill-opacity="0.8" stroke="#2487d7" stroke-width="5.5"/><polygon points="85.83333333333333,28.52222222222222 97.73316388163062,35.39259259259259 97.73316388163062,49.133333333333326 85.83333333333333,56.0037037037037 73.93350278503604,49.13333333333333 73.93350278503604,35.392592592592585 " fill="#2196f3" fill-opacity="0.8" stroke="#0378d5" stroke-width="5.5"/><polygon points="26.805555555555557,42.153703703703705 38.705386103852845,49.02407407407408 38.705386103852845,62.76481481481481 26.805555555555557,69.63518518518518 14.905725007258273,62.76481481481482 14.90572500725827,49.02407407407407 " fill="#64b5f6" fill-opacity="0.8" stroke="#4697d8" stroke-width="5.5"/><polygon points="50.41666666666667,42.153703703703705 62.31649721496396,49.02407407407408 62.31649721496396,62.76481481481481 50.41666666666667,69.63518518518518 38.51683611836938,62.76481481481482 38.51683611836938,49.02407407407407 " fill="#42a5f5" fill-opacity="0.8" stroke="#2487d7" stroke-width="5.5"/><polygon points="74.02777777777777,42.153703703703705 85.92760832607506,49.02407407407408 85.92760832607506,62.76481481481481 74.02777777777777,69.63518518518518 62.12794722948048,62.76481481481482 62.12794722948048,49.02407407407407 " fill="#2196f3" fill-opacity="0.8" stroke="#0378d5" stroke-width="5.5"/><polygon points="97.63888888888889,42.153703703703705 109.53871943718617,49.02407407407408 109.53871943718617,62.76481481481481 97.63888888888889,69.63518518518518 85.7390583405916,62.76481481481482 85.7390583405916,49.02407407407407 " fill="#e3f2fd" fill-opacity="0.8" stroke="#c5d4df" stroke-width="5.5"/><polygon points="15,55.78518518518518 26.899830548297288,62.65555555555555 26.899830548297288,76.39629629629628 15,83.26666666666665 3.1001694517027154,76.3962962962963 3.1001694517027136,62.655555555555544 " fill="#42a5f5" fill-opacity="0.8" stroke="#2487d7" stroke-width="5.5"/><polygon points="38.611111111111114,55.78518518518518 50.5109416594084,62.65555555555555 50.5109416594084,76.39629629629628 38.611111111111114,83.26666666666665 26.71128056281383,76.3962962962963 26.711280562813826,62.655555555555544 " fill="#2196f3" fill-opacity="0.8" stroke="#0378d5" stroke-width="5.5"/><polygon points="62.22222222222222,55.78518518518518 74.1220527705195,62.65555555555555 74.1220527705195,76.39629629629628 62.22222222222222,83.26666666666665 50.32239167392494,76.3962962962963 50.32239167392493,62.655555555555544 " fill="#e3f2fd" fill-opacity="0.8" stroke="#c5d4df" stroke-width="5.5"/><polygon points="85.83333333333333,55.78518518518518 97.73316388163062,62.65555555555555 97.73316388163062,76.39629629629628 85.83333333333333,83.26666666666665 73.93350278503604,76.3962962962963 73.93350278503604,62.655555555555544 " fill="#bbdefb" fill-opacity="0.8" stroke="#9dc0dd" stroke-width="5.5"/><polygon points="26.805555555555557,69.41666666666666 38.705386103852845,76.28703703703704 38.705386103852845,90.02777777777777 26.805555555555557,96.89814814814815 14.905725007258273,90.02777777777779 14.90572500725827,76.28703703703704 " fill="#2196f3" fill-opacity="0.8" stroke="#0378d5" stroke-width="5.5"/><polygon points="50.41666666666667,69.41666666666666 62.31649721496396,76.28703703703704 62.31649721496396,90.02777777777777 50.41666666666667,96.89814814814815 38.51683611836938,90.02777777777779 38.51683611836938,76.28703703703704 " fill="#e3f2fd" fill-opacity="0.8" stroke="#c5d4df" stroke-width="5.5"/><polygon points="74.02777777777777,69.41666666666666 85.92760832607506,76.28703703703704 85.92760832607506,90.02777777777777 74.02777777777777,96.89814814814815 62.12794722948048,90.02777777777779 62.12794722948048,76.28703703703704 " fill="#bbdefb" fill-opacity="0.8" stroke="#9dc0dd" stroke-width="5.5"/><polygon points="97.63888888888889,69.41666666666666 109.53871943718617,76.28703703703704 109.53871943718617,90.02777777777777 97.63888888888889,96.89814814814815 85.7390583405916,90.02777777777779 85.7390583405916,76.28703703703704 " fill="#90caf9" fill-opacity="0.8" stroke="#72acdb" stroke-width="5.5"/><polygon points="15,83.04814814814816 26.899830548297288,89.91851851851852 26.899830548297288,103.65925925925926 15,110.52962962962962 3.1001694517027154,103.65925925925927 3.1001694517027136,89.91851851851852 " fill="#e3f2fd" fill-opacity="0.8" stroke="#c5d4df" stroke-width="5.5"/><polygon points="38.611111111111114,83.04814814814816 50.5109416594084,89.91851851851852 50.5109416594084,103.65925925925926 38.611111111111114,110.52962962962962 26.71128056281383,103.65925925925927 26.711280562813826,89.91851851851852 " fill="#bbdefb" fill-opacity="0.8" stroke="#9dc0dd" stroke-width="5.5"/><polygon points="62.22222222222222,83.04814814814816 74.1220527705195,89.91851851851852 74.1220527705195,103.65925925925926 62.22222222222222,110.52962962962962 50.32239167392494,103.65925925925927 50.32239167392493,89.91851851851852 " fill="#90caf9" fill-opacity="0.8" stroke="#72acdb" stroke-width="5.5"/><polygon points="85.83333333333333,83.04814814814816 97.73316388163062,89.91851851851852 97.73316388163062,103.65925925925926 85.83333333333333,110.52962962962962 73.93350278503604,103.65925925925927 73.93350278503604,89.91851851851852 " fill="#64b5f6" fill-opacity="0.8" stroke="#4697d8" stroke-width="5.5"/></g><g transform="rotate(270, 100, 100)"><polygon points="15,1.2592592592592595 26.899830548297288,8.12962962962963 26.899830548297288,21.870370370370367 15,28.74074074074074 3.1001694517027154,21.870370370370374 3.1001694517027136,8.129629629629628 " fill="#e3f2fd" fill-opacity="0.8" stroke="#c5d4df" stroke-width="5.5"/><polygon points="38.611111111111114,1.2592592592592595 50.5109416594084,8.12962962962963 50.5109416594084,21.870370370370367 38.611111111111114,28.74074074074074 26.71128056281383,21.870370370370374 26.711280562813826,8.129629629629628 " fill="#bbdefb" fill-opacity="0.8" stroke="#9dc0dd" stroke-width="5.5"/><polygon points="62.22222222222222,1.2592592592592595 74.1220527705195,8.12962962962963 74.1220527705195,21.870370370370367 62.22222222222222,28.74074074074074 50.32239167392494,21.870370370370374 50.32239167392493,8.129629629629628 " fill="#90caf9" fill-opacity="0.8" stroke="#72acdb" stroke-width="5.5"/><polygon points="85.83333333333333,1.2592592592592595 97.73316388163062,8.12962962962963 97.73316388163062,21.870370370370367 85.83333333333333,28.74074074074074 73.93350278503604,21.870370370370374 73.93350278503604,8.129629629629628 " fill="#64b5f6" fill-opacity="0.8" stroke="#4697d8" stroke-width="5.5"/><polygon points="26.805555555555557,14.890740740740739 38.705386103852845,21.76111111111111 38.705386103852845,35.501851851851846 26.805555555555557,42.37222222222222 14.905725007258273,35.50185185185185 14.90572500725827,21.761111111111106 " fill="#bbdefb" fill-opacity="0.8" stroke="#9dc0dd" stroke-width="5.5"/><polygon points="50.41666666666667,14.890740740740739 62.31649721496396,21.76111111111111 62.31649721496396,35.501851851851846 50.41666666666667,42.37222222222222 38.51683611836938,35.50185185185185 38.51683611836938,21.761111111111106 " fill="#90caf9" fill-opacity="0.8" stroke="#72acdb" stroke-width="5.5"/><polygon points="74.02777777777777,14.890740740740739 85.92760832607506,21.76111111111111 85.92760832607506,35.501851851851846 74.02777777777777,42.37222222222222 62.12794722948048,35.50185185185185 62.12794722948048,21.761111111111106 " fill="#64b5f6" fill-opacity="0.8" stroke="#4697d8" stroke-width="5.5"/><polygon points="97.63888888888889,14.890740740740739 109.53871943718617,21.76111111111111 109.53871943718617,35.501851851851846 97.63888888888889,42.37222222222222 85.7390583405916,35.50185185185185 85.7390583405916,21.761111111111106 " fill="#42a5f5" fill-opacity="0.8" stroke="#2487d7" stroke-width="5.5"/><polygon points="15,28.52222222222222 26.899830548297288,35.39259259259259 26.899830548297288,49.133333333333326 15,56.0037037037037 3.1001694517027154,49.13333333333333 3.1001694517027136,35.392592592592585 " fill="#90caf9" fill-opacity="0.8" stroke="#72acdb" stroke-width="5.5"/><polygon points="38.611111111111114,28.52222222222222 50.5109416594084,35.39259259259259 50.5109416594084,49.133333333333326 38.611111111111114,56.0037037037037 26.71128056281383,49.13333333333333 26.711280562813826,35.392592592592585 " fill="#64b5f6" fill-opacity="0.8" stroke="#4697d8" stroke-width="5.5"/><polygon points="62.22222222222222,28.52222222222222 74.1220527705195,35.39259259259259 74.1220527705195,49.133333333333326 62.22222222222222,56.0037037037037 50.32239167392494,49.13333333333333 50.32239167392493,35.392592592592585 " fill="#42a5f5" fill-opacity="0.8" stroke="#2487d7" stroke-width="5.5"/><polygon points="85.83333333333333,28.52222222222222 97.73316388163062,35.39259259259259 97.73316388163062,49.133333333333326 85.83333333333333,56.0037037037037 73.93350278503604,49.13333333333333 73.93350278503604,35.392592592592585 " fill="#2196f3" fill-opacity="0.8" stroke="#0378d5" stroke-width="5.5"/><polygon points="26.805555555555557,42.153703703703705 38.705386103852845,49.02407407407408 38.705386103852845,62.76481481481481 26.805555555555557,69.63518518518518 14.905725007258273,62.76481481481482 14.90572500725827,49.02407407407407 " fill="#64b5f6" fill-opacity="0.8" stroke="#4697d8" stroke-width="5.5"/><polygon points="50.41666666666667,42.153703703703705 62.31649721496396,49.02407407407408 62.31649721496396,62.76481481481481 50.41666666666667,69.63518518518518 38.51683611836938,62.76481481481482 38.51683611836938,49.02407407407407 " fill="#42a5f5" fill-opacity="0.8" stroke="#2487d7" stroke-width="5.5"/><polygon points="74.02777777777777,42.153703703703705 85.92760832607506,49.02407407407408 85.92760832607506,62.76481481481481 74.02777777777777,69.63518518518518 62.12794722948048,62.76481481481482 62.12794722948048,49.02407407407407 " fill="#2196f3" fill-opacity="0.8" stroke="#0378d5" stroke-width="5.5"/><polygon points="97.63888888888889,42.153703703703705 109.53871943718617,49.02407407407408 109.53871943718617,62.76481481481481 97.63888888888889,69.63518518518518 85.7390583405916,62.76481481481482 85.7390583405916,49.02407407407407 " fill="#e3f2fd" fill-opacity="0.8" stroke="#c5d4df" stroke-width="5.5"/><polygon points="15,55.78518518518518 26.899830548297288,62.65555555555555 26.899830548297288,76.39629629629628 15,83.26666666666665 3.1001694517027154,76.3962962962963 3.1001694517027136,62.655555555555544 " fill="#42a5f5" fill-opacity="0.8" stroke="#2487d7" stroke-width="5.5"/><polygon points="38.611111111111114,55.78518518518518 50.5109416594084,62.65555555555555 50.5109416594084,76.39629629629628 38.611111111111114,83.26666666666665 26.71128056281383,76.3962962962963 26.711280562813826,62.655555555555544 " fill="#2196f3" fill-opacity="0.8" stroke="#0378d5" stroke-width="5.5"/><polygon points="62.22222222222222,55.78518518518518 74.1220527705195,62.65555555555555 74.1220527705195,76.39629629629628 62.22222222222222,83.26666666666665 50.32239167392494,76.3962962962963 50.32239167392493,62.655555555555544 " fill="#e3f2fd" fill-opacity="0.8" stroke="#c5d4df" stroke-width="5.5"/><polygon points="85.83333333333333,55.78518518518518 97.73316388163062,62.65555555555555 97.73316388163062,76.39629629629628 85.83333333333333,83.26666666666665 73.93350278503604,76.3962962962963 73.93350278503604,62.655555555555544 " fill="#bbdefb" fill-opacity="0.8" stroke="#9dc0dd" stroke-width="5.5"/><polygon points="26.805555555555557,69.41666666666666 38.705386103852845,76.28703703703704 38.705386103852845,90.02777777777777 26.805555555555557,96.89814814814815 14.905725007258273,90.02777777777779 14.90572500725827,76.28703703703704 " fill="#2196f3" fill-opacity="0.8" stroke="#0378d5" stroke-width="5.5"/><polygon points="50.41666666666667,69.41666666666666 62.31649721496396,76.28703703703704 62.31649721496396,90.02777777777777 50.41666666666667,96.89814814814815 38.51683611836938,90.02777777777779 38.51683611836938,76.28703703703704 " fill="#e3f2fd" fill-opacity="0.8" stroke="#c5d4df" stroke-width="5.5"/><polygon points="74.02777777777777,69.41666666666666 85.92760832607506,76.28703703703704 85.92760832607506,90.02777777777777 74.02777777777777,96.89814814814815 62.12794722948048,90.02777777777779 62.12794722948048,76.28703703703704 " fill="#bbdefb" fill-opacity="0.8" stroke="#9dc0dd" stroke-width="5.5"/><polygon points="97.63888888888889,69.41666666666666 109.53871943718617,76.28703703703704 109.53871943718617,90.02777777777777 97.63888888888889,96.89814814814815 85.7390583405916,90.02777777777779 85.7390583405916,76.28703703703704 " fill="#90caf9" fill-opacity="0.8" stroke="#72acdb" stroke-width="5.5"/><polygon points="15,83.04814814814816 26.899830548297288,89.91851851851852 26.899830548297288,103.65925925925926 15,110.52962962962962 3.1001694517027154,103.65925925925927 3.1001694517027136,89.91851851851852 " fill="#e3f2fd" fill-opacity="0.8" stroke="#c5d4df" stroke-width="5.5"/><polygon points="38.611111111111114,83.04814814814816 50.5109416594084,89.91851851851852 50.5109416594084,103.65925925925926 38.611111111111114,110.52962962962962 26.71128056281383,103.65925925925927 26.711280562813826,89.91851851851852 " fill="#bbdefb" fill-opacity="0.8" stroke="#9dc0dd" stroke-width="5.5"/><polygon points="62.22222222222222,83.04814814814816 74.1220527705195,89.91851851851852 74.1220527705195,103.65925925925926 62.22222222222222,110.52962962962962 50.32239167392494,103.65925925925927 50.32239167392493,89.91851851851852 " fill="#90caf9" fill-opacity="0.8" stroke="#72acdb" stroke-width="5.5"/><polygon points="85.83333333333333,83.04814814814816 97.73316388163062,89.91851851851852 97.73316388163062,103.65925925925926 85.83333333333333,110.52962962962962 73.93350278503604,103.65925925925927 73.93350278503604,89.91851851851852 " fill="#64b5f6" fill-opacity="0.8" stroke="#4697d8" stroke-width="5.5"/></g></g></g><path d="M15,29 Q22,19.2 29,15" fill="none" stroke="#e3f2fd" stroke-width="2.6" stroke-linecap="round" stroke-opacity="1"/><path d="M185,171 Q178,180.8 171,185" fill="none" stroke="#e3f2fd" stroke-width="2.6" stroke-linecap="round" stroke-opacity="1"/><path d="M171,15 Q180.8,22 185,29" fill="none" stroke="#bbdefb" stroke-width="2.6" stroke-linecap="round" stroke-opacity="1"/><path d="M29,185 Q19.2,178 15,171" fill="none" stroke="#bbdefb" stroke-width="2.6" stroke-linecap="round" stroke-opacity="1"/><rect x="5" y="5" width="190" height="190" fill="none" stroke="#4169e1" stroke-width="8" stroke-opacity="0.66"/></svg>