<svg xmlns="http://www.w3.org/2000/svg" width="200" height="200" viewBox="0 0 200 200"><defs></defs><rect width="200" height="200" fill="#ffffff"/><g class="pattern"><g class="symmetry-rotational"><rect x="37.25" y="16" width="19.25" height="19.25" fill="#bbdefb" fill-opacity="0.8" stroke="#9dc0dd" stroke-width="6"/><rect x="58.5" y="16" width="19.25" height="19.25" fill="#90caf9" fill-opacity="0.8" stroke="#72acdb" stroke-width="6"/><rect x="79.75" y="16" width="19.25" height="19.25" fill="#64b5f6" fill-opacity="0.8" stroke="#4697d8" stroke-width="6"/><rect x="16" y="37.25" width="19.25" height="19.25" fill="#bbdefb" fill-opacity="0.8" stroke="#9dc0dd" stroke-width="6"/><rect x="37.25" y="37.25" width="19.25" height="19.25" fill="#90caf9" fill-opacity="0.8" stroke="#72acdb" stroke-width="6"/><rect x="58.5" y="37.25" width="19.25" height="19.25" fill="#64b5f6" fill-opacity="0.8" stroke="#4697d8" stroke-width="6"/><rect x="79.75" y="37.25" width="19.25" height="19.25" fill="#42a5f5" fill-opacity="0.8" stroke="#2487d7" stroke-width="6"/><rect x="37.25" y="58.5" width="19.25" height="19.25" fill="#64b5f6" fill-opacity="0.8" stroke="#4697d8" stroke-width="6"/><rect x="58.5" y="58.5" width="19.25" height="19.25" fill="#42a5f5" fill-opacity="0.8" stroke="#2487d7" stroke-width="6"/><rect x="37.25" y="79.75" width="19.25" height="19.25" fill="#42a5f5" fill-opacity="0.8" stroke="#2487d7" stroke-width="6"/><rect x="58.5" y="79.75" width="19.25" height="19.25" fill="#2196f3" fill-opacity="0.8" stroke="#0378d5" stroke-width="6"/><rect x="79.75" y="79.75" width="19.25" height="19.25" fill="#e3f2fd" fill-opacity="0.8" stroke="#c5d4df" stroke-width="6"/><g transform="rotate(90, 100, 100)"><rect x="37.25" y="16" width="19.25" height="19.25" fill="#bbdefb" fill-opacity="0.8" stroke="#9dc0dd" stroke-width="6"/><rect x="58.5" y="16" width="19.25" height="19.25" fill="#90caf9" fill-opacity="0.8" stroke="#72acdb" stroke-width="6"/><rect x="79.75" y="16" width="19.25" height="19.25" fill="#64b5f6" fill-opacity="0.8" stroke="#4697d8" stroke-width="6"/><rect x="16" y="37.25" width="19.25" height="19.25" fill="#bbdefb" fill-opacity="0.8" stroke="#9dc0dd" stroke-width="6"/><rect x="37.25" y="37.25" width="19.25" height="19.25" fill="#90caf9" fill-opacity="0.8" stroke="#72acdb" stroke-width="6"/><rect x="58.5" y="37.25" width="19.25" height="19.25" fill="#64b5f6" fill-opacity="0.8" stroke="#4697d8" stroke-width="6"/><rect x="79.75" y="37.25" width="19.25" height="19.25" fill="#42a5f5" fill-opacity="0.8" stroke="#2487d7" stroke-width="6"/><rect x="37.25" y="58.5" width="19.25" height="19.25" fill="#64b5f6" fill-opacity="0.8" stroke="#4697d8" stroke-width="6"/><rect x="58.5" y="58.5" width="19.25" height="19.25" fill="#42a5f5" fill-opacity="0.8" stroke="#2487d7" stroke-width="6"/><rect x="37.25" y="79.75" width="19.25" height="19.25" fill="#42a5f5" fill-opacity="0.8" stroke="#2487d7" stroke-width="6"/><rect x="58.5" y="79.75" width="19.25" height="19.25" fill="#2196f3" fill-opacity="0.8" stroke="#0378d5" stroke-width="6"/><rect x="79.75" y="79.75" width="19.25" height="19.25" fill="#e3f2fd" fill-opacity="0.8" stroke="#c5d4df" stroke-width="6"/></g><g transform="rotate(180, 100, 100)"><rect x="37.25" y="16" width="19.25" height="19.25" fill="#bbdefb" fill-opacity="0.8" stroke="#9dc0dd" stroke-width="6"/><rect x="58.5" y="16" width="19.25" height="19.25" fill="#90caf9" fill-opacity="0.8" stroke="#72acdb" stroke-width="6"/><rect x="79.75" y="16" width="19.25" height="19.25" fill="#64b5f6" fill-opacity="0.8" stroke="#4697d8" stroke-width="6"/><rect x="16" y="37.25" width="19.25" height="19.25" fill="#bbdefb" fill-opacity="0.8" stroke="#9dc0dd" stroke-width="6"/><rect x="37.25" y="37.25" width="19.25" height="19.25" fill="#90caf9" fill-opacity="0.8" stroke="#72acdb" stroke-width="6"/><rect x="58.5" y="37.25" width="19.25" height="19.25" fill="#64b5f6" fill-opacity="0.8" stroke="#4697d8" stroke-width="6"/><rect x="79.75" y="37.25" width="19.25" height="19.25" fill="#42a5f5" fill-opacity="0.8" stroke="#2487d7" stroke-width="6"/><rect x="37.25" y="58.5" width="19.25" height="19.25" fill="#64b5f6" fill-opacity="0.8" stroke="#4697d8" stroke-width="6"/><rect x="58.5" y="58.5" width="19.25" height="19.25" fill="#42a5f5" fill-opacity="0.8" stroke="#2487d7" stroke-width="6"/><rect x="37.25" y="79.75" width="19.25" height="19.25" fill="#42a5f5" fill-opacity="0.8" stroke="#2487d7" stroke-width="6"/><rect x="58.5" y="79.75" width="19.25" height="19.25" fill="#2196f3" fill-opacity="0.8" stroke="#0378d5" stroke-width="6"/><rect x="79.75" y="79.75" width="19.25" height="19.25" fill="#e3f2fd" fill-opacity="0.8" stroke="#c5d4df" stroke-width="6"/></g><g transform="rotate(270, 100, 100)"><rect x="37.25" y="16" width="19.25" height="19.25" fill="#bbdefb" fill-opacity="0.8" stroke="#9dc0dd" stroke-width="6"/><rect x="58.5" y="16" width="19.25" height="19.25" fill="#90caf9" fill-opacity="0.8" stroke="#72acdb" stroke-width="6"/><rect x="79.75" y="16" width="19.25" height="19.25" fill="#64b5f6" fill-opacity="0.8" stroke="#4697d8" stroke-width="6"/><rect x="16" y="37.25" width="19.25" height="19.25" fill="#bbdefb" fill-opacity="0.8" stroke="#9dc0dd" stroke-width="6"/><rect x="37.25" y="37.25" width="19.25" height="19.25" fill="#90caf9" fill-opacity="0.8" stroke="#72acdb" stroke-width="6"/><rect x="58.5" y="37.25" width="19.25" height="19.25" fill="#64b5f6" fill-opacity="0.8" stroke="#4697d8" stroke-width="6"/><rect x="79.75" y="37.25" width="19.25" height="19.25" fill="#42a5f5" fill-opacity="0.8" stroke="#2487d7" stroke-width="6"/><rect x="37.25" y="58.5" width="19.25" height="19.25" fill="#64b5f6" fill-opacity="0.8" stroke="#4697d8" stroke-width="6"/><rect x="58.5" y="58.5" width="19.25" height="19.25" fill="#42a5f5" fill-opacity="0.8" stroke="#2487d7" stroke-width="6"/><rect x="37.25" y="79.75" width="19.25" height="19.25" fill="#42a5f5" fill-opacity="0.8" stroke="#2487d7" stroke-width="6"/><rect x="58.5" y="79.75" width="19.25" height="19.25" fill="#2196f3" fill-opacity="0.8" stroke="#0378d5" stroke-width="6"/><rect x="79.75" y="79.75" width="19.25" height="19.25" fill="#e3f2fd" fill-opacity="0.8" stroke="#c5d4df" stroke-width="6"/></g></g></g><circle cx="115" cy="100" r="12" fill="#e3f2fd" fill-opacity="0.8" stroke="#c5d4df" stroke-width="4"/><circle cx="107.5" cy="112.99038105676658" r="12" fill="#bbdefb" fill-opacity="0.8" stroke="#9dc0dd" stroke-width="4"/><circle cx="92.5" cy="112.99038105676658" r="12" fill="#90caf9" fill-opacity="0.8" stroke="#72acdb" stroke-width="4"/><circle cx="85" cy="100" r="12" fill="#64b5f6" fill-opacity="0.8" stroke="#4697d8" stroke-width="4"/><circle cx="92.5" cy="87.00961894323342" r="12" fill="#42a5f5" fill-opacity="0.8" stroke="#2487d7" stroke-width="4"/><circle cx="107.5" cy="87.00961894323342" r="12" fill="#2196f3" fill-opacity="0.8" stroke="#0378d5" stroke-width="4"/><circle cx="100" cy="100" r="10" fill="#e3f2fd" stroke="#bbcad5" stroke-width="8"/><path d="M15,5 L17.82842712474619,12.17157287525381 L25,15 L17.82842712474619,17.82842712474619 L15,25 L12.17157287525381,17.82842712474619 L5,15.000000000000002 L12.171572875253808,12.17157287525381 Z" fill="#e3f2fd" fill-opacity="0.6" stroke="#e3f2fd" stroke-width="6.5" stroke-opacity="1"/><path d="M185,175 L187.82842712474618,182.17157287525382 L195,185 L187.82842712474618,187.82842712474618 L185,195 L182.17157287525382,187.82842712474618 L175,185 L182.17157287525382,182.17157287525382 Z" fill="#e3f2fd" fill-opacity="0.6" stroke="#e3f2fd" stroke-width="6.5" stroke-opacity="1"/><path d="M185,7 L187.26274169979695,12.737258300203049 L193,15 L187.26274169979695,17.26274169979695 L185,23 L182.73725830020305,17.26274169979695 L177,15.000000000000002 L182.73725830020305,12.737258300203049 Z" fill="#bbdefb" fill-opacity="0.6" stroke="#bbdefb" stroke-width="5.2" stroke-opacity="1"/><path d="M15,177 L17.26274169979695,182.73725830020305 L23,185 L17.26274169979695,187.26274169979695 L15,193 L12.737258300203049,187.26274169979695 L7,185 L12.737258300203047,182.73725830020305 Z" fill="#bbdefb" fill-opacity="0.6" stroke="#bbdefb" stroke-width="5.2" stroke-opacity="1"/><rect x="5" y="5" width="190" height="190" fill="none" stroke="#287ff0" stroke-width="5" stroke-opacity="0.53"/><circle cx="5" cy="5" r="4" fill="none" stroke="#287ff0" stroke-width="2.5" stroke-opacity="0.53"/><circle cx="195" cy="5" r="4" fill="none" stroke="#287ff0" stroke-width="2.5" stroke-opacity="0.53"/><circle cx="195" cy="195" r="4" fill="none" stroke="#287ff0" stroke-width="2.5" stroke-opacity="0.53"/><circle cx="5" cy="195" r="4" fill="none" stroke="#287ff0" stroke-width="2.5" stroke-opacity="0.53"/></svg>