<svg xmlns="http://www.w3.org/2000/svg" width="200" height="200" viewBox="0 0 200 200"><defs></defs><rect width="200" height="200" fill="#ffffff"/><g class="pattern"><g class="symmetry-rotational"><path d="M100,80 Q76.50814860839405,36.99845446737174 100,10 Q123.49185139160595,36.998454467371744 100,80" fill="#1e3c72" fill-opacity="0.8" stroke="#001e54" stroke-width="6"/><path d="M110,82.67949192431122 Q111.15623267925456,33.693135395258935 145,22.057713659400513 Q151.84531285337368,57.184986786864876 110,82.67949192431122" fill="#2a5298" fill-opacity="0.8" stroke="#0c347a" stroke-width="6"/><path d="M117.32050807568876,90 Q142.8150132131351,48.1546871466263 177.94228634059948,55 Q166.30686460474107,88.84376732074543 117.32050807568876,90" fill="#3b82f6" fill-opacity="0.8" stroke="#1d64d8" stroke-width="6"/><path d="M120,100 Q163.00154553262826,76.50814860839405 190,100 Q163.00154553262826,123.49185139160595 120,100" fill="#60a5fa" fill-opacity="0.8" stroke="#4287dc" stroke-width="6"/><path d="M117.32050807568878,110 Q166.30686460474107,111.15623267925456 177.94228634059948,145 Q142.81501321313513,151.84531285337368 117.32050807568878,110" fill="#93c5fd" fill-opacity="0.8" stroke="#75a7df" stroke-width="6"/><path d="M110,117.32050807568878 Q151.84531285337368,142.81501321313513 145,177.94228634059948 Q111.15623267925456,166.30686460474107 110,117.32050807568878" fill="#1e3c72" fill-opacity="0.8" stroke="#001e54" stroke-width="6"/><path d="M100,120 Q123.49185139160595,163.00154553262826 100,190 Q76.50814860839405,163.00154553262826 100,120" fill="#2a5298" fill-opacity="0.8" stroke="#0c347a" stroke-width="6"/><path d="M90,117.32050807568876 Q88.84376732074543,166.30686460474107 54.999999999999986,177.94228634059945 Q48.154687146626294,142.8150132131351 90,117.32050807568876" fill="#3b82f6" fill-opacity="0.8" stroke="#1d64d8" stroke-width="6"/><path d="M82.67949192431124,110 Q57.18498678686491,151.8453128533737 22.05771365940054,145.00000000000003 Q33.69313539525895,111.15623267925459 82.67949192431124,110" fill="#60a5fa" fill-opacity="0.8" stroke="#4287dc" stroke-width="6"/><path d="M80,100 Q36.998454467371744,123.49185139160595 10,100.00000000000001 Q36.99845446737174,76.50814860839407 80,100" fill="#93c5fd" fill-opacity="0.8" stroke="#75a7df" stroke-width="6"/><path d="M82.67949192431124,90 Q33.69313539525895,88.84376732074543 22.057713659400534,54.99999999999999 Q57.1849867868649,48.1546871466263 82.67949192431124,90" fill="#1e3c72" fill-opacity="0.8" stroke="#001e54" stroke-width="6"/><path d="M89.99999999999999,82.67949192431124 Q48.15468714662628,57.18498678686491 54.99999999999996,22.057713659400548 Q88.8437673207454,33.69313539525895 89.99999999999999,82.67949192431124" fill="#2a5298" fill-opacity="0.8" stroke="#0c347a" stroke-width="6"/><circle cx="100" cy="100" r="18" fill="#1e3c72" stroke="#001e54" stroke-width="6"/><g transform="rotate(90, 100, 100)"><path d="M100,80 Q76.50814860839405,36.99845446737174 100,10 Q123.49185139160595,36.998454467371744 100,80" fill="#1e3c72" fill-opacity="0.8" stroke="#001e54" stroke-width="6"/><path d="M110,82.67949192431122 Q111.15623267925456,33.693135395258935 145,22.057713659400513 Q151.84531285337368,57.184986786864876 110,82.67949192431122" fill="#2a5298" fill-opacity="0.8" stroke="#0c347a" stroke-width="6"/><path d="M117.32050807568876,90 Q142.8150132131351,48.1546871466263 177.94228634059948,55 Q166.30686460474107,88.84376732074543 117.32050807568876,90" fill="#3b82f6" fill-opacity="0.8" stroke="#1d64d8" stroke-width="6"/><path d="M120,100 Q163.00154553262826,76.50814860839405 190,100 Q163.00154553262826,123.49185139160595 120,100" fill="#60a5fa" fill-opacity="0.8" stroke="#4287dc" stroke-width="6"/><path d="M117.32050807568878,110 Q166.30686460474107,111.15623267925456 177.94228634059948,145 Q142.81501321313513,151.84531285337368 117.32050807568878,110" fill="#93c5fd" fill-opacity="0.8" stroke="#75a7df" stroke-width="6"/><path d="M110,117.32050807568878 Q151.84531285337368,142.81501321313513 145,177.94228634059948 Q111.15623267925456,166.30686460474107 110,117.32050807568878" fill="#1e3c72" fill-opacity="0.8" stroke="#001e54" stroke-width="6"/><path d="M100,120 Q123.49185139160595,163.00154553262826 100,190 Q76.50814860839405,163.00154553262826 100,120" fill="#2a5298" fill-opacity="0.8" stroke="#0c347a" stroke-width="6"/><path d="M90,117.32050807568876 Q88.84376732074543,166.30686460474107 54.999999999999986,177.94228634059945 Q48.154687146626294,142.8150132131351 90,117.32050807568876" fill="#3b82f6" fill-opacity="0.8" stroke="#1d64d8" stroke-width="6"/><path d="M82.67949192431124,110 Q57.18498678686491,151.8453128533737 22.05771365940054,145.00000000000003 Q33.69313539525895,111.15623267925459 82.67949192431124,110" fill="#60a5fa" fill-opacity="0.8" stroke="#4287dc" stroke-width="6"/><path d="M80,100 Q36.998454467371744,123.49185139160595 10,100.00000000000001 Q36.99845446737174,76.50814860839407 80,100" fill="#93c5fd" fill-opacity="0.8" stroke="#75a7df" stroke-width="6"/><path d="M82.67949192431124,90 Q33.69313539525895,88.84376732074543 22.057713659400534,54.99999999999999 Q57.1849867868649,48.1546871466263 82.67949192431124,90" fill="#1e3c72" fill-opacity="0.8" stroke="#001e54" stroke-width="6"/><path d="M89.99999999999999,82.67949192431124 Q48.15468714662628,57.18498678686491 54.99999999999996,22.057713659400548 Q88.8437673207454,33.69313539525895 89.99999999999999,82.67949192431124" fill="#2a5298" fill-opacity="0.8" stroke="#0c347a" stroke-width="6"/><circle cx="100" cy="100" r="18" fill="#1e3c72" stroke="#001e54" stroke-width="6"/></g><g transform="rotate(180, 100, 100)"><path d="M100,80 Q76.50814860839405,36.99845446737174 100,10 Q123.49185139160595,36.998454467371744 100,80" fill="#1e3c72" fill-opacity="0.8" stroke="#001e54" stroke-width="6"/><path d="M110,82.67949192431122 Q111.15623267925456,33.693135395258935 145,22.057713659400513 Q151.84531285337368,57.184986786864876 110,82.67949192431122" fill="#2a5298" fill-opacity="0.8" stroke="#0c347a" stroke-width="6"/><path d="M117.32050807568876,90 Q142.8150132131351,48.1546871466263 177.94228634059948,55 Q166.30686460474107,88.84376732074543 117.32050807568876,90" fill="#3b82f6" fill-opacity="0.8" stroke="#1d64d8" stroke-width="6"/><path d="M120,100 Q163.00154553262826,76.50814860839405 190,100 Q163.00154553262826,123.49185139160595 120,100" fill="#60a5fa" fill-opacity="0.8" stroke="#4287dc" stroke-width="6"/><path d="M117.32050807568878,110 Q166.30686460474107,111.15623267925456 177.94228634059948,145 Q142.81501321313513,151.84531285337368 117.32050807568878,110" fill="#93c5fd" fill-opacity="0.8" stroke="#75a7df" stroke-width="6"/><path d="M110,117.32050807568878 Q151.84531285337368,142.81501321313513 145,177.94228634059948 Q111.15623267925456,166.30686460474107 110,117.32050807568878" fill="#1e3c72" fill-opacity="0.8" stroke="#001e54" stroke-width="6"/><path d="M100,120 Q123.49185139160595,163.00154553262826 100,190 Q76.50814860839405,163.00154553262826 100,120" fill="#2a5298" fill-opacity="0.8" stroke="#0c347a" stroke-width="6"/><path d="M90,117.32050807568876 Q88.84376732074543,166.30686460474107 54.999999999999986,177.94228634059945 Q48.154687146626294,142.8150132131351 90,117.32050807568876" fill="#3b82f6" fill-opacity="0.8" stroke="#1d64d8" stroke-width="6"/><path d="M82.67949192431124,110 Q57.18498678686491,151.8453128533737 22.05771365940054,145.00000000000003 Q33.69313539525895,111.15623267925459 82.67949192431124,110" fill="#60a5fa" fill-opacity="0.8" stroke="#4287dc" stroke-width="6"/><path d="M80,100 Q36.998454467371744,123.49185139160595 10,100.00000000000001 Q36.99845446737174,76.50814860839407 80,100" fill="#93c5fd" fill-opacity="0.8" stroke="#75a7df" stroke-width="6"/><path d="M82.67949192431124,90 Q33.69313539525895,88.84376732074543 22.057713659400534,54.99999999999999 Q57.1849867868649,48.1546871466263 82.67949192431124,90" fill="#1e3c72" fill-opacity="0.8" stroke="#001e54" stroke-width="6"/><path d="M89.99999999999999,82.67949192431124 Q48.15468714662628,57.18498678686491 54.99999999999996,22.057713659400548 Q88.8437673207454,33.69313539525895 89.99999999999999,82.67949192431124" fill="#2a5298" fill-opacity="0.8" stroke="#0c347a" stroke-width="6"/><circle cx="100" cy="100" r="18" fill="#1e3c72" stroke="#001e54" stroke-width="6"/></g><g transform="rotate(270, 100, 100)"><path d="M100,80 Q76.50814860839405,36.99845446737174 100,10 Q123.49185139160595,36.998454467371744 100,80" fill="#1e3c72" fill-opacity="0.8" stroke="#001e54" stroke-width="6"/><path d="M110,82.67949192431122 Q111.15623267925456,33.693135395258935 145,22.057713659400513 Q151.84531285337368,57.184986786864876 110,82.67949192431122" fill="#2a5298" fill-opacity="0.8" stroke="#0c347a" stroke-width="6"/><path d="M117.32050807568876,90 Q142.8150132131351,48.1546871466263 177.94228634059948,55 Q166.30686460474107,88.84376732074543 117.32050807568876,90" fill="#3b82f6" fill-opacity="0.8" stroke="#1d64d8" stroke-width="6"/><path d="M120,100 Q163.00154553262826,76.50814860839405 190,100 Q163.00154553262826,123.49185139160595 120,100" fill="#60a5fa" fill-opacity="0.8" stroke="#4287dc" stroke-width="6"/><path d="M117.32050807568878,110 Q166.30686460474107,111.15623267925456 177.94228634059948,145 Q142.81501321313513,151.84531285337368 117.32050807568878,110" fill="#93c5fd" fill-opacity="0.8" stroke="#75a7df" stroke-width="6"/><path d="M110,117.32050807568878 Q151.84531285337368,142.81501321313513 145,177.94228634059948 Q111.15623267925456,166.30686460474107 110,117.32050807568878" fill="#1e3c72" fill-opacity="0.8" stroke="#001e54" stroke-width="6"/><path d="M100,120 Q123.49185139160595,163.00154553262826 100,190 Q76.50814860839405,163.00154553262826 100,120" fill="#2a5298" fill-opacity="0.8" stroke="#0c347a" stroke-width="6"/><path d="M90,117.32050807568876 Q88.84376732074543,166.30686460474107 54.999999999999986,177.94228634059945 Q48.154687146626294,142.8150132131351 90,117.32050807568876" fill="#3b82f6" fill-opacity="0.8" stroke="#1d64d8" stroke-width="6"/><path d="M82.67949192431124,110 Q57.18498678686491,151.8453128533737 22.05771365940054,145.00000000000003 Q33.69313539525895,111.15623267925459 82.67949192431124,110" fill="#60a5fa" fill-opacity="0.8" stroke="#4287dc" stroke-width="6"/><path d="M80,100 Q36.998454467371744,123.49185139160595 10,100.00000000000001 Q36.99845446737174,76.50814860839407 80,100" fill="#93c5fd" fill-opacity="0.8" stroke="#75a7df" stroke-width="6"/><path d="M82.67949192431124,90 Q33.69313539525895,88.84376732074543 22.057713659400534,54.99999999999999 Q57.1849867868649,48.1546871466263 82.67949192431124,90" fill="#1e3c72" fill-opacity="0.8" stroke="#001e54" stroke-width="6"/><path d="M89.99999999999999,82.67949192431124 Q48.15468714662628,57.18498678686491 54.99999999999996,22.057713659400548 Q88.8437673207454,33.69313539525895 89.99999999999999,82.67949192431124" fill="#2a5298" fill-opacity="0.8" stroke="#0c347a" stroke-width="6"/><circle cx="100" cy="100" r="18" fill="#1e3c72" stroke="#001e54" stroke-width="6"/></g></g></g><circle cx="115" cy="100" r="12" fill="#1e3c72" fill-opacity="0.8" stroke="#001e54" stroke-width="4"/><circle cx="107.5" cy="112.99038105676658" r="12" fill="#2a5298" fill-opacity="0.8" stroke="#0c347a" stroke-width="4"/><circle cx="92.5" cy="112.99038105676658" r="12" fill="#3b82f6" fill-opacity="0.8" stroke="#1d64d8" stroke-width="4"/><circle cx="85" cy="100" r="12" fill="#60a5fa" fill-opacity="0.8" stroke="#4287dc" stroke-width="4"/><circle cx="92.5" cy="87.00961894323342" r="12" fill="#93c5fd" fill-opacity="0.8" stroke="#75a7df" stroke-width="4"/><circle cx="107.5" cy="87.00961894323342" r="12" fill="#1e3c72" fill-opacity="0.8" stroke="#001e54" stroke-width="4"/><circle cx="100" cy="100" r="10" fill="#1e3c72" stroke="#00144a" stroke-width="8"/><path d="M20,30 Q30,30 30,20" fill="none" stroke="#1e3c72" stroke-width="7.8" stroke-linecap="round" stroke-opacity="1"/><ellipse cx="25" cy="25" rx="5" ry="3" transform="rotate(45, 25, 25)" fill="#1e3c72" fill-opacity="0.5"/><path d="M180,170 Q170,170 170,180" fill="none" stroke="#1e3c72" stroke-width="7.8" stroke-linecap="round" stroke-opacity="1"/><ellipse cx="175" cy="175" rx="5" ry="3" transform="rotate(45, 175, 175)" fill="#1e3c72" fill-opacity="0.5"/><path d="M170,20 Q170,30 180,30" fill="none" stroke="#2a5298" stroke-width="7.8" stroke-linecap="round" stroke-opacity="1"/><ellipse cx="175" cy="25" rx="5" ry="3" transform="rotate(-45, 175, 25)" fill="#2a5298" fill-opacity="0.5"/><path d="M30,180 Q30,170 20,170" fill="none" stroke="#2a5298" stroke-width="7.8" stroke-linecap="round" stroke-opacity="1"/><ellipse cx="25" cy="175" rx="5" ry="3" transform="rotate(-45, 25, 175)" fill="#2a5298" fill-opacity="0.5"/><rect x="5" y="5" width="190" height="190" fill="none" stroke="#287ff0" stroke-width="5" stroke-opacity="0.53"/><circle cx="5" cy="5" r="4" fill="none" stroke="#287ff0" stroke-width="2.5" stroke-opacity="0.53"/><circle cx="195" cy="5" r="4" fill="none" stroke="#287ff0" stroke-width="2.5" stroke-opacity="0.53"/><circle cx="195" cy="195" r="4" fill="none" stroke="#287ff0" stroke-width="2.5" stroke-opacity="0.53"/><circle cx="5" cy="195" r="4" fill="none" stroke="#287ff0" stroke-width="2.5" stroke-opacity="0.53"/></svg>