<svg xmlns="http://www.w3.org/2000/svg" width="200" height="200" viewBox="0 0 200 200"><defs></defs><rect width="200" height="200" fill="#ffffff"/><g class="pattern"><g class="symmetry-radial"><path d="M189,100 L189.46000665856064,111.87429702268152 L186.2222098604542,123.55139225577375 L179.35759942042878,133.61456549119634 L169.61522174371433,140.76185577879318 L158.28270098124216,144.13834466572672 L146.8966279494079,143.54359516172437 L136.89457664310115,139.45814496525594 L129.31287409112474,132.89159146946454 L124.61325201307234,125.10889066189341 L122.67588386092959,117.32411613907041 L122.94220656626096,110.45302926012343 L124.64631220753968,104.98871557358109 L127.05242889578383,101.01899594513492 L129.6235035700991,98.3565244204206 L132.0777330087157,96.71848956746936 L134.33373085494932,95.88321449099611 L136.38509583505154,95.76749102693168 L138.16771446430508,96.40393715856001 L139.48108071829984,97.83854563523879 L140,100 " fill="none" stroke="#1e3c72" stroke-width="12" stroke-linecap="round"/><path d="M100,189 L88.1257029773185,189.46000665856064 L76.44860774422625,186.2222098604542 L66.38543450880366,179.35759942042878 L59.23814422120682,169.61522174371433 L55.86165533427328,158.28270098124216 L56.456404838275645,146.8966279494079 L60.541855034744046,136.89457664310115 L67.10840853053546,129.31287409112474 L74.89110933810659,124.61325201307234 L82.67588386092959,122.67588386092959 L89.54697073987657,122.94220656626096 L95.01128442641891,124.64631220753968 L98.98100405486507,127.05242889578383 L101.6434755795794,129.6235035700991 L103.28151043253065,132.0777330087157 L104.11678550900389,134.33373085494932 L104.23250897306832,136.38509583505154 L103.59606284143999,138.16771446430508 L102.16145436476121,139.48108071829984 L100,140 " fill="none" stroke="#2a5298" stroke-width="12" stroke-linecap="round"/><path d="M11,100 L10.539993341439363,88.1257029773185 L13.7777901395458,76.44860774422625 L20.642400579571216,66.38543450880366 L30.384778256285667,59.23814422120682 L41.717299018757814,55.86165533427329 L53.10337205059209,56.456404838275645 L63.10542335689888,60.541855034744046 L70.68712590887527,67.10840853053546 L75.38674798692765,74.89110933810657 L77.32411613907041,82.67588386092959 L77.05779343373904,89.54697073987657 L75.35368779246032,95.01128442641891 L72.94757110421617,98.98100405486507 L70.3764964299009,101.6434755795794 L67.92226699128429,103.28151043253065 L65.66626914505068,104.11678550900389 L63.61490416494846,104.23250897306832 L61.83228553569492,103.59606284143997 L60.51891928170017,102.16145436476121 L60,100 " fill="none" stroke="#3b82f6" stroke-width="12" stroke-linecap="round"/><path d="M99.99999999999997,11 L111.87429702268146,10.539993341439356 L123.55139225577372,13.7777901395458 L133.61456549119634,20.64240057957123 L140.76185577879318,30.38477825628566 L144.1383446657267,41.71729901875781 L143.54359516172434,53.10337205059209 L139.45814496525594,63.105423356898875 L132.89159146946454,70.68712590887526 L125.10889066189341,75.38674798692765 L117.32411613907041,77.32411613907041 L110.45302926012342,77.05779343373904 L104.98871557358108,75.35368779246032 L101.01899594513492,72.94757110421617 L98.3565244204206,70.3764964299009 L96.71848956746933,67.92226699128429 L95.8832144909961,65.66626914505068 L95.76749102693167,63.61490416494846 L96.40393715856,61.832285535694915 L97.83854563523877,60.51891928170017 L99.99999999999999,60 " fill="none" stroke="#60a5fa" stroke-width="12" stroke-linecap="round"/><circle cx="100" cy="100" r="15" fill="#1e3c72" fill-opacity="0.8" stroke="#001e54" stroke-width="6"/><g transform="rotate(45, 100, 100)"><path d="M189,100 L189.46000665856064,111.87429702268152 L186.2222098604542,123.55139225577375 L179.35759942042878,133.61456549119634 L169.61522174371433,140.76185577879318 L158.28270098124216,144.13834466572672 L146.8966279494079,143.54359516172437 L136.89457664310115,139.45814496525594 L129.31287409112474,132.89159146946454 L124.61325201307234,125.10889066189341 L122.67588386092959,117.32411613907041 L122.94220656626096,110.45302926012343 L124.64631220753968,104.98871557358109 L127.05242889578383,101.01899594513492 L129.6235035700991,98.3565244204206 L132.0777330087157,96.71848956746936 L134.33373085494932,95.88321449099611 L136.38509583505154,95.76749102693168 L138.16771446430508,96.40393715856001 L139.48108071829984,97.83854563523879 L140,100 " fill="none" stroke="#1e3c72" stroke-width="12" stroke-linecap="round"/><path d="M100,189 L88.1257029773185,189.46000665856064 L76.44860774422625,186.2222098604542 L66.38543450880366,179.35759942042878 L59.23814422120682,169.61522174371433 L55.86165533427328,158.28270098124216 L56.456404838275645,146.8966279494079 L60.541855034744046,136.89457664310115 L67.10840853053546,129.31287409112474 L74.89110933810659,124.61325201307234 L82.67588386092959,122.67588386092959 L89.54697073987657,122.94220656626096 L95.01128442641891,124.64631220753968 L98.98100405486507,127.05242889578383 L101.6434755795794,129.6235035700991 L103.28151043253065,132.0777330087157 L104.11678550900389,134.33373085494932 L104.23250897306832,136.38509583505154 L103.59606284143999,138.16771446430508 L102.16145436476121,139.48108071829984 L100,140 " fill="none" stroke="#2a5298" stroke-width="12" stroke-linecap="round"/><path d="M11,100 L10.539993341439363,88.1257029773185 L13.7777901395458,76.44860774422625 L20.642400579571216,66.38543450880366 L30.384778256285667,59.23814422120682 L41.717299018757814,55.86165533427329 L53.10337205059209,56.456404838275645 L63.10542335689888,60.541855034744046 L70.68712590887527,67.10840853053546 L75.38674798692765,74.89110933810657 L77.32411613907041,82.67588386092959 L77.05779343373904,89.54697073987657 L75.35368779246032,95.01128442641891 L72.94757110421617,98.98100405486507 L70.3764964299009,101.6434755795794 L67.92226699128429,103.28151043253065 L65.66626914505068,104.11678550900389 L63.61490416494846,104.23250897306832 L61.83228553569492,103.59606284143997 L60.51891928170017,102.16145436476121 L60,100 " fill="none" stroke="#3b82f6" stroke-width="12" stroke-linecap="round"/><path d="M99.99999999999997,11 L111.87429702268146,10.539993341439356 L123.55139225577372,13.7777901395458 L133.61456549119634,20.64240057957123 L140.76185577879318,30.38477825628566 L144.1383446657267,41.71729901875781 L143.54359516172434,53.10337205059209 L139.45814496525594,63.105423356898875 L132.89159146946454,70.68712590887526 L125.10889066189341,75.38674798692765 L117.32411613907041,77.32411613907041 L110.45302926012342,77.05779343373904 L104.98871557358108,75.35368779246032 L101.01899594513492,72.94757110421617 L98.3565244204206,70.3764964299009 L96.71848956746933,67.92226699128429 L95.8832144909961,65.66626914505068 L95.76749102693167,63.61490416494846 L96.40393715856,61.832285535694915 L97.83854563523877,60.51891928170017 L99.99999999999999,60 " fill="none" stroke="#60a5fa" stroke-width="12" stroke-linecap="round"/><circle cx="100" cy="100" r="15" fill="#1e3c72" fill-opacity="0.8" stroke="#001e54" stroke-width="6"/></g><g transform="rotate(90, 100, 100)"><path d="M189,100 L189.46000665856064,111.87429702268152 L186.2222098604542,123.55139225577375 L179.35759942042878,133.61456549119634 L169.61522174371433,140.76185577879318 L158.28270098124216,144.13834466572672 L146.8966279494079,143.54359516172437 L136.89457664310115,139.45814496525594 L129.31287409112474,132.89159146946454 L124.61325201307234,125.10889066189341 L122.67588386092959,117.32411613907041 L122.94220656626096,110.45302926012343 L124.64631220753968,104.98871557358109 L127.05242889578383,101.01899594513492 L129.6235035700991,98.3565244204206 L132.0777330087157,96.71848956746936 L134.33373085494932,95.88321449099611 L136.38509583505154,95.76749102693168 L138.16771446430508,96.40393715856001 L139.48108071829984,97.83854563523879 L140,100 " fill="none" stroke="#1e3c72" stroke-width="12" stroke-linecap="round"/><path d="M100,189 L88.1257029773185,189.46000665856064 L76.44860774422625,186.2222098604542 L66.38543450880366,179.35759942042878 L59.23814422120682,169.61522174371433 L55.86165533427328,158.28270098124216 L56.456404838275645,146.8966279494079 L60.541855034744046,136.89457664310115 L67.10840853053546,129.31287409112474 L74.89110933810659,124.61325201307234 L82.67588386092959,122.67588386092959 L89.54697073987657,122.94220656626096 L95.01128442641891,124.64631220753968 L98.98100405486507,127.05242889578383 L101.6434755795794,129.6235035700991 L103.28151043253065,132.0777330087157 L104.11678550900389,134.33373085494932 L104.23250897306832,136.38509583505154 L103.59606284143999,138.16771446430508 L102.16145436476121,139.48108071829984 L100,140 " fill="none" stroke="#2a5298" stroke-width="12" stroke-linecap="round"/><path d="M11,100 L10.539993341439363,88.1257029773185 L13.7777901395458,76.44860774422625 L20.642400579571216,66.38543450880366 L30.384778256285667,59.23814422120682 L41.717299018757814,55.86165533427329 L53.10337205059209,56.456404838275645 L63.10542335689888,60.541855034744046 L70.68712590887527,67.10840853053546 L75.38674798692765,74.89110933810657 L77.32411613907041,82.67588386092959 L77.05779343373904,89.54697073987657 L75.35368779246032,95.01128442641891 L72.94757110421617,98.98100405486507 L70.3764964299009,101.6434755795794 L67.92226699128429,103.28151043253065 L65.66626914505068,104.11678550900389 L63.61490416494846,104.23250897306832 L61.83228553569492,103.59606284143997 L60.51891928170017,102.16145436476121 L60,100 " fill="none" stroke="#3b82f6" stroke-width="12" stroke-linecap="round"/><path d="M99.99999999999997,11 L111.87429702268146,10.539993341439356 L123.55139225577372,13.7777901395458 L133.61456549119634,20.64240057957123 L140.76185577879318,30.38477825628566 L144.1383446657267,41.71729901875781 L143.54359516172434,53.10337205059209 L139.45814496525594,63.105423356898875 L132.89159146946454,70.68712590887526 L125.10889066189341,75.38674798692765 L117.32411613907041,77.32411613907041 L110.45302926012342,77.05779343373904 L104.98871557358108,75.35368779246032 L101.01899594513492,72.94757110421617 L98.3565244204206,70.3764964299009 L96.71848956746933,67.92226699128429 L95.8832144909961,65.66626914505068 L95.76749102693167,63.61490416494846 L96.40393715856,61.832285535694915 L97.83854563523877,60.51891928170017 L99.99999999999999,60 " fill="none" stroke="#60a5fa" stroke-width="12" stroke-linecap="round"/><circle cx="100" cy="100" r="15" fill="#1e3c72" fill-opacity="0.8" stroke="#001e54" stroke-width="6"/></g><g transform="rotate(135, 100, 100)"><path d="M189,100 L189.46000665856064,111.87429702268152 L186.2222098604542,123.55139225577375 L179.35759942042878,133.61456549119634 L169.61522174371433,140.76185577879318 L158.28270098124216,144.13834466572672 L146.8966279494079,143.54359516172437 L136.89457664310115,139.45814496525594 L129.31287409112474,132.89159146946454 L124.61325201307234,125.10889066189341 L122.67588386092959,117.32411613907041 L122.94220656626096,110.45302926012343 L124.64631220753968,104.98871557358109 L127.05242889578383,101.01899594513492 L129.6235035700991,98.3565244204206 L132.0777330087157,96.71848956746936 L134.33373085494932,95.88321449099611 L136.38509583505154,95.76749102693168 L138.16771446430508,96.40393715856001 L139.48108071829984,97.83854563523879 L140,100 " fill="none" stroke="#1e3c72" stroke-width="12" stroke-linecap="round"/><path d="M100,189 L88.1257029773185,189.46000665856064 L76.44860774422625,186.2222098604542 L66.38543450880366,179.35759942042878 L59.23814422120682,169.61522174371433 L55.86165533427328,158.28270098124216 L56.456404838275645,146.8966279494079 L60.541855034744046,136.89457664310115 L67.10840853053546,129.31287409112474 L74.89110933810659,124.61325201307234 L82.67588386092959,122.67588386092959 L89.54697073987657,122.94220656626096 L95.01128442641891,124.64631220753968 L98.98100405486507,127.05242889578383 L101.6434755795794,129.6235035700991 L103.28151043253065,132.0777330087157 L104.11678550900389,134.33373085494932 L104.23250897306832,136.38509583505154 L103.59606284143999,138.16771446430508 L102.16145436476121,139.48108071829984 L100,140 " fill="none" stroke="#2a5298" stroke-width="12" stroke-linecap="round"/><path d="M11,100 L10.539993341439363,88.1257029773185 L13.7777901395458,76.44860774422625 L20.642400579571216,66.38543450880366 L30.384778256285667,59.23814422120682 L41.717299018757814,55.86165533427329 L53.10337205059209,56.456404838275645 L63.10542335689888,60.541855034744046 L70.68712590887527,67.10840853053546 L75.38674798692765,74.89110933810657 L77.32411613907041,82.67588386092959 L77.05779343373904,89.54697073987657 L75.35368779246032,95.01128442641891 L72.94757110421617,98.98100405486507 L70.3764964299009,101.6434755795794 L67.92226699128429,103.28151043253065 L65.66626914505068,104.11678550900389 L63.61490416494846,104.23250897306832 L61.83228553569492,103.59606284143997 L60.51891928170017,102.16145436476121 L60,100 " fill="none" stroke="#3b82f6" stroke-width="12" stroke-linecap="round"/><path d="M99.99999999999997,11 L111.87429702268146,10.539993341439356 L123.55139225577372,13.7777901395458 L133.61456549119634,20.64240057957123 L140.76185577879318,30.38477825628566 L144.1383446657267,41.71729901875781 L143.54359516172434,53.10337205059209 L139.45814496525594,63.105423356898875 L132.89159146946454,70.68712590887526 L125.10889066189341,75.38674798692765 L117.32411613907041,77.32411613907041 L110.45302926012342,77.05779343373904 L104.98871557358108,75.35368779246032 L101.01899594513492,72.94757110421617 L98.3565244204206,70.3764964299009 L96.71848956746933,67.92226699128429 L95.8832144909961,65.66626914505068 L95.76749102693167,63.61490416494846 L96.40393715856,61.832285535694915 L97.83854563523877,60.51891928170017 L99.99999999999999,60 " fill="none" stroke="#60a5fa" stroke-width="12" stroke-linecap="round"/><circle cx="100" cy="100" r="15" fill="#1e3c72" fill-opacity="0.8" stroke="#001e54" stroke-width="6"/></g><g transform="rotate(180, 100, 100)"><path d="M189,100 L189.46000665856064,111.87429702268152 L186.2222098604542,123.55139225577375 L179.35759942042878,133.61456549119634 L169.61522174371433,140.76185577879318 L158.28270098124216,144.13834466572672 L146.8966279494079,143.54359516172437 L136.89457664310115,139.45814496525594 L129.31287409112474,132.89159146946454 L124.61325201307234,125.10889066189341 L122.67588386092959,117.32411613907041 L122.94220656626096,110.45302926012343 L124.64631220753968,104.98871557358109 L127.05242889578383,101.01899594513492 L129.6235035700991,98.3565244204206 L132.0777330087157,96.71848956746936 L134.33373085494932,95.88321449099611 L136.38509583505154,95.76749102693168 L138.16771446430508,96.40393715856001 L139.48108071829984,97.83854563523879 L140,100 " fill="none" stroke="#1e3c72" stroke-width="12" stroke-linecap="round"/><path d="M100,189 L88.1257029773185,189.46000665856064 L76.44860774422625,186.2222098604542 L66.38543450880366,179.35759942042878 L59.23814422120682,169.61522174371433 L55.86165533427328,158.28270098124216 L56.456404838275645,146.8966279494079 L60.541855034744046,136.89457664310115 L67.10840853053546,129.31287409112474 L74.89110933810659,124.61325201307234 L82.67588386092959,122.67588386092959 L89.54697073987657,122.94220656626096 L95.01128442641891,124.64631220753968 L98.98100405486507,127.05242889578383 L101.6434755795794,129.6235035700991 L103.28151043253065,132.0777330087157 L104.11678550900389,134.33373085494932 L104.23250897306832,136.38509583505154 L103.59606284143999,138.16771446430508 L102.16145436476121,139.48108071829984 L100,140 " fill="none" stroke="#2a5298" stroke-width="12" stroke-linecap="round"/><path d="M11,100 L10.539993341439363,88.1257029773185 L13.7777901395458,76.44860774422625 L20.642400579571216,66.38543450880366 L30.384778256285667,59.23814422120682 L41.717299018757814,55.86165533427329 L53.10337205059209,56.456404838275645 L63.10542335689888,60.541855034744046 L70.68712590887527,67.10840853053546 L75.38674798692765,74.89110933810657 L77.32411613907041,82.67588386092959 L77.05779343373904,89.54697073987657 L75.35368779246032,95.01128442641891 L72.94757110421617,98.98100405486507 L70.3764964299009,101.6434755795794 L67.92226699128429,103.28151043253065 L65.66626914505068,104.11678550900389 L63.61490416494846,104.23250897306832 L61.83228553569492,103.59606284143997 L60.51891928170017,102.16145436476121 L60,100 " fill="none" stroke="#3b82f6" stroke-width="12" stroke-linecap="round"/><path d="M99.99999999999997,11 L111.87429702268146,10.539993341439356 L123.55139225577372,13.7777901395458 L133.61456549119634,20.64240057957123 L140.76185577879318,30.38477825628566 L144.1383446657267,41.71729901875781 L143.54359516172434,53.10337205059209 L139.45814496525594,63.105423356898875 L132.89159146946454,70.68712590887526 L125.10889066189341,75.38674798692765 L117.32411613907041,77.32411613907041 L110.45302926012342,77.05779343373904 L104.98871557358108,75.35368779246032 L101.01899594513492,72.94757110421617 L98.3565244204206,70.3764964299009 L96.71848956746933,67.92226699128429 L95.8832144909961,65.66626914505068 L95.76749102693167,63.61490416494846 L96.40393715856,61.832285535694915 L97.83854563523877,60.51891928170017 L99.99999999999999,60 " fill="none" stroke="#60a5fa" stroke-width="12" stroke-linecap="round"/><circle cx="100" cy="100" r="15" fill="#1e3c72" fill-opacity="0.8" stroke="#001e54" stroke-width="6"/></g><g transform="rotate(225, 100, 100)"><path d="M189,100 L189.46000665856064,111.87429702268152 L186.2222098604542,123.55139225577375 L179.35759942042878,133.61456549119634 L169.61522174371433,140.76185577879318 L158.28270098124216,144.13834466572672 L146.8966279494079,143.54359516172437 L136.89457664310115,139.45814496525594 L129.31287409112474,132.89159146946454 L124.61325201307234,125.10889066189341 L122.67588386092959,117.32411613907041 L122.94220656626096,110.45302926012343 L124.64631220753968,104.98871557358109 L127.05242889578383,101.01899594513492 L129.6235035700991,98.3565244204206 L132.0777330087157,96.71848956746936 L134.33373085494932,95.88321449099611 L136.38509583505154,95.76749102693168 L138.16771446430508,96.40393715856001 L139.48108071829984,97.83854563523879 L140,100 " fill="none" stroke="#1e3c72" stroke-width="12" stroke-linecap="round"/><path d="M100,189 L88.1257029773185,189.46000665856064 L76.44860774422625,186.2222098604542 L66.38543450880366,179.35759942042878 L59.23814422120682,169.61522174371433 L55.86165533427328,158.28270098124216 L56.456404838275645,146.8966279494079 L60.541855034744046,136.89457664310115 L67.10840853053546,129.31287409112474 L74.89110933810659,124.61325201307234 L82.67588386092959,122.67588386092959 L89.54697073987657,122.94220656626096 L95.01128442641891,124.64631220753968 L98.98100405486507,127.05242889578383 L101.6434755795794,129.6235035700991 L103.28151043253065,132.0777330087157 L104.11678550900389,134.33373085494932 L104.23250897306832,136.38509583505154 L103.59606284143999,138.16771446430508 L102.16145436476121,139.48108071829984 L100,140 " fill="none" stroke="#2a5298" stroke-width="12" stroke-linecap="round"/><path d="M11,100 L10.539993341439363,88.1257029773185 L13.7777901395458,76.44860774422625 L20.642400579571216,66.38543450880366 L30.384778256285667,59.23814422120682 L41.717299018757814,55.86165533427329 L53.10337205059209,56.456404838275645 L63.10542335689888,60.541855034744046 L70.68712590887527,67.10840853053546 L75.38674798692765,74.89110933810657 L77.32411613907041,82.67588386092959 L77.05779343373904,89.54697073987657 L75.35368779246032,95.01128442641891 L72.94757110421617,98.98100405486507 L70.3764964299009,101.6434755795794 L67.92226699128429,103.28151043253065 L65.66626914505068,104.11678550900389 L63.61490416494846,104.23250897306832 L61.83228553569492,103.59606284143997 L60.51891928170017,102.16145436476121 L60,100 " fill="none" stroke="#3b82f6" stroke-width="12" stroke-linecap="round"/><path d="M99.99999999999997,11 L111.87429702268146,10.539993341439356 L123.55139225577372,13.7777901395458 L133.61456549119634,20.64240057957123 L140.76185577879318,30.38477825628566 L144.1383446657267,41.71729901875781 L143.54359516172434,53.10337205059209 L139.45814496525594,63.105423356898875 L132.89159146946454,70.68712590887526 L125.10889066189341,75.38674798692765 L117.32411613907041,77.32411613907041 L110.45302926012342,77.05779343373904 L104.98871557358108,75.35368779246032 L101.01899594513492,72.94757110421617 L98.3565244204206,70.3764964299009 L96.71848956746933,67.92226699128429 L95.8832144909961,65.66626914505068 L95.76749102693167,63.61490416494846 L96.40393715856,61.832285535694915 L97.83854563523877,60.51891928170017 L99.99999999999999,60 " fill="none" stroke="#60a5fa" stroke-width="12" stroke-linecap="round"/><circle cx="100" cy="100" r="15" fill="#1e3c72" fill-opacity="0.8" stroke="#001e54" stroke-width="6"/></g><g transform="rotate(270, 100, 100)"><path d="M189,100 L189.46000665856064,111.87429702268152 L186.2222098604542,123.55139225577375 L179.35759942042878,133.61456549119634 L169.61522174371433,140.76185577879318 L158.28270098124216,144.13834466572672 L146.8966279494079,143.54359516172437 L136.89457664310115,139.45814496525594 L129.31287409112474,132.89159146946454 L124.61325201307234,125.10889066189341 L122.67588386092959,117.32411613907041 L122.94220656626096,110.45302926012343 L124.64631220753968,104.98871557358109 L127.05242889578383,101.01899594513492 L129.6235035700991,98.3565244204206 L132.0777330087157,96.71848956746936 L134.33373085494932,95.88321449099611 L136.38509583505154,95.76749102693168 L138.16771446430508,96.40393715856001 L139.48108071829984,97.83854563523879 L140,100 " fill="none" stroke="#1e3c72" stroke-width="12" stroke-linecap="round"/><path d="M100,189 L88.1257029773185,189.46000665856064 L76.44860774422625,186.2222098604542 L66.38543450880366,179.35759942042878 L59.23814422120682,169.61522174371433 L55.86165533427328,158.28270098124216 L56.456404838275645,146.8966279494079 L60.541855034744046,136.89457664310115 L67.10840853053546,129.31287409112474 L74.89110933810659,124.61325201307234 L82.67588386092959,122.67588386092959 L89.54697073987657,122.94220656626096 L95.01128442641891,124.64631220753968 L98.98100405486507,127.05242889578383 L101.6434755795794,129.6235035700991 L103.28151043253065,132.0777330087157 L104.11678550900389,134.33373085494932 L104.23250897306832,136.38509583505154 L103.59606284143999,138.16771446430508 L102.16145436476121,139.48108071829984 L100,140 " fill="none" stroke="#2a5298" stroke-width="12" stroke-linecap="round"/><path d="M11,100 L10.539993341439363,88.1257029773185 L13.7777901395458,76.44860774422625 L20.642400579571216,66.38543450880366 L30.384778256285667,59.23814422120682 L41.717299018757814,55.86165533427329 L53.10337205059209,56.456404838275645 L63.10542335689888,60.541855034744046 L70.68712590887527,67.10840853053546 L75.38674798692765,74.89110933810657 L77.32411613907041,82.67588386092959 L77.05779343373904,89.54697073987657 L75.35368779246032,95.01128442641891 L72.94757110421617,98.98100405486507 L70.3764964299009,101.6434755795794 L67.92226699128429,103.28151043253065 L65.66626914505068,104.11678550900389 L63.61490416494846,104.23250897306832 L61.83228553569492,103.59606284143997 L60.51891928170017,102.16145436476121 L60,100 " fill="none" stroke="#3b82f6" stroke-width="12" stroke-linecap="round"/><path d="M99.99999999999997,11 L111.87429702268146,10.539993341439356 L123.55139225577372,13.7777901395458 L133.61456549119634,20.64240057957123 L140.76185577879318,30.38477825628566 L144.1383446657267,41.71729901875781 L143.54359516172434,53.10337205059209 L139.45814496525594,63.105423356898875 L132.89159146946454,70.68712590887526 L125.10889066189341,75.38674798692765 L117.32411613907041,77.32411613907041 L110.45302926012342,77.05779343373904 L104.98871557358108,75.35368779246032 L101.01899594513492,72.94757110421617 L98.3565244204206,70.3764964299009 L96.71848956746933,67.92226699128429 L95.8832144909961,65.66626914505068 L95.76749102693167,63.61490416494846 L96.40393715856,61.832285535694915 L97.83854563523877,60.51891928170017 L99.99999999999999,60 " fill="none" stroke="#60a5fa" stroke-width="12" stroke-linecap="round"/><circle cx="100" cy="100" r="15" fill="#1e3c72" fill-opacity="0.8" stroke="#001e54" stroke-width="6"/></g><g transform="rotate(315, 100, 100)"><path d="M189,100 L189.46000665856064,111.87429702268152 L186.2222098604542,123.55139225577375 L179.35759942042878,133.61456549119634 L169.61522174371433,140.76185577879318 L158.28270098124216,144.13834466572672 L146.8966279494079,143.54359516172437 L136.89457664310115,139.45814496525594 L129.31287409112474,132.89159146946454 L124.61325201307234,125.10889066189341 L122.67588386092959,117.32411613907041 L122.94220656626096,110.45302926012343 L124.64631220753968,104.98871557358109 L127.05242889578383,101.01899594513492 L129.6235035700991,98.3565244204206 L132.0777330087157,96.71848956746936 L134.33373085494932,95.88321449099611 L136.38509583505154,95.76749102693168 L138.16771446430508,96.40393715856001 L139.48108071829984,97.83854563523879 L140,100 " fill="none" stroke="#1e3c72" stroke-width="12" stroke-linecap="round"/><path d="M100,189 L88.1257029773185,189.46000665856064 L76.44860774422625,186.2222098604542 L66.38543450880366,179.35759942042878 L59.23814422120682,169.61522174371433 L55.86165533427328,158.28270098124216 L56.456404838275645,146.8966279494079 L60.541855034744046,136.89457664310115 L67.10840853053546,129.31287409112474 L74.89110933810659,124.61325201307234 L82.67588386092959,122.67588386092959 L89.54697073987657,122.94220656626096 L95.01128442641891,124.64631220753968 L98.98100405486507,127.05242889578383 L101.6434755795794,129.6235035700991 L103.28151043253065,132.0777330087157 L104.11678550900389,134.33373085494932 L104.23250897306832,136.38509583505154 L103.59606284143999,138.16771446430508 L102.16145436476121,139.48108071829984 L100,140 " fill="none" stroke="#2a5298" stroke-width="12" stroke-linecap="round"/><path d="M11,100 L10.539993341439363,88.1257029773185 L13.7777901395458,76.44860774422625 L20.642400579571216,66.38543450880366 L30.384778256285667,59.23814422120682 L41.717299018757814,55.86165533427329 L53.10337205059209,56.456404838275645 L63.10542335689888,60.541855034744046 L70.68712590887527,67.10840853053546 L75.38674798692765,74.89110933810657 L77.32411613907041,82.67588386092959 L77.05779343373904,89.54697073987657 L75.35368779246032,95.01128442641891 L72.94757110421617,98.98100405486507 L70.3764964299009,101.6434755795794 L67.92226699128429,103.28151043253065 L65.66626914505068,104.11678550900389 L63.61490416494846,104.23250897306832 L61.83228553569492,103.59606284143997 L60.51891928170017,102.16145436476121 L60,100 " fill="none" stroke="#3b82f6" stroke-width="12" stroke-linecap="round"/><path d="M99.99999999999997,11 L111.87429702268146,10.539993341439356 L123.55139225577372,13.7777901395458 L133.61456549119634,20.64240057957123 L140.76185577879318,30.38477825628566 L144.1383446657267,41.71729901875781 L143.54359516172434,53.10337205059209 L139.45814496525594,63.105423356898875 L132.89159146946454,70.68712590887526 L125.10889066189341,75.38674798692765 L117.32411613907041,77.32411613907041 L110.45302926012342,77.05779343373904 L104.98871557358108,75.35368779246032 L101.01899594513492,72.94757110421617 L98.3565244204206,70.3764964299009 L96.71848956746933,67.92226699128429 L95.8832144909961,65.66626914505068 L95.76749102693167,63.61490416494846 L96.40393715856,61.832285535694915 L97.83854563523877,60.51891928170017 L99.99999999999999,60 " fill="none" stroke="#60a5fa" stroke-width="12" stroke-linecap="round"/><circle cx="100" cy="100" r="15" fill="#1e3c72" fill-opacity="0.8" stroke="#001e54" stroke-width="6"/></g></g></g><circle cx="115" cy="100" r="12" fill="#1e3c72" fill-opacity="0.8" stroke="#001e54" stroke-width="4"/><circle cx="107.5" cy="112.99038105676658" r="12" fill="#2a5298" fill-opacity="0.8" stroke="#0c347a" stroke-width="4"/><circle cx="92.5" cy="112.99038105676658" r="12" fill="#3b82f6" fill-opacity="0.8" stroke="#1d64d8" stroke-width="4"/><circle cx="85" cy="100" r="12" fill="#60a5fa" fill-opacity="0.8" stroke="#4287dc" stroke-width="4"/><circle cx="92.5" cy="87.00961894323342" r="12" fill="#93c5fd" fill-opacity="0.8" stroke="#75a7df" stroke-width="4"/><circle cx="107.5" cy="87.00961894323342" r="12" fill="#1e3c72" fill-opacity="0.8" stroke="#001e54" stroke-width="4"/><circle cx="100" cy="100" r="10" fill="#1e3c72" stroke="#00144a" stroke-width="8"/><path d="M8,15 A7,7 0 0,1 15,8" fill="none" stroke="#1e3c72" stroke-width="6.5" stroke-linecap="round" stroke-opacity="1"/><path d="M192,185 A7,7 0 0,1 185,192" fill="none" stroke="#1e3c72" stroke-width="6.5" stroke-linecap="round" stroke-opacity="1"/><path d="M1,15 A14,14 0 0,1 15,1" fill="none" stroke="#1e3c72" stroke-width="6.5" stroke-linecap="round" stroke-opacity="1"/><path d="M199,185 A14,14 0 0,1 185,199" fill="none" stroke="#1e3c72" stroke-width="6.5" stroke-linecap="round" stroke-opacity="1"/><path d="M185,9 A6,6 0 0,1 191,15" fill="none" stroke="#2a5298" stroke-width="5.2" stroke-linecap="round" stroke-opacity="1"/><path d="M15,191 A6,6 0 0,1 9,185" fill="none" stroke="#2a5298" stroke-width="5.2" stroke-linecap="round" stroke-opacity="1"/><path d="M185,3 A12,12 0 0,1 197,15" fill="none" stroke="#2a5298" stroke-width="5.2" stroke-linecap="round" stroke-opacity="1"/><path d="M15,197 A12,12 0 0,1 3,185" fill="none" stroke="#2a5298" stroke-width="5.2" stroke-linecap="round" stroke-opacity="1"/><rect x="5" y="5" width="190" height="190" fill="none" stroke="#287ff0" stroke-width="5" stroke-opacity="0.53"/><circle cx="5" cy="5" r="4" fill="none" stroke="#287ff0" stroke-width="2.5" stroke-opacity="0.53"/><circle cx="195" cy="5" r="4" fill="none" stroke="#287ff0" stroke-width="2.5" stroke-opacity="0.53"/><circle cx="195" cy="195" r="4" fill="none" stroke="#287ff0" stroke-width="2.5" stroke-opacity="0.53"/><circle cx="5" cy="195" r="4" fill="none" stroke="#287ff0" stroke-width="2.5" stroke-opacity="0.53"/></svg>