<svg xmlns="http://www.w3.org/2000/svg" width="200" height="200" viewBox="0 0 200 200"><defs></defs><rect width="200" height="200" fill="#ffffff"/><g class="pattern"><g class="symmetry-radial"><line x1="-200" y1="15" x2="0" y2="185" stroke="#cd853f" stroke-width="15.454545454545455" stroke-linecap="square"/><line x1="-175" y1="15" x2="25" y2="185" stroke="#deb887" stroke-width="15.454545454545455" stroke-linecap="square"/><line x1="-150" y1="15" x2="50" y2="185" stroke="#d2691e" stroke-width="15.454545454545455" stroke-linecap="square"/><line x1="-125" y1="15" x2="75" y2="185" stroke="#8b4513" stroke-width="15.454545454545455" stroke-linecap="square"/><line x1="-100" y1="15" x2="100" y2="185" stroke="#f5deb3" stroke-width="15.454545454545455" stroke-linecap="square"/><line x1="-75" y1="15" x2="125" y2="185" stroke="#cd853f" stroke-width="15.454545454545455" stroke-linecap="square"/><line x1="-50" y1="15" x2="150" y2="185" stroke="#deb887" stroke-width="15.454545454545455" stroke-linecap="square"/><line x1="-25" y1="15" x2="175" y2="185" stroke="#d2691e" stroke-width="15.454545454545455" stroke-linecap="square"/><line x1="0" y1="15" x2="200" y2="185" stroke="#8b4513" stroke-width="15.454545454545455" stroke-linecap="square"/><line x1="25" y1="15" x2="225" y2="185" stroke="#d2691e" stroke-width="15.454545454545455" stroke-linecap="square"/><line x1="50" y1="15" x2="250" y2="185" stroke="#deb887" stroke-width="15.454545454545455" stroke-linecap="square"/><line x1="75" y1="15" x2="275" y2="185" stroke="#cd853f" stroke-width="15.454545454545455" stroke-linecap="square"/><line x1="100" y1="15" x2="300" y2="185" stroke="#f5deb3" stroke-width="15.454545454545455" stroke-linecap="square"/><line x1="125" y1="15" x2="325" y2="185" stroke="#8b4513" stroke-width="15.454545454545455" stroke-linecap="square"/><line x1="150" y1="15" x2="350" y2="185" stroke="#d2691e" stroke-width="15.454545454545455" stroke-linecap="square"/><line x1="175" y1="15" x2="375" y2="185" stroke="#deb887" stroke-width="15.454545454545455" stroke-linecap="square"/><line x1="200" y1="15" x2="400" y2="185" stroke="#cd853f" stroke-width="15.454545454545455" stroke-linecap="square"/><line x1="225" y1="15" x2="425" y2="185" stroke="#f5deb3" stroke-width="15.454545454545455" stroke-linecap="square"/><line x1="250" y1="15" x2="450" y2="185" stroke="#8b4513" stroke-width="15.454545454545455" stroke-linecap="square"/><line x1="275" y1="15" x2="475" y2="185" stroke="#d2691e" stroke-width="15.454545454545455" stroke-linecap="square"/><line x1="300" y1="15" x2="500" y2="185" stroke="#deb887" stroke-width="15.454545454545455" stroke-linecap="square"/><line x1="325" y1="15" x2="525" y2="185" stroke="#cd853f" stroke-width="15.454545454545455" stroke-linecap="square"/><line x1="350" y1="15" x2="550" y2="185" stroke="#f5deb3" stroke-width="15.454545454545455" stroke-linecap="square"/><line x1="375" y1="15" x2="575" y2="185" stroke="#8b4513" stroke-width="15.454545454545455" stroke-linecap="square"/><g transform="rotate(45, 100, 100)"><line x1="-200" y1="15" x2="0" y2="185" stroke="#cd853f" stroke-width="15.454545454545455" stroke-linecap="square"/><line x1="-175" y1="15" x2="25" y2="185" stroke="#deb887" stroke-width="15.454545454545455" stroke-linecap="square"/><line x1="-150" y1="15" x2="50" y2="185" stroke="#d2691e" stroke-width="15.454545454545455" stroke-linecap="square"/><line x1="-125" y1="15" x2="75" y2="185" stroke="#8b4513" stroke-width="15.454545454545455" stroke-linecap="square"/><line x1="-100" y1="15" x2="100" y2="185" stroke="#f5deb3" stroke-width="15.454545454545455" stroke-linecap="square"/><line x1="-75" y1="15" x2="125" y2="185" stroke="#cd853f" stroke-width="15.454545454545455" stroke-linecap="square"/><line x1="-50" y1="15" x2="150" y2="185" stroke="#deb887" stroke-width="15.454545454545455" stroke-linecap="square"/><line x1="-25" y1="15" x2="175" y2="185" stroke="#d2691e" stroke-width="15.454545454545455" stroke-linecap="square"/><line x1="0" y1="15" x2="200" y2="185" stroke="#8b4513" stroke-width="15.454545454545455" stroke-linecap="square"/><line x1="25" y1="15" x2="225" y2="185" stroke="#d2691e" stroke-width="15.454545454545455" stroke-linecap="square"/><line x1="50" y1="15" x2="250" y2="185" stroke="#deb887" stroke-width="15.454545454545455" stroke-linecap="square"/><line x1="75" y1="15" x2="275" y2="185" stroke="#cd853f" stroke-width="15.454545454545455" stroke-linecap="square"/><line x1="100" y1="15" x2="300" y2="185" stroke="#f5deb3" stroke-width="15.454545454545455" stroke-linecap="square"/><line x1="125" y1="15" x2="325" y2="185" stroke="#8b4513" stroke-width="15.454545454545455" stroke-linecap="square"/><line x1="150" y1="15" x2="350" y2="185" stroke="#d2691e" stroke-width="15.454545454545455" stroke-linecap="square"/><line x1="175" y1="15" x2="375" y2="185" stroke="#deb887" stroke-width="15.454545454545455" stroke-linecap="square"/><line x1="200" y1="15" x2="400" y2="185" stroke="#cd853f" stroke-width="15.454545454545455" stroke-linecap="square"/><line x1="225" y1="15" x2="425" y2="185" stroke="#f5deb3" stroke-width="15.454545454545455" stroke-linecap="square"/><line x1="250" y1="15" x2="450" y2="185" stroke="#8b4513" stroke-width="15.454545454545455" stroke-linecap="square"/><line x1="275" y1="15" x2="475" y2="185" stroke="#d2691e" stroke-width="15.454545454545455" stroke-linecap="square"/><line x1="300" y1="15" x2="500" y2="185" stroke="#deb887" stroke-width="15.454545454545455" stroke-linecap="square"/><line x1="325" y1="15" x2="525" y2="185" stroke="#cd853f" stroke-width="15.454545454545455" stroke-linecap="square"/><line x1="350" y1="15" x2="550" y2="185" stroke="#f5deb3" stroke-width="15.454545454545455" stroke-linecap="square"/><line x1="375" y1="15" x2="575" y2="185" stroke="#8b4513" stroke-width="15.454545454545455" stroke-linecap="square"/></g><g transform="rotate(90, 100, 100)"><line x1="-200" y1="15" x2="0" y2="185" stroke="#cd853f" stroke-width="15.454545454545455" stroke-linecap="square"/><line x1="-175" y1="15" x2="25" y2="185" stroke="#deb887" stroke-width="15.454545454545455" stroke-linecap="square"/><line x1="-150" y1="15" x2="50" y2="185" stroke="#d2691e" stroke-width="15.454545454545455" stroke-linecap="square"/><line x1="-125" y1="15" x2="75" y2="185" stroke="#8b4513" stroke-width="15.454545454545455" stroke-linecap="square"/><line x1="-100" y1="15" x2="100" y2="185" stroke="#f5deb3" stroke-width="15.454545454545455" stroke-linecap="square"/><line x1="-75" y1="15" x2="125" y2="185" stroke="#cd853f" stroke-width="15.454545454545455" stroke-linecap="square"/><line x1="-50" y1="15" x2="150" y2="185" stroke="#deb887" stroke-width="15.454545454545455" stroke-linecap="square"/><line x1="-25" y1="15" x2="175" y2="185" stroke="#d2691e" stroke-width="15.454545454545455" stroke-linecap="square"/><line x1="0" y1="15" x2="200" y2="185" stroke="#8b4513" stroke-width="15.454545454545455" stroke-linecap="square"/><line x1="25" y1="15" x2="225" y2="185" stroke="#d2691e" stroke-width="15.454545454545455" stroke-linecap="square"/><line x1="50" y1="15" x2="250" y2="185" stroke="#deb887" stroke-width="15.454545454545455" stroke-linecap="square"/><line x1="75" y1="15" x2="275" y2="185" stroke="#cd853f" stroke-width="15.454545454545455" stroke-linecap="square"/><line x1="100" y1="15" x2="300" y2="185" stroke="#f5deb3" stroke-width="15.454545454545455" stroke-linecap="square"/><line x1="125" y1="15" x2="325" y2="185" stroke="#8b4513" stroke-width="15.454545454545455" stroke-linecap="square"/><line x1="150" y1="15" x2="350" y2="185" stroke="#d2691e" stroke-width="15.454545454545455" stroke-linecap="square"/><line x1="175" y1="15" x2="375" y2="185" stroke="#deb887" stroke-width="15.454545454545455" stroke-linecap="square"/><line x1="200" y1="15" x2="400" y2="185" stroke="#cd853f" stroke-width="15.454545454545455" stroke-linecap="square"/><line x1="225" y1="15" x2="425" y2="185" stroke="#f5deb3" stroke-width="15.454545454545455" stroke-linecap="square"/><line x1="250" y1="15" x2="450" y2="185" stroke="#8b4513" stroke-width="15.454545454545455" stroke-linecap="square"/><line x1="275" y1="15" x2="475" y2="185" stroke="#d2691e" stroke-width="15.454545454545455" stroke-linecap="square"/><line x1="300" y1="15" x2="500" y2="185" stroke="#deb887" stroke-width="15.454545454545455" stroke-linecap="square"/><line x1="325" y1="15" x2="525" y2="185" stroke="#cd853f" stroke-width="15.454545454545455" stroke-linecap="square"/><line x1="350" y1="15" x2="550" y2="185" stroke="#f5deb3" stroke-width="15.454545454545455" stroke-linecap="square"/><line x1="375" y1="15" x2="575" y2="185" stroke="#8b4513" stroke-width="15.454545454545455" stroke-linecap="square"/></g><g transform="rotate(135, 100, 100)"><line x1="-200" y1="15" x2="0" y2="185" stroke="#cd853f" stroke-width="15.454545454545455" stroke-linecap="square"/><line x1="-175" y1="15" x2="25" y2="185" stroke="#deb887" stroke-width="15.454545454545455" stroke-linecap="square"/><line x1="-150" y1="15" x2="50" y2="185" stroke="#d2691e" stroke-width="15.454545454545455" stroke-linecap="square"/><line x1="-125" y1="15" x2="75" y2="185" stroke="#8b4513" stroke-width="15.454545454545455" stroke-linecap="square"/><line x1="-100" y1="15" x2="100" y2="185" stroke="#f5deb3" stroke-width="15.454545454545455" stroke-linecap="square"/><line x1="-75" y1="15" x2="125" y2="185" stroke="#cd853f" stroke-width="15.454545454545455" stroke-linecap="square"/><line x1="-50" y1="15" x2="150" y2="185" stroke="#deb887" stroke-width="15.454545454545455" stroke-linecap="square"/><line x1="-25" y1="15" x2="175" y2="185" stroke="#d2691e" stroke-width="15.454545454545455" stroke-linecap="square"/><line x1="0" y1="15" x2="200" y2="185" stroke="#8b4513" stroke-width="15.454545454545455" stroke-linecap="square"/><line x1="25" y1="15" x2="225" y2="185" stroke="#d2691e" stroke-width="15.454545454545455" stroke-linecap="square"/><line x1="50" y1="15" x2="250" y2="185" stroke="#deb887" stroke-width="15.454545454545455" stroke-linecap="square"/><line x1="75" y1="15" x2="275" y2="185" stroke="#cd853f" stroke-width="15.454545454545455" stroke-linecap="square"/><line x1="100" y1="15" x2="300" y2="185" stroke="#f5deb3" stroke-width="15.454545454545455" stroke-linecap="square"/><line x1="125" y1="15" x2="325" y2="185" stroke="#8b4513" stroke-width="15.454545454545455" stroke-linecap="square"/><line x1="150" y1="15" x2="350" y2="185" stroke="#d2691e" stroke-width="15.454545454545455" stroke-linecap="square"/><line x1="175" y1="15" x2="375" y2="185" stroke="#deb887" stroke-width="15.454545454545455" stroke-linecap="square"/><line x1="200" y1="15" x2="400" y2="185" stroke="#cd853f" stroke-width="15.454545454545455" stroke-linecap="square"/><line x1="225" y1="15" x2="425" y2="185" stroke="#f5deb3" stroke-width="15.454545454545455" stroke-linecap="square"/><line x1="250" y1="15" x2="450" y2="185" stroke="#8b4513" stroke-width="15.454545454545455" stroke-linecap="square"/><line x1="275" y1="15" x2="475" y2="185" stroke="#d2691e" stroke-width="15.454545454545455" stroke-linecap="square"/><line x1="300" y1="15" x2="500" y2="185" stroke="#deb887" stroke-width="15.454545454545455" stroke-linecap="square"/><line x1="325" y1="15" x2="525" y2="185" stroke="#cd853f" stroke-width="15.454545454545455" stroke-linecap="square"/><line x1="350" y1="15" x2="550" y2="185" stroke="#f5deb3" stroke-width="15.454545454545455" stroke-linecap="square"/><line x1="375" y1="15" x2="575" y2="185" stroke="#8b4513" stroke-width="15.454545454545455" stroke-linecap="square"/></g><g transform="rotate(180, 100, 100)"><line x1="-200" y1="15" x2="0" y2="185" stroke="#cd853f" stroke-width="15.454545454545455" stroke-linecap="square"/><line x1="-175" y1="15" x2="25" y2="185" stroke="#deb887" stroke-width="15.454545454545455" stroke-linecap="square"/><line x1="-150" y1="15" x2="50" y2="185" stroke="#d2691e" stroke-width="15.454545454545455" stroke-linecap="square"/><line x1="-125" y1="15" x2="75" y2="185" stroke="#8b4513" stroke-width="15.454545454545455" stroke-linecap="square"/><line x1="-100" y1="15" x2="100" y2="185" stroke="#f5deb3" stroke-width="15.454545454545455" stroke-linecap="square"/><line x1="-75" y1="15" x2="125" y2="185" stroke="#cd853f" stroke-width="15.454545454545455" stroke-linecap="square"/><line x1="-50" y1="15" x2="150" y2="185" stroke="#deb887" stroke-width="15.454545454545455" stroke-linecap="square"/><line x1="-25" y1="15" x2="175" y2="185" stroke="#d2691e" stroke-width="15.454545454545455" stroke-linecap="square"/><line x1="0" y1="15" x2="200" y2="185" stroke="#8b4513" stroke-width="15.454545454545455" stroke-linecap="square"/><line x1="25" y1="15" x2="225" y2="185" stroke="#d2691e" stroke-width="15.454545454545455" stroke-linecap="square"/><line x1="50" y1="15" x2="250" y2="185" stroke="#deb887" stroke-width="15.454545454545455" stroke-linecap="square"/><line x1="75" y1="15" x2="275" y2="185" stroke="#cd853f" stroke-width="15.454545454545455" stroke-linecap="square"/><line x1="100" y1="15" x2="300" y2="185" stroke="#f5deb3" stroke-width="15.454545454545455" stroke-linecap="square"/><line x1="125" y1="15" x2="325" y2="185" stroke="#8b4513" stroke-width="15.454545454545455" stroke-linecap="square"/><line x1="150" y1="15" x2="350" y2="185" stroke="#d2691e" stroke-width="15.454545454545455" stroke-linecap="square"/><line x1="175" y1="15" x2="375" y2="185" stroke="#deb887" stroke-width="15.454545454545455" stroke-linecap="square"/><line x1="200" y1="15" x2="400" y2="185" stroke="#cd853f" stroke-width="15.454545454545455" stroke-linecap="square"/><line x1="225" y1="15" x2="425" y2="185" stroke="#f5deb3" stroke-width="15.454545454545455" stroke-linecap="square"/><line x1="250" y1="15" x2="450" y2="185" stroke="#8b4513" stroke-width="15.454545454545455" stroke-linecap="square"/><line x1="275" y1="15" x2="475" y2="185" stroke="#d2691e" stroke-width="15.454545454545455" stroke-linecap="square"/><line x1="300" y1="15" x2="500" y2="185" stroke="#deb887" stroke-width="15.454545454545455" stroke-linecap="square"/><line x1="325" y1="15" x2="525" y2="185" stroke="#cd853f" stroke-width="15.454545454545455" stroke-linecap="square"/><line x1="350" y1="15" x2="550" y2="185" stroke="#f5deb3" stroke-width="15.454545454545455" stroke-linecap="square"/><line x1="375" y1="15" x2="575" y2="185" stroke="#8b4513" stroke-width="15.454545454545455" stroke-linecap="square"/></g><g transform="rotate(225, 100, 100)"><line x1="-200" y1="15" x2="0" y2="185" stroke="#cd853f" stroke-width="15.454545454545455" stroke-linecap="square"/><line x1="-175" y1="15" x2="25" y2="185" stroke="#deb887" stroke-width="15.454545454545455" stroke-linecap="square"/><line x1="-150" y1="15" x2="50" y2="185" stroke="#d2691e" stroke-width="15.454545454545455" stroke-linecap="square"/><line x1="-125" y1="15" x2="75" y2="185" stroke="#8b4513" stroke-width="15.454545454545455" stroke-linecap="square"/><line x1="-100" y1="15" x2="100" y2="185" stroke="#f5deb3" stroke-width="15.454545454545455" stroke-linecap="square"/><line x1="-75" y1="15" x2="125" y2="185" stroke="#cd853f" stroke-width="15.454545454545455" stroke-linecap="square"/><line x1="-50" y1="15" x2="150" y2="185" stroke="#deb887" stroke-width="15.454545454545455" stroke-linecap="square"/><line x1="-25" y1="15" x2="175" y2="185" stroke="#d2691e" stroke-width="15.454545454545455" stroke-linecap="square"/><line x1="0" y1="15" x2="200" y2="185" stroke="#8b4513" stroke-width="15.454545454545455" stroke-linecap="square"/><line x1="25" y1="15" x2="225" y2="185" stroke="#d2691e" stroke-width="15.454545454545455" stroke-linecap="square"/><line x1="50" y1="15" x2="250" y2="185" stroke="#deb887" stroke-width="15.454545454545455" stroke-linecap="square"/><line x1="75" y1="15" x2="275" y2="185" stroke="#cd853f" stroke-width="15.454545454545455" stroke-linecap="square"/><line x1="100" y1="15" x2="300" y2="185" stroke="#f5deb3" stroke-width="15.454545454545455" stroke-linecap="square"/><line x1="125" y1="15" x2="325" y2="185" stroke="#8b4513" stroke-width="15.454545454545455" stroke-linecap="square"/><line x1="150" y1="15" x2="350" y2="185" stroke="#d2691e" stroke-width="15.454545454545455" stroke-linecap="square"/><line x1="175" y1="15" x2="375" y2="185" stroke="#deb887" stroke-width="15.454545454545455" stroke-linecap="square"/><line x1="200" y1="15" x2="400" y2="185" stroke="#cd853f" stroke-width="15.454545454545455" stroke-linecap="square"/><line x1="225" y1="15" x2="425" y2="185" stroke="#f5deb3" stroke-width="15.454545454545455" stroke-linecap="square"/><line x1="250" y1="15" x2="450" y2="185" stroke="#8b4513" stroke-width="15.454545454545455" stroke-linecap="square"/><line x1="275" y1="15" x2="475" y2="185" stroke="#d2691e" stroke-width="15.454545454545455" stroke-linecap="square"/><line x1="300" y1="15" x2="500" y2="185" stroke="#deb887" stroke-width="15.454545454545455" stroke-linecap="square"/><line x1="325" y1="15" x2="525" y2="185" stroke="#cd853f" stroke-width="15.454545454545455" stroke-linecap="square"/><line x1="350" y1="15" x2="550" y2="185" stroke="#f5deb3" stroke-width="15.454545454545455" stroke-linecap="square"/><line x1="375" y1="15" x2="575" y2="185" stroke="#8b4513" stroke-width="15.454545454545455" stroke-linecap="square"/></g><g transform="rotate(270, 100, 100)"><line x1="-200" y1="15" x2="0" y2="185" stroke="#cd853f" stroke-width="15.454545454545455" stroke-linecap="square"/><line x1="-175" y1="15" x2="25" y2="185" stroke="#deb887" stroke-width="15.454545454545455" stroke-linecap="square"/><line x1="-150" y1="15" x2="50" y2="185" stroke="#d2691e" stroke-width="15.454545454545455" stroke-linecap="square"/><line x1="-125" y1="15" x2="75" y2="185" stroke="#8b4513" stroke-width="15.454545454545455" stroke-linecap="square"/><line x1="-100" y1="15" x2="100" y2="185" stroke="#f5deb3" stroke-width="15.454545454545455" stroke-linecap="square"/><line x1="-75" y1="15" x2="125" y2="185" stroke="#cd853f" stroke-width="15.454545454545455" stroke-linecap="square"/><line x1="-50" y1="15" x2="150" y2="185" stroke="#deb887" stroke-width="15.454545454545455" stroke-linecap="square"/><line x1="-25" y1="15" x2="175" y2="185" stroke="#d2691e" stroke-width="15.454545454545455" stroke-linecap="square"/><line x1="0" y1="15" x2="200" y2="185" stroke="#8b4513" stroke-width="15.454545454545455" stroke-linecap="square"/><line x1="25" y1="15" x2="225" y2="185" stroke="#d2691e" stroke-width="15.454545454545455" stroke-linecap="square"/><line x1="50" y1="15" x2="250" y2="185" stroke="#deb887" stroke-width="15.454545454545455" stroke-linecap="square"/><line x1="75" y1="15" x2="275" y2="185" stroke="#cd853f" stroke-width="15.454545454545455" stroke-linecap="square"/><line x1="100" y1="15" x2="300" y2="185" stroke="#f5deb3" stroke-width="15.454545454545455" stroke-linecap="square"/><line x1="125" y1="15" x2="325" y2="185" stroke="#8b4513" stroke-width="15.454545454545455" stroke-linecap="square"/><line x1="150" y1="15" x2="350" y2="185" stroke="#d2691e" stroke-width="15.454545454545455" stroke-linecap="square"/><line x1="175" y1="15" x2="375" y2="185" stroke="#deb887" stroke-width="15.454545454545455" stroke-linecap="square"/><line x1="200" y1="15" x2="400" y2="185" stroke="#cd853f" stroke-width="15.454545454545455" stroke-linecap="square"/><line x1="225" y1="15" x2="425" y2="185" stroke="#f5deb3" stroke-width="15.454545454545455" stroke-linecap="square"/><line x1="250" y1="15" x2="450" y2="185" stroke="#8b4513" stroke-width="15.454545454545455" stroke-linecap="square"/><line x1="275" y1="15" x2="475" y2="185" stroke="#d2691e" stroke-width="15.454545454545455" stroke-linecap="square"/><line x1="300" y1="15" x2="500" y2="185" stroke="#deb887" stroke-width="15.454545454545455" stroke-linecap="square"/><line x1="325" y1="15" x2="525" y2="185" stroke="#cd853f" stroke-width="15.454545454545455" stroke-linecap="square"/><line x1="350" y1="15" x2="550" y2="185" stroke="#f5deb3" stroke-width="15.454545454545455" stroke-linecap="square"/><line x1="375" y1="15" x2="575" y2="185" stroke="#8b4513" stroke-width="15.454545454545455" stroke-linecap="square"/></g><g transform="rotate(315, 100, 100)"><line x1="-200" y1="15" x2="0" y2="185" stroke="#cd853f" stroke-width="15.454545454545455" stroke-linecap="square"/><line x1="-175" y1="15" x2="25" y2="185" stroke="#deb887" stroke-width="15.454545454545455" stroke-linecap="square"/><line x1="-150" y1="15" x2="50" y2="185" stroke="#d2691e" stroke-width="15.454545454545455" stroke-linecap="square"/><line x1="-125" y1="15" x2="75" y2="185" stroke="#8b4513" stroke-width="15.454545454545455" stroke-linecap="square"/><line x1="-100" y1="15" x2="100" y2="185" stroke="#f5deb3" stroke-width="15.454545454545455" stroke-linecap="square"/><line x1="-75" y1="15" x2="125" y2="185" stroke="#cd853f" stroke-width="15.454545454545455" stroke-linecap="square"/><line x1="-50" y1="15" x2="150" y2="185" stroke="#deb887" stroke-width="15.454545454545455" stroke-linecap="square"/><line x1="-25" y1="15" x2="175" y2="185" stroke="#d2691e" stroke-width="15.454545454545455" stroke-linecap="square"/><line x1="0" y1="15" x2="200" y2="185" stroke="#8b4513" stroke-width="15.454545454545455" stroke-linecap="square"/><line x1="25" y1="15" x2="225" y2="185" stroke="#d2691e" stroke-width="15.454545454545455" stroke-linecap="square"/><line x1="50" y1="15" x2="250" y2="185" stroke="#deb887" stroke-width="15.454545454545455" stroke-linecap="square"/><line x1="75" y1="15" x2="275" y2="185" stroke="#cd853f" stroke-width="15.454545454545455" stroke-linecap="square"/><line x1="100" y1="15" x2="300" y2="185" stroke="#f5deb3" stroke-width="15.454545454545455" stroke-linecap="square"/><line x1="125" y1="15" x2="325" y2="185" stroke="#8b4513" stroke-width="15.454545454545455" stroke-linecap="square"/><line x1="150" y1="15" x2="350" y2="185" stroke="#d2691e" stroke-width="15.454545454545455" stroke-linecap="square"/><line x1="175" y1="15" x2="375" y2="185" stroke="#deb887" stroke-width="15.454545454545455" stroke-linecap="square"/><line x1="200" y1="15" x2="400" y2="185" stroke="#cd853f" stroke-width="15.454545454545455" stroke-linecap="square"/><line x1="225" y1="15" x2="425" y2="185" stroke="#f5deb3" stroke-width="15.454545454545455" stroke-linecap="square"/><line x1="250" y1="15" x2="450" y2="185" stroke="#8b4513" stroke-width="15.454545454545455" stroke-linecap="square"/><line x1="275" y1="15" x2="475" y2="185" stroke="#d2691e" stroke-width="15.454545454545455" stroke-linecap="square"/><line x1="300" y1="15" x2="500" y2="185" stroke="#deb887" stroke-width="15.454545454545455" stroke-linecap="square"/><line x1="325" y1="15" x2="525" y2="185" stroke="#cd853f" stroke-width="15.454545454545455" stroke-linecap="square"/><line x1="350" y1="15" x2="550" y2="185" stroke="#f5deb3" stroke-width="15.454545454545455" stroke-linecap="square"/><line x1="375" y1="15" x2="575" y2="185" stroke="#8b4513" stroke-width="15.454545454545455" stroke-linecap="square"/></g></g></g><circle cx="115" cy="100" r="12" fill="#8b4513" fill-opacity="0.8" stroke="#6d2700" stroke-width="4"/><circle cx="107.5" cy="112.99038105676658" r="12" fill="#d2691e" fill-opacity="0.8" stroke="#b44b00" stroke-width="4"/><circle cx="92.5" cy="112.99038105676658" r="12" fill="#deb887" fill-opacity="0.8" stroke="#c09a69" stroke-width="4"/><circle cx="85" cy="100" r="12" fill="#cd853f" fill-opacity="0.8" stroke="#af6721" stroke-width="4"/><circle cx="92.5" cy="87.00961894323342" r="12" fill="#f5deb3" fill-opacity="0.8" stroke="#d7c095" stroke-width="4"/><circle cx="107.5" cy="87.00961894323342" r="12" fill="#8b4513" fill-opacity="0.8" stroke="#6d2700" stroke-width="4"/><circle cx="100" cy="100" r="10" fill="#8b4513" stroke="#631d00" stroke-width="8"/><polygon points="15,3 27,15 15,27 3,15" fill="#8b4513" fill-opacity="0.4" stroke="#8b4513" stroke-width="6.5"/><polygon points="185,173 197,185 185,197 173,185" fill="#8b4513" fill-opacity="0.4" stroke="#8b4513" stroke-width="6.5"/><polygon points="185,5 195,15 185,25 175,15" fill="#d2691e" fill-opacity="0.3" stroke="#d2691e" stroke-width="5.2"/><polygon points="15,175 25,185 15,195 5,185" fill="#d2691e" fill-opacity="0.3" stroke="#d2691e" stroke-width="5.2"/><rect x="5" y="5" width="190" height="190" fill="none" stroke="#6d4918" stroke-width="5" stroke-opacity="0.53"/><circle cx="5" cy="5" r="4" fill="none" stroke="#6d4918" stroke-width="2.5" stroke-opacity="0.53"/><circle cx="195" cy="5" r="4" fill="none" stroke="#6d4918" stroke-width="2.5" stroke-opacity="0.53"/><circle cx="195" cy="195" r="4" fill="none" stroke="#6d4918" stroke-width="2.5" stroke-opacity="0.53"/><circle cx="5" cy="195" r="4" fill="none" stroke="#6d4918" stroke-width="2.5" stroke-opacity="0.53"/></svg>